<svg xmlns="http://www.w3.org/2000/svg" xmlns:xlink="http://www.w3.org/1999/xlink" width="629.18" height="432.362" viewBox="0 0 629.18 432.362"><defs><linearGradient id="a" x1="0.136" y1="0.066" x2="0.656" y2="0.67" gradientUnits="objectBoundingBox"><stop offset="0.095" stop-color="#fff"/><stop offset="0.125" stop-color="#fff" stop-opacity="0.929"/><stop offset="0.225" stop-color="#fff" stop-opacity="0.714"/><stop offset="0.328" stop-color="#fff" stop-opacity="0.522"/><stop offset="0.432" stop-color="#fff" stop-opacity="0.361"/><stop offset="0.538" stop-color="#fff" stop-opacity="0.231"/><stop offset="0.646" stop-color="#fff" stop-opacity="0.129"/><stop offset="0.757" stop-color="#fff" stop-opacity="0.059"/><stop offset="0.872" stop-color="#fff" stop-opacity="0.016"/><stop offset="1" stop-color="#fff" stop-opacity="0"/></linearGradient></defs><g transform="translate(-3029.491 -1601.804)"><path d="M3332.531,1643.619c.371.642,22.714-13.728,22.98-13.267.976,1.69-57.73,40.131-56.807,41.73,1.356,2.348,95.113-57.658,96.3-55.6,1.705,2.953-114.371,72.8-112.852,75.434,2.1,3.634,134.294-81.292,135.921-78.474,2.5,4.328-148.54,91.9-146.612,95.242,2.067,3.58,161.625-98.863,164.028-94.7s-174.69,105.617-171.819,110.59c2.711,4.695,184.025-112.87,186.893-107.9,2.674,4.633-195.239,115.829-192.02,121.4,3.293,5.7,201.221-122.4,203.917-117.731,2.931,5.076-210,123.567-207.142,128.517,2.823,4.89,213.57-129.236,216.138-124.787,2.667,4.619-222.335,133.362-219.248,138.709,3.837,6.648,226.513-139.493,230.287-132.956,4.1,7.11-234.979,140.193-232.107,145.166,3.843,6.657,237.213-146.434,241.317-139.325,3.463,6-246.175,144.208-242.335,150.859,3.025,5.239,247.631-150.066,250.7-144.744,4.1,7.1-254.7,148.536-251.047,154.855,3.573,6.188,254.509-155.34,258.146-149.04,3.292,5.7-261.614,154.375-257.9,160.8,4.361,7.555,262.274-159.8,265.9-153.519,3.878,6.718-269.38,157.269-265.006,164.846,3.156,5.465,268.738-163.753,272.461-157.306s-275.343,158.616-271.449,165.36c3.832,6.638,273.051-166.049,276.689-159.747,4.727,8.186-278.406,164.516-274.724,170.894,4.111,7.121,278.171-168.874,281.753-162.671,4.761,8.247-283.878,164.85-279.507,172.42,3.495,6.054,281.481-171.762,285.486-164.825,4.3,7.453-287.393,166.292-282.837,174.184,3.4,5.883,284.853-172.887,288.5-166.567,4.371,7.57-290.029,167.117-285.765,174.5,3.562,6.169,285.859-175.915,290.568-167.76,3.852,6.673-291.419,169.324-286.627,177.623,3.468,6.007,288.275-176.062,292.443-168.842,3.972,6.88-293.234,169.094-288.387,177.489,4.971,8.611,290.018-175.319,293.428-169.412,4.06,7.032-294,168.985-289.251,177.2,4.658,8.068,290.1-176.008,293.792-169.621,4.718,8.172-294.873,167.612-290.18,175.74,4.745,8.218,289.2-177.4,293.715-169.577,4.31,7.464-293.632,168.609-289.091,176.475,4.508,7.807,288.349-177.388,293.073-169.206,3.852,6.672-292.993,167.337-288.268,175.522,4.069,7.047,287.985-175.49,291.978-168.574,4.444,7.7-291.044,167.686-287.391,174.012,4.2,7.283,285.909-175.775,290.545-167.746,4.136,7.165-287.333,168.586-283.533,175.167,3.958,6.856,284.219-172.575,287.891-166.214,4.722,8.177-284.522,166.012-280.406,173.14,4.052,7.019,281.1-170.16,284.51-164.261,4.775,8.271-280.541,162.99-275.692,171.388,4.631,8.021,276.058-168.291,279.916-161.61,4.738,8.207-276.549,160.125-272.8,166.62,3.905,6.765,271.8-166,275.728-159.191,3.326,5.76-270.679,157.9-266.651,164.883,3.742,6.481,266.788-161.441,270-155.883,3.089,5.351-267.183,152.144-262.729,159.859,4.519,7.827,261.219-159.819,265.118-153.066,3.792,6.569-258.637,151.1-254.552,158.173,3.964,6.865,253.447-155.647,257.483-148.658,3.293,5.7-249.074,147.058-245.337,153.531,3.418,5.92,244.441-149.579,248.1-143.241,3.21,5.56-242.724,139.726-238.841,146.452,3.987,6.905,236.42-146.055,240.559-138.887,3.285,5.691-230.527,136.471-226.9,142.746,3.048,5.279,225.3-138.374,228.892-132.151,2.914,5.048-220.616,128.917-217.235,134.774,3.07,5.318,215.663-130.823,218.4-126.09,2.889,5-207.52,123.3-204.552,128.446,3.112,5.389,202.132-124.1,205.337-118.552,2.695,4.667-191.667,115.622-188.9,120.415,2.614,4.527,186.61-113.275,189.007-109.123,2.182,3.779-171.494,106.414-169.446,109.962,2.058,3.564,165.707-101.658,168.3-97.168,2.039,3.531-150.852,92.882-148.624,96.74,2.238,3.877,143.942-87.912,146.023-84.307,1.606,2.782-126.368,79.3-124.674,82.238,1.782,3.086,118.056-72.662,120.005-69.285,1.444,2.5-92.46,61.23-91.083,63.614,1.092,1.891,79.39-48.887,80.712-46.6" fill="none" stroke="#ffd100" stroke-linecap="round" stroke-linejoin="round" stroke-width="2"/><path d="M3539.641,1957.278c-1.453.552-2.891,1.14-4.356,1.662,14.107-5.313,28.345-12.538,40.591-22-13.617,9.937-30.54,17.608-47.144,23.069-16.617,5.534-32.867,9.1-45.821,12.245-1.527-.556-10.544-.088-19.264.066-8.722.206-17.152.026-17.491.231q-10.307.381-20.887-.149c2.42.158,4.841.208,7.248.31,2.412.031,4.813.092,7.206.073-2.393.019-4.794-.042-7.206-.073-2.407-.1-4.828-.152-7.248-.31a215.074,215.074,0,0,1-67.621-14.329c-22.184-8.716-43.366-22.1-60.144-40.248a141.286,141.286,0,0,1-16.868-22.094,149.684,149.684,0,0,1-8.516-15.651,167.077,167.077,0,0,1-7.17-17.575,188.538,188.538,0,0,1-5.277-18.292c-1.372-6.081-2.517-12.035-3.246-17.687a187.328,187.328,0,0,1-1.7-28.291c.056-4.079.249-8.13.544-12.231-.5,6.8-.494,6.8-.685,13.628a183.822,183.822,0,0,1,4.545-47.545c-.433,1.264-.732,2-1.153,3.173-.386,1.185-.864,2.82-1.681,5.892l.88-3.772c.285-1.259.585-2.514.939-3.755.293-1.742.654-4.069,1.336-6.619.328-1.28.675-2.632,1.031-4.022.4-1.379.841-2.785,1.272-4.2.218-.707.437-1.416.654-2.121q.366-1.044.727-2.075l1.4-4,2.573-6.611c-.186.818.368-.138,1.251-1.9.431-.884.956-1.964,1.52-3.121.594-1.141,1.227-2.359,1.841-3.537l-1.159,1.772a181.424,181.424,0,0,1,16.711-26.849,186.521,186.521,0,0,1,20.005-22.494,38.211,38.211,0,0,1,4.244-3.6c2.084-2.008,4.293-3.878,6.466-5.793,1.083-.961,2.229-1.846,3.342-2.774,1.126-.909,2.222-1.86,3.386-2.723-.392.587,2.55-1.49,4.8-3.032,2.29-1.488,3.849-2.5.535-.025a153.112,153.112,0,0,1,16.2-10.813c5.58-3.268,11.274-6.156,16.8-8.972a169.694,169.694,0,0,1,31.833-10.67c2.752-.677,5.553-1.123,8.347-1.654l4.221-.606c.705-.1,1.409-.21,2.116-.29l2.125-.206a117.182,117.182,0,0,1,17.1-.566,102.74,102.74,0,0,1,17.032,1.995c2.824.506,5.592,1.273,8.377,1.976,2.742.853,5.509,1.642,8.2,2.677a120.538,120.538,0,0,1,15.774,7.009,143.144,143.144,0,0,1,14.776,8.929l-.824-.789a193.041,193.041,0,0,1,18.9,14.343,166.133,166.133,0,0,1,18.557,18.825c4.862,5.115,10.388,11.659,15.057,17.537,4.7,5.856,8.533,11.046,10.516,13.118,4.57,6.79,7.7,11.588,10.772,16.379,3.033,4.813,6.053,9.6,9.971,16.617-.779-1.935,1.223,1.421,2.927,4.407,1.731,2.98,3.168,5.539,1.526,1.961-1.1-2.439-1.972-4.287-2.722-5.813-.768-1.518-1.413-2.714-2.035-3.866-1.235-2.309-2.44-4.4-4.447-8.487l0,.314a344.107,344.107,0,0,0-35.566-52.968,235.844,235.844,0,0,0-22.213-23.463c-4.033-3.622-8.15-7.18-12.517-10.461-2.14-1.693-4.4-3.24-6.628-4.833-1.118-.79-2.286-1.515-3.428-2.276s-2.289-1.516-3.481-2.206c-12.625-7.453-27.006-13.561-42.371-16.425a125.306,125.306,0,0,0-46.271.366,173.6,173.6,0,0,0-46.8,16.367,201.493,201.493,0,0,0-38.13,25.549c-2.479,2.208-4.731,3.965-6.8,5.752l-3.13,2.585-3.1,2.739c-2.314,2.217-4.546,4.673-6.9,7.133-2.266,2.541-4.619,5.121-6.862,7.888a184.039,184.039,0,0,0-13.069,17.708,173.082,173.082,0,0,0-11.058,19.782,164.97,164.97,0,0,0-8.134,20.7c.175-.514.346-1.014.457-1.341-2.455,7.288-4.23,13.777-5.76,20.276a155.762,155.762,0,0,0-3.468,20.514,26.027,26.027,0,0,1-.143,3.383,114.646,114.646,0,0,0-.843,14.946,203.528,203.528,0,0,0,2.225,30.658,207,207,0,0,0,7,30.384c.61,2.11,1.325,4.026,1.9,5.781s1.158,3.306,1.657,4.637l1.874,5.077,1.875,4.424a166.691,166.691,0,0,0,23.836,40.92,147.187,147.187,0,0,0,32.584,29.881,160.474,160.474,0,0,0,15.472,8.3,41.02,41.02,0,0,0,4.776,2.48c1.438.6,2.99,1.231,5.578,2.512a98.639,98.639,0,0,0,14.64,6.937c1.424.533,2.224.738,2.229.635a12.176,12.176,0,0,0-2.519-1.28c5.678,2.026,11.411,3.912,17.056,5.487,2.808.842,5.617,1.509,8.346,2.233,2.752.62,5.426,1.305,8.05,1.8l3.649.677,3.66.593c2.437.414,4.9.725,7.367,1.056a60.263,60.263,0,0,1,8.607,1.532c5.4.523,7.3.684,9.267.928s4,.509,9.672.875c1.362.28,8.507.454,15.691.149,7.185-.27,14.4-.882,16-.954l-1.848.185c13.094-.743,21.9-.886,34.621-3.1a223.575,223.575,0,0,0,26.653-6.271,193.561,193.561,0,0,0,26.071-9.836,153.339,153.339,0,0,0,23.9-13.669,129.712,129.712,0,0,0,10.575-8.249c1.616-1.508,3.3-2.91,4.809-4.48l2.3-2.289,2.175-2.373c-.068-.288-1.287,1.145-2.64,2.574-1.384,1.4-2.85,2.846-3.2,2.762a115.464,115.464,0,0,0,10.169-11.1,92.178,92.178,0,0,0,8.415-12.69,85.357,85.357,0,0,0,6.08-14.032,91.529,91.529,0,0,0,3.654-14.8c.179-.9.367-1.847.554-2.791.155-.947.308-1.888.452-2.769s.286-1.7.405-2.405c.1-.7.188-1.29.248-1.7.157-1.611.247-2.657.276-3.392.012-.735-.006-1.158-.029-1.528a25.772,25.772,0,0,1-.012-3.62l.418-.632c-.1-1.727-.118-3.219-.1-4.59-.031-1.367-.019-2.614,0-3.851s.012-2.458-.044-3.775a42.773,42.773,0,0,0-.345-4.334,33.533,33.533,0,0,1-.733-4.944c.439-.176-1-6.983-.6-6.707l-.044-.06c-.224-1.363-.405-2.327-.623-4-.159-.635-.653-2.6-1.313-5.228-.723-2.609-1.6-5.88-2.612-9.1-1.966-6.466-4.278-12.783-4.756-14.007l-.3-1.186c-1.116-3.449-1.9-4.818-1.335-2.78-.431-1.425-.93-2.824-1.394-4.236l.2.477c-.478-1.4-.921-2.81-1.428-4.2-.241-.781-.362-1.722.253-.6-1-2.313-2.04-4.936-2.881-7.3,2.259,6.612,4.747,14.942,6.415,22.059-1-2.828-2.445-8.048-3.566-11.1-.465-1.891-1.376-4.71-2.364-7.816-1.044-3.082-2.2-6.438-3.288-9.344a31.078,31.078,0,0,1-2.342-4.868c-.271-1.524-1.359-3.215-2.18-5.658,1.379,2.619,2.4,5.328,3.553,8.089.174-.626-2.567-6.83-3.45-9.026-.547-.972-2.81-6.29-4.466-9.523,1.034,1.262-1.036-2.749-1.776-4.784-1.038-2.218-1.877-3.55-1.558-2.6-.7-.537,4.014,8.871,2.131,5.995a26.366,26.366,0,0,0-1.38-3.221c-.731-1.458-1.557-3.1-2.134-4.253-.221.075.623,1.654-.315.257-1.216-2.6-2.877-5.152-3.4-6.73.3.449.8,1.517,1.18,2.266-.844-1.662,1.821,2.645,4.3,6.913s4.825,8.465,3.73,6.3c.16.62-2.385-4.071-4.989-8.538-2.58-4.482-5.16-8.772-4.588-7.672.933,2.073-1.112-1.252-.113.875l1.438,2.194c1.394,2.9,1.609,4.26.965,3.32-1.194-2.408.88.818,2.933,4.181s4.054,6.872,2.961,4.837l.708,1.738a82.264,82.264,0,0,1-4.029-8.259c-.218.091-1.436-2.24-2.506-4.142l-.318-.706c-1.129-1.953-2.515-4.779-2.116-3.337,6.038,11.717-6.01-6.638-.321,4.768-1.992-4.98,1.312,1.347,3.819,6.362a50.016,50.016,0,0,0,2.554,6.61c1.5,3.15,1.028,1.789,1.423,2.338.714,1.8,2.151,5.21,1.7,4.88,1.378,2.363,1.594,4.044,2.947,7.008,1.253,2.589.051-.232.985,1.586,1.657,3.983,3.813,9.632,4.965,12.865.237,1.331,1.185,5.28-.176,2.65-2.213-6.134,1.49,2.1-1-4.222.519,2.931-2.29-5.557-3.194-6.525.59,2.094,2.171,6.172,3.521,9.575l-.182-.715c.587,1.5,1.462,3.76,2.291,6.07.786,2.325,1.572,4.686,1.955,6.4-.446-.718-.107.771-.9-1.459.465,1.4.883,2.822,1.326,4.231.232.518.47,1.05.125-.182a33.312,33.312,0,0,1,1.646,5.554c-.031.261,1.874,5.845,3.437,11.386.834,2.757,1.5,5.519,2.047,7.526.479,2.022.774,3.3.707,3.133.643,3.14.394,3.967,1.14,7,.056.075-.277-1.767-.8-4.505-.575-2.728-1.372-6.342-2.278-9.805-1.786-6.932-3.859-13.267-3.243-11.246.254,1.343,2.946,9.99,4.851,18.759.99,4.374,1.754,8.774,2.269,12.2a52.97,52.97,0,0,1,.658,6.4c.194,2.362.454,5.212.627,4.645.067,4.011-.458-1.175-.539,1.683.037.062.1-.237.128.67l-.157,2.741c.1,1.547.14,3.278.167,5.1-.046,1.824-.091,3.746-.2,5.671-.257,3.85-.627,7.722-.934,10.96.036-.946.044-1.96.015-3.264s.071-2.872.08-4.956l.164-.716c-.011-.3.026-1.3.038-2.217a4.137,4.137,0,0,0-.163-1.707c-.31,3.925-.575,7.276-.9,11.412l-.527,2.2c.03-.011.063-.07.092-.049-.344,1.314-.342,1.167-.347.667a2.025,2.025,0,0,1,0-.289,28.818,28.818,0,0,0-.847,3.451c-.157.818-.332,1.734-.521,2.717-.222.975-.459,2.017-.7,3.095a58.382,58.382,0,0,1-4.13,12.3c-.773,1.957.053.24-.951,2.661a80.273,80.273,0,0,1-5.094,8.418c-.9,1.272-1.765,2.58-2.812,3.865l-1.563,2.02c-.548.686-1.159,1.364-1.77,2.092-1.331,2.051-1.38,2.28.712.175-.63.73-1.229,1.485-1.883,2.2l-1.977,2.112c.751-1.1.638-1.169.106-.745s-1.467,1.365-2.474,2.213c-1.969,1.739-3.89,3.391-2.107,1.114-.631.548-1.613,1.362-2.7,2.338l-1.7,1.558-1.814,1.593a2.529,2.529,0,0,1-.6.9,19.851,19.851,0,0,1-2.909,2.508c-2.293,1.644-3.233,2.179-4.024,2.71-.81.505-1.473,1.007-3.509,2.163-1.056.4.328-.606.058-.655a29.4,29.4,0,0,1-5.725,3.422c-1.371.66-2.744,1.2-5.7,2.852-3.689,2.1-11.282,5.692-11.345,6.078a27.779,27.779,0,0,1-4.647,1.743C3539.366,1957.74,3539.44,1957.539,3539.641,1957.278Z" fill="#ffd100"/><g opacity="0.1"><path d="M3618.9,1705.336c25.582,49.179,39.108,100.343,20.363,135.114-18.819,34.7-69.909,53-122.1,53.59-52.267.588-105.489-16.393-135.334-57.486-29.772-41.167-36.168-106.3-9.557-156.138,26.685-49.767,86.3-84.244,134.893-77.849S3593.317,1656.084,3618.9,1705.336Z" fill="#ffd100"/></g><g opacity="0.1"><path d="M3480.306,1801.2c25.582,49.179,39.108,100.343,20.363,135.113-18.819,34.7-69.909,53-122.1,53.59-52.267.588-105.489-16.393-135.335-57.486-29.772-41.166-36.167-106.3-9.556-156.138,26.684-49.767,86.3-84.244,134.893-77.848S3454.724,1751.943,3480.306,1801.2Z" fill="#ffd100"/></g><path d="M3607.475,1715.612c20.687,34.525,50.09,72.923,36.947,94.954-13.074,22.09-68.613,28-102.81,55.356-34.255,27.429-47.167,76.309-77.83,103.551-30.6,27.172-79.088,32.718-98.581,2.985-19.364-29.744-9.669-94.707-35.916-135.316s-88.494-56.794-107.385-85.548c-18.949-28.685,5.388-70,40.873-89.287s82.049-16.612,116.039-11.091,55.409,13.885,83.853,9.068c28.5-4.887,64.1-22.9,87.988-16.489S3586.719,1681.029,3607.475,1715.612Z" fill="#07b5bd"/><ellipse cx="314.59" cy="10.762" rx="314.59" ry="10.762" transform="translate(3029.491 2012.641)" fill="#f4f4f4" opacity="0.7"/><circle cx="37.053" cy="37.053" r="37.053" transform="translate(3520.745 1654.697)" fill="#f2f2f2"/><circle cx="2.097" cy="2.097" r="2.097" transform="translate(3555.701 1660.29)"/><circle cx="2.097" cy="2.097" r="2.097" transform="translate(3526.338 1689.653)"/><circle cx="2.097" cy="2.097" r="2.097" transform="translate(3585.063 1689.653)"/><circle cx="2.097" cy="2.097" r="2.097" transform="translate(3555.701 1719.016)"/><path d="M3557.8,1666.582l1.4,24.469h-2.8Z" fill="#afb9c5"/><path d="M3570.171,1704.123l-12.853-10.875,1.978-1.978Z" fill="#afb9c5"/><circle cx="2.796" cy="2.796" r="2.796" transform="translate(3555.001 1688.954)" fill="#c5cfd6"/><path d="M3393.569,2016.078V1787.064a11.184,11.184,0,0,1,3.275-7.907l34.559-34.574h0a5.594,5.594,0,0,1,7.91,0l12.981,12.987" fill="none" stroke="#cbcbcb" stroke-miterlimit="10" stroke-width="8"/><rect width="41.248" height="4.894" rx="2.097" transform="translate(3373.295 2015.379)" fill="#afb9c5"/><path d="M3477.115,1749.949l13.842,13.841h0l-32.627,32.627h0l-13.842-13.841a23.07,23.07,0,0,1,0-32.627h0A23.07,23.07,0,0,1,3477.115,1749.949Z" fill="#c5cfd6"/><ellipse cx="23.071" cy="4.544" rx="23.071" ry="4.544" transform="translate(3454.564 1792.828) rotate(-45)" fill="#f2f2f2"/><path d="M3259.313,1854a11.83,11.83,0,0,1,6,.629c3.96,1.678,5.086,6.362,5.033,10.163-.058,4.093-.927,8.563,2.184,11.861,1.431,1.516,3.21,2.676,4.614,4.22a19.953,19.953,0,0,1,3.551,5.565c1.6,3.724,2.386,8.1.922,12.009-1.289,3.439-4.532,6.543-3.831,10.454.729,4.084,4.842,7.2,7.414,10.241,2.91,3.439,5.593,7.834,6.03,12.344.419,4.322-1.46,8.693-4.347,11.96-5.768,6.527-14.439,9.727-23.181,9.708-3.712-.009-7.915-.177-11.116-2.171a6.132,6.132,0,0,1-2.1-2.27,7.394,7.394,0,0,0-2.032-2.033,12.064,12.064,0,0,1-3.869-5.168c-3.173-7.853-.637-17.568,3.8-24.539,1.052-1.652,1.913-3.242,1.4-5.211a20.14,20.14,0,0,0-3.007-5.681,45.7,45.7,0,0,1-3.35-5.3,12.026,12.026,0,0,1-1.036-6.213,21.137,21.137,0,0,1,4.553-11.091c2.392-3.15,5.2-6.165,5.21-10.292.007-4.374-2.917-8.266-1.671-12.714a8.473,8.473,0,0,1,3.222-4.835A13.127,13.127,0,0,1,3259.313,1854Z" fill="#dde3e9"/><path d="M3258,1861a1.008,1.008,0,0,1,1.171-.813,1.1,1.1,0,0,1,.113.027c.722.2.708.877.689,1.478a19.908,19.908,0,0,0,.653,5.436c.923,3.728,2.627,7.163,3.981,10.743a19.531,19.531,0,0,1,1.192,11.058c-.747,3.569-1.92,7.044-2.685,10.62-.674,3.15-1.391,6.472-.365,9.613.987,3.025,3.169,5.488,4.742,8.221a38.763,38.763,0,0,1,4.89,18.393,34.4,34.4,0,0,1-.687,8.969c-.4,1.694-.939,3.985-2.39,5.152a1.66,1.66,0,0,1-2.377-.07c-.53-.748-.065-1.908.1-2.707a40.971,40.971,0,0,0,.7-10.5,37.87,37.87,0,0,0-1.64-10.039,33.956,33.956,0,0,0-4.275-8.357c-1.809-2.685-3.69-5.377-4.437-8.559-.759-3.232-.14-6.521.682-9.691.873-3.356,2.016-6.61,3.2-9.873a17.323,17.323,0,0,0,.924-9.512C3260.927,1874.013,3257.567,1867.843,3258,1861Z" fill="#c5cfd6"/><path d="M3312.19,1861.98a15.023,15.023,0,0,1,6.706,3.871c3.756,4.048,2.6,10.167.53,14.636-2.232,4.81-5.615,9.647-3.705,15.163.876,2.538,2.35,4.836,3.181,7.392a25.775,25.775,0,0,1,1.223,8.429c-.09,5.236-1.484,10.824-5.265,14.681-3.33,3.4-8.775,5.383-10.02,10.37-1.3,5.205,1.877,11.033,3.286,15.965,1.6,5.581,2.415,12.172.548,17.734-1.789,5.331-6.306,9.521-11.419,11.885-10.216,4.719-22.078,3.993-32.322-.579-4.349-1.941-9.19-4.326-11.892-8.352a7.871,7.871,0,0,1-1.265-3.775,9.516,9.516,0,0,0-1.312-3.464,15.545,15.545,0,0,1-1.8-8.125c.43-10.938,8.539-21.108,17.433-27.045,2.108-1.406,3.958-2.838,4.4-5.433.46-2.709-.1-5.583-.523-8.277a59.133,59.133,0,0,1-1.127-8.011,15.694,15.694,0,0,1,2.068-7.888,27.621,27.621,0,0,1,11.2-10.747c4.474-2.48,9.362-4.583,11.551-9.461,2.321-5.173.948-11.293,4.759-15.905a11.032,11.032,0,0,1,6.336-4.042C3307.2,1860.583,3309.859,1861.273,3312.19,1861.98Z" fill="#dde3e9"/><path d="M3307.128,1870.53a1.283,1.283,0,0,1,1.912-.26c.739.618.37,1.41.033,2.112a26.033,26.033,0,0,0-2.084,6.781c-.872,4.9-.677,9.858-.971,14.809a25.586,25.586,0,0,1-4.4,13.719c-2.742,3.836-5.935,7.341-8.7,11.17-2.438,3.378-5.015,6.935-5.461,11.194-.43,4.1.832,8.16,1.239,12.221a50.808,50.808,0,0,1-3.915,24.345,44.919,44.919,0,0,1-5.5,10.26c-1.355,1.8-3.184,4.225-5.493,4.85-1.066.288-2.5-.092-2.742-1.333-.226-1.164.923-2.294,1.538-3.152a53.6,53.6,0,0,0,6.314-12.064,49.683,49.683,0,0,0,3.341-12.748,44.439,44.439,0,0,0-.626-12.134c-.709-4.129-1.5-8.3-.706-12.463.805-4.225,3.249-7.8,5.873-11.116,2.776-3.514,5.819-6.772,8.909-10.016a22.616,22.616,0,0,0,6.063-10.783C3303.729,1887.475,3303.031,1878.407,3307.128,1870.53Z" fill="#c5cfd6"/><path d="M3235.577,1893.034a13.3,13.3,0,0,1,10.24,5.284c2.922,3.628,3.512,8.059,4.7,12.384a11.061,11.061,0,0,0,3.386,5.752c1.619,1.328,3.674,1.6,5.611,2.246a13.092,13.092,0,0,1,8.234,8.241c1.507,4.655-.089,9.35.186,14.067.252,4.335,4.524,7.036,7.961,9.113,3.389,2.049,6.442,3.966,7.463,7.956,1.082,4.231,1.445,8.955-.054,13.135-2.5,6.96-9.8,10.025-16.86,10.5-6.406.432-14.461-.246-19.271-4.893a13.686,13.686,0,0,1-3.792-10.547,32.057,32.057,0,0,1,1.174-7.119,32.1,32.1,0,0,0,1.2-5c.447-4.533-3.743-5.4-7.309-6.648a17.393,17.393,0,0,1-9.911-8.736,16.626,16.626,0,0,1-1.685-12.494,14.583,14.583,0,0,1,3.318-5.84c.68-.74,1.641-1.358,2.256-2.135a2.884,2.884,0,0,0,.251-2.517c-.915-3.925-3.764-7.178-4.786-11.1-.916-3.54-.373-7.948,2.866-10.229A8.453,8.453,0,0,1,3235.577,1893.034Z" fill="#c5cfd6"/><path d="M3241.192,1903.269c4.367,4.656,5.554,10.965,5.9,17.083.2,3.431-.008,7.05,1,10.377.863,2.849,2.885,5.026,4.968,7.083,4.2,4.142,8.874,8.353,10.1,14.348.72,3.518.234,7.152,1.229,10.631a29.225,29.225,0,0,0,4.435,8.941c1.559,2.15,3.592,3.8,5.3,5.8.52.612,1.265,1.513,1.048,2.377-.251,1.012-1.538,1.332-2.454,1.174-2.132-.371-3.926-2.407-5.32-3.886a33.517,33.517,0,0,1-5.179-7.1,29.885,29.885,0,0,1-3.356-9.229c-.559-3.374-.279-6.892-1.554-10.131-2.144-5.453-7.34-8.669-11.1-12.913-4.684-5.293-3.985-11.88-3.506-18.39.264-3.578.526-7.621-1.282-10.886-.691-1.248-2.229-2.411-2.526-3.829C3238.619,1903.421,3240.1,1902.109,3241.192,1903.269Z" fill="#afb9c5"/><path d="M3245.849,1979.724c0,26.607,4.343,40.549,27.266,40.549s27.265-13.942,27.265-40.549Z" fill="#0d1e51"/><rect width="243.686" height="19.742" rx="1.954" transform="translate(3333.854 1859.326)" fill="#fff"/><rect width="156.798" height="19.742" rx="1.954" transform="translate(3353.596 1863.475) rotate(90)" fill="#fff"/><rect width="7.194" height="80.988" transform="translate(3564.773 1928.819)" fill="#89c5cc"/><path d="M3602.381,1936.015h-84.529a7.2,7.2,0,1,1,0-14.392h84.529a4.9,4.9,0,0,0,4.788-3.8l23.27-100.026a7.195,7.195,0,1,1,14.015,3.26l-23.27,100.028A19.223,19.223,0,0,1,3602.381,1936.015Z" fill="#0d1e51"/><path d="M3603.6,2019.983h-7.2a6.587,6.587,0,0,0-6.58-6.579h-42.275a6.588,6.588,0,0,0-6.58,6.579h-7.194a13.788,13.788,0,0,1,13.774-13.773h42.275A13.789,13.789,0,0,1,3603.6,2019.983Z" fill="#0d1e51"/><rect width="156.798" height="19.742" rx="1.954" transform="translate(3577.54 1863.475) rotate(90)" fill="#fff"/><path d="M3490.4,1763.415c-1.774-1.775-10.517,4.09-19.527,13.1s-14.875,17.752-13.1,19.527l33.18,102.777,98.839-98.839Z" fill="url(#a)"/><path d="M3330.934,1976.944l-14.324-.554q2.581,14.323,6.007,31.694l9.617-.039Q3331.486,1990.645,3330.934,1976.944Z" fill="#e2a47a"/><path d="M3310.325,1906.549a11.178,11.178,0,0,0-1.874,2.315c-7.3,12.875-6.307,44.033,10.026,87.6l15.573.271c3.644-36.345.592-59.521,1.424-64.758h0C3336.34,1913.1,3321.415,1896.284,3310.325,1906.549Z" fill="#db5669"/><path d="M3335.882,2007.513a1.767,1.767,0,0,0-2.326-.911,14.275,14.275,0,0,1-5.459,1.494,15.9,15.9,0,0,1-6.259-1.916l-1.424-3.635-.01-.022a.881.881,0,0,0-1.157-.467l-23.32,9.911q-2.772.364-6.962.8t-2.361,6.889l49.784.869a44.254,44.254,0,0,0,.917-6.955,18.962,18.962,0,0,0-1.377-5.943C3335.913,2007.589,3335.9,2007.551,3335.882,2007.513Z" fill="#e3e3e2"/><path d="M3305.278,1918.81c3.405,12.149,17.426,5.684,21.582,3.4s9.04-7.436,12.123-13.936c1.068-2.252,48.426-92.137,17.452-131.828l-38.712,24.384C3306.931,1861.181,3301.872,1906.661,3305.278,1918.81Z" fill="#db5669"/><path d="M3379.836,1983.828l-11.988.156,8.19,32.106,10.209,2.828Z" fill="#f9b485"/><path d="M3335.556,1909.412c11.048,38.528,23.218,73.547,28.063,87.831l23.863,2.031c-4.96-16.178-6.165-57.522-8.645-99.391-.943-11.8-7.916-19.047-23.516-17.543C3342.229,1883.6,3331.986,1892.281,3335.556,1909.412Z" fill="#eb5766"/><path d="M3386.943,2009.138a1.766,1.766,0,0,0-2.362-.809,14.237,14.237,0,0,1-5.389,1.727,15.883,15.883,0,0,1-6.336-1.645l-1.578-3.57-.011-.023a.884.884,0,0,0-1.177-.417l-22.873,10.9q-2.756.483-6.922,1.1t-2.063,6.983q47.007-1.2,49.776-1.268a44.3,44.3,0,0,0,.618-6.987,18.95,18.95,0,0,0-1.632-5.879C3386.978,2009.215,3386.962,2009.176,3386.943,2009.138Z" fill="#e3e3e2"/><path d="M3330.215,1784.218c-6.777,26.784-2.486,76.6,3.9,122.057,2.365,16.063,13.41,17.193,24.745,17.246,13,.062,18.394-8.063,19.441-20.659,3.057-37.9,5.136-76.377-.03-97.763Z" fill="#eb5766"/><path d="M3262.284,1783.761c-5.411-1.544-10.679-3.889-14.974-3.9-.909-.014-1.684.1-2.535,0-2.471-.278-4.965,3.339-15.175,2.283-6.458-.668-7.759-6.037-7.672-6.116.744-2.621,4.806-3.294,6.467-3.251,2.564.068,2.513.544,5.559-.642,1.185-.461-4.481-2.717-1.632-4.027,7.661-3.521,11.368,2.48,12.47,2.619l3.547.371,10.275.335Z" fill="#e2a47a"/><path d="M3352.524,1740.414c-3.847,9.725-20.942,37.266-29.18,45.524-6.651,6.668-13.17-3.381-17.171-7.848-4.659-5.2,2-14.88,5.757-20.353,5.205-9.776,10.815-19.544,15.482-29.185l0,0c2.327-4.673,12.936-8.04,18.6-4.991C3354.438,1728.1,3354.26,1736.025,3352.524,1740.414Z" fill="#c94741"/><path d="M3327.275,1777.215c-2.591,8.515-20.8,14.495-20.8,14.495-14.62,4.914-32.036,9.524-56.429,6.233q-3.516-7.611-1.277-29.285c27.052-.146,44.7-3.384,56.136-6.345,4.619-.913,9.494-2.972,16.064,2.028C3325.743,1767.972,3328.435,1770.755,3327.275,1777.215Z" fill="#c94741"/><path d="M3354.232,1737.165l-20.794,2.611.393-25.356c-5.186,4.086-10.493,6.413-13.165,6.071-6.7-.858-10.277-24.52-6.432-34.508s29.143-17.31,32.773,1.069c1.259,6.378-.72,12.459-4.124,17.647Z" fill="#f9b485"/><path d="M3333.632,1727.231l7.415,1.91-2.508-22.007-4.708,7.286Z" fill="#e2a47a"/><path d="M3307.046,1814.722l80.1,6.88s-8.464-59.2-18.941-80.86c-5.859-12.113-8.488-16.24-14.758-22.319l-1.486-.052-.012.013-22.865,4.4C3327.718,1761.8,3314.422,1786.26,3307.046,1814.722Z" fill="#ff6053"/><path d="M3269.03,1790.522c-5.411-1.544-10.679-3.889-14.974-3.9-.909-.013-1.684.1-2.535,0-2.471-.278-4.965,3.339-15.175,2.283-6.458-.668-7.76-6.037-7.673-6.116.745-2.621,4.807-3.294,6.467-3.251,2.564.068,2.513.544,5.56-.642,1.185-.461-4.481-2.717-1.632-4.027,7.661-3.521,11.368,2.48,12.47,2.619l3.546.371,10.276.335Z" fill="#f9b485"/><path d="M3359.27,1747.175c-3.847,9.725-20.942,37.266-29.18,45.524-6.651,6.668-13.17-3.381-17.171-7.848-4.659-5.2,2-14.88,5.757-20.353,5.205-9.775,10.814-19.544,15.482-29.185l0,0c2.326-4.673,12.936-8.04,18.6-4.991C3361.183,1734.861,3361.006,1742.786,3359.27,1747.175Z" fill="#ff6053"/><path d="M3334.02,1783.976c-2.591,8.515-20.8,14.495-20.8,14.495-14.62,4.914-32.035,9.524-56.428,6.233q-3.516-7.611-1.277-29.284c27.051-.147,44.7-3.385,56.136-6.346,4.619-.913,9.494-2.972,16.064,2.028C3332.489,1774.733,3335.181,1777.516,3334.02,1783.976Z" fill="#ff6053"/><path d="M3356.474,1680.978c2.24-.038,5.026.763,6.354,2.9,1.723,2.775-.22,6.193-2.49,7.7,4.571,3.506-2.857,9.263-6.051,9.7.751,2.269-1.893,3.253-3.331,3.975a3.139,3.139,0,0,1,.4,4.1,3.877,3.877,0,0,1-4.769.705c-.367-.216-.451-.526-.744-.789a1.832,1.832,0,0,0-.85-.271,3.157,3.157,0,0,1-1.69-1.685c-.785-1.423-1.183-3.152-2.4-4.254,1.412-.737,3.123-1.43,3.989-2.973,1.491-2.659-.595-6.063-3.254-6.55-2.406-.438-4.985,1.045-6.354,3.121a11.264,11.264,0,0,0-2.464-3.619c-.636-.6-1.758-1.464-.4-1.932,3-1.036,6.168-1.547,9.2-2.462-3.188.219-6.36.778-9.563.7-1-.024-2.027-.109-2.586-1.143a12.425,12.425,0,0,1-1.382-4.293,9.423,9.423,0,0,1-3.217,1.145c-.438.02-.877-.07-1.316-.044a1.577,1.577,0,0,0-1.142.625,11.054,11.054,0,0,1-4.913,3.027,12.138,12.138,0,0,1-3.313.659,2.169,2.169,0,0,1-.419-.108,4.763,4.763,0,0,0-.9.134,2.973,2.973,0,0,1-2.221-.48,2.4,2.4,0,0,1,.343-4.064,18.758,18.758,0,0,1-3.905-3.29,13.215,13.215,0,0,1-1.519-2,2.39,2.39,0,0,1-.477-1.482c.263-1.551,3.273-.826,4.152-.467a2.894,2.894,0,0,0-.011-1.009,1.868,1.868,0,0,1-.037-.978,2,2,0,0,1,1.048-1.117,4.867,4.867,0,0,1,1.825-.538c.32-.033,1.084.127,1.22-.264a2.518,2.518,0,0,0-.193-1.165,16.777,16.777,0,0,1-.343-1.693c-.121-.759-.23-1.52-.337-2.281a6.107,6.107,0,0,1-.13-1.7c.217-1.494,1.765-1.663,2.905-1.482a6.321,6.321,0,0,1,2.213.821c.493.29.962.621,1.451.924.325.2.586.48.91.231.764-.587,1.094-1.825,1.621-2.629a5.818,5.818,0,0,1,2.416-2.021,6.685,6.685,0,0,1,6.319.635,7.315,7.315,0,0,1,1.2.942c.313.307.553.55.994.413a3.56,3.56,0,0,0,1.058-.683c.389-.3.8-.578,1.214-.842a9.042,9.042,0,0,1,5.468-1.507,6.125,6.125,0,0,1,4.763,2.655,12.528,12.528,0,0,1,1.9,6.036c.927-.467,1.731-1.173,2.694-1.566a8.033,8.033,0,0,1,3.064-.61,6.6,6.6,0,0,1,4.5,1.585c1.507,1.427,1.661,3.686,1.359,5.681a25.755,25.755,0,0,1-.671,2.944,6.559,6.559,0,0,1-1.187,2.631" fill="#191847"/></g></svg>