<svg xmlns="http://www.w3.org/2000/svg" width="424.713" height="418.865" viewBox="0 0 424.713 418.865"><g transform="translate(-2451.67 -1617.948)"><path d="M2551.089,1671.051c.289.5,15.509-9.6,15.79-9.116.6,1.047-42.178,34.831-41.591,35.847,1.19,2.062,78.936-48.754,80.313-46.369,1.427,2.473-100.657,64.827-99.079,67.561,1.267,2.195,111.542-67.695,112.969-65.222,1.784,3.089-122.177,78.931-120.353,82.089,1.625,2.816,127.025-77.428,128.8-74.361,2.444,4.234-138.931,85.954-136.6,89.984,1.845,3.194,143.38-86.835,145.135-83.794,2.7,4.681-154.025,95.571-151.46,100.013,1.938,3.357,162.115-100.049,164.909-95.21,3,5.2-180.023,107.387-177.071,112.5,2.318,4.015,176.641-107.69,179.112-103.41,2.519,4.363-176.925,106.227-174.438,110.535,3.155,5.464,176.933-108.876,179.844-103.833,2.99,5.179-191.468,117.135-189,121.411,3.089,5.351,195.6-119.942,198.636-114.682,2.58,4.469-202.606,119.517-199.547,124.816,3.074,5.325,202.42-123.448,205.27-118.512,3.151,5.458-211.581,125.837-208.2,131.684,3.134,5.429,207.745-125.871,210.313-121.424,3.074,5.326-214.6,126.506-211.557,131.772,3.487,6.04,211.1-129.588,214.436-123.8,2.545,4.408-214.36,124.041-210.962,129.928,2.872,4.974,213.725-129.865,216.527-125.012,3.463,6-218.593,127.326-215.528,132.635,2.649,4.588,216.709-133.546,220.359-127.224,3.026,5.24-225.164,132.628-222.3,137.578,3.631,6.289,221.9-136.727,225.627-130.266,3.871,6.706-223.2,134.646-220.565,139.213,2.9,5.03,216.083-132.614,219.485-126.72,3.689,6.388-226.528,134.975-223.551,140.131,3.6,6.234,231.09-140.906,234.332-135.291,4.055,7.023-234.184,135.093-230.186,142.017,2.9,5.026,222.311-137.057,226.081-130.528,3.176,5.5-228.029,135.4-225.362,140.021,2.791,4.833,230.445-141.709,234.2-135.213,3.686,6.384-234.725,138.531-231.3,144.468,3.727,6.454,228.928-138.512,231.674-133.757,3.68,6.374-224.767,135.118-221.783,140.286,3.522,6.1,222.9-134.938,225.6-130.252,3.586,6.212-228.727,132.363-225.287,138.321,3.248,5.626,225.1-136.035,227.728-131.48,3.727,6.456-224.556,132.148-220.664,138.888,3.264,5.654,221.123-135.766,224.631-129.69,2.829,4.9-229.292,134.527-226.2,139.878,3.427,5.934,227.176-137.687,230-132.792,3.329,5.765-228.4,134.036-225.086,139.772,2.877,4.982,222.984-136.683,226.423-130.726,3.638,6.3-223.044,130.96-219.478,137.137,3.2,5.544,210.674-129.684,214.16-123.646,2.812,4.871-203.625,123.044-201.094,127.427,3.163,5.478,200.721-121.874,203.314-117.383,2.738,4.744-202.03,119.487-199.629,123.646,3.121,5.405,200.878-123.355,204.073-117.822,2.783,4.821-200.58,117.705-197.258,123.459,3.064,5.306,194.431-118.28,197.04-113.761,2.464,4.268-187.552,109.829-184.525,115.072,2.914,5.048,181.988-111.145,184.618-106.589,2.646,4.583-180.625,108.064-178.314,112.067,3.015,5.222,173.754-107.3,176.777-102.062,2.226,3.856-164.308,98.457-161.513,103.3,2.61,4.521,160.816-99.166,163.552-94.427,2.47,4.278-156.632,95.544-154.256,99.659,2,3.463,147.082-89.71,149.157-86.116,1.97,3.413-134.042,83.09-131.856,86.875,1.528,2.647,128.679-78.811,130.635-75.422,1.617,2.8-110.027,71.782-108.374,74.644,1.686,2.921,100.407-61.522,101.945-58.859,1.43,2.478-80.15,56.278-78.993,58.282.732,1.268,66.1-40.375,67.061-38.718" fill="none" stroke="#ff6053" stroke-linecap="round" stroke-linejoin="round" stroke-width="2"/><path d="M2656.965,1974.36c-1.136.505-2.271,1.011-3.441,1.443,11.1-4.708,22.183-11.082,31.26-19.442-10.315,8.647-23.6,15.2-36.692,19.876-6.555,2.359-13.075,4.291-19.246,6s-12.011,3.135-17.228,4.651c-1.262-.953-8.514-1.059-15.466-1.575-6.958-.465-13.61-1.241-13.9-1.017-2.746-.02-5.49-.264-8.265-.46-2.753-.321-5.545-.591-8.309-1.094l2.855.481,2.868.365c.954.114,1.9.253,2.856.342l2.859.235-2.859-.235c-.954-.089-1.9-.228-2.856-.342l-2.868-.365-2.855-.481a118.956,118.956,0,0,1-13.139-2.923,111.563,111.563,0,0,1-12.9-4.607,101.641,101.641,0,0,1-12.389-6.305c-1.96-1.26-3.985-2.447-5.86-3.858-.946-.693-1.931-1.34-2.85-2.074l-2.758-2.212c-14.562-12.084-25.6-29-32.345-47.779a160.4,160.4,0,0,1-6.275-21.708c-.993-4.466-1.773-9.292-2.459-14.282-.586-5.007-1.126-10.177-1.308-15.383a196.444,196.444,0,0,1,.931-30.081,204.967,204.967,0,0,1,3.718-22.782c.778-3.232,1.487-6.457,2.39-9.687l-.9,3.177c-.212.842-.382,1.516-.551,2.19-.321,1.352-.72,2.689-1.317,5.405a214.092,214.092,0,0,1,9.287-37.94c-.523.967-.888,1.515-1.4,2.411a40.242,40.242,0,0,0-2.184,4.532l1.119-2.964,1.2-2.934a80.882,80.882,0,0,1,3.913-11.911c1.769-4.519,3.8-8.995,5.023-11.9-.1.707.433-.038,1.238-1.44l2.954-5.366-1.087,1.38c3.915-7.306,8.4-15.06,13.189-22.36a201.448,201.448,0,0,1,14.622-19.778,22.907,22.907,0,0,1,3.205-3.215c2.99-3.642,6.173-7.109,9.431-10.5-.4,1.123,8.888-7.546,4.238-2.718.885-.976,1.824-1.891,2.783-2.787s1.908-1.81,2.9-2.669c2.009-1.68,4-3.389,6.1-4.908,2.048-1.606,4.2-3.016,6.275-4.494l3.17-2.08,1.564-1.047,1.583-.978a84.231,84.231,0,0,1,12.1-5.406,68.934,68.934,0,0,1,12.869-3.11,54.352,54.352,0,0,1,13.2,0,57.383,57.383,0,0,1,12.981,3.369l3.155,1.283,3.081,1.5c1.042.471,2.029,1.064,3.031,1.628.99.586,2.026,1.089,2.98,1.747l2.916,1.879c.969.634,1.889,1.349,2.838,2.019,1.917,1.314,3.682,2.853,5.523,4.287a156.021,156.021,0,0,1,19.64,20.143l-.392-.861c8.352,10.158,15.815,19.391,23.068,33.86,3.093,4.888,6.421,11.058,9.291,16.5,1.438,2.722,2.775,5.252,3.889,7.362a46.415,46.415,0,0,0,2.836,4.709c.65,1.547,1.25,2.978,1.814,4.321s1.071,2.608,1.565,3.809c1.019,2.39,1.876,4.569,2.768,6.728,1.761,4.328,3.444,8.658,5.535,14.921-.173-1.726.912,1.3,1.87,3.962s1.743,4.936,1.119,1.772a67.58,67.58,0,0,0-2.05-8.644c-.64-2.058-1.2-3.962-2.063-7.616l-.133.279a316.6,316.6,0,0,0-19.192-48.845c-7.845-15.765-17.141-31.046-28.839-44.909a158.33,158.33,0,0,0-13.12-13.139,113.143,113.143,0,0,0-15.437-11.625,76.2,76.2,0,0,0-18.144-8.313,59.476,59.476,0,0,0-20.1-2.513,70.839,70.839,0,0,0-21.081,4.579,98.439,98.439,0,0,0-18.76,9.583,150.1,150.1,0,0,0-28.809,25.027c-1.806,2.061-3.484,3.714-5.056,5.331-1.6,1.591-3.177,3.08-4.754,4.8-3.34,4.087-6.668,8.623-10.065,13.372-3.312,4.806-6.691,9.835-9.817,15.113a240.629,240.629,0,0,0-16.527,32.714l.484-1.053c-4.864,11.572-8.632,20.269-11.885,32.166.191-.01-.308,1.831-.465,2.748a18.716,18.716,0,0,0-1.079,3.58l-.89,3.67c-.286,1.409-.6,2.982-.951,4.689a216.467,216.467,0,0,0-3.278,25.049,229.779,229.779,0,0,0-.395,25.63c.088,1.8.17,3.478.244,4.995l.29,4.036c.074,1.165.136,2.139.184,2.889s.091,1.277.085,1.549c.149,1.267.3,2.581.461,3.921.606,6.45,1.41,12.951,2.547,19.392a187.754,187.754,0,0,0,4.46,18.981,142.537,142.537,0,0,0,6.594,17.759,109.864,109.864,0,0,0,8.617,15.628c.772.974,1.569,1.977,2.37,2.986s1.679,1.966,2.5,2.93c1.631,1.94,3.368,3.666,4.858,5.122a16.747,16.747,0,0,0,3,3.36c.967.879,1.994,1.832,3.7,3.544a51.013,51.013,0,0,0,9.524,9.786c1.008.8,1.64,1.112,1.693,1s-.467-.663-1.611-1.787c1,.787,2.038,1.512,3.085,2.225l3.113,2.161,3.179,2.007,1.576,1,1.609.915,3.18,1.813c1.066.571,2.141,1.1,3.194,1.637,2.093,1.112,4.219,2.016,6.264,2.922.953.411,1.923.772,2.9,1.113l2.918,1.047c1.945.7,3.942,1.247,5.926,1.875a30.145,30.145,0,0,1,6.837,2.579c2.209.5,3.7.859,4.829,1.155,1.138.275,1.927.461,2.722.685l2.794.765c1.189.309,2.773.611,5.1,1.065,1.079.515,7.028,1.13,13.014,1.34,6,.154,12.007-.1,13.339-.042-.513.031-1.027.085-1.541.094,5.452.043,10,.2,14.543.126l3.415-.064c1.146-.037,2.3-.13,3.482-.208,2.367-.134,4.823-.447,7.481-.861a139.211,139.211,0,0,0,43.746-14.234,111.97,111.97,0,0,0,19.237-12.81,101.518,101.518,0,0,0,15.326-15.927c-.327-.615-3.776,5.005-4.7,4.645a112.736,112.736,0,0,0,23.937-43.548c.461-1.429,1-3.013,1.49-4.4s.847-2.6,1.1-3.248a15.639,15.639,0,0,0,.781-3.978,12.788,12.788,0,0,1,.371-2.96l.647-.421a44,44,0,0,1,1.147-6.867,40.137,40.137,0,0,0,.992-6.63,15.64,15.64,0,0,1,.086-4.131c.654-.059.252-5.821.793-5.523l-.042-.057c.074-1.142.047-1.952.172-3.344-.038-.542-.156-2.216-.314-4.457-.234-2.232-.417-5.032-.793-7.806-.171-1.386-.341-2.773-.5-4.09-.2-1.31-.385-2.551-.552-3.653-.318-2.2-.62-3.839-.736-4.372l.007-1.013c-.288-2.98-.843-4.2-.792-2.458-.086-1.225-.246-2.44-.365-3.66l.089.417-.386-3.637c-.025-.676.133-1.467.54-.47a45.412,45.412,0,0,1-1.108-6.387c.484,5.758.822,12.93.7,18.967-.423-2.44-.5-6.912-.905-9.561a143.113,143.113,0,0,0-1.127-14.872c-.208-1.108-1.025-1.746-1.193-4.3.223-1.308-.528-2.829-.647-4.964a53.108,53.108,0,0,1,1.481,7.136c.454-.511-.715-5.987-1-7.921a34.23,34.23,0,0,1-.8-3.471c-.365-1.64-.8-3.532-1.2-4.975.8,1.154-.208-2.435-.393-4.221-.431-1.977-.948-3.179-.926-2.338-.7-.493,1.607,7.876.36,5.286.095-.782-.964-4.591-1.5-6.643-.305.053.126,1.465-.494.205-.548-2.3-1.566-4.609-1.611-6a15.571,15.571,0,0,1,.575,2.025c-.411-1.479,1.24,2.379,2.665,6.211,1.481,3.814,2.766,7.589,2.239,5.656-.011.269-.367-.645-.9-2.127l-2.025-5.534c-1.5-4.008-2.982-7.868-2.717-6.881.344,1.845-.888-1.138-.484.756l.924,1.974c.583,2.584.344,3.766-.1,2.923-.565-2.137.8.743,2.033,3.768,1.276,3.01,2.432,6.155,1.852,4.335l.2,1.541a41.487,41.487,0,0,1-1.842-7.35c-.293.062-.926-2.013-1.518-3.714l-.117-.627c-.636-1.751-1.247-4.272-1.318-3,1.45,5.241.231,3.711-1.022,2.167s-2.537-3.1-1.255,1.95c-.249-2.2.014-1.893.5-.479s1.193,3.931,1.774,6.156a27.058,27.058,0,0,0,.642,5.806c.69,2.775.617,1.587.905,2.081.229,1.575.7,4.575.277,4.257.855,2.1.489,3.532,1.1,6.132.621,2.278.151-.191.656,1.415.15.871.315,1.83.485,2.821.147.995.3,2.023.449,3.029.3,2.009.571,3.933.709,5.334-.178,1.128-.307,4.476-1.149,2.163-.665-5.293,1.113,1.9.236-3.59-.382,2.476-.964-4.828-1.711-5.727a58.582,58.582,0,0,0,1.022,8.281l.017-.607a60.233,60.233,0,0,1,1.16,10.7c-.333-.641-.4.615-.669-1.3.125,1.2.193,2.407.292,3.61.126.45.254.914.221-.133a17.748,17.748,0,0,1,.324,4.723c-.13.207.518,4.986.959,9.679.227,2.345.377,4.667.514,6.367a22.131,22.131,0,0,1,.088,2.627c-.044,2.622-.445,3.241-.3,5.8a25.143,25.143,0,0,0,.078-3.742c-.023-1.139-.05-2.466-.079-3.874-.048-1.407-.146-2.9-.221-4.356-.134-2.923-.454-5.736-.6-7.6-.2-1.868-.33-2.79-.248-1.931-.053,1.119.669,8.48.88,15.817.135,3.668.087,7.322-.006,10.158a30.6,30.6,0,0,1-.473,5.242c-.194,1.928-.394,4.262-.059,3.844-.5,3.244-.433-1.041-.959,1.242.037.058.169-.169.052.564l-.681,2.162c-.267,5.1-2.252,12.285-3.168,17.528.033-.783.067-1.631.112-2.708.08-1.068.173-2.368.39-4.059l.275-.548c.027-.489.518-3.241.2-3.223-.835,3.114-1.344,5.812-1.966,9.15-.233.586-.492,1.271-.691,1.721.039,0,.083-.045.121-.02-.469,1.016-.48.889-.465.475a1.121,1.121,0,0,1,.006-.24,9.238,9.238,0,0,0-1.113,2.7c-.2.651-.4,1.387-.609,2.179l-.749,2.487c-.261.867-.51,1.771-.8,2.665l-.943,2.64a30.682,30.682,0,0,1-2.058,4.616c-.613,1.613.076.213-.7,2.221-.756,1.289-1.454,2.478-2.125,3.62s-1.408,2.176-2.09,3.25-1.421,2.122-2.2,3.22-1.574,2.273-2.545,3.48c-.863,1.81-.847,2.034.871.3-.971,1.237-1.859,2.535-2.907,3.707.962-1.957-.6-.388-2.1,1.115-.379.375-.747.753-1.086,1.061a8.172,8.172,0,0,1-.874.673c-.437.266-.522.1.069-.918a60.377,60.377,0,0,0-4.64,4.809,1.545,1.545,0,0,1-.307.878,10.526,10.526,0,0,1-2.084,2.289,61.8,61.8,0,0,1-5.836,4.25c-.884.3.111-.651-.168-.749a16.14,16.14,0,0,1-4.4,3.02,30.928,30.928,0,0,0-4.491,2.43c-.689.493-1.592,1.039-2.546,1.607l-2.843,1.747c-1.851,1.052-3.32,1.975-3.271,2.26C2656.922,1975.373,2656.726,1974.938,2656.965,1974.36Z" fill="#ff6053"/><g opacity="0.1"><path d="M2598.248,1851.234c11.552,40.917,9.19,80.859-15.863,102.01-25.1,21.152-72.85,23.514-100.984,2.259-28.134-21.2-36.553-66.073-24.181-108.171s45.538-81.423,74.852-80.191C2561.387,1768.424,2586.748,1810.317,2598.248,1851.234Z" fill="#ff6053"/></g><g opacity="0.1"><path d="M2705.134,1770.963c-12.351,40.683-35.889,73.038-68.4,77.33-32.549,4.264-74.023-19.508-86.243-52.582-12.248-33.031,4.872-75.353,38-104.123s82.272-43.986,106.289-27.133C2718.776,1681.352,2717.527,1730.307,2705.134,1770.963Z" fill="#ff6053"/></g><path d="M2736.984,1701.446c17.27,16.967,1.515,67.263-1.439,114.68s6.893,91.88-10.377,125.662c-17.27,33.859-61.733,57.113-96.122,46.963-34.388-10.074-58.627-53.477-91.046-87.259-32.5-33.859-73.095-58.1-79.761-89.078-6.741-30.98,20.527-68.7,52.946-85.593s70.141-13.1,114.15-19.391C2669.343,1701.068,2719.638,1684.555,2736.984,1701.446Z" fill="#e24185"/><ellipse cx="188.645" cy="10.876" rx="188.645" ry="10.876" transform="translate(2499.092 2015.06)" fill="#f4f4f4" opacity="0.7"/><path d="M2657.75,1696.554c4.933-5.494,17.7-5.979,22.031-1.835l0-.005c8.787,8.6,18.642,16.974,28.063,25.511,6.186,4.452,17.139,12.321,14.127,19.75-2.586,6.379-5.724,19.768-15.5,15.149-12.108-5.72-41.276-28.829-49.21-37.84C2653.684,1713.217,2650.413,1704.725,2657.75,1696.554Z" fill="#0b9995"/><path d="M2773.968,1749.111l11.723,1.365,4.09.181c1.275.03,6.5-6.155,14.6-.856,3.012,1.971-3.8,3.57-2.537,4.295,3.258,1.864,3.281,1.315,6.2,1.673,1.893.233,6.39,1.687,6.79,4.789.086.1-2.3,5.979-9.749,5.641-11.772-.535-13.989-5.064-16.842-5.169-.983-.036-1.843-.3-2.877-.435-4.878-.721-11.257,1.046-17.663,1.881Z" fill="#d19d74"/><path d="M2704.375,1730.461c8.308-4.561,13.494-1.4,18.583.426,12.485,5.3,31.969,11.976,62.658,16.736q-1.139,24.988-6.423,33.033c-28.254-.406-47.244-8.6-63.009-16.659,0,0-19.656-9.882-21.152-19.989C2694.812,1736.476,2698.341,1733.773,2704.375,1730.461Z" fill="#0b9995"/><path d="M2681.527,2013.285l9.718.04q3.465-17.56,6.071-32.03l-14.475.56Q2682.283,1995.711,2681.527,2013.285Z" fill="#ebb37e"/><path d="M2678.254,1936.411h0c.84,5.292-2.243,28.713,1.439,65.444l15.738-.274c16.505-44.029,17.514-75.516,10.132-88.528a11.275,11.275,0,0,0-1.894-2.339C2692.46,1900.341,2677.378,1917.337,2678.254,1936.411Z" fill="#edc003"/><path d="M2677.795,2012.864a19.149,19.149,0,0,0-1.393,6.006,44.718,44.718,0,0,0,.927,7.029l50.311-.878q1.848-6.519-2.386-6.962t-7.036-.81l-23.566-10.017a.891.891,0,0,0-1.17.472l-.01.023-1.439,3.673a16.062,16.062,0,0,1-6.326,1.936,14.4,14.4,0,0,1-5.515-1.509,1.785,1.785,0,0,0-2.351.92C2677.824,2012.785,2677.809,2012.824,2677.795,2012.864Z" fill="#e3e3e2"/><path d="M2696.192,1803.881l-39.122-24.642c-31.3,40.11,16.557,130.947,17.637,133.223,3.116,6.568,8.051,11.776,12.251,14.082s18.369,8.839,21.811-3.438S2707.1,1864.866,2696.192,1803.881Z" fill="#edc003"/><path d="M2626.943,2024.273l10.316-2.858,8.277-32.446-12.114-.158Z" fill="#ebb37e"/><path d="M2658.2,1886.249c-15.765-1.519-22.812,5.8-23.765,17.73-2.506,42.312-3.724,84.093-8.736,100.442l24.115-2.052c4.9-14.436,17.195-49.825,28.36-88.76C2681.777,1896.3,2671.427,1887.524,2658.2,1886.249Z" fill="#ffd100"/><path d="M2626.188,2014.506a19.134,19.134,0,0,0-1.649,5.942,44.667,44.667,0,0,0,.624,7.061l50.3,1.282q2.125-6.432-2.085-7.058t-7-1.111l-23.116-11.02a.893.893,0,0,0-1.189.421l-.011.024-1.594,3.608a16.084,16.084,0,0,1-6.4,1.663,14.414,14.414,0,0,1-5.446-1.746,1.784,1.784,0,0,0-2.387.818C2626.22,2014.428,2626.2,2014.467,2626.188,2014.506Z" fill="#e3e3e2"/><path d="M2635,1808.192c-5.221,21.612-3.119,60.494-.03,98.8,1.058,12.729,6.507,20.94,19.647,20.878,11.454-.054,22.617-1.2,25.006-17.429,6.458-45.94,10.794-96.281,3.946-123.349Z" fill="#ffd100"/><path d="M2649.537,1700.584l25.713-.575-5.043-30.711c7.031,4.027,13.893,5.9,17.075,5,7.977-2.248,8.059-31.618,1.592-43.052s-38.5-15.763-39.593,7.2c-.381,7.97,3.12,15,8.186,20.681Z" fill="#e7ae7a"/><path d="M2696.178,1618.319c-6.293,4.208-38.631-9.813-46.244,13.844-5.033,13.492.16,24.91,7.383,29.027,1.86-2.306,3.478-4.536,4.919-6.67a6.432,6.432,0,0,1,6.6-10.736c2.882-4.864,5.284-8.577,8.73-10.607C2693.425,1634.187,2697.769,1627.034,2696.178,1618.319Z" fill="#ad503c"/><path d="M2670.207,1669.3l-6.345-7.377.225,27.02,8.9-3.27Z" fill="#cc9a6c"/><path d="M2634.567,1744.335c-2.143-24.709,14.369-64.476,17.288-64.731l26.62-2.329a143.958,143.958,0,0,0,6.38,23.585c7.792,22.774,19.572,55.2,23.271,65.926,4.407,12.781,3.378,29.512-.109,39-7.168,19.495-60.25,6.665-77.29,11.595C2616.785,1783.066,2636.524,1766.9,2634.567,1744.335Z" fill="#0bb2b2"/><path d="M2707.887,1766.1c-5.3-3.708-15.987-12.1-16.464-19.761.253-4.554,1.731-7.224,4.249-9.245a150.607,150.607,0,0,0-26.077-17.68c-2.809-1.434,15.732,31.97,33.6,47.979a69.028,69.028,0,0,0,6.468,4.961,48.179,48.179,0,0,0-1.535-5.564C2708.052,1766.57,2707.968,1766.33,2707.887,1766.1Z" fill="#0b9995"/><path d="M2810.128,1698.924l-53.388,15.592a2.66,2.66,0,0,0-1.529,3.415l21.763,74.525a2.751,2.751,0,0,0,2.718,2.124l32.626-95.089A2.323,2.323,0,0,0,2810.128,1698.924Z" fill="#161616"/><path d="M2779.692,1794.58a2.094,2.094,0,0,0,.412-.07l53.385-15.589a2.665,2.665,0,0,0,1.53-3.415l-21.764-74.529a3.162,3.162,0,0,0-.937-1.486Z" fill="#161616"/><path d="M2809.122,1703.2l-48.922,14.389a2.365,2.365,0,0,0-1.43,3.016l19.153,65.123a2.367,2.367,0,0,0,2.836,1.762l1.517-.446,28.655-83.516A2.115,2.115,0,0,0,2809.122,1703.2Z" fill="#231934"/><path d="M2782.276,1787.048l47.4-13.941a2.369,2.369,0,0,0,1.433-3.018l-19.155-65.123a2.637,2.637,0,0,0-1.027-1.434Z" fill="#231934"/><path d="M2807.969,1782.726a1.545,1.545,0,1,1-1.919-1.046A1.543,1.543,0,0,1,2807.969,1782.726Z" fill="#565656"/><path d="M2783.789,1692.963a2.106,2.106,0,0,0-.924-.326l-55.32-5.714a2.662,2.662,0,0,0-2.709,2.584l-7.981,77.226a3.124,3.124,0,0,0,.411,1.918Z" fill="#f4efd9"/><path d="M2718.975,1769.817l55.325,5.718a2.661,2.661,0,0,0,2.7-2.585l7.982-77.227a2.894,2.894,0,0,0-1.2-2.76l-66.523,75.688A2.283,2.283,0,0,0,2718.975,1769.817Z" fill="#f4efd9"/><path d="M2719.994,1765.047l58.761-66.857-50.223-5.093a2.371,2.371,0,0,0-2.465,2.256l-6.849,67.532A2.579,2.579,0,0,0,2719.994,1765.047Z" fill="#353535"/><path d="M2721.179,1765.588l50.734,5.148a2.372,2.372,0,0,0,2.466-2.253l6.848-67.536a2.371,2.371,0,0,0-1.96-2.705l-.512-.052-58.761,66.857A2.054,2.054,0,0,0,2721.179,1765.588Z" fill="#353535"/><path d="M2752.953,1692.352a1.881,1.881,0,1,1,1.682,2.062A1.882,1.882,0,0,1,2752.953,1692.352Z" fill="#d8d2c5"/><path d="M2776.36,1755.318a1.874,1.874,0,1,1,1.188-2.371A1.875,1.875,0,0,1,2776.36,1755.318Z" fill="#565656"/><path d="M2821.28,1728.634,2764,1742.318a3.939,3.939,0,0,0,.106,5.278l14.671,15.61a3.94,3.94,0,0,0,5.564.169l36.793-34.587C2821.185,1728.739,2821.231,1728.686,2821.28,1728.634Z" fill="#f4efd9"/><path d="M2821.3,1723.228l-14.671-15.611a3.938,3.938,0,0,0-5.565-.172l-36.791,34.586q-.147.138-.277.287l57.281-13.684A3.926,3.926,0,0,0,2821.3,1723.228Z" fill="#f4efd9"/><path d="M2814.524,1721.755a.427.427,0,0,1-.6-.021l-6.224-6.631a.429.429,0,0,1,.019-.6h0a.427.427,0,0,1,.6.02l6.223,6.632a.427.427,0,0,1-.017.6Z" fill="#d8d2c5"/><path d="M2818.764,1729.072l-18.082-19.269-33.953,31.862,51.8-12.375Z" fill="#353535"/><path d="M2766.729,1741.666l-.089.083,18.082,19.269,33.809-31.727Z" fill="#353535"/><path d="M2773.879,1755.409a1.875,1.875,0,1,1,1.187-2.371A1.875,1.875,0,0,1,2773.879,1755.409Z" fill="#d8d2c5"/><path d="M2837.573,1708.962a.357.357,0,1,1,.3-.406A.356.356,0,0,1,2837.573,1708.962Z" fill="#868789"/><path d="M2779.353,1679.469l10.834,73.9a4.745,4.745,0,0,0,5.368,3.995l47.46-6.958a2.711,2.711,0,0,0,2.29-3.076l-11.421-77.9a2.711,2.711,0,0,0-3.076-2.289l-47.462,6.958A4.742,4.742,0,0,0,2779.353,1679.469Z" fill="#d6d6d6"/><circle cx="4.798" cy="4.798" r="4.798" transform="translate(2808.686 1707.456)" fill="#fff"/><path d="M2791.375,1740.191a1.418,1.418,0,1,1-1.585-1.231A1.419,1.419,0,0,1,2791.375,1740.191Z" fill="#565656"/><path d="M2772.646,1705.469a.325.325,0,0,1-.1.446l-5.842,3.642a.324.324,0,0,1-.444-.1h0a.323.323,0,0,1,.1-.444l5.842-3.641a.322.322,0,0,1,.444.1Z" fill="#565656"/><path d="M2778.633,1701.366l1.513,44.173.265.425a2.983,2.983,0,0,0,4.106.947l13.75-8.588a2.978,2.978,0,0,0,.949-4.1l-20.246-32.414A3,3,0,0,0,2778.633,1701.366Z" fill="#282828"/><path d="M2774.868,1700.856l-13.751,8.59a2.979,2.979,0,0,0-.949,4.1l19.978,31.988-1.513-44.173A2.979,2.979,0,0,0,2774.868,1700.856Z" fill="#282828"/><path d="M2761.775,1714.016l18.312,29.374-1.368-39.936Z" fill="#353535"/><path d="M2780.073,1743.4l.379.607,16.97-10.579-18.69-29.981-.027.017Z" fill="#353535"/><path d="M2706.121,1827.986H2849.1v-91.728H2706.373Z" fill="#dd8253"/><path d="M2760.311,1749.7l11.8-.384,4.071-.427c1.266-.159,5.521-7.048,14.316-3.006,3.271,1.5-3.234,4.093-1.873,4.623,3.5,1.362,3.438.815,6.382.737,1.906-.05,6.569.723,7.424,3.732.1.09-1.394,6.254-8.808,7.021-11.722,1.212-14.584-2.939-17.421-2.621-.977.11-1.867-.02-2.91,0-4.931.008-10.979,2.7-17.19,4.472Z" fill="#e7af7b"/><path d="M2659.976,1694.74c6.5-3.5,18.681.365,21.352,5.73l0,0c5.358,11.067,11.8,22.281,17.773,33.5,4.314,6.283,11.958,17.4,6.609,23.366-4.593,5.128-12.077,16.664-19.712,9.01-9.457-9.481-29.083-41.1-33.5-52.263C2650.51,1709.044,2650.306,1699.946,2659.976,1694.74Z" fill="#07b5bd"/><path d="M2688.726,1741.551c7.542-5.74,13.139-3.376,18.441-2.328,13.133,3.4,33.389,7.116,64.444,7.285q2.571,24.88-1.465,33.619c-28,3.777-48-1.515-64.78-7.156,0,0-20.9-6.866-23.876-16.64C2680.157,1748.914,2683.248,1745.719,2688.726,1741.551Z" fill="#07b5bd"/><path d="M2706.121,1731.1H2849.1v12.627l-152.61,10.472Z" opacity="0.1"/><path d="M2706.373,1718.379h142.221l5.528,17.879H2701.1Z" fill="#ee9455"/></g></svg>