<svg xmlns="http://www.w3.org/2000/svg" width="538.813" height="430.557" viewBox="0 0 538.813 430.557"><defs><style>.a{fill:#f4f4f4;}.a,.e{opacity:0.7;}.b{opacity:0.505;}.c{fill:#f2f2f2;}.d,.i{fill:#c1dee2;}.d{opacity:0.2;isolation:isolate;}.f{fill:#69a1ac;}.g{fill:#89c5cc;}.h{opacity:0.5;}.j{fill:#ff6053;}.k,.p{opacity:0.1;}.l{fill:#ffd100;}.m{fill:none;stroke:#643513;stroke-miterlimit:10;}.n{fill:#dd8253;}.o{fill:#643513;}.q{fill:#161616;}.r{fill:#231934;}.s{fill:#565656;}.t{fill:#f4efd9;}.u{fill:#353535;}.v{fill:#d8d2c5;}.w{fill:#868789;}.x{fill:#d6d6d6;}.y{fill:#fff;}.z{fill:#282828;}.aa{fill:#ee9455;}.ab{fill:#c94741;}.ac{fill:#d19d74;}.ad{fill:#ebb37e;}.ae{fill:#0b9995;}.af{fill:#e3e3e2;}.ag{fill:#07b5bd;}.ah{fill:#e7ae7a;}.ai{fill:#cc9a6c;}.aj{fill:#e7af7b;}.ak{fill:#fc574f;}</style></defs><g transform="translate(-1061.067 -1649.001)"><ellipse class="a" cx="269.407" cy="18.882" rx="269.407" ry="18.882" transform="translate(1061.067 2041.794)"/><g class="b"><path class="c" d="M1526.113,1972.89c6.244,46.7-145.169,77.163-275.494,55.9s-190.113-104.277-127.924-148.513S1519.87,1926.185,1526.113,1972.89Z"/></g><path class="c" d="M1458.1,1928.691a31.665,31.665,0,0,1-.892,4.036A12.179,12.179,0,0,0,1458.1,1928.691Zm-5.678-32.281a78.359,78.359,0,0,0-14.909-22.863c1.543-4.643,14.534-11.338,6.768-15.651-4.124-2.281-8.348,1.5-9.25,5.511-.62,2.757.325,6.214,1.326,8.887q-2.9-3.1-6.019-5.994c-2.865-2.667-5.8-5.261-8.759-7.821,4.879-4.584,9.5-17.688,2.955-19.831-9.66-3.155-5.009,14.718-4.335,18.069a.525.525,0,0,0,.45-.17c-.054.306-.117.634-.194.966-5.664-4.873-11.419-9.647-16.98-14.64a25.475,25.475,0,0,0,1.924-2.538,28.617,28.617,0,0,0,3.755-5.458c1.561-3.139,3.066-8.147-1.071-9.993-4.5-2.012-6.636,3.651-6.668,7.03a44.8,44.8,0,0,0,.946,6.846c.1.715-.3,3.931.678,2.55a7.023,7.023,0,0,0-.03,1.142q-1.494-1.35-2.973-2.726a1.239,1.239,0,0,0,.088-.389,1.168,1.168,0,0,0-1.672-1.1q-1.947-1.851-3.849-3.76c-2.678-2.7-5.394-5.479-8.092-8.316.585-.5.353-1.2.9-1.732s1.623-.827,2.265-1.323a15.532,15.532,0,0,0,3.928-4.844c1.6-2.95,3.668-9.138-1.007-10.544-4.822-1.452-7.265,4.505-7.574,8.229a94.663,94.663,0,0,0,.893,9.584c-4.992-5.274-9.9-10.744-14.351-16.311,1.349-.012,5.173-2.775,5.946-3.53,1.887-1.839,4.885-5.9,1.579-8.053-2.94-1.908-6.565.855-7.822,3.54a37.768,37.768,0,0,0-.993,6.4c-1.841-2.36-3.6-4.734-5.231-7.116q-1.635-2.376-3.061-4.87a2.195,2.195,0,0,0,.646-.638c4.9-.832,11.156-8.483,5.4-11.147-2.742-1.266-5.717,1.347-7.06,3.486a28.5,28.5,0,0,0-1.084,4.374,91.8,91.8,0,0,1-6.433-17.292,1.07,1.07,0,0,0,.836-.993c2.381-1.357,4.261-2.488,5.923-5.1,1.032-1.621,2.892-5.326-.142-6.226-3.949-1.17-6.429,4.86-6.751,7.83-.038.345-.037,1.348-.024,2.267a1.361,1.361,0,0,0-.408.007c-.907-3.7-1.63-7.44-2.2-11.189,2.155-.694,2.527-12.012,1.093-13.623-3.207-3.608-5.47,1.6-5.3,4.359a18.192,18.192,0,0,0,3.427,8.826c.19.277.135.264.183-.123a.766.766,0,0,0,.186.434,49.164,49.164,0,0,0-.182,4.974,115.207,115.207,0,0,0,1.48,12.968q.267,1.56.611,3.093a25.11,25.11,0,0,0-4.981-3.2c-2.371-1.063-6.027-2.21-8.382-.41a3.964,3.964,0,0,0-.765,5.553,3.877,3.877,0,0,0,.313.365c1.9,2.125,5.373,2.05,7.964,1.84,1.172-.093,7.431-.6,5.947-1.619a5.026,5.026,0,0,1,.608.29q.205.751.431,1.5c-.036.021-.07.044-.107.066.042-.019.07-.04.11-.059a57.423,57.423,0,0,0,6.452,14.137,13.514,13.514,0,0,0-3.239-.865c-3.265-.413-10.133,2.122-6.482,6.472,3.5,4.167,8.954-.3,12.928-.92a185.641,185.641,0,0,0,12.554,15.522,1.056,1.056,0,0,0-.65.541c-1.789-.91-3.649-2.2-5.3-2.555-2.386-.506-7.28-.813-9.083,1.323-2.219,2.627.158,4.761,2.78,5.264,3.8.731,8.775-1.126,12.433-2.381a1.209,1.209,0,0,0,1.148-.383l.24-.078c4.51,4.96,9.193,9.756,13.849,14.446l-.151-.008a12.632,12.632,0,0,0-3.928-1.791c-3.266-.8-7.108-.8-9.759,1.563s-3.575,6.467-.844,9.109c5.467,5.288,13.522-6.769,16.279-7.273,4.731,4.717,9.732,9.123,14.813,13.442a9.02,9.02,0,0,0-1.78-.366c-4.982-.476-16.676,5.632-10.562,11.64,5.329,5.236,11.495-4.84,15.789-8.367,4.787,4.025,9.6,8.022,14.279,12.175a13.605,13.605,0,0,0-7.753.049c-2.83.857-7.4,2.994-5.608,6.815,1.82,3.887,7.3,2.118,10.159.884,1.558-.673,4.682-2.944,7.425-3.9a94.009,94.009,0,0,1,18.827,23.956,82.215,82.215,0,0,1,7.008,18.081c1.043,4,3.1,10.724,2.685,15.933C1459.78,1918.251,1456.241,1905.729,1452.421,1896.41ZM1349.59,1766.37c-.416-.022-1.755-4.32-2.214-4.97a14.07,14.07,0,0,0-5.352-4.325c-3.339-1.656-7.792.264-5.935,4.642,1.483,3.495,5.948,4.417,9.845,4.621C1347.266,1766.408,1348.532,1766.394,1349.59,1766.37Z"/><path class="d" d="M1133.923,1790.288a14.93,14.93,0,0,0,.821,2.678A5.73,5.73,0,0,1,1133.923,1790.288Zm4.236-23.037a56.666,56.666,0,0,1,10.894-16.538c-1.128-3.356-10.607-8.193-4.936-11.314,3.013-1.651,6.1,1.084,6.752,3.981.45,1.991-.241,4.494-.971,6.427q2.12-2.24,4.4-4.336c2.093-1.932,4.235-3.807,6.4-5.659-3.561-3.313-6.93-12.786-2.151-14.339,7.055-2.285,3.652,10.642,3.159,13.064a.385.385,0,0,1-.329-.123c.04.222.086.459.141.7,4.14-3.526,8.342-6.982,12.4-10.592a18.475,18.475,0,0,1-1.4-1.835,20.618,20.618,0,0,1-2.738-3.946c-1.14-2.269-2.235-5.889.786-7.226,3.286-1.457,4.844,2.638,4.866,5.081a32.175,32.175,0,0,1-.693,4.951c-.076.516.217,2.846-.495,1.843a4.951,4.951,0,0,1,.021.826q1.094-.977,2.172-1.972a.849.849,0,0,1,1.155-1.078q1.427-1.34,2.811-2.72c1.957-1.954,3.943-3.964,5.912-6.017-.427-.363-.257-.867-.656-1.252s-1.188-.6-1.654-.955a11.238,11.238,0,0,1-2.864-3.5c-1.166-2.13-2.674-6.606.737-7.625,3.519-1.051,5.3,3.255,5.528,5.949a67.87,67.87,0,0,1-.658,6.929c3.648-3.814,7.234-7.773,10.485-11.8-.985-.008-3.779-2.005-4.34-2.55-1.377-1.329-3.564-4.267-1.149-5.823,2.147-1.38,4.8.615,5.713,2.558a27.032,27.032,0,0,1,.719,4.631c1.345-1.708,2.628-3.425,3.823-5.149q1.194-1.718,2.237-3.519a1.59,1.59,0,0,1-.474-.461c-3.58-.6-8.145-6.13-3.936-8.057,2-.917,4.174.972,5.154,2.519a20.369,20.369,0,0,1,.789,3.162,65.973,65.973,0,0,0,4.7-12.505.774.774,0,0,1-.609-.716,10.626,10.626,0,0,1-4.323-3.684c-.753-1.172-2.107-3.849.1-4.5,2.881-.848,4.692,3.511,4.927,5.66.027.25.026.975.018,1.639a1.009,1.009,0,0,1,.3.005c.664-2.673,1.193-5.38,1.617-8.092-1.572-.5-1.841-8.684-.793-9.85,2.343-2.611,3.994,1.157,3.867,3.15a13.1,13.1,0,0,1-2.505,6.383c-.138.2-.1.191-.134-.089a.546.546,0,0,1-.136.314,34.9,34.9,0,0,1,.131,3.6,82.284,82.284,0,0,1-1.085,9.378q-.2,1.128-.448,2.237a18.437,18.437,0,0,1,3.639-2.313c1.732-.771,4.4-1.6,6.12-.3a2.846,2.846,0,0,1,.579,3.985,2.7,2.7,0,0,1-.252.294c-1.389,1.537-3.923,1.482-5.815,1.334-.856-.068-5.425-.428-4.341-1.169a3.678,3.678,0,0,0-.445.21q-.15.543-.315,1.084c.027.015.05.032.079.047-.031-.013-.053-.028-.08-.042a41.354,41.354,0,0,1-4.717,10.225,9.988,9.988,0,0,1,2.365-.627c2.385-.3,7.4,1.532,4.73,4.678-2.558,3.014-6.537-.217-9.439-.662a134.819,134.819,0,0,1-9.176,11.23.767.767,0,0,1,.474.391,19.189,19.189,0,0,1,3.874-1.85c1.742-.363,5.316-.59,6.631.953,1.619,1.9-.118,3.443-2.032,3.809-2.775.529-6.407-.812-9.077-1.718a.882.882,0,0,1-.837-.277l-.176-.058c-3.293,3.578-6.716,7.048-10.116,10.441l.107-.005a9.286,9.286,0,0,1,2.869-1.3c2.385-.576,5.19-.58,7.124,1.124s2.608,4.675.613,6.587c-3.994,3.826-9.87-4.89-11.883-5.253-3.455,3.412-7.109,6.6-10.82,9.725a6.612,6.612,0,0,1,1.3-.263c3.638-.346,12.174,4.065,7.707,8.413-3.892,3.788-8.391-3.5-11.525-6.044-3.5,2.912-7.013,5.8-10.43,8.808a10.028,10.028,0,0,1,5.66.033c2.067.618,5.4,2.162,4.093,4.926-1.331,2.81-5.334,1.533-7.419.642-1.137-.484-3.417-2.127-5.419-2.817a68.118,68.118,0,0,0-13.756,17.329,59.163,59.163,0,0,0-5.123,13.075c-.758,2.9-2.259,7.759-1.962,11.525C1132.78,1783.047,1135.371,1773.992,1138.159,1767.251Zm74.824-94.369c.3-.016,1.253-3.087,1.582-3.553a10.069,10.069,0,0,1,3.823-3.089c2.387-1.183,5.566.189,4.239,3.316-1.06,2.5-4.25,3.154-7.035,3.3C1214.641,1672.908,1213.737,1672.9,1212.983,1672.882Z"/><g class="e"><path class="f" d="M1406.971,1859.431c9.277-.485,20.757,4.927,21.749,15.014.722,7.329.5,14.638,1.618,21.956a59.241,59.241,0,0,0,5.347,16.79c2.473,5.122,7.6,9.481,8.93,14.954a23.481,23.481,0,0,1-.792,11.8c-1.422,4.148-.665,3.82,2.173,7.3,5.561,6.818,10.569,13.81,14.112,21.956,5.1,11.73,8.452,25.443,6.565,38.287-.238,1.63-.524,7.483-2.769,7.893-2.508.458-1.336-2.889-1.2-3.971.85-6.9,1.606-12.93.574-19.936-3.984-27.034-23.383-44.838-36.023-67.775-.694-1.183-2.161-4-3.181-5.858-1.608-2.935-3.23-8.518-5.409-10.693-4.1-4.1-.329,4.142.471,5.715,1.011,1.99,2.124,4.1,3.16,5.848,4.741,8.081,10.033,16.9,14.93,25.233-21.158,4.83-36.077-20.6-41.762-37.33-4.684-13.779-10.3-46,11.51-47.186"/><path class="g" d="M1531.307,1833.832c-15.505,1.23-25.459,11.462-30.093,25.773-2.5,7.711-2.785,15.634-4.171,23.56-2.088,11.924-6.58,20.96-15.359,29.455a29.639,29.639,0,0,0-6.147,8.22,35.02,35.02,0,0,0-7.1,10.144c-2.31,5.1-2.964,11.216-.3,16.3a16.685,16.685,0,0,0,4.36,5.356,104.964,104.964,0,0,0-10.329,47.146c.26,9.762.737,19.527,1.291,29.276.15,2.618,1,6.941,2.283,2.55,1.172-4.016-.3-10.319-.434-14.514-.661-20.437-1.227-39.019,7.186-58.113q1.323-3,2.791-5.956a1.823,1.823,0,0,0,.164-.112c.037.029.068.06.108.088.063-.111.148-.243.247-.391a5.268,5.268,0,0,0,.755-1.059c.748-1.034,1.591-2.249,1.6-2.914v-.018a275.3,275.3,0,0,1,17.265-24.411c-.045.057,6.609-9,5.58-3.993-.5,2.415-5.391,7.014-7.368,9.571a238.678,238.678,0,0,0-13.776,19.872c-.574.331-1.385,1.951-1.97,3.158-.324.611-.627,1.227-.924,1.766,15.122,5,26.884-5.068,34.9-16.772l.027-.042a50.84,50.84,0,0,1,8.065-9c5.212-4.266,10.792-5.019,16.937-7.119,16.756-5.725,23.881-27.442,26.143-43.555,2.552-18.179-9.935-46.055-31.737-44.262"/><path class="g" d="M1500.678,1782.924c-15.914,16.564-23.6,39.537-29.691,61.133-6.8,24.121-11.29,48.616-11.46,73.694-.113,16.477-.561,33.057.4,49.515a175.254,175.254,0,0,0,1.85,17.483c.077.475,2.149,13.385,4.134,10.377,1.129-1.712-2.124-13.393-2.37-15.339a251.311,251.311,0,0,1-1.636-33.037c.111-18.174-.425-36.256,1.416-54.363a61.179,61.179,0,0,1,1.134-8.186c.682-2.812-.186-1.585,2.034-2.7,2.158-1.082,4.825-.928,7.064-2.286,8.882-5.385,13.422-19.218,16.961-28.3,4.044-10.379,6.5-21.448,8.466-32.371a228.471,228.471,0,0,0,3.058-24.131,62.816,62.816,0,0,1,.7-7.76,17.637,17.637,0,0,0,.791-2.483c-.052-1.274-.821-2.023-.884-3.093q-1,.9-1.96,1.841"/><path class="g" d="M1413.905,2003.6a49.6,49.6,0,1,0,99.191,0"/><path class="f" d="M1516.821,2021.942a7.616,7.616,0,0,1-5.2-1.826,10.427,10.427,0,0,1-2.8-4.5c-1.276-3.674-1.4-8.189-1.476-11.176a45.057,45.057,0,0,0-1.6-12.05,21.693,21.693,0,0,0-2.42-5.278,21.348,21.348,0,0,0-4.108-4.714c-.838-.725-1.732-1.414-2.6-2.081-.772-.595-1.569-1.211-2.324-1.848l-.361-.3c-2.426-2.038-4.935-4.144-5.242-7.481-.171-1.852.127-3.215.887-4.048a3.841,3.841,0,0,1,3.005-1.068,12.321,12.321,0,0,1,2.552.313c.136.029.495.166.994.355a19.561,19.561,0,0,0,5.077,1.443c.391,0,.648-.089.763-.262a.759.759,0,0,0-.033-.711c-.294-.7-1.3-1.326-2.993-1.848-3.406-.371-6.621-.7-8.536-.7a6.278,6.278,0,0,0-1.239.088,18.774,18.774,0,0,0-9.138,5.1,32.441,32.441,0,0,0-6.305,9.095c-3.848,7.9-5.317,16.706-5.851,21.249-.145,1.231-.275,2.564-.4,4.077h-2.621a88.318,88.318,0,0,1,.972-9.822c.744-4.4,2.633-12.884,6.93-20.265a30.046,30.046,0,0,1,6.768-8.237,18.815,18.815,0,0,1,9.394-4.213,13.926,13.926,0,0,1,1.515-.055c.986,0,2.174.038,3.344.106a8.717,8.717,0,0,1,3.707-1.1c.519-.039,1.051-.058,1.581-.058a26.929,26.929,0,0,1,8.94,1.637,38.516,38.516,0,0,1,8.54,4.342,44.56,44.56,0,0,1,7.38,6.192,37.448,37.448,0,0,1,5.462,7.192,27.72,27.72,0,0,1,3.406,13.828,44.773,44.773,0,0,1-2.385,14.218,32.552,32.552,0,0,1-4.78,9.394c-2.565,3.3-5.489,4.987-8.688,5.023Z"/></g><g class="h"><path class="f" d="M1196.65,1768.83c2.853-4.071,8.152-14.41,12.171-15.865,2.589-.937,1.834,8.755,1.866,10.6a154.865,154.865,0,0,1-1.432,21.344c-1.547,12.786-6.612,24.174-13.557,35.055-3.574,5.6-7.766,11.267-13.572,14.761-2.673,1.609-5.889,1.879-8.528,3.265-3.074,1.613-1.4.309-2.786,3.512-1.924,4.447-2.539,10.184-3.429,14.93-4.086,21.783-13.98,136.934-12.265,159.091.152,1.964-2.586,2.434-2.723.036-.726-12.712,5.561-100.747,8.734-129.536s6.382-54.224,9.6-64.185c3.905-12.084,10.957-26.614,16.827-37.885A133.943,133.943,0,0,1,1196.65,1768.83Z"/><path class="i" d="M1217.841,1910.031c7.429-5.455,15.471,4.838,8.748,10.294-3.717,3.015-7.6,1.942-9.79-.57-1.42,1.731-2.749,3.54-4.026,5.069-3.891,4.658-7.568,9.427-11.082,14.307-7.3,10.139-13.557,20.85-20.1,31.366-6.454,10.378-12.86,20.81-18.711,31.45-4.957,9.017-11.563,19.623-13.261,29.506,2.575-20.962,12.346-41.11,23.983-59.589,11.539-18.328,24.783-38.343,42.653-52.807a6.329,6.329,0,0,1,1.334-8.851C1217.672,1910.146,1217.756,1910.087,1217.841,1910.031Z"/><path class="f" d="M1076.866,1858.908c4.157.815,10.95,10.218,14.377,13.8a134.254,134.254,0,0,1,11.251,13.552,229.257,229.257,0,0,1,19.906,32.467,301.739,301.739,0,0,1,22.148,57.639,237.694,237.694,0,0,1,6.72,37.806c.24,2.394,2.75,20.849-.867,21.347-3.252.447-2.248-14.014-2.405-15.981-1.773-22.191-7.088-43.786-14.478-64.7-1.61-4.556-3.1-10.138-5.68-14.238-1.854-2.954-.013-1.924-3.271-3.042-2.8-.961-5.985-.726-8.85-1.9-6.224-2.553-11.21-7.508-15.575-12.491-8.493-9.686-15.219-20.165-18.723-32.576a156.9,156.9,0,0,1-4.727-20.9C1076.436,1867.855,1074.188,1858.384,1076.866,1858.908Z"/><path class="g" d="M1093.272,1702.433a376.711,376.711,0,0,1,36.838,87.207c5.034,18.308,8.555,37.095,12.054,55.745,5.418,28.878,10.539,57.754,12,87.149,1.466,29.561,4.365,63.659-5.314,92.125,4.835-28.906.232-59.676-.584-88.762-.389-13.886-1.518-27.636-3-41.44-1.437-13.391-3.785-26.718-5.97-40q-1.6-9.7-3.322-19.388c-.339-1.926-.484-7.643-1.705-8.959s-7.506-1.868-9.476-2.837a50.883,50.883,0,0,1-11-7.677,87.9,87.9,0,0,1-16.186-20.246c-10.059-16.788-14.08-37.274-13.877-56.716.039-3.775,6.107-44.421,3.672-44.981q.219-.258.416-.534Q1090.58,1697.75,1093.272,1702.433Z"/><path class="g" d="M1262.3,1800.382c.242-.348,1.814-2.772,1.019-2.617,1.616-.316-2.214,2.673,1.8.839-1.908,1.8-.806,4.145-.781,6.567a58.839,58.839,0,0,1-1.359,11.693,80.206,80.206,0,0,1-5.45,17.673c-5.522,12.342-14.9,24.224-26.028,31.94-5.495,3.81-10.88,5.107-17.147,6.861-3.958,1.109-4.272,3.156-6.373,7-4.375,8-8.672,15.972-12.529,24.243-4.606,9.876-9.078,19.762-13.3,29.812-14.21,33.849-25.777,68.921-31.854,105.215-.148-21.388,4.8-43.413,11.04-63.8,4.547-14.854,10.463-29.171,16.778-43.346,1.53-3.433,3.848-7.85,4.5-11.641.454-2.656-.936-5.21-1.573-8.009a83.781,83.781,0,0,1-.125-34.056c2.4-12.079,9.354-17.686,21.111-19.4,4.3-.626,9.766-.4,13.709-2.23,4.295-2,6.067-8.561,8.51-12.773a173.684,173.684,0,0,1,23.307-31.7,75.706,75.706,0,0,1,7.975-7.331C1257.313,1803.892,1261.08,1802.137,1262.3,1800.382Z"/><path class="i" d="M1127.095,2020.4a3.395,3.395,0,0,1,3.36-3.892h41.727a3.4,3.4,0,0,1,3.4,3.4,3.553,3.553,0,0,1-.037.495l-3.225,21.869a13.587,13.587,0,0,1-13.442,11.605h-15.113a13.586,13.586,0,0,1-13.442-11.605Z"/></g><path class="c" d="M1092.835,2027.687c0,14.462,1.141,26.186,16.46,26.186s16.46-11.724,16.46-26.186"/><path class="c" d="M1113.852,2018.663a30.091,30.091,0,0,0-1.5,2.966,40.571,40.571,0,0,1,.411-6.269c.534-3.621,1.351-7.223,2.117-10.819.551-2.581.517-7.226,2.609-9.286.573-.445.711.428.711.807.007.081,0-1.547-.559-1.263-3.309,1.709-4.381,7.082-5.44,9.773a51.8,51.8,0,0,0-3.4,12.026,27.15,27.15,0,0,0-.228,3.094c-.113-.275-.218-.553-.335-.828a55.875,55.875,0,0,0-7.7-12.881c-.792-.989-10.741-10.776-11.519-9.278a1.033,1.033,0,0,0,.483.544c.014.016.015.007.006-.017.584.943,2.245,2.4,2.763,3.228a62.467,62.467,0,0,1,3.343,6.454c2.174,4.579,4.189,9.2,6.144,13.838.455,1.08.929,2.153,1.413,3.223-4.988-7.2-11.642-13.725-20.8-17.464,3.125,1.592,5.179,4.586,7.292,6.879,2.549,2.765,5.232,5.457,7.786,8.22,3.011,3.261,6.554,6.691,9.451,10.3a108.68,108.68,0,0,1,7.215,17.979c-.69-2.139-.055-5.095-.172-7.337a49.432,49.432,0,0,0-.592-5.334,10.92,10.92,0,0,1,.8,2.339c-.126-1.246-.272-2.484-.427-3.715.4-1.155.794-2.229,1.06-3.115a79.951,79.951,0,0,1,5.192-13.369,119.35,119.35,0,0,1,6.944-11.86c1.191-1.8,2.4-3.589,3.6-5.383.786-1.175,1.534-3.058,2.628-4.181-7.071,6.465-14.8,12.977-19.282,20.732"/><path class="c" d="M1542.736,1723.567c-2.026-6.761-6.785-12.052-11.725-16.9-9.616-9.438-14.788-15.274-18.216-29.083-2.016-8.12-4.067-16.724-10.46-22.615-4.654-4.288-12.665-7.892-18.89-4.82-9.577,5.716-12.149,17.447-11.183,27.95,1.2,13.019,7.278,21.046,18.961,25.841,6.583,2.7,10.958,6.264,14.532,12.473,2.858,4.965,4.525,11.183,8.116,15.684,5.37,6.728,12.088,9.72,20.373,8.6-7.758-14.275-16.82-28.684-27.755-40.7-1.023-1.208-7.06-5.833-5.842-7.892,1.341-2.267,7.538,6.25,7.494,6.2,3.177,3.648,6.117,7.523,9,11.434l-.025.008q4.458,6.022,8.814,12.214c1.173,1.745,2.312,3.518,3.4,5.327,1.6,2.659,4.138,10.2,6.756,11.838a4.264,4.264,0,0,0,1.56.626c1.786,2.924,3.524,5.872,5.176,8.854,4.317,7.789,8.021,16.014,9.721,24.809.5,2.566.145,12.167,1.9,14.021,3.2,3.388,2.267-3.138,2.074-5.108-1.591-16.313-7.448-30.212-15.952-43.927,2.613-3.411,2.99-12.095,2.169-14.834"/><path class="c" d="M1433.015,1731.452c3.377-3.978,11.5-4.653,16.462-4.386a77.184,77.184,0,0,1,18.3,3.635c9.629,2.979,18.985,8.417,27.465,13.679,1.022.634,13.613,8.208,12.5,9.537-1.1,1.313-13.467-7.681-16.219-9.23-5.879-3.31-11.269-7.223-17.749-9.411a63.527,63.527,0,0,0-20.858-3.1c-.906.008-3.858-.622-3.923.716-.063,1.31,4.824.627,5.686.635a65.126,65.126,0,0,1,10.65.985,50.345,50.345,0,0,1,18.383,7.061,7.821,7.821,0,0,1-9.289,4.422c-3.415-.791-6.743-2.74-10.087-3.3a15.292,15.292,0,0,0-6.841.491c-5.888,1.71-9.288,5.218-15.765,2.778-5.076-1.913-13.566-8.784-8.718-14.508"/><path class="c" d="M1406.681,1704.664a4.685,4.685,0,0,0,3.176-1.1,6.294,6.294,0,0,0,1.71-2.718,23.2,23.2,0,0,0,.9-6.755,27.084,27.084,0,0,1,.976-7.284,12.789,12.789,0,0,1,3.988-6.039c.514-.439,1.062-.857,1.591-1.261.471-.359.956-.73,1.416-1.114l.209-.174.014-.011c1.481-1.231,3.013-2.505,3.2-4.52a3.129,3.129,0,0,0-.535-2.439,2.354,2.354,0,0,0-1.842-.652,7.622,7.622,0,0,0-1.563.189c-.082.018-.3.1-.611.215a12.031,12.031,0,0,1-3.094.867c-.24,0-.4-.053-.467-.159a.457.457,0,0,1,.022-.428c.179-.426.8-.8,1.829-1.117,2.079-.225,4.044-.426,5.214-.426a4.019,4.019,0,0,1,.758.054,11.509,11.509,0,0,1,5.582,3.08,19.621,19.621,0,0,1,3.852,5.5,41.632,41.632,0,0,1,3.574,12.847c.092.775.175,1.621.254,2.582h1.6a52.562,52.562,0,0,0-.6-6.057,37.821,37.821,0,0,0-4.233-12.247,18.218,18.218,0,0,0-4.135-4.979,11.551,11.551,0,0,0-5.74-2.548,8.378,8.378,0,0,0-.925-.033c-.6,0-1.329.023-2.044.067a5.369,5.369,0,0,0-2.265-.665c-.317-.023-.644-.034-.966-.034a16.584,16.584,0,0,0-5.463.99,23.568,23.568,0,0,0-5.217,2.625,27.123,27.123,0,0,0-4.508,3.743A22.59,22.59,0,0,0,1399,1679a16.623,16.623,0,0,0-2.081,8.356,26.827,26.827,0,0,0,1.457,8.595,19.639,19.639,0,0,0,2.921,5.678c1.568,1.992,3.354,3.013,5.309,3.036Z"/><path class="j" d="M1333.652,2013.37c-22.728-13.836-50.219-30.573-59.512-35.12,6.89,5.288,26.847,18.315,44.809,30.039,47.664,31.115,49.527,32.947,48.631,34.5a1.048,1.048,0,0,1-.659.489c-1.952.491-13.507-6.334-47.283-27.09-15.475-9.508-32.628-20.05-39.734-23.756,6.058,4.907,21.756,15.861,34.859,25,33.39,23.3,33.219,23.6,32.5,24.843a.984.984,0,0,1-.579.437c-.922.237-3.549-1.178-27.318-15.606-13.265-8.054-29.714-18.04-32.052-18.682a.886.886,0,0,1-.949-1.309,1.045,1.045,0,0,1,.6-.451c1.242-.319,7.152,3.042,33.319,18.928,6.911,4.194,14.368,8.722,19.584,11.774-6.277-4.638-16.613-11.85-26.118-18.483-37.359-26.069-38.782-27.645-37.949-29.087a1.018,1.018,0,0,1,.641-.477c1.749-.45,12.021,5.63,44.125,25.357,15.907,9.776,35.005,21.511,42.735,25.479-7.345-5.6-28.077-19.129-45.32-30.386-46.916-30.626-48.751-32.427-47.873-33.947a1.06,1.06,0,0,1,.665-.493c2.405-.641,22.253,11.232,63.8,36.526,18.908,11.512,39.876,24.277,48.252,28.721-8.7-6.547-35.3-23.083-57.363-36.8-14.749-9.17-28.681-17.831-39.22-24.634-18.2-11.748-17.809-12.43-17.214-13.46a1.061,1.061,0,0,1,.663-.492c2.471-.619,22.451,11.345,67.509,38.8,24.915,15.181,52.7,32.114,61.675,36.489-8.2-6.321-38.056-24.514-64.805-40.811-17.255-10.514-35.1-21.385-48.179-29.678-22.537-14.289-22-15.22-21.377-16.3a1.153,1.153,0,0,1,.729-.535c3.068-.78,26.077,13.095,74.192,42.721,28.609,17.615,60.7,37.372,68.679,40.625-7.05-6.224-45-29.109-75.985-47.794-17.32-10.445-33.68-20.31-45.91-27.957-20.949-13.1-20.509-13.859-19.9-14.914a1.192,1.192,0,0,1,.753-.551c3.309-.843,27.738,13.927,78.8,45.456,31.253,19.3,66.28,40.926,75.349,44.613-7.728-6.006-42.255-26.586-73.077-44.957-20.494-12.216-41.686-24.847-57.4-34.564-27.024-16.714-26.452-17.706-25.789-18.854a1.105,1.105,0,0,1,.7-.514c2.879-.731,27.5,14.065,79.064,45.652,33.155,20.311,73.824,45.225,82.608,48.549-7.228-6.462-50.905-32.184-86.5-53.143-19.922-11.732-38.739-22.814-52.842-31.418-24.072-14.69-23.6-15.506-22.949-16.635a1.09,1.09,0,0,1,.685-.506c2.856-.733,27.322,13.963,82.442,47.652,36.614,22.377,81.616,49.882,90.421,52.98-6.834-6.517-53.7-34.158-91.815-56.639-21.52-12.692-41.847-24.681-57.117-34.029-26.026-15.934-25.462-16.911-24.809-18.043a1.184,1.184,0,0,1,.746-.547c3.525-.877,32,16.239,91.621,52.825,36.048,22.121,76.457,46.917,86.562,51.111-8.558-6.517-47.367-29.391-82.008-49.811-22.9-13.5-46.574-27.451-64.132-38.164-30.121-18.378-29.534-19.393-28.855-20.57a1.084,1.084,0,0,1,.68-.5c2.819-.712,27.689,14.209,83.751,48.445,37.676,23.008,83.836,51.2,94.109,55.2-8.008-6.457-48.068-30.6-83.781-52.118-22.9-13.8-46.574-28.066-64.079-38.988-29.994-18.714-29.4-19.74-28.716-20.928a1.2,1.2,0,0,1,.773-.565c4.017-1,39.82,20.725,98.326,56.648,38.178,23.442,81.126,49.813,89.636,52.8-6.716-6.489-53.6-34-95.265-58.448-24.426-14.332-49.684-29.152-68.155-40.461-31.532-19.3-30.73-20.692-30.022-21.917a1.2,1.2,0,0,1,.756-.554c4.061-1.015,43.321,22.661,107.485,61.81,38.289,23.362,81.272,49.587,90.917,53.61-8.251-7.111-55.643-34.918-97.833-59.675-24.9-14.607-50.639-29.713-69.458-41.183-32.1-19.565-31.379-20.811-30.683-22.016a1.091,1.091,0,0,1,.686-.508c3.06-.778,31.268,16.129,94.9,54.9,43.407,26.449,96.762,58.959,106.938,62.551-7.842-6.864-57.672-36.163-101.982-62.217-24.246-14.256-49.317-29-67.494-40.042-30.939-18.8-30.36-19.8-29.689-20.961a1.189,1.189,0,0,1,.765-.559c4.013-1.035,41.457,21.658,102.62,59.133,40.672,24.92,86.47,52.981,94.8,55.721-6.088-6.495-54.9-35.263-98.237-60.8-24.1-14.2-49.012-28.884-67.11-40.023-30.84-18.982-30.033-20.38-29.322-21.613a1.07,1.07,0,0,1,.669-.5c2.887-.746,30.628,15.875,93.287,53.955,43.386,26.366,96.738,58.789,106.669,62.32-7.235-6.588-54.691-34.015-96.881-58.4-25.222-14.577-51.3-29.65-70.43-41.168-32.656-19.665-31.891-20.988-31.152-22.269a1.078,1.078,0,0,1,.677-.5c2.9-.742,29.776,15.4,90.426,52.388,43.695,26.652,97.42,59.422,107.547,62.857-7.228-6.291-50.609-32.2-89.2-55.258-26.066-15.57-53.019-31.67-73.143-44.191-34.493-21.46-33.66-22.9-32.925-24.177a1.076,1.076,0,0,1,.678-.5c2.9-.75,30.025,15.552,91.232,52.915,46.087,28.134,102.883,62.805,112.4,65.567-6.576-6.342-55.284-35.026-98.538-60.5-26.133-15.389-53.155-31.3-73.037-43.492-33.941-20.811-33.125-22.226-32.4-23.474a1.219,1.219,0,0,1,.786-.574c4.517-1.126,48.736,25.564,115.714,66.449,38.366,23.42,77.9,47.548,88.688,52.544-9.915-7.45-52.672-32.723-90.873-55.3-26.169-15.468-53.229-31.463-73.385-43.8-34.517-21.132-33.833-22.317-33.11-23.57a1.241,1.241,0,0,1,.8-.581c1.989-.5,10.969,3.984,26.07,12.635-32.119-19.418-31.26-20.908-30.5-22.224a1.156,1.156,0,0,1,.727-.534c3.513-.874,34.694,17.859,100.1,57.859,42.8,26.179,95.409,58.353,105.514,61.859-7.376-6.319-50.945-32.112-89.714-55.063-26.3-15.572-53.5-31.674-73.823-44.2-34.831-21.477-33.995-22.925-33.257-24.2a1.2,1.2,0,0,1,.757-.555,1.24,1.24,0,0,1,.3-.032c5.332,0,42.784,22.649,103.17,59.551,36.6,22.371,77.606,47.427,88.174,52.113-8.668-6.636-45.7-28.715-81.64-50.141-27.15-16.187-55.225-32.926-76.594-46.212-36.8-22.883-35.873-24.492-35.127-25.784a1.231,1.231,0,0,1,.793-.577c4.179-1.064,41.082,21.385,101.333,58.48,40.963,25.219,87.018,53.573,96.475,56.845-7.721-6.514-53.844-33.642-94.878-57.777-24.943-14.669-50.736-29.84-69.709-41.393-32.41-19.735-31.761-20.86-31.074-22.051a1.228,1.228,0,0,1,.788-.575c1.775-.444,9.672,3.41,22.63,10.728-20.414-12.734-19.768-13.854-19.14-14.943a1.1,1.1,0,0,1,.692-.512c3.159-.8,32.952,17.024,95.481,55.042,40.047,24.35,85.055,51.715,94.441,55.4-7.92-7.211-59.749-37.424-101.937-62.017-22.1-12.884-42.979-25.053-58.509-34.409-26.375-15.889-25.9-16.713-25.242-17.852a1.194,1.194,0,0,1,.754-.553c3.616-.909,32.775,16.665,93.822,54.191,40.129,24.668,85.268,52.416,94.269,55.427-7.087-6.321-52.007-32.793-91.95-56.333-23.436-13.811-47.67-28.092-65.4-38.937-30.287-18.526-29.636-19.654-28.946-20.849a1.076,1.076,0,0,1,.673-.5c2.82-.716,28.544,14.71,86.594,50.077,39.823,24.262,88.8,54.1,98.031,57.33-6.753-6.488-52.576-33.8-93.3-58.069-22.514-13.417-45.8-27.291-62.679-37.753-28.794-17.841-28.142-18.972-27.451-20.168a1.118,1.118,0,0,1,.706-.52c3.108-.813,30.786,15.8,88.76,51.237,38.61,23.6,82.006,50.12,91.165,53.53-7.575-6.729-54.366-34.455-92.48-57.038-21.791-12.912-42.374-25.108-57.858-34.6-26.388-16.177-25.875-17.065-25.227-18.189a1.165,1.165,0,0,1,.733-.537c3.347-.844,30.653,15.587,87.841,50.674,35.9,22.026,76.182,46.738,85.791,50.579-7.642-6.165-43.743-28.13-75.95-47.725-22.089-13.441-44.931-27.338-61.959-38.105-29.273-18.508-28.618-19.642-27.925-20.843a1.162,1.162,0,0,1,.735-.539c3.166-.8,27.251,13.769,77.663,44.873,31.751,19.591,70.652,43.593,79.554,46.923-7.082-5.887-43.141-27.53-75.277-46.817-19.332-11.6-39.323-23.6-53.953-32.709-25.11-15.631-24.592-16.528-23.936-17.664a1.084,1.084,0,0,1,.683-.5c2.851-.743,28.335,14.506,81.745,47.014,30.946,18.836,65.611,39.935,74.635,43.991-7.648-6.421-43.812-27.981-76.08-47.219-19.7-11.743-40.064-23.886-54.952-33.15-25.542-15.9-24.9-17-24.225-18.177a1.168,1.168,0,0,1,.736-.54c3.5-.9,33.9,17.5,83.585,47.877,25.225,15.427,51.193,31.307,59.631,35.507-7.826-6.292-37.152-24.457-63.413-40.725-17.042-10.556-34.665-21.472-47.589-29.834-22.272-14.41-21.676-15.443-21.044-16.537a1.008,1.008,0,0,1,.632-.472c1.989-.494,16.874,8.235,63.629,36.584,25.083,15.21,53.062,32.175,62.058,36.6-7.526-5.9-33.56-21.976-56.905-36.4-15.358-9.486-31.239-19.3-42.881-26.808-20.132-12.992-19.6-13.916-18.981-14.986a1.027,1.027,0,0,1,.645-.479c2.046-.51,16.636,8.056,59.45,34.1,20.03,12.183,42.256,25.7,50.952,30.246-7.908-6-30.287-20.462-50.444-33.493-13.2-8.535-26.857-17.36-36.81-24.029-17.257-11.559-16.9-12.171-16.319-13.183a1.112,1.112,0,0,1,.619-.463c1.761-.454,14.1,6.793,52.88,30.266,16.11,9.752,33.865,20.5,42.333,25.165-7.973-5.776-25.924-17.369-41.026-27.121-41.949-27.09-43.348-28.464-42.51-29.917a1.023,1.023,0,0,1,.643-.478c1.663-.422,10.522,4.793,38.109,21.757,10.888,6.7,22.86,14.058,29.015,17.464-3.621-3.135-9.564-8.039-14.678-12.259-19.454-16.055-19.393-16.161-18.81-17.17a.944.944,0,0,1,.571-.429c.552-.141.666-.169,7.574,4.113,2.472,1.532,5.817,3.6,6.625,3.943a.887.887,0,0,1,.742,1.328.948.948,0,0,1-.572.43c-.576.145-.9.036-7.727-4.2l-.14-.087c3.657,3.1,8.55,7.142,12.864,10.7,19.047,15.718,18.987,15.822,18.415,16.814a1.108,1.108,0,0,1-.619.461c-1.341.35-7.418-3.144-34.188-19.607-11.563-7.111-25.24-15.522-32.311-19.391,7.293,5.231,23.369,15.613,37.957,25.033,44.912,29,46.656,30.735,45.773,32.264a1.062,1.062,0,0,1-.6.453c-1.445.365-10.026-4.559-48.353-27.758-17.718-10.724-38.937-23.568-47.735-28.24,8.11,6.057,29.735,20.037,49.243,32.647,13.385,8.652,27.225,17.6,37.36,24.392,17.581,11.783,17.2,12.441,16.627,13.437a1.006,1.006,0,0,1-.63.469c-1.841.484-14.868-7.187-55.746-32.051-21.385-13.007-47.3-28.769-55.67-32.868,7.59,6.092,35.937,23.6,59.287,38.024,55.113,34.041,60.824,38.258,59.67,40.256a1.019,1.019,0,0,1-.641.477c-2.12.57-18.339-8.995-66.03-37.914-24.333-14.754-51.493-31.223-59.952-35.376,7.9,6.516,39.881,26.33,66.174,42.616,16.5,10.217,33.55,20.782,45.927,28.779,21.29,13.753,20.748,14.691,20.121,15.777a1.017,1.017,0,0,1-.639.475c-2.018.5-16.858-8.285-63.483-36.8-32.49-19.868-72.363-44.252-80.878-47.342,6.427,5.889,44.068,28.33,77.565,48.3,19.49,11.62,39.643,23.635,54.325,32.768,25.173,15.657,24.543,16.747,23.877,17.9a1.062,1.062,0,0,1-.668.494.859.859,0,0,1-.217.025c-3.517,0-26.767-13.926-77.7-44.926-32.3-19.661-68.464-41.671-78.185-46.028,8.252,6.512,43.758,27.823,75.478,46.861,19.177,11.51,39.007,23.412,53.482,32.419,24.831,15.453,24.32,16.34,23.672,17.462a1.211,1.211,0,0,1-.767.56,1.256,1.256,0,0,1-.307.033c-4.775,0-34.461-18.1-82.2-47.555-31.457-19.409-66.783-41.2-74.882-44.288,7.271,6.631,51.879,33.771,88.218,55.882,20.495,12.469,39.854,24.248,54.384,33.394,24.777,15.594,24.307,16.408,23.656,17.535a1.169,1.169,0,0,1-.739.542c-3.438.885-31.08-15.775-88.987-51.3-35.293-21.654-74.873-45.936-84.557-49.9,8.113,6.4,46.58,29.188,80.9,49.522,23.173,13.73,47.134,27.928,64.961,38.9,30.6,18.839,29.938,19.991,29.234,21.211a1.16,1.16,0,0,1-.731.537c-3.467.858-32.71-16.663-93.975-54.107-36.091-22.059-76.609-46.824-85.788-50.545,7.614,6.643,50.286,32.073,88.282,54.717,23.5,14.008,47.807,28.492,65.679,39.585,30.572,18.978,29.84,20.246,29.131,21.473a1.157,1.157,0,0,1-.733.539,1.138,1.138,0,0,1-.279.03c-5.026,0-41.5-22-100.354-57.855-34.633-21.1-73.44-44.743-83.218-49.137,8.79,7.2,52.84,33.161,92.117,56.308,23.271,13.715,47.336,27.9,64.9,38.638,29.993,18.34,29.348,19.456,28.666,20.638a1.2,1.2,0,0,1-.773.564c-1.813.461-10.183-3.779-24.251-11.907,23.274,14.463,22.6,15.631,21.948,16.764a1.112,1.112,0,0,1-.7.516,1.029,1.029,0,0,1-.252.028c-4.339,0-34.738-18.192-97.008-56.053-39.174-23.818-83.182-50.575-92.6-54.371,7.936,7.1,57.709,35.985,98.253,59.512,23.944,13.9,46.561,27.02,63.643,37.314,29.091,17.529,28.453,18.633,27.778,19.8a1.071,1.071,0,0,1-.675.5c-2.793.7-28.432-14.7-86.25-50.043-43.679-26.7-97.433-59.558-107.2-62.6,7.3,6.506,55.952,35.123,99.195,60.557,24.074,14.159,48.967,28.8,67.07,39.809,30.844,18.758,30.258,19.773,29.58,20.948a1.208,1.208,0,0,1-.78.569c-4.051,1-40.211-20.988-99.292-57.361-42.874-26.4-91.215-56.157-99.144-58.171,5.831,6.787,63.7,41.291,110.574,69.234,22.332,13.315,43.427,25.891,58.977,35.469,26.32,16.212,25.843,17.037,25.184,18.18a1.116,1.116,0,0,1-.7.517c-3.134.8-31.775-16.407-91.824-53.1-41.329-25.258-92.241-56.371-101.071-59.12,6.623,6.845,61.344,39.24,105.746,65.526,24.066,14.247,46.8,27.7,63.819,38.143,28.894,17.721,28.309,18.735,27.631,19.91a1.2,1.2,0,0,1-.768.561c-4.163,1.048-43.695-22.86-108.308-62.376-41.932-25.646-89.147-54.524-97.679-57.412,6.261,6.6,56.663,35.664,101.407,61.462,25.373,14.63,51.611,29.759,70.721,41.286,32.566,19.645,31.711,21.126,30.957,22.433a1.109,1.109,0,0,1-.7.514,1.008,1.008,0,0,1-.248.027c-4.075,0-31.132-16.3-90.425-52.6-44.115-27.01-98.452-60.276-107.923-63.062,7.255,6.75,61.2,38.636,105.018,64.536,24.548,14.51,47.734,28.215,65.182,38.857,29.643,18.078,29.119,18.985,28.457,20.133a1.081,1.081,0,0,1-.682.5c-2.939.747-30.479-15.781-92.6-53.7-46.672-28.49-104.242-63.632-113.4-66.113,6.187,6.473,58.1,37.043,104.159,64.167,24.973,14.706,50.8,29.912,69.519,41.371,31.856,19.5,31.132,20.75,30.431,21.964a1.219,1.219,0,0,1-.786.573,1.282,1.282,0,0,1-.33.035c-5.987,0-49.436-26.247-114.519-65.976-39.188-23.922-79.608-48.6-88.426-52.238,7.862,7.486,61.095,39.285,104.415,65.161,23.916,14.287,46.506,27.781,63.427,38.253,28.729,17.78,28.142,18.8,27.464,19.972a1.2,1.2,0,0,1-.767.56c-1.9.486-11.056-4.141-26.521-13.016,28.4,17.191,27.692,18.413,27.008,19.6a1.161,1.161,0,0,1-.732.538c-3.905,1.042-43.927-23.077-109.362-62.842-38.226-23.231-81.16-49.322-90.421-53.237,7.468,6.958,53.638,34.167,94.716,58.375,24.756,14.59,50.355,29.676,69.111,41.234,32.025,19.737,31.18,21.2,30.434,22.491a1.168,1.168,0,0,1-.736.541c-3.533.868-33.8-17.308-97.19-56.151-42.282-25.906-89.809-55.027-99.7-58.569,8.027,6.635,54.212,33.792,95.32,57.963,25.615,15.062,52.1,30.637,71.653,42.536,33.408,20.337,32.746,21.484,32.044,22.7a1.193,1.193,0,0,1-.75.551,1.251,1.251,0,0,1-.3.032c-5.448,0-45.231-24-109.423-63.113-38.653-23.553-82.039-49.988-91.822-54.13,8.355,7.183,55.878,35.067,98.19,59.894,24.813,14.56,50.472,29.615,69.209,41.035,31.952,19.472,31.268,20.656,30.544,21.91a1.1,1.1,0,0,1-.694.512c-3.112.8-32.424-16.807-93.961-54.354-42.991-26.23-95.95-58.543-105.056-61.4,6.3,6.375,54.239,34.507,96.81,59.487,24.124,14.155,49.07,28.793,67.242,39.91,30.99,18.961,30.238,20.263,29.511,21.523a1.171,1.171,0,0,1-.738.541c-3.456.907-32.134-16.4-92.208-53.291-38.672-23.745-86.187-52.92-95.592-56.15,7.268,6.423,51.651,33.168,91.128,56.957,22.421,13.511,43.6,26.273,59.64,36.258,27.359,17.03,26.849,17.913,26.2,19.032a1.185,1.185,0,0,1-.744.546,1.224,1.224,0,0,1-.289.031c-5.033,0-40.231-21.27-96.976-55.922-33.1-20.211-70.138-42.833-80.113-47.4,9.527,7.433,54.036,33.668,90.491,55.155,22.056,13,42.889,25.281,58.632,34.858,26.855,16.338,26.385,17.15,25.736,18.275a1.17,1.17,0,0,1-.738.541,1.225,1.225,0,0,1-.3.032c-4.518,0-32.548-16.893-89.713-51.973-37.35-22.918-79.3-48.66-88.647-52.2,7.339,6.088,45.781,28.762,80.032,48.963,22.982,13.556,46.746,27.572,64.422,38.443,30.359,18.671,29.621,19.951,28.907,21.187a1.17,1.17,0,0,1-.737.541,1.148,1.148,0,0,1-.28.03c-4.842,0-38.495-20.352-92.741-53.507-32.241-19.705-68.291-41.738-78.538-46.5,8.714,6.5,42.654,26.484,73.024,44.369,21.661,12.756,44.06,25.947,60.779,36.2,28.782,17.654,28.118,18.8,27.414,20.024a1.158,1.158,0,0,1-.73.537,1.2,1.2,0,0,1-.293.031c-4.366,0-30.946-15.986-85.106-49.164-31.359-19.211-66.484-40.729-75.7-44.765,8.378,6.756,48.287,30.543,80.954,50.014,19.7,11.742,38.3,22.832,52.352,31.492,24.03,14.815,23.573,15.607,22.941,16.7a1.188,1.188,0,0,1-.752.55c-3.32.828-27.683-13.9-78.651-45.373-31.37-19.371-66.534-41.084-75.542-44.716,7.044,5.526,36.939,23.554,63.644,39.658,19.088,11.511,38.825,23.414,53.585,32.7,25.5,16.036,24.87,17.126,24.2,18.28a1.132,1.132,0,0,1-.714.525,1.071,1.071,0,0,1-.263.029c-3.794,0-26.054-13.447-71.348-41.336-28.151-17.334-62.568-38.525-71.125-42.012,6.824,5.747,38.95,25.32,67.61,42.782,16.843,10.262,34.261,20.875,46.932,28.9,21.8,13.8,21.3,14.661,20.678,15.744a1.037,1.037,0,0,1-.655.486c-2.347.618-21.8-11.055-65.668-37.784-25.48-15.526-53.885-32.835-63.273-37.419,7.614,5.729,31.729,20.721,53.391,34.189,15.042,9.352,30.6,19.022,42.077,26.452,19.894,12.875,19.417,13.7,18.813,14.748a1.11,1.11,0,0,1-.62.463.694.694,0,0,1-.175.02C1384.243,2043.959,1372.042,2036.743,1333.652,2013.37Zm-45.758-5.362h0Zm111.125-101.342c37.439,22.921,79.534,48.693,88.061,52-6.888-6.827-56.286-35.31-100.178-60.617-13.7-7.9-27.66-15.948-40.636-23.51C1361.282,1883.588,1378.963,1894.386,1399.019,1906.666Zm-20.292,21.661c12.746,7.365,25.718,14.862,37.829,21.923-14.434-8.686-31.223-18.905-50.116-30.429-38.576-23.53-78.358-47.8-87.457-51.645C1287.033,1875.332,1335.551,1903.373,1378.727,1928.327Zm27.564-54.057c35.974,21.99,73.048,44.652,82.763,49.058-8.882-7.054-51.26-31.647-89.071-53.588-7.825-4.541-15.732-9.13-23.487-13.644Q1390.426,1864.565,1406.291,1874.27Zm-16.758-20.866c13,7.577,26.222,15.285,38.684,22.613q-13.632-8.327-29.677-18.2c-37.964-23.336-80.565-49.524-90.573-53.472C1315.923,1810.494,1353.287,1832.275,1389.533,1853.4Zm27.449-93.648h0Zm0,0v0Zm0,0,0,0Zm0,0,0,0Zm0,0,0,0Zm0,0,.012-.019Zm.012-.019,0,0Zm0,0v0Zm0,0v0Zm0,0h0Z"/><path class="j" d="M1324.021,2028.706c1.005.447,2.01.895,3.046,1.277-9.828-4.167-19.638-9.81-27.674-17.211,9.132,7.655,20.894,13.456,32.482,17.595,5.8,2.089,11.575,3.8,17.037,5.316s10.633,2.776,15.251,4.117c1.118-.843,7.538-.937,13.692-1.394,6.16-.411,12.048-1.1,12.308-.9,2.431-.018,4.859-.234,7.316-.407,2.437-.284,4.909-.523,7.355-.969l-2.527.427-2.538.322c-.845.1-1.684.224-2.529.3l-2.531.208,2.531-.208c.845-.079,1.684-.2,2.529-.3l2.538-.322,2.527-.427a105.251,105.251,0,0,0,11.632-2.587,98.809,98.809,0,0,0,11.423-4.078,90.044,90.044,0,0,0,10.968-5.582c1.735-1.115,3.527-2.166,5.187-3.415.838-.613,1.709-1.187,2.523-1.836l2.441-1.959c12.891-10.7,22.66-25.673,28.634-42.295a141.837,141.837,0,0,0,5.554-19.218c.88-3.953,1.57-8.225,2.178-12.643.518-4.432,1-9.009,1.158-13.618a173.981,173.981,0,0,0-.825-26.629,181.4,181.4,0,0,0-3.291-20.167c-.689-2.861-1.317-5.717-2.116-8.576.335,1.184.586,2.073.795,2.813l.487,1.939c.284,1.2.637,2.38,1.166,4.784a189.524,189.524,0,0,0-8.222-33.586c.464.856.786,1.341,1.238,2.134a36.035,36.035,0,0,1,1.933,4.012l-.991-2.624-1.063-2.6a71.594,71.594,0,0,0-3.464-10.544c-1.566-4-3.368-7.963-4.447-10.535.085.625-.383-.034-1.1-1.275-.69-1.253-1.684-3.058-2.615-4.751l.962,1.222c-3.466-6.468-7.44-13.332-11.676-19.794a178.367,178.367,0,0,0-12.944-17.509,20.271,20.271,0,0,0-2.838-2.846c-2.646-3.224-5.464-6.293-8.348-9.3.351.995-7.868-6.679-3.752-2.406-.783-.863-1.614-1.674-2.464-2.467s-1.689-1.6-2.565-2.363c-1.778-1.487-3.543-3-5.4-4.344-1.813-1.422-3.715-2.67-5.555-3.979l-2.806-1.841-1.385-.926-1.4-.867a74.756,74.756,0,0,0-10.716-4.786,61.016,61.016,0,0,0-11.393-2.752,48.114,48.114,0,0,0-11.682,0,50.85,50.85,0,0,0-11.492,2.982l-2.793,1.136-2.727,1.327c-.923.417-1.8.941-2.683,1.441-.876.519-1.793.964-2.638,1.547l-2.582,1.663c-.857.561-1.672,1.195-2.512,1.788-1.7,1.163-3.259,2.525-4.889,3.8a138.109,138.109,0,0,0-17.386,17.831l.347-.762c-7.394,8.992-14,17.166-20.421,29.975-2.739,4.327-5.684,9.789-8.225,14.6l-3.443,6.517a41.276,41.276,0,0,1-2.51,4.169l-1.606,3.825c-.49,1.193-.949,2.308-1.385,3.372-.9,2.116-1.661,4.044-2.451,5.956-1.559,3.831-3.048,7.664-4.9,13.209.154-1.528-.807,1.148-1.655,3.507s-1.543,4.369-.991,1.568a59.76,59.76,0,0,1,1.815-7.652c.566-1.821,1.065-3.507,1.826-6.741l.118.246a280.193,280.193,0,0,1,16.99-43.239,197.475,197.475,0,0,1,25.53-39.756,140,140,0,0,1,11.613-11.631,100.207,100.207,0,0,1,13.666-10.292,67.515,67.515,0,0,1,16.063-7.359,52.645,52.645,0,0,1,17.79-2.224,62.734,62.734,0,0,1,18.662,4.053,87.141,87.141,0,0,1,16.607,8.484,132.839,132.839,0,0,1,25.5,22.155c1.6,1.824,3.083,3.288,4.475,4.719,1.418,1.409,2.812,2.726,4.209,4.253,2.956,3.618,5.9,7.633,8.91,11.837,2.932,4.255,5.923,8.707,8.69,13.379a212.98,212.98,0,0,1,14.63,28.96l-.428-.932c4.306,10.244,7.642,17.943,10.521,28.475a11.394,11.394,0,0,0,.412,2.433,16.549,16.549,0,0,1,.955,3.169l.788,3.248c.253,1.248.536,2.641.842,4.152a191.5,191.5,0,0,1,2.9,22.174,203.742,203.742,0,0,1,.35,22.689c-.078,1.6-.151,3.079-.217,4.422l-.257,3.573c-.065,1.031-.12,1.893-.162,2.558s-.081,1.13-.076,1.371c-.131,1.121-.268,2.284-.407,3.471-.537,5.71-1.249,11.465-2.255,17.166a166.271,166.271,0,0,1-3.949,16.8,126.065,126.065,0,0,1-5.836,15.721,97.263,97.263,0,0,1-7.629,13.835l-2.1,2.644c-.7.9-1.487,1.74-2.214,2.593-1.444,1.718-2.981,3.245-4.3,4.534a14.789,14.789,0,0,1-2.654,2.974c-.856.779-1.765,1.623-3.28,3.138a45.163,45.163,0,0,1-8.432,8.663c-.892.706-1.451.985-1.5.884s.414-.587,1.426-1.582c-.882.7-1.8,1.339-2.731,1.97l-2.755,1.913-2.815,1.776-1.4.884-1.424.811-2.816,1.6c-.943.506-1.894.972-2.827,1.45-1.853.984-3.734,1.784-5.545,2.586-.844.364-1.7.684-2.567.985l-2.583.927c-1.722.62-3.491,1.1-5.246,1.66a26.7,26.7,0,0,0-6.053,2.283c-1.956.444-3.272.761-4.275,1.023-1.007.243-1.7.408-2.41.606l-2.472.677c-1.053.274-2.455.541-4.519.943-.955.456-6.221,1-11.521,1.187-5.308.135-10.629-.088-11.808-.038.454.027.909.075,1.364.083-4.827.038-8.857.181-12.874.112l-3.023-.057c-1.014-.033-2.036-.115-3.083-.184-2.1-.119-4.269-.4-6.622-.762a123.265,123.265,0,0,1-38.727-12.6,99.2,99.2,0,0,1-17.029-11.341,89.945,89.945,0,0,1-13.568-14.1c.291-.545,3.344,4.431,4.165,4.112a99.813,99.813,0,0,1-21.19-38.551c-.408-1.264-.885-2.667-1.319-3.9s-.75-2.3-.975-2.875a13.829,13.829,0,0,1-.692-3.522,11.361,11.361,0,0,0-.328-2.62l-.574-.373a38.839,38.839,0,0,0-1.015-6.078,35.58,35.58,0,0,1-.878-5.87,13.835,13.835,0,0,0-.076-3.657c-.579-.052-.223-5.153-.7-4.889l.037-.05c-.065-1.011-.042-1.729-.152-2.961.034-.479.138-1.961.278-3.945.207-1.976.369-4.454.7-6.91.151-1.228.3-2.455.446-3.621.175-1.16.34-2.258.488-3.234.282-1.95.548-3.4.652-3.87l-.006-.9c.254-2.638.746-3.722.7-2.176.077-1.084.218-2.159.324-3.24l-.079.369.341-3.22c.023-.6-.118-1.3-.477-.416a40.42,40.42,0,0,0,.981-5.654c-.429,5.1-.728,11.447-.616,16.791.374-2.16.438-6.119.8-8.463a126.876,126.876,0,0,1,1-13.166c.184-.981.907-1.545,1.057-3.81-.2-1.159.467-2.505.572-4.4a47.115,47.115,0,0,0-1.312,6.317c-.4-.452.634-5.3.887-7.012a30.162,30.162,0,0,0,.709-3.072c.323-1.452.706-3.127,1.066-4.405-.709,1.022.184-2.155.348-3.736.381-1.751.839-2.815.819-2.07.616-.436-1.423,6.973-.318,4.679a39.511,39.511,0,0,1,1.33-5.88c.27.047-.112,1.3.437.182.485-2.034,1.386-4.081,1.426-5.313a13.824,13.824,0,0,0-.509,1.793c.364-1.31-1.1,2.106-2.359,5.5-1.311,3.376-2.449,6.718-1.982,5.007.009.238.324-.571.8-1.883s1.141-3.118,1.793-4.9a60.843,60.843,0,0,1,2.4-6.091c-.3,1.633.786-1.008.428.669L1272,1870c-.516,2.288-.305,3.334.092,2.588.5-1.892-.711.658-1.8,3.336-1.13,2.664-2.153,5.448-1.64,3.837l-.18,1.364a36.688,36.688,0,0,0,1.631-6.506c.259.054.82-1.782,1.344-3.288l.1-.556c.562-1.549,1.1-3.781,1.166-2.655-1.283,4.64-.2,3.285.9,1.919s2.247-2.748,1.112,1.726c.22-1.948-.012-1.676-.443-.424s-1.056,3.479-1.57,5.449a23.968,23.968,0,0,1-.568,5.14c-.612,2.456-.547,1.405-.8,1.842-.2,1.4-.621,4.05-.245,3.768-.757,1.858-.433,3.128-.974,5.429-.549,2.017-.134-.169-.581,1.252-.132.772-.278,1.621-.429,2.5-.13.881-.265,1.791-.4,2.681-.268,1.779-.506,3.482-.628,4.722.157,1,.272,3.962,1.017,1.915.589-4.686-.985,1.684-.209-3.178.338,2.192.854-4.274,1.515-5.07a51.751,51.751,0,0,1-.905,7.331l-.015-.538a53.283,53.283,0,0,0-1.026,9.475c.294-.567.351.545.592-1.151-.111,1.063-.171,2.131-.259,3.2-.111.4-.225.809-.2-.117a15.689,15.689,0,0,0-.286,4.18c.115.184-.459,4.414-.849,8.569-.2,2.076-.334,4.132-.456,5.636a19.165,19.165,0,0,0-.077,2.325c.038,2.322.394,2.87.262,5.134a22.112,22.112,0,0,1-.07-3.312c.021-1.009.045-2.183.07-3.43.043-1.246.13-2.562.2-3.856.119-2.587.4-5.078.529-6.733.177-1.653.292-2.469.219-1.709.047.991-.592,7.507-.779,14-.119,3.246-.077,6.481.006,8.992a27.067,27.067,0,0,0,.418,4.64c.172,1.707.349,3.773.053,3.4.444,2.871.383-.922.848,1.1-.032.051-.15-.15-.046.5l.6,1.914c.237,4.513,1.994,10.875,2.8,15.517-.028-.694-.059-1.445-.1-2.4-.072-.945-.154-2.1-.346-3.593l-.243-.485c-.024-.433-.459-2.869-.173-2.853.74,2.757,1.19,5.144,1.741,8.1.206.518.435,1.124.612,1.523-.035,0-.074-.04-.107-.018.414.9.425.787.411.421a.976.976,0,0,0-.005-.212,8.193,8.193,0,0,1,.985,2.386c.175.577.354,1.228.539,1.929l.663,2.2c.231.767.451,1.568.709,2.359l.835,2.337a27.188,27.188,0,0,0,1.822,4.087c.542,1.427-.067.188.616,1.966l1.882,3.2c.606,1,1.246,1.926,1.85,2.877s1.258,1.879,1.952,2.85,1.393,2.013,2.253,3.081c.764,1.6.749,1.8-.771.267.86,1.094,1.646,2.244,2.573,3.281-.851-1.733.532-.343,1.864.987.335.332.662.667.961.939a7.154,7.154,0,0,0,.774.6c.386.236.462.086-.061-.812a53.6,53.6,0,0,1,4.108,4.256,1.363,1.363,0,0,0,.271.778,9.29,9.29,0,0,0,1.845,2.026,54.437,54.437,0,0,0,5.167,3.763c.782.268-.1-.576.148-.664a13.988,13.988,0,0,0,2.291,1.8,14.15,14.15,0,0,0,1.6.875,27.422,27.422,0,0,1,3.976,2.151c.61.437,1.41.92,2.254,1.423l2.517,1.546c1.638.931,2.938,1.749,2.9,2C1324.058,2029.6,1324.232,2029.218,1324.021,2028.706Z"/><g class="k"><path class="j" d="M1376,1919.709c-10.226,36.222-8.135,71.58,14.043,90.3,22.224,18.725,64.491,20.815,89.4,2,24.905-18.77,32.359-58.491,21.406-95.758s-40.312-72.08-66.263-70.989C1408.631,1846.4,1386.179,1883.487,1376,1919.709Z"/></g><g class="k"><path class="j" d="M1281.379,1848.649c10.933,36.014,31.77,64.657,60.546,68.456,28.814,3.775,65.529-17.269,76.347-46.548,10.843-29.241-4.313-66.706-33.641-92.174s-72.831-38.939-94.092-24.02C1269.3,1769.321,1270.408,1812.659,1281.379,1848.649Z"/></g><path class="l" d="M1253.183,1787.11c-15.288,15.02-1.341,59.544,1.274,101.519s-6.1,81.337,9.187,111.243c15.288,29.973,54.649,50.559,85.091,41.573,30.443-8.918,51.9-47.34,80.6-77.246,28.766-29.973,64.707-51.43,70.608-78.855,5.968-27.425-18.172-60.818-46.871-75.771s-62.092-11.6-101.05-17.166C1313.063,1786.774,1268.539,1772.157,1253.183,1787.11Z"/><rect class="m" width="41.829" height="9.39" rx="2.809" transform="translate(1267.379 1996.278)"/><path class="n" d="M1350.753,2060.5h-123.38v-79.157h123.163Z"/><path class="n" d="M1358.721,1981.342H1219.406v-25.755h139.07Z"/><rect class="o" width="41.829" height="9.39" rx="2.809" transform="translate(1267.379 1996.278)"/><rect class="p" width="123.38" height="5.022" transform="translate(1227.373 1981.341)"/><rect class="m" width="41.829" height="9.39" rx="2.809" transform="translate(1267.379 1891.368)"/><path class="n" d="M1350.753,1955.587h-123.38V1876.43h123.163Z"/><path class="n" d="M1358.721,1876.432H1219.406v-25.755h139.07Z"/><rect class="o" width="41.829" height="9.39" rx="2.809" transform="translate(1267.379 1891.368)"/><rect class="p" width="123.38" height="5.022" transform="translate(1227.373 1876.43)"/><rect class="p" width="123.38" height="2.511" transform="translate(1227.373 1952.824)"/><rect class="m" width="41.829" height="9.39" rx="2.809" transform="translate(1407.227 1987.057)"/><path class="n" d="M1490.6,2051.276h-123.38V1972.12h123.163Z"/><path class="n" d="M1498.569,1972.121H1359.254v-25.755h139.07Z"/><rect class="o" width="41.829" height="9.39" rx="2.809" transform="translate(1407.227 1987.057)"/><rect class="p" width="123.38" height="5.022" transform="translate(1367.221 1972.12)"/><path class="q" d="M1400.8,1833.67l46.154,13.615a2.33,2.33,0,0,1,1.322,2.982l-18.814,65.075a2.384,2.384,0,0,1-2.35,1.854l-28.2-83.031A1.994,1.994,0,0,1,1400.8,1833.67Z"/><path class="q" d="M1427.115,1917.2a1.754,1.754,0,0,1-.356-.061l-46.151-13.613a2.332,2.332,0,0,1-1.322-2.981l18.814-65.078a2.756,2.756,0,0,1,.81-1.3Z"/><path class="r" d="M1401.673,1837.407l42.292,12.565a2.07,2.07,0,0,1,1.237,2.633l-16.558,56.865a2.046,2.046,0,0,1-2.452,1.539l-1.311-.39-24.772-72.926A1.814,1.814,0,0,1,1401.673,1837.407Z"/><path class="r" d="M1424.881,1910.619l-40.98-12.173a2.074,2.074,0,0,1-1.239-2.635l16.559-56.866a2.31,2.31,0,0,1,.888-1.252Z"/><path class="s" d="M1402.67,1906.845a1.351,1.351,0,0,0,.9,1.675,1.335,1.335,0,0,0,1.658-.912,1.354,1.354,0,0,0-.9-1.676A1.333,1.333,0,0,0,1402.67,1906.845Z"/><path class="t" d="M1423.573,1828.465a1.809,1.809,0,0,1,.8-.285l47.823-4.99a2.312,2.312,0,0,1,2.342,2.257l6.9,67.433a2.751,2.751,0,0,1-.355,1.675Z"/><path class="t" d="M1479.6,1895.573l-47.828,4.993a2.311,2.311,0,0,1-2.337-2.257l-6.9-67.435a2.536,2.536,0,0,1,1.034-2.409l57.508,66.09A1.975,1.975,0,0,1,1479.6,1895.573Z"/><path class="u" d="M1478.722,1891.408l-50.8-58.379,43.417-4.447a2.056,2.056,0,0,1,2.131,1.969l5.921,58.969A2.265,2.265,0,0,1,1478.722,1891.408Z"/><path class="u" d="M1477.7,1891.88l-43.858,4.5a2.058,2.058,0,0,1-2.132-1.968l-5.921-58.972a2.069,2.069,0,0,1,1.7-2.362l.443-.045,50.8,58.379A1.762,1.762,0,0,1,1477.7,1891.88Z"/><path class="v" d="M1450.23,1827.931a1.625,1.625,0,1,0-1.454,1.8A1.63,1.63,0,0,0,1450.23,1827.931Z"/><path class="s" d="M1429.995,1882.913a1.618,1.618,0,0,0,2.051-1.038,1.643,1.643,0,0,0-1.028-2.069,1.62,1.62,0,0,0-2.05,1.037A1.642,1.642,0,0,0,1429.995,1882.913Z"/><path class="t" d="M1391.163,1859.613l49.518,11.948a3.467,3.467,0,0,1-.091,4.609l-12.683,13.63a3.382,3.382,0,0,1-4.81.148l-31.807-30.2C1391.245,1859.7,1391.2,1859.658,1391.163,1859.613Z"/><path class="t" d="M1391.142,1854.892l12.683-13.632a3.382,3.382,0,0,1,4.812-.15l31.8,30.2c.085.081.165.165.24.251l-49.518-11.948A3.456,3.456,0,0,1,1391.142,1854.892Z"/><path class="v" d="M1397,1853.6a.368.368,0,0,0,.522-.017l5.38-5.791a.378.378,0,0,0-.016-.527h0a.368.368,0,0,0-.521.018l-5.38,5.791a.374.374,0,0,0,.015.526Z"/><path class="u" d="M1393.337,1859.995l15.632-16.825,29.352,27.822-44.782-10.806Z"/><path class="u" d="M1438.321,1870.992l.077.073-15.632,16.825-29.227-27.7Z"/><path class="v" d="M1432.14,1882.992a1.618,1.618,0,0,0,2.051-1.038,1.642,1.642,0,0,0-1.028-2.069,1.618,1.618,0,0,0-2.049,1.037A1.641,1.641,0,0,0,1432.14,1882.992Z"/><path class="w" d="M1377.077,1842.435a.312.312,0,1,0-.261-.354A.309.309,0,0,0,1377.077,1842.435Z"/><path class="x" d="M1427.408,1816.682l-9.366,64.53a4.109,4.109,0,0,1-4.641,3.488l-41.028-6.075a2.364,2.364,0,0,1-1.979-2.686l9.872-68.02a2.349,2.349,0,0,1,2.66-2l41.03,6.076A4.136,4.136,0,0,1,1427.408,1816.682Z"/><ellipse class="y" cx="4.147" cy="4.189" rx="4.147" ry="4.189" transform="translate(1393.755 1841.12)"/><path class="s" d="M1417.015,1869.7a1.227,1.227,0,1,0,1.37-1.075A1.237,1.237,0,0,0,1417.015,1869.7Z"/><path class="s" d="M1433.206,1839.385a.284.284,0,0,0,.088.389l5.05,3.18a.279.279,0,0,0,.384-.091h0a.283.283,0,0,0-.088-.388l-5.05-3.18a.278.278,0,0,0-.384.09Z"/><path class="z" d="M1428.031,1835.8l-1.309,38.571-.229.372a2.563,2.563,0,0,1-3.549.827l-11.887-7.5a2.616,2.616,0,0,1-.82-3.583l17.5-28.3A2.576,2.576,0,0,1,1428.031,1835.8Z"/><path class="z" d="M1431.285,1835.357l11.888,7.5a2.618,2.618,0,0,1,.82,3.585l-17.271,27.931,1.309-38.571A2.555,2.555,0,0,1,1431.285,1835.357Z"/><path class="u" d="M1442.6,1846.848l-15.83,25.649,1.183-34.872Z"/><path class="u" d="M1426.785,1872.5l-.327.53-14.67-9.238,16.157-26.179.023.014Z"/><path class="n" d="M1490.716,1946.366h-123.6v-80.1H1490.5Z"/><path class="aa" d="M1490.5,1850.658H1367.551l-4.779,15.612H1495.06Z"/><rect class="p" width="123.38" height="2.511" transform="translate(1367.221 1943.603)"/><path class="ab" d="M1307.345,1771.328c-4.367-4.863-15.671-5.293-19.5-1.624l0-.005c-7.779,7.614-16.5,15.027-24.843,22.584-5.476,3.941-15.173,10.908-12.506,17.484,2.289,5.647,5.067,17.5,13.72,13.411,10.719-5.064,36.54-25.521,43.563-33.5C1310.944,1786.08,1313.84,1778.562,1307.345,1771.328Z"/><path class="ac" d="M1204.463,1817.855l-10.378,1.208-3.62.16c-1.129.026-5.757-5.448-12.928-.757-2.666,1.744,3.368,3.16,2.246,3.8-2.884,1.65-2.9,1.163-5.491,1.481-1.676.206-5.657,1.493-6.011,4.239-.076.092,2.039,5.293,8.631,4.993,10.421-.473,12.383-4.483,14.909-4.575.87-.032,1.632-.262,2.547-.385,4.318-.639,9.965.926,15.636,1.665Z"/><path class="ab" d="M1266.07,1801.345c-7.355-4.038-11.946-1.235-16.45.377-11.053,4.695-28.3,10.6-55.468,14.816q1.008,22.121,5.685,29.242c25.012-.36,41.823-7.611,55.779-14.748,0,0,17.4-8.747,18.725-17.695C1274.536,1806.669,1271.412,1804.277,1266.07,1801.345Z"/><path class="ad" d="M1286.3,2051.714l-8.6.035q-3.066-15.545-5.374-28.354l12.814.5Q1285.627,2036.156,1286.3,2051.714Z"/><path class="ae" d="M1289.194,1983.662h0c-.744,4.686,1.986,25.419-1.274,57.934l-13.932-.242c-14.612-38.976-15.5-66.851-8.969-78.369a9.961,9.961,0,0,1,1.676-2.071C1276.617,1951.731,1289.969,1966.776,1289.194,1983.662Z"/><path class="af" d="M1289.6,2051.342a16.919,16.919,0,0,1,1.233,5.317,39.627,39.627,0,0,1-.82,6.221l-44.538-.777q-1.636-5.769,2.112-6.162t6.229-.718l20.862-8.867a.788.788,0,0,1,1.035.418l.009.02,1.274,3.251a14.191,14.191,0,0,0,5.6,1.714,12.737,12.737,0,0,0,4.882-1.336,1.582,1.582,0,0,1,2.082.815C1289.575,2051.272,1289.588,2051.306,1289.6,2051.342Z"/><path class="ae" d="M1273.314,1866.339l34.633-21.814c27.709,35.508-14.657,115.921-15.613,117.935-2.758,5.815-7.128,10.425-10.845,12.467s-16.262,7.825-19.308-3.044S1263.659,1920.327,1273.314,1866.339Z"/><path class="ad" d="M1334.617,2061.441l-9.133-2.53-7.327-28.723,10.725-.139Z"/><path class="ag" d="M1306.95,1939.256c13.956-1.345,20.194,5.139,21.038,15.7,2.218,37.457,3.3,74.443,7.734,88.916l-21.348-1.816c-4.335-12.78-15.222-44.107-25.106-78.575C1286.075,1948.15,1295.238,1940.385,1306.95,1939.256Z"/><path class="af" d="M1335.285,2052.795a16.956,16.956,0,0,1,1.46,5.26,39.519,39.519,0,0,1-.553,6.251q-2.477.062-44.53,1.134-1.883-5.692,1.846-6.247t6.192-.984l20.463-9.755a.79.79,0,0,1,1.053.373l.009.021,1.412,3.193a14.205,14.205,0,0,0,5.669,1.472,12.731,12.731,0,0,0,4.821-1.545,1.58,1.58,0,0,1,2.113.724C1335.257,2052.726,1335.271,2052.761,1335.285,2052.795Z"/><path class="ag" d="M1327.485,1870.156c4.622,19.132,2.762,53.552.027,87.46-.937,11.268-5.761,18.537-17.392,18.482-10.141-.048-20.022-1.059-22.138-15.429-5.716-40.669-9.555-85.233-3.492-109.194Z"/><path class="ah" d="M1314.616,1774.9l-22.763-.509,4.464-27.187c-6.224,3.565-12.3,5.219-15.115,4.425-7.062-1.989-7.134-27.989-1.41-38.111s34.079-13.954,35.05,6.374c.337,7.056-2.762,13.277-7.247,18.309Z"/><path class="ai" d="M1296.317,1747.2l5.617-6.53-.2,23.919-7.874-2.9Z"/><path class="j" d="M1327.867,1813.627c1.9-21.874-12.72-57.078-15.3-57.3L1289,1754.262a127.431,127.431,0,0,1-5.648,20.878c-6.9,20.161-17.326,48.864-20.6,58.362-3.9,11.314-2.99,26.125.1,34.52,6.345,17.258,53.336,5.9,68.421,10.265C1343.609,1847.913,1326.135,1833.6,1327.867,1813.627Z"/><path class="j" d="M1262.961,1832.89c4.689-3.282,14.152-10.714,14.575-17.493-.224-4.031-1.533-6.4-3.761-8.184a133.363,133.363,0,0,1,23.084-15.652c2.486-1.268-13.926,28.3-29.742,42.474a61.351,61.351,0,0,1-5.726,4.392,42.987,42.987,0,0,1,1.358-4.925C1262.815,1833.31,1262.889,1833.1,1262.961,1832.89Z"/><path class="aj" d="M1263.482,1863.247l-8.217,6.453-3,2.028c-.949.613-7.755-1.637-11.418,6.11-1.362,2.881,4.522.935,3.9,2.068-1.6,2.914-1.868,2.51-3.908,4.132-1.321,1.052-4.043,4.229-2.91,6.756-.016.118,4.5,3.447,9.968-.253,8.638-5.849,8.216-10.293,10.321-11.692.725-.482,1.254-1.076,1.97-1.659,3.348-2.8,8.981-4.418,14.2-6.751Z"/><path class="ak" d="M1300.233,1768.876c-6.4,1.326-12.459,10.879-11.216,16.037h-.005c2.666,10.554,4.682,21.823,7.018,32.833.65,6.715,1.791,18.6,8.816,19.6,6.033.863,17.673,4.426,18.494-5.11,1.016-11.81-3.671-44.418-7.031-54.5C1314.793,1773.187,1309.753,1766.9,1300.233,1768.876Z"/><path class="ak" d="M1307.381,1816.978c-8.38.4-10.83,5.189-13.828,8.918-6.97,9.778-18.59,23.828-39.55,41.616q12.417,18.333,20.127,21.961c21.138-13.376,31.682-28.343,39.852-41.72,0,0,10.264-16.551,6.718-24.872C1317.382,1817.094,1313.468,1816.687,1307.381,1816.978Z"/><path class="u" d="M1306.523,1742.048l-1.378-10.535s2.161-6.88-1.8-8.663-8.033,4.945-8.033,4.945h-2.8s-1.269-5.67-4.215-6.76c-6.192-2.29-10.67-.953-14.379-.953-4.035-13.938,5.309-20.273,20.618-21.963s18.115,9.631,18.115,9.631a9.737,9.737,0,0,1,6.687,7.1c1.254,5.713-6.953,14.419-9.84,27.195Z"/></g></svg>