<svg xmlns="http://www.w3.org/2000/svg" width="476.019" height="370.8" viewBox="0 0 476.019 370.8"><defs><style>.a{fill:#dde3e9;}.b{fill:#c5cfd6;}.c{fill:#afb9c5;}.d{fill:#89c5cc;}.e{fill:#f2f2f2;}.f{fill:#c1dee2;}.g{fill:#69a1ac;}.h{fill:#e5e5e5;}.i{fill:#ff6053;}.aj,.j{opacity:0.1;}.k{fill:#e24185;}.l{fill:#f4f4f4;opacity:0.7;}.m{fill:#0b9995;}.n{fill:#d19d74;}.o{fill:#ebb37e;}.p{fill:#edc003;}.q{fill:#e3e3e2;}.r{fill:#ffd100;}.s{fill:#e7ae7a;}.t{fill:#ad503c;}.u{fill:#cc9a6c;}.v{fill:#0bb2b2;}.w{fill:#161616;}.x{fill:#231934;}.y{fill:#565656;}.z{fill:#f4efd9;}.aa{fill:#353535;}.ab{fill:#d8d2c5;}.ac{fill:#868789;}.ad{fill:#d6d6d6;}.ae{fill:#fff;}.af{fill:#282828;}.ag{fill:#dd8253;}.ah{fill:#e7af7b;}.ai{fill:#07b5bd;}.ak{fill:#ee9455;}</style></defs><g transform="translate(-320.12 -1697.799)"><path class="a" d="M355.714,1881.579a12.747,12.747,0,0,1,6.467.678c4.267,1.808,5.48,6.854,5.423,10.949-.063,4.41-1,9.226,2.353,12.778,1.541,1.634,3.458,2.884,4.971,4.547a21.5,21.5,0,0,1,3.825,6c1.725,4.011,2.571,8.729.994,12.938-1.389,3.7-4.883,7.049-4.127,11.262.785,4.4,5.216,7.756,7.987,11.034,3.135,3.7,6.025,8.439,6.5,13.3.452,4.656-1.572,9.365-4.683,12.885-6.214,7.033-15.555,10.48-24.974,10.459-4-.009-8.527-.19-11.976-2.339a6.6,6.6,0,0,1-2.263-2.445,7.968,7.968,0,0,0-2.189-2.191,12.989,12.989,0,0,1-4.169-5.567c-3.418-8.461-.686-18.927,4.1-26.438,1.134-1.779,2.062-3.492,1.511-5.614a21.739,21.739,0,0,0-3.239-6.12,49.1,49.1,0,0,1-3.61-5.71,12.962,12.962,0,0,1-1.116-6.694,22.775,22.775,0,0,1,4.9-11.949c2.577-3.394,5.607-6.641,5.613-11.087.008-4.713-3.143-8.906-1.8-13.7a9.134,9.134,0,0,1,3.472-5.209A14.146,14.146,0,0,1,355.714,1881.579Z"/><path class="b" d="M354.3,1889.114a1.087,1.087,0,0,1,1.262-.877,1.014,1.014,0,0,1,.121.029c.778.218.763.945.743,1.593a21.422,21.422,0,0,0,.7,5.856c.995,4.017,2.831,7.717,4.289,11.575a21.038,21.038,0,0,1,1.284,11.912c-.8,3.846-2.068,7.589-2.893,11.442-.726,3.394-1.5,6.972-.393,10.357,1.064,3.259,3.415,5.912,5.109,8.856a41.759,41.759,0,0,1,5.269,19.817,37.053,37.053,0,0,1-.741,9.662c-.431,1.825-1.011,4.293-2.575,5.551a1.788,1.788,0,0,1-2.561-.075c-.57-.807-.07-2.057.111-2.917a44.232,44.232,0,0,0,.753-11.309,40.841,40.841,0,0,0-1.767-10.816,36.576,36.576,0,0,0-4.606-9c-1.949-2.893-3.975-5.793-4.78-9.221-.818-3.482-.151-7.025.735-10.441.94-3.615,2.171-7.121,3.444-10.637a18.658,18.658,0,0,0,.995-10.247C357.453,1903.137,353.833,1896.489,354.3,1889.114Z"/><path class="a" d="M412.681,1890.173a16.172,16.172,0,0,1,7.225,4.169c4.047,4.362,2.8,10.954.571,15.768-2.4,5.182-6.049,10.4-3.992,16.337.945,2.734,2.532,5.209,3.428,7.964a27.768,27.768,0,0,1,1.317,9.08c-.1,5.642-1.6,11.662-5.672,15.817-3.588,3.66-9.453,5.8-10.8,11.173-1.4,5.607,2.022,11.886,3.54,17.2,1.72,6.013,2.6,13.114.591,19.106-1.928,5.743-6.794,10.258-12.3,12.8-11.006,5.084-23.786,4.3-34.822-.623-4.685-2.092-9.9-4.661-12.812-9a8.482,8.482,0,0,1-1.363-4.067,10.227,10.227,0,0,0-1.414-3.732,16.752,16.752,0,0,1-1.943-8.754c.463-11.784,9.2-22.74,18.782-29.137,2.271-1.515,4.264-3.057,4.74-5.853.5-2.918-.105-6.015-.564-8.917a63.951,63.951,0,0,1-1.214-8.631,16.907,16.907,0,0,1,2.229-8.5,29.754,29.754,0,0,1,12.067-11.578c4.82-2.671,10.087-4.937,12.445-10.192,2.5-5.574,1.02-12.167,5.127-17.136a11.885,11.885,0,0,1,6.826-4.355C407.3,1888.667,410.17,1889.41,412.681,1890.173Z"/><path class="b" d="M407.228,1899.383a1.385,1.385,0,0,1,1.919-.387,1.462,1.462,0,0,1,.141.108c.8.665.4,1.518.035,2.275a28.061,28.061,0,0,0-2.245,7.306c-.94,5.277-.729,10.62-1.046,15.954s-1.6,10.4-4.737,14.781c-2.954,4.132-6.394,7.908-9.374,12.033-2.626,3.639-5.4,7.472-5.884,12.06-.462,4.416.9,8.792,1.336,13.166a54.756,54.756,0,0,1-4.218,26.229,48.436,48.436,0,0,1-5.926,11.054c-1.46,1.935-3.43,4.551-5.918,5.224-1.148.31-2.7-.1-2.954-1.436-.244-1.254.995-2.472,1.657-3.4a57.839,57.839,0,0,0,6.8-13,53.517,53.517,0,0,0,3.6-13.735,47.84,47.84,0,0,0-.674-13.073c-.764-4.448-1.614-8.944-.76-13.426.867-4.553,3.5-8.4,6.327-11.976,2.991-3.786,6.269-7.3,9.6-10.791a24.369,24.369,0,0,0,6.533-11.618C403.566,1917.639,402.814,1907.87,407.228,1899.383Z"/><path class="b" d="M330.142,1923.628a14.333,14.333,0,0,1,11.032,5.693c3.148,3.909,3.784,8.683,5.062,13.342a11.906,11.906,0,0,0,3.648,6.2c1.743,1.431,3.958,1.72,6.045,2.419a14.109,14.109,0,0,1,8.871,8.879c1.623,5.016-.1,10.073.2,15.156.272,4.67,4.874,7.58,8.576,9.818,3.652,2.207,6.941,4.272,8.041,8.57,1.166,4.559,1.557,9.648-.058,14.151-2.689,7.5-10.559,10.8-18.164,11.313-6.9.465-15.579-.265-20.762-5.272-3.1-3-4.225-7.191-4.086-11.362a34.633,34.633,0,0,1,1.265-7.671,34.625,34.625,0,0,0,1.288-5.381c.482-4.884-4.033-5.822-7.875-7.163a18.741,18.741,0,0,1-10.677-9.411,17.916,17.916,0,0,1-1.815-13.461,15.709,15.709,0,0,1,3.574-6.292c.733-.8,1.768-1.462,2.43-2.3a3.1,3.1,0,0,0,.271-2.711c-.985-4.23-4.055-7.734-5.156-11.96-.987-3.813-.4-8.562,3.088-11.019A9.1,9.1,0,0,1,330.142,1923.628Z"/><path class="c" d="M336.191,1934.656c4.706,5.015,5.985,11.813,6.36,18.4.21,3.7-.009,7.594,1.077,11.18.929,3.068,3.107,5.414,5.352,7.63,4.519,4.463,9.56,9,10.882,15.458.776,3.79.252,7.7,1.324,11.454a31.5,31.5,0,0,0,4.778,9.632c1.68,2.317,3.87,4.09,5.707,6.251.56.659,1.363,1.63,1.13,2.561-.271,1.09-1.658,1.435-2.645,1.264-2.3-.4-4.23-2.593-5.732-4.186a36.1,36.1,0,0,1-5.579-7.652,32.174,32.174,0,0,1-3.615-9.942c-.6-3.636-.3-7.425-1.674-10.915-2.31-5.875-7.909-9.339-11.963-13.912-5.047-5.7-4.294-12.8-3.778-19.813.284-3.855.567-8.21-1.381-11.727-.744-1.345-2.4-2.6-2.721-4.125C333.42,1934.819,335.018,1933.405,336.191,1934.656Z"/><path class="d" d="M341.209,2017.024c0,28.665,4.678,43.686,29.375,43.686s29.374-15.021,29.374-43.686Z"/><rect class="c" width="28.621" height="6.779" rx="1.506" transform="translate(442.891 1975.599)"/><path class="a" d="M444.774,1977.1a11.674,11.674,0,1,1,0-23.349h5.649c4.85-15.721,5.435-33.141,5.435-33.141H459.3a126.323,126.323,0,0,0,5.436,33.141h4.9a11.674,11.674,0,1,1,0,23.349Z"/><path class="b" d="M430.555,1868.4s12.946-1.265,25.893-1.265,25.893,1.265,25.893,1.265l3.482,59.844s-14.688,1.407-29.375,1.407-29.374-1.407-29.374-1.407Z"/><path class="e" d="M488.082,2060.71v-61.762H425.567v61.762H409.75v-78.333H503.9v78.333Z"/><path class="f" d="M724.873,1848.465c6.653,15.811,17.962,26.794,23.952,43.228a93.319,93.319,0,0,1,5.122,31.2c.049,5.9-.054,11.8-.082,17.693-.027,5.75-.183,11.463-.671,17.173-.49,5.743-1.039,11.418-1.28,17.2-.188,4.5-.275,9.741-1.8,13.848-1.213,3.266-4.3,3.745-5.117-.217a31.658,31.658,0,0,1-.347-6.924c.064-2.9.233-5.8.319-8.706.346-11.651-.1-23.3.132-34.958.226-11.387,1.693-22.762.075-34.073-1.338-9.339-4.735-17.362-8.64-25.051-3.759-7.392-7.848-14.611-10.386-23.026a40.535,40.535,0,0,1-1.563-7.52C724.7,1848.276,724.8,1848.321,724.873,1848.465Z"/><path class="d" d="M723.06,1879.654A12.673,12.673,0,0,1,726,1883.37c1.107,1.707,2.41,3.249,3.516,4.957,2.309,3.561,4.337,7.342,6.44,11.048a72.383,72.383,0,0,1,8.531,22.671c1.556,8.436,1.977,17.139,2.63,25.7.693,9.072,1.39,18.209,1.482,27.316a98.11,98.11,0,0,1-.226,12.463c-.3,2.522-1.443,4.669-4.009,4.651-5.451-.043-8.01-6.081-9.078-11.032a92.951,92.951,0,0,1-1.639-22.49c.3-8.994,1.857-17.85,2.535-26.8.715-9.481.311-18.793-2.948-27.718-1.647-4.511-3.558-8.914-5.272-13.4a43.385,43.385,0,0,0-2.318-5.646,54.133,54.133,0,0,1-3.321-5.9Z"/><path class="f" d="M785.846,1860.75l.5-.39a50.042,50.042,0,0,1-2.016,5.529,45.24,45.24,0,0,0-1.3,5.375c-.945,4.279-2.034,8.461-2.929,12.776-1.767,8.539-1.436,17.738-.274,27.212,1.094,8.948,2.825,17.884,3.649,26.831a123.229,123.229,0,0,1,.325,22.15c-.443,4.808-1.9,10.545-5.853,10.064-1.863-.226-2.835-2.471-3.227-5-.629-4.067-.76-8.341-1.005-12.385-.549-9.02-.656-18.02-.765-26.952-.1-8.43-.387-17.021.18-25.236a77.342,77.342,0,0,1,4.669-21.66c1.281-3.473,2.5-7.026,3.936-10.335.689-1.587,1.531-2.99,2.221-4.576A9.8,9.8,0,0,1,785.846,1860.75Z"/><path class="f" d="M724.743,1905.777c.721-1.2,2.307,2.782,2.549,3.284-.1-.251-.2-.5-.308-.748a33.264,33.264,0,0,1,3.552,7.583c.8,2.7,1.5,5.454,2.252,8.174,1.417,5.1,3.246,10.06,4.531,15.208a49.468,49.468,0,0,1,1.264,15.139,129.5,129.5,0,0,0-.139,16.257,47.926,47.926,0,0,0,1.582,7.451c.57,2.479,1.026,4.995,1.705,7.444.156-.319.175.748.175.829a5.136,5.136,0,0,1-.287,1.706,4.591,4.591,0,0,1-2.893,3.172c-2.6.744-5.021-1.624-5.86-4.125a68.372,68.372,0,0,1-2.439-11.327,53.369,53.369,0,0,1-.494-10.439c.308-6.913,1.559-13.737,1.9-20.648.368-7.524-1.123-14.594-2.371-21.918a63.9,63.9,0,0,0-2.347-10.388,29.2,29.2,0,0,0-1.738-3.821C725.006,1907.9,724.261,1906.619,724.743,1905.777Z"/><path class="g" d="M745.865,1894.027c-.3,8.621-.813,17.173-1.963,25.705-1.173,8.7-2.52,17.378-3.65,26.087-1.1,8.481-2.25,17.1-2.1,25.7.113,6.334-.937,17.048,6.1,20.174,7.125,3.163,8.653-10.354,9.121-14.816.9-8.56.6-17.212.171-25.819-.447-8.834-1.193-17.625-2.117-26.426-1.027-9.777-1.832-19.6-2.478-29.4-.32-4.85-.4-9.692-.31-14.543.081-4.576-.093-9.2-1.721-13.548l-.255.186"/><path class="d" d="M782.644,1921.335c-1.28,1.866-2.573,3.714-3.782,5.691a30.068,30.068,0,0,0-4.716,12.53c-1.229,10.584-.24,22.017,0,32.927.049,2.229-.234,4.391.645,6.512.8,1.924,2.286,3.39,3.706,3.382,3.039-.017,2.578-7.456,2.578-10.736.009-5.741-.635-11.542-.579-17.278a119.878,119.878,0,0,1,1.225-16.78,96.665,96.665,0,0,1,3.669-15.6c.226-.678,1.83-5.93.313-5.025"/><path class="g" d="M769.222,1864.879c-2,0-1.987,9.962-2.047,11.241-.217,4.618-.166,9.237-.3,13.855-.3,10.079-.67,20.246-2.184,30.209-.817,5.362-1.761,10.7-2.778,16.022-1.022,5.34-2.388,10.671-3.056,16.077-.644,5.2-.28,10.495-.192,15.717a137.7,137.7,0,0,0,.935,15.724c.17,1.286.37,2.566.583,3.841a30.484,30.484,0,0,0,.376,3.4c.482,1.621,2.545,2.151,3.935,1.9,3.761-.686,6.163-5.407,7.447-8.857a82.963,82.963,0,0,0,3.37-13.826,120.888,120.888,0,0,0,1.807-15.953c.544-10.882-.15-21.776-.934-32.623-.434-6.033-.934-12.039-1.7-18.034-.763-5.97-1.743-11.913-2.38-17.9-.464-4.351-.92-8.707-1.22-13.075-.073-1.04-.133-7.712-1.661-7.712"/><path class="d" d="M766.72,1937.29c-.325-10.459-4.53-56.4-5.486-69.047-.24-3.163-2.542-16.344-2.841-19.935-.81,1.015-.741,16.8-.732,20.432.009,3.589-.436,7.117-.665,10.687-.233,3.642-5.618,50.679-6.316,54.179-1.39,6.962-2.32,14.106-3.038,21.225-.7,6.938-1.786,14.258-.851,21.233a21.337,21.337,0,0,0,1.11,4.661c.6,1.594,1.008,3.068,1.489,4.735.773,2.687,2.171,5.046,4.32,6.153,4.406,2.274,6.771-2.873,7.971-7.355a119.914,119.914,0,0,0,3.721-21.947c.638-8.315,1.582-16.645,1.318-25.021"/><rect class="h" width="68.541" height="68.541" rx="1.506" transform="translate(720.067 1968.067)"/><rect class="b" width="7.532" height="85.111" rx="1.506" transform="translate(712.535 1975.599)"/><rect class="b" width="7.532" height="85.111" rx="1.506" transform="translate(750.194 1975.599)"/><rect class="b" width="7.532" height="85.111" rx="1.506" transform="translate(788.607 1975.599)"/><path class="i" d="M535.694,2028.566a.707.707,0,0,1-.176-.02,1.11,1.11,0,0,1-.619-.462c-.6-1.047-1.082-1.874,18.813-14.749,11.48-7.429,27.035-17.1,42.077-26.452,21.662-13.468,45.776-28.46,53.391-34.188-9.388,4.584-37.793,21.893-63.274,37.418-43.864,26.73-63.32,38.4-65.668,37.785a1.045,1.045,0,0,1-.655-.486c-.625-1.083-1.119-1.939,20.679-15.744,12.671-8.025,30.088-18.638,46.932-28.9,28.66-17.463,60.786-37.036,67.609-42.782-8.557,3.487-42.974,24.678-71.125,42.011-45.294,27.89-67.554,41.335-71.348,41.336a1.072,1.072,0,0,1-.262-.028,1.133,1.133,0,0,1-.714-.525c-.666-1.154-1.3-2.244,24.2-18.281,14.759-9.282,34.5-21.184,53.584-32.7,26.706-16.1,56.6-34.132,63.645-39.658-9.008,3.632-44.172,25.344-75.543,44.715-50.968,31.472-75.33,46.2-78.65,45.374a1.188,1.188,0,0,1-.752-.55c-.633-1.1-1.09-1.888,22.94-16.7,14.047-8.661,32.654-19.751,52.353-31.492,32.667-19.471,72.575-43.258,80.954-50.014-9.214,4.035-44.34,25.554-75.7,44.764-54.16,33.179-80.739,49.163-85.106,49.165a1.2,1.2,0,0,1-.292-.032,1.162,1.162,0,0,1-.731-.536c-.7-1.219-1.368-2.37,27.415-20.024,16.719-10.255,39.117-23.445,60.779-36.2,30.37-17.885,64.309-37.871,73.024-44.368-10.248,4.759-46.3,26.792-78.538,46.5-54.247,33.155-87.9,53.5-92.742,53.506a1.1,1.1,0,0,1-.279-.029,1.17,1.17,0,0,1-.737-.541c-.714-1.237-1.452-2.516,28.906-21.188,17.677-10.871,41.441-24.887,64.423-38.442,34.251-20.2,72.693-42.875,80.031-48.964-9.35,3.543-51.3,29.284-88.646,52.2-57.165,35.08-85.2,51.97-89.714,51.973a1.225,1.225,0,0,1-.3-.032,1.169,1.169,0,0,1-.737-.541c-.65-1.125-1.119-1.938,25.736-18.276,15.743-9.577,36.575-21.857,58.632-34.857,36.455-21.487,80.964-47.722,90.49-55.155-9.974,4.566-47.017,27.187-80.113,47.4-56.745,34.653-91.942,55.921-96.976,55.922a1.177,1.177,0,0,1-1.032-.576c-.646-1.119-1.156-2,26.2-19.032,16.041-9.985,37.219-22.747,59.641-36.258,39.476-23.789,83.859-50.535,91.127-56.957-9.4,3.23-56.92,32.4-95.591,56.149-60.074,36.888-88.753,54.2-92.208,53.292a1.171,1.171,0,0,1-.739-.542c-.727-1.259-1.478-2.561,29.512-21.522,18.172-11.118,43.117-25.755,67.242-39.911,42.571-24.979,90.514-53.111,96.809-59.486-9.106,2.859-62.064,35.171-105.056,61.4-61.536,37.547-90.849,55.157-93.961,54.354a1.1,1.1,0,0,1-.693-.512c-.725-1.254-1.408-2.439,30.543-21.911,18.738-11.419,44.4-26.474,69.21-41.034,42.312-24.828,89.834-52.711,98.19-59.894-9.783,4.141-53.169,30.577-91.822,54.129-64.192,39.114-103.975,63.111-109.423,63.113a1.2,1.2,0,0,1-1.05-.582c-.7-1.214-1.363-2.361,32.045-22.7,19.55-11.9,46.037-27.475,71.653-42.537,41.107-24.17,87.293-51.328,95.319-57.963-9.89,3.543-57.417,32.664-99.7,58.57-63.395,38.843-93.658,57.019-97.19,56.15a1.165,1.165,0,0,1-.737-.54c-.745-1.291-1.59-2.754,30.435-22.491,18.756-11.558,44.355-26.645,69.11-41.234,41.079-24.209,87.249-51.418,94.717-58.375-9.262,3.914-52.2,30.006-90.422,53.236-65.435,39.766-105.457,63.884-109.361,62.843a1.165,1.165,0,0,1-.732-.538c-.684-1.185-1.393-2.408,27.008-19.6-15.466,8.875-24.622,13.5-26.522,13.016a1.193,1.193,0,0,1-.766-.561c-.679-1.175-1.265-2.191,27.463-19.971,16.921-10.473,39.512-23.967,63.428-38.253,43.319-25.877,96.552-57.676,104.415-65.161-8.819,3.641-49.238,28.316-88.427,52.238-65.082,39.729-108.531,65.973-114.519,65.976a1.293,1.293,0,0,1-.33-.035,1.227,1.227,0,0,1-.786-.574c-.7-1.213-1.425-2.468,30.432-21.963,18.723-11.459,44.546-26.666,69.518-41.372,46.061-27.123,97.972-57.694,104.159-64.166-9.154,2.481-66.724,37.623-113.4,66.112-62.116,37.918-89.657,54.447-92.6,53.7a1.083,1.083,0,0,1-.681-.5c-.663-1.148-1.186-2.055,28.456-20.134,17.448-10.641,40.634-24.347,65.182-38.856,43.818-25.9,97.763-57.786,105.019-64.536-9.471,2.785-63.808,36.052-107.924,63.062-59.293,36.3-86.349,52.6-90.424,52.6a1,1,0,0,1-.249-.028,1.105,1.105,0,0,1-.7-.513c-.754-1.307-1.609-2.788,30.957-22.433,19.109-11.527,45.347-26.656,70.721-41.286,44.743-25.8,95.146-54.86,101.406-61.463-8.531,2.889-55.746,31.766-97.679,57.413-64.612,39.516-104.145,63.424-108.307,62.376a1.2,1.2,0,0,1-.768-.561c-.678-1.175-1.264-2.19,27.631-19.91,17.02-10.439,39.752-23.9,63.818-38.144,44.4-26.286,99.124-58.68,105.746-65.525-8.83,2.749-59.741,33.861-101.071,59.119-60.049,36.7-88.69,53.9-91.824,53.105a1.116,1.116,0,0,1-.7-.517c-.66-1.143-1.136-1.969,25.184-18.181,15.55-9.577,36.644-22.153,58.977-35.468,46.87-27.944,104.743-62.448,110.574-69.235-7.93,2.015-56.271,31.776-99.145,58.172-59.081,36.373-95.241,58.365-99.291,57.361a1.209,1.209,0,0,1-.78-.569c-.679-1.176-1.265-2.191,29.58-20.948,18.1-11.01,43-25.65,67.07-39.81,43.242-25.433,91.9-54.05,99.194-60.556-9.763,3.047-63.517,35.905-107.2,62.6-57.818,35.342-83.457,50.739-86.25,50.043a1.071,1.071,0,0,1-.676-.5c-.675-1.169-1.312-2.274,27.778-19.8,17.083-10.294,39.7-23.419,63.644-37.314,40.543-23.527,90.317-52.411,98.253-59.512-9.418,3.8-53.426,30.553-92.6,54.371-62.27,37.861-92.669,56.05-97.009,56.052a1.017,1.017,0,0,1-.251-.027,1.114,1.114,0,0,1-.7-.516c-.654-1.133-1.326-2.3,21.949-16.765-14.068,8.128-22.439,12.369-24.252,11.908a1.205,1.205,0,0,1-.773-.565c-.682-1.182-1.326-2.3,28.666-20.637,17.567-10.742,41.631-24.924,64.9-38.638,39.277-23.147,83.327-49.106,92.117-56.308-9.778,4.394-48.586,28.037-83.218,49.137-58.851,35.855-95.329,57.853-100.355,57.855a1.18,1.18,0,0,1-.278-.03,1.167,1.167,0,0,1-.734-.539c-.708-1.228-1.441-2.5,29.131-21.473,17.873-11.094,42.176-25.577,65.679-39.585,38-22.645,80.668-48.075,88.283-54.718-9.18,3.722-49.7,28.487-85.789,50.545-61.264,37.444-90.508,54.966-93.975,54.107a1.157,1.157,0,0,1-.73-.536c-.7-1.22-1.37-2.373,29.234-21.211,17.826-10.973,41.788-25.172,64.96-38.9,34.316-20.333,72.783-43.126,80.9-49.522-9.685,3.966-49.264,28.248-84.557,49.9-57.907,35.528-85.549,52.188-88.988,51.3a1.172,1.172,0,0,1-.739-.542c-.65-1.127-1.121-1.942,23.656-17.536,14.531-9.145,33.889-20.924,54.384-33.394,36.34-22.11,80.947-49.25,88.219-55.881-8.1,3.083-43.426,24.879-74.883,44.288C474.078,1834.9,444.391,1853,439.616,1853a1.259,1.259,0,0,1-.306-.033,1.215,1.215,0,0,1-.767-.56c-.648-1.122-1.16-2.009,23.672-17.462,14.474-9.007,34.3-20.91,53.481-32.42,31.72-19.038,67.226-40.349,75.478-46.86-9.721,4.356-45.883,26.366-78.185,46.028-50.932,31-74.183,44.923-77.7,44.925a.875.875,0,0,1-.218-.024,1.064,1.064,0,0,1-.667-.495c-.666-1.154-1.3-2.244,23.876-17.9,14.682-9.132,34.836-21.147,54.326-32.767,33.5-19.971,71.138-42.412,77.564-48.3-8.514,3.089-48.388,27.473-80.878,47.341-46.625,28.512-61.465,37.3-63.482,36.8a1.018,1.018,0,0,1-.64-.476c-.626-1.085-1.168-2.023,20.121-15.777,12.378-8,29.433-18.561,45.927-28.778,26.293-16.286,58.28-36.1,66.175-42.617-8.459,4.154-35.619,20.622-59.952,35.377-47.691,28.919-63.911,38.484-66.031,37.914a1.02,1.02,0,0,1-.64-.477c-1.154-2,4.557-6.215,59.669-40.256,23.351-14.423,51.7-31.932,59.288-38.024-8.371,4.1-34.286,19.86-55.671,32.868-40.878,24.864-53.9,32.534-55.745,32.051a1,1,0,0,1-.63-.469c-.575-1-.955-1.654,16.627-13.437,10.134-6.794,23.975-15.74,37.359-24.392,19.509-12.611,41.134-26.59,49.244-32.647-8.8,4.672-30.018,17.516-47.735,28.24-38.327,23.2-46.909,28.123-48.354,27.758a1.071,1.071,0,0,1-.6-.453c-.882-1.529.861-3.261,45.773-32.264,14.588-9.421,30.664-19.8,37.957-25.033-7.07,3.869-20.747,12.28-32.311,19.391-26.77,16.463-32.846,19.957-34.187,19.607a1.1,1.1,0,0,1-.619-.462c-.573-.991-.633-1.1,18.414-16.814,4.315-3.561,9.208-7.6,12.865-10.7l-.14.087c-6.828,4.232-7.151,4.341-7.728,4.2a.944.944,0,0,1-.571-.429.885.885,0,0,1,.742-1.328c.807-.338,4.152-2.412,6.624-3.944,6.908-4.282,7.022-4.254,7.575-4.112a.938.938,0,0,1,.57.429c.583,1.009.644,1.115-18.81,17.17-5.113,4.219-11.056,9.124-14.677,12.258,6.154-3.405,18.127-10.767,29.014-17.463,27.587-16.965,36.446-22.18,38.11-21.757a1.023,1.023,0,0,1,.642.477c.839,1.454-.56,2.828-42.509,29.917-15.1,9.753-33.054,21.346-41.026,27.122,8.468-4.667,26.222-15.413,42.333-25.165,38.782-23.474,51.118-30.72,52.88-30.267a1.118,1.118,0,0,1,.618.463c.585,1.013.938,1.624-16.318,13.184-9.954,6.668-23.607,15.494-36.81,24.029-20.158,13.03-42.536,27.5-50.445,33.493,8.7-4.545,30.923-18.064,50.952-30.246,42.815-26.041,57.4-34.608,59.451-34.1a1.035,1.035,0,0,1,.645.48c.617,1.07,1.151,1.994-18.981,14.985-11.643,7.513-27.524,17.322-42.882,26.808-23.345,14.42-49.379,30.5-56.9,36.4,8.995-4.423,36.974-21.388,62.058-36.6,46.754-28.35,61.639-37.078,63.629-36.584a1.013,1.013,0,0,1,.632.471c.631,1.094,1.228,2.128-21.045,16.538-12.923,8.362-30.546,19.278-47.589,29.834-26.261,16.267-55.587,34.432-63.413,40.725,8.439-4.2,34.406-20.081,59.632-35.507,49.681-30.381,80.081-48.773,83.584-47.878a1.17,1.17,0,0,1,.736.54c.677,1.174,1.318,2.283-24.225,18.178-14.888,9.264-35.255,21.406-54.951,33.15-32.269,19.237-68.433,40.8-76.081,47.219,9.024-4.056,43.689-25.155,74.636-43.991,53.409-32.509,78.893-47.757,81.744-47.015a1.087,1.087,0,0,1,.684.506c.656,1.136,1.173,2.033-23.937,17.664-14.63,9.107-34.62,21.1-53.952,32.708-32.136,19.288-68.2,40.931-75.278,46.817,8.9-3.33,47.8-27.331,79.555-46.922,50.411-31.1,74.5-45.671,77.662-44.873a1.163,1.163,0,0,1,.736.539c.693,1.2,1.347,2.335-27.925,20.843-17.029,10.767-39.87,24.664-61.96,38.1-32.206,19.6-68.308,41.561-75.95,47.726,9.609-3.841,49.889-28.554,85.791-50.579,57.189-35.087,84.495-51.519,87.842-50.675a1.158,1.158,0,0,1,.732.538c.649,1.124,1.162,2.012-25.226,18.189-15.484,9.492-36.067,21.689-57.858,34.6-38.114,22.583-84.9,50.308-92.48,57.038,9.159-3.41,52.554-29.932,91.165-53.53,57.974-35.433,85.652-52.051,88.76-51.237a1.119,1.119,0,0,1,.706.519c.69,1.2,1.343,2.327-27.452,20.169-16.884,10.461-40.164,24.336-62.678,37.753-40.726,24.271-86.55,51.58-93.3,58.069,9.235-3.231,58.207-33.068,98.031-57.33,58.05-35.368,83.773-50.794,86.594-50.077a1.073,1.073,0,0,1,.673.5c.689,1.194,1.341,2.323-28.946,20.849-17.731,10.845-41.965,25.126-65.4,38.937-39.943,23.539-84.864,50.011-91.951,56.332,9-3.011,54.14-30.758,94.27-55.426,61.047-37.526,90.205-55.1,93.821-54.191a1.2,1.2,0,0,1,.755.552c.658,1.14,1.133,1.963-25.243,17.853-15.53,9.356-36.406,21.525-58.508,34.409-42.188,24.593-94.017,54.806-101.937,62.016,9.386-3.681,54.394-31.046,94.441-55.4,62.528-38.018,92.321-55.847,95.48-55.042a1.1,1.1,0,0,1,.693.512c.628,1.088,1.274,2.209-19.141,14.943,12.958-7.318,20.856-11.172,22.63-10.729a1.231,1.231,0,0,1,.788.575c.688,1.192,1.337,2.316-31.074,22.052-18.973,11.553-44.765,26.723-69.708,41.393-41.034,24.135-87.157,51.262-94.879,57.776,9.457-3.271,55.513-31.626,96.475-56.844,60.252-37.095,97.154-59.544,101.334-58.48a1.224,1.224,0,0,1,.792.577c.746,1.292,1.675,2.9-35.126,25.783-21.369,13.287-49.444,30.025-76.6,46.212-35.939,21.427-72.972,43.505-81.639,50.142,10.568-4.686,51.568-29.742,88.174-52.113,60.386-36.9,97.838-59.552,103.169-59.552a1.23,1.23,0,0,1,.3.033,1.2,1.2,0,0,1,.758.554c.737,1.278,1.574,2.726-33.258,24.2-20.319,12.529-47.518,28.631-73.822,44.2-38.769,22.952-82.338,48.744-89.714,55.064,10.1-3.507,62.71-35.681,105.513-61.859,65.4-40,96.584-58.734,100.1-57.86a1.157,1.157,0,0,1,.726.535c.76,1.315,1.618,2.806-30.5,22.223,15.1-8.651,24.081-13.131,26.069-12.634a1.235,1.235,0,0,1,.8.581c.724,1.253,1.408,2.437-33.109,23.569-20.156,12.341-47.216,28.335-73.386,43.8-38.2,22.58-80.957,47.852-90.872,55.3,10.793-5,50.321-29.125,88.688-52.545,66.977-40.885,111.2-67.574,115.713-66.449a1.226,1.226,0,0,1,.786.574c.721,1.249,1.538,2.664-32.4,23.474-19.882,12.19-46.9,28.1-73.036,43.492-43.254,25.472-91.962,54.155-98.538,60.5,9.518-2.762,66.314-37.434,112.4-65.567,61.206-37.364,88.329-53.666,91.231-52.915a1.071,1.071,0,0,1,.678.5c.735,1.273,1.569,2.716-32.925,24.177-20.123,12.52-47.076,28.621-73.142,44.19-38.593,23.054-81.973,48.967-89.2,55.258,10.128-3.434,63.853-36.2,107.548-62.857,60.65-36.992,87.53-53.129,90.425-52.387a1.08,1.08,0,0,1,.678.5c.739,1.28,1.5,2.6-31.153,22.269-19.127,11.517-45.208,26.591-70.43,41.168-42.19,24.383-89.646,51.81-96.88,58.4,9.931-3.532,63.283-35.954,106.669-62.32,62.659-38.08,90.4-54.7,93.286-53.956a1.073,1.073,0,0,1,.67.5c.711,1.232,1.518,2.63-29.323,21.612-18.1,11.139-43.014,25.824-67.109,40.024-43.334,25.537-92.149,54.3-98.237,60.8,8.325-2.74,54.122-30.8,94.794-55.721,61.163-37.476,98.608-60.169,102.62-59.134a1.189,1.189,0,0,1,.766.56c.67,1.161,1.25,2.164-29.689,20.961-18.178,11.043-43.249,25.785-67.495,40.042-44.309,26.053-94.139,55.353-101.981,62.216,10.175-3.592,63.53-36.1,106.938-62.551,63.635-38.774,91.844-55.681,94.9-54.9a1.092,1.092,0,0,1,.687.507c.7,1.2,1.416,2.452-30.683,22.017-18.82,11.47-44.563,26.575-69.458,41.183-42.191,24.756-89.583,52.564-97.834,59.674,9.646-4.022,52.629-30.248,90.917-53.609,64.165-39.15,103.424-62.825,107.486-61.81a1.2,1.2,0,0,1,.756.553c.707,1.226,1.509,2.615-30.022,21.918-18.472,11.308-43.729,26.129-68.155,40.461-41.663,24.446-88.549,51.958-95.265,58.448,8.509-2.988,51.458-29.358,89.635-52.8,58.507-35.924,94.309-57.652,98.326-56.648a1.2,1.2,0,0,1,.773.564c.686,1.189,1.278,2.215-28.716,20.929-17.505,10.921-41.181,25.189-64.078,38.987-35.713,21.521-75.774,45.661-83.782,52.118,10.273-4,56.433-32.193,94.109-55.2,56.062-34.236,80.933-49.157,83.752-48.445a1.084,1.084,0,0,1,.679.5c.68,1.176,1.266,2.192-28.855,20.57-17.558,10.712-41.234,24.668-64.131,38.164-34.642,20.419-73.451,43.294-82.008,49.811,10.105-4.194,50.513-28.991,86.562-51.111,59.619-36.586,88.095-53.7,91.62-52.826a1.188,1.188,0,0,1,.747.548c.653,1.131,1.217,2.109-24.81,18.042-15.269,9.348-35.6,21.337-57.117,34.03-38.116,22.481-84.98,50.122-91.814,56.638,8.805-3.1,53.807-30.6,90.42-52.98,55.12-33.688,79.586-48.385,82.442-47.652a1.089,1.089,0,0,1,.686.507c.652,1.129,1.123,1.945-22.95,16.635-14.1,8.6-32.92,19.686-52.842,31.418-35.59,20.959-79.267,46.681-86.5,53.143,8.783-3.324,49.452-28.238,82.608-48.55,51.56-31.586,76.185-46.382,79.064-45.651a1.108,1.108,0,0,1,.7.514c.662,1.148,1.235,2.14-25.789,18.854-15.711,9.717-36.9,22.348-57.4,34.563-30.822,18.372-65.348,38.951-73.076,44.958,9.068-3.687,44.1-25.315,75.349-44.614,51.062-31.529,75.49-46.3,78.8-45.455a1.188,1.188,0,0,1,.753.551c.608,1.054,1.048,1.816-19.9,14.913-12.231,7.648-28.59,17.512-45.911,27.957-30.985,18.686-68.934,41.571-75.985,47.8,7.983-3.253,40.071-23.01,68.679-40.625,48.115-29.627,71.124-43.5,74.192-42.721a1.149,1.149,0,0,1,.73.535c.622,1.078,1.16,2.009-21.377,16.3-13.081,8.293-30.924,19.164-48.18,29.679-26.749,16.3-56.608,34.49-64.8,40.811,8.97-4.375,36.76-21.308,61.674-36.49,45.058-27.455,65.038-39.419,67.51-38.8a1.052,1.052,0,0,1,.662.492c.6,1.03.989,1.711-17.214,13.46-10.539,6.8-24.47,15.464-39.22,24.634-22.061,13.716-48.658,30.252-57.363,36.8,8.376-4.444,29.344-17.21,48.253-28.721,41.546-25.295,61.394-37.167,63.8-36.526a1.057,1.057,0,0,1,.664.492c.878,1.521-.956,3.322-47.872,33.948-17.244,11.256-37.976,24.79-45.32,30.386,7.73-3.968,26.828-15.7,42.735-25.479,32.1-19.728,42.375-25.808,44.125-25.357a1.02,1.02,0,0,1,.641.476c.832,1.443-.59,3.018-37.95,29.088-9.5,6.632-19.841,13.845-26.117,18.483,5.216-3.052,12.673-7.58,19.583-11.774,26.168-15.886,32.078-19.248,33.319-18.929a1.053,1.053,0,0,1,.6.452.885.885,0,0,1-.95,1.308c-2.337.643-18.787,10.629-32.052,18.682-23.769,14.429-26.4,15.843-27.318,15.606a.986.986,0,0,1-.579-.436c-.72-1.248-.891-1.544,32.5-24.843,13.1-9.143,28.8-20.1,34.858-25-7.1,3.706-24.259,14.247-39.734,23.756-33.776,20.756-45.33,27.58-47.282,27.089a1.049,1.049,0,0,1-.66-.488c-.9-1.552.967-3.384,48.632-34.5,17.961-11.724,37.918-24.751,44.809-30.04-9.294,4.548-36.785,21.284-59.512,35.121C550.143,2021.349,537.943,2028.565,535.694,2028.566Zm98.6-35.953h0ZM575.92,1859.147c-12.976,7.562-26.932,15.609-40.637,23.511-43.892,25.307-93.29,53.79-100.178,60.617,8.528-3.31,50.623-29.081,88.062-52C543.223,1878.993,560.9,1868.194,575.92,1859.147Zm67.283-6.364c-9.1,3.85-48.881,28.114-87.457,51.644-18.894,11.524-35.683,21.743-50.117,30.43,12.112-7.061,25.083-14.558,37.829-21.924C586.635,1887.979,635.153,1859.938,643.2,1852.783Zm-97.514-12.08c-7.755,4.514-15.662,9.1-23.486,13.644-37.811,21.941-80.189,46.533-89.072,53.588,9.716-4.407,46.789-27.069,82.763-49.058C526.444,1852.428,536.4,1846.349,545.689,1840.7Zm68.53-51.75c-10.009,3.948-52.609,30.135-90.573,53.472q-16.02,9.847-29.678,18.2c12.463-7.328,25.686-15.036,38.684-22.614C568.9,1816.881,606.263,1795.1,614.219,1788.953ZM505.2,1744.362h0Zm0,0v0Zm0,0v0Zm0,0v0Zm0,0v0Zm-.013-.019.013.019Zm0,0,0,0Zm0,0v0Zm0,0h0Zm0,0h0Z"/><path class="i" d="M598.165,2013.313c-1.006.447-2.01.894-3.046,1.277,9.828-4.168,19.637-9.81,27.673-17.211-9.132,7.654-20.894,13.456-32.482,17.595-5.8,2.088-11.574,3.8-17.037,5.316s-10.633,2.775-15.251,4.117c-1.118-.844-7.537-.937-13.692-1.394-6.159-.412-12.048-1.1-12.307-.9-2.431-.018-4.86-.234-7.317-.407-2.437-.285-4.908-.523-7.355-.969l2.528.426,2.538.323c.845.1,1.684.224,2.528.3l2.532.208-2.532-.208c-.844-.079-1.683-.2-2.528-.3l-2.538-.323-2.528-.426a105.264,105.264,0,0,1-11.631-2.587,98.747,98.747,0,0,1-11.423-4.079,90.044,90.044,0,0,1-10.968-5.581c-1.735-1.116-3.528-2.167-5.188-3.416-.837-.613-1.709-1.186-2.523-1.836l-2.441-1.958c-12.891-10.7-22.66-25.673-28.634-42.3a141.923,141.923,0,0,1-5.554-19.217c-.879-3.953-1.57-8.226-2.177-12.643-.519-4.432-1-9.009-1.158-13.618a173.978,173.978,0,0,1,.824-26.629,181.64,181.64,0,0,1,3.291-20.168c.689-2.861,1.317-5.716,2.116-8.575-.334,1.184-.585,2.072-.794,2.812l-.488,1.939c-.283,1.2-.637,2.38-1.165,4.785a189.388,189.388,0,0,1,8.221-33.586c-.463.856-.786,1.341-1.237,2.133a35.679,35.679,0,0,0-1.933,4.013l.991-2.624,1.063-2.6a71.532,71.532,0,0,1,3.463-10.543c1.567-4,3.368-7.964,4.447-10.536-.085.626.384-.033,1.1-1.275l2.615-4.75-.962,1.222c3.466-6.468,7.439-13.332,11.676-19.794a178.24,178.24,0,0,1,12.943-17.509,20.307,20.307,0,0,1,2.838-2.846c2.647-3.224,5.464-6.293,8.348-9.3-.35.994,7.868-6.68,3.752-2.406.783-.864,1.615-1.674,2.464-2.467s1.689-1.6,2.566-2.363c1.778-1.487,3.542-3,5.4-4.345,1.813-1.421,3.715-2.669,5.555-3.978l2.806-1.841,1.384-.927,1.4-.866a74.692,74.692,0,0,1,10.716-4.786,61.113,61.113,0,0,1,11.392-2.753,48.122,48.122,0,0,1,11.683,0,50.785,50.785,0,0,1,11.491,2.982l2.793,1.136,2.728,1.327c.922.416,1.8.941,2.682,1.441.877.518,1.794.964,2.639,1.546l2.581,1.664c.858.561,1.672,1.194,2.512,1.787,1.7,1.163,3.259,2.526,4.889,3.795a138.118,138.118,0,0,1,17.387,17.832l-.347-.762c7.393,8.992,14,17.166,20.42,29.974,2.739,4.327,5.685,9.789,8.226,14.6l3.442,6.518a41.093,41.093,0,0,0,2.511,4.168c.575,1.37,1.107,2.636,1.606,3.826l1.385,3.371c.9,2.116,1.66,4.045,2.451,5.957,1.559,3.831,3.048,7.664,4.9,13.209-.153-1.528.808,1.147,1.655,3.506s1.544,4.37.991,1.569a59.928,59.928,0,0,0-1.814-7.652c-.567-1.822-1.065-3.507-1.827-6.741l-.118.246a280.154,280.154,0,0,0-16.99-43.24,197.529,197.529,0,0,0-25.529-39.756,140.481,140.481,0,0,0-11.614-11.631,100.141,100.141,0,0,0-13.666-10.291,67.456,67.456,0,0,0-16.062-7.359,52.626,52.626,0,0,0-17.791-2.224A62.694,62.694,0,0,0,525,1727.8a87.147,87.147,0,0,0-16.607,8.484,132.807,132.807,0,0,0-25.5,22.155c-1.6,1.824-3.084,3.287-4.475,4.719-1.419,1.408-2.813,2.726-4.209,4.253-2.957,3.618-5.9,7.633-8.91,11.837-2.932,4.255-5.924,8.706-8.691,13.379a212.97,212.97,0,0,0-14.63,28.96c.164-.358.324-.7.428-.933-4.306,10.245-7.641,17.944-10.521,28.475a11.411,11.411,0,0,1-.411,2.433,16.455,16.455,0,0,0-.956,3.17l-.788,3.248c-.253,1.247-.535,2.641-.842,4.151a191.785,191.785,0,0,0-2.9,22.175,203.518,203.518,0,0,0-.35,22.689c.078,1.595.15,3.079.216,4.421l.257,3.573c.066,1.032.12,1.894.162,2.558s.081,1.13.076,1.371c.132,1.122.268,2.285.408,3.471.537,5.71,1.248,11.465,2.254,17.167a166.2,166.2,0,0,0,3.949,16.8,126.291,126.291,0,0,0,5.837,15.722,97.31,97.31,0,0,0,7.628,13.835l2.1,2.643c.7.9,1.487,1.74,2.215,2.594,1.443,1.717,2.981,3.245,4.3,4.534a14.874,14.874,0,0,0,2.655,2.974c.856.778,1.765,1.623,3.279,3.138a45.16,45.16,0,0,0,8.432,8.663c.892.706,1.452.984,1.5.883s-.413-.586-1.425-1.582c.882.7,1.8,1.339,2.73,1.97l2.756,1.913,2.814,1.776,1.395.885,1.425.81,2.815,1.6c.943.506,1.895.971,2.827,1.45,1.853.984,3.735,1.783,5.545,2.585.845.364,1.7.684,2.568.986l2.583.927c1.722.619,3.49,1.1,5.246,1.659a26.659,26.659,0,0,1,6.052,2.284c1.956.444,3.273.761,4.276,1.023,1.007.243,1.7.408,2.409.606l2.473.677c1.053.273,2.455.541,4.519.943.955.456,6.221,1,11.521,1.186,5.307.136,10.629-.087,11.808-.037-.455.027-.91.075-1.365.083,4.827.038,8.858.181,12.875.112l3.023-.058c1.014-.032,2.035-.114,3.082-.183,2.1-.119,4.27-.4,6.623-.763a123.232,123.232,0,0,0,38.726-12.6,99.061,99.061,0,0,0,17.029-11.34,89.946,89.946,0,0,0,13.568-14.1c-.29-.545-3.343,4.431-4.164,4.112a99.8,99.8,0,0,0,21.189-38.552c.409-1.264.885-2.666,1.32-3.9s.749-2.3.975-2.875a13.806,13.806,0,0,0,.691-3.522,11.317,11.317,0,0,1,.329-2.62l.573-.373a38.807,38.807,0,0,1,1.015-6.078,35.481,35.481,0,0,0,.878-5.87,13.885,13.885,0,0,1,.076-3.657c.579-.052.223-5.153.7-4.889l-.038-.05c.066-1.011.042-1.729.152-2.961-.033-.479-.138-1.961-.277-3.946-.208-1.976-.37-4.454-.7-6.909-.151-1.228-.3-2.456-.445-3.622l-.488-3.233c-.282-1.95-.549-3.4-.652-3.87l.006-.9c-.255-2.638-.746-3.723-.7-2.176-.076-1.085-.217-2.16-.323-3.24l.078.369-.341-3.22c-.022-.6.118-1.3.478-.416a40.146,40.146,0,0,1-.981-5.654c.429,5.1.728,11.447.616,16.791-.374-2.161-.438-6.119-.8-8.464a126.555,126.555,0,0,0-1-13.165c-.184-.981-.906-1.546-1.056-3.811.2-1.158-.467-2.5-.573-4.394a46.978,46.978,0,0,1,1.312,6.317c.4-.452-.633-5.3-.886-7.012a30.1,30.1,0,0,1-.71-3.072c-.323-1.453-.705-3.128-1.065-4.405.708,1.022-.185-2.156-.348-3.737-.382-1.75-.84-2.814-.82-2.069-.616-.437,1.423,6.972.318,4.679a39.493,39.493,0,0,0-1.329-5.881c-.27.047.111,1.3-.438.182-.484-2.034-1.385-4.08-1.426-5.312a13.546,13.546,0,0,1,.509,1.792c-.363-1.309,1.1,2.106,2.359,5.5,1.312,3.376,2.449,6.718,1.983,5.007-.01.238-.325-.571-.8-1.884s-1.141-3.117-1.793-4.9a60.817,60.817,0,0,0-2.4-6.091c.3,1.633-.787-1.008-.428.669l.817,1.747c.517,2.288.3,3.334-.092,2.588-.5-1.892.712.658,1.8,3.335,1.129,2.665,2.153,5.448,1.64,3.838l.179,1.364a36.888,36.888,0,0,1-1.631-6.507c-.259.055-.819-1.781-1.343-3.287l-.1-.556c-.563-1.55-1.1-3.781-1.167-2.655,1.284,4.639.205,3.285-.9,1.918s-2.246-2.747-1.111,1.726c-.22-1.947.012-1.675.442-.424s1.057,3.48,1.571,5.45a23.887,23.887,0,0,0,.568,5.139c.611,2.457.546,1.406.8,1.843.2,1.394.62,4.05.244,3.768.757,1.858.433,3.127.974,5.429.55,2.016.134-.169.581,1.252.133.772.278,1.62.429,2.5.131.881.266,1.791.4,2.681.268,1.779.506,3.481.628,4.722-.158,1-.272,3.962-1.017,1.915-.59-4.686.984,1.683.208-3.178-.338,2.192-.853-4.275-1.515-5.07a51.926,51.926,0,0,0,.906,7.331l.015-.538a53.37,53.37,0,0,1,1.026,9.475c-.295-.567-.351.544-.592-1.151.11,1.063.171,2.131.259,3.2.111.4.225.809.2-.118a15.737,15.737,0,0,1,.287,4.181c-.115.183.458,4.414.849,8.569.2,2.076.333,4.131.455,5.636a19.7,19.7,0,0,1,.078,2.325c-.039,2.322-.394,2.87-.262,5.134a22.409,22.409,0,0,0,.069-3.312c-.02-1.009-.044-2.184-.07-3.43-.043-1.246-.129-2.563-.2-3.856-.118-2.588-.4-5.078-.529-6.733-.177-1.653-.292-2.469-.219-1.709-.047.99.592,7.507.78,14,.118,3.247.076,6.482-.006,8.992a27.015,27.015,0,0,1-.419,4.641c-.172,1.707-.348,3.773-.052,3.4-.444,2.871-.383-.922-.849,1.1.033.051.15-.151.046.5l-.6,1.915c-.237,4.513-1.994,10.875-2.805,15.516.029-.693.059-1.444.1-2.4.071-.945.153-2.1.345-3.594l.244-.484c.024-.434.458-2.87.172-2.854-.739,2.757-1.19,5.145-1.74,8.1-.206.519-.436,1.125-.612,1.524.035,0,.073-.04.107-.018-.415.9-.425.787-.411.421a.989.989,0,0,1,.005-.213,8.2,8.2,0,0,0-.986,2.386c-.174.577-.353,1.228-.538,1.93l-.663,2.2c-.232.766-.452,1.567-.71,2.358l-.834,2.338a27.274,27.274,0,0,1-1.822,4.086c-.543,1.428.067.189-.617,1.966l-1.881,3.205c-.606,1-1.246,1.926-1.851,2.877s-1.257,1.878-1.952,2.85-1.393,2.013-2.252,3.081c-.764,1.6-.75,1.8.77.267-.859,1.094-1.645,2.244-2.573,3.281.852-1.733-.531-.343-1.864.987-.335.332-.661.666-.961.939a7.049,7.049,0,0,1-.774.6c-.386.236-.462.086.061-.813a53.878,53.878,0,0,0-4.107,4.257,1.373,1.373,0,0,1-.271.778,9.331,9.331,0,0,1-1.846,2.026,54.522,54.522,0,0,1-5.166,3.762c-.782.268.1-.576-.149-.663a14.313,14.313,0,0,1-3.893,2.674,27.374,27.374,0,0,0-3.976,2.151c-.61.436-1.409.92-2.253,1.422l-2.517,1.547c-1.639.931-2.939,1.748-2.9,2C598.127,2014.21,597.953,2013.825,598.165,2013.313Z"/><g class="j"><path class="i" d="M546.186,1904.316c10.226,36.221,8.135,71.58-14.043,90.3-22.224,18.724-64.49,20.815-89.4,2-24.906-18.77-32.359-58.491-21.406-95.758s40.312-72.08,66.262-70.99C513.555,1831.009,536.006,1868.094,546.186,1904.316Z"/></g><g class="j"><path class="i" d="M640.806,1833.255c-10.933,36.015-31.77,64.657-60.546,68.457-28.814,3.775-65.529-17.269-76.347-46.548-10.842-29.241,4.313-66.706,33.642-92.174s72.831-38.94,94.092-24.02C652.883,1753.928,651.778,1797.265,640.806,1833.255Z"/></g><path class="k" d="M669,1771.716c15.288,15.02,1.341,59.544-1.274,101.52s6.1,81.337-9.186,111.243c-15.289,29.973-54.649,50.558-85.092,41.573-30.442-8.918-51.9-47.34-80.6-77.246-28.766-29.973-64.707-51.431-70.608-78.856-5.967-27.425,18.172-60.818,46.871-75.771s62.092-11.6,101.051-17.165C609.123,1771.381,653.647,1756.763,669,1771.716Z"/><ellipse class="l" cx="166.998" cy="9.628" rx="166.998" ry="9.628" transform="translate(458.409 2049.343)"/><path class="m" d="M598.86,1767.385c4.367-4.864,15.671-5.293,19.5-1.624l0-.005c7.779,7.614,16.5,15.026,24.843,22.584,5.476,3.941,15.173,10.907,12.506,17.483-2.289,5.648-5.067,17.5-13.72,13.412-10.719-5.064-36.54-25.521-43.563-33.5C595.261,1782.137,592.365,1774.619,598.86,1767.385Z"/><path class="n" d="M701.742,1813.911l10.378,1.209,3.62.16c1.129.026,5.757-5.449,12.928-.758,2.666,1.745-3.368,3.16-2.246,3.8,2.883,1.65,2.9,1.164,5.491,1.482,1.676.2,5.657,1.492,6.011,4.239.076.092-2.039,5.292-8.631,4.993-10.421-.473-12.383-4.483-14.909-4.575-.87-.032-1.632-.262-2.547-.385-4.318-.639-9.965.926-15.636,1.664Z"/><path class="m" d="M640.135,1797.4c7.355-4.037,11.946-1.235,16.45.378,11.053,4.695,28.3,10.6,55.468,14.816q-1.008,22.119-5.685,29.241c-25.012-.359-41.823-7.61-55.779-14.747,0,0-17.4-8.748-18.725-17.695C631.669,1802.726,634.793,1800.334,640.135,1797.4Z"/><path class="o" d="M619.909,2047.771l8.6.035q3.066-15.546,5.374-28.354l-12.814.495Q620.578,2032.213,619.909,2047.771Z"/><path class="p" d="M617.011,1979.719h0c.744,4.685-1.986,25.418,1.274,57.934l13.932-.243c14.612-38.975,15.5-66.85,8.969-78.368a9.963,9.963,0,0,0-1.676-2.071C629.588,1947.788,616.236,1962.833,617.011,1979.719Z"/><path class="q" d="M616.6,2047.4a16.931,16.931,0,0,0-1.233,5.317,39.624,39.624,0,0,0,.82,6.222l44.538-.777q1.637-5.77-2.112-6.163t-6.229-.717l-20.862-8.867a.788.788,0,0,0-1.035.417l-.009.021-1.274,3.251a14.209,14.209,0,0,1-5.6,1.714,12.753,12.753,0,0,1-4.882-1.336,1.581,1.581,0,0,0-2.082.815C616.63,2047.329,616.617,2047.363,616.6,2047.4Z"/><path class="p" d="M632.891,1862.4l-34.633-21.814c-27.709,35.508,14.657,115.92,15.613,117.935,2.758,5.815,7.128,10.425,10.845,12.467s16.262,7.824,19.308-3.044S642.546,1916.384,632.891,1862.4Z"/><path class="o" d="M571.588,2057.5l9.133-2.53,7.327-28.723-10.725-.139Z"/><path class="r" d="M599.255,1935.313c-13.956-1.345-20.194,5.139-21.038,15.7-2.218,37.456-3.3,74.443-7.734,88.916l21.348-1.817c4.335-12.779,15.222-44.107,25.106-78.574C620.13,1944.206,610.967,1936.441,599.255,1935.313Z"/><path class="q" d="M570.92,2048.852a16.95,16.95,0,0,0-1.46,5.26,39.5,39.5,0,0,0,.553,6.25l44.53,1.135q1.882-5.694-1.846-6.248t-6.192-.983l-20.463-9.755a.79.79,0,0,0-1.053.373l-.009.021-1.412,3.193a14.21,14.21,0,0,1-5.669,1.472,12.751,12.751,0,0,1-4.821-1.545,1.58,1.58,0,0,0-2.113.724C570.948,2048.783,570.934,2048.818,570.92,2048.852Z"/><path class="r" d="M578.72,1866.212c-4.622,19.133-2.762,53.553-.027,87.46.937,11.269,5.761,18.538,17.392,18.483,10.141-.048,20.022-1.059,22.138-15.429,5.716-40.669,9.555-85.233,3.492-109.195Z"/><path class="s" d="M591.589,1770.953l22.763-.509-4.464-27.187c6.224,3.565,12.3,5.219,15.115,4.425,7.062-1.989,7.134-27.989,1.41-38.111s-34.079-13.955-35.05,6.374c-.337,7.056,2.762,13.276,7.247,18.308Z"/><path class="t" d="M632.878,1698.128c-5.57,3.725-34.2-8.687-40.937,12.255-4.456,11.945.141,22.052,6.536,25.7,1.646-2.041,3.079-4.015,4.354-5.9a5.694,5.694,0,0,1,5.847-9.5c2.552-4.306,4.678-7.593,7.729-9.39C630.442,1712.175,634.287,1705.843,632.878,1698.128Z"/><path class="u" d="M609.888,1743.257l-5.617-6.53.2,23.919,7.874-2.9Z"/><path class="v" d="M578.338,1809.684c-1.9-21.874,12.72-57.078,15.3-57.3l23.565-2.061a127.462,127.462,0,0,0,5.648,20.878c6.9,20.161,17.326,48.864,20.6,58.361,3.9,11.315,2.99,26.126-.1,34.521-6.345,17.258-53.336,5.9-68.421,10.265C562.6,1843.97,580.07,1829.658,578.338,1809.684Z"/><path class="m" d="M643.244,1828.947c-4.689-3.282-14.152-10.715-14.575-17.493.224-4.031,1.533-6.4,3.761-8.184a133.3,133.3,0,0,0-23.084-15.652c-2.486-1.269,13.926,28.3,29.742,42.474a61.222,61.222,0,0,0,5.726,4.392,42.974,42.974,0,0,0-1.358-4.926Z"/><path class="w" d="M733.753,1769.483l-47.263,13.8a2.353,2.353,0,0,0-1.353,3.022l19.266,65.974a2.436,2.436,0,0,0,2.406,1.88l28.882-84.178A2.058,2.058,0,0,0,733.753,1769.483Z"/><path class="w" d="M706.809,1854.163a1.844,1.844,0,0,0,.365-.062l47.259-13.8a2.358,2.358,0,0,0,1.354-3.023L736.521,1771.3a2.8,2.8,0,0,0-.83-1.316Z"/><path class="x" d="M732.862,1773.272l-43.308,12.738a2.094,2.094,0,0,0-1.266,2.67l16.955,57.65a2.1,2.1,0,0,0,2.511,1.56l1.342-.4,25.368-73.933A1.877,1.877,0,0,0,732.862,1773.272Z"/><path class="x" d="M709.1,1847.495l41.965-12.341a2.1,2.1,0,0,0,1.268-2.672l-16.956-57.65a2.346,2.346,0,0,0-.909-1.27Z"/><path class="y" d="M731.841,1843.669a1.367,1.367,0,1,1-1.7-.926A1.366,1.366,0,0,1,731.841,1843.669Z"/><path class="z" d="M710.436,1764.207a1.86,1.86,0,0,0-.818-.289l-48.972-5.058a2.356,2.356,0,0,0-2.4,2.287l-7.065,68.364a2.76,2.76,0,0,0,.364,1.7Z"/><path class="z" d="M653.06,1832.241l48.976,5.062a2.356,2.356,0,0,0,2.393-2.289l7.065-68.365a2.557,2.557,0,0,0-1.058-2.442l-58.889,67A2.018,2.018,0,0,0,653.06,1832.241Z"/><path class="aa" d="M653.962,1828.019l52.018-59.185-44.461-4.509a2.1,2.1,0,0,0-2.181,2l-6.063,59.783A2.28,2.28,0,0,0,653.962,1828.019Z"/><path class="aa" d="M655.011,1828.5l44.912,4.558a2.1,2.1,0,0,0,2.183-1.995l6.062-59.786a2.1,2.1,0,0,0-1.735-2.394l-.453-.046-52.018,59.185A1.811,1.811,0,0,0,655.011,1828.5Z"/><path class="ab" d="M683.139,1763.665a1.664,1.664,0,1,1,1.489,1.826A1.663,1.663,0,0,1,683.139,1763.665Z"/><path class="y" d="M703.86,1819.406a1.659,1.659,0,1,1,1.051-2.1A1.66,1.66,0,0,1,703.86,1819.406Z"/><path class="z" d="M743.625,1795.785,692.917,1807.9a3.488,3.488,0,0,0,.093,4.672L706,1826.389a3.487,3.487,0,0,0,4.925.15l32.572-30.619C743.541,1795.877,743.582,1795.83,743.625,1795.785Z"/><path class="z" d="M743.646,1791l-12.988-13.819a3.487,3.487,0,0,0-4.927-.152l-32.569,30.616c-.086.082-.168.168-.245.255l50.708-12.113A3.478,3.478,0,0,0,743.646,1791Z"/><path class="ab" d="M737.644,1789.694a.378.378,0,0,1-.534-.018l-5.509-5.87a.38.38,0,0,1,.016-.534h0a.378.378,0,0,1,.533.018l5.509,5.871a.376.376,0,0,1-.015.533Z"/><path class="aa" d="M741.4,1796.172l-16.007-17.057-30.057,28.206,45.858-10.955Z"/><path class="aa" d="M695.334,1807.32l-.078.074,16.007,17.057,29.929-28.086Z"/><path class="ab" d="M701.663,1819.486a1.659,1.659,0,1,1,1.051-2.1A1.66,1.66,0,0,1,701.663,1819.486Z"/><path class="ac" d="M758.048,1778.37a.317.317,0,1,1,.268-.36A.316.316,0,0,1,758.048,1778.37Z"/><path class="ad" d="M706.509,1752.261l9.591,65.421a4.2,4.2,0,0,0,4.752,3.536l42.014-6.159a2.4,2.4,0,0,0,2.026-2.723l-10.109-68.958a2.4,2.4,0,0,0-2.723-2.027l-42.016,6.16A4.2,4.2,0,0,0,706.509,1752.261Z"/><circle class="ae" cx="4.247" cy="4.247" r="4.247" transform="translate(732.476 1777.036)"/><path class="y" d="M717.151,1806.015a1.256,1.256,0,1,1-1.4-1.09A1.256,1.256,0,0,1,717.151,1806.015Z"/><path class="y" d="M700.572,1775.278a.287.287,0,0,1-.091.394l-5.171,3.224a.286.286,0,0,1-.393-.093h0a.284.284,0,0,1,.09-.392l5.171-3.224a.286.286,0,0,1,.394.091Z"/><path class="af" d="M705.871,1771.645l1.34,39.1.235.377a2.642,2.642,0,0,0,3.635.838l12.171-7.6a2.637,2.637,0,0,0,.841-3.632l-17.923-28.694A2.56,2.56,0,0,0,705.871,1771.645Z"/><path class="af" d="M702.538,1771.194l-12.172,7.6a2.637,2.637,0,0,0-.841,3.634l17.686,28.317-1.34-39.1A2.637,2.637,0,0,0,702.538,1771.194Z"/><path class="aa" d="M690.948,1782.844l16.21,26-1.211-35.354Z"/><path class="aa" d="M707.147,1808.854l.335.538,15.023-9.365-16.546-26.541-.024.015Z"/><path class="ag" d="M641.681,1883.735H768.249v-81.2H641.9Z"/><path class="ah" d="M689.652,1814.434l10.443-.34,3.6-.377c1.121-.141,4.888-6.24,12.674-2.661,2.9,1.331-2.863,3.623-1.659,4.092,3.1,1.205,3.044.721,5.65.653,1.688-.044,5.815.64,6.572,3.3.088.08-1.234,5.536-7.8,6.215-10.376,1.074-12.91-2.6-15.421-2.32-.865.1-1.653-.017-2.576,0-4.366.008-9.719,2.391-15.218,3.96Z"/><path class="ai" d="M600.831,1765.779c5.755-3.1,16.537.324,18.9,5.073l0,0c4.743,9.8,10.444,19.725,15.733,29.659,3.819,5.562,10.586,15.4,5.851,20.685-4.066,4.539-10.691,14.752-17.45,7.976-8.372-8.393-25.745-36.382-29.655-46.266C592.451,1778.442,592.271,1770.388,600.831,1765.779Z"/><path class="ai" d="M626.282,1807.219c6.676-5.081,11.631-2.989,16.324-2.061,11.626,3.009,29.558,6.3,57.05,6.449q2.275,22.026-1.3,29.761c-24.79,3.344-42.488-1.341-57.346-6.335,0,0-18.5-6.077-21.136-14.73C618.7,1813.737,621.432,1810.909,626.282,1807.219Z"/><path class="aj" d="M641.681,1797.966H768.249v11.178l-135.1,9.27Z"/><path class="ak" d="M641.9,1786.706H767.8l4.894,15.827H637.232Z"/></g></svg>