<?xml version="1.0" encoding="utf-8"?>
<!-- Generator: Adobe Illustrator 24.1.2, SVG Export Plug-In . SVG Version: 6.00 Build 0)  -->
<svg version="1.1" id="Layer_1" xmlns="http://www.w3.org/2000/svg" xmlns:xlink="http://www.w3.org/1999/xlink" x="0px" y="0px"
	 viewBox="0 0 421.65 119.76" style="enable-background:new 0 0 421.65 119.76;" xml:space="preserve">
<style type="text/css">
	.st0{fill:#E2061B;}
	.st1{fill:#FFFFFF;}
	.st2{fill:#FFD500;}
	.st3{fill:#BDBCBC;}
	.st4{fill:#00773D;}
	.st5{fill:#E30613;}
	.st6{fill:#0069B4;}
	.st7{fill:#13100D;}
</style>
<g>
	<g>
		<path class="st0" d="M131.37,11.86h26.82v5.08h-21.1v12.92h17.65v5.03h-17.65v18.7h-5.73V11.86z"/>
		<path class="st0" d="M163.56,39.74V11.92h5.73v26.94c0,6.66,3.86,10.23,10.05,10.23c6.37,0,10.05-3.57,9.94-10.11V11.92H195v27.41
			c0.06,9.4-6.37,14.96-15.78,14.96C170.63,54.29,163.56,49.73,163.56,39.74z"/>
		<path class="st0" d="M203.05,11.86h5.67l20.34,31.85h0.11V11.86h5.5v41.73h-5.61l-20.45-32.14h-0.12v32.14h-5.44V11.86z"/>
		<path class="st0" d="M243.08,11.92h15.72c8.77,0,15.49,5.38,15.49,14.37v12.62c0,9.29-7.25,14.67-15.43,14.67h-15.78V11.92z
			 M258.56,48.5c5.55,0,9.99-3.33,9.99-9.23V26.12c0-5.49-4.09-9.18-10.16-9.18h-9.58V48.5H258.56z"/>
		<path class="st0" d="M292.75,11.86h5.31l15.37,41.73h-6.02l-3.85-11.05H286.9l-3.97,11.05h-5.72L292.75,11.86z M301.92,37.69
			l-6.6-18.93h-0.06l-6.72,18.93H301.92z"/>
		<path class="st0" d="M326.52,64.81v-3.1c1.81,0.64,3.86,1.11,5.26,1.11c2.4,0,3.68-0.53,3.68-2.04c0-1.46-2.11-1.81-4.74-2.05
			l-1.17-0.12l0.76-4.38c-7.83-0.76-13.96-5.61-13.96-14.02V26.29c0-9.23,7.01-14.96,16.13-14.96c8.18,0,15.19,4.67,15.19,12.91
			v1.81h-5.44v-1.17c0-5.55-4.5-8.47-9.87-8.47c-5.38,0-10.29,3.27-10.29,9.7v13.62c0,5.9,4.56,9.47,10.58,9.47
			c5.32,0,9.58-2.92,9.58-8.47v-0.76h5.44v1.46c0,8.24-6.66,12.8-14.73,12.92l-0.29,1.69c3.74,0.06,7.07,1.05,7.07,4.56
			c0,2.92-2.63,5.32-7.48,5.32C330.14,65.92,328.21,65.45,326.52,64.81z"/>
		<path class="st0" d="M365.67,11.86h5.32l15.37,41.73h-6.02l-3.85-11.05h-16.66l-3.97,11.05h-5.73L365.67,11.86z M357.48,7.19
			c0.64-3.63,2.75-6.43,6.25-6.43c3.27,0,6.02,1.93,9.17,1.93c1.64,0,2.16-1.23,2.57-2.69l3.45,0.76c-0.64,3.74-2.69,6.49-6.02,6.49
			c-3.21,0-6.19-1.99-9.29-1.99c-1.29,0-1.81,0.76-2.57,2.69L357.48,7.19z M374.84,37.69l-6.6-18.93h-0.06l-6.72,18.93H374.84z"/>
		<path class="st0" d="M389.27,40.21V26.29c0-9.58,7.66-15.13,16.13-15.13c8.94,0,16.25,5.49,16.25,14.67v13.32
			c0,9.58-7.6,15.2-16.07,15.2C396.75,54.35,389.27,49.38,389.27,40.21z M415.98,39.5V25.6c0-5.9-4.56-9.35-10.7-9.35
			c-5.37,0-10.29,3.33-10.29,9.88v13.62c0,5.9,4.56,9.47,10.58,9.47C410.89,49.2,415.98,46.05,415.98,39.5z"/>
		<g>
			<path class="st0" d="M131.37,71.99h22.91c8.24,0,12.21,4.56,12.21,10.46c0,4.03-1.98,8.12-6.49,9.7v0.12
				c4.68,1.23,7.19,5.26,7.19,9.53c0,6.37-4.56,11.86-12.56,11.86h-23.26V71.99z M150.41,88.3c2.98,0,4.38-1.81,4.38-4.03
				c0-2.05-1.52-3.51-4.38-3.51h-7.3v7.54H150.41z M150.65,104.66c2.98,0,4.5-1.87,4.5-4.15c0-2.28-1.64-3.74-4.67-3.74h-7.36v7.89
				H150.65z"/>
			<path class="st0" d="M171.8,71.99h31.56v9.29h-19.81v6.84h16.19v9.23h-16.19v6.96h19.87v9.35H171.8V71.99z"/>
			<path class="st0" d="M208.9,71.99h11.39l14.73,21.1h0.12v-21.1h10.7v41.67h-10.75l-15.37-22.44h-0.12v22.44H208.9V71.99z"/>
			<path class="st0" d="M251.78,71.99h31.32v9.29h-19.58v7.36h15.84v9.29h-15.84v15.72h-11.75V71.99z"/>
			<path class="st0" d="M287.31,71.99h11.74v41.67h-11.74V71.99z"/>
			<path class="st0" d="M303.9,98.99V86.6c0-10.4,8.65-15.31,17.88-15.31c8.18,0,17.47,3.91,17.47,13.79v2.22h-11.05v-1.17
				c0-3.8-3.21-5.49-6.14-5.49c-3.5,0-6.37,1.87-6.37,6.02v12.22c0,3.85,2.51,6.13,6.43,6.13c2.92,0,6.08-1.69,6.08-5.55v-1.11
				h11.05v2.34c0,9.76-9.06,13.68-17.24,13.68C312.79,114.36,303.9,109.98,303.9,98.99z"/>
			<path class="st0" d="M354.45,71.94h13.27l14.14,41.73h-11.92l-2.22-7.25h-14.38l-2.28,7.25h-11.05L354.45,71.94z M365.02,97.53
				l-4.44-14.32h-0.11l-4.44,14.32H365.02z"/>
		</g>
	</g>
	<g>
		<path class="st1" d="M57.01,119.76c-9.86,0-19.5-3.93-26.62-10.73c-7.4-7.07-11.67-16.91-11.88-27.13
			c-0.12-5.95,1.11-11.92,3.64-17.3c-1.41,0.93-2.79,1.91-4.18,2.88c0.29-2.23,0.58-4.47,0.87-6.7c-2.8-0.24-5.6-0.48-8.4-0.72
			c4.06-2.72,8.16-5.35,12.5-7.6c2.64-1.37,5.33-2.65,8.11-3.71c2.75-1.06,5.43-2.27,8.45-2.11c0.04,0,0.09-0.01,0.13-0.03
			c1.97-0.97,3.99-1.73,5.92-2.79c0.76-0.42,3.84-0.82,4.2-1.99c0.04-0.13-0.04-0.27-0.18-0.31c-1.18-0.37-1.22-2.18-1.25-3.22
			c0-0.09-0.05-0.17-0.13-0.21c-0.6-0.39-0.83-1.05-0.77-1.75c0.01-0.08-0.02-0.17-0.08-0.22c-0.41-0.35-0.48-0.9-0.42-1.41
			c0.01-0.14-0.08-0.26-0.21-0.28c-0.03,0-0.05-0.01-0.08-0.02c-0.07-0.01-0.15,0-0.21,0.05c-0.89,0.67-2.18,0.99-3.19,0.37
			c-0.09-0.05-0.2-0.04-0.28,0.01c-0.93,0.64-2.09,1-3.03,0.23c-0.06-0.05-0.14-0.07-0.22-0.06c-0.72,0.13-1.29-0.16-2-0.2
			c-0.42-0.02-0.79,0.09-1.21,0.02c-0.41-0.08-0.75-0.38-1.14-0.46c-0.02,0-0.04-0.01-0.06-0.01c-0.83,0-1.24-0.06-2.05-0.32
			c-0.48-0.15-0.95-0.12-1.4-0.42c-0.49-0.33-0.62-0.7-0.91-1.16c-0.03-0.05-0.08-0.09-0.13-0.11c-0.76-0.31-1.27-0.63-1.7-1.36
			c-0.03-0.05-0.08-0.1-0.14-0.12c-1.4-0.53-2.95-0.61-4.36-1.13c-0.6-0.22-1.11-0.54-1.67-0.83c-0.66-0.35-1.41-0.43-2.14-0.62
			c-1.43-0.37-2.74-0.99-4-1.77c-1.33-0.83-2.28-2.19-3.67-2.83c-1.22-0.56-2.29-1.36-3.25-2.28c-0.94-0.89-2.24-1.2-3.22-2.11
			c-0.55-0.51-0.83-0.88-1.52-1.14c-0.63-0.23-1.24-0.51-1.81-0.87c-1.12-0.69-2.41-1.65-3.04-2.88c-1.5-2.91,3.01-2.29,4.49-2.28
			c3.7,0.03,7.4,0.03,11.09,0.05c6.52,0.03,13.04-0.16,19.53,0.6c3.11,0.36,6.68,1.32,8.4,4.2c0.53,0.89,0.77,1.17,1.74,1.58
			c0.58,0.24,1.09,0.52,1.5,1c0.45,0.52,1.24,2.26,2.12,2.81c0.24,0.15,0.5-0.14,0.34-0.37c-0.4-0.57-0.1-1.28,0.41-1.82
			c0.11-0.12,0.09-0.32-0.06-0.4c-0.42-0.23-0.73-0.63-0.73-1.13c0-0.09-0.05-0.17-0.13-0.22c-0.67-0.39-0.62-1.17-0.82-1.84
			c-0.01-0.04-0.03-0.08-0.06-0.11c-0.55-0.56-1.49-0.69-2.12-1.13c-0.69-0.47-1.18-1.18-1.34-2c-0.03-0.13-0.16-0.22-0.29-0.2
			c-2.06,0.26-1.5-2.55-0.54-3.54c1.24-1.29,3.64-1.57,5.24-0.82c0.06,0.03,0.12,0.03,0.18,0.01c2.13-0.66,3.84,0.35,5.77,1.19
			c0.75,0.33,1.56,0.56,2.38,0.46c0.77-0.1,2.05-0.23,2,0.92c0,0.11,0.06,0.22,0.17,0.26c0.3,0.11,0.59,0.26,0.83,0.47
			c0.37,0.34,0.31,0.69,0.54,1.03c0.31,0.48,0.89,0.7,1.01,1.49c0.01,0.09,0.07,0.16,0.16,0.19c1.19,0.47,3.49,2.13,2.66,3.61
			c-0.05,0.09-0.04,0.21,0.03,0.29c0.53,0.62,1.23,1.59,0.99,2.4c-0.08,0.26-0.01,0.55,0.19,0.74l0,0c0.07,0.07,0.18,0.1,0.27,0.06
			c0.77-0.3,0.84-1.54,1.3-2.22c0.73-1.08,1.85-1.43,2.72-2.31c0.97-0.97,1.49-2.09,2.71-2.84c1.14-0.7,2.47-1.17,3.75-1.53
			c5.31-1.5,11.37-0.92,16.82-0.89c5.32,0.03,10.65-0.03,15.98-0.06c0.82,0,1.95-0.21,2.73,0.07c1.54,0.56,0.72,2.09-0.12,2.84
			c-0.75,0.68-1.63,1.25-2.55,1.67c-0.45,0.2-0.95,0.32-1.35,0.62c-0.6,0.45-1.04,1.14-1.64,1.62c-0.49,0.4-1.01,0.71-1.45,1.17
			c-0.5,0.53-0.92,1.11-1.48,1.59c-1.02,0.86-2.44,1.28-3.3,2.27c-2,2.32-4.94,3.41-7.86,4.02c-0.06,0.01-0.11,0.04-0.14,0.09
			c-0.88,1.09-2.1,1.71-3.46,2.03c-0.62,0.15-1.25,0.15-1.87,0.27c-0.64,0.12-1.09,0.47-1.67,0.71c-0.06,0.03-0.11,0.07-0.14,0.14
			c-0.14,0.31-0.34,0.58-0.62,0.76c-0.06,0.04-0.1,0.1-0.12,0.16c-0.37,1.53-1.97,1.98-3.35,2.26c-0.52,0.11-1.04,0.04-1.56,0.11
			c-0.75,0.09-1.39,0.26-2.12,0.01c-0.08-0.03-0.17-0.01-0.25,0.04c-0.5,0.37-1.24,0.61-1.85,0.54c-0.06-0.01-0.12,0.01-0.18,0.04
			c-0.87,0.61-2.18,0.66-3.11,0.16c-0.09-0.05-0.2-0.04-0.28,0.02c-0.58,0.42-1.32,0.57-2.03,0.46c-0.13-0.02-0.25,0.06-0.29,0.19
			c-0.12,0.37-0.35,0.65-0.53,1c-0.21,0.43-0.23,0.96-0.41,1.44c-0.24,0.66-0.65,1.26-1.01,1.86l-0.17-0.13
			C67.22,40.7,67,41.5,66.49,41.9c-0.14,0.11-0.13,0.33,0.03,0.42c0.83,0.47,1.78,0.72,2.58,1.26c0.84,0.56,1.48,1.13,2.42,1.56
			c1.11,0.51,2.26,1.1,3.45,1.42c0.03,0.01,0.05,0.01,0.08,0.01c2.7-0.13,5.53,1.22,8,2.14c2.95,1.11,5.82,2.45,8.61,3.91
			c4.22,2.2,8.2,4.78,12.14,7.44c-2.81,0.24-5.61,0.48-8.42,0.72c0.28,2.23,0.56,4.46,0.84,6.69c-1.37-0.96-2.74-1.93-4.13-2.85
			c4.35,9.27,4.79,20.16,1.31,29.77c-3.47,9.6-10.79,17.47-20.03,21.75C68.26,118.51,62.64,119.76,57.01,119.76z"/>
		<g>
			<path class="st3" d="M52.82,49.41c1.31-0.17,2.62-0.27,3.93-0.29c2.49-0.04,4.98,0.2,7.42,0.73c0.14-1.09-0.25-1.12-0.7-2.08
				c-0.2-0.43-0.33-0.91-0.41-1.37c-0.15-0.84-0.28-0.67-0.92-1.09c-0.62-0.4-0.58-0.73-1.4-0.6c-0.44,0.07-0.87-0.03-1.27,0.11
				c-0.27,0.1-0.41,0.63-0.73,0.37c-0.25-0.2-0.01-0.76,0.1-0.95c-1.1-0.47-0.73,0.27-1.09,0.58c-0.01,0.01-0.02,0.02-0.03,0.03
				c-0.05,0.04-0.12,0.07-0.2,0.08c-0.2,0.04-0.24-0.14-0.34-0.29c-0.06-0.08-0.1-0.15-0.15-0.21c-0.01-0.01-0.02-0.03-0.03-0.04
				c-0.03-0.04-0.07-0.08-0.1-0.11c-0.01-0.01-0.02-0.02-0.03-0.03c-0.03-0.03-0.06-0.05-0.1-0.07c-0.01-0.01-0.02-0.01-0.03-0.02
				c-0.16-0.07-0.35-0.06-0.74-0.04c0.01,0,0.01,0.01,0.02,0.02c0.07,0.06,0.15,0.16,0.23,0.29c0,0,0,0.01,0.01,0.01
				c0.04,0.06,0.07,0.13,0.1,0.19c0.01,0.02,0.02,0.04,0.03,0.07c0.02,0.05,0.04,0.1,0.06,0.16c0.01,0.04,0.02,0.08,0.03,0.12
				c0.01,0.04,0.02,0.08,0.03,0.11c0.01,0.05,0.01,0.09,0.01,0.13c0,0.03,0.01,0.05,0,0.08c0,0.05-0.02,0.09-0.04,0.13
				c-0.01,0.01-0.01,0.03-0.01,0.04c-0.03,0.05-0.07,0.09-0.12,0.12c-0.17,0.08-1.11-0.61-1.41-0.61c-0.3,0-0.51,0.24-0.87,0.17
				c-0.35-0.07-0.65-0.03-0.99,0.05c-0.43,0.11-1.48,0.26-1.6,0.56c-0.34,0.85-1.58,2.9-1.05,3.79
				C50.68,49.96,52.32,49.47,52.82,49.41z"/>
			<path class="st3" d="M72.74,48.04c0.23-0.05,0.45-0.11,0.67-0.16c-0.63-0.31-1.28-0.6-1.92-0.88c-0.07-0.03-0.13-0.05-0.2-0.08
				c-0.04-0.02-0.08-0.03-0.13-0.05c-0.46-0.19-0.93-0.38-1.4-0.56c0,0,0,0,0,0.01c-0.13,0.53-0.38,0.1-0.63-0.02
				c-0.14-0.06-0.29-0.14-0.44-0.22c-0.22-0.11-0.45-0.23-0.68-0.34l0,0c-0.51-0.23-1.06-0.41-1.61-0.34
				c0.61,0.84,2.34,1.65,1.87,2.93c-0.31,0.86-0.66-0.05-0.89-0.29c-0.61-0.62-1.49-0.84-2.14-1.49c-0.03,0.17-0.05,0.35-0.05,0.52
				c0,0.01,0,0.01,0,0.02c0,0.16,0,0.32,0.01,0.48c0.03,0.97,0.19,1.9-0.7,2.37c0,0,0.18,0.04,0.24,0.03
				c1.67-0.35,3.33-0.76,4.99-1.18c1-0.25,1.99-0.5,2.99-0.74C72.72,48.05,72.73,48.05,72.74,48.04z"/>
			<path class="st3" d="M56.45,118.1C56.45,118.1,56.45,118.1,56.45,118.1c-0.03-0.03-0.07-0.07-0.11-0.1l-6.07-5.65
				c-0.21-0.12-0.65-0.2-0.81-0.24c-0.8-0.2-1.6-0.44-2.38-0.7c-2.96-1-5.77-2.44-8.31-4.26c-5.07-3.62-9.03-8.71-11.28-14.51
				c-5.05-13.06-0.77-28.29,10.29-36.85c-3.56,0.09-7.33,2.57-10.31,4.3c-1.02,0.6-1.52,1.02-2.13,2.04
				c-0.5,0.83-0.97,1.69-1.4,2.56c-0.94,1.91-1.72,3.9-2.32,5.94c-2.12,7.2-2,15.01,0.37,22.14c4.19,12.63,15.23,22.28,28.32,24.72
				C52.33,117.86,54.39,118.06,56.45,118.1z"/>
			<path class="st3" d="M50.25,49.9c-1.32-0.21-0.68-1.69-1.1-2.52c-0.8,0.71-1.59,0.97-1.93,2.11c0.51,0.12,2.58,0.59,2.58,0.59
				C49.9,50.05,50.15,49.94,50.25,49.9z"/>
			<path class="st3" d="M88.7,100.38c7.36-12.02,7.13-27.67-0.58-39.48c-3.32-2.01-7.66-4.44-11.21-5.09
				c11.02,8.57,15.28,23.77,10.25,36.8c-2.24,5.8-6.19,10.89-11.25,14.51c-2.54,1.82-5.34,3.26-8.3,4.27
				c-0.65,0.22-1.31,0.42-1.98,0.6c-1.14,0.31-1.56,0.67-2.4,1.51c-1.61,1.6-3.29,3.12-5.02,4.59
				C70.62,117.72,82.23,110.96,88.7,100.38z"/>
			<path class="st3" d="M46.33,49.27c0.14,0.04,0.28,0.08,0.42,0.11c-0.03-0.11-0.05-0.23-0.07-0.34c-0.01-0.04-0.02-0.08-0.02-0.11
				c-0.01-0.13-0.01-0.26-0.01-0.38c0-0.02,0-0.04,0-0.06c0.05-0.86,0.51-1.64,0.96-2.39c-0.65-0.12-1.43-0.05-1.99,0.21
				c-0.03,0.01-0.06,0.03-0.09,0.05c-0.45,0.31-1.21,1.44-0.91-0.1c0,0,0,0,0,0c-1.3,0.47-2.57,1-3.8,1.62
				c0.89,0.2,1.78,0.43,2.66,0.66C44.43,48.79,45.38,49.03,46.33,49.27z"/>
		</g>
		<g>
			<path class="st4" d="M53.55,55.21c0-0.03,0.02-0.12-0.15-0.21c-0.11-0.06-0.28-0.11-0.48-0.14l-0.11-0.02l-0.08,0.52l0.17,0.03
				C53.18,55.42,53.52,55.43,53.55,55.21z"/>
			<path class="st4" d="M38.57,55.19c4.33,1.03,8.7,1.93,13.1,2.61c1.89,0.29,3.67,0.49,5.48,0.5v-1.98c-0.03,0-0.06,0-0.09,0
				c-0.01,0-0.02,0-0.02,0c-0.37,0-0.69-0.09-0.92-0.27c-0.23-0.18-0.36-0.44-0.37-0.73l-0.02-1.58l0.67-0.01l0.01,1.48
				c0,0.18,0.04,0.32,0.13,0.41c0.1,0.11,0.28,0.17,0.52,0.17c0.03,0,0.06,0,0.1-0.01v-4.25c-3.18-0.02-6.3-0.56-9.48-1.28
				c-2.19-0.5-4.37-1.07-6.55-1.61c-1.83-0.46-3.18-0.43-4.99,0.11c-6.69,1.98-14.39,5.94-20.8,10.07c1.8,0.15,3.6,0.3,5.4,0.45
				c-0.2,1.56-0.4,3.13-0.61,4.69c2.9-1.97,5.88-3.84,8.96-5.51C31.64,57.05,35.48,54.63,38.57,55.19z M52.37,53.25l0.52,0.08
				c0.37,0.06,0.64,0.14,0.83,0.26c0.27,0.16,0.39,0.4,0.34,0.69c-0.02,0.14-0.1,0.27-0.22,0.36c0.26,0.16,0.4,0.43,0.36,0.69
				c-0.06,0.39-0.42,0.61-0.97,0.61c-0.12,0-0.24-0.01-0.37-0.03l-0.87-0.13L52.37,53.25z M50.23,52.84l0.65,0.13l-0.49,2.5
				l-0.65-0.13L50.23,52.84z M46.75,52.1l0.6,0.13c0.26,0.06,0.59,0.13,0.85,0.3l0,0c0.27,0.19,0.41,0.48,0.35,0.76
				c-0.07,0.33-0.37,0.54-0.76,0.57l0.81,1.24l-0.84-0.18l-0.69-1.11l-0.2,0.92l-0.65-0.14L46.75,52.1z M42.29,52.75l0.33-1.54
				l0.65,0.14l-0.31,1.45c-0.04,0.18-0.03,0.32,0.03,0.43c0.07,0.13,0.23,0.23,0.47,0.28c0.43,0.09,0.66-0.04,0.75-0.44l0.31-1.45
				l0.65,0.14l-0.33,1.54c-0.1,0.49-0.52,0.77-1.08,0.77c-0.13,0-0.26-0.01-0.4-0.04c-0.37-0.08-0.67-0.24-0.86-0.47
				C42.3,53.31,42.23,53.03,42.29,52.75z M39.66,50.68l0.66,0.11l-0.32,1.99l0.96,0.15l-0.08,0.52l-1.61-0.26L39.66,50.68z
				 M35.96,50.43l0.59,0.01c0.66,0.01,1.42,0.11,1.41,0.81c0,0.28-0.15,0.49-0.41,0.63c-0.21,0.11-0.5,0.16-0.85,0.16l-0.1,0
				l-0.01,0.96l-0.67-0.01L35.96,50.43z M31.21,51.99l0.24,0.47l-1.17,0.61l0.17,0.33l1.13-0.59l0.25,0.47l-1.13,0.59l0.28,0.53
				l1.17-0.61l0.25,0.47l-1.75,0.92l-1.18-2.25L31.21,51.99z"/>
			<path class="st4" d="M53.28,54.35c0.09-0.02,0.13-0.07,0.15-0.17c0.02-0.12-0.01-0.24-0.48-0.32l-0.07,0.48
				C53,54.37,53.17,54.39,53.28,54.35z"/>
			<path class="st4" d="M47.92,53.17c0.01-0.07,0.01-0.15-0.15-0.25c-0.11-0.07-0.27-0.12-0.49-0.17l-0.12,0.55
				C47.78,53.43,47.89,53.3,47.92,53.17z"/>
			<path class="st4" d="M37.32,51.24c0-0.11-0.07-0.26-0.7-0.27l-0.01,0.55c0.15,0,0.37,0,0.52-0.06
				C37.3,51.4,37.32,51.31,37.32,51.24z"/>
		</g>
		<g>
			<path class="st5" d="M98.93,58.8c-6.3-4.06-13.15-7.82-20.41-9.83c-1.17-0.32-2.64-0.89-3.86-0.69c-1.14,0.19-2.26,0.5-3.38,0.79
				c-3.38,0.88-6.76,1.72-10.22,2.2c-1.41,0.19-2.79,0.27-4.17,0.24v4.25c0.05,0.01,0.1,0.01,0.16,0.01c0.44,0,0.64-0.19,0.63-0.59
				l-0.01-1.48l0.66-0.01l0.02,1.58c0.01,0.61-0.51,1.02-1.29,1.03c-0.01,0-0.02,0-0.02,0c-0.05,0-0.09-0.01-0.14-0.01v1.99
				c1.19,0.02,2.38-0.04,3.63-0.2c3.1-0.41,6.18-0.98,9.24-1.61c1.89-0.39,3.79-0.8,5.67-1.24c1.59-0.38,3.34,0.28,4.81,0.85
				c4.93,1.92,9.51,4.89,13.87,7.85c-0.2-1.56-0.4-3.13-0.59-4.69C95.32,59.1,97.13,58.95,98.93,58.8z M61.09,56.01
				c-0.07,0.01-0.14,0.01-0.2,0.01c-0.48,0-0.88-0.23-1-0.61l-0.04-0.13l0.68-0.19l0.02,0.16c0.01,0.06,0.04,0.1,0.09,0.14
				c0.1,0.08,0.26,0.11,0.43,0.09c0.25-0.03,0.43-0.2,0.41-0.37c-0.02-0.14-0.21-0.2-0.49-0.24l-0.23-0.04
				c-0.26-0.04-0.81-0.14-0.87-0.6c-0.03-0.22,0.07-0.43,0.28-0.59c0.18-0.14,0.42-0.23,0.69-0.27c0.39-0.05,0.74,0.05,0.97,0.27
				l0.12,0.12l-0.53,0.32l-0.07-0.07c-0.11-0.1-0.24-0.14-0.43-0.11c-0.11,0.01-0.21,0.05-0.29,0.11c-0.04,0.03-0.09,0.08-0.09,0.13
				c0,0.02,0.04,0.11,0.37,0.15l0.24,0.03c0.43,0.06,0.92,0.2,0.99,0.69C62.18,55.5,61.74,55.92,61.09,56.01z M67.25,54.97
				C67.13,54.99,67.01,55,66.89,55c-0.23,0-0.44-0.05-0.62-0.14c-0.26-0.14-0.44-0.37-0.49-0.66l-0.29-1.55l0.65-0.12l0.27,1.45
				c0.03,0.18,0.1,0.3,0.2,0.38c0.12,0.09,0.3,0.12,0.54,0.07c0.43-0.08,0.59-0.3,0.52-0.69L67.4,52.3l0.65-0.12l0.29,1.55
				C68.46,54.33,68.02,54.82,67.25,54.97z M70.68,54.28l-0.66,0.11l-0.47-2.75l2.66,1.37l-0.26-1.53l0.66-0.11l0.47,2.73l-2.66-1.37
				L70.68,54.28z M76.72,53.28c-0.22,0.2-0.54,0.32-0.92,0.34c-0.05,0-0.09,0-0.14,0c-0.7,0-1.19-0.37-1.23-0.94l-0.1-1.57
				l0.66-0.04l0.1,1.48c0.03,0.4,0.24,0.57,0.67,0.54c0.44-0.03,0.62-0.22,0.6-0.62L76.27,51l0.66-0.04l0.1,1.57
				C77.05,52.82,76.94,53.08,76.72,53.28z M81.85,54.67l-0.66-0.2l0.08-1.35l-1.31,1.14l-0.43-1.68l-0.7,1.15l-0.66-0.2l1.59-2.48
				l0.54,2.13l1.65-1.45L81.85,54.67z"/>
			<g>
				<path class="st5" d="M52.45,100.56c-1.02-0.39-1.04,0.01-1.81,0.78c-0.85,0.85-1.69,1.69-2.54,2.54
					c-0.19,0.19-0.38,0.38-0.57,0.57c-0.07,0.07,1.53,1.91,1.69,2.1c1.52,1.78,3.13,3.48,4.82,5.1c0.79,0.75,1.59,1.48,2.41,2.19
					c0.36,0.31,0.52,0.63,0.8,0.61v-13.01C55.61,101.43,53.97,101.14,52.45,100.56z"/>
				<path class="st5" d="M45.1,93.19c0,0-0.46-1.21-0.62-1.86c-0.28-1.17-0.34-2.38-0.25-3.58c0.2-2.45,0.9-4.86,2.3-6.89
					c0.67-0.97,1.46-1.85,2.39-2.57c0.7-0.55,1.98-1.51,3.09-1.51c1.48-1.09,3.38-1.43,5.24-1.39V70.4
					c-3.43-0.01-6.84-0.53-10.19-1.23c-3.4-0.71-6.84-1.53-10.15-2.59c-2,9.84,0.6,20.83,5.23,29.57
					C43.05,95.24,45.1,93.19,45.1,93.19z"/>
			</g>
		</g>
		<g>
			<path class="st6" d="M69.14,76.6l-0.3,0.3l1.57,1.57l0.4-0.4c0.77-0.77,1.11-1.22,0.36-1.97C70.48,75.4,69.72,76.02,69.14,76.6z"
				/>
			<path class="st6" d="M68.75,74.22c-0.74-0.74-1.19-0.31-2.04,0.54l1.44,1.44C68.7,75.63,69.42,74.89,68.75,74.22z"/>
			<path class="st6" d="M78.09,69.21c-0.09-0.88-0.26-1.8-0.44-2.67c-1.36,0.43-2.74,0.83-4.13,1.18c-0.98,0.25-3.16,0.83-3.16,0.83
				c-0.17,0.1-4.61,4.61-6.74,6.74c-6.29,6.29-12.58,12.58-18.87,18.87c-0.73,0.73-1.67,1.67-2.4,2.4c0,0,0.5,0.9,0.78,1.38
				c1.23,2.14,2.61,4.19,4.11,6.15c1.43-1.43,2.91-2.82,4.29-4.29c4.24-4.23,8.47-8.47,12.71-12.71c3.03-3.02,6.05-6.05,9.08-9.07
				c1.34-1.34,2.68-2.68,4.02-4.02c0.28-0.28,1.05-1.05,1.05-1.05C78.3,71.48,78.3,71.22,78.09,69.21z M51.75,98.93
				c-0.8,0.8-1.89,1.01-2.86,0.48l0.4-1.07c0.18,0.14,0.51,0.2,0.75,0.21c0.35,0,0.7-0.17,0.98-0.45c0.5-0.5,0.49-1.05-0.01-1.56
				c-0.3-0.3-0.78-0.34-1.54-0.04l-0.7,0.24c-0.98,0.33-1.82,0.43-2.59-0.35c-0.83-0.83-0.61-2.11,0.32-3.04
				c0.65-0.65,1.43-0.77,2.28-0.57l-0.32,1.03c-0.48-0.1-0.87-0.03-1.22,0.32c-0.38,0.38-0.52,1.04-0.17,1.38
				c0.24,0.24,0.67,0.36,1.36,0.13l0.6-0.22c0.95-0.36,2-0.71,2.92,0.21C52.88,96.57,52.82,97.86,51.75,98.93z M56.72,93.77
				c-0.26,0.26-0.67,0.26-0.93,0c-0.26-0.26-0.26-0.67,0-0.93c0.26-0.26,0.67-0.26,0.93,0C56.98,93.1,56.98,93.51,56.72,93.77z
				 M60.38,90.01l-5.23-5.23l0.93-0.93l4.41,4.41l1.81-1.81l0.82,0.82L60.38,90.01z M66.57,83.92c-0.26,0.26-0.67,0.26-0.93,0
				c-0.26-0.26-0.26-0.67,0-0.93c0.26-0.26,0.67-0.26,0.93,0C66.83,83.25,66.83,83.66,66.57,83.92z M71.64,78.75l-1.4,1.4
				l-5.23-5.23l1.05-1.05c1.5-1.5,2.27-1.89,3.56-0.6c0.57,0.57,0.56,1.2,0.31,1.69c0.38-0.23,1.2-0.69,2.17,0.28
				C73.24,76.4,73.13,77.26,71.64,78.75z M76.86,73.63c-0.26,0.26-0.67,0.26-0.93,0c-0.26-0.26-0.26-0.67,0-0.93
				c0.26-0.26,0.67-0.26,0.93,0C77.12,72.96,77.12,73.37,76.86,73.63z"/>
		</g>
		<g>
			<path class="st2" d="M62.31,86.44l0.82,0.82l-2.75,2.75l-5.23-5.23l0.93-0.93l4.41,4.41L62.31,86.44z M49,95.41l-0.6,0.22
				c-0.68,0.23-1.12,0.11-1.36-0.13c-0.35-0.35-0.21-1,0.17-1.38c0.35-0.35,0.75-0.42,1.22-0.32l0.32-1.03
				c-0.85-0.2-1.62-0.09-2.28,0.57c-0.93,0.93-1.15,2.21-0.32,3.04c0.78,0.78,1.62,0.68,2.59,0.35l0.7-0.24
				c0.76-0.3,1.25-0.26,1.54,0.04c0.51,0.51,0.51,1.06,0.01,1.56c-0.28,0.28-0.63,0.45-0.98,0.45c-0.24,0-0.57-0.06-0.75-0.21
				l-0.4,1.07c0.97,0.53,2.06,0.32,2.86-0.48c1.07-1.07,1.12-2.35,0.17-3.31C51,94.7,49.95,95.04,49,95.41z M55.79,92.84
				c-0.26,0.26-0.26,0.67,0,0.93c0.26,0.26,0.67,0.26,0.93,0c0.26-0.26,0.26-0.67,0-0.93C56.46,92.58,56.05,92.58,55.79,92.84z
				 M65.64,82.99c-0.26,0.26-0.26,0.67,0,0.93c0.26,0.26,0.67,0.26,0.93,0s0.26-0.67,0-0.93C66.32,82.73,65.9,82.73,65.64,82.99z
				 M75.93,72.7c-0.26,0.26-0.26,0.67,0,0.93c0.26,0.26,0.67,0.26,0.93,0c0.26-0.26,0.26-0.67,0-0.93
				C76.6,72.44,76.19,72.44,75.93,72.7z M72.1,75.26c1.14,1.14,1.04,2-0.46,3.49l-1.4,1.4l-5.23-5.23l1.05-1.05
				c1.5-1.5,2.27-1.89,3.56-0.6c0.57,0.57,0.56,1.2,0.31,1.69C70.31,74.75,71.13,74.29,72.1,75.26z M66.71,74.76l1.44,1.44
				c0.56-0.57,1.28-1.3,0.61-1.97C68.01,73.48,67.56,73.91,66.71,74.76z M71.17,76.1c-0.7-0.7-1.46-0.08-2.03,0.5l-0.3,0.3
				l1.57,1.57l0.4-0.4C71.59,77.3,71.93,76.85,71.17,76.1z"/>
			<g>
				<path class="st2" d="M47.11,91.18c-1.05-0.5-1.95-1.7-2.4-2.74c-0.02,1.42,0.19,3.05,0.79,4.36
					C46.05,92.24,46.56,91.73,47.11,91.18z"/>
				<path class="st2" d="M46.8,90.45c0.03,0.02,0.06,0.05,0.09,0.07l0.54,0.34c0.38-0.36,1.46-1.46,1.84-1.83
					c-1.31-3.62-0.77-8.94,2.12-11.7c-3.19,1.28-5.92,5.09-6.39,8.44C44.74,87.61,45.36,89.26,46.8,90.45z"/>
				<path class="st2" d="M61.65,76.64c-3.43-0.68-5.2,1.98-5.02,5.02L61.65,76.64z"/>
				<path class="st2" d="M59.41,76.15c-1.06-0.48-3.47-0.27-4.58-0.07c-1.6,0.3-2.92,1.2-3.89,2.5c-2.1,2.83-2.26,6.79-1.32,10.09
					c2.2-2.2,4.4-4.41,6.6-6.61C55.73,79.41,57.05,76.92,59.41,76.15z"/>
				<path class="st2" d="M59.53,92.44c-1.69,1.7-3.39,3.39-5.08,5.09c1.21,0,2.46-0.26,3.53-0.86
					C59.78,95.66,60.44,94.31,59.53,92.44z"/>
				<path class="st2" d="M65.27,97.41c1.48-3.08-0.01-6.36-1.78-8.94c-1.2,1.2-2.4,2.41-3.59,3.61c1.31,2.31,1.73,7.43-0.98,8.81
					C61.1,100.81,64.32,99.38,65.27,97.41z"/>
				<path class="st2" d="M58.21,100.7c2.25-0.7,2.34-3.63,2.1-5.58c-1.31,1.95-3.26,2.73-5.45,2.87c-0.96,0.06-0.98,0.11-1.64,0.77
					c-0.39,0.39-0.77,0.77-1.16,1.16C54.17,100.52,55.97,101.39,58.21,100.7z"/>
				<path class="st2" d="M65.84,97.27c1.18-0.53,2.14-2.11,2.65-3.13c0.97-1.94,1.14-3.81,0.3-5.83c-0.42-1.01-0.95-2.02-1.71-2.82
					c-0.45-0.47-0.35-0.27-0.35-0.27c-0.78,0.79-2.12,2.12-2.9,2.91C65.78,90.46,67.12,94.33,65.84,97.27z"/>
				<path class="st2" d="M68.75,83.2c-0.55,0.55-1.1,1.1-1.64,1.64c1.35,1.32,2.42,3.31,2.65,5.2C70.3,88.21,69.68,84.87,68.75,83.2
					z"/>
			</g>
			<g>
				<path class="st2" d="M67.89,48.21c0.14-0.38,0.03-0.76-0.2-1.08C67.21,47.47,67.79,47.78,67.89,48.21z"/>
				<path class="st2" d="M47.05,49.04c0.11-0.44,0.32-0.78,0.63-1.11C47.1,47.08,46.99,48.64,47.05,49.04z"/>
				<path class="st2" d="M60.59,43.57c-1.38,0.98,0.97,0.46,1.06,0.49c0.24,0.09,0.38,0.61,0.65,0.81c0.28,0.21,0.79,0.18,0.98,0.44
					c0.42,0.56,0.35,1.51,0.61,2.17c0.53,1.34,1.33-0.22,0.41-0.15c0.11-0.23,0.24-0.42,0.42-0.61c-0.73,0.25-0.69-0.41-0.07-0.59
					c-0.31-0.39-0.11-0.68,0.29-0.59c0.18,0.04,0.61,0.56,0.76,0.71c0.23,0.22,1.74,1.68,1.3,0.39c-0.44,0.41-0.86-0.07-0.37-0.46
					c-0.24-0.08-0.53,0.26-0.73,0.03c-0.18-0.21,0.18-0.39,0.15-0.58c-0.13-0.68-0.42-0.76,0.59-0.61c0.37,0.05,1.44,0.54,1.61,0.1
					c0.17-0.43-0.36-0.75-0.7-0.89c-0.04,1.19-0.62-0.04-0.81-0.22c0.08,0.3-0.11,0.8-0.49,0.56c-0.14-0.09,0.04-0.44-0.03-0.54
					c-0.15-0.24-0.27-0.39-0.49-0.56c-0.76-0.59-1.24-0.89-1.75-1.8c-0.9-0.02-1.31,0.16-1.88,0.83c-0.35,0.4-0.57,1.45-1.12,0.73
					C61.16,43.68,60.9,44.22,60.59,43.57z"/>
				<path class="st2" d="M63.84,41.21c-0.26-0.3-0.84-0.22-1.14,0.1C63.08,41.18,63.45,41.28,63.84,41.21z"/>
				<path class="st2" d="M64.55,49.58c0.32-0.33,0.45-0.77,0.34-1.22c-0.18-0.01-0.34,0.02-0.49,0.13
					C64.67,48.79,64.6,49.2,64.55,49.58z"/>
				<path class="st2" d="M68.85,45.11c-0.51-0.03,0.56,0.83,0.61,0.88C69.43,45.7,69.2,45.13,68.85,45.11z"/>
				<path class="st2" d="M50,49.26c-0.06-0.38,0.09-0.73,0.14-1.1C49.36,47.97,49.61,48.97,50,49.26z"/>
				<path class="st2" d="M62.78,40.36c-0.04,0.11-0.07,0.22-0.02,0.36c0.35-0.11,0.99,0.12,0.97-0.36
					C63.71,39.81,63,40.12,62.78,40.36z"/>
				<path class="st2" d="M44.97,46.62c0.2-0.32,0.44-0.63,0.78-0.8c-0.01-0.16-0.08-0.33-0.14-0.47
					C45.22,45.62,44.87,46.13,44.97,46.62z"/>
				<path class="st2" d="M84.24,19.65c-0.64,0.01-0.82,0.12-1.44,0.44c-0.39,0.2-1.02,0.26-1.46,0.24c0.85,0.82,2.84,1.47,3.99,1.59
					c2.64,0.49,6.37-0.32,7.89-2.74c-0.85,0.29-1.87,0.24-2.76,0.2c-0.83-0.04-2.69-0.84-3.29-0.33
					C86.32,19.79,85.26,19.64,84.24,19.65z"/>
				<path class="st2" d="M78.24,21.92c-0.56,0.85,3.11,1.95,3.82,2.01c1.67,0.16,3.38-0.14,4.63-1.36
					c-1.65-0.07-3.13-0.45-4.64-1.14c-0.33-0.15-0.68-0.32-0.96-0.55c-0.39-0.32-0.61-0.08-1.07,0.07c-0.3,0.1-0.85,0.06-1.1,0.2
					C78.7,21.29,78.47,21.74,78.24,21.92z"/>
				<path class="st2" d="M40.75,16.06c-2.52-1.83-9.18-2.06-12.17-2.2c-6.28-0.3-9.29,0-15.73-0.07c1.37,2.6,3.46,3.2,6.27,3.02
					c1.33-0.09,2.63-0.29,3.92-0.61c0.57-0.14,1.13-0.24,1.69-0.41c0.64-0.2,1.01,0.31,0.27,0.47c-0.71,0.15-1.68,0.06-1.26,0.91
					c0.18,0.37,0.89,0.77,1.27,0.88c1.1,0.35,2.33,0.25,3.4-0.16c0.63-0.24,1.24-0.51,1.85-0.8c0.27-0.13,1.18-0.6,0.92,0.13
					c-0.09,0.25-1.51,0.75-1.76,0.86c-0.61,0.26-1.25,0.44-1.88,0.63c1.54,1.08,3.92,0.19,5.4-0.55c0.24-0.12,1.14-0.79,1.36-0.77
					c0.68,0.09-0.01,0.61-0.29,0.8c-0.9,0.61-2.02,0.95-3.02,1.34c1.27,1.48,3.44,0.48,4.8-0.34c0.86-0.52,1.32-0.26,0.34,0.41
					c-0.67,0.46-1.47,0.78-2.2,1.15c1.51,1.15,3.49-0.6,5-0.83c0.04,0.85-2.34,1.36-2.93,1.66c0.9,1.75,3.53-0.59,4.64-0.19
					c-0.24,1.02-2.55,1.21-3.39,1.32c1.27,0.99,3,0.48,4.42,0.27c1.26-0.19,0.46,0.43-0.32,0.61c-0.83,0.19-1.64,0.22-2.49,0.24
					c0.64,1.4,2.67,1.17,3.86,0.83c0.31-0.09,0.62-0.27,0.94-0.27c0.53,0,0.04,0.5-0.2,0.59c-0.73,0.27-1.52,0.5-2.31,0.48
					c0.33,0.76,1.48,1.05,2.23,1.05c0.74,0,1.63-0.83,2.3-0.49c-0.17,0.65-1.21,0.79-1.75,1c0.57,0.93,1.82,0.92,2.73,0.54
					c0.48-0.2,0.82-0.76,1.11-0.16c0.33,0.68,0.8,0.34,1.24,0.71c0.43,0.35-0.47,0.48-0.71,0.41c-0.3-0.09-0.79-0.7-0.99-0.65
					c-0.98,0.26-1.78,0.77-2.83,0.33c-0.5-0.21-0.64-0.62-1.02-0.91c-0.33-0.25-0.82-0.26-1.33-0.43c-0.5-0.17-1.06-0.48-1.32-0.95
					c-0.31-0.56-0.54-0.49-1.17-0.65c-1.07-0.27-2.02,0.43-3.1,0.7c-1.09,0.27-2.09,0.38-3.21,0.47c1.51,1.6,4.28,0.73,6.08,0.26
					c0.3-0.08,0.96-0.48,1.1-0.06c0.14,0.4-0.79,0.6-1.06,0.68c-1.01,0.31-2.09,0.42-3.13,0.58c1.23,0.58,2.12,0.4,3.44,0.26
					c0.31-0.03,0.56-0.26,0.86-0.26c0.33,0,0.72,0.33,0.25,0.49c-0.63,0.22-1.26,0.36-1.92,0.49c0.98,1.23,2.1,0.54,3.29,0.37
					c0.64-0.09,1,0.19,0.25,0.53c-0.51,0.23-1.06,0.47-1.63,0.49c0.51,1.16,2.04,1.01,2.92,0.45c1.01-0.64,0.8-0.38,1.85-0.01
					c0.68,0.23,1.42,0.17,2.03-0.19c0.31-0.19,0.42-0.66,0.86-0.48c0.32,0.13,0.65,0.1,0.99,0.12c0.45,0.03,0.01,0.45-0.22,0.49
					c-0.3,0.06-0.57-0.06-0.86-0.01c-0.53,0.08-0.92,0.66-1.59,0.73c-0.59,0.06-1.19-0.01-1.73-0.26c-0.83-0.38-0.94,0.25-1.77,0.46
					c-0.68,0.17-1.4,0.23-2.04-0.12c-0.71-0.39-0.8-1.18-1.49-1.35c-0.55-0.14-1.12-0.5-1.39-1.01c-0.27-0.51-1.81-0.13-2.22,0.07
					c-0.52,0.27-1.11,0.54-1.67,0.72c-1.38,0.45-2.67,0.62-4.12,0.51c0.41,0.6,1.3,0.33,1.6,0.74c0.15,0.2,0.1,0.47,0.23,0.81
					c0.1,0.26,0.3,0.43,0.57,0.52c0.85,0.29,1.21-0.42,1.67-0.96c0.4-0.46,0.33,0.32,0.28,0.49c-0.08,0.3-0.45,0.59-0.68,0.76
					c0.66,0.68,1.7-0.15,2.16-0.66c1.01-1.14,0.5,0.53-0.26,1.05c0.8,0.53,1.62,0.01,2.27-0.49c1.08-0.83,0.87,0.08,0.1,0.71
					c0.71,0.6,1.82-0.14,2.35-0.67c0.21-0.21,1.11-0.73,0.68-0.04c-0.15,0.24-0.91,0.9-0.82,1.06c0.4,0.73,1.45,0.03,1.81-0.39
					c0.19-0.23,0.43-0.85,0.72-0.83c0.42,0.03,0.48,0.71,0.86,0.91c1.26,0.67,1.35-0.7,2.2-0.8c0.29-0.04,0.59,0.32,0.92,0.35
					c0.32,0.03,0.71,0.05,1-0.09c0.64-0.31,1.41-0.93,1.89-1.46c0.5-0.54,0.36-1.44,0.63-2.2c-0.53,0.31-1,0.9-1.02-0.07
					c-0.02-0.53,0.49-1.25,0.85-1.61c0.29-0.29,1.47-0.59,1.01-0.19c-0.41,0.35-0.81,0.77-1.04,1.27c0.26-0.13,1.07-0.63,1.24-0.27
					c0.13,0.26-0.3,0.57-0.4,0.84c-0.13,0.36-0.44,0.97-0.35,1.36c0.13,0.57,0.24,0.39,0.77,0.56c0.53,0.17-0.64,0.41-0.78,0.53
					c-0.3,0.24-0.72,0.32-1.05,0.58c-0.71,0.56-1.17,1.38-1.37,2.26c0.59-0.55,1.19-0.48,0.87,0.38c-0.24,0.63-0.39,1.25-0.36,1.92
					c1.42-1.14,0.9,1.02,1.73,1.63c1.09-1.29,2.12-0.93,2.95,0.49c0.24-0.68,0.17-1.63,1.15-0.91c0.5,0.37,0.93,1.2,1.03,1.78
					c1.06-0.43,0.82-2.09,0.56-2.95c-0.09-0.3-0.97-1.27-0.3-1.27c0.54,0,0.8,0.97,0.9,1.34c0.26,0.95,0.39,2.55-0.6,3.14
					c-0.55,0.33-0.67,0.7-1.13,0.05c-0.15-0.21-0.17-0.72-0.35-1.01c-0.14-0.23-0.32-0.45-0.5-0.65c-0.09,0.62-0.39,1.51-1.12,0.97
					c0.09,0.73-0.2,1.54-0.34,2.25c-0.18,0.87,0.61,1.03,1.22,1.28c0.38,0.16,1.26,0.98,1.54,0.76c0.85-0.67,1.04-0.39,1.65,0.46
					c0.66-0.6,0.87-1.34,1.7-0.53c0.35,0.34,1.47-0.72,1.79-0.94c0.7-0.47,1.21-0.73,1.26-1.63c0.04-0.67-0.08-1.32-0.19-1.98
					c-0.06,0.93-0.85,0.18-1.2-0.15c-0.06,0.22-0.26,1.4-0.67,0.96c-0.29-0.31-0.54-0.66-0.59-1.09c-0.08-0.85-0.14-1.63,0.08-2.46
					c0.24-0.88,1.14-1.35,0.59-0.11c-0.28,0.62-0.41,2.1,0.01,2.66c-0.02-0.95,0.92-0.37,1.33-0.05c0.64-1.26,2.4-2.25,3.32-0.54
					c0.63-1.02,1.53-1.11,2.37-0.37c0.4-0.91,0.07-1.5-0.25-2.32c-0.39-1.01,0.3-0.78,1.1-0.41c-0.07-1.24-0.54-2.89-1.69-3.56
					c-0.52-0.3-1.21-0.38-1.79-0.53c-0.38-0.1,0.04-0.41,0.28-0.38c0.26,0.02,0.52,0.09,0.78,0.14c-0.11-0.71-0.47-1.43-0.56-2.1
					c-0.06-0.41-0.37-0.36,0.17-0.58c0.25-0.1,0.66,0.17,0.95,0.13c-0.48-0.68-0.95-1.36-1.54-1.95c-0.78-0.79-0.94-1.11,0.37-1.08
					c-0.38-0.51-1.44-0.95-1.68-1.44c-0.36-0.73,0.98-0.73,1.56-0.8c-0.47-0.65-1.07-1.34-1.81-1.69c-1.32-0.63,0.42-0.94,1-0.97
					c-0.39-0.83-0.97-1.08-1.59-1.66c-0.75-0.7-0.17-1.03,0.73-1.15c-0.76-0.84-1.54-1.51-2.72-1.65c-0.76-0.09-2.08-0.76-0.88-1.46
					c-0.55-0.24-1.11-0.2-1.69-0.28c-0.57-0.07,0.51-1.02,0.73-1.14c-0.56-0.19-1.2-0.28-1.78-0.23c-0.28,0.02-0.7,0.07-0.63-0.33
					c0.04-0.28,0.49-0.26,0.73-0.44c-1.42,0.03-2.68-0.64-3.95-1.19c-0.73-0.32-2.92-1.33-3.59-0.37c-0.13,0.19,0.19,0.7-0.1,0.86
					c-0.33,0.18-0.36-0.3-0.36-0.48c0-0.6-0.76-0.78-1.25-0.87c-0.9-0.16-3.31,0.14-3.08,1.56c0.95-0.62,2.73-0.67,3.48,0.3
					c0.45,0.58,0.58,1.61-0.23,1.97c-0.63,0.28-1.12-0.24-1.71-0.36c0.38,0.75,1.23,1.06,1.96,1.37c0.85,0.36,1.11,0.78,1.51,1.58
					c0.09,0.19,0.06,0.78,0.31,0.69c0.27-0.09,0.68-0.43,0.91-0.34c0.63,0.24,0.21,1.41-0.02,1.82c0.74,0.29,1.57-0.63,1.39,0.8
					c-0.1,0.75-0.68,1.41-1.22,1.89c1.3,0.03,1.91-0.49,2.86-1.22c0.32-0.25,0.59-0.61,0.76,0.1c0.08,0.36-0.02,0.8-0.1,1.15
					c0.78-0.16,1.4-0.71,1.45-1.53c0.08-1.21,1.14,0.54,1.26,0.89c0.17-0.27,0.27-1.44,0.68-1.19c0.37,0.22,0.04,1.09-0.16,1.36
					c-0.19,0.26-0.75,1.04-1.17,0.74c-0.32-0.23,0.23-0.82-0.14-1.2c-0.39,0.79-1.07,1.34-1.93,1.54c-0.31,0.07-0.79,0.21-1.03-0.03
					c-0.19-0.19,0.43-0.74,0.5-1.01c-0.46,0.38-1.46,0.57-1.67,1.1c-0.34,1.21-1.88,2.58-3.21,2.11c-1.44-0.51-1.97-1.66-2.81-2.83
					c-0.39-0.55-0.53-0.86-1.48-1.3c-0.61-0.28-1.23-0.28-1.64-0.85c-0.33-0.44-0.63-1.28-1.08-1.76
					C41.67,16.81,41.3,16.46,40.75,16.06z M53.6,13.28c-0.62-0.14-0.9-0.11-1.52-0.07c-0.39,0.02-0.97-0.04-1.27-0.32
					c-0.33-0.31-0.33-1.22-1-0.88c0.26,0.43,0.66,0.81,0.59,1.34c-0.48-0.04-0.95-0.96-0.91-1.44c0.04-0.56,1.18-0.41,1.57-0.28
					c1.16,0.4,2.21,1.45,3.52,1.25C54.51,13.41,54.01,13.37,53.6,13.28z M60.33,32.9c-0.17,0.14-1.01,1.33-1.01,0.6
					c0-0.79,0.19-2.52,1.36-2.37c0.18,0.19-0.81,0.94-0.83,1.52c0.46-0.32,1.03-0.72,1.61-0.53C61.33,32.64,60.71,32.61,60.33,32.9z
					 M64.75,32.69c-0.05-0.26-0.32-0.95-0.04-1.05c0.29-0.11,0.41,0.44,0.46,0.68c0.09,0.68-0.18,1.97-0.88,1.22
					c-0.24-0.26-0.22-0.73-0.53-1.02c-0.27-0.25-0.56-0.3-0.68-0.68C63.79,31.61,64.2,32.47,64.75,32.69z M63.25,28.3
					c0.26,0.43,0.19,0.86,0.12,1.33c-0.03,0.22-0.36,1.34-0.66,0.74c-0.26-0.52-0.48-0.85-0.9-1.28c-0.3-0.31-0.77-0.19-0.78-0.67
					c0.76-0.06,1.42,0.41,1.85,1C63.07,29.01,62.5,27.73,63.25,28.3z M62.62,25.26c0.32,0.24,0.39,0.9,0.4,1.28
					c0.03,0.23-0.03,0.89-0.38,0.87c-0.13-0.01-0.46-0.68-0.54-0.79c-0.33-0.46-1.5-0.91-1.42-1.4c0.72-0.05,1.32,0.62,1.83,1.05
					C62.55,26.08,62.06,24.84,62.62,25.26z M61.4,21.93c0.18,0.46,0.43,0.98,0.32,1.49c-0.16,0.77-0.69-0.19-0.96-0.4
					c-0.26-0.21-1.58-0.67-0.88-0.88c0.38-0.11,1.07,0.38,1.32,0.61c-0.01-0.46-0.53-0.79-0.24-1.17
					C61.14,21.65,61.3,21.76,61.4,21.93z M59.39,19.17c0.48-0.02,0.83,0.21,1.28,0.34c-0.05-0.33-0.97-1.07-0.48-1.15
					c0.43-0.07,0.82,0.67,0.94,0.95c0.29,1.7-0.8,0.63-1.65,0.26c-0.21-0.09-0.35,0.15-0.51-0.12
					C58.79,19.18,59.2,19.18,59.39,19.17z M57.89,25.7c0.43,0.24,0.83,0.57,1.07,1c0.28-0.62-0.24-0.99-0.16-1.52
					c0.06-0.36,0.73,0.91,0.68,1.35c-0.05,0.29-0.06,1.61-0.62,0.99c-0.45-0.5-0.66-0.97-1.19-1.44
					C57.04,25.53,57.12,25.26,57.89,25.7z M57.54,32.57c0.09,0.27,0.34,0.94,0.13,1.22c-0.38,0.49-0.5-0.11-0.73-0.29
					c-0.62-0.49-1-0.68-1.81-0.75c-0.06-0.79,1.42-0.19,1.83,0c-0.17-0.63-0.68-0.8-1.03-1.27C56.59,30.98,57.25,32.09,57.54,32.57z
					 M54.71,23.32c-0.14,0.51-0.67,0.74-0.78,1.31c0.56-0.15,1.02-0.53,1.65-0.53c0.9,0-0.95,0.71-1.05,0.8
					C52.85,26.42,53.51,23.31,54.71,23.32z M52.81,28.75c0.21-0.58,0.68-1.49,1.39-1.49c0,0.09,0,0.18,0,0.27
					c-0.38,0.39-0.74,0.74-0.93,1.25c0.4-0.18,0.79-0.35,1.22-0.44c0.24-0.05,1.04,0.13,0.6,0.31c-0.61,0.25-1.08,0.16-1.58,0.7
					c-0.2,0.22-0.52,0.88-0.82,0.47C52.54,29.62,52.72,29.01,52.81,28.75z M52.71,32.25c-0.63,0.35-0.89,0.85-1.12,1.52
					c0.47-0.15,1.51-0.79,1.78-0.17c-0.51,0.18-1.02,0.28-1.46,0.62c-0.44,0.34-0.63,0.86-0.8,0.06
					C50.98,33.62,52.31,31.44,52.71,32.25z M51.83,23.63c-0.27,0.76-0.91,1.29-1.09,2.13c0.21-0.08,1.47-0.67,1.43-0.17
					c-0.01,0.12-1.19,0.75-1.42,0.82C49.3,26.86,51.13,22.89,51.83,23.63z"/>
				<path class="st2" d="M20.11,26.53c3.19,1.12,7.14,0.42,10.54-0.6c-0.62-0.2-1.05-0.67-1.49-1.12c-0.18-0.19-0.49-0.73-0.69-0.73
					c-0.29,0-0.59,0.14-0.87,0.2c-1.34,0.29-2.77,0.26-4.14,0.35c-2.74,0.17-4.89-0.04-7.54-0.79C17.16,25,18.5,25.93,20.11,26.53z"
					/>
				<path class="st2" d="M51.12,12.36c-0.11-0.16-0.07-0.29-0.31-0.28c0.06,0.62,1.31,1.22,1.32,0.46
					C51.77,12.68,51.36,12.68,51.12,12.36z"/>
				<path class="st2" d="M92.25,16.54c-0.64-0.06-0.36-0.04-0.78,0.26c-0.29,0.21-0.58,0.52-0.81,0.79c-0.46,0.54-1.3,0.7-1.94,0.91
					c2.41,0.76,5.4,0.3,7.47-1.18c0.47-0.32,0.92-0.65,1.29-1.08C95.88,16.83,93.92,16.71,92.25,16.54z"/>
				<path class="st2" d="M51.52,41.38c0.3,0.08,0.61,0.06,0.92,0C52.12,41.14,51.78,41.07,51.52,41.38z"/>
				<path class="st2" d="M52.64,39.79c-0.06-0.32-0.43-0.39-0.66-0.05C52.19,39.78,52.43,39.82,52.64,39.79z"/>
				<path class="st2" d="M20.15,19.12c1.57,0.13,3.23-0.08,4.76-0.44c-0.72-0.38-1.37-0.77-1.78-1.49c-0.39-0.7-1.44-0.13-2.15-0.02
					c-1.57,0.23-3.11,0.3-4.69,0.16c-0.13,0.26,1.22,1.2,1.64,1.38C18.61,18.99,19.43,19.06,20.15,19.12z"/>
				<path class="st2" d="M52.53,40.89c0.04-0.17,0.09-0.46,0.09-0.64c-0.33-0.18-0.71-0.31-0.81,0.11
					C51.61,40.9,52.12,40.84,52.53,40.89z"/>
				<path class="st2" d="M51.44,41.79c-0.58,0.27-0.92,1.48-1.48,1.9c-0.7,0.53-1.48,0.3-1.61,1.27c-0.18-0.19-0.37-0.32-0.6-0.41
					c0.34,0.99-0.84-0.14-1.35,0.41c-0.64,0.7,0.37,0.77,0.86,0.68c0.42-0.07,1.77-1.09,2.03-0.75c0.22,0.28-0.42,0.6-0.62,0.74
					c-0.3,0.21-0.09,0.55-0.11,0.85c-0.3-0.19-0.25-0.04-0.51-0.05c0.3,0.16,0.49,0.39,0.3,0.68c-0.19-0.17-0.42-0.17-0.62-0.29
					c-0.16,0.48,0.21,0.72,0.62,0.59c0.34-0.11,0.6-0.73,0.75-1.02c0.12-0.23,0.36-0.92,0.65-0.92c0.48,0,0.32,0.54,0.12,0.79
					c0.2-0.01,0.41,0.13,0.61,0.12c-0.08,0.33-0.38,0.32-0.71,0.29c0.15,0.27,0.08,0.28,0.39,0.37c-0.72,0.64-0.13,1.06,0.29,0.34
					c0.28-0.91,0.38-2.58,1.57-2.42c0.72,0.1,1.07-0.41,1.78-0.23c0.58,0.14,1.35-0.41,0.79-0.97c0,0.22-0.3,0.73-0.5,0.42
					c-0.12-0.18-0.09-0.49-0.16-0.71c0.06,0.54-0.28,0.64-0.54,0.34c-0.07-0.08,0.03-0.46-0.05-0.6c-0.06-0.11-0.29-0.11-0.37-0.21
					C52.59,42.52,52.28,41.39,51.44,41.79z"/>
				<path class="st2" d="M63.77,38.03c0.27,0.71,0.27,1.57,0.45,2.33c0.01,0.19,0.1,0.4,0.13,0.59c0.47-0.3,0.24-0.84,0.44-1.09
					c0.29-0.36,0.72-0.22,1,0.26c0.2-0.71,0.42-1.51,0.19-2.24c-0.42,0.31-0.7,1.07-1.2,1.21C64.4,39.2,64.15,38.21,63.77,38.03z"/>
				<path class="st2" d="M13.02,20.18c1.13,0.06,1.48,0.12,2.62,0.06c0.89-0.05,3.14-0.03,3.88-0.57c-1.61-0.32-2.79-0.85-3.88-2.13
					c-1.38,0.19-2.78,0.41-4.2,0.45c-1.4,0.04-2.83-0.19-4.22-0.31C8.52,19.36,10.98,20.08,13.02,20.18z"/>
				<path class="st2" d="M12.95,21.93c2.32,1.17,4.87,2.1,7.48,2.2c2.18,0.08,4.97,0.23,7.04-0.5c-0.45-0.24-1.04-0.85-1.25-1.32
					c-0.22-0.52-1.25-0.47-1.75-0.52c-1.49-0.16-2.86-1.05-4.25-1.51c-0.53-0.18-1.74,0.25-2.32,0.32
					c-0.75,0.08-1.51,0.15-2.27,0.18c-1.52,0.06-3.03-0.07-4.54-0.27C11.6,21.05,12.28,21.62,12.95,21.93z"/>
				<path class="st2" d="M90.19,24.46c-1.32-0.03-2.66-0.43-3.97-0.47c-1.18-0.04-2.17,1.03-3,1.86c0.69,0.26,1.37,0.52,2.1,0.69
					c4.6,1.05,10.34-0.03,13.74-3.43C96.18,24.18,93.26,24.52,90.19,24.46z"/>
				<path class="st2" d="M103.7,19.38c-2.41,0.77-4.89,1.04-7.4,0.72c-0.59-0.07-1.17-0.16-1.74-0.33
					c-0.75-0.22-0.84-0.21-1.32,0.39c-0.63,0.79-1.71,1.38-2.63,1.76c-0.74,0.19-1.55,0.62-2.34,0.54
					c-0.66-0.07-1.15,0.65-1.64,0.99c1.47,0.03,2.94,0.47,4.44,0.47c1.66,0,3.28-0.15,4.91-0.45
					C98.59,22.99,102.16,21.69,103.7,19.38z"/>
				<path class="st2" d="M80.51,26.63c-1.81-0.08-3.48-0.81-4.56-2.29c-0.42,0.87-1.26,1.35-2.18,1.56
					c0.17,0.24,0.36,0.46,0.58,0.65C75.84,28.09,78.93,27.93,80.51,26.63z"/>
				<path class="st2" d="M85.4,29.29c-0.85-0.06-1.64-0.36-2.42-0.68c-0.78-0.38-1.49-0.84-2.23-1.29c-0.15-0.09-1.61,0.6-1.88,0.75
					C79.71,30.18,83.83,30.78,85.4,29.29z"/>
				<path class="st2" d="M13.47,17.32c0.55-0.06,1.08-0.17,1.63-0.28c-1.23-0.57-2.28-2.22-3.06-3.26c0,0-7.63-0.11-10.24-0.11
					C4.05,17.44,9.76,17.75,13.47,17.32z"/>
				<path class="st2" d="M68.07,22.45c-0.31,0.68-1.04,0.86-1.75,1c-0.59,0.12-1.56-0.02-2.05,0.24c0.63,0.5,1.24,1.13,1.67,1.82
					c0.51,0.82-0.51,0.54-0.94,0.41c0.56,0.56,1.08,1.19,1.49,1.87c0.62,1.03,0.49,1.73-0.76,1.11c0.02,0.04,0.03,0.08,0.05,0.13
					c0.15,0.36,0.33,1.93,0.6,2.06c0.58,0.29,1,0.64,1.36,1.18c0.38,0.57,0.52,1.53,1.05,1.68c0.21,0.06,0.51-0.09,0.78,0
					c0.29,0.09,0.32,0.31,0.71,0.32c0.67,0.02,1.15-0.54,1.36-1.1c0.42-1.14,0.54,0.03,0.78,0.42c0.26,0.41,1.73,0.9,1.86,0.14
					c0.04-0.23-1.13-1.25-0.47-1.51c0.3-0.12,0.64,0.82,0.78,0.98c0.22,0.24,0.54,0.34,0.85,0.39c0.44,0.06,1.55-0.34,1.24-0.93
					c-0.08-0.16-0.47-1.12-0.38-1.24c0.16-0.22,0.55,0,0.59,0.2c0.11,0.56,0.36,1.13,0.88,1.42c0.26,0.14,0.83,0.3,1.11,0.11
					c0.43-0.3,0.11-0.41-0.09-0.86c-0.11-0.24-0.49-1.79,0.2-1.15c0.13,0.13,0.16,0.81,0.31,1.04c0.21,0.31,0.43,0.56,0.77,0.73
					c0.45,0.22,0.89,0.09,1.3-0.17c-0.26-0.22-1.56-1.62-1.02-2.05c0.27-0.22,1,1.14,1.17,1.44c0.37,0.66,1.93-0.06,1.53-0.56
					c-0.76-0.96,0.38-0.44,0.81-0.98c-1.36,0.19-2.75-0.05-3.94-0.76c-0.35-0.21-1.19-1.29-1.45-1.34c-0.26-0.06-1.62,0.75-1.9,0.88
					c-0.58,0.26-1.1,0.71-1.75,0.9c-0.28,0.08-0.8,0.01-1.03,0.15c-0.13,0.08-0.3,0.54-0.45,0.67c-0.96,0.88-2.42,0.74-3.38-0.09
					c-0.41,0.58-1.75,1.54-2.26,0.43c-0.29-0.64,1.11-0.02,1.48-0.29c0.34-0.25,0.3-0.91,0.75-0.94c0.14-0.01,0.92,0.7,1.15,0.8
					c0.77,0.32,1.62,0.08,2.12-0.6c-0.57-0.13-1.14-0.32-1.52-0.78c-0.52-0.65,0.22-0.36,0.51-0.25c1.19,0.48,1.77,0.52,3.02,0.1
					c-0.71-0.12-1.38-0.33-1.96-0.78c-0.16-0.12-0.78-0.54-0.31-0.79c0.28-0.15,0.68,0.43,0.88,0.54c1.2,0.64,2.76,0.62,3.83-0.27
					c-1.33,0.14-2.61-0.39-3.64-1.2c-0.7-0.55-0.54-0.36-1.22,0.1c-0.53,0.35-1.05,0.32-1.65,0.22c-1.02-0.17-0.47,0.21-1.1,0.81
					c-0.36,0.35-1.2,0.47-1.61,0.15c-0.53-0.42-0.48-1.39-0.02-0.71c0.33,0.49,1.09,0.44,1.44-0.03c0.26-0.36-0.21-1.24,0.07-1.42
					c0.15-0.1,1.03,0.62,1.32,0.7c0.43,0.12,1.27-0.01,1.56-0.38c0.54-0.67-0.38-0.63-0.9-0.84c-0.25-0.1-1.71-0.69-0.73-0.87
					c0.38-0.07,1.37,0.6,1.85,0.64c1.05,0.09,2.07-0.42,2.52-1.39c-0.6,0.09-1.28,0.11-1.88-0.03c-0.88-0.21-0.84-0.64,0.07-0.47
					c1.2,0.22,2.32-0.12,3.17-0.99c-0.68,0.11-1.6,0.13-2.23-0.2c-0.22-0.11-0.93-0.35-0.89-0.68c0.03-0.31,0.61-0.06,0.77,0.04
					c1.1,0.66,2.77,0.43,3.67-0.43c-0.86,0.02-1.55-0.25-2.31-0.61c-0.19-0.09-0.83-0.58-0.26-0.65c0.26-0.03,0.52,0.22,0.76,0.32
					c1.22,0.5,2.74,0.63,3.94-0.02c-0.84-0.26-1.68-0.5-2.42-0.99c-0.41-0.27-0.25-0.73,0.2-0.48c0.35,0.2,0.69,0.41,1.07,0.56
					c0.96,0.4,3.1,0.91,3.86-0.07c-0.73-0.16-1.24-0.73-1.91-1.01c-0.57-0.24,0.12-0.44,0.44-0.35c0.25,0.07,0.56,0.41,0.83,0.52
					c1.23,0.52,3.31,1.43,4.39,0.11c-0.82-0.32-1.58-0.68-2.33-1.14c-0.16-0.1-1.22-0.66-0.64-0.9c0.31-0.13,0.8,0.39,1.04,0.54
					c1.56,1.01,3.64,1.5,5.21,0.29c0.33-0.3,0.66-0.59,0.95-0.94c-0.63-0.17-1.31-0.29-1.91-0.56c-0.66-0.3-0.65-0.87,0.08-0.54
					c1.14,0.52,2.6,0.63,3.83,0.75c2.01,0.2,6.65-0.03,7.51-2.39c-1.81-0.03-3.61,0.01-5.42,0.03c-6.01,0.05-12.18-0.55-18.04,0.86
					c-1.5,0.36-2.8,0.94-3.99,1.93c-0.54,0.45-0.94,1.07-1.31,1.66c-0.39,0.63-1.13,0.96-1.76,1.35
					C68.67,20.33,68.62,21.26,68.07,22.45z"/>
				<path class="st2" d="M1.03,13.43l-0.07,0.01l0.08,0.12C1.03,13.51,1.02,13.47,1.03,13.43z"/>
				<path class="st2" d="M106.78,16.6c-2.44,0.23-4.53,0.28-6.97-0.12c-0.49-0.08-1.21-0.44-1.59-0.1
					c-0.36,0.33-0.71,0.71-1.11,0.98c-0.96,0.65-1.93,1.14-2.99,1.63c3.69,1.07,9,1.22,11.98-1.68
					C106.34,17.09,106.55,16.85,106.78,16.6z"/>
				<path class="st2" d="M70.26,18.72c-0.14,0.06-0.28,0.13-0.43,0.22c-0.14,0.09-0.27,0.18-0.38,0.27
					C69.71,19.03,69.99,18.89,70.26,18.72z"/>
				<path class="st2" d="M83.85,24.53c-2.38,0.14-4.39-0.57-6.32-1.96c-0.3,0.52-0.78,0.82-1.32,1.05
					C77.56,26.62,81.75,26.59,83.85,24.53z"/>
				<path class="st2" d="M111.39,13.59c0,0-4.6,0.13-6.83,0.07c-0.8-0.02-3.22-0.01-3.22-0.01c-0.32,0.18-0.62,0.78-0.92,1.05
					c-0.44,0.39-0.93,0.7-1.42,1.03C102.5,16.59,108.9,16.77,111.39,13.59z"/>
				<path class="st2" d="M50.86,39.08c-0.46,0-0.7-0.48-1-0.78c0.04,0.54,0,1.06,0.15,1.59c0.85-0.75,0.76-0.47,0.99,0.48
					c0.05,0.1,0.13,0.21,0.2,0.3c0.23-0.76,0.51-1.57,0.39-2.37C51.37,38.56,51.19,39.08,50.86,39.08z"/>
				<path class="st2" d="M56.03,45.08c-0.02-0.41-0.22-0.8-0.63-0.93C55,44.69,55.69,44.8,56.03,45.08z"/>
				<path class="st2" d="M59.16,44.69c0.32-0.15,0.63-0.34,0.66-0.7C59.47,44.08,59.2,44.33,59.16,44.69z"/>
				<path class="st2" d="M52.12,39.15c0.26,0.32,0.82,0.06,0.76-0.35c-0.14-0.25-0.36-0.47-0.61-0.63
					C52.18,38.37,51.98,38.97,52.12,39.15z"/>
				<path class="st2" d="M62.77,39.77c0.29-0.01,0.57-0.08,0.83-0.2C63.31,39.26,62.95,39.42,62.77,39.77z"/>
				<path class="st2" d="M62.44,38.41c-0.06,0.84,0.39,0.68,0.99,0.63c-0.02-0.37-0.06-0.77-0.26-1.09
					C63,37.68,62.46,38.15,62.44,38.41z"/>
				<path class="st2" d="M85.81,27.12c-1.37-0.25-3-1.33-4.27-0.58c-0.99,0.55,1.17,1.4,1.67,1.59c0.96,0.36,1.89,0.6,2.91,0.71
					c1.64,0.18,3.94-0.3,5.03-1.63C89.35,27.44,87.61,27.45,85.81,27.12z"/>
				<polygon class="st2" points="48.8,37.27 48.8,37.27 48.8,37.27 				"/>
				<path class="st2" d="M31.99,20.78c-0.66-0.14-1.33-0.59-1.71-1.15c-0.76,0.16-1.57,0.19-2.32-0.05
					c-0.32-0.1-0.66-0.24-0.92-0.47c-0.4-0.36-0.79-0.1-1.31,0.02c-1.64,0.39-3.35,0.53-5.02,0.63
					C23.99,21.66,28.41,22.12,31.99,20.78z"/>
				<path class="st2" d="M35.53,27.9c-1-0.14-2.26,0.58-3.19,0.91c-0.92,0.33-1.83,0.52-2.8,0.68c1.98,0.7,4.95,0.38,6.62-1
					C35.93,28.32,35.72,28.12,35.53,27.9z"/>
				<path class="st2" d="M35.65,22.01c-0.51-0.54-1.18-0.15-1.77-0.6c-0.75-0.58-1.23-0.15-2.16,0.07c-0.73,0.17-1.46,0.33-2.2,0.45
					c-0.94,0.17-1.89,0.17-2.84,0.09c1.01,1.12,1.96,1.57,3.49,1.74c1.7,0.19,3.47-0.03,5.12-0.47c0.35-0.09,0.97-0.16,1.13-0.51
					C36.53,22.58,35.87,22.24,35.65,22.01z"/>
				<path class="st2" d="M29.48,24.29c0.89,1.46,2.98,1.66,4.52,1.57c1.09-0.07,2.1-0.35,3.14-0.65c0.41-0.12,0.87-0.28,1.24-0.51
					c0.43-0.27-0.02-0.45-0.09-0.87c-0.85-0.4-1.25-0.48-2.12-0.2c-0.69,0.23-1.4,0.38-2.12,0.46
					C32.52,24.26,31.02,24.56,29.48,24.29z"/>
				<path class="st2" d="M34.04,27.53c-0.32-0.16-0.65-0.33-0.93-0.55c-0.17-0.14-0.4-0.56-0.56-0.64c-0.62-0.33-1.38,0.12-2,0.2
					c-2.25,0.61-4.44,0.78-6.74,1.09C27.1,29.42,30.7,29.35,34.04,27.53z"/>
			</g>
		</g>
		<g>
			<path class="st7" d="M58.8,25.19c-0.08,0.52,0.44,0.9,0.16,1.52c-0.24-0.43-0.64-0.76-1.07-1c-0.77-0.44-0.85-0.18-0.22,0.39
				c0.52,0.47,0.73,0.94,1.19,1.44c0.56,0.62,0.57-0.7,0.62-0.99C59.53,26.1,58.85,24.83,58.8,25.19z"/>
			<path class="st7" d="M55.93,31.47c0.35,0.47,0.86,0.64,1.03,1.27c-0.41-0.19-1.9-0.79-1.83,0c0.8,0.08,1.19,0.26,1.81,0.75
				c0.23,0.18,0.36,0.79,0.73,0.29c0.21-0.28-0.03-0.94-0.13-1.22C57.25,32.09,56.59,30.98,55.93,31.47z"/>
			<path class="st7" d="M59.85,32.66c0.02-0.58,1.02-1.34,0.83-1.52c-1.17-0.15-1.36,1.58-1.36,2.37c0,0.73,0.83-0.46,1.01-0.6
				c0.38-0.3,1.01-0.26,1.13-0.78C60.88,31.94,60.3,32.34,59.85,32.66z"/>
			<path class="st7" d="M54.49,28.34c-0.43,0.1-0.82,0.26-1.22,0.44c0.19-0.52,0.56-0.86,0.93-1.25c0-0.09,0-0.18,0-0.27
				c-0.71,0-1.19,0.9-1.39,1.49c-0.09,0.26-0.27,0.87-0.12,1.08c0.3,0.4,0.61-0.25,0.82-0.47c0.5-0.54,0.97-0.45,1.58-0.7
				C55.54,28.47,54.73,28.29,54.49,28.34z"/>
			<path class="st7" d="M111.83,13.1c-1.66,0.01-6.31,0.04-7.55,0.03c-3.11-0.03-6.2,0.05-9.31,0.05c-3.26,0-6.54-0.08-9.8,0
				c-3.23,0.08-6.32,0.12-9.4,1.25c-1.42,0.53-2.74,1.07-3.73,2.3c-0.46,0.58-0.85,1.32-1.42,1.74c-0.53,0.39-1.13,0.6-1.62,1.09
				c-0.55,0.54-0.92,1.14-1.17,1.86c-0.21,0.61-0.26,1.15-0.97,1.39c-0.87,0.3-1.14,0.29-1.73-0.37c-0.49-0.55-0.95-1.05-1.53-1.5
				c0.35-0.21,1.5,0.42,1.18-0.36c-0.43-1.05-1.17-1.6-1.9-2.43c0.34-0.13,1.1,0.17,1.02-0.36c-0.07-0.48-0.49-0.89-0.82-1.22
				c-0.99-0.98-2.2-0.89-3.36-1.51c0.3-0.35,0.81-0.35,1.25-0.32c-0.07-0.73-1.6-0.89-2.15-1.15c0.45-0.29,1.62-0.08,0.93-0.73
				c-0.44-0.4-1.38-0.42-1.92-0.59c0.11-0.11,0.73-0.73,0.56-0.93c-0.17-0.2-0.65,0.14-0.87,0.15c-0.88,0.04-1.69-0.07-2.5-0.41
				c-1.26-0.52-2.38-1.24-3.95-1.52c-1.01-0.18-1.8,0.51-2.14,0.3C48.33,9.51,47.66,9.46,47,9.46c-0.82,0-1.67,0.22-2.3,0.75
				c-0.33,0.28-0.98,1.28-0.78,1.76c0.24,0.57,1.18-0.17,1.72-0.32c0.67-0.18,1.46-0.18,2.01,0.32c0.72,0.65,0.36,1.69-0.64,1.24
				c-0.27-0.12-0.97-0.82-1.21-0.69c-0.42,0.22,0.01,1.24,0.22,1.52c0.75,1,2.18,0.97,2.96,1.92c0.34,0.41,0.2,1.46,0.57,1.65
				c0.23,0.12,0.91-0.21,1.18-0.2c-0.22,0.81-1.21,1.47,0.03,1.61c0.5,0.06,0.91-0.14,0.99,0.36c0.04,0.26-0.43,0.83-0.57,1.01
				c-0.37,0.51-1.53,0.92-0.36,1.33c0.21,0.07,1.26-0.16,1.07,0.19c-0.23,0.45-0.49,0.8-0.88,1.12c-2.08,1.7-3.53-1.06-4.57-2.58
				c-0.69-1.02-1.6-0.88-2.47-1.48c-0.7-0.48-0.94-1.56-1.54-2.18c-2.26-2.36-5.14-2.83-8.25-3.12c-3.14-0.29-6.27-0.5-9.43-0.48
				c-6.59,0.05-13.2-0.04-19.79-0.04c-0.75,0-3.61-0.1-3.84,0.05c-0.81,0.53,2.4,3.79,5.2,4.24c0.19,0.36,0.96,1.11,1.31,1.41
				c0.61,0.53,1.42,0.82,2.14,1.14c0.5,0.22,0.61,0.56,1.02,0.92c1.15,1.01,2.04,1.65,3.63,2.22c0.76,0.76,1.58,1.7,2.6,2.34
				c1.25,0.79,2.55,1.51,4,1.84c1.03,0.26,1.44,0.31,2.05,0.46c0.57,0.45,1.18,0.78,1.86,1.02c1.42,0.52,2.92,0.68,4.35,1.13
				c0.73,0.23,0.55,0.59,1.04,1.09c0.38,0.38,0.91,0.3,1.24,0.63c0.37,0.38,0.31,0.87,0.9,1.18c0.5,0.27,1.02,0.08,1.45,0.4
				c0.57,0.42,1.02,0.02,1.56,0.12c0.52,0.1,0.84,0.53,1.49,0.49c0.73-0.05,0.77-0.11,1.49,0.09c0.5,0.14,0.89,0.16,1.37-0.03
				c0.44-0.17,0.65,0.6,1.22,0.6c0.66,0,1.13-0.38,1.63-0.75c0.19-0.14,0.29-0.75,0.53-0.36c0.13,0.21,0.23,0.34,0.43,0.49
				c0.49,0.37,1.09,0.24,1.63,0.09c0.31-0.08,0.89-0.77,1.12-0.69c0.6,0.21,1.14,0.19,1.79,0.19c-0.14,0.62-0.82,2.72,0.45,1.52
				c0.09,0.61-0.38,1.28-0.2,1.88c0.14,0.48,0.85,0.54,0.85,0.54c0,0.61-0.04,4.23,1.12,2.83c0.28,1.01,0.68,1.4-0.08,2.35
				c-0.66,0.83-1.24,1.13-2.28,1.38c-0.99,0.24-1.68,0.44-2.52,1.01c-1.72,1.16-3.92,1.7-5.79,2.68c-3.28-0.29-5.77,1.05-8.03,1.89
				c-2.57,0.96-5.08,2.13-7.52,3.38c-3.73,1.89-7.36,4.03-10.84,6.36c2.2,0.19,4.39,0.38,6.59,0.56c-0.24,1.83-0.47,3.65-0.71,5.48
				c1.82-1.28,3.7-2.5,5.59-3.67c-7.11,11.75-7.14,26.89-0.13,38.67c6.06,10.18,16.83,17.07,28.63,18.24
				c13.05,1.29,26.08-4.45,33.93-14.94c9.06-12.11,9.92-28.99,2.09-41.96c1.88,1.17,3.74,2.38,5.56,3.66
				c-0.23-1.83-0.46-3.65-0.68-5.48c2.21-0.19,4.41-0.38,6.62-0.56c-4-2.7-8.2-5.13-12.55-7.22c-2.32-1.11-4.69-2.13-7.13-2.96
				c-1.81-0.62-4.32-1.69-6.26-1.53c-1.1-0.22-4.93-2.04-5.29-2.21c-0.12-0.2-0.26-0.36-0.45-0.5c-0.76-0.56-1.19-0.88-2.1-1.21
				c-0.82-0.3-1.74-0.77-2.27-1.45c-0.58-0.74,0.14-1.14,0.49-1.85c0.31,0.38,0.36,1.36,0.83,0.27c0.34-0.79,0.39-1.62,0.49-2.46
				c0.17,0.23,0.38,0.44,0.62,0.61c0.64-1.06,0.94-2.53,0.02-3.51c0.41,0.17,0.86,0.46,1.03,0.9c0.3-0.38,0.29-0.85,0.25-1.32
				c-0.02-0.29,0.22-0.35,0.47-0.48c0.29-0.14,0.29,0.17,0.55,0.28c0.45,0.19,1.03,0.17,1.46-0.06c0.63-0.34,0.64-0.94,1.23-0.41
				c0.51,0.46,1.26,0.51,1.9,0.31c0.25-0.07,0.51-0.2,0.67-0.41c0.16-0.21,0.45-0.01,0.69-0.01c0.35,0,0.74-0.14,1.03-0.31
				c0.11-0.06,0.26-0.21,0.4-0.35c0.12-0.12,0.29-0.14,0.43-0.06c0.27,0.16,0.67,0.34,1.31,0.28c0.61-0.06,0.82-0.26,1.35-0.21
				c0.71,0.07,1.03-0.05,1.65-0.28c0.44-0.17,1.12-0.17,1.48-0.6c0.23-0.28,0.38-0.63,0.38-1c0-0.36,0.42-0.29,0.63-0.53
				c0.2-0.23,0.21-0.68,0.51-0.78c0.27-0.09,0.54-0.2,0.78-0.35c0.78-0.48,1.07-0.51,2.01-0.59c1.33-0.12,2.77-0.53,3.79-1.46
				c0.21-0.19,0.5-0.74,0.74-0.79c0.4-0.08,0.8-0.17,1.19-0.26c0.74-0.17,1.46-0.4,2.17-0.66c1.32-0.49,2.52-1.26,3.61-2.14
				c0.56-0.46,0.9-1.25,1.57-1.54c0.67-0.29,1.31-0.67,1.91-1.1c0.71-0.5,1.27-1.05,1.79-1.74c0.48-0.63,0.78-0.78,1.43-1.24
				c0.6-0.43,1.09-0.97,1.58-1.51c0.56-0.62,1.09-0.76,1.86-1.06c0.75-0.3,2.23-1.24,2.96-2.15
				C112.26,13.42,112.11,13.1,111.83,13.1z M1.8,13.67c2.6,0,10.24,0.11,10.24,0.11c0.77,1.04,1.83,2.69,3.06,3.26
				c-0.54,0.11-1.08,0.22-1.63,0.28C9.76,17.75,4.05,17.44,1.8,13.67z M7.22,17.7c1.4,0.12,2.82,0.34,4.22,0.31
				c1.42-0.04,2.82-0.26,4.2-0.45c1.09,1.27,2.27,1.81,3.88,2.13c-0.74,0.54-2.99,0.52-3.88,0.57c-1.13,0.06-1.49,0-2.62-0.06
				C10.98,20.08,8.52,19.36,7.22,17.7z M36.44,22.79c-0.16,0.34-0.78,0.41-1.13,0.51c-1.65,0.44-3.43,0.66-5.12,0.47
				c-1.53-0.17-2.48-0.62-3.49-1.74c0.94,0.08,1.9,0.08,2.84-0.09c0.74-0.12,1.47-0.28,2.2-0.45c0.93-0.22,1.4-0.65,2.16-0.07
				c0.58,0.45,1.25,0.06,1.77,0.6C35.87,22.24,36.53,22.58,36.44,22.79z M38.28,23.82c0.07,0.42,0.52,0.6,0.09,0.87
				c-0.36,0.23-0.83,0.39-1.24,0.51c-1.04,0.3-2.05,0.59-3.14,0.65c-1.54,0.09-3.63-0.1-4.52-1.57c1.54,0.27,3.04-0.03,4.57-0.2
				c0.72-0.08,1.43-0.23,2.12-0.46C37.03,23.34,37.44,23.43,38.28,23.82z M20.71,19.75c1.67-0.1,3.39-0.24,5.02-0.63
				c0.51-0.12,0.9-0.38,1.31-0.02c0.26,0.23,0.59,0.37,0.92,0.47c0.75,0.24,1.56,0.21,2.32,0.05c0.38,0.56,1.05,1.01,1.71,1.15
				C28.41,22.12,23.99,21.66,20.71,19.75z M20.15,19.12c-0.72-0.06-1.55-0.12-2.22-0.41c-0.42-0.18-1.77-1.12-1.64-1.38
				c1.58,0.14,3.13,0.07,4.69-0.16c0.72-0.1,1.76-0.68,2.15,0.02c0.41,0.72,1.06,1.12,1.78,1.49
				C23.38,19.03,21.72,19.25,20.15,19.12z M12.95,21.93c-0.67-0.31-1.35-0.88-1.85-1.42c1.51,0.2,3.01,0.33,4.54,0.27
				c0.75-0.03,1.52-0.09,2.27-0.18c0.58-0.07,1.79-0.5,2.32-0.32c1.39,0.46,2.76,1.35,4.25,1.51c0.5,0.05,1.52,0,1.75,0.52
				c0.2,0.47,0.79,1.07,1.25,1.32c-2.07,0.73-4.86,0.58-7.04,0.5C17.82,24.03,15.27,23.1,12.95,21.93z M20.11,26.53
				c-1.61-0.59-2.95-1.52-4.19-2.7c2.65,0.75,4.8,0.96,7.54,0.79c1.37-0.08,2.8-0.06,4.14-0.35c0.28-0.06,0.58-0.2,0.87-0.2
				c0.21,0,0.51,0.55,0.69,0.73c0.44,0.46,0.87,0.92,1.49,1.12C27.25,26.94,23.3,27.65,20.11,26.53z M23.81,27.63
				c2.29-0.31,4.49-0.48,6.74-1.09c0.62-0.08,1.38-0.53,2-0.2c0.16,0.09,0.39,0.51,0.56,0.64c0.28,0.22,0.61,0.39,0.93,0.55
				C30.7,29.35,27.1,29.42,23.81,27.63z M29.55,29.49c0.96-0.15,1.88-0.35,2.8-0.68c0.93-0.33,2.18-1.05,3.19-0.91
				c0.18,0.22,0.4,0.42,0.63,0.59C34.49,29.87,31.53,30.19,29.55,29.49z M50,39.89c-0.15-0.52-0.1-1.05-0.15-1.59
				c0.29,0.31,0.53,0.78,1,0.78c0.33,0,0.51-0.53,0.73-0.78c0.11,0.8-0.16,1.61-0.39,2.37c-0.07-0.09-0.15-0.2-0.2-0.3
				C50.76,39.41,50.85,39.14,50,39.89z M52.64,39.79c-0.21,0.03-0.45-0.01-0.66-0.05C52.21,39.4,52.58,39.47,52.64,39.79z
				 M52.27,38.18c0.25,0.15,0.46,0.37,0.61,0.63c0.06,0.41-0.5,0.67-0.76,0.35C51.98,38.97,52.18,38.37,52.27,38.18z M52.62,40.25
				c-0.01,0.18-0.05,0.47-0.09,0.64c-0.4-0.05-0.92,0.01-0.72-0.53C51.91,39.94,52.29,40.07,52.62,40.25z M52.44,41.38
				c-0.31,0.06-0.62,0.08-0.92,0C51.78,41.07,52.12,41.14,52.44,41.38z M46.4,44.96c0.5-0.55,1.69,0.57,1.35-0.41
				c0.23,0.09,0.42,0.22,0.6,0.41c0.13-0.97,0.91-0.74,1.61-1.27c0.55-0.42,0.9-1.64,1.48-1.9c0.85-0.4,1.16,0.73,1.52,1.21
				c0.08,0.1,0.31,0.11,0.37,0.21c0.08,0.14-0.02,0.52,0.05,0.6c0.25,0.3,0.6,0.2,0.54-0.34c0.07,0.22,0.04,0.53,0.16,0.71
				c0.21,0.31,0.5-0.19,0.5-0.42c0.56,0.56-0.21,1.11-0.79,0.97c-0.71-0.18-1.06,0.33-1.78,0.23c-1.19-0.16-1.29,1.5-1.57,2.42
				c-0.42,0.72-1,0.3-0.29-0.34c-0.32-0.09-0.24-0.1-0.39-0.37c0.33,0.03,0.63,0.03,0.71-0.29c-0.2,0.01-0.41-0.13-0.61-0.12
				c0.19-0.25,0.36-0.79-0.12-0.79c-0.29,0-0.53,0.69-0.65,0.92c-0.15,0.29-0.4,0.91-0.75,1.02c-0.41,0.13-0.78-0.1-0.62-0.59
				c0.2,0.12,0.43,0.12,0.62,0.29c0.19-0.29,0-0.53-0.3-0.68c0.26,0.02,0.21-0.14,0.51,0.05c0.02-0.3-0.19-0.64,0.11-0.85
				c0.2-0.14,0.84-0.46,0.62-0.74c-0.26-0.34-1.62,0.68-2.03,0.75C46.77,45.73,45.76,45.66,46.4,44.96z M56.35,45.57
				c0.05-0.03,0.09-0.07,0.12-0.12c0.01-0.01,0.01-0.03,0.01-0.04c0.02-0.04,0.03-0.08,0.04-0.13c0-0.02,0-0.05,0-0.08
				c0-0.04,0-0.09-0.01-0.13c-0.01-0.04-0.02-0.07-0.03-0.11c-0.01-0.04-0.02-0.08-0.03-0.12c-0.02-0.05-0.04-0.1-0.06-0.16
				c-0.01-0.02-0.02-0.04-0.03-0.07c-0.03-0.07-0.07-0.13-0.1-0.19c0,0,0-0.01-0.01-0.01c-0.08-0.13-0.16-0.23-0.23-0.29
				c-0.01,0-0.01-0.01-0.02-0.02c0.39-0.02,0.58-0.03,0.74,0.04c0.01,0,0.02,0.01,0.03,0.02c0.03,0.02,0.06,0.04,0.1,0.07
				c0.01,0.01,0.02,0.02,0.03,0.03c0.03,0.03,0.06,0.07,0.1,0.11c0.01,0.01,0.02,0.03,0.03,0.04c0.04,0.06,0.09,0.13,0.15,0.21
				c0.1,0.15,0.14,0.33,0.34,0.29c0.09-0.02,0.15-0.05,0.2-0.08c0.01-0.01,0.02-0.02,0.03-0.03c0.35-0.3-0.01-1.04,1.09-0.58
				c-0.11,0.19-0.35,0.75-0.1,0.95c0.33,0.26,0.46-0.27,0.73-0.37c0.4-0.15,0.83-0.04,1.27-0.11c0.82-0.13,0.78,0.2,1.4,0.6
				c0.65,0.42,0.78,0.25,0.92,1.09c0.08,0.46,0.21,0.95,0.41,1.37c0.45,0.96,0.84,0.98,0.7,2.08c-2.43-0.53-4.93-0.77-7.42-0.73
				c-1.32,0.02-2.63,0.12-3.93,0.29c-0.49,0.06-2.13,0.55-2.39,0.13c-0.53-0.89,0.71-2.94,1.05-3.79c0.12-0.3,1.17-0.45,1.6-0.56
				c0.35-0.08,0.64-0.12,0.99-0.05c0.36,0.07,0.56-0.17,0.87-0.17C55.23,44.96,56.18,45.65,56.35,45.57z M55.4,44.16
				c0.41,0.13,0.61,0.52,0.63,0.93C55.69,44.8,55,44.69,55.4,44.16z M59.16,44.69c0.04-0.37,0.31-0.61,0.66-0.7
				C59.78,44.36,59.48,44.54,59.16,44.69z M63.1,50.28c-4.04,0.73-7.74,0.75-11.79,0.04C55.19,49.57,59.22,49.55,63.1,50.28z
				 M49.15,47.38c0.42,0.83-0.21,2.32,1.1,2.52c-0.1,0.04-0.34,0.15-0.45,0.17c0,0-2.07-0.47-2.58-0.59
				C47.56,48.35,48.35,48.09,49.15,47.38z M47.05,49.04c-0.06-0.4,0.05-1.97,0.63-1.11C47.37,48.26,47.16,48.6,47.05,49.04z
				 M50,49.26c-0.4-0.29-0.64-1.29,0.14-1.1C50.1,48.53,49.95,48.88,50,49.26z M45.61,45.35c0.07,0.14,0.14,0.31,0.14,0.47
				c-0.34,0.18-0.58,0.48-0.78,0.8C44.87,46.13,45.22,45.62,45.61,45.35z M44.62,46.26C44.62,46.26,44.62,46.26,44.62,46.26
				c-0.3,1.55,0.46,0.42,0.91,0.11c0.03-0.02,0.06-0.04,0.09-0.05c0.56-0.26,1.35-0.33,1.99-0.21c-0.45,0.74-0.9,1.53-0.96,2.39
				c0,0.02,0,0.04,0,0.06c-0.01,0.13-0.01,0.25,0.01,0.38c0,0.04,0.02,0.08,0.02,0.11c0.02,0.11,0.03,0.22,0.07,0.34
				c-0.14-0.03-0.28-0.07-0.42-0.11c-0.95-0.24-1.9-0.48-2.85-0.73c-0.88-0.23-1.77-0.46-2.66-0.66
				C42.05,47.26,43.32,46.73,44.62,46.26z M56.45,118.1c-2.06-0.04-4.12-0.24-6.14-0.62c-13.09-2.44-24.13-12.09-28.32-24.72
				c-2.36-7.12-2.49-14.94-0.37-22.14c0.6-2.04,1.38-4.03,2.32-5.94c0.43-0.87,0.9-1.73,1.4-2.56c0.61-1.02,1.11-1.44,2.13-2.04
				c2.97-1.73,6.74-4.21,10.31-4.3c-11.06,8.56-15.34,23.79-10.29,36.85c2.25,5.81,6.21,10.9,11.28,14.51
				c2.54,1.82,5.35,3.26,8.31,4.26c0.78,0.27,1.58,0.5,2.38,0.7c0.16,0.04,0.59,0.12,0.81,0.24l6.07,5.65
				C56.38,118.04,56.42,118.07,56.45,118.1C56.45,118.1,56.45,118.1,56.45,118.1z M54.11,66.59c-1.2-0.11-2.6-0.34-2.6-0.34
				c-0.41-1-1.07-2.64-1.49-3.64c-0.66-1.59-1.32-3.19-1.98-4.78c1.49,0.27,2.99,0.52,4.49,0.75
				C53.05,61.25,53.58,63.92,54.11,66.59z M53.21,58.68c1.26,0.17,2.48,0.25,3.74,0.35c0,2.55,0,7.73,0,7.73l-2.18-0.08
				c-0.05-0.25-0.1-0.56-0.15-0.81c-0.18-0.92-0.36-1.84-0.54-2.76C53.79,61.63,53.5,60.15,53.21,58.68z M50.8,66.19
				c-1.41-0.21-3.55-0.64-3.55-0.64s-1.7-2.68-2.39-3.7c-1.11-1.66-2.21-3.33-3.32-4.99l0.31-0.24c0,0,1.67,0.36,2.15,0.46
				c1.09,0.22,2.19,0.44,3.28,0.64C48.47,60.54,49.64,63.36,50.8,66.19z M46.48,65.41c-1.84-0.38-5.94-1.47-5.94-1.47
				s-2.54-2.58-3.47-3.52c1.2-1.18,2.55-2.26,3.94-3.21C42.83,59.95,44.65,62.68,46.48,65.41z M39.45,63.7
				c-1.42-0.39-2.84-0.8-4.24-1.24c0.46-0.54,0.93-1.06,1.43-1.57C37.57,61.83,38.51,62.77,39.45,63.7z M28.55,87.93
				c1.23,5.17,3.87,9.96,7.57,13.77c1.83,1.88,3.91,3.52,6.16,4.86c1.2,0.71,2.45,1.33,3.73,1.87c0.88,0.37,1.28,0.6,1.92,1.33
				c0.5,0.58,1.02,1.15,1.54,1.7c-11.42-2.95-20.44-12.42-22.84-23.97c-1.31-6.32-0.63-13,1.95-18.91c1.24-2.85,2.92-5.52,4.94-7.88
				c1.06-1.23,2.21-2.38,3.44-3.43c0.56-0.48,1.14-0.94,1.73-1.38c0.77,0.18,1.54,0.36,2.31,0.53
				C30.78,63.17,25.72,75.99,28.55,87.93z M40.98,104.97c-1.21-0.83-2.36-1.75-3.43-2.75c0.95-0.99,1.82-1.95,2.76-2.94
				c0.54,0.95,2.14,3.48,2.14,3.48C42.04,103.37,41.39,104.36,40.98,104.97z M42.86,103.31c0.62,0.92,1.67,2.26,2.34,3.14
				l-0.39,0.73c-1.14-0.55-2.24-1.16-3.29-1.86C41.98,104.64,42.4,104,42.86,103.31z M37.06,101.75c-1.34-1.32-2.55-2.77-3.61-4.31
				c1.49-1,2.92-1.98,4.41-2.98c0.58,1.27,2.13,4.26,2.13,4.26C39.23,99.5,37.82,100.97,37.06,101.75z M36.08,94.87
				c-1,0.67-2,1.34-3.01,2c-0.9-1.39-1.69-2.86-2.34-4.39c0,0,3.6-1.53,5.42-2.28c0.14,0.4,1.46,3.65,1.46,3.65
				C37.11,94.19,36.58,94.54,36.08,94.87z M34.04,90.4c-1.19,0.49-2.37,0.99-3.56,1.48c-0.58-1.43-1.04-2.91-1.38-4.41
				c1.95-0.42,3.89-0.83,5.83-1.25c0.13,0.48,1.02,3.39,1.02,3.39C35.37,89.85,34.63,90.15,34.04,90.4z M28.96,86.81
				c-0.36-1.77-0.55-3.57-0.57-5.37c1.83,0,3.66,0,5.48-0.01c0.24,1.39,0.53,2.77,0.88,4.14C32.82,85.99,30.89,86.4,28.96,86.81z
				 M28.39,80.77c0.02-1.67,0.18-3.33,0.49-4.97c1.47,0.29,2.94,0.58,4.42,0.88c0.11,1.37,0.26,2.74,0.47,4.1
				C31.98,80.77,30.18,80.77,28.39,80.77z M33.25,75.99c-1.42-0.28-2.83-0.57-4.25-0.85c0.35-1.64,0.84-3.24,1.46-4.79
				c0.9,0.38,1.81,0.75,2.71,1.13C33.14,72.98,33.16,74.49,33.25,75.99z M33.19,70.68c-0.81-0.34-1.63-0.68-2.44-1.02
				c0.65-1.52,1.43-2.98,2.35-4.36c0.17,0.11,0.44,0.23,0.57,0.38C33.41,67.33,33.26,69,33.19,70.68z M33.47,64.74
				c0.17-0.26,0.35-0.51,0.54-0.75c-0.08,0.32-0.15,0.65-0.2,0.97C33.7,64.93,33.55,64.82,33.47,64.74z M45.34,107.45
				c0.07-0.15,0.25-0.51,0.25-0.51c0.24,0.3,0.51,0.64,0.75,0.94C46.02,107.74,45.66,107.58,45.34,107.45z M56.97,117.74
				c-0.72-0.6-1.42-1.21-2.12-1.84c-2.88-2.58-5.58-5.37-8.02-8.36c-4.84-5.93-8.67-12.7-10.87-20.04
				c-2.33-7.75-3.17-16.6-1.07-24.5c0.1,0.03,0.2,0.07,0.3,0.1c7.21,2.23,14.96,4.37,22.57,4.26c7.38-0.1,15.03-2.04,22.01-4.36
				c2.73,10.01,0.81,21.48-3.36,30.82c-3.1,6.93-7.61,13.17-12.92,18.58c-1.41,1.43-2.76,2.81-4.27,4.14
				C58.64,117.03,57.6,118.27,56.97,117.74z M81.56,65.35c0.91,1.4,1.7,2.87,2.36,4.4c-0.81,0.34-1.62,0.67-2.43,1.01
				c-0.06-1.31-0.18-2.62-0.35-3.91c-0.06-0.46-0.22-1.17-0.22-1.17S81.31,65.43,81.56,65.35z M80.84,65.03
				c-0.07-0.34-0.14-0.68-0.2-1.01c0.19,0.26,0.37,0.52,0.55,0.78C81.08,64.87,80.97,64.98,80.84,65.03z M84.16,70.34
				c0.58,1.43,1.04,2.91,1.37,4.42c-1.36,0.29-2.72,0.58-4.07,0.87c0.05-0.88,0.07-3.18,0.07-4.21
				C81.53,71.41,83.43,70.64,84.16,70.34z M81.41,76.3c0.16-0.15,0.81-0.17,1.02-0.22c1.08-0.23,2.16-0.46,3.24-0.69
				c0.35,1.77,0.54,3.57,0.56,5.37c-1.78,0-3.56,0-5.33,0.01C81.13,79.29,81.3,77.8,81.41,76.3z M82.65,81.43c1.19,0,2.39,0,3.58,0
				c-0.01,1.67-0.18,3.33-0.48,4.97c-1.92-0.38-3.84-0.77-5.76-1.15c0.11-0.42,0.7-3.82,0.89-3.82
				C81.46,81.43,82.06,81.43,82.65,81.43z M81.59,86.23c1.34,0.27,2.69,0.53,4.03,0.8c-0.35,1.65-0.84,3.28-1.47,4.85
				c-1.82-0.76-3.64-1.51-5.46-2.27c0.12-0.35,1.12-3.72,1.14-3.72C80.42,86,81.01,86.12,81.59,86.23z M83.9,92.49
				c-0.66,1.54-1.46,3.03-2.38,4.44c-1.5-1.01-3.01-2.01-4.51-3.02c0.53-1.18,1.01-2.39,1.44-3.61
				C80.27,91.03,82.09,91.76,83.9,92.49z M81.15,97.49c-0.94,1.36-2,2.65-3.15,3.84c-1.04-1.04-2.07-2.07-3.11-3.11
				c0.67-1.2,1.28-2.43,1.85-3.68C78.21,95.52,79.68,96.5,81.15,97.49z M77.54,101.79c-1.21,1.18-2.51,2.25-3.9,3.21
				c-0.5-0.74-0.99-1.49-1.49-2.23c0.86-1.29,1.67-2.61,2.42-3.95C75.56,99.81,76.55,100.8,77.54,101.79z M73.09,105.36
				c-1.49,0.97-3.07,1.81-4.71,2.49c1.19-1.45,2.31-2.96,3.37-4.5C72.2,104.02,72.64,104.69,73.09,105.36z M69.09,108.25
				c1.27-0.55,2.49-1.19,3.67-1.92c2.22-1.37,4.26-3.03,6.04-4.92c3.61-3.84,6.18-8.63,7.34-13.77c2.7-11.94-2.43-24.57-12.66-31.27
				c0.8-0.18,1.59-0.36,2.38-0.55C85.9,63.2,90.69,76.18,87.83,88.31c-2.63,11.17-11.49,20.25-22.6,23.13
				c0.66-0.7,1.3-1.41,1.93-2.14C67.68,108.7,68.37,108.56,69.09,108.25z M79.42,62.47c-1.73,0.53-3.47,1.04-5.22,1.51
				c1.12-1.17,2.25-2.34,3.37-3.51C78.22,61.1,78.83,61.78,79.42,62.47z M73.67,57.26c1.2,0.83,2.35,1.75,3.42,2.75
				c-1.37,1.43-2.74,2.86-4.1,4.29c-1.58,0.4-3.17,0.85-4.76,1.18C70.04,62.76,71.86,59.98,73.67,57.26z M69.82,61.86
				c-0.68,1.02-1.82,2.77-2.5,3.8c0,0-1.35,0.29-2.62,0.5c0.82-1.76,1.64-3.61,2.46-5.37c0.46-0.98,1.06-2.39,1.52-3.37
				c0,0,2.78-0.6,3.92-0.85c0.19,0.07,0.37,0.24,0.54,0.35C72.03,58.55,70.92,60.21,69.82,61.86z M65.5,62.77
				c-0.45,0.98-1.58,3.51-1.58,3.51s-2.02,0.3-3.37,0.35c0.38-1.91,0.76-3.85,1.14-5.76c0.15-0.77,0.3-1.53,0.46-2.3
				c0,0,5.19-0.94,5.8-1.06C67.13,59.26,66.31,61.02,65.5,62.77z M60.56,63.2c-0.19,0.95-0.49,2.53-0.69,3.48
				c0,0-1.23,0.05-2.24,0.06V61.6c0,0,0-1.79,0-2.59c0,0,3.38-0.33,3.84-0.4C61.18,60.14,60.87,61.67,60.56,63.2z M88.7,100.38
				c-6.47,10.57-18.09,17.34-30.48,17.7c1.73-1.47,3.41-2.99,5.02-4.59c0.85-0.84,1.27-1.2,2.4-1.51c0.66-0.18,1.32-0.38,1.98-0.6
				c2.96-1,5.76-2.45,8.3-4.27c5.05-3.62,9.01-8.71,11.25-14.51c5.03-13.03,0.78-28.24-10.25-36.8c3.54,0.65,7.88,3.08,11.21,5.09
				C95.84,72.72,96.06,88.36,88.7,100.38z M78.53,48.98c7.26,2.01,14.11,5.77,20.41,9.83c-1.81,0.15-3.61,0.3-5.42,0.45
				c0.2,1.56,0.4,3.13,0.59,4.69c-4.36-2.96-8.94-5.93-13.87-7.85c-1.46-0.57-3.22-1.23-4.81-0.85c-1.88,0.44-3.77,0.85-5.67,1.24
				c-3.06,0.63-6.14,1.2-9.24,1.61c-3.05,0.4-5.82,0.18-8.85-0.29c-4.4-0.68-8.77-1.58-13.1-2.61c-3.09-0.56-6.93,1.86-9.5,3.25
				c-3.08,1.67-6.06,3.54-8.96,5.51c0.2-1.56,0.4-3.13,0.61-4.69c-1.8-0.15-3.6-0.3-5.4-0.45c6.41-4.13,14.11-8.09,20.8-10.07
				c1.81-0.54,3.16-0.56,4.99-0.11c2.18,0.55,4.36,1.12,6.55,1.61c4.47,1.01,8.82,1.67,13.39,1.04c3.46-0.48,6.84-1.32,10.22-2.2
				c1.12-0.29,2.24-0.6,3.38-0.79C75.88,48.08,77.36,48.66,78.53,48.98z M64.4,48.48c0.15-0.11,0.31-0.14,0.49-0.13
				c0.11,0.45-0.03,0.89-0.34,1.22C64.6,49.2,64.67,48.79,64.4,48.48z M68.85,45.11c0.35,0.02,0.59,0.6,0.61,0.88
				C69.4,45.94,68.34,45.07,68.85,45.11z M69.14,46.31c0.25,0.12,0.5,0.54,0.63,0.02c0,0,0,0,0-0.01c0.47,0.17,0.94,0.36,1.4,0.56
				c0.04,0.02,0.08,0.03,0.13,0.05c0.07,0.03,0.13,0.05,0.2,0.08c0.65,0.28,1.29,0.57,1.92,0.88c-0.23,0.05-0.45,0.11-0.67,0.16
				c-0.01,0-0.03,0.01-0.04,0.01c-1,0.24-1.99,0.49-2.99,0.74c-1.66,0.42-3.32,0.83-4.99,1.18c-0.06,0.01-0.24-0.03-0.24-0.03
				c0.89-0.46,0.74-1.39,0.7-2.37c-0.01-0.16-0.01-0.32-0.01-0.48c0-0.01,0-0.01,0-0.02c0.01-0.18,0.02-0.35,0.05-0.52
				c0.65,0.65,1.53,0.87,2.14,1.49c0.24,0.24,0.58,1.15,0.89,0.29c0.47-1.28-1.26-2.09-1.87-2.93c0.55-0.08,1.1,0.1,1.61,0.34l0,0
				c0.24,0.11,0.47,0.23,0.68,0.34C68.85,46.16,69,46.24,69.14,46.31z M67.7,47.13c0.22,0.32,0.33,0.7,0.2,1.08
				C67.79,47.78,67.21,47.47,67.7,47.13z M65.72,43.47c0.22,0.17,0.34,0.32,0.49,0.56c0.06,0.1-0.11,0.45,0.03,0.54
				c0.37,0.24,0.56-0.26,0.49-0.56c0.18,0.19,0.77,1.41,0.81,0.22c0.34,0.14,0.87,0.46,0.7,0.89c-0.17,0.44-1.23-0.05-1.61-0.1
				c-1.01-0.14-0.72-0.07-0.59,0.61c0.04,0.19-0.33,0.37-0.15,0.58c0.2,0.23,0.49-0.11,0.73-0.03c-0.49,0.39-0.07,0.87,0.37,0.46
				c0.45,1.29-1.07-0.17-1.3-0.39c-0.15-0.14-0.58-0.67-0.76-0.71c-0.4-0.1-0.59,0.2-0.29,0.59c-0.62,0.18-0.66,0.83,0.07,0.59
				c-0.18,0.19-0.31,0.38-0.42,0.61c0.92-0.07,0.11,1.49-0.41,0.15c-0.26-0.66-0.19-1.61-0.61-2.17c-0.19-0.26-0.7-0.23-0.98-0.44
				c-0.26-0.2-0.4-0.72-0.65-0.81c-0.09-0.03-2.44,0.48-1.06-0.49c0.31,0.65,0.57,0.11,0.37-0.34c0.55,0.72,0.77-0.33,1.12-0.73
				c0.57-0.67,0.99-0.85,1.88-0.83C64.48,42.58,64.96,42.88,65.72,43.47z M62.77,40.72c-0.06-0.14-0.02-0.25,0.02-0.36
				c0.21-0.24,0.92-0.55,0.95,0C63.75,40.84,63.12,40.61,62.77,40.72z M63.84,41.21c-0.39,0.07-0.76-0.02-1.14,0.1
				C63,40.99,63.58,40.91,63.84,41.21z M62.77,39.77c0.18-0.35,0.55-0.51,0.83-0.2C63.34,39.69,63.06,39.76,62.77,39.77z
				 M62.44,38.41c0.02-0.25,0.56-0.72,0.73-0.46c0.2,0.32,0.25,0.72,0.26,1.09C62.83,39.09,62.38,39.24,62.44,38.41z M65.8,40.13
				c-0.28-0.49-0.71-0.62-1-0.26c-0.2,0.25,0.03,0.8-0.44,1.09c-0.04-0.19-0.13-0.4-0.13-0.59c-0.18-0.77-0.18-1.63-0.45-2.33
				c0.39,0.18,0.63,1.17,1.02,1.06c0.5-0.14,0.78-0.9,1.2-1.21C66.21,38.61,65.99,39.42,65.8,40.13z M66.96,35.61
				c0.32,0.82,0.65,1.41,0.25,2.32c-0.84-0.74-1.75-0.66-2.37,0.37c-0.92-1.71-2.68-0.73-3.32,0.54c-0.42-0.32-1.35-0.9-1.33,0.05
				c-0.41-0.56-0.28-2.04-0.01-2.66c0.55-1.24-0.36-0.77-0.59,0.11c-0.22,0.83-0.16,1.61-0.08,2.46c0.04,0.44,0.3,0.78,0.59,1.09
				c0.41,0.44,0.61-0.73,0.67-0.96c0.35,0.33,1.14,1.08,1.2,0.15c0.11,0.66,0.23,1.31,0.19,1.98c-0.05,0.91-0.57,1.17-1.26,1.63
				c-0.32,0.21-1.45,1.28-1.79,0.94c-0.83-0.81-1.03-0.07-1.7,0.53c-0.62-0.85-0.8-1.13-1.65-0.46c-0.28,0.22-1.16-0.61-1.54-0.76
				c-0.61-0.25-1.4-0.41-1.22-1.28c0.14-0.71,0.43-1.52,0.34-2.25c0.73,0.54,1.03-0.36,1.12-0.97c0.18,0.2,0.36,0.42,0.5,0.65
				c0.18,0.28,0.2,0.8,0.35,1.01c0.46,0.65,0.58,0.28,1.13-0.05c0.99-0.59,0.86-2.2,0.6-3.14c-0.1-0.38-0.36-1.34-0.9-1.34
				c-0.68,0,0.21,0.98,0.3,1.27c0.26,0.86,0.49,2.52-0.56,2.95c-0.09-0.59-0.53-1.41-1.03-1.78c-0.97-0.73-0.91,0.23-1.15,0.91
				c-0.83-1.42-1.86-1.78-2.95-0.49c-0.83-0.61-0.31-2.78-1.73-1.63c-0.04-0.67,0.12-1.29,0.36-1.92c0.33-0.86-0.28-0.93-0.87-0.38
				c0.2-0.88,0.66-1.7,1.37-2.26c0.33-0.26,0.75-0.33,1.05-0.58c0.14-0.12,1.31-0.36,0.78-0.53c-0.53-0.17-0.63,0.01-0.77-0.56
				c-0.09-0.39,0.22-1,0.35-1.36c0.09-0.27,0.52-0.57,0.4-0.84c-0.17-0.36-0.98,0.14-1.24,0.27c0.23-0.5,0.63-0.91,1.04-1.27
				c0.46-0.4-0.72-0.1-1.01,0.19c-0.36,0.36-0.87,1.08-0.85,1.61c0.03,0.97,0.5,0.38,1.02,0.07c-0.28,0.76-0.14,1.66-0.63,2.2
				c-0.49,0.53-1.25,1.16-1.89,1.46c-0.29,0.14-0.68,0.12-1,0.09c-0.32-0.03-0.63-0.39-0.92-0.35c-0.86,0.11-0.95,1.47-2.2,0.8
				c-0.38-0.2-0.43-0.88-0.86-0.91c-0.3-0.02-0.53,0.6-0.72,0.83c-0.36,0.42-1.41,1.11-1.81,0.39c-0.09-0.16,0.67-0.82,0.82-1.06
				c0.43-0.69-0.46-0.18-0.68,0.04c-0.53,0.53-1.64,1.27-2.35,0.67c0.77-0.63,0.98-1.55-0.1-0.71c-0.65,0.5-1.47,1.02-2.27,0.49
				c0.76-0.52,1.27-2.18,0.26-1.05c-0.46,0.51-1.5,1.34-2.16,0.66c0.24-0.18,0.6-0.47,0.68-0.76c0.05-0.17,0.11-0.95-0.28-0.49
				c-0.46,0.54-0.82,1.24-1.67,0.96c-0.27-0.09-0.46-0.26-0.57-0.52c-0.13-0.34-0.08-0.6-0.23-0.81c-0.3-0.41-1.18-0.14-1.6-0.74
				c1.45,0.11,2.73-0.06,4.12-0.51c0.56-0.18,1.15-0.46,1.67-0.72c0.4-0.21,1.94-0.59,2.22-0.07c0.27,0.51,0.83,0.87,1.39,1.01
				c0.7,0.17,0.78,0.96,1.49,1.35c0.64,0.35,1.36,0.29,2.04,0.12c0.82-0.21,0.94-0.84,1.77-0.46c0.54,0.25,1.14,0.32,1.73,0.26
				c0.67-0.06,1.07-0.65,1.59-0.73c0.29-0.04,0.56,0.07,0.86,0.01c0.23-0.04,0.67-0.46,0.22-0.49c-0.34-0.02-0.67,0.01-0.99-0.12
				c-0.44-0.18-0.55,0.29-0.86,0.48c-0.61,0.37-1.35,0.43-2.03,0.19c-1.05-0.36-0.84-0.63-1.85,0.01c-0.88,0.56-2.41,0.7-2.92-0.45
				c0.57-0.02,1.12-0.26,1.63-0.49c0.75-0.34,0.39-0.62-0.25-0.53c-1.19,0.17-2.31,0.86-3.29-0.37c0.66-0.13,1.29-0.27,1.92-0.49
				c0.47-0.16,0.08-0.49-0.25-0.49c-0.3,0-0.55,0.22-0.86,0.26c-1.32,0.15-2.21,0.32-3.44-0.26c1.04-0.17,2.12-0.28,3.13-0.58
				c0.27-0.08,1.2-0.28,1.06-0.68c-0.15-0.42-0.8-0.02-1.1,0.06c-1.8,0.47-4.57,1.34-6.08-0.26c1.12-0.09,2.12-0.2,3.21-0.47
				c1.08-0.27,2.03-0.97,3.1-0.7c0.62,0.16,0.86,0.09,1.17,0.65c0.26,0.47,0.82,0.78,1.32,0.95c0.51,0.17,1,0.18,1.33,0.43
				c0.38,0.28,0.52,0.7,1.02,0.91c1.05,0.44,1.85-0.07,2.83-0.33c0.2-0.05,0.69,0.55,0.99,0.65c0.24,0.08,1.14-0.05,0.71-0.41
				c-0.44-0.36-0.92-0.03-1.24-0.71c-0.29-0.6-0.63-0.04-1.11,0.16c-0.91,0.38-2.16,0.39-2.73-0.54c0.54-0.22,1.58-0.36,1.75-1
				c-0.66-0.33-1.56,0.49-2.3,0.49c-0.75,0-1.9-0.29-2.23-1.05c0.78,0.02,1.57-0.21,2.31-0.48c0.24-0.09,0.73-0.59,0.2-0.59
				c-0.32,0-0.63,0.18-0.94,0.27c-1.19,0.34-3.22,0.56-3.86-0.83c0.85-0.03,1.66-0.06,2.49-0.24c0.79-0.18,1.59-0.81,0.32-0.61
				c-1.42,0.22-3.15,0.73-4.42-0.27c0.84-0.11,3.16-0.29,3.39-1.32c-1.11-0.4-3.74,1.94-4.64,0.19c0.58-0.29,2.97-0.8,2.93-1.66
				c-1.51,0.23-3.5,1.98-5,0.83c0.72-0.36,1.53-0.68,2.2-1.15c0.97-0.67,0.52-0.93-0.34-0.41c-1.36,0.82-3.53,1.82-4.8,0.34
				c1-0.39,2.13-0.73,3.02-1.34c0.29-0.19,0.97-0.72,0.29-0.8c-0.23-0.03-1.12,0.64-1.36,0.77c-1.48,0.75-3.86,1.63-5.4,0.55
				c0.63-0.19,1.27-0.38,1.88-0.63c0.25-0.1,1.66-0.6,1.76-0.86c0.26-0.73-0.65-0.25-0.92-0.13c-0.61,0.29-1.22,0.56-1.85,0.8
				c-1.07,0.41-2.3,0.51-3.4,0.16c-0.38-0.12-1.09-0.51-1.27-0.88c-0.42-0.85,0.55-0.75,1.26-0.91c0.74-0.16,0.37-0.67-0.27-0.47
				c-0.56,0.17-1.12,0.27-1.69,0.41c-1.29,0.33-2.59,0.53-3.92,0.61c-2.81,0.19-4.9-0.42-6.27-3.02c6.43,0.07,9.44-0.23,15.73,0.07
				c2.99,0.14,9.65,0.37,12.17,2.2c0.55,0.4,0.92,0.75,1.39,1.24c0.45,0.48,0.75,1.32,1.08,1.76c0.42,0.57,1.03,0.57,1.64,0.85
				c0.95,0.43,1.08,0.75,1.48,1.3c0.84,1.17,1.37,2.33,2.81,2.83c1.33,0.47,2.88-0.9,3.21-2.11c0.21-0.54,1.21-0.73,1.67-1.1
				c-0.06,0.28-0.69,0.82-0.5,1.01c0.25,0.25,0.73,0.1,1.03,0.03c0.86-0.19,1.54-0.75,1.93-1.54c0.38,0.38-0.18,0.97,0.14,1.2
				c0.42,0.31,0.98-0.48,1.17-0.74c0.2-0.28,0.52-1.14,0.16-1.36c-0.41-0.25-0.51,0.92-0.68,1.19c-0.12-0.35-1.18-2.1-1.26-0.89
				c-0.05,0.81-0.67,1.36-1.45,1.53c0.08-0.35,0.18-0.79,0.1-1.15c-0.16-0.7-0.44-0.35-0.76-0.1c-0.94,0.74-1.55,1.26-2.86,1.22
				c0.54-0.48,1.12-1.15,1.22-1.89c0.18-1.43-0.65-0.5-1.39-0.8c0.24-0.4,0.65-1.57,0.02-1.82c-0.23-0.09-0.64,0.25-0.91,0.34
				c-0.25,0.08-0.22-0.51-0.31-0.69c-0.39-0.8-0.66-1.22-1.51-1.58c-0.73-0.31-1.58-0.62-1.96-1.37c0.6,0.13,1.08,0.64,1.71,0.36
				c0.81-0.36,0.68-1.39,0.23-1.97c-0.76-0.97-2.53-0.93-3.48-0.3c-0.23-1.42,2.18-1.72,3.08-1.56c0.49,0.09,1.25,0.26,1.25,0.87
				c0,0.18,0.03,0.66,0.36,0.48c0.29-0.16-0.04-0.67,0.1-0.86c0.67-0.96,2.86,0.05,3.59,0.37c1.27,0.55,2.53,1.23,3.95,1.19
				c-0.24,0.18-0.69,0.16-0.73,0.44c-0.06,0.4,0.35,0.35,0.63,0.33c0.59-0.05,1.23,0.04,1.78,0.23c-0.22,0.12-1.31,1.07-0.73,1.14
				c0.58,0.07,1.14,0.04,1.69,0.28c-1.2,0.7,0.12,1.37,0.88,1.46c1.18,0.15,1.96,0.81,2.72,1.65c-0.9,0.12-1.48,0.45-0.73,1.15
				c0.62,0.58,1.2,0.83,1.59,1.66c-0.58,0.03-2.32,0.34-1,0.97c0.74,0.35,1.34,1.04,1.81,1.69c-0.58,0.07-1.92,0.08-1.56,0.8
				c0.24,0.49,1.3,0.94,1.68,1.44c-1.31-0.03-1.15,0.29-0.37,1.08c0.59,0.59,1.06,1.27,1.54,1.95c-0.29,0.04-0.71-0.23-0.95-0.13
				c-0.54,0.22-0.23,0.17-0.17,0.58c0.09,0.68,0.45,1.39,0.56,2.1c-0.26-0.05-0.52-0.11-0.78-0.14c-0.24-0.02-0.65,0.28-0.28,0.38
				c0.58,0.16,1.27,0.23,1.79,0.53c1.15,0.67,1.62,2.33,1.69,3.56C67.26,34.83,66.57,34.6,66.96,35.61z M83.04,31.57
				c0.4,0.5-1.16,1.22-1.53,0.56c-0.17-0.31-0.89-1.66-1.17-1.44c-0.54,0.43,0.76,1.83,1.02,2.05c-0.41,0.26-0.85,0.39-1.3,0.17
				c-0.34-0.17-0.56-0.42-0.77-0.73c-0.16-0.22-0.18-0.91-0.31-1.04c-0.69-0.64-0.3,0.92-0.2,1.15c0.2,0.45,0.52,0.55,0.09,0.86
				c-0.28,0.19-0.85,0.04-1.11-0.11c-0.52-0.29-0.78-0.87-0.88-1.42c-0.04-0.2-0.43-0.42-0.59-0.2c-0.09,0.12,0.3,1.08,0.38,1.24
				c0.3,0.58-0.81,0.99-1.24,0.93c-0.32-0.04-0.64-0.15-0.85-0.39c-0.14-0.15-0.48-1.09-0.78-0.98c-0.66,0.26,0.51,1.28,0.47,1.51
				c-0.12,0.75-1.59,0.27-1.86-0.14c-0.25-0.38-0.36-1.56-0.78-0.42c-0.21,0.56-0.69,1.12-1.36,1.1c-0.39-0.01-0.42-0.23-0.71-0.32
				c-0.27-0.09-0.57,0.06-0.78,0c-0.53-0.15-0.66-1.1-1.05-1.68c-0.36-0.54-0.78-0.89-1.36-1.18c-0.27-0.13-0.45-1.7-0.6-2.06
				c-0.02-0.04-0.03-0.08-0.05-0.13c1.25,0.62,1.38-0.08,0.76-1.11c-0.41-0.68-0.93-1.31-1.49-1.87c0.43,0.13,1.46,0.41,0.94-0.41
				c-0.43-0.68-1.04-1.31-1.67-1.82c0.49-0.26,1.46-0.13,2.05-0.24c0.71-0.14,1.44-0.33,1.75-1c0.56-1.2,0.6-2.12,1.96-2.97
				c0.64-0.4,1.37-0.73,1.76-1.35c0.36-0.59,0.77-1.21,1.31-1.66c1.19-0.99,2.49-1.57,3.99-1.93c5.86-1.41,12.04-0.81,18.04-0.86
				c1.81-0.02,3.62-0.06,5.42-0.03c-0.86,2.36-5.5,2.59-7.51,2.39c-1.24-0.12-2.69-0.22-3.83-0.75c-0.73-0.33-0.75,0.24-0.08,0.54
				c0.6,0.27,1.28,0.39,1.91,0.56c-0.28,0.35-0.62,0.63-0.95,0.94c-1.57,1.2-3.65,0.71-5.21-0.29c-0.24-0.15-0.73-0.67-1.04-0.54
				c-0.58,0.24,0.48,0.81,0.64,0.9c0.75,0.46,1.51,0.83,2.33,1.14c-1.08,1.32-3.16,0.41-4.39-0.11c-0.27-0.12-0.58-0.46-0.83-0.52
				c-0.32-0.09-1.01,0.11-0.44,0.35c0.67,0.28,1.18,0.86,1.91,1.01c-0.76,0.98-2.9,0.47-3.86,0.07c-0.38-0.16-0.72-0.36-1.07-0.56
				c-0.44-0.26-0.6,0.21-0.2,0.48c0.74,0.49,1.58,0.73,2.42,0.99c-1.2,0.65-2.72,0.52-3.94,0.02c-0.24-0.1-0.5-0.35-0.76-0.32
				c-0.57,0.06,0.07,0.56,0.26,0.65c0.77,0.36,1.45,0.63,2.31,0.61c-0.9,0.87-2.57,1.09-3.67,0.43c-0.16-0.09-0.73-0.35-0.77-0.04
				c-0.04,0.32,0.67,0.56,0.89,0.68c0.63,0.32,1.55,0.31,2.23,0.2c-0.85,0.87-1.97,1.21-3.17,0.99c-0.92-0.17-0.95,0.27-0.07,0.47
				c0.6,0.14,1.27,0.12,1.88,0.03c-0.44,0.97-1.46,1.48-2.52,1.39c-0.48-0.04-1.46-0.71-1.85-0.64c-0.98,0.18,0.48,0.77,0.73,0.87
				c0.52,0.21,1.44,0.17,0.9,0.84c-0.3,0.37-1.13,0.5-1.56,0.38c-0.29-0.08-1.17-0.8-1.32-0.7c-0.28,0.18,0.19,1.06-0.07,1.42
				c-0.34,0.47-1.11,0.51-1.44,0.03c-0.46-0.68-0.51,0.29,0.02,0.71c0.41,0.33,1.25,0.2,1.61-0.15c0.62-0.6,0.07-0.98,1.1-0.81
				c0.6,0.1,1.12,0.13,1.65-0.22c0.68-0.45,0.53-0.65,1.22-0.1c1.03,0.81,2.31,1.34,3.64,1.2c-1.06,0.89-2.63,0.91-3.83,0.27
				c-0.2-0.11-0.6-0.69-0.88-0.54c-0.47,0.25,0.14,0.67,0.31,0.79c0.58,0.45,1.25,0.66,1.96,0.78c-1.26,0.41-1.83,0.38-3.02-0.1
				c-0.29-0.11-1.03-0.4-0.51,0.25c0.37,0.47,0.95,0.65,1.52,0.78c-0.5,0.68-1.35,0.92-2.12,0.6c-0.23-0.09-1.01-0.81-1.15-0.8
				c-0.45,0.03-0.41,0.68-0.75,0.94c-0.37,0.27-1.77-0.34-1.48,0.29c0.51,1.11,1.85,0.15,2.26-0.43c0.96,0.83,2.41,0.97,3.38,0.09
				c0.15-0.13,0.32-0.6,0.45-0.67c0.23-0.14,0.75-0.07,1.03-0.15c0.65-0.19,1.17-0.64,1.75-0.9c0.28-0.13,1.65-0.94,1.9-0.88
				c0.26,0.06,1.1,1.14,1.45,1.34c1.19,0.71,2.58,0.95,3.94,0.76C83.42,31.13,82.28,30.6,83.04,31.57z M76.22,23.63
				c0.54-0.23,1.02-0.53,1.32-1.05c1.92,1.39,3.94,2.09,6.32,1.96C81.75,26.59,77.56,26.62,76.22,23.63z M80.51,26.63
				c-1.58,1.3-4.67,1.46-6.15-0.09c-0.22-0.19-0.41-0.41-0.58-0.65c0.92-0.21,1.76-0.68,2.18-1.56
				C77.03,25.82,78.7,26.55,80.51,26.63z M82.06,23.93c-0.71-0.07-4.38-1.16-3.82-2.01c0.23-0.18,0.46-0.63,0.68-0.76
				c0.25-0.14,0.8-0.1,1.1-0.2c0.45-0.16,0.67-0.39,1.07-0.07c0.28,0.23,0.63,0.4,0.96,0.55c1.51,0.69,2.99,1.08,4.64,1.14
				C85.45,23.79,83.74,24.09,82.06,23.93z M85.34,21.93c-1.15-0.13-3.14-0.77-3.99-1.59c0.44,0.02,1.07-0.04,1.46-0.24
				c0.62-0.32,0.8-0.43,1.44-0.44c1.02-0.02,2.08,0.14,2.93-0.6c0.6-0.51,2.46,0.29,3.29,0.33c0.89,0.04,1.91,0.09,2.76-0.2
				C91.71,21.61,87.98,22.42,85.34,21.93z M88.72,18.5c0.64-0.21,1.49-0.37,1.94-0.91c0.23-0.27,0.52-0.59,0.81-0.79
				c0.42-0.3,0.15-0.32,0.78-0.26c1.66,0.17,3.62,0.29,5.22-0.31c-0.37,0.43-0.82,0.77-1.29,1.08
				C94.12,18.81,91.12,19.26,88.72,18.5z M78.87,28.07c0.27-0.15,1.72-0.85,1.88-0.75c0.74,0.45,1.45,0.92,2.23,1.29
				c0.78,0.33,1.57,0.62,2.42,0.68C83.83,30.78,79.71,30.18,78.87,28.07z M86.12,28.84c-1.02-0.11-1.95-0.35-2.91-0.71
				c-0.5-0.19-2.66-1.04-1.67-1.59c1.26-0.75,2.9,0.33,4.27,0.58c1.8,0.33,3.54,0.32,5.34,0.09C90.06,28.55,87.76,29.02,86.12,28.84
				z M85.32,26.54c-0.72-0.17-1.41-0.44-2.1-0.69c0.83-0.83,1.82-1.9,3-1.86c1.31,0.05,2.65,0.45,3.97,0.47
				c3.06,0.06,5.99-0.28,8.87-1.35C95.67,26.51,89.92,27.59,85.32,26.54z M95.97,23.47c-1.63,0.3-3.25,0.45-4.91,0.45
				c-1.49,0-2.96-0.44-4.44-0.47c0.49-0.34,0.98-1.06,1.64-0.99c0.8,0.09,1.6-0.35,2.34-0.54c0.92-0.38,1.99-0.98,2.63-1.76
				c0.48-0.6,0.58-0.61,1.32-0.39c0.57,0.17,1.15,0.26,1.74,0.33c2.52,0.31,4.99,0.05,7.4-0.72
				C102.16,21.69,98.59,22.99,95.97,23.47z M106.1,17.32c-2.99,2.9-8.29,2.75-11.98,1.68c1.05-0.49,2.03-0.98,2.99-1.63
				c0.4-0.27,0.75-0.65,1.11-0.98c0.38-0.35,1.1,0.02,1.59,0.1c2.44,0.4,4.53,0.35,6.97,0.12C106.55,16.85,106.34,17.09,106.1,17.32
				z M98.99,15.72c0.48-0.32,0.98-0.64,1.42-1.03c0.3-0.27,0.6-0.87,0.92-1.05c0,0,2.42-0.02,3.22,0.01
				c2.23,0.06,6.83-0.07,6.83-0.07C108.9,16.77,102.5,16.59,98.99,15.72z"/>
			<path class="st7" d="M63.25,28.3c-0.76-0.57-0.18,0.72-0.36,1.12c-0.43-0.58-1.09-1.06-1.85-1c0.01,0.47,0.49,0.35,0.78,0.67
				c0.41,0.43,0.64,0.76,0.9,1.28c0.3,0.6,0.63-0.53,0.66-0.74C63.44,29.15,63.51,28.72,63.25,28.3z"/>
			<path class="st7" d="M64.71,31.64c-0.27,0.1,0,0.79,0.04,1.05c-0.55-0.21-0.96-1.08-1.67-0.85c0.12,0.38,0.41,0.43,0.68,0.68
				c0.31,0.3,0.29,0.77,0.53,1.02c0.7,0.75,0.97-0.54,0.88-1.22C65.12,32.08,65,31.53,64.71,31.64z"/>
			<path class="st7" d="M53.84,54.63c0.12-0.09,0.2-0.22,0.22-0.36c0.04-0.29-0.08-0.52-0.34-0.69c-0.19-0.12-0.46-0.2-0.83-0.26
				l-0.52-0.08l-0.38,2.52l0.87,0.13c0.13,0.02,0.26,0.03,0.37,0.03c0.55,0,0.91-0.22,0.97-0.61C54.24,55.06,54.1,54.8,53.84,54.63z
				 M52.95,53.87c0.47,0.07,0.5,0.2,0.48,0.32c-0.01,0.1-0.06,0.15-0.15,0.17c-0.11,0.03-0.28,0.01-0.4,0L52.95,53.87z M53.55,55.21
				c-0.03,0.22-0.37,0.22-0.65,0.17l-0.17-0.03l0.08-0.52l0.11,0.02c0.2,0.03,0.37,0.08,0.48,0.14
				C53.57,55.09,53.56,55.18,53.55,55.21z"/>
			<path class="st7" d="M51.59,33.76c0.23-0.67,0.49-1.17,1.12-1.52c-0.4-0.81-1.73,1.37-1.59,2.03c0.17,0.8,0.36,0.28,0.8-0.06
				c0.44-0.34,0.94-0.44,1.46-0.62C53.1,32.97,52.06,33.61,51.59,33.76z"/>
			
				<rect x="49.04" y="53.83" transform="matrix(0.1937 -0.9811 0.9811 0.1937 -12.5632 93.0323)" class="st7" width="2.55" height="0.66"/>
			<path class="st7" d="M61.13,54.33l-0.24-0.03c-0.33-0.05-0.37-0.13-0.37-0.15c-0.01-0.05,0.05-0.11,0.09-0.13
				c0.07-0.05,0.18-0.09,0.29-0.11c0.19-0.03,0.31,0.01,0.43,0.11l0.07,0.07l0.53-0.32l-0.12-0.12c-0.23-0.23-0.58-0.32-0.97-0.27
				c-0.27,0.04-0.51,0.13-0.69,0.27c-0.21,0.16-0.31,0.37-0.28,0.59c0.06,0.46,0.61,0.55,0.87,0.6l0.23,0.04
				c0.28,0.04,0.47,0.1,0.49,0.24c0.02,0.17-0.16,0.34-0.41,0.37c-0.17,0.02-0.33-0.01-0.43-0.09c-0.05-0.04-0.08-0.09-0.09-0.14
				l-0.02-0.16l-0.68,0.19l0.04,0.13c0.12,0.37,0.52,0.61,1,0.61c0.07,0,0.13,0,0.2-0.01c0.65-0.09,1.1-0.51,1.03-0.99
				C62.06,54.52,61.56,54.39,61.13,54.33z"/>
			<path class="st7" d="M44.21,53.05c-0.08,0.39-0.31,0.53-0.75,0.44c-0.24-0.05-0.39-0.14-0.47-0.28
				c-0.06-0.11-0.07-0.25-0.03-0.43l0.31-1.45l-0.65-0.14l-0.33,1.54c-0.06,0.28,0.01,0.57,0.2,0.8c0.19,0.23,0.49,0.39,0.86,0.47
				c0.14,0.03,0.27,0.04,0.4,0.04c0.56,0,0.98-0.28,1.08-0.77l0.33-1.54l-0.65-0.14L44.21,53.05z"/>
			<path class="st7" d="M57.67,53.72l0.01,1.48c0,0.4-0.19,0.59-0.63,0.59c-0.24,0-0.42-0.05-0.52-0.17
				c-0.08-0.09-0.12-0.23-0.13-0.41l-0.01-1.48l-0.67,0.01l0.02,1.58c0,0.29,0.13,0.55,0.37,0.73c0.23,0.18,0.55,0.27,0.92,0.27
				c0.01,0,0.02,0,0.02,0c0.78-0.01,1.3-0.42,1.29-1.03l-0.02-1.58L57.67,53.72z"/>
			<path class="st7" d="M68.05,52.18L67.4,52.3l0.27,1.45c0.07,0.4-0.09,0.61-0.52,0.69c-0.24,0.04-0.42,0.02-0.54-0.07
				c-0.1-0.08-0.16-0.2-0.2-0.38l-0.27-1.45l-0.65,0.12l0.29,1.55c0.05,0.29,0.23,0.52,0.49,0.66c0.18,0.09,0.39,0.14,0.62,0.14
				c0.12,0,0.24-0.01,0.36-0.04c0.77-0.14,1.2-0.64,1.09-1.24L68.05,52.18z"/>
			<polygon class="st7" points="40.31,50.79 39.66,50.68 39.25,53.2 40.87,53.46 40.95,52.94 39.99,52.78 			"/>
			<polygon class="st7" points="30.99,54.39 30.71,53.87 31.84,53.27 31.6,52.81 30.47,53.4 30.29,53.07 31.46,52.46 31.21,51.99 
				29.46,52.91 30.64,55.17 32.4,54.25 32.15,53.78 			"/>
			<path class="st7" d="M63.94,109.04c5.43-5.84,9.83-12.7,12.37-20.28c2.4-7.2,3.56-15.48,1.8-22.95
				c-6.34,2.03-13.12,3.75-19.78,3.97c-7.23,0.23-14.37-1.83-21.28-3.78c-0.17-0.09-0.41-0.13-0.59-0.18
				c-1.35,6.23-0.82,12.93,0.71,19.08c1.84,7.38,5.41,14.22,10.1,20.18c2.38,3.03,5.04,5.84,7.9,8.42c0.46,0.42,0.82,0.83,1.29,1.24
				c0.49,0.42,0.64,0.77,1.2,0.29c0.74-0.63,1.47-1.27,2.18-1.92C61.25,111.8,62.62,110.45,63.94,109.04z M36.91,66.58
				c3.31,1.07,6.75,1.88,10.15,2.59c3.72,0.77,7.51,1.34,11.32,1.21c3.78-0.12,7.52-0.82,11.19-1.67c-2.1,2.1-4.2,4.2-6.3,6.3
				c-0.38,0.38-0.76,0.76-1.14,1.14c0,0-1.4-0.31-2.47-0.51c-2.5-0.47-5.51-0.44-7.65,1.13c-1.11,0-2.39,0.96-3.09,1.51
				c-0.93,0.72-1.73,1.61-2.39,2.57c-1.39,2.02-2.1,4.44-2.3,6.89c-0.1,1.19-0.03,2.41,0.25,3.58c0.16,0.65,0.62,1.86,0.62,1.86
				s-2.05,2.05-2.96,2.96C37.51,87.41,34.91,76.42,36.91,66.58z M56.23,82.05c-2.2,2.2-4.4,4.41-6.6,6.61
				c-0.94-3.3-0.79-7.26,1.32-10.09c0.97-1.3,2.28-2.2,3.89-2.5c1.11-0.2,3.52-0.42,4.58,0.07C57.05,76.92,55.73,79.41,56.23,82.05z
				 M46.89,90.51c-0.03-0.02-0.06-0.04-0.09-0.07c-1.43-1.19-2.06-2.83-1.79-4.68c0.48-3.35,3.2-7.17,6.39-8.44
				c-2.9,2.76-3.44,8.08-2.12,11.7c-0.38,0.36-1.46,1.46-1.84,1.83L46.89,90.51z M47.11,91.18c-0.55,0.55-1.06,1.06-1.61,1.62
				c-0.59-1.31-0.81-2.94-0.79-4.36C45.16,89.48,46.06,90.68,47.11,91.18z M61.65,76.64l-5.02,5.02
				C56.45,78.61,58.22,75.96,61.65,76.64z M47.25,104.1c-1.5-1.96-2.88-4.01-4.11-6.15c-0.28-0.48-0.78-1.38-0.78-1.38
				c0.73-0.73,1.67-1.67,2.4-2.4c6.29-6.29,12.58-12.58,18.87-18.87c2.13-2.13,6.57-6.64,6.74-6.74c0,0,2.18-0.58,3.16-0.83
				c1.38-0.35,2.76-0.76,4.13-1.18c0.18,0.87,0.35,1.78,0.44,2.67c0.21,2.01,0.21,2.27,0.3,3.75c0,0-0.77,0.77-1.05,1.05
				c-1.34,1.34-2.68,2.68-4.02,4.02c-3.03,3.02-6.05,6.05-9.08,9.07c-4.24,4.23-8.47,8.48-12.71,12.71
				C50.16,101.29,48.68,102.68,47.25,104.1z M54.86,97.99c2.19-0.14,4.13-0.91,5.45-2.87c0.25,1.94,0.16,4.87-2.1,5.58
				c-2.24,0.7-4.04-0.17-6.15-0.77c0.39-0.39,0.77-0.77,1.16-1.16C53.88,98.1,53.9,98.05,54.86,97.99z M54.45,97.53
				c1.69-1.7,3.39-3.39,5.08-5.09c0.9,1.87,0.25,3.23-1.55,4.23C56.91,97.27,55.67,97.53,54.45,97.53z M59.9,92.07
				c1.2-1.2,2.4-2.41,3.59-3.61c1.77,2.58,3.26,5.87,1.78,8.94c-0.95,1.97-4.17,3.4-6.36,3.47C61.63,99.5,61.2,94.39,59.9,92.07z
				 M63.83,88.12c0.78-0.79,2.12-2.12,2.9-2.91c0,0-0.1-0.2,0.35,0.27c0.76,0.8,1.29,1.81,1.71,2.82c0.84,2.02,0.67,3.89-0.3,5.83
				c-0.51,1.02-1.47,2.6-2.65,3.13C67.12,94.33,65.78,90.46,63.83,88.12z M67.1,84.85c0.55-0.55,1.1-1.1,1.64-1.64
				c0.93,1.67,1.55,5.01,1,6.84C69.53,88.16,68.46,86.17,67.1,84.85z M57.64,114.24c-0.57,0.48-0.69,0.02-1.18-0.41
				c-0.82-0.71-1.62-1.44-2.41-2.19c-1.7-1.61-3.31-3.31-4.82-5.1c-0.16-0.19-1.76-2.03-1.69-2.1c0.19-0.19,0.38-0.38,0.57-0.57
				c0.85-0.85,1.69-1.69,2.54-2.54c0.77-0.77,0.79-1.17,1.81-0.78c3.09,1.19,6.7,1.16,9.78-0.04c1.68-0.65,2.8-2.01,4.2-3.06
				c1.22-0.9,2.06-2.2,2.68-3.56c0.49-0.97,0.7-1.93,0.88-2.94c0.15-0.88,0.39-1.56,0.39-2.46c0-1.81-0.38-4.03-1.32-5.62
				c3.06-3.07,6.25-6.28,9.31-9.34c-0.02,5.55-1.19,11.21-3.13,16.4c-2.67,7.16-6.99,13.63-12.22,19.18
				c-1.38,1.47-2.83,2.87-4.34,4.21C58.34,113.63,57.99,113.94,57.64,114.24z"/>
			<path class="st7" d="M36.55,50.44l-0.59-0.01l-0.03,2.55l0.67,0.01l0.01-0.96l0.1,0c0.35,0,0.64-0.05,0.85-0.16
				c0.27-0.13,0.41-0.35,0.41-0.63C37.97,50.55,37.21,50.45,36.55,50.44z M37.14,51.45c-0.16,0.05-0.37,0.06-0.52,0.06l0.01-0.55
				c0.63,0.01,0.71,0.16,0.7,0.27C37.32,51.31,37.3,51.4,37.14,51.45z"/>
			<path class="st7" d="M48.55,53.3c0.06-0.28-0.07-0.57-0.35-0.76l0,0c-0.25-0.17-0.58-0.25-0.85-0.3l-0.6-0.13l-0.54,2.49
				l0.65,0.14l0.2-0.92l0.69,1.11l0.84,0.18l-0.81-1.24C48.18,53.84,48.47,53.63,48.55,53.3z M47.17,53.3l0.12-0.55
				c0.22,0.05,0.38,0.11,0.49,0.17c0.16,0.1,0.16,0.18,0.15,0.25C47.89,53.3,47.78,53.43,47.17,53.3z"/>
			<path class="st7" d="M61.2,22.75c-0.25-0.23-0.94-0.72-1.32-0.61c-0.7,0.21,0.61,0.67,0.88,0.88c0.27,0.21,0.8,1.17,0.96,0.4
				c0.1-0.51-0.14-1.03-0.32-1.49c-0.1-0.16-0.26-0.28-0.43-0.35C60.67,21.96,61.19,22.29,61.2,22.75z"/>
			<path class="st7" d="M59.47,19.58c0.85,0.37,1.94,1.44,1.65-0.26c-0.12-0.29-0.51-1.02-0.94-0.95c-0.49,0.08,0.43,0.82,0.48,1.15
				c-0.44-0.12-0.8-0.35-1.28-0.34c-0.19,0.01-0.6,0-0.43,0.28C59.12,19.72,59.26,19.48,59.47,19.58z"/>
			<path class="st7" d="M54.54,24.89c0.09-0.08,1.94-0.8,1.05-0.8c-0.63,0-1.09,0.39-1.65,0.53c0.1-0.58,0.64-0.8,0.78-1.31
				C53.51,23.31,52.85,26.42,54.54,24.89z"/>
			<path class="st7" d="M52.16,25.58c0.04-0.5-1.22,0.1-1.43,0.17c0.18-0.84,0.82-1.37,1.09-2.13c-0.7-0.74-2.53,3.23-1.08,2.77
				C50.97,26.33,52.15,25.7,52.16,25.58z"/>
			<path class="st7" d="M60.69,25.22c-0.09,0.49,1.08,0.94,1.42,1.4c0.08,0.11,0.41,0.78,0.54,0.79c0.35,0.02,0.42-0.63,0.38-0.87
				c-0.01-0.38-0.08-1.04-0.4-1.28c-0.57-0.42-0.07,0.82-0.1,1C62.02,25.84,61.42,25.17,60.69,25.22z"/>
			<polygon class="st7" points="69.55,51.64 70.02,54.39 70.68,54.28 70.41,52.74 73.08,54.1 72.61,51.37 71.96,51.48 72.22,53.01 
							"/>
			<polygon class="st7" points="79.53,52.58 79.96,54.26 81.27,53.12 81.19,54.47 81.85,54.67 81.95,51.72 80.3,53.17 79.76,51.05 
				78.17,53.53 78.83,53.73 			"/>
			<path class="st7" d="M75.66,53.63c0.05,0,0.09,0,0.14,0c0.38-0.02,0.7-0.14,0.92-0.34c0.22-0.2,0.33-0.47,0.31-0.76l-0.1-1.57
				L76.27,51l0.1,1.48c0.03,0.4-0.16,0.6-0.6,0.62c-0.44,0.03-0.65-0.14-0.67-0.54l-0.1-1.48l-0.66,0.04l0.1,1.57
				C74.47,53.27,74.96,53.63,75.66,53.63z"/>
			<path class="st7" d="M51.04,11.63c-0.39-0.13-1.52-0.28-1.57,0.28c-0.04,0.48,0.43,1.4,0.91,1.44c0.07-0.53-0.33-0.92-0.59-1.34
				c0.68-0.34,0.67,0.56,1,0.88c0.3,0.29,0.88,0.34,1.27,0.32c0.62-0.03,0.9-0.07,1.52,0.07c0.41,0.09,0.92,0.13,0.97-0.39
				C53.25,13.09,52.21,12.03,51.04,11.63z M50.81,12.09c0.24-0.01,0.2,0.11,0.31,0.28c0.24,0.32,0.65,0.32,1,0.19
				C52.12,13.31,50.87,12.7,50.81,12.09z"/>
		</g>
	</g>
</g>
</svg>
