<svg id="Layer_1" data-name="Layer 1" xmlns="http://www.w3.org/2000/svg" width="287.01919" height="39.69778" viewBox="0 0 287.01919 39.69778">
  <defs>
    <style>
      .cls-1 {
        fill: #161615;
      }
    </style>
  </defs>
  <g>
    <path class="cls-1" d="M274.15277,39.69778h1.72574v-11.441L287.01919,40.297V24.46449h-1.72574V36.03593l-11.14068-12.168Zm-8.71585-11.82445,2.42881,5.6033h-4.86026Zm0-4.00539L258.534,39.69778h1.96009l1.9814-4.66586h5.94419l1.98138,4.66586h1.96009Zm-10.5255,15.82984h1.811V24.46449h-1.811Zm-12.50622,0h1.78964V31.49524l6.86164,8.20254h2.34358l-7.17987-8.373,6.54074-6.85765h-2.17315l-6.3916,6.77509V24.46449h-1.78964Zm-15.979,0H228.152v-11.441L239.296,40.297V24.46449h-1.72574V36.03593l-11.14267-12.168Zm-10.99353,0h8.03344V38.01466H217.245V32.17434h6.22115V30.49389H217.245V26.1263h6.22115V24.46183H215.434Zm-11.86706,0h3.17449c2.17315,0,3.66185-.06658,4.77239-1.15115a4.508,4.508,0,0,0,1.257-3.17382,3.47829,3.47829,0,0,0-2.91883-3.74973,3.028,3.028,0,0,0,2.25836-3.15319,3.93676,3.93676,0,0,0-1.53131-3.23907c-.95874-.70241-2.17314-.76633-3.835-.76633h-3.17449ZM205.334,32.5605h1.93877a4.36966,4.36966,0,0,1,2.32229.4048,2.57,2.57,0,0,1,1.257,2.4075,2.72572,2.72572,0,0,1-.99869,2.23706,5.59985,5.59985,0,0,1-3.11057.51133h-1.40615Zm0-6.51942h1.40615c2.4075,0,3.51538.44741,3.51538,2.64186,0,1.85356-1.06527,2.45011-3.51538,2.45011H205.334Zm-11.58809,13.6567h7.56338V37.97205h-5.75245V24.46449h-1.811Zm-14.9803-15.23329v9.48086c0,4.11192,1.93878,6.15723,5.90158,6.15723s5.90158-2.04531,5.90158-6.15723V24.46449h-1.83226v9.48086c0,3.046-1.2357,4.47411-4.06932,4.47411s-4.06931-1.42812-4.06931-4.47411V24.46449Zm-8.6899,7.37163v1.61921H174.422a5.26439,5.26439,0,0,1-5.49677,5.00674,5.8668,5.8668,0,0,1-5.96548-6.22115c0-3.85626,2.42881-6.47681,5.96548-6.47681a5.36428,5.36428,0,0,1,4.90021,2.769l1.51268-1.21373a7.21416,7.21416,0,0,0-6.47682-3.1958,7.56337,7.56337,0,0,0-5.41154,1.98139,8.05606,8.05606,0,0,0-2.4501,6.13593,7.61932,7.61932,0,0,0,3.92017,6.96683,8.03074,8.03074,0,0,0,3.835.89482c4.64456,0,7.606-2.89752,7.606-7.75513v-.51133Zm-23.555,7.86166h8.03209V38.01466h-6.22114V32.17434h6.22114V30.49389h-6.22114V26.1263h6.22114V24.46183h-8.03209Zm-8.77713,0h1.83226V26.19021h4.2817V24.46449h-10.421v1.72573h4.30367Zm-8.29109-8.45554-2.17315-.96207c-1.38484-.59921-2.04531-1.36287-2.04531-2.44944a2.17715,2.17715,0,0,1,2.13321-2.2202q.09459-.00189.18907.00444a2.92989,2.92989,0,0,1,2.57794,1.747l1.49138-.95874a4.09,4.09,0,0,0-3.94149-2.301c-2.53533,0-4.28237,1.61921-4.28237,3.74973,0,1.85356.98005,3.17449,3.004,4.02671l1.85356.78763c1.57659.68243,2.36489,1.68378,2.36489,3.04732a2.7992,2.7992,0,0,1-3.04666,2.83294c-1.53133,0-2.57794-.95807-3.02536-2.81163l-1.64051.8096a4.86715,4.86715,0,0,0,9.54477-1.12919,4.3359,4.3359,0,0,0-3.004-4.17584m-21.15615-6.77507v9.48086c0,4.11192,1.93878,6.15723,5.90157,6.15723s5.90157-2.04531,5.90157-6.15723V24.46449h-1.83226v9.48086c0,3.046-1.23571,4.47411-4.06931,4.47411s-4.06932-1.42812-4.06932-4.47411V24.46449ZM97.6869,38.39816a6.10531,6.10531,0,0,1-4.41019-1.85356,6.18589,6.18589,0,0,1-1.83226-4.43151,6.24276,6.24276,0,0,1,10.634-4.49273l.01862.01862a6.31256,6.31256,0,0,1-4.4102,10.75918m8.13863-6.28507a7.75581,7.75581,0,0,0-2.36489-5.66721,8.3124,8.3124,0,0,0-11.52617,0,7.89761,7.89761,0,0,0-.14516,11.168q.07164.07352.14516.14515a8.25581,8.25581,0,0,0,11.52617,0,7.75914,7.75914,0,0,0,2.36489-5.64591m-24.4372,7.58469h7.56339V37.97205H83.19928V24.46449h-1.811ZM72.46141,27.87333l2.42881,5.6033H70.02994Zm0-4.00539L65.56049,39.69778h1.96009L69.502,35.03192h5.94418l1.9794,4.66586h1.96009Zm-8.22385,4.23975V25.7428a8.57471,8.57471,0,0,0-5.00674-1.6405,7.865,7.865,0,0,0-5.66722,2.23639,8.09738,8.09738,0,0,0,1.044,12.36041A7.85643,7.85643,0,0,0,59.103,40.10525a8.73916,8.73916,0,0,0,5.13458-1.66448V36.03593a6.35829,6.35829,0,0,1-4.98544,2.4075,6.19652,6.19652,0,0,1-5.13458-2.70578,6.08461,6.08461,0,0,1-1.044-3.60059,6.20381,6.20381,0,0,1,1.747-4.49542,6.13524,6.13524,0,0,1,4.34828-1.85889,6.53342,6.53342,0,0,1,5.07066,2.32294"/>
    <path class="cls-1" d="M73.44145,12.64c0,3.04666-1.23571,4.47412-4.06931,4.47412S65.30283,15.6867,65.30283,12.64V3.15918H63.47057V12.64c0,4.11192,1.93878,6.15723,5.90157,6.15723S75.27371,16.752,75.27371,12.64V3.15918H73.44146Z"/>
    <path class="cls-1" d="M89.59021,14.73062,78.44754,2.56263V18.39247h1.72572V6.95152L91.316,18.99169V3.15918H89.59022Z"/>
    <path class="cls-1" d="M164.20074,5.14323a8.3124,8.3124,0,0,0-11.52617,0,7.89761,7.89761,0,0,0-.14516,11.168q.07164.07352.14516.14515a8.2558,8.2558,0,0,0,11.52617,0,7.94755,7.94755,0,0,0,.07383-11.23928Q164.23791,5.1799,164.20074,5.14323ZM162.8372,15.242a6.26717,6.26717,0,1,1-.01862-8.92424l.01862.01862a6.24645,6.24645,0,0,1,1.83226,4.47412,6.14928,6.14928,0,0,1-1.83226,4.42884Z"/>
    <path class="cls-1" d="M124.23264,5.034a7.71121,7.71121,0,0,0-2.38619,5.81635,7.72316,7.72316,0,0,0,3.43015,6.54073,7.8463,7.8463,0,0,0,3.39953,1.32693v1.34489c.17177-.01731.52264-.01731.66046-.01731.75767,0,1.1192.22371,1.1192.72305,0,.466-.34421.68909-1.016.68909a10.12806,10.12806,0,0,1-2.064-.3269v.84356a8.2632,8.2632,0,0,0,2.16982.37883c1.37819,0,2.10124-.56792,2.10124-1.58458,0-.98137-.63716-1.51534-1.87754-1.51534h-.241v-.46605c.08255,0,.16378.00932.24634.00932a8.73921,8.73921,0,0,0,5.13458-1.66448V14.73062a6.35828,6.35828,0,0,1-4.98545,2.4075,6.19649,6.19649,0,0,1-5.13458-2.70577,6.08466,6.08466,0,0,1-1.044-3.6006,6.20387,6.20387,0,0,1,1.747-4.49542,6.13457,6.13457,0,0,1,4.34363-1.85889,6.53275,6.53275,0,0,1,5.07066,2.32228V4.4375A8.57468,8.57468,0,0,0,129.89985,2.797,7.863,7.863,0,0,0,124.23264,5.034Z"/>
    <path class="cls-1" d="M51.88048,18.39247h1.811V10.869h6.22115V9.18858H53.69143V4.821h6.22115V3.15651h-8.0321Z"/>
    <path class="cls-1" d="M107.5719,18.39247H109.532l1.98139-4.66586h5.94418l1.98139,4.66586H121.399L114.47482,2.56263Zm4.47411-6.22115,2.42881-5.6033,2.4288,5.6033Z"/>
    <path class="cls-1" d="M136.12034,18.39247h1.96009l1.9814-4.66586H146.006l1.9794,4.66586h1.96009L143.02127,2.56263Zm4.47412-6.22115,2.4288-5.6033,2.4288,5.6033Z"/>
    <path class="cls-1" d="M104.46131,4.58663c-1.85356-1.42745-4.048-1.42745-6.90291-1.42745H94.63957V18.39247h3.57929c2.47142,0,4.47412-.06658,6.24246-1.42745a7.38742,7.38742,0,0,0,2.66317-6.17854A7.43021,7.43021,0,0,0,104.46131,4.58663Zm-1.15048,11.01485c-1.27832,1.06526-3.08927,1.08657-5.68852,1.08657H96.47182V4.8423h1.15049c2.62055,0,4.43151.04261,5.68852,1.10787a5.9369,5.9369,0,0,1,1.91748,4.815A6.02061,6.02061,0,0,1,103.31083,15.60148Z"/>
    <path class="cls-1" d="M145.45206.002h-.71772a.7883.7883,0,0,1-.76766.59921,1.76878,1.76878,0,0,1-.43409-.08389l-.79895-.23369A1.55113,1.55113,0,0,0,142.249.21705c-.799,0-1.36819.5839-1.5686,1.66913h.71372a.769.769,0,0,1,.73237-.5506,1.41939,1.41939,0,0,1,.39948.06657l.7843.217a2.09213,2.09213,0,0,0,.53263.08323c.81826,0,1.38551-.5839,1.60256-1.70243"/>
    <path class="cls-1" d="M23.86267,40.70446c-11.01085,0-19.63617-8.30308-19.63617-18.90247,0-11.3797,8.2558-19.64083,19.63617-19.64083,7.08668,0,12.51687,2.83493,16.14543,8.42625L38.3869,11.6327c-3.293-5.07666-8.04675-7.54541-14.52423-7.54541C13.60216,4.08729,6.158,11.53749,6.158,21.802c0,9.52081,7.77577,16.97767,17.70471,16.97767,8.4096,0,15.02024-5.20183,16.12212-12.51687H34.37484V24.342h7.73183l-.07923,1.036c-.68842,8.88032-8.32838,15.32651-18.16477,15.32651"/>
    <path class="cls-1" d="M24.08571,13.38506c0-.09055-.3016-.17311-.26632-.03262a.7534.7534,0,0,0,.26632.03262"/>
    <path class="cls-1" d="M7.48488,22.88456a.05119.05119,0,0,1-.03263-.01065.61509.61509,0,0,1-.37284.18642c-.17177,0-.26631-.1711-.41612-.15379.08123.38083.7843.42943.82159-.022"/>
    <path class="cls-1" d="M6.87635,18.505h.006c.20706-.21438.42011-.42278.61918-.65247a4.68022,4.68022,0,0,0,.52332-.67379c.237-.41145-.31293-.19973-.16845-.20772a.18841.18841,0,0,1,.04527.17244.94675.94675,0,0,1-.26631.42544c-.26632.28762-.53263.538-.78164.79162-.03462.04661-.06658.20773.02264.14781"/>
    <path class="cls-1" d="M6.859,19.08024l.01331-.01465c.261-.34222.50667-.64981.75834-.9401.21238-.24368.59921-.69375.77365-.95408.05326-.08055.14913-.19308.0992-.30493-.13848.08988-.17111.257-.247.38017a5.76971,5.76971,0,0,1-.47271.56059c-.31625.33623-.67178.65048-.98.99869-.07058.1012-.13316.47671.05526.27431"/>
    <path class="cls-1" d="M39.47014,20.15682a2.95553,2.95553,0,0,0-.21971-.3289,2.38467,2.38467,0,0,0-.68976-.504,2.67181,2.67181,0,0,0-.482-.05527,2.269,2.269,0,0,1-.47138-.07656,4.09915,4.09915,0,0,0-.789-.30693c-.5646-.05127-.74636.53263-1.293.55926a4.8168,4.8168,0,0,0-.17577-.60254c-.08056-.17577-.24235-.33289-.26232-.51532a.73238.73238,0,0,1,.06658-.30693,1.713,1.713,0,0,0,.022-.27364,4.14921,4.14921,0,0,0-.14315-1.56727,5.56846,5.56846,0,0,0-.33755-.73969h0a.49064.49064,0,0,1-.06658-.17044c.01132-.09854.26165-.19242.37284-.25167.31159-.16645.51466-.26632.79895-.44941.1245-.07989.245-.245.38282-.241.09255,0,.14914.08123.231.13316h0l.00467-.01265a.70433.70433,0,0,0,.1478.08922c.09587.03928.34755.08855.37284-.03329.04-.18909-.43675-.16312-.41612-.3835.02064-.23369.43477-.07257.56992-.09853.21039-.53863-.24634-.74968-.55993-.95342A4.97421,4.97421,0,0,0,36.03,12.7499a10.97155,10.97155,0,0,0-1.12852-.51465.67311.67311,0,0,0-.62451-.42744c-.11918-.11252-.08389-.36286-.219-.43876-.10519-.05792-.26632.00666-.39482.044a2.45868,2.45868,0,0,0-.6791.285c-.09321.06059-.22837.19974-.18908.26632s.16844-.03129.243-.0779a1.58944,1.58944,0,0,1,.253-.13315c.14714-.05926.43476-.1791.51732-.07657.11917.14248-.19974.21106-.32025.26632-.10187.04394-.17111.03328-.2084.09853-.0739.13316.014.31359-.1205.36153a.28767.28767,0,0,1-.18642-.02131c-.215-.08589-.3815-.32424-.62452-.38416.02863.16578-.06658.26632-.16445.39481-.06125.07723-.14448.17244-.20772.18642-.17378.03662-.253-.07923-.34089-.16445-.11185-.11052-.26632-.22038-.30626-.36152-.05659-.2084.14581-.3542.12117-.49335-.0233-.12517-.251-.13316-.41678-.15314a4.84252,4.84252,0,0,0-.504-.06657,1.75239,1.75239,0,0,0-.745.15313c-.09987.0466-.28163.10453-.25233.18642s.2297-.0293.33955-.07657a2.16386,2.16386,0,0,1,1.09922-.024c.004.0546-.13316.17577-.26632.18842-.05792.00533-.12983-.022-.19973-.022-.22571,0-.5.06658-.50534.16844s.15513.225.31892.20374c.06058-.00733.11584-.06658.18642-.06658.05459,0,.11984.06125.18575.06658s.14581-.05127.20839-.04328a1.0892,1.0892,0,0,1,.20773.10919c.08189.04394.14847.08256.20839.12051.09721.06125.31758.2237.28563.36152-.05659.24235-.57591-.014-.69109-.01065s-.32824.1498-.4048-.01132c-.02064-.0992.04461-.16378.01131-.241-.07523-.03862-.09121.04793-.17643.03329-.14581-.16645-.221-.06658-.4048-.10986a1.08327,1.08327,0,0,1-.39482-.29561c-.08522-.10386-.10386-.24768-.20839-.25234a.73236.73236,0,0,0-.20772.09854,1.70241,1.70241,0,0,0-.73237.85488c-.06658.13715-.14714.34488-.29562.33955s-.30692-.23436-.36285-.3835a1.51408,1.51408,0,0,0-.06658-.241c-.06258-.10054-.20906-.13316-.28429-.2297a.8283.8283,0,0,1-.12051-.27431c.0273-.13316.17311-.2297.15247-.36152-.01465-.09654-.227-.16445-.35021-.219a2.06775,2.06775,0,0,0-.42677-.15379,2.11154,2.11154,0,0,0-.67977.04394c-.18509.03129-.49069.08789-.43543.21572s.19974-.01465.293-.05127a1.84045,1.84045,0,0,1,.77831-.12051c.13316.02464.63383.241.54794.40547-.07523.14248-.29494-.08788-.36218-.13316-.17045-.006-.32358-.03462-.50334-.03329-.16379,0-.4108.02-.43943.13316-.02263.09521.09588.23836.19974.26632s.227-.02663.30693.03262c.04661.04861.00866.20906.06658.21905s.12717-.16778.25233-.18642a.59918.59918,0,0,1,.39415.12051c.04994.05259.06658.19507.09854.24168.07856.1265.23036.14181.23036.26631,0,.10986-.13316.20374-.26632.21905-.15313.018-.34887-.10187-.39281-.06658s.05126.10453.08589.14581a1.094,1.094,0,0,1,.27364.53663,1.06928,1.06928,0,0,1-.27364.82225.87624.87624,0,0,1-.60321.09854,1.19854,1.19854,0,0,1-.36152-.36153c-.03063-.04727-.06259-.13848-.11652-.13316s-.00333.18576-.00333.18576a2.61993,2.61993,0,0,0,.20773.41612c.07923.11185.20906.17843.285.2743a3.564,3.564,0,0,1,.34954.6112.21379.21379,0,0,1-.01.1012c-.02131.06658-.26632.08589-.40614.09853-.66579.05993-1.30229.11252-1.96075.15314-.35087.0213-.61053.0486-.79895-.10919a.82167.82167,0,0,1-.10253-.10853h0a.53992.53992,0,0,1-.13649-.31026c.02-.13915.33889-.19041.49335-.25166.26166-.1052.56126-.33889.92012-.25234.13716.03329.476.271.54728.022-.12317-.08122-.38948-.08122-.39348-.25233,0-.10253.10919-.18909.219-.20773.17443-.03.39082.09787.526.01065.04261-.13316-.01931-.245,0-.38349a1.61731,1.61731,0,0,0,.06658-.27364c-.01665-.281-.29694-.39948-.514-.49336-.14248-.06058-.34621-.11385-.36219-.25166a.42809.42809,0,0,1,.21971-.37285c.07124-.022.19974.01532.295,0,.16312-.0253.31958-.21172.46073-.19973s.2237.26631.36751.17244-.09188-.11186-.13715-.17244a.369.369,0,0,0-.01132-.13316c-.29295-.13316-.32224-.53263-.62451-.65714a3.64858,3.64858,0,0,0-.86553.723c-.07657.10386-.19974.35819-.34022.37284-.1791.01865-.45873-.21571-.54728-.29627-.14914-.13316-.31092-.38749-.46006-.47072-.11585-.06658-.63117-.1285-.63583-.285a.11175.11175,0,0,1,.00466-.02863c.506-.13915.95475-.26232,1.2417-.34221,1.0919-.30427,5.62394-1.60389,6.03806-1.72307l1.46474-.42144s.19574-.17378.028-.20707c-.12583.034-.84355.24235-.84355.24235s-5.6306,1.62053-6.37894,1.84024c-.26033.07657-.81093.229-1.42812.39948.01131-.06658-.04927-.08922-.19108-.14049h0c-.10453-.0233-.21239-.06657-.31426-.08855a.75416.75416,0,0,0-.08322-.01464l-.03063-.00333a2.39687,2.39687,0,0,0-1.07592.19973c-.08988.04195-.25633.15114-.241.21905s.13315-.02663.18642-.0546a2.13046,2.13046,0,0,1,.63516-.23036c.22237-.036.8622-.08256.82225.1751-.022.13316-.32357.09987-.494.10986a1.44414,1.44414,0,0,0-.743.17244c-.03529.07656.22437.25233.34954.255.06658,0,.12118-.0586.18509-.05527s.12451.09788.19974.09921.11651-.07258.19974-.05526.09321.13315.15313.17576c.14048-.10985.225-.25832.44874-.241a1.12183,1.12183,0,0,1,.3329.12051c.18442.08588.42877.27231.36485.39548s-.263.06658-.43143.11917c-.15114.04728-.29029.16512-.42744.14248-.1265-.02063-.1771-.16311-.29494-.1751.01131.07723-.022.14315,0,.19974.38616.16578.80827.29428.82092.8329-.18842.22837-.39548.64981-.81027.548-.24368-.05992-.34821-.31359-.40547-.548-.01931-.07856-.0719-.271-.12051-.25233a1.06009,1.06009,0,0,0-.01065.51532.93946.93946,0,0,0,.4594.526,2.11093,2.11093,0,0,1,.2743.06658.52662.52662,0,0,1,.18642.504c-.11451.17178-.35553.19441-.58057.27364-.484.17045-1.04063.31625-1.53465.43809a1.088,1.088,0,0,1-.09787-.55859c-.012-.19974-.018-.4108-.02263-.61386a3.58994,3.58994,0,0,1,.13315-1.17246c.03795-.08988.13849-.21705.2084-.33956a1.873,1.873,0,0,1,.219-.3289c.05793-.05859.225-.18642.32824-.1751.15646.01731.3016.279.33689.25234s.004-.17977-.00733-.26632c.01931-.07923.15979-.12983.12051-.19974-.15247-.02663-.16645.10453-.30693.10986a.73707.73707,0,0,1-.37284-.14248,1.05249,1.05249,0,0,1-.27364-.241c-.16512-.20573-.40946-.61585-.46606-.56858-.03462.03.01066.11252.044.19973.00532.01465.01065.0293.01464.044a.25429.25429,0,0,1,.01332.08655.241.241,0,0,1-.0526.16378c-.0506.05993-.10785.12318-.16578.20573-.07856.02131-.12983.036-.1498.04195-.15979.0486-.729.16844-.88617.19973a.84465.84465,0,0,0-.12117-.08189.23172.23172,0,0,0-.16379-.03129c-.05659.008-.40679.05459-.528.05659a1.26971,1.26971,0,0,0-.45007.03928,7.67134,7.67134,0,0,1-1.53132.36152,7.616,7.616,0,0,0-1.32825.26632.82772.82772,0,0,1-.259.01,3.65257,3.65257,0,0,0-.80694-.00865c-.44941.04195-.53264-.11851-.74169-.13316a1.49172,1.49172,0,0,1-.24768-.04127.13314.13314,0,0,0-.04794-.08056c-.05592-.06192.02064-.12517.03462-.18776-.05592-.18775-.223-.36219-.09787-.57791-.02729-.08388-.11784-.14647-.14581-.237-.00665-.06258.03529-.10453.06658-.15313a.57324.57324,0,0,0-.15313-.39947A1.72369,1.72369,0,0,0,11.216,10.911a1.81028,1.81028,0,0,0-.75168.26632,1.60321,1.60321,0,0,0-.53263,1.28231.77179.77179,0,0,0,.00466.11252.12782.12782,0,0,0,.08522.07523c.10719.03462.25367,0,.3562.02663a.07194.07194,0,0,1,.0546.04727c.014.03928.04061.02.04927.038a.20974.20974,0,0,1-.09055.19974l-.04395.02064a.20705.20705,0,0,1-.028,0,1.09883,1.09883,0,0,0-.19974.0273c-.10453.0233-.30559.09055-.488.13915a1.71834,1.71834,0,0,0-.77964.35353,4.29238,4.29238,0,0,0-.51333.80494c-.10652.16911-.53263.45474-.63916.77432a4.319,4.319,0,0,1-.34954.73236.93231.93231,0,0,0-.12317.3329.32425.32425,0,0,0,.026.2297c.05459.09387.07523.16312.20906.18975s.42344.06258.65447.08988.96473.05593,1.12718.09254a.49734.49734,0,0,1,.36552.21106,1.01786,1.01786,0,0,0,.27631.29561.5327.5327,0,0,1,.1265.37418c0,.0486-.008.09654-.012.14314A.3442.3442,0,0,0,9.897,17.981a1.08663,1.08663,0,0,0-.028.26632c0,.03.00466.06657.00666.11451-.2084.62718-.6092.97539-.96939.93877-.13316-.028-.253-.06125-.3329-.07857-.10719-.0233-.19375-.03928-.26632-.04927-.21105-.05659-.12916-.34887-.02-.43742a2.767,2.767,0,0,0,.63916-.9887,1.71239,1.71239,0,0,1,.38283-.66579.29084.29084,0,0,0,.05592-.07124c.038-.05859.03463-.1498-.08655-.03728a1.56906,1.56906,0,0,0-.39947.528A5.88108,5.88108,0,0,1,7.18528,19.288l-.09455.06658-.0233.018a1.06525,1.06525,0,0,0-.50933.87152,1.28424,1.28424,0,0,0,.022.34089,2.64045,2.64045,0,0,0-.018.87018c.04993.08522.09054-.44075.27763-.39947a1.092,1.092,0,0,0,.36352.22038c.17644.06325.21638.18442.18642.28829h0c-.00732.02529-.014.05126-.02064.07656-.06125.26632.0293.88617-.15313,1.00868s-.48669-.0779-.58123-.1538l-.004-.00466c-.10386-.05859-.08389.08189-.00732.15446a1.00268,1.00268,0,0,0,.40613.223.37285.37285,0,0,0,.3835-.24168,4.912,4.912,0,0,0,.06658-.84356,1.562,1.562,0,0,1,.14314-.37217,3.581,3.581,0,0,1,.17444-.3289,1.35692,1.35692,0,0,1,.70241-.482,1.64333,1.64333,0,0,1,.59055-.05459,1.30561,1.30561,0,0,1,.84423.526,1.06523,1.06523,0,0,0,.87618.46006c.09321-.05193.06658-.16445.0779-.241a1.95413,1.95413,0,0,1,.07123-.19974c.08589-.13316.19974-.31425.32491-.49668.05326-.06658.11452-.13316.18442-.21372a5.18728,5.18728,0,0,1,.54728-.54794,4.09127,4.09127,0,0,1,1.32626-.85488,7.08583,7.08583,0,0,1,1.95077-.2297c.49668-.01265,1.04462-.028,1.55595-.06658a3.3069,3.3069,0,0,0,.84356-.1205c.08722-.0313.19973-.12251.30693-.12051.08389,0,.09853.07657.17443.07657s.14515-.14382.21972-.241c.19574-.25566.43343-.49335.63583-.7124a1.68844,1.68844,0,0,1,1.33691-.62451c.11451.00866.31092.10786.33289.0293s-.12384-.1285-.19042-.19375a.61785.61785,0,0,1-.23036-.36152.83618.83618,0,0,1,.06658-.49336c.05992-.07723.25766-.0952.42744-.13315.34088-.07324.55593-.1265.90947-.2084a4.45631,4.45631,0,0,0,.66579-.19973.62117.62117,0,0,1,.37284-.09854c.13915.03063.29029.34754.37285.482a3.55536,3.55536,0,0,1,.49268,1.20508,2.34288,2.34288,0,0,1,.02929.8662.5.5,0,0,1-.2743.30693c-.31559.06657-.44142-.21239-.71174-.16445-.02663.11518.09122.17709.16446.23036a1.30694,1.30694,0,0,0,.25166.15313c.35021.14781.77565.1558.83291.59189a.80637.80637,0,0,1-.08722.43876c-.06658.1012-.239.15446-.36219.22969-.09188.0566-.21771.235-.3835.19974-.11118-.0253-.10586-.21971-.18708-.27963s-.27431.23569-.37151.39947a2.50353,2.50353,0,0,0-.14315.26632c-.03728.08722-.11718.2297-.04327.285s.23036-.21838.36086-.29561a1.92227,1.92227,0,0,1,.34088-.12051,3.17437,3.17437,0,0,0,.86553-.51532c.34488-.25433.65048-.6365,1.19376-.64648a4.25166,4.25166,0,0,1,1.17313.25233,11.49406,11.49406,0,0,0,1.13916.27364,1.1318,1.1318,0,0,1,.30693.47138c.08056.17244.19242.29362.09854.526.02863.14913.30959.25966.285.44941s-.285.09121-.46006.05459c-.13316-.02863-.271-.03995-.29628-.16445.03595-.07057.19974-.01132.27431-.04394a.22508.22508,0,0,0,.028-.22438c-.04-.12983-.21506-.13316-.36153-.19973a1.1631,1.1631,0,0,1-.32823-.2084,2.86545,2.86545,0,0,1-.15313-.30692c-.13316-.20507-.40747-.19641-.65714-.31759-.15779-.07656-.28895-.22171-.55926-.13316-.07857.026-.13316.09854-.20773.14248a1.5092,1.5092,0,0,1-.526.21905,3.50989,3.50989,0,0,0-.67977.09853.74177.74177,0,0,0-.44941.3289c-.02663.08323,0,.19308-.03262.285a1.06519,1.06519,0,0,1-.31825.40547,1.77435,1.77435,0,0,1-1.17179.504,1.40289,1.40289,0,0,1-.767-.18643c-.17444-.11385-.27631-.3249-.526-.26631a.49339.49339,0,0,0,.08722.44941c.04461.07656.19974.18176.18576.28429-.00866.0739-.27764.21505-.33889.25233a4.851,4.851,0,0,1-1.23837.504,6.11133,6.11133,0,0,1-2.038.219,3.40552,3.40552,0,0,1-2.58593-1.49c-.06658-.08921-.16179-.30427-.25233-.3289a1.45747,1.45747,0,0,0-.526.07657c-.13316.04727-.277.16778-.24035.25233s.21305-.01131.35021-.01131c.1518,0,.506.16112.51465.29627.00733.1072-.11784.09787-.10519.16778s.275.12451.41145.21572a1.297,1.297,0,0,1,.38417,1.67646c-.05726.09122-.20707.15713-.19308.22637s.19973.014.26964.04727c.09521.04394.19508.32158.20773.42744a1.7903,1.7903,0,0,1-.10853.72305c-.05792.17177-.21238.49735-.15379.6578.04461.12117.275.1518.44941.16445s.33822.01132.504.01065a7.57408,7.57408,0,0,1,1.51135-.01065c.19973.08256.249.34089.3735.53663a2.95343,2.95343,0,0,0,.25167.285c.09122.10586.16845.22237.24168.29627s.3096.20706.229.35021c-.05926.10853-.36219.04061-.42078-.022s-.19375-.58656-.45474-.75567c-.08122-.0526-.17776-.07457-.25233-.12051-.05127-.03129-.1265-.14448-.19974-.1538-.11918-.01665-.1791.10053-.263.14248-.19973.00466-.40347-.016-.60254-.022a2.78575,2.78575,0,0,1-.6032-.03263c-.06658-.01931-.11652-.10586-.17511-.12051a1.0527,1.0527,0,0,0-.504.022c-.06658.03263-.07523.18576-.16445.2084-.17244.04261-.44741-.26632-.46006-.42744-.00733-.09854.06058-.2044.06657-.30693a2.18045,2.18045,0,0,0-.14248-.61385c-.01731-.06126-.03661-.12384-.05526-.18643v-.022c-.01864-.06658-.038-.12784-.05326-.18842l-.00333-.00666a1.70724,1.70724,0,0,1-.03862-.19974c-.034-.30693.1771-.62118-.16511-.66579-.15779-.022-.32025.01132-.51466,0a1.97666,1.97666,0,0,0-.526-.01065c-.09521.02929-.12118.13315-.18576.15313a.98272.98272,0,0,1-.47138-.022c-.0466-.00932-.09188-.02064-.13316-.03262l-.014-.006a1.287,1.287,0,0,1-.20506-.08189l-.01864-.01065c-.01865-.012-.03729-.02464-.05526-.03795l-.00933-.00733c-.016-.01331-.03262-.02663-.0486-.04128-.36751-.33289-.44209-1.00467-.7084-1.45874-.08788-.14914-.25833-.35088-.40547-.37285a3.0758,3.0758,0,0,0-.6032.0992,1.61512,1.61512,0,0,1-.69043-.15379c-.225-.11785-.42477-.35287-.64582-.49269a1.11934,1.11934,0,0,0-.40546-.17577,1.19844,1.19844,0,0,0-.73237.18642,1.297,1.297,0,0,0-.40614.35088c-.20706.31891-.08255.78563-.11984,1.25967-.022.279-.18775.61453-.47138.64648a.88212.88212,0,0,1-.48-.11451c-.09055-.04661-.08722.14581,0,.18176a.10453.10453,0,0,1,.0233.01265.769.769,0,0,0,.39947.0739c.1285-.01332.37351-.19974.35088-.10986a.53266.53266,0,0,1-.44941.30694.783.783,0,0,1-.32424-.0799c-.024-.01065-.03529,0-.03329.0213,0,.00932.01065.0759.02064.14714l.006.03928h0v.02664h0l.00333.024v.0952h.006a1.38284,1.38284,0,0,0,.91214-.10319h.02264c.08921.13315.14647.2783.22969.41612.07723.12716.21639.24834.2084.41678-.29362.06658-.29695-.17044-.55927-.12117a.42208.42208,0,0,0-.26631.24168.39413.39413,0,0,0,.17643.46006c.29428.10519.36818-.16778.69042-.09854a1.077,1.077,0,0,0,.09854.31758c-.22836.49935-.46605.99869-.7084,1.50935a.05663.05663,0,0,0,0,.04594c.00866.0213.04128.11252.04461.12184s.01731-.00533.022-.01731h0c.08256-.16179.16911-.3329.23569-.474.05726-.12051.18176-.50667.32824-.36219a1.43629,1.43629,0,0,1-.16445.46072c-.09122.20374-.19974.42012-.3056.63584a.10655.10655,0,0,0,0,.06657c.012.028.04194.10853.05193.13316s.01931.00533.028-.00932c.22171-.486.38882-.96007.59921-1.45675a1.37153,1.37153,0,0,1,.14248-.29562c.12317-.09321.17311.14448.21905.241.30027.62118.57458,1.11853.92079,1.70909.08322.14247.17909.21438.15313.41678a1.26491,1.26491,0,0,1-.43876.61319,1.23771,1.23771,0,0,1-.94476.22238c-.018,0-.00665.0273,0,.04527s.03995.0779.04261.08389a.05.05,0,0,0,.034.01731,1.60946,1.60946,0,0,0,.34222-.00732,1.63253,1.63253,0,0,0,1.26034-1.12852,6.74205,6.74205,0,0,0,.38349-1.63252,9.31452,9.31452,0,0,0-.10985-3.08993c-.04994-.23569-.23037-.72305.05459-.75634.19974-.02331.239.19973.29628.39481a8.66925,8.66925,0,0,1,.26632,3.20978,4.79549,4.79549,0,0,1-1.03,3.036,2.90246,2.90246,0,0,1-.49335.35021,1.715,1.715,0,0,1-.47338.15313c-.14381.01665-.14115-.07656.034-.10519a.48729.48729,0,0,0,.07124-.01731,1.51681,1.51681,0,0,0,.56459-.26032,2.24642,2.24642,0,0,0,.44341-.53264c.07191-.14181.11985-.20906.06658-.23169s-.18509.219-.27763.32224a1.74105,1.74105,0,0,1-1.06527.58124,1.24587,1.24587,0,0,1-.1245.01731l-.018.006H8.6833l-.00666.012h0v.008h0V29.675h0l.004.008.00333.006.02863.04993v.00333h0l.01331.024.05926.10253c.008.01465.01531.028.024.04128v.004c.0253.04461.04527.07923.04993.08522a.06659.06659,0,0,0,.06059.022,1.805,1.805,0,0,0,.73237-.223,3.01536,3.01536,0,0,0,1.249-1.81828,3.2677,3.2677,0,0,0,1.66448,2.06,1.87086,1.87086,0,0,0,.986.08789A2.44213,2.44213,0,0,0,15.228,28.81276a5.31526,5.31526,0,0,0,.58856-1.7457q.05392-.291.09054-.58856a7.15145,7.15145,0,0,1,1.20575-.03263c.12983.00732.39348.03861.40547.1751.004.05393-.05659.14181-.08789.2084a6.15746,6.15746,0,0,1-.28495.59921c-.18509.29428-.53264.36752-.49269.86553.01265.1771.1478.32224.14181.482-.01065.26632-.29294.36419-.32823.59189-.02463.1518.04327.257.032.36152-.016.1578-.27231.29961-.18576.48137.04328.09255.32025.06658.50334.06658.4321,0,.74768.01132,1.15049.01132.17643,0,.46938.02663.526-.05526a.1871.1871,0,0,0,0-.16512h.73237c.20506,0,.59921.06258.6132-.11984.008-.11452-.16379-.241-.2297-.31758a1.2318,1.2318,0,0,0-.285-.27365c-.10653-.05659-.235-.05526-.29561-.1538-.03-.13315-.13316-.2277-.14248-.3502s.08921-.2297.13316-.36286a1.407,1.407,0,0,0,.07723-.48136c.04927-.13915.29761-.08123.41612-.15314-.01-.247-.237-.50467-.24168-.745a.86551.86551,0,0,1,.13315-.37284c.0566-.11185.08789-.21971.1538-.3289.10054-.16911.30493-.49735.482-.482.14781.01332.18376.21039.26632.31825.10187.0526.24834.06658.26632.1751.008.06658-.06658.12384-.08789.2084a.466.466,0,0,0,.03063.42477,4.43941,4.43941,0,0,0,1.42679.18509c.04927-.02729.01864-.10253.05393-.12783a4.25118,4.25118,0,0,0,.71306.03263c.25567-.01265.6365-.034.66579-.10919s-.08588-.22371-.15246-.32891a1.3381,1.3381,0,0,0-.20839-.29627c-.10187-.08522-.253-.11119-.3289-.20773-.15247-.19507-.20773-.49335-.39415-.6578-.07124-.06125-.1538-.06658-.241-.13316a4.95374,4.95374,0,0,1,1.07392-.04394c.14847.04394.25167.16512.38283.2084.07723.0253.17577.00666.24168.04394.09654.05459.03329.20906.044.30626a.552.552,0,0,0,.26631.3835,1.75457,1.75457,0,0,0,.54728.03329c.279-.00666.60987,0,.66047-.09854s-.06658-.28962-.13316-.39482a1.42689,1.42689,0,0,0-.241-.31758c-.19973-.16911-.3482-.14114-.47071-.33955-.03729-.06059-.05127-.13849-.09854-.2084a1.41114,1.41114,0,0,0-.30693-.219,1.1796,1.1796,0,0,0-.17576-.13316.84024.84024,0,0,0-.34022-.032c-.19042.01865-.39415.0506-.6132.0546-.20573,0-.41212.0213-.62451.022a5.753,5.753,0,0,1-1.23771-.03263c-.11118-.02663-.259-.10453-.26631-.1538-.00866-.08389.2257-.229.29494-.29561a5.84586,5.84586,0,0,0,.55927-.62451c.09321-.11585.16178-.25034.25233-.33955.06658-.06658.32424-.285.42744-.285.08455,0,.17111.10985.26232.18642s.19242.13981.26632.19974a2.41,2.41,0,0,0,.55926.36085c.21306.09255.43143.17777.64582.26632a2.15722,2.15722,0,0,1,.61453.30693,1.98338,1.98338,0,0,1,.38349.56992,2.34876,2.34876,0,0,1,.2297.723,1.15252,1.15252,0,0,0,.13316.59922.67315.67315,0,0,0,.53663.19974c.13648-.00866.26631-.13316.41678-.17444a3.439,3.439,0,0,1,.72305-.02264,4.22251,4.22251,0,0,1,.63583,0,1.6101,1.6101,0,0,1,.56925.20906c.1558.07524.46606.15114.50334.285.03063.1012-.06192.19974-.0759.27365a.62256.62256,0,0,0,.04394.37217c.04528.0739.22438.11984.36153.16445a1.81,1.81,0,0,0,.64648.12051c.16179-.00466.40547-.04594.43809-.10919a1.01684,1.01684,0,0,0-.15313-.47138c-.10719-.18043-.36485-.25833-.44941-.44941-.06658-.14914,0-.35353-.05459-.51466-.12318-.36685-.49-.38616-.96473-.40547-.2297-.00932-.47937,0-.72305-.01065-.19641-.008-.46606-.026-.71173-.04394a1.66448,1.66448,0,0,1-.66579-.11052,1.36424,1.36424,0,0,1-.41679-.59123,1.05392,1.05392,0,0,1,.03329-.43808,2.67523,2.67523,0,0,0,.08655-1.03c-.024-.12384-.08389-.22038-.09853-.35088a1.265,1.265,0,0,1,.06658-.46006c.03994-.11784.11118-.33289.23036-.3289.07723,0,.11585.11053.16378.1538.08589.07657.16312.09521.21972.1751a1.04832,1.04832,0,0,1,.10852.26233,1.10524,1.10524,0,0,0,.0992.275c.09521.12517.35819.13316.30626.3056-.02929.0992-.19574.09321-.25167.16511a.52332.52332,0,0,0-.03262.44941c.04861.08989.2044.15913.30693.23037s.22171.14448.3289.20772a1.8248,1.8248,0,0,1,.63583.43876c-.00532.36751.06658.62651.51466.58057.26631-.0273.59921-.07457.94209-.08789s.69975-.0273.96473-.01065c.11519.00732.20374.07723.295.08721.16578.01931.3329-.0233.35154.10986.00865.07124-.08988.15713-.09854.241a.54327.54327,0,0,0,.20773.46006,1.56015,1.56015,0,0,0,.35087.06658,3.53979,3.53979,0,0,0,.73237.01131c.32224-.04993.09987-.25633-.01132-.41678-.0799-.11585-.11518-.20773-.18642-.29561-.09255-.11518-.2783-.15314-.35021-.263a1.36121,1.36121,0,0,1-.07723-.20839.95677.95677,0,0,0-.26232-.32891,1.73508,1.73508,0,0,0-1.11521-.09452,4.14706,4.14706,0,0,1-1.052.0546.98338.98338,0,0,1-.59921-.60321c-.02064-.20306.15313-.37217.16445-.55793.016-.2743-.1771-.68909.08789-.84422a1.09337,1.09337,0,0,1,.219-.06658c.26632-.08522.53263-.27764.82159-.21971.15313.16977.05459.41212.1538.62451.02929.06658.15246.13915.22969.19973s.221.10786.2084.219c-.008.06658-.11918.09188-.16445.15313a.62319.62319,0,0,0-.08989.39415,1.62173,1.62173,0,0,0,.57192.36219c.21106.08389.57058.233.73237.16445.06658-.03595.04727-.37217,0-.54794a1.49782,1.49782,0,0,0-.13315-.285.9486.9486,0,0,1-.13316-.285,2.55886,2.55886,0,0,0,.01-.37285c-.03462-.13315-.19973-.20572-.28429-.32823a2.04575,2.04575,0,0,1-.12051-.27431c-.09254-.18442-.28895-.30626-.31825-.482.48337.04128,1.33159.02464,1.43878.06192s.19641.30826.24967.49735c.07124.08256.27564.12317.25167.25166-.016.08656-.13316.06658-.19974.12051a.544.544,0,0,0-.03329.35087c.04993.12584.38282.27764.49335.33889s.42876.30959.54728.26632c.06657-.0253.0972-.16179.0992-.285a3.28192,3.28192,0,0,0-.0992-1.08458,1.45619,1.45619,0,0,0-.33889-.36152,4.28526,4.28526,0,0,1-.32891-.35087c.48936-.20973.90681-.72305,1.64384-.504-.19374.23969.00666.37484.18576.482a2.51261,2.51261,0,0,0,1.07192.3562c.13316-.05393.00932-.54-.00865-.78363.235-.08323.41545-.237.6791-.20839a.976.976,0,0,1,.56992.30692c.06658.07657.08256.19375.16445.27431.11185.10919.3329.13316.37284.29561a.434.434,0,0,0-.09987.44874,1.57261,1.57261,0,0,0,.97339.30294c.07723-.04328.004-.60587-.10653-.81826-.05127-.09654-.15646-.1478-.2084-.251-.08788-.17444-.10985-.41812-.231-.548a.9368.9368,0,0,0-.492-.16445,1.58445,1.58445,0,0,1-.47138-.18642,2.83446,2.83446,0,0,0-.46007-.31758c-.47071-.16445-.49468-.04461-.53729-.13316-.05593-.0739.14048-.18043.2297-.25167s.1498-.18043.24168-.241a1.66362,1.66362,0,0,1,.35087-.13316,1.97533,1.97533,0,0,1,.36153-.13316c.3562-.034.49867.31625.745.38349.23036.06259.46272-.11651.56459-.04461s.04328.486.19974.59922a1.06533,1.06533,0,0,0,.54861.06258c.15113-.008.40746-.01065.4321-.1478s-.09454-.281-.14714-.37817m-19.13682-8.136a.22571.22571,0,0,1,.21972.15313c.03.19974-.19974.30094-.27364.42744a4.153,4.153,0,0,0-.2084,1.008c-.04394.16644-.19241.3289-.20905.49335a2.59619,2.59619,0,0,0,.0992.61319c.03861.221.09987.43343.12051.59189.02863.2277.00466.34022-.241.35087a4.91512,4.91512,0,0,1-.15313-.56991,2.71126,2.71126,0,0,1-.0992-.85488,6.55753,6.55753,0,0,1,.20772-1.22705,4.12888,4.12888,0,0,1,.18709-.526c.06658-.15579.20373-.44941.35021-.46006m-.46939.18176c-.016.04261-.03329.08522-.05126.12917h0a4.04514,4.04514,0,0,0-.3542,1.21107c-.02331.26632-.01132.56392-.01132.85488a9.17,9.17,0,0,0,.06658,1.23837c-.10786.11718-.29029.12383-.45008.16445a29.31153,29.31153,0,0,1-3.53934.69042,15.20963,15.20963,0,0,1-3.34227-.16445c-.14315-.014-.30826-.02929-.526-.05526-.06191-.00732-.16578-.01265-.26631-.02264a.27831.27831,0,0,1-.04661-.03928c-.02663-.036-.01931-.05459.04261-.1225a6.61384,6.61384,0,0,0,.67445-.95341c.16578-.32824.34554-.81027.3562-.84156a.39281.39281,0,0,1,.16311-.13716,1.88889,1.88889,0,0,1,.96074-.17377c.65714.00533.83091-.13316,1.16447-.12317a2.01941,2.01941,0,0,0,1.28165-.19974,5.95386,5.95386,0,0,1,1.62852-.765c.3329.006.56992.21705.78763.20573a1.38006,1.38006,0,0,0,.43942-.12584c.06259-.01664.17111,0,.2277-.20506.04661-.17044.09321-.2743.0526-.36285l.74036-.20307M18.6715,16.39777c.229-.04.4767-.08123.69042-.12118.04061-.008.0546,0,.04794.06658s-.18509.09388-.2783.10852a32.32018,32.32018,0,0,1-3.93416.51466c-.20573.008-.45807.016-.70108.022a2.24441,2.24441,0,0,1-.71439-.07257,12.62409,12.62409,0,0,1,1.4927-.05859,9.37652,9.37652,0,0,0,1.40215-.14248c.67379-.1012,1.3429-.2044,1.99738-.31758m-1.30429.16045c-.00665-.03462.14115-.06658.21905-.08389.39015-.09654.79895-.18442,1.22772-.2743a3.60054,3.60054,0,0,1,.55327-.10919.209.209,0,0,1,.00466.10919,20.16692,20.16692,0,0,1-2.0047.35819m-6.00011.11452a.38694.38694,0,0,0,.12917-.06658h.03063c.19441,0,.36884.00466.51532.01132.11318.00466.32823-.034.32424.05792s-.64316.08722-.97073.06259a.6903.6903,0,0,1-.11118-.00733c.01731-.03861.06657-.04927.08255-.05725m.41213-.19974c-.0779-.006-.15513-.01065-.2277-.02064a.22358.22358,0,0,0-.05327-.09853,4.87868,4.87868,0,0,1,1.18045.1498c0,.06658-.11119.04993-.16578.04594-.23569-.016-.4594-.05526-.73237-.07657m-.59322.50533c.16711.01465.43077.04794.61519.06658.36486.03263,1.11986.06259,1.12119.09255s-.19308.05659-.28895.06058a3.58,3.58,0,0,1-.40547,0c-.15712-.01065-.59055-.05992-.64648-.06657s-.19974-.04395-.29628-.06658l-.13316-.03063c.01132-.01731.02064-.03595.0313-.05526m1.62985-4.07863h.3562a1.23261,1.23261,0,0,1,.31825.08721.3102.3102,0,0,0,.25366.018,1.67386,1.67386,0,0,1,.61653-.03595,2.19214,2.19214,0,0,0,.48469.04394,7.37987,7.37987,0,0,0,.988-.243c.245-.06658.53263-.1072.765-.15713a4.71761,4.71761,0,0,0,.49069-.13316,5.926,5.926,0,0,1,.87285-.237c.17111-.006.47737-.016.55394-.008a1.18061,1.18061,0,0,1,.29428.0779c.03262.02264.09321.08389.00532.13715a.56921.56921,0,0,1-.247.0779.16983.16983,0,0,0-.10054.02863,2.78051,2.78051,0,0,1-.25833.20906.22167.22167,0,0,1-.17243.01131c-.05793-.02663-.25034-.13316-.26632-.14447a.07589.07589,0,0,0-.06658-.004,5.86716,5.86716,0,0,0-.59921.2064c-.13316.07124-.3602.231-.56326.34821a2.68319,2.68319,0,0,1-1.24769.45673.69841.69841,0,0,1-.50467-.14847.16378.16378,0,0,0-.18509.00865,3.02014,3.02014,0,0,1-1.20176.16446c-.38616-.01132-.21305-.27231-.34754-.26632s-.47005.28629-.538.31891a.14913.14913,0,0,1-.19973-.0253.3042.3042,0,0,1-.05793-.20772c-.018-.04994-.02463-.08456-.00932-.10387h0a.04325.04325,0,0,1,.022-.012.50206.50206,0,0,0,.19574-.07723.68441.68441,0,0,0,.12451-.13316.18777.18777,0,0,0,.018-.11052c-.004-.038,0-.04927.01066-.05726a.247.247,0,0,1,.19374-.08988m-.63849-.69309c.0972.04194.0972-.09055.14647-.13915a.49345.49345,0,0,1,.19375.11851c.05592.08322.13316.1811.08389.2783-.034.04861-.11785.03529-.12517.08389.02863.09721-.06192.15979-.10386.2297.05592.02131.13315.04194.13915.10453a.275.275,0,0,1-.03529.24368.58728.58728,0,0,1-.31958.04194,2.20628,2.20628,0,0,1-.31692-.05592.07324.07324,0,0,0-.08764.0552l-.00091.00472c-.01.04394-.01864.08988-.0273.13316h.00466c-.006.02264-.014.04527-.02.06658a.66579.66579,0,0,1-.06658.18242l-.01731.008a.02863.02863,0,0,1-.022.00666h-.01065a.25009.25009,0,0,1-.06658-.00466.11513.11513,0,0,0-.06125.01864c-.0293.03395-.01065.10054-.0526.13715a.14552.14552,0,0,1-.03395.00666.29167.29167,0,0,1-.16845-.03462.58284.58284,0,0,1-.19108-.11185l-.01131-.01665a.50047.50047,0,0,1-.07324-.11518,4.608,4.608,0,0,0-.295-.42211l-.028-.10386a.35686.35686,0,0,1,.22038-.28629.90678.90678,0,0,1,.745.13915l.014-.00666-.04195-.25833a.88685.88685,0,0,1,.19574-.787.62453.62453,0,0,1,.27231-.1771.29626.29626,0,0,1,.28563.05193.24171.24171,0,0,1,.07657.19974.05861.05861,0,0,1-.014.04194c-.06258.07657-.16711.03462-.25166.06658a.93209.93209,0,0,0-.22238.21572.77432.77432,0,0,1,.28563.07656m-1.91615.06259a.293.293,0,0,1-.13316-.19508c-.08322-.32024.13316-.55726.35553-.773l.229-.16778a2.13988,2.13988,0,0,1,1.10854-.15313c.17444.04195.38349.028.49535.18176.00665.11784-.13316.10453-.21639.13316a2.43551,2.43551,0,0,0-.90547.65514.978.978,0,0,1-.93211.32024m-.04927.88684a.291.291,0,0,1,.19242-.06658.19508.19508,0,0,1,.12517.03995c.03861.03062.07257.02263.18242.235.01465.0273.0526.10786.06658.14115s.04394.1032.05926.1285a.5805.5805,0,0,0,.23369.19574.55424.55424,0,0,0,.1265.05593.542.542,0,0,0,.22038.02.5539.5539,0,0,0,.33289-.15646.93936.93936,0,0,0,.10187-.11918.41551.41551,0,0,0,.09321-.19974.0739.0739,0,0,1,.08056-.05592c.03995,0,.02929.02463.03861.03529s.0526.21105.06658.249a1.50276,1.50276,0,0,1,.04195.765,3.16993,3.16993,0,0,1-.60321,1.18244c-.13316.13782-.31425.221-.20906,0a1.83056,1.83056,0,0,0,.08256-.19508,2.49347,2.49347,0,0,0,.0739-.28229c.024-.08522-.04927-.06059-.07789.02131a1.83831,1.83831,0,0,1-.47472.73235.68107.68107,0,0,1-.30093.14314c-.1072.02264-.16312.02464-.22371.03862a1.24086,1.24086,0,0,1-.25633.04594c-.032-.00866-.03995-.03129-.014-.06658.01465-.01931.11851-.1225.21039-.24767.06658-.09321.1791-.24635.23436-.32757a3.44191,3.44191,0,0,0,.33289-.75168c.02863-.10853.00733-.10786-.03861-.01265a5.58247,5.58247,0,0,1-.44941.75767,5.70646,5.70646,0,0,1-.53263.58456.285.285,0,0,1-.273.03462,4.0232,4.0232,0,0,1-.474-.22237c-.04261-.032-.05992-.07657-.026-.11186a9.357,9.357,0,0,0,1.3409-1.63451.55665.55665,0,0,0,.04594-.35553.65582.65582,0,0,0-.17444-.4068c-.0759-.06658-.14581-.08589-.16978-.11186s0-.06125.01532-.07456m-.57858,3.39021c-.25566-.05726-.4554-.14248-.69242-.17378s-.66047-.06657-.76167-.07856a.56927.56927,0,0,1-.28429-.08589c-.10187-.06258-.16978-.11385-.21572-.13649s-.19973-.11318-.16245-.24567a3.08383,3.08383,0,0,1,.16512-.37218,2.30242,2.30242,0,0,1,.17577-.36552c.11851-.14115.51732-.41079.57124-.51532a2.56183,2.56183,0,0,1,.14315-.49135,1.23438,1.23438,0,0,1,1.17912-.769c.19973,0,.67444.06325.5506.5546a.76275.76275,0,0,1-.07856.23569,2.89941,2.89941,0,0,1-.34821.46606.781.781,0,0,1-.61053.26632c-.04727.00532-.07989,0-.1012.06657a1.13189,1.13189,0,0,1-.36818.50734,1.38307,1.38307,0,0,1-.36019.21838,2.54055,2.54055,0,0,1,.33289.13316c.221.10386.57791.30426.73237.36019a1.55412,1.55412,0,0,0,.478.13316,2.2037,2.2037,0,0,0,.48669-.09987.40761.40761,0,0,1,.17111-.03263,1.917,1.917,0,0,1,.19974.006.19973.19973,0,0,1,.12117.07124.35756.35756,0,0,0,.15846.13316.64393.64393,0,0,1,.13316.04461c.0193.01132.07257.03928.07989.04394a.05327.05327,0,0,1-.00466.09455.16719.16719,0,0,1-.12051.01531,1.07018,1.07018,0,0,0-.17843-.01531.223.223,0,0,0-.15846.03528c-.05592.03862-.08855.12451-.32357.07457s-.3329-.11318-.41346-.11451a1.138,1.138,0,0,1-.49934.03861m-2.291,4.536a.76631.76631,0,0,1-.64182-.81026,1.16845,1.16845,0,0,1,.61918-.95075,1.68776,1.68776,0,0,1,.72638-.08789,3.98968,3.98968,0,0,1,.82359.1538,2.15241,2.15241,0,0,0,.49468.02463,3.07536,3.07536,0,0,0,.42278-.08322c.04727-.00333.10586.004.12583.05393s-.04394.10719-.08988.14248a.77767.77767,0,0,1-.42611.13316,1.71133,1.71133,0,0,1-.53263-.04528c-.1518-.03129-.67445-.15113-.82225-.16844a1.042,1.042,0,0,0-.60454.07124,1.10183,1.10183,0,0,0-.49468.77365.58255.58255,0,0,0,.20839.45939.36685.36685,0,0,0,.23169.1052.22631.22631,0,0,1,.18509.04594c.08056.05992.014.13315-.01065.15113s-.06658.0486-.21705.02863m.85554-.54329c-.0193.00932-.03861.02-.05859.0313a2.13156,2.13156,0,0,1-.38283.15047.53267.53267,0,0,1-.39082-.09255c-.09654-.06059-.08855-.257-.06325-.37617.05194-.25167.44608-.74435.73237-.69708a6.734,6.734,0,0,1,.73237.17177c.0313.008.06059.01465.08855.02064h0c.10387.034.63517.18509.30693.4534a1.672,1.672,0,0,1-.42011.17977,1.84074,1.84074,0,0,0-.54062.15712M18.46443,17.6348a1.94815,1.94815,0,0,1-1.08458.745c-.39281.06658-.84755.08323-1.30428.12051s-.92079.05859-1.35888.0992a7.93109,7.93109,0,0,0-1.34689.14248,2.63526,2.63526,0,0,0-.58523.24634c-.02863.01931-.16778.11385-.34622.24368-.1225.02863-.17643-.33888-.10519-.53662a.89287.89287,0,0,0,.09521-.49,1.2588,1.2588,0,0,0-.13849-.502c-.0253-.06259-.02729-.1285-.0739-.14581a.10586.10586,0,0,0-.13661.06125l-.00454.01531a.23239.23239,0,0,0,.00866.17644,1.62433,1.62433,0,0,1,.07523.44541.92542.92542,0,0,1-.13915.47538.14911.14911,0,0,0-.03129.11318c0,.03928.016.42744.01265.51066s0,.20906-.05193.257h0c-.08656.07323-.16978.14647-.24435.21771l-.02463.02463c-.05992.01865-.12451-.20373-.12451-.279s-.01065-.31159-.02263-.41812-.01465-.15912-.01931-.21705-.02929-.15246-.0759-.08255a.92671.92671,0,0,0-.05459.47138c.00732.26631.00732.45673.01464.53263a.45406.45406,0,0,1-.05526.34621l-.01265.01465c-.02064.0233-.03728.04061-.04594.04993-.05259.05859-.0992.11518-.14447.17444-.05993.0506-.13316.08655-.14648-.0506-.01931-.22837-.0273-.472-.04927-.70374a4.24905,4.24905,0,0,1-.008-.53263c0-.06658-.04527-.21639-.09188-.21306s-.05792.18709-.05459.29162c.008.17244.04594.97139.03462,1.27965s-.01332.476-.12384.56326-.27764.07257-.27764-.12184a6.63435,6.63435,0,0,0,.03063-.87485c-.03063-.41878-.0233-.86552-.0233-.95141s.00666-.11652-.01531-.14714-.07391-.08922-.09454-.01132a.56376.56376,0,0,0-.0313.21039c.00466.09521.05992.77431.06658.89682a5.02118,5.02118,0,0,1-.04594.767c-.03329.06658-.05326.0992-.12051.0759s-.11052-.05126-.11451-.1791.00732-.45407,0-.7044-.01731-1.37619-.036-1.68046a.90086.90086,0,0,1,.00733-.33289.259.259,0,0,1,.07523-.12184.51336.51336,0,0,1,.2277-.06192c.06658.00333.16112.03262.17977.11518a.9648.9648,0,0,1,.05792.48736c-.05326.15247-.1751.22437-.17111.27764s.0799.06125.14048.01531a.72638.72638,0,0,0,.23236-.4108.69969.69969,0,0,0-.06658-.37883c-.08788-.13316-.17243-.15713-.17243-.20307,0-.10253.04261-.3016.12516-.33289a.29963.29963,0,0,1,.21772-.02131.502.502,0,0,1,.33289.4807,1.892,1.892,0,0,1-.15313.59921.48666.48666,0,0,1-.12517.19442.08521.08521,0,0,0-.0233.07789.08792.08792,0,0,0,.02663.044.06665.06665,0,0,0,.04395-.008.80827.80827,0,0,0,.31425-.44475,1.71418,1.71418,0,0,0,.04328-.514,1.524,1.524,0,0,0-.05793-.3329.41279.41279,0,0,0-.13316-.1478,6.36351,6.36351,0,0,0,1.02332.14048.33871.33871,0,0,1,.04528,0l.08122.004c.526-.00665,1.18644-.19973,1.69244-.241.57724-.04794,1.14983-.07524,1.72041-.1538.8369-.11518,1.66913-.19974,2.498-.35021.3329-.06058.99869-.251.97073-.14581a.64982.64982,0,0,1-.14182.24235c-.18908.25966-.36618.55194-.58057.799m.62252-.482c-.06658-.05726-.01931-.1538.0233-.20839a1.2944,1.2944,0,0,1,.28562-.241c.0293,0,.07524-.01.07391.04727s-.31825.4594-.38283.39947m.84224-.89016a.1236.1236,0,0,1-.03462-.16046c.032-.03328.17776-.06657.19973-.014s-.11451.19308-.16311.17444m1.70841-.81759A50.86684,50.86684,0,0,1,15.35186,16.728a4.99387,4.99387,0,0,1-1.03663.05659c-.01864-.044.15113-.04727.21572-.05659.58389-.08456,1.19043-.1538,1.753-.25167.64382-.11252,1.2923-.23436,1.93879-.36153,1.27965-.251,2.50071-.59921,3.68248-.90947.03063-.00865.15114-.05459.15314.06658,0,.1052-.31625.15047-.41612.17577M24.53512,12.16c.1751-.14248.47337-.41745.53929-.39414s.08589.231.01931.29561c-.038.03728-.12384.034-.17511.05459-.26964.10986-.45873.67179-.61053.58923s.12384-.39948.227-.54529m-1.50136.526c.0273-.17177.3562-.18709.58057-.15313a2.0737,2.0737,0,0,1,.69042.37218,2.98144,2.98144,0,0,0,.33889.18642,2.30894,2.30894,0,0,1,.494.19973,1.1678,1.1678,0,0,1,.25167.30693c.05326.29362-.273.26632-.40547.14248-.0779-.0719-.06658-.18642-.16378-.219-.13782.0233-.259-.05926-.36219,0,0,.09055.12183.12583.14248.23036.01331.06658-.0293.14581-.03263.241,0,.05859.03129.11118.02131.15313-.02064.09254-.19508.24368-.30893.18376s.11718-.19042.11252-.32624a2.55019,2.55019,0,0,1-.59189.03329,1.06,1.06,0,0,1-.53663-.42744c-.08389-.10586-.17776-.18309-.17577-.3289.04661-.12717.23836-.01331.33956-.04394.04527-.19974-.15047-.19574-.25167-.26632a.3069.3069,0,0,1-.14248-.285m-.1538,2.1039c-.01931-.07723.11918-.21971.16445-.25167.21972-.15446.986-.233,1.04929-.10852s-.43876.36885-.743.41545c-.11652.01731-.44142.05992-.47072-.05526M15.13349,26.77345c.02.09121-.09788.484-.18642.482s-.14248-.20973-.18643-.29561c-.07656-.15047-.14114-.21971-.18708-.32891.08788-.004.13316.0526.231.06658s.21305-.03129.27963.004a.07985.07985,0,0,1,.024.04194h.01331l.012.03329M8.07011,23.69683h0a.52917.52917,0,0,1,.0506-.0819c.03595-.04993.08056-.10319.11918-.16045a1.74265,1.74265,0,0,0,.17443-.295,6.50786,6.50786,0,0,0,.18642-.76166v-.00466c.01-.034.02-.06658.0313-.0992a.61115.61115,0,0,1,.09654-.16379l.008-.00932h0a.225.225,0,0,1,.1265-.07923.15114.15114,0,0,1,.14048.04528.819.819,0,0,1,.08855.43742c0,.04794.00732.09055.01132.13316h0a1.48889,1.48889,0,0,1,.022.23369,2.87774,2.87774,0,0,1-.263.75568c-.06658.1751-.12384.6285-.29628.71239-.19574.09588-.28229-.11784-.36219-.26631-.05792-.10786-.15979-.223-.15313-.33956a.17673.17673,0,0,1,.016-.05393M9.31114,22.274c-.13315-.03661-.17843-.48269.04328-.42743.16112.04.034.3562-.04328.42743m-.42743,1.78632a8.81909,8.81909,0,0,1,.43875-1.18444c.05393-.11718.08456-.33955.263-.31692.11785.14847-.03262.44675-.09854.64648a7.12916,7.12916,0,0,1-.482,1.2164c-.024.04195-.09121.22238-.19974.15314-.06658-.04394.03662-.37484.0759-.51466m2.41017-1.297a.18585.18585,0,0,1,.07723-.06192A.38224.38224,0,0,1,11.435,22.8s-.26632.50866-.32757.504.10785-.38283.18509-.54062m1.02665,1.10921c.01331.00932.02863.018.04327.02663l.0293.018c.02463.01465.0506.02863.0759.04127h0c.05259.028.10519.05393.16245.07857.01931.04194.03529.08322.05259.12383.04195.1012.08123.19974.12251.3036a1.1,1.1,0,0,1,.14248.44875.89546.89546,0,0,1-.4048.04394,6.27052,6.27052,0,0,1-1.18378,0,2.54267,2.54267,0,0,1,.504-1.41347c.06658.04594.12584.09321.18909.14048a3.12682,3.12682,0,0,0,.26632.18708m.60853.27631a1.36667,1.36667,0,0,0,.18442.06658c.02331.04727.04728.09853.07058.15113.01331.03.0273.06059.03928.09188h0a1.0201,1.0201,0,0,1,.08655.38149c-.17444.04262-.24235-.16178-.30759-.285-.03729-.07124-.07324-.14447-.10587-.21771s-.06657-.15912-.09121-.2317c.04194.014.08256.0293.1225.04528m1.00468.56193v-.006l.00866-.0253v-.00533l.01131-.02863v-.00732l.01066-.02929v-.006l.01331-.02929h0l.01265-.0273V24.5417l.014-.02663.004-.00533.01531-.024h0l.01532-.0213h0l.01664-.01665.004-.00333.018-.01264h.00333l.02064-.00733h0a.09888.09888,0,0,1,.01931,0h.00333a.088.088,0,0,1,.022.00533h.004l.02331.012h.00333a.18222.18222,0,0,1,.026.02131.97936.97936,0,0,1-.18642.39481.1658.1658,0,0,1-.13316-.04394l.02264-.06658a.08282.08282,0,0,1,.008-.026m.42677-.251.01465-.024a.65124.65124,0,0,1,.06658-.03928.1572.1572,0,0,1,.02863.006.04463.04463,0,0,1,.01331.012,1.86426,1.86426,0,0,1,.17444.93943h0a.04391.04391,0,0,1-.02064,0,.2329.2329,0,0,1-.08788-.08522,1.88107,1.88107,0,0,1-.10187-.21438,1.61672,1.61672,0,0,1-.10053-.50534.86459.86459,0,0,1,.01065-.09188m.466,2.01535c-.0779.08522-.287-.06658-.29627-.16845a.13314.13314,0,0,1,.16378-.15379c.08389.02063.21039.237.13316.32224m-.39082-1.06527a.70908.70908,0,0,1,.06125.34755c-.01931.14914-.13649.28562-.14248.42744-.04061-.08589-.11851-.16312-.12051-.25167a1.19931,1.19931,0,0,1,.0759-.23037,1.39066,1.39066,0,0,0,.0779-.42743c.014.04594.03129.08988.04794.13315m-.279.008a1.18966,1.18966,0,0,1-.38283-.01065.7989.7989,0,0,1-.08855-.40547c.08988-.08056.29295-.02663.4281-.022a.52464.52464,0,0,1,.04328.43809m-.25833-1.00734-.004.01132a.50457.50457,0,0,1-.02.06125l-.004.012c-.008.02-.01731.03928-.026.05792l-.00333.006a.3737.3737,0,0,1-.03.04927.279.279,0,0,1-.34421.10852c-.10586-.03129-.13915-.15912-.17577-.28362l-.00665-.022c-.00467-.018-.01066-.03529-.01665-.0526l-.00333-.01065c-.006-.01732-.01265-.0333-.02-.04927l-.00466-.00866a.24789.24789,0,0,0-.0253-.04461c.22836.03929.47337.06059.70174.09854-.00532.02264-.01132.04461-.018.06658m-.33289.86553c-.13316.09055-.255-.038-.40613-.05459a8.45786,8.45786,0,0,0-.93211.01131c-.30959.00333-.61652.00666-.89815-.01131V25.117c.39947-.05726.88084,0,1.32559-.0213.26631-.014.54062-.0799.745-.06658a.17711.17711,0,0,1,.16445.241m-2.24638-1.79763a2.32545,2.32545,0,0,1,.20839-.482c.08922.13315.15979.27763.25234.40546-.07857.12784-.20373.39948-.30693.548a.16314.16314,0,0,1-.27431.03263.96882.96882,0,0,1,.12051-.504m.01132,1.96142a.02863.02863,0,0,1,.022-.03262,15.62,15.62,0,0,1,1.79764.0759.61259.61259,0,0,1,.05459.17577c.02131.06657.0759.12916.0759.17577,0,.0739-.11451.225-.16378.31758-.3329.63316-.64848,1.20708-1.008,1.84091-.04461.07856-.15979.26631-.19974.27364-.10386.01665-.18309-.24168-.21837-.32823-.06658-.15846-.10121-.2803-.14315-.39482a3.30489,3.30489,0,0,1-.24035-.84355,5.17828,5.17828,0,0,1,.022-1.26035m.7883,2.78368c.30426-.56592.62717-1.13784.9321-1.68845.04328-.07723.10187-.2783.17444-.30626a.08379.08379,0,0,1,.12118.04394c.01531.0486-.08789.21971-.13316.30693-.29162.58922-.59922,1.12185-.93211,1.69843-.03662.06658-.09987.261-.20839.229-.13316-.03729.02929-.257.04394-.28363m.27431.10919c.24368-.56193.59921-1.03064.86552-1.56661.11252-.231.19508-.59921.38283-.71239.13316-.05327.18509.09321.24168.20839.21239.43676.3329.74435.5586,1.19443.07058.14115.21639.32624.2084.49268a1.49751,1.49751,0,0,1-.29628.63584,1.28235,1.28235,0,0,1-.8875.64648,1.61324,1.61324,0,0,1-.95341-.1538.536.536,0,0,1-.26632-.39415,1.38407,1.38407,0,0,1,.14248-.35087m1.75369-1.819c-.03462-.08988-.21039-.4514-.01131-.42743.07589.00932.16911.27564.20839.35087.12916.24768.23968.47671.36152.73237.08456.17776.22637.35287.14248.55793-.10719.01931-.14248-.10453-.18642-.17444a5.9247,5.9247,0,0,1-.51465-1.0413m-2.94746-4.052a.19974.19974,0,0,1-.27342.07093l-.02286-.01567c-.05193-.31226.39282-.31759.29628-.05526m-2.90285-.3329a1.42142,1.42142,0,0,1,.43876-.55926.76035.76035,0,0,1,.40547-.07657c.55993.05459.91013.51865,1.46474.55793.13648.01065.251-.04128.41678-.0213-.02863.10319-.1771.13315-.285.14248a1.30041,1.30041,0,0,1-.73237-.14248c-.31692-.16512-.44142-.39948-.93211-.32824a1.01735,1.01735,0,0,0-.47071.31758,1.15327,1.15327,0,0,0-.13316.26632c-.026.06658-.06658.25234-.15313.241-.10586-.01465-.06658-.29228-.02264-.39415m-.51466.99869a4.16944,4.16944,0,0,0,.05393-.77765c0-.028.01731-.03462.034-.04394.13848.03262.15446.42611.13316.63516a1.01527,1.01527,0,0,1-.21905.49336c-.17111-.04594-.03994-.17644,0-.30693M7.933,24.25476a2.70313,2.70313,0,0,1-.16445-.30626.546.546,0,0,1,.19974-.10986,2.46862,2.46862,0,0,0,.16445.285c.05593.09055.16379.20706.16445.285a.14314.14314,0,0,1-.15126.13454l-.01319-.00138c-.07457-.016-.15513-.21239-.19974-.285m.4361.9401c-.18576.05326-.35953-.03928-.53663,0-.09654.0213-.13316.11384-.23036.10985-.27631-.012-.261-.45074,0-.47138.09787-.008.15446.08256.241.09854.16645.03129.58257-.10053.59189.13316,0,.06658-.02463.07457-.06658.13315m.47138.32891a.45742.45742,0,0,1-.2743,0c-.1518-.12983-.00866-.36885-.044-.58057-.018-.11518-.18575-.17044-.16445-.29695.03795-.21571.35886.0486.43876.12118s.15646.20439.25233.24035a.80911.80911,0,0,0,.26233.012c.16977.00732.34554.01065.51465.01065a1.056,1.056,0,0,1,.4827.04395.16975.16975,0,0,1,.01132.13315,2.90392,2.90392,0,0,1-.767.01065,1.465,1.465,0,0,0-.42744.01132c-.11052.04-.14514.24235-.285.29561M9.935,27.92726c-.11319,0-.21639-.28962-.26232-.37218-.15513-.28029-.29029-.54262-.43809-.8329-.06192-.11984-.21039-.34022-.17577-.44941.11651-.06259.26032.245.3289.36152.15779.26632.31159.57524.48136.84356.06059.09454.33822.45673.06658.44941m.49735-1.87819a8.426,8.426,0,0,1-.13316,1.01932c-.02863.17311-.04927.39282-.16511.4048s-.26632-.25965-.33889-.38349c-.19974-.32357-.35886-.57391-.53729-.90947a.99.99,0,0,1-.16512-.54728c.05526-.239.42011-.20772.69043-.21971.19973-.008.56858-.04527.64714.09854a1.947,1.947,0,0,1,0,.53729m-.15313-2.36688c.03329.19974.09055.34688.11985.55859.024.16645.07656.49136-.01.60321a.48335.48335,0,0,1-.253.08721,5.869,5.869,0,0,1-.89749-.04394c-.21172-.21039-.07057-.53929.03263-.81093.12583-.3329.241-.59922.37217-.9421.07257-.19175.1285-.47537.26632-.44941.12184.024.19441.30826.241.44941a3.4355,3.4355,0,0,1,.13316.548m5.35828,3.73575a3.49807,3.49807,0,0,1-.56992,1.40349,3.95734,3.95734,0,0,1-1.04063.93211,1.77686,1.77686,0,0,1-.21971.10853c-.06259.02862-.20839.10386-.2317.0233s.19175-.15646.287-.22038a5.80041,5.80041,0,0,0,.56925-.43742c.0799-.06658.23569-.21971.19974-.27431s-.17644.08456-.24035.14248a1.59331,1.59331,0,0,1-.99869.526,1.28706,1.28706,0,0,1-.62451-.06658c-.03662-.01132-.28762-.11319-.32291-.04061s.25433.14048.26166.27031-.2783-.03862-.36619-.08722a3.054,3.054,0,0,1-1.261-1.64317c-.04261-.10453-.11984-.31293-.06125-.35487s.09454.11984.12783.1791c.17244.31026.38217.64848.58058.95341.07656.11718.245.34954.29561.30693s-.21439-.37284-.32824-.56992-.34421-.53264-.29561-.59921.1538.1751.20706.2743a2.44748,2.44748,0,0,0,.976,1.04064,1.38951,1.38951,0,0,0,.64582.19974,1.33162,1.33162,0,0,0,.87685-.33956,3.87626,3.87626,0,0,0,1.13983-1.88485c.05726-.16312.11119-.47538.26632-.49269.25367-.02929.17177.41945.13316.65647m1.30362.61453c.01265-.09921.16245-.20374.21971-.27431.20706-.25434.3815-.69043.5586-.90947a.30552.30552,0,0,1,.10919-.08722.14648.14648,0,0,1,.16445.12051c.02463.12251-.0759.227-.10919.33956s-.026.19308-.08788.27364c-.12983.17177-.42345.28962-.45008.51532-.01265.11718.06658.20307.04394.30693a.18906.18906,0,0,1-.17443.15313c-.12717,0-.29428-.2763-.27431-.43808m.01332,1.72639c-.06658-.10319.18376-.44408.39947-.4261a.4048.4048,0,0,1,.25966.22037c.03395.23569-.59189.3076-.6578.20573m1.08124-.3562a.49932.49932,0,0,1-.48136-.34554c-.00533-.10453.19041-.3329.29627-.3329.17577,0,.34755.53863.18509.67844m-.00932-.86553c-.19574-.05127-.41146-.27431-.35087-.482a1.88537,1.88537,0,0,1,.26632-.31825c.00732-.01.01464-.03062.032-.03262a2.82012,2.82012,0,0,1,.29694.12051c.02463.34221-.16179.474-.241.71239m1.19843.92811c.06191.1578-.14248.217-.32025.17444-.11918-.02863-.23369-.09254-.227-.19042a.0664.0664,0,0,1,0-.0193v-.01532c.04061-.11652.47737-.10786.53995.0506m-.53263-.71972c-.07057.09055-.14181.20706-.29561.13315-.14448-.34954.04194-.67577.08722-.99868.1498.022.31092.03329.46073.05526a1.23574,1.23574,0,0,1-.25234.81093m5.45283-3.10658c.016-.11518.247-.19108.41279-.14248a.26637.26637,0,0,1,.18109.11119c.14248.22637-.53263.29827-.59921.10054a.10715.10715,0,0,1,0-.06658m5.9322-.69575c.237-.01132.46072-.03263.70174-.03329.05859,0,.46605-.06192.44808.09787-.01265.11252-.51932.17244-.65647.18709s-.2783-.004-.40547,0a2.71916,2.71916,0,0,1-.57058,0c-.05593-.012-.13649-.06658-.13316-.13316.01332-.13316.4554-.11318.61319-.11984M37.44149,21.278c.0739-.11784.526.11119.43543.30094s-.508-.18243-.43543-.30094M34.0859,17.76265c.04993.028.09788.07257.15314.09853.09387.04394.24234.05327.26631.1538.028.12783-.13315.29694-.20772.36152-.04794.04261-.19974.09787-.1751.17511.034.10785.30426-.012.36219-.022a.52066.52066,0,0,1,.3502.09854.44807.44807,0,0,1,.18642.41678,1.5426,1.5426,0,0,1-.1751.548c-.0506.07723-.20573.24834-.29628.26632-.1285.02064-.30959-.11452-.42743-.17577-.28829-.1498-.49-.243-.81094-.3835a1.04264,1.04264,0,0,0-.63583-.13315,2.81329,2.81329,0,0,0-.40547.1751.94008.94008,0,0,1-.42743.1538c-.16179-.01332-.29562-.243-.36086-.42744s-.06658-.43077-.11052-.60254a2.33325,2.33325,0,0,1-.14248-.41678,1.40109,1.40109,0,0,1,.0992-.36153c.03529-.14447.03462-.32624.06658-.49335a2.71766,2.71766,0,0,0,.04394-.53263h0c.00333-.07457.01265-.16379.01132-.24834a.90266.90266,0,0,1,.37217-.08789,5.79161,5.79161,0,0,0,1.13983-.2297c.22571-.08455.43876-.1751.64649-.2743a6.69776,6.69776,0,0,1,.62451-.285c.13649-.04794.2257.04461.29029.17377.012.03.0253.05926.03861.08922a2.60052,2.60052,0,0,1,.251,1.4907c-.0233.15646-.07789.3329-.18575.3835-.2317.11185-.62185-.10986-.66579-.04395s.0759.1012.12916.13316m-2.45477-1.66447c.28563-.0566.60854-.09122.92146-.14248.41878-.06658,1.09522-.34089,1.13917-.30693s-.11918.10719-.18643.14248a3.84481,3.84481,0,0,1-1.30428.39414c-.27963.03529-.79029.11252-.81027.03329s.1578-.10386.24035-.1205m4.07664-1.556a5.36624,5.36624,0,0,1-.74435.41612c-.10253.05127-.28363.18908-.41679.15313a.11313.11313,0,0,1-.04993-.02929c-.01664-.03-.03263-.06059-.04927-.09122a1.08252,1.08252,0,0,1-.15313-.43809c.01665-.12783.239-.225.38416-.31758a1.63936,1.63936,0,0,1,.4594-.241,1.14921,1.14921,0,0,1,.71373.07457.19975.19975,0,0,1,.11984.15513c.00866.14714-.17976.257-.26632.31825M34.801,12.40968a4.96624,4.96624,0,0,1,.8329.30692,7.34832,7.34832,0,0,1,.71173.4381c.13849.08588.31892.15845.27431.36152-.024.10653-.13315.15846-.23036.219a.79769.79769,0,0,1-.10986.07657c-.23968.08123-.50067-.09721-.67977-.14248-.11119-.07723-.16179-.26632-.273-.36152-.04195-.03462-.17377-.06658-.16445-.14248s.10386-.07124.17444-.06658c.13315.01065.37284.14647.40347.09787s-.21239-.17976-.34821-.24035a5.31323,5.31323,0,0,1-.59922-.285c-.028-.07723-.07923-.21771.01132-.26632m-2.49871.39415a.37415.37415,0,0,1,.20839-.1751c.13782.12716.29429.01331.40547-.06658.20706.0273.37817-.038.526.03329.06059.02929.08855.14514.14247.15313s.10786-.0739.11385-.09787-.08988-.18709-.1265-.18642a.235.235,0,0,1-.15246-.27431c.06658-.07457.20573-.02463.29561,0,.0759-.024.07124-.12716.13316-.16445.15046.06192.277-.02463.43808-.03329.21173-.01132.43543.09122.42677.25234a.18109.18109,0,0,1-.13315.15313c-.13982.04461-.3542-.01332-.39947.07856s.33688.20507.46272.40414a1.06857,1.06857,0,0,1,.13316.6791.91817.91817,0,0,1-.58124.504.666.666,0,0,1-.1751.06658c-.26632.01131-.29029-.253-.39415-.42744-.289.05659-.09521.281.022.46006.18908.29362.38016.58923.5526.89815h-.004a.251.251,0,0,1,.04195.1558c-.02331.13848-.46206.24168-.59922.285a9.86431,9.86431,0,0,1-2.18046.482.2417.2417,0,0,1-.1265-.14248c-.01132-.06059-.0233-.12051-.03728-.17643h0a1.49925,1.49925,0,0,1,0-.17378c.07323-.16445.22769-.15979.44874-.21971.13782-.03662.2237-.12384.36152-.10919a.262.262,0,0,1,.06658.01731c.0213.01665.04328.03263.06658.04861.04527.03062.10653.06657.17111.10186h0c.15446.08256.33289.15713.3775.12917.06658-.04-.03062-.17244,0-.25367.12784-.10187.28629.05126.40547.022s.11119-.20307.13316-.35087c.03994-.09388.11451-.1245.13315-.20839.034-.17111-.1225-.37884-.229-.504a8.94894,8.94894,0,0,0-.745-.723c-.10919-.09986-.3329-.279-.32891-.39481,0-.08389.10453-.1731.15314-.241m-.53862.33689c.07856-.13316.34887.11584.494.24434a6.36387,6.36387,0,0,1,.69109.66579c.10653.12451.291.231.25167.4048-.11451-.00332-.32158,0-.43742-.01065-.09521.0293-.07257.17577-.13316.241-.16178.01931-.24834-.15247-.36152-.25167s-.257-.18708-.35021-.285a.34815.34815,0,0,1-.10919-.21971c.01-.10653.16778-.14714.18575-.25167.03995-.23968-.31026-.40746-.23169-.54m.09787,1.65849a.65932.65932,0,0,1,.06658.032c.05726.251-.16245.3016-.37284.36152-.13316.03862-.30294.14448-.41612.07657a.11087.11087,0,0,1-.0253-.022c-.01332-.028-.0273-.05659-.04061-.08722-.04395-.10187-.16579-.31292-.14248-.39481s.18309-.08656.29494-.08722a2.0192,2.0192,0,0,1,.63384.12117M29.58114,12.6447c.16312,0,.26632-.18509.43809-.18642a.544.544,0,0,1,.28562.12051c.08722.06658.11386.18109.20773.219.0799.03329.17843.01732.26632.044a1.034,1.034,0,0,1,.285.1751c.10253.08389.23968.16911.25233.30693.02064.239-.18176.43343-.29694.56992s-.17177.26631-.36086.29561a.83823.83823,0,0,1-.78962-.44875.53244.53244,0,0,1-.06658-.23036c.00466-.12384.1265-.25833.06058-.3016s-.13316.06058-.17443.1285a.89012.89012,0,0,0,.012.51066,1.96764,1.96764,0,0,0,.3542.47337c.14115.13316.31892.23636.43743.37285a1.53147,1.53147,0,0,1,.25633.43742.33293.33293,0,0,1-.00333.24168c-.07524.14781-.50334.24768-.70108.29561-.53263.12983-1.08458.25167-1.64384.33956a6.63616,6.63616,0,0,1-.85488.10985c-.04927-.01-.05326-.034-.04993-.06058.04061-.12451.0779-.26632.14847-.279.1518-.02663.28562.31159.46073.07657-.01332-.10054-.09787-.12917-.05593-.23037.07923-.18775.32691.03.41745.03329a.42942.42942,0,0,0,.31692-.23036c.01931-.05393.016-.12317.03329-.18642a1.86483,1.86483,0,0,0,.09854-.32824,2.21594,2.21594,0,0,0-.13316-.71239c-.07058-.21972-.275-.37151-.2297-.66579a1.42548,1.42548,0,0,1,.285-.49336c.0486-.06657.11052-.14114.16445-.219a1.39077,1.39077,0,0,1,.1538-.2297c.10453-.08589.41079-.18376.42677.0546m-2.52135,3.22309a.1481.1481,0,0,1,0-.04527c.02263-.13316.221-.1578.30693-.1538a.07456.07456,0,0,1,.06657.04527.133.133,0,0,1,.01132.05327.57455.57455,0,0,1-.21705.31225c-.03062.012-.09521-.08189-.16778-.21172m.73237.30494c.38483-.07258.77166-.10653,1.16114-.18576a14.37788,14.37788,0,0,1,1.49-.3289c.0273.05393-.18775.11918-.29561.15313a9.5743,9.5743,0,0,1-2.53.51532c-.05194,0-.1538,0-.16379-.04394s.22637-.08789.34022-.10986m.67911-3.38554a2.12589,2.12589,0,0,1,.69042-.83291c.08256-.05326.2084.07657.2084.15313,0,.09255-.18443.25034-.25234.3289A3.90818,3.90818,0,0,0,28.43,13.4583c-.36086-.08922-.08722-.43543.04394-.66579m-1.01932.95341c.12583.00533.26631.15646.31025.10054s-.14048-.26632-.18908-.41879a.2457.2457,0,0,1-.01465-.239c.06059-.11651.3329-.004.44142.09654a3.49058,3.49058,0,0,1,.74568,1.13185,1.74965,1.74965,0,0,1,.06658.25166c.00533.08523-.00932.21972-.08788.21905s-.09122-.18243-.1538-.18576c-.1731.09188-.03928.43343-.219.49269-.1052.03529-.17977-.09121-.19974-.15313-.03529-.1265.01465-.31425-.02131-.41679s-.15779-.13715-.26631-.22969c-.08256-.07258-.1518-.16046-.23037-.241a1.59074,1.59074,0,0,1-.21971-.241c-.02863-.06058-.03529-.12184.03329-.16445m-.83224,1.03a3.1293,3.1293,0,0,0,.6132.12051c.10319.09654.23768.18242.241.35021a.30552.30552,0,0,1-.03529.12783.36076.36076,0,0,1-.04128.05859,1.72194,1.72194,0,0,1-.482.05526.259.259,0,0,1-.11585-.11252l-.00532-.00865a3.40425,3.40425,0,0,1-.261-.52664.062.062,0,0,1,.08655-.06658M23.85534,15.8172c.73236-.03329,1.56194-.06658,2.24637-.14248.12784-.01332.27431-.05526.38417-.0546.0446,0,.14048-.01731.14181.07657,0,.08256-.17976.09255-.229.09854-.63184.08056-1.43878.0739-2.09325.13316-.22038.0193-.69708.06325-.71639-.0293s.18442-.07657.26632-.08056m3.60525,3.43016a.7663.7663,0,0,1-.33888,0c-.59922-.11718-1.21907-.38083-1.80829-.47138a1.24751,1.24751,0,0,0-.45007-.01132c-.15513.038-.26632.15779-.4594.17577-.17444-.19108-.06059-.45074-.12051-.67977-.03395-.13316-.14514-.23769-.18642-.36153a3.429,3.429,0,0,1-.07723-.37218,7.24644,7.24644,0,0,0-.20773-1.1618l-.008-.02a.26643.26643,0,0,1,0-.11119c.03729-.14714.38416-.15979.57991-.17577.70507-.05659,1.44476-.12717,2.08192-.16445a.45737.45737,0,0,1,.31825.07723.42428.42428,0,0,1,.1052.14381c.00932.02464.018.04994.02663.07524a2.6571,2.6571,0,0,1,.16445.89815c0,.33289-.02.71372-.219.85487a.61245.61245,0,0,1-.39548.06658c-.06658-.00466-.16845-.0486-.20707.022-.00665.09188.10786.08922.16312.10919.07057.0253.14914.06126.22038.08789.14714.05592.32823.08855.45939.15313a.84351.84351,0,0,1,.35088.43876.542.542,0,0,1,.01065.42743m.25233-.51532a1.247,1.247,0,0,0-.1751-.30693,1.12438,1.12438,0,0,1-.19974-.285c-.04261-.19108.08855-.37284.09854-.58057.014-.3016-.07324-.68243-.07657-.96406a.51537.51537,0,0,1,.00333-.06259l.00733-.014c.05792-.10386.52464-.11119.789-.1538s.528-.08722.789-.14248c.52331-.10985,1.026-.2743,1.512-.36152a.83219.83219,0,0,1,.32891.01132.39417.39417,0,0,1,.18775.16445c.01531.08455.03.16911.04194.25166a2.6465,2.6465,0,0,1,.01132.96407c-.03063.13715-.06658.279-.08722.43876-.04061.25433-.0466.51266-.26632.58057a1.52139,1.52139,0,0,1-.8329-.13316c.05127.35287.57325.279.87618.39481a.57257.57257,0,0,1,.24168.285.43542.43542,0,0,1,.04261.40547c-.21105.02929-.32091-.16112-.45939-.241a1.61783,1.61783,0,0,0-.59922-.241,4.81739,4.81739,0,0,0-.526.06658,2.49784,2.49784,0,0,0-.27364,0,1.58981,1.58981,0,0,0-.59255.39481c-.09921.08522-.38616.4261-.53663.43809a.34963.34963,0,0,1-.17511-.06658c-.06657-.26632-.04261-.57258-.13315-.84355m.26631,1.62186c-.01265-.15779-.11318-.29561-.08722-.43875.01532-.09188.22238-.223.29562-.27364.1225-.08589.23835-.16778.3289-.241a1.99068,1.99068,0,0,1,.67844-.44941,6.21923,6.21923,0,0,1,.62518-.03262,1.13179,1.13179,0,0,1,.73236.25167c.10853.06657.21306.14181.31759.20839.235.1498.492.23169.69042.36152a1.00794,1.00794,0,0,1,.17577.16445.80431.80431,0,0,1,.05393.3289,1.114,1.114,0,0,0,.14314.36153c.08056.13316.36485.35487.19974.482-.08788.06658-.44741-.01664-.54861-.06658s-.21172-.1964-.17444-.285.23036-.04194.27364-.1205-.10253-.29961-.16445-.33956c-.0992-.06657-.30693-.06125-.39481-.09853-.1578-.06658-.25434-.34089-.41612-.43809-.06658-.03862-.18509-.05327-.25167-.08789-.16844-.08788-.27031-.259-.46006-.23036-.13316.02064-.229.20639-.3289.25233a1.01666,1.01666,0,0,1-.42811.06658c-.243-.01065-.41678-.03262-.55793.12051a1.165,1.165,0,0,0-.08788.15313c-.06658.1012-.2277.34288-.3289.3835a.30161.30161,0,0,1-.285-.03263m2.92548.08722c.10453-.0719.1791.07857.26632.14248a.64381.64381,0,0,0-.24035.51532,2.88546,2.88546,0,0,1-.285-.06658.80961.80961,0,0,1,.26232-.59188m-.54728.36219c-.247.10985-.466-.08922-.745-.10986-.14847-.01065-.30559.02264-.46006.01065a1.14384,1.14384,0,0,1-.62518-.219.66048.66048,0,0,1,.23037-.285,1.01191,1.01191,0,0,1,.30693-.19974,1.61843,1.61843,0,0,1,.241,0,1.93072,1.93072,0,0,0,.71173-.19974c.13316-.0739.21505.10587.29628.18643a2.1969,2.1969,0,0,0,.39415.26631c-.12318.16712-.1518.45807-.35021.548m-2.88221.789c.15114.04927.31093.10054.42744.13316.05526.01465.10453-.0213.14181.0546a.64315.64315,0,0,1-.54728.23036.835.835,0,0,1-.27364-.18642c-.12117-.09521-.24834-.13782-.2743-.29561.10653-.12184.34089.00466.526.06658m-3.26238-1.07392a1.21042,1.21042,0,0,1,.79829-.5959c.10187-.01265.20773.00533.31758-.01132.13316-.0193.26166-.11052.3835-.1205a1.38211,1.38211,0,0,1,.73237.25233c.0466.04395.08056.13316.13316.19974.0992.12583.31492.20373.31758.33955,0,.08655-.07257.11185-.13316.18642s-.07324.13782-.15313.1538a.98126.98126,0,0,1-.33955-.05526c-.22637-.0506-.40614-.0992-.64715-.14248a1.291,1.291,0,0,0-.35087-.04328c-.18509.02264-.3076.20573-.482.25167a2.18676,2.18676,0,0,1-.67977.03262c-.15579-.17443,0-.33955.08855-.44874m-4.98611,4.594a.42479.42479,0,0,1-.29561.03c-.01664-.03063.07657-.1245.1538-.12917.06658,0,.16512.05659.14181.09921m-1.46873-1.38352c.08322-.22171.219-.51932.39548-.59189a1.46475,1.46475,0,0,1,.85022-.04327c.19374.06658.10186.524.04793.82158a2.5007,2.5007,0,0,1-.77764,1.23771c-.80627.08988-.73237-.84555-.516-1.42413m-1.18777,1.61055c-.032.14182-.31093.21572-.47072.1538-.12849-.04993-.28695-.20373-.25166-.36219a.902.902,0,0,1,.09787-.219c.06657-.11252.08122-.24967.21971-.26632.09654-.00866.16844.11718.24035.24168s.20373.2823.16445.44941m2.09791.89749c-.11718,0-.16245-.219-.12983-.28363s.279-.11185.31891.008a.25832.25832,0,0,1-.18908.27564m.71572.23835c-.07523.14181-.09787.29428-.20439.3076-.17511.022-.33756-.21505-.26632-.42278a.73238.73238,0,0,1,.512-.44741.14714.14714,0,0,1,.17623.11065l.00287.01718c.03.20373-.14381.29694-.21838.43476m1.33158-.5c-.30892.05393-.4554-.257-.64714-.3289-.3329,0-.62785,0-.91946.01065a3.19605,3.19605,0,0,1-.91014-.0213,1.77274,1.77274,0,0,0-.47138-.16445c-.2803-.01931-.72305.07323-.89748-.04395-.21372-.14314-.14115-.4554-.12051-.72371a2.0786,2.0786,0,0,0-.494-1.67579c-.028-.028-.16978-.14381-.16378-.23037.018-.259.32291-.05393.42677,0,.25566.13316.72571.15313.90348.31159s-.03.8875-.04794,1.31028c-.004.08389.01465.215.022.3502a1.10533,1.10533,0,0,0,.022.34022c.05659.13649.37418.1831.59123.19974a9.17764,9.17764,0,0,0,1.46873-.04394c.1265-.01065.25766-.00666.37218-.022a1.15441,1.15441,0,0,1,.59122,0,1.07441,1.07441,0,0,1,.28562.219c.06658.06059.19974.17643.19974.29561a.26634.26634,0,0,1-.20839.21971m1.19842.54329a.39944.39944,0,0,1-.05193.014l-.00533.016a.27235.27235,0,0,1-.21039-.03728.3602.3602,0,0,1-.18242-.16112.19972.19972,0,0,1,0-.18775c.04194-.13316.15513-.1518.29428-.15646s.245.277.15579.51265m.26632-.83956c.014.11651-.35553.1751-.504.18642-.20506.016-.6325.02263-.57058-.18642.028-.09388.4261-.10653.57058-.10919.06058,0,.49-.006.504.10919m-1.233-.8216a5.04657,5.04657,0,0,0,.71306-.01065c.47005-.006.92811-.04,1.40282-.04394a3.32958,3.32958,0,0,1,.69309-.01865c.13981.0293.34088.2084.29561.35021s-.21971.08722-.32957.022c-.14913-.08922-.223-.221-.482-.19974-.16711.01532-.35287.08722-.56991.10919-.39615.04128-.84156.04394-1.237.08789-.31093.03462-.61653.11918-.81094-.03329-.1225-.1518-.14048-.44475-.36152-.44875-.11185,0-.13849.09787-.19974.1538a.39412.39412,0,0,1-.229.12051.466.466,0,0,1-.37284-.31825c-.01-.12317.14248-.34421.20839-.55859.08322-.27031.03262-.61453.13316-.77831a.37149.37149,0,0,1,.494-.13316,1.29428,1.29428,0,0,1,.18576.986c-.02264.12451-.1032.2064-.09787.31825.01.21705.34887.36219.56858.39415m.84423-1.86421a3.46112,3.46112,0,0,0-.27431.24035c-.13316.13316-.19973.2743-.31691.37351a.44615.44615,0,0,1-.285.10919c-.14381-.02131-.24835-.271-.30693-.41612-.03662-.08988-.04528-.18776-.07724-.285a1.27268,1.27268,0,0,1-.08721-.27364c-.01732-.33889.21571-.41412.42743-.55927.13316-.09054.19974-.19441.35087-.20772.11519-.01065.16645.08522.241.16378.11984.12717.257.253.40547.3835.08056.07057.17444.14913.17444.20839,0,.08522-.16246.19175-.25167.26632m3.66185,1.20574c-.06991-.16312-.44608-.24168-.49335-.44941-.07857-.34754.28629-.29095.31691-.548-.37217-.04594-.79895.1265-1.22638.09854a1.98455,1.98455,0,0,1-.8116-.19974c-.11851-.06657-.478-.29627-.44875-.51532.01265-.09321.17844-.19507.285-.241a6.44412,6.44412,0,0,1,.83291-.25167c.29428-.0779.58456-.17377.84289-.23037a.94946.94946,0,0,1,.69109.14248c.13316.06658.255.13316.2743.25167a.72571.72571,0,0,1-.12117.42744c-.06259.11318-.17843.20972-.1751.34022.06657.06658.12716.03462.19973.06658.21972.09654.3329.58057.32824.94342,0,.23769-.02264.79895-.25234.79895-.245,0-.15979-.44741-.24035-.63516m.81626,1.47206a3.18853,3.18853,0,0,0,.79429.07257c.39947.032.8409.01864,1.2164.022a5.39338,5.39338,0,0,1,.54728.06658,2.52122,2.52122,0,0,1,.38416,0,.3482.3482,0,0,1,.18576.42743c-.14315.04395-.24035-.15912-.29561-.15046a.99338.99338,0,0,1-.49269.1285c-.16711-.03063-.32957-.19974-.526-.23037a9.171,9.171,0,0,0-.95341-.03263c-.16645-.006-.32757,0-.494-.01131a3.22652,3.22652,0,0,0-.45939-.044c-.10586.01132-.19242.10453-.29561.08789-.22571-.03529-.24368-.64515-.10586-.72039s.36485.3116.49468.38483m.80494-3.27036a1.22911,1.22911,0,0,0-.20773-.19641,1.4302,1.4302,0,0,0-.41678-.31758c-.19242-.07723-.39947-.07923-.58057-.14248-.24035-.08389-.39948-.29694-.74569-.285a3.09532,3.09532,0,0,0-.66579.13316,9.36586,9.36586,0,0,0-1.18244.41612,1.62655,1.62655,0,0,1-.767.241c-.13849-.00665-.45008-.08388-.44941-.20905,0-.1538.32091-.10653.49268-.14182.3329-.06658.5373-.34954.85421-.49268a5.76019,5.76019,0,0,1,1.01-.21838,6.46164,6.46164,0,0,1,1.06194-.285,1.55771,1.55771,0,0,1,.6032.14248,1.07385,1.07385,0,0,1,.29561.3502,2.13953,2.13953,0,0,0,.28563.36153c.06658.06191.18043.08855.25167.15379s.10919.1285.1751.18642a4.603,4.603,0,0,1,.58057.504.751.751,0,0,1,.17577.51465.68179.68179,0,0,1-.504-.05459c-.20573-.12717-.15913-.44209-.27431-.65847m.95674,1.56061c-.03262.02-.63383-.23568-.59921-.39947s.62917-.20906.67312.10653a.46609.46609,0,0,1-.07391.29628m-.28895-1.494c-.06658-.06658-.16312-.11718-.17444-.219.0313-.0799.18376-.06192.29561-.04395a1.25043,1.25043,0,0,1,.82226.47072,1.54854,1.54854,0,0,1,.05459.45007c.01065.14448.05593.29162.06658.40547.01665.19574-.00466.49335-.19974.504-.26165.01332-.1731-.249-.17577-.43875-.01-.58257-.38216-.81959-.69109-1.12852m1.10788,2.8163c-.026.19974-.39947.08056-.42744-.04395a.54282.54282,0,0,1,.03263-.17577c.02264-.15446-.04927-.33289-.022-.47138.0486-.25166.43276-.15179.39414.16446-.01131.09587-.15579.22037-.16112.28562s.19974.09721.18376.241m.91946-3.10126c-.02064.07723-.42345.1518-.59122.16445a1.27377,1.27377,0,0,1-.55927-.09853c-.08921-.03-.30759-.07724-.31758-.15313-.014-.11119.26632-.16912.3289-.18643a1.57546,1.57546,0,0,1,.43876-.08788,1.42558,1.42558,0,0,1,.40546.13316c.07724.03395.32358.1265.295.2297m1.15049.25233a5.19926,5.19926,0,0,1,.30692.65647.39945.39945,0,0,1-.47138,0c-.08988-.08788-.07789-.25033-.14181-.38283a2.08136,2.08136,0,0,0-.31825-.36152,1.3423,1.3423,0,0,1-.27364-.789c-.10253-.13316-.2277.0193-.39415.03329a.91213.91213,0,0,1-.4281-.09921c-.11119-.05126-.23236-.18575-.32757-.18575-.13715,0-.13848.12384-.16445.219-.08522.06658-.19974.16179-.30693.13316-.11984-.03462-.09388-.1751-.12051-.31758-.0213-.10919-.08722-.19974-.06658-.285.08589-.06658.18975-.03928.29562-.04394.31092-.01266.64914-.12517.92078-.12051.18776.00333.31759.1265.482.15379a5.76141,5.76141,0,0,1,.745,1.06527c.07656.11518.18176.21039.26232.3289m2.17048-.20839c.09054.11584.18642.30093.11984.39947s-.46605-.0546-.536-.31026a.97812.97812,0,0,0-.07723-.275c-.06658-.08921-.30893-.09987-.4827-.11984-.54994-.06192-1.05927-.08056-1.56661-.18576a2.89314,2.89314,0,0,1-.29561-.50467c.05793-.07656.11585-.09787.263-.08721a5.21285,5.21285,0,0,1,1.46873.36152,2.48216,2.48216,0,0,1,.6132.30693,2.762,2.762,0,0,1,.49335.41612m1.58857-1.0646a4.11613,4.11613,0,0,0-1.12852.01132c-.11917.05126-.19974.20706-.31758.285-.16178.10519-.31758.12183-.47138.20772-.1538-.06125-.26631-.16378-.41612-.2297-.05792-.1518.016-.4301-.04394-.61386-.03928-.1205-.17178-.23036-.1751-.33955-.01066-.239.492-.38882.72238-.40547.26632-.0193.88949.15647.43875.285-.07723.022-.16644.016-.1751.08722-.01265.10054.16778.12784.30626.12051.24235-.012.30893-.13649.548-.10919a1.27714,1.27714,0,0,1,.50467.18642,1.39792,1.39792,0,0,1,.19641.32824.35756.35756,0,0,1,.01131.18642m-.06657-.59922c-.273-.29028-.77964-.31958-1.07259-.61386.00932-.05992.04926-.08255.028-.1751s-.39281-.13316-.6092-.06658c-.09854.032-.20772.11385-.3289.16445a3.48855,3.48855,0,0,0-.35088.14248c-.12583.07457-.19973.19974-.30626.241-.0233-.09521-.02064-.18842-.04394-.29561-.01465-.06658-.0779-.14048-.06658-.19974.016-.07989.19974-.10852.27431-.14248.19974-.09254.37551-.2996.63583-.285a2.07922,2.07922,0,0,1,.99869.31759c.37817.19507.72638.3249,1.09589.55859.13316.08256.41678.271.42677.39482s-.15246.26631-.27364.27364c-.21705.01065-.29827-.2044-.40613-.31759m.28762.67512c.04527-.17244.64182-.1092.64448.11385.004.32823-.68909.05859-.64448-.11385m1.08324-.65314c.09254-.01266.227.018.251.06657.04261.0819-.07057.29162-.11984.35021a.49736.49736,0,0,1-.45008.14248.41746.41746,0,0,1-.032-.3835.81553.81553,0,0,1,.35087-.1751m1.06526-1.35422c-.024.15446-.36885.17777-.55394.24768-.17111.06658-.19973.22637-.31758.39414-.13915.19974-.38149.47738-.55194.41146s-.14647-.23369-.10519-.35686c.0506-.14581.36285-.29428.4827-.40547.23369-.21638.34887-.486.745-.526.19108-.01864.3249.08056.30094.235m2.20243.84156c-.12916.1558-.51865.05859-.51265-.12051.00533-.21771.55327-.16844.51265.12051"/>
  </g>
</svg>
