<svg xmlns="http://www.w3.org/2000/svg" xmlns:xlink="http://www.w3.org/1999/xlink" width="1908" height="361.947" viewBox="0 0 1908 361.947"><defs><style>.a{fill:none;}.b{clip-path:url(#a);}.c{clip-path:url(#b);}.d{opacity:0.05;}.e{fill:#07b5bd;}.f{fill:#f4f4f4;}</style><clipPath id="a"><rect class="a" width="1908" height="361.947"/></clipPath><clipPath id="b"><path class="a" d="M0,0,903.145.587l1.179,1803.6L1.179,1803.6Z" transform="translate(0 0)"/></clipPath></defs><g transform="translate(1908 3585.309) rotate(180)"><g class="b" transform="translate(0 3223.362)"><g class="c" transform="matrix(0.105, 0.995, -0.995, 0.105, 2088.575, -628.639)"><g class="d" transform="translate(-648.064 87.517)"><path class="e" d="M64.78,450.6C105.078,287.865,131.213,88,233.9,61.866c102.652-26.512,282.16,119.922,461.9,140.2C875.915,222.3,1083.708-9.062,1252.786,1.134c168.7,10.227,252.435,219.992,222.632,365.089-30.21,144.755-154.357,375.613-196.164,572.68s-4.8,371.676-33.508,512.118c-28.333,140.409-169.42,221.331-329.38,173.478s-288.194-193.1-371.4-309.634S423.6,1110.506,326.436,1040.791C228.9,971.108,72.346,919.158,21.248,829.811S24.516,613.72,64.78,450.6Z"/></g></g><path class="f" d="M2158.738,3154.74c-101.649,104.76-255.832,140.763-401.328,139.725s-288.873-33.922-433.963-44.921c-326.088-24.72-650.236,61.5-960.174,166.434C156.009,3486.154-58.912,3566.289-275.4,3535.23V3154.4Z" transform="translate(1.721 -3223.362)"/></g></g></svg>