<svg xmlns="http://www.w3.org/2000/svg" xmlns:xlink="http://www.w3.org/1999/xlink" width="513.17" height="1014.993" viewBox="0 0 513.17 1014.993"><defs><style>.a{fill:none;}.b{clip-path:url(#a);}.c{opacity:0.05;}.d{fill:#ff6053;}</style><clipPath id="a"><rect class="a" width="513.17" height="1014.993" transform="translate(0 1442.353)"/></clipPath></defs><g transform="translate(0 -1442.353)"><g class="b"><g class="c"><path class="d" d="M-331.624,1745.4c22.958-91.6,37.882-204.083,96.237-218.828,58.337-14.957,160.28,67.384,262.4,78.728,102.335,11.325,204.85-48.347,300.917-42.671,95.854,5.694,185.49,76.929,168.5,158.595-17.219,81.473-141.082,173.165-164.91,284.081s52.593,241.037,36.23,320.083c-16.151,79.027-125.068,107.191-215.94,80.321S-11.866,2297.145-59.1,2231.594s-68.889-114.961-124.07-154.158c-55.394-39.179-144.33-68.357-173.331-118.619S-354.563,1837.209-331.624,1745.4Z"/></g></g></g></svg>