<svg xmlns="http://www.w3.org/2000/svg" xmlns:xlink="http://www.w3.org/1999/xlink" width="629.18" height="432.362" viewBox="0 0 629.18 432.362"><defs><style>.a,.b,.j{fill:none;}.a,.b{stroke:#ffd100;}.a{stroke-linecap:round;stroke-linejoin:round;stroke-width:2px;}.b,.j{stroke-miterlimit:10;}.b{stroke-width:0.75px;}.c{opacity:0.1;}.d{fill:#ffd100;}.e{fill:#07b5bd;}.f{fill:#f4f4f4;opacity:0.7;}.g{fill:#f2f2f2;}.h{fill:#afb9c5;}.i{fill:#c5cfd6;}.j{stroke:#cbcbcb;stroke-width:8px;}.k{fill:#dde3e9;}.l{fill:#0d1e51;}.m{fill:#fff;}.n{fill:#89c5cc;}.o{fill:url(#a);}.p{fill:#e2a47a;}.q{fill:#db5669;}.r{fill:#e3e3e2;}.s{fill:#f9b485;}.t{fill:#eb5766;}.u{fill:#c94741;}.v{fill:#ff6053;}.w{fill:#191847;}</style><linearGradient id="a" x1="0.136" y1="0.066" x2="0.656" y2="0.67" gradientUnits="objectBoundingBox"><stop offset="0.095" stop-color="#fff"/><stop offset="0.125" stop-color="#fff" stop-opacity="0.929"/><stop offset="0.225" stop-color="#fff" stop-opacity="0.714"/><stop offset="0.328" stop-color="#fff" stop-opacity="0.522"/><stop offset="0.432" stop-color="#fff" stop-opacity="0.361"/><stop offset="0.538" stop-color="#fff" stop-opacity="0.231"/><stop offset="0.646" stop-color="#fff" stop-opacity="0.129"/><stop offset="0.757" stop-color="#fff" stop-opacity="0.059"/><stop offset="0.872" stop-color="#fff" stop-opacity="0.016"/><stop offset="1" stop-color="#fff" stop-opacity="0"/></linearGradient></defs><g transform="translate(-949.321 -1601.804)"><path class="a" d="M1252.361,1643.619c.37.642,22.713-13.728,22.98-13.267.976,1.69-57.73,40.131-56.807,41.73,1.356,2.348,95.113-57.658,96.3-55.6,1.705,2.953-114.371,72.8-112.852,75.434,2.1,3.634,134.294-81.292,135.921-78.474,2.5,4.328-148.541,91.9-146.612,95.242,2.067,3.58,161.625-98.863,164.028-94.7S1180.63,1719.6,1183.5,1724.573c2.711,4.695,184.025-112.87,186.893-107.9,2.674,4.633-195.239,115.829-192.021,121.4,3.294,5.7,201.222-122.4,203.918-117.731,2.931,5.076-210,123.567-207.142,128.517,2.823,4.89,213.57-129.236,216.138-124.787,2.667,4.619-222.336,133.362-219.249,138.709,3.838,6.648,226.514-139.493,230.288-132.956,4.1,7.11-234.979,140.193-232.107,145.166,3.843,6.657,237.212-146.434,241.317-139.325,3.463,6-246.175,144.208-242.335,150.859,3.024,5.239,247.631-150.066,250.7-144.744,4.1,7.1-254.694,148.536-251.046,154.855,3.572,6.188,254.509-155.34,258.146-149.04,3.292,5.7-261.614,154.375-257.9,160.8,4.361,7.555,262.274-159.8,265.9-153.519,3.879,6.718-269.379,157.269-265.005,164.846,3.156,5.465,268.738-163.753,272.46-157.306s-275.342,158.616-271.449,165.36c3.833,6.638,273.052-166.049,276.69-159.747,4.726,8.186-278.407,164.516-274.725,170.894,4.112,7.121,278.172-168.874,281.754-162.671,4.76,8.247-283.878,164.85-279.507,172.42,3.495,6.054,281.48-171.762,285.486-164.825,4.3,7.453-287.394,166.292-282.837,174.184,3.4,5.883,284.853-172.887,288.5-166.567,4.371,7.57-290.029,167.117-285.765,174.5,3.561,6.169,285.859-175.915,290.567-167.76,3.853,6.673-291.418,169.324-286.626,177.623,3.468,6.007,288.275-176.062,292.443-168.842,3.972,6.88-293.234,169.094-288.388,177.489,4.972,8.611,290.018-175.319,293.429-169.412,4.06,7.032-294,168.985-289.251,177.2,4.658,8.068,290.1-176.008,293.792-169.621,4.718,8.172-294.873,167.612-290.18,175.74,4.745,8.218,289.2-177.4,293.715-169.577,4.309,7.464-293.632,168.609-289.091,176.475,4.508,7.807,288.349-177.388,293.073-169.206,3.852,6.672-292.993,167.337-288.268,175.522,4.069,7.047,287.985-175.49,291.978-168.574,4.444,7.7-291.044,167.686-287.391,174.012,4.2,7.283,285.909-175.775,290.544-167.746,4.137,7.165-287.333,168.586-283.533,175.167,3.959,6.856,284.22-172.575,287.892-166.214,4.721,8.177-284.522,166.012-280.406,173.14,4.052,7.019,281.1-170.16,284.509-164.261,4.776,8.271-280.54,162.99-275.691,171.388,4.631,8.021,276.058-168.291,279.915-161.61,4.739,8.207-276.549,160.125-272.8,166.62,3.905,6.765,271.8-166,275.728-159.191,3.326,5.76-270.68,157.9-266.651,164.883,3.742,6.481,266.788-161.441,270-155.883,3.089,5.351-267.183,152.144-262.729,159.859,4.519,7.827,261.219-159.819,265.118-153.066,3.792,6.569-258.637,151.1-254.552,158.173,3.963,6.865,253.447-155.647,257.483-148.658,3.293,5.7-249.074,147.058-245.337,153.531,3.418,5.92,244.441-149.579,248.1-143.241,3.21,5.56-242.725,139.726-238.842,146.452,3.987,6.905,236.421-146.055,240.559-138.887,3.286,5.691-230.526,136.471-226.9,142.746,3.048,5.279,225.3-138.374,228.892-132.151,2.914,5.048-220.616,128.917-217.235,134.774,3.07,5.318,215.663-130.823,218.4-126.09,2.888,5-207.52,123.3-204.552,128.446,3.111,5.389,202.132-124.1,205.337-118.552,2.695,4.667-191.667,115.622-188.9,120.415,2.614,4.527,186.61-113.275,189.007-109.123,2.182,3.779-171.494,106.414-169.446,109.962,2.058,3.564,165.707-101.658,168.3-97.168,2.039,3.531-150.852,92.882-148.625,96.74,2.239,3.877,143.943-87.912,146.024-84.307,1.606,2.782-126.368,79.3-124.674,82.238,1.782,3.086,118.056-72.662,120.005-69.285,1.444,2.5-92.46,61.23-91.083,63.614,1.091,1.891,79.39-48.887,80.712-46.6"/><path class="b" d="M1497.553,1742.476c31.932,61.386,48.816,125.25,25.417,168.651-23.49,43.31-87.261,66.158-152.409,66.892-65.24.734-131.673-20.462-168.927-71.755-37.162-51.384-45.145-132.682-11.928-194.894,33.308-62.12,107.723-105.154,168.375-97.171S1465.622,1681,1497.553,1742.476Z"/><g class="c"><path class="d" d="M1538.728,1705.336c25.582,49.179,39.108,100.343,20.363,135.114-18.819,34.7-69.909,53-122.1,53.59-52.267.588-105.489-16.393-135.335-57.486-29.772-41.167-36.167-106.3-9.556-156.138,26.685-49.767,86.3-84.244,134.893-77.849S1513.146,1656.084,1538.728,1705.336Z"/></g><g class="c"><path class="d" d="M1400.136,1801.2c25.582,49.179,39.108,100.343,20.363,135.113-18.819,34.7-69.91,53-122.1,53.59-52.266.588-105.488-16.393-135.334-57.486-29.772-41.166-36.168-106.3-9.556-156.138,26.684-49.767,86.3-84.244,134.893-77.848S1374.554,1751.943,1400.136,1801.2Z"/></g><path class="e" d="M1527.305,1715.612c20.687,34.525,50.09,72.923,36.947,94.954-13.074,22.09-68.614,28-102.81,55.356-34.255,27.429-47.167,76.309-77.83,103.551-30.605,27.172-79.088,32.718-98.581,2.985-19.365-29.744-9.669-94.707-35.916-135.316s-88.494-56.794-107.385-85.548c-18.95-28.685,5.387-70,40.873-89.287s82.048-16.612,116.039-11.091,55.409,13.885,83.853,9.068c28.5-4.887,64.1-22.9,87.987-16.489S1506.549,1681.029,1527.305,1715.612Z"/><ellipse class="f" cx="314.59" cy="10.762" rx="314.59" ry="10.762" transform="translate(949.321 2012.641)"/><circle class="g" cx="37.053" cy="37.053" r="37.053" transform="translate(1440.575 1654.697)"/><circle cx="2.097" cy="2.097" r="2.097" transform="translate(1475.53 1660.29)"/><circle cx="2.097" cy="2.097" r="2.097" transform="translate(1446.167 1689.653)"/><circle cx="2.097" cy="2.097" r="2.097" transform="translate(1504.893 1689.653)"/><circle cx="2.097" cy="2.097" r="2.097" transform="translate(1475.53 1719.016)"/><path class="h" d="M1477.628,1666.582l1.4,24.469h-2.8Z"/><path class="h" d="M1490,1704.123l-12.853-10.875,1.978-1.978Z"/><circle class="i" cx="2.796" cy="2.796" r="2.796" transform="translate(1474.831 1688.954)"/><path class="j" d="M1313.4,2016.078V1787.064a11.184,11.184,0,0,1,3.275-7.907l34.558-34.574h0a5.594,5.594,0,0,1,7.91,0l12.981,12.987"/><rect class="h" width="41.248" height="4.894" rx="2.097" transform="translate(1293.125 2015.379)"/><path class="i" d="M1396.945,1749.949l13.842,13.841h0l-32.627,32.627h0l-13.842-13.841a23.07,23.07,0,0,1,0-32.627h0A23.07,23.07,0,0,1,1396.945,1749.949Z"/><ellipse class="g" cx="23.071" cy="4.544" rx="23.071" ry="4.544" transform="translate(1374.394 1792.828) rotate(-45)"/><path class="k" d="M1179.143,1854a11.827,11.827,0,0,1,6,.629c3.961,1.678,5.086,6.362,5.034,10.163-.059,4.093-.928,8.563,2.184,11.861,1.43,1.516,3.21,2.676,4.614,4.22a19.953,19.953,0,0,1,3.55,5.565c1.6,3.724,2.387,8.1.923,12.009-1.289,3.439-4.532,6.543-3.831,10.454.729,4.084,4.842,7.2,7.413,10.241,2.911,3.439,5.593,7.834,6.03,12.344.42,4.322-1.459,8.693-4.346,11.96-5.768,6.527-14.439,9.727-23.181,9.708-3.713-.009-7.915-.177-11.116-2.171a6.125,6.125,0,0,1-2.1-2.27,7.392,7.392,0,0,0-2.032-2.033,12.064,12.064,0,0,1-3.869-5.168c-3.173-7.853-.637-17.568,3.8-24.539,1.053-1.652,1.914-3.242,1.4-5.211a20.146,20.146,0,0,0-3.007-5.681,45.7,45.7,0,0,1-3.35-5.3,12.026,12.026,0,0,1-1.036-6.213,21.135,21.135,0,0,1,4.552-11.091c2.393-3.15,5.205-6.165,5.211-10.292.007-4.374-2.918-8.266-1.672-12.714a8.475,8.475,0,0,1,3.223-4.835A13.125,13.125,0,0,1,1179.143,1854Z"/><path class="i" d="M1177.834,1861a1.008,1.008,0,0,1,1.171-.813,1.087,1.087,0,0,1,.113.027c.722.2.708.877.689,1.478a19.856,19.856,0,0,0,.653,5.436c.923,3.728,2.627,7.163,3.981,10.743a19.541,19.541,0,0,1,1.192,11.058c-.747,3.569-1.92,7.044-2.686,10.62-.674,3.15-1.39,6.472-.365,9.613.988,3.025,3.17,5.488,4.743,8.221a38.761,38.761,0,0,1,4.89,18.393,34.447,34.447,0,0,1-.687,8.969c-.4,1.694-.939,3.985-2.391,5.152a1.66,1.66,0,0,1-2.377-.07c-.529-.748-.065-1.908.1-2.707a40.977,40.977,0,0,0,.7-10.5,37.9,37.9,0,0,0-1.64-10.039,33.96,33.96,0,0,0-4.275-8.357c-1.809-2.685-3.69-5.377-4.437-8.559-.76-3.232-.14-6.521.682-9.691.873-3.356,2.016-6.61,3.2-9.873a17.32,17.32,0,0,0,.924-9.512C1180.757,1874.013,1177.4,1867.843,1177.834,1861Z"/><path class="k" d="M1232.02,1861.98a15.024,15.024,0,0,1,6.706,3.871c3.756,4.048,2.6,10.167.53,14.636-2.233,4.81-5.615,9.647-3.706,15.163.877,2.538,2.351,4.836,3.182,7.392a25.8,25.8,0,0,1,1.223,8.429c-.09,5.236-1.484,10.824-5.265,14.681-3.33,3.4-8.775,5.383-10.02,10.37-1.3,5.205,1.876,11.033,3.286,15.965,1.6,5.581,2.415,12.172.548,17.734-1.789,5.331-6.306,9.521-11.419,11.885-10.217,4.719-22.079,3.993-32.322-.579-4.349-1.941-9.19-4.326-11.893-8.352a7.87,7.87,0,0,1-1.264-3.775,9.5,9.5,0,0,0-1.313-3.464,15.544,15.544,0,0,1-1.8-8.125c.43-10.938,8.539-21.108,17.433-27.045,2.108-1.406,3.958-2.838,4.4-5.433.461-2.709-.1-5.583-.523-8.277a59.444,59.444,0,0,1-1.127-8.011,15.7,15.7,0,0,1,2.069-7.888,27.621,27.621,0,0,1,11.2-10.747c4.474-2.48,9.362-4.583,11.551-9.461,2.321-5.173.947-11.293,4.759-15.905a11.027,11.027,0,0,1,6.336-4.042C1227.026,1860.583,1229.689,1861.273,1232.02,1861.98Z"/><path class="i" d="M1226.957,1870.53a1.283,1.283,0,0,1,1.913-.26c.739.618.369,1.41.032,2.112a26.068,26.068,0,0,0-2.083,6.781c-.872,4.9-.677,9.858-.971,14.809a25.587,25.587,0,0,1-4.4,13.719c-2.742,3.836-5.935,7.341-8.7,11.17-2.438,3.378-5.015,6.935-5.461,11.194-.43,4.1.832,8.16,1.239,12.221a50.81,50.81,0,0,1-3.915,24.345,44.961,44.961,0,0,1-5.5,10.26c-1.356,1.8-3.184,4.225-5.494,4.85a2.11,2.11,0,0,1-2.742-1.333c-.225-1.164.924-2.294,1.538-3.152a53.605,53.605,0,0,0,6.315-12.064,49.641,49.641,0,0,0,3.34-12.748,44.438,44.438,0,0,0-.625-12.134c-.709-4.129-1.5-8.3-.706-12.463.8-4.225,3.249-7.8,5.873-11.116,2.776-3.514,5.819-6.772,8.909-10.016a22.625,22.625,0,0,0,6.063-10.783C1223.559,1887.475,1222.861,1878.407,1226.957,1870.53Z"/><path class="i" d="M1155.406,1893.034a13.3,13.3,0,0,1,10.24,5.284c2.923,3.628,3.513,8.059,4.7,12.384a11.06,11.06,0,0,0,3.386,5.752c1.618,1.328,3.674,1.6,5.611,2.246a13.092,13.092,0,0,1,8.234,8.241c1.507,4.655-.089,9.35.185,14.067.253,4.335,4.524,7.036,7.961,9.113,3.39,2.049,6.443,3.966,7.463,7.956,1.083,4.231,1.446,8.955-.053,13.135-2.5,6.96-9.8,10.025-16.86,10.5-6.406.432-14.461-.246-19.271-4.893a13.685,13.685,0,0,1-3.792-10.547,32.112,32.112,0,0,1,1.173-7.119,32.092,32.092,0,0,0,1.2-5c.447-4.533-3.743-5.4-7.309-6.648a17.393,17.393,0,0,1-9.911-8.736,16.627,16.627,0,0,1-1.685-12.494,14.58,14.58,0,0,1,3.317-5.84c.681-.74,1.642-1.358,2.256-2.135a2.877,2.877,0,0,0,.251-2.517c-.914-3.925-3.763-7.178-4.785-11.1-.917-3.54-.373-7.948,2.866-10.229A8.452,8.452,0,0,1,1155.406,1893.034Z"/><path class="h" d="M1161.022,1903.269c4.367,4.656,5.554,10.965,5.9,17.083.2,3.431-.007,7.05,1,10.377.863,2.849,2.885,5.026,4.968,7.083,4.2,4.142,8.874,8.353,10.1,14.348.72,3.518.234,7.152,1.229,10.631a29.248,29.248,0,0,0,4.434,8.941c1.56,2.15,3.592,3.8,5.3,5.8.52.612,1.265,1.513,1.048,2.377-.251,1.012-1.538,1.332-2.454,1.174-2.132-.371-3.927-2.407-5.321-3.886a33.513,33.513,0,0,1-5.178-7.1,29.882,29.882,0,0,1-3.356-9.229c-.559-3.374-.279-6.892-1.554-10.131-2.144-5.453-7.341-8.669-11.1-12.913-4.684-5.293-3.985-11.88-3.506-18.39.264-3.578.526-7.621-1.282-10.886-.691-1.248-2.23-2.411-2.526-3.829C1158.449,1903.421,1159.932,1902.109,1161.022,1903.269Z"/><path class="l" d="M1165.679,1979.724c0,26.607,4.342,40.549,27.266,40.549s27.265-13.942,27.265-40.549Z"/><rect class="m" width="243.686" height="19.742" rx="1.954" transform="translate(1253.684 1859.326)"/><rect class="m" width="156.798" height="19.742" rx="1.954" transform="translate(1273.425 1863.475) rotate(90)"/><rect class="n" width="7.194" height="80.988" transform="translate(1484.603 1928.819)"/><path class="l" d="M1522.21,1936.015h-84.528a7.2,7.2,0,1,1,0-14.392h84.528a4.894,4.894,0,0,0,4.788-3.8l23.271-100.026a7.195,7.195,0,1,1,14.015,3.26l-23.27,100.028A19.224,19.224,0,0,1,1522.21,1936.015Z"/><path class="l" d="M1523.431,2019.983h-7.194a6.587,6.587,0,0,0-6.58-6.579h-42.275a6.587,6.587,0,0,0-6.58,6.579h-7.194a13.788,13.788,0,0,1,13.774-13.773h42.275A13.788,13.788,0,0,1,1523.431,2019.983Z"/><rect class="m" width="156.798" height="19.742" rx="1.954" transform="translate(1497.37 1863.475) rotate(90)"/><path class="o" d="M1410.234,1763.415c-1.775-1.775-10.517,4.09-19.527,13.1s-14.875,17.752-13.1,19.527l33.18,102.777,98.839-98.839Z"/><path class="p" d="M1250.764,1976.944l-14.324-.554q2.582,14.323,6.007,31.694l9.617-.039Q1251.314,1990.645,1250.764,1976.944Z"/><path class="q" d="M1230.155,1906.549a11.17,11.17,0,0,0-1.874,2.315c-7.305,12.875-6.307,44.033,10.026,87.6l15.573.271c3.644-36.345.592-59.521,1.424-64.758h0C1256.17,1913.1,1241.245,1896.284,1230.155,1906.549Z"/><path class="r" d="M1255.712,2007.513a1.767,1.767,0,0,0-2.327-.911,14.268,14.268,0,0,1-5.458,1.494,15.9,15.9,0,0,1-6.259-1.916l-1.424-3.635-.01-.022a.881.881,0,0,0-1.157-.467l-23.32,9.911q-2.773.364-6.963.8t-2.361,6.889l49.785.869a44.387,44.387,0,0,0,.917-6.955,18.939,18.939,0,0,0-1.378-5.943C1255.743,2007.589,1255.728,2007.551,1255.712,2007.513Z"/><path class="q" d="M1225.108,1918.81c3.4,12.149,17.426,5.684,21.582,3.4s9.04-7.436,12.123-13.936c1.068-2.252,48.425-92.137,17.452-131.828l-38.713,24.384C1226.76,1861.181,1221.7,1906.661,1225.108,1918.81Z"/><path class="s" d="M1299.666,1983.828l-11.988.156,8.19,32.106,10.209,2.828Z"/><path class="t" d="M1255.385,1909.412c11.049,38.528,23.219,73.547,28.064,87.831l23.863,2.031c-4.96-16.178-6.166-57.522-8.645-99.391-.944-11.8-7.916-19.047-23.516-17.543C1262.058,1883.6,1251.816,1892.281,1255.385,1909.412Z"/><path class="r" d="M1306.773,2009.138a1.766,1.766,0,0,0-2.362-.809,14.236,14.236,0,0,1-5.389,1.727,15.878,15.878,0,0,1-6.336-1.645l-1.579-3.57-.01-.023a.884.884,0,0,0-1.177-.417l-22.873,10.9q-2.756.483-6.922,1.1t-2.063,6.983q47.007-1.2,49.776-1.268a44.427,44.427,0,0,0,.618-6.987,18.985,18.985,0,0,0-1.632-5.879C1306.808,2009.215,1306.792,2009.176,1306.773,2009.138Z"/><path class="t" d="M1250.044,1784.218c-6.776,26.784-2.485,76.6,3.9,122.057,2.365,16.063,13.411,17.193,24.746,17.246,13,.062,18.394-8.063,19.441-20.659,3.056-37.9,5.136-76.377-.03-97.763Z"/><path class="p" d="M1182.114,1783.761c-5.411-1.544-10.679-3.889-14.974-3.9-.909-.014-1.684.1-2.535,0-2.471-.278-4.965,3.339-15.175,2.283-6.458-.668-7.76-6.037-7.673-6.116.745-2.621,4.807-3.294,6.467-3.251,2.564.068,2.513.544,5.56-.642,1.185-.461-4.481-2.717-1.632-4.027,7.661-3.521,11.368,2.48,12.47,2.619l3.546.371,10.276.335Z"/><path class="u" d="M1272.354,1740.414c-3.847,9.725-20.942,37.266-29.18,45.524-6.651,6.668-13.17-3.381-17.171-7.848-4.659-5.2,2-14.88,5.757-20.353,5.2-9.776,10.814-19.544,15.481-29.185l0,0c2.326-4.673,12.936-8.04,18.6-4.991C1274.267,1728.1,1274.09,1736.025,1272.354,1740.414Z"/><path class="u" d="M1247.1,1777.215c-2.591,8.515-20.8,14.495-20.8,14.495-14.62,4.914-32.035,9.524-56.428,6.233q-3.516-7.611-1.277-29.285c27.051-.146,44.7-3.384,56.136-6.345,4.619-.913,9.494-2.972,16.064,2.028C1245.573,1767.972,1248.265,1770.755,1247.1,1777.215Z"/><path class="s" d="M1274.062,1737.165l-20.794,2.611.392-25.356c-5.186,4.086-10.492,6.413-13.164,6.071-6.7-.858-10.277-24.52-6.432-34.508s29.143-17.31,32.773,1.069c1.259,6.378-.721,12.459-4.125,17.647Z"/><path class="p" d="M1253.462,1727.231l7.415,1.91-2.508-22.007-4.709,7.286Z"/><path class="v" d="M1226.875,1814.722l80.1,6.88s-8.464-59.2-18.941-80.86c-5.86-12.113-8.489-16.24-14.759-22.319l-1.485-.052-.012.013-22.865,4.4C1247.548,1761.8,1234.251,1786.26,1226.875,1814.722Z"/><path class="s" d="M1188.86,1790.522c-5.411-1.544-10.679-3.889-14.974-3.9-.909-.013-1.684.1-2.535,0-2.471-.278-4.965,3.339-15.175,2.283-6.458-.668-7.76-6.037-7.673-6.116.745-2.621,4.806-3.294,6.467-3.251,2.564.068,2.513.544,5.559-.642,1.185-.461-4.48-2.717-1.631-4.027,7.661-3.521,11.368,2.48,12.47,2.619l3.546.371,10.276.335Z"/><path class="v" d="M1279.1,1747.175c-3.847,9.725-20.943,37.266-29.18,45.524-6.651,6.668-13.17-3.381-17.171-7.848-4.659-5.2,2-14.88,5.757-20.353,5.205-9.775,10.814-19.544,15.481-29.185l0,0c2.326-4.673,12.936-8.04,18.6-4.991C1281.013,1734.861,1280.836,1742.786,1279.1,1747.175Z"/><path class="v" d="M1253.85,1783.976c-2.591,8.515-20.8,14.495-20.8,14.495-14.62,4.914-32.035,9.524-56.428,6.233q-3.516-7.611-1.277-29.284c27.051-.147,44.7-3.385,56.136-6.346,4.618-.913,9.494-2.972,16.064,2.028C1252.319,1774.733,1255.011,1777.516,1253.85,1783.976Z"/><path class="w" d="M1276.3,1680.978c2.239-.038,5.025.763,6.353,2.9,1.724,2.775-.219,6.193-2.489,7.7,4.571,3.506-2.857,9.263-6.051,9.7.75,2.269-1.893,3.253-3.331,3.975a3.137,3.137,0,0,1,.394,4.1,3.875,3.875,0,0,1-4.768.705c-.367-.216-.452-.526-.744-.789a1.836,1.836,0,0,0-.85-.271,3.157,3.157,0,0,1-1.69-1.685c-.786-1.423-1.183-3.152-2.4-4.254,1.412-.737,3.123-1.43,3.989-2.973,1.491-2.659-.595-6.063-3.254-6.55-2.407-.438-4.985,1.045-6.354,3.121a11.262,11.262,0,0,0-2.464-3.619c-.636-.6-1.758-1.464-.4-1.932,3-1.036,6.168-1.547,9.205-2.462-3.188.219-6.36.778-9.564.7-1-.024-2.026-.109-2.586-1.143a12.441,12.441,0,0,1-1.381-4.293,9.424,9.424,0,0,1-3.217,1.145c-.439.02-.877-.07-1.317-.044a1.574,1.574,0,0,0-1.141.625,11.055,11.055,0,0,1-4.913,3.027,12.135,12.135,0,0,1-3.314.659,2.161,2.161,0,0,1-.418-.108,4.764,4.764,0,0,0-.9.134,2.976,2.976,0,0,1-2.222-.48,2.406,2.406,0,0,1,.344-4.064,18.726,18.726,0,0,1-3.905-3.29,13.153,13.153,0,0,1-1.519-2,2.4,2.4,0,0,1-.478-1.482c.264-1.551,3.274-.826,4.153-.467a2.921,2.921,0,0,0-.011-1.009,1.866,1.866,0,0,1-.037-.978,2,2,0,0,1,1.048-1.117,4.867,4.867,0,0,1,1.825-.538c.32-.033,1.084.127,1.22-.264a2.516,2.516,0,0,0-.193-1.165,16.511,16.511,0,0,1-.343-1.693c-.121-.759-.23-1.52-.337-2.281a6.065,6.065,0,0,1-.13-1.7c.217-1.494,1.765-1.663,2.905-1.482a6.326,6.326,0,0,1,2.213.821c.493.29.962.621,1.45.924.326.2.587.48.911.231.764-.587,1.094-1.825,1.621-2.629a5.819,5.819,0,0,1,2.416-2.021,6.685,6.685,0,0,1,6.319.635,7.353,7.353,0,0,1,1.2.942c.313.307.553.55.994.413a3.572,3.572,0,0,0,1.058-.683c.389-.3.8-.578,1.214-.842a9.042,9.042,0,0,1,5.468-1.507,6.127,6.127,0,0,1,4.763,2.655,12.527,12.527,0,0,1,1.9,6.036c.927-.467,1.73-1.173,2.693-1.566a8.039,8.039,0,0,1,3.065-.61,6.6,6.6,0,0,1,4.495,1.585c1.507,1.427,1.661,3.686,1.359,5.681a25.755,25.755,0,0,1-.671,2.944,6.573,6.573,0,0,1-1.187,2.631"/></g></svg>