<svg xmlns="http://www.w3.org/2000/svg" width="424.713" height="418.865" viewBox="0 0 424.713 418.865"><defs><style>.a,.b{fill:none;stroke:#ff6053;}.a{stroke-linecap:round;stroke-linejoin:round;stroke-width:2px;}.b{stroke-miterlimit:10;}.ad,.c{opacity:0.1;}.d{fill:#ff6053;}.e{fill:#e24185;}.f{fill:#f4f4f4;opacity:0.7;}.g{fill:#0b9995;}.h{fill:#d19d74;}.i{fill:#ebb37e;}.j{fill:#edc003;}.k{fill:#e3e3e2;}.l{fill:#ffd100;}.m{fill:#e7ae7a;}.n{fill:#ad503c;}.o{fill:#cc9a6c;}.p{fill:#0bb2b2;}.q{fill:#161616;}.r{fill:#231934;}.s{fill:#565656;}.t{fill:#f4efd9;}.u{fill:#353535;}.v{fill:#d8d2c5;}.w{fill:#868789;}.x{fill:#d6d6d6;}.y{fill:#fff;}.z{fill:#282828;}.aa{fill:#dd8253;}.ab{fill:#e7af7b;}.ac{fill:#07b5bd;}.ae{fill:#ee9455;}</style></defs><g transform="translate(-371.499 -1617.948)"><path class="a" d="M470.918,1671.051c.29.5,15.51-9.6,15.791-9.116.6,1.047-42.178,34.831-41.591,35.847,1.19,2.062,78.936-48.754,80.313-46.369,1.427,2.473-100.658,64.827-99.079,67.561,1.267,2.195,111.541-67.695,112.969-65.222,1.784,3.089-122.177,78.931-120.354,82.089,1.626,2.816,127.026-77.428,128.8-74.361,2.444,4.234-138.931,85.954-136.6,89.984,1.844,3.194,143.379-86.835,145.135-83.794,2.7,4.681-154.025,95.571-151.46,100.013,1.938,3.357,162.114-100.049,164.909-95.21,3,5.2-180.023,107.387-177.071,112.5,2.318,4.015,176.641-107.69,179.112-103.41,2.519,4.363-176.925,106.227-174.438,110.535,3.155,5.464,176.932-108.876,179.844-103.833,2.99,5.179-191.468,117.135-189,121.411,3.089,5.351,195.6-119.942,198.635-114.682,2.581,4.469-202.606,119.517-199.546,124.816,3.074,5.325,202.42-123.448,205.27-118.512,3.151,5.458-211.581,125.837-208.205,131.684,3.134,5.429,207.745-125.871,210.312-121.424,3.075,5.326-214.6,126.506-211.556,131.772,3.487,6.04,211.1-129.588,214.436-123.8,2.545,4.408-214.36,124.041-210.962,129.928,2.872,4.974,213.725-129.865,216.526-125.012,3.464,6-218.592,127.326-215.527,132.635,2.649,4.588,216.709-133.546,220.359-127.224,3.026,5.24-225.164,132.628-222.306,137.578,3.631,6.289,221.9-136.727,225.628-130.266,3.871,6.706-223.2,134.646-220.566,139.213,2.9,5.03,216.083-132.614,219.486-126.72,3.688,6.388-226.528,134.975-223.551,140.131,3.6,6.234,231.09-140.906,234.331-135.291,4.055,7.023-234.183,135.093-230.186,142.017,2.9,5.026,222.312-137.057,226.082-130.528,3.176,5.5-228.03,135.4-225.362,140.021,2.791,4.833,230.445-141.709,234.2-135.213,3.685,6.384-234.725,138.531-231.3,144.468,3.727,6.454,228.928-138.512,231.673-133.757,3.68,6.374-224.766,135.118-221.782,140.286,3.522,6.1,222.9-134.938,225.6-130.252,3.586,6.212-228.727,132.363-225.287,138.321,3.248,5.626,225.1-136.035,227.728-131.48,3.727,6.456-224.556,132.148-220.664,138.888,3.264,5.654,221.123-135.766,224.631-129.69,2.829,4.9-229.292,134.527-226.2,139.878,3.427,5.934,227.176-137.687,230-132.792,3.329,5.765-228.4,134.036-225.086,139.772,2.876,4.982,222.984-136.683,226.423-130.726,3.637,6.3-223.045,130.96-219.478,137.137,3.2,5.544,210.674-129.684,214.16-123.646,2.812,4.871-203.625,123.044-201.094,127.427,3.162,5.478,200.72-121.874,203.313-117.383,2.739,4.744-202.029,119.487-199.628,123.646,3.121,5.405,200.878-123.355,204.072-117.822,2.783,4.821-200.579,117.705-197.257,123.459,3.063,5.306,194.43-118.28,197.04-113.761C645.018,1867.036,455,1972.6,458.029,1977.84c2.914,5.048,181.988-111.145,184.618-106.589,2.646,4.583-180.625,108.064-178.314,112.067,3.015,5.222,173.754-107.3,176.777-102.062,2.226,3.856-164.309,98.457-161.513,103.3,2.61,4.521,160.816-99.166,163.552-94.427,2.469,4.278-156.632,95.544-154.257,99.659,2,3.463,147.082-89.71,149.157-86.116,1.971,3.413-134.041,83.09-131.856,86.875,1.528,2.647,128.68-78.811,130.636-75.422,1.617,2.8-110.027,71.782-108.375,74.644,1.687,2.921,100.408-61.522,101.946-58.859,1.43,2.478-80.15,56.278-78.993,58.282.732,1.268,66.1-40.375,67.061-38.718"/><path class="b" d="M630.505,1793.655c19.269,68.255,15.329,134.883-26.463,170.167-41.878,35.284-121.524,39.223-168.454,3.768-46.931-35.369-60.976-110.219-40.337-180.444s75.963-135.825,124.864-133.77C569.015,1655.517,611.321,1725.4,630.505,1793.655Z"/><g class="c"><path class="d" d="M518.078,1851.234c11.551,40.917,9.19,80.859-15.864,102.01-25.1,21.152-72.85,23.514-100.983,2.259-28.134-21.2-36.554-66.073-24.181-108.171s45.538-81.423,74.852-80.191C481.217,1768.424,506.578,1810.317,518.078,1851.234Z"/></g><g class="c"><path class="d" d="M624.963,1770.963c-12.35,40.683-35.888,73.038-68.394,77.33-32.549,4.264-74.023-19.508-86.244-52.582-12.248-33.031,4.872-75.353,38-104.123s82.271-43.986,106.288-27.133C638.606,1681.352,637.357,1730.307,624.963,1770.963Z"/></g><path class="e" d="M656.814,1701.446c17.27,16.967,1.515,67.263-1.439,114.68s6.893,91.88-10.377,125.662c-17.27,33.859-61.733,57.113-96.122,46.963-34.389-10.074-58.627-53.477-91.047-87.259-32.495-33.859-73.1-58.1-79.76-89.078-6.742-30.98,20.527-68.7,52.946-85.593s70.141-13.1,114.149-19.391C589.173,1701.068,639.468,1684.555,656.814,1701.446Z"/><ellipse class="f" cx="188.645" cy="10.876" rx="188.645" ry="10.876" transform="translate(418.922 2015.06)"/><path class="g" d="M577.58,1696.554c4.933-5.494,17.7-5.979,22.031-1.835l0-.005c8.788,8.6,18.643,16.974,28.063,25.511,6.187,4.452,17.14,12.321,14.128,19.75-2.587,6.379-5.724,19.768-15.5,15.149-12.108-5.72-41.276-28.829-49.21-37.84C573.514,1713.217,570.243,1704.725,577.58,1696.554Z"/><path class="h" d="M693.8,1749.111l11.723,1.365,4.089.181c1.276.03,6.5-6.155,14.6-.856,3.012,1.971-3.8,3.57-2.537,4.295,3.257,1.864,3.28,1.315,6.2,1.673,1.893.233,6.39,1.687,6.79,4.789.086.1-2.3,5.979-9.749,5.641-11.772-.535-13.989-5.064-16.842-5.169-.983-.036-1.843-.3-2.877-.435-4.878-.721-11.257,1.046-17.663,1.881Z"/><path class="g" d="M624.205,1730.461c8.308-4.561,13.494-1.4,18.583.426,12.485,5.3,31.969,11.976,62.658,16.736q-1.138,24.988-6.423,33.033c-28.254-.406-47.244-8.6-63.009-16.659,0,0-19.656-9.882-21.152-19.989C614.642,1736.476,618.171,1733.773,624.205,1730.461Z"/><path class="i" d="M601.357,2013.285l9.718.04q3.463-17.56,6.071-32.03l-14.475.56Q602.113,1995.711,601.357,2013.285Z"/><path class="j" d="M598.084,1936.411h0c.84,5.292-2.244,28.713,1.439,65.444l15.738-.274c16.505-44.029,17.514-75.516,10.131-88.528a11.262,11.262,0,0,0-1.893-2.339C612.29,1900.341,597.208,1917.337,598.084,1936.411Z"/><path class="k" d="M597.624,2012.864a19.172,19.172,0,0,0-1.392,6.006,44.747,44.747,0,0,0,.927,7.029l50.311-.878q1.848-6.519-2.386-6.962t-7.036-.81l-23.567-10.017a.89.89,0,0,0-1.169.472l-.01.023-1.439,3.673a16.066,16.066,0,0,1-6.326,1.936,14.406,14.406,0,0,1-5.516-1.509,1.784,1.784,0,0,0-2.35.92A1.189,1.189,0,0,0,597.624,2012.864Z"/><path class="j" d="M616.022,1803.881,576.9,1779.239c-31.3,40.11,16.557,130.947,17.636,133.223,3.116,6.568,8.052,11.776,12.252,14.082s18.369,8.839,21.81-3.438S626.928,1864.866,616.022,1803.881Z"/><path class="i" d="M546.773,2024.273l10.316-2.858,8.277-32.446-12.115-.158Z"/><path class="l" d="M578.026,1886.249c-15.766-1.519-22.812,5.8-23.766,17.73-2.505,42.312-3.723,84.093-8.736,100.442l24.115-2.052c4.9-14.436,17.2-49.825,28.361-88.76C601.607,1896.3,591.256,1887.524,578.026,1886.249Z"/><path class="k" d="M546.017,2014.506a19.191,19.191,0,0,0-1.649,5.942,44.827,44.827,0,0,0,.625,7.061l50.3,1.282q2.125-6.432-2.085-7.058t-6.995-1.111L563.1,2009.6a.893.893,0,0,0-1.189.421l-.011.024-1.6,3.608a16.075,16.075,0,0,1-6.4,1.663,14.414,14.414,0,0,1-5.446-1.746,1.784,1.784,0,0,0-2.387.818C546.05,2014.428,546.033,2014.467,546.017,2014.506Z"/><path class="l" d="M554.829,1808.192c-5.221,21.612-3.12,60.494-.03,98.8,1.058,12.729,6.507,20.94,19.646,20.878,11.455-.054,22.617-1.2,25.007-17.429,6.458-45.94,10.794-96.281,3.946-123.349Z"/><path class="m" d="M569.367,1700.584l25.713-.575-5.043-30.711c7.031,4.027,13.893,5.9,17.074,5,7.978-2.248,8.06-31.618,1.593-43.052s-38.5-15.763-39.593,7.2c-.381,7.97,3.12,15,8.186,20.681Z"/><path class="n" d="M616.008,1618.319c-6.293,4.208-38.632-9.813-46.244,13.844-5.033,13.492.159,24.91,7.383,29.027,1.86-2.306,3.478-4.536,4.919-6.67a6.432,6.432,0,0,1,6.605-10.736c2.882-4.864,5.284-8.577,8.73-10.607C613.255,1634.187,617.6,1627.034,616.008,1618.319Z"/><path class="o" d="M590.037,1669.3l-6.345-7.377.225,27.02,8.894-3.27Z"/><path class="p" d="M554.4,1744.335c-2.143-24.709,14.369-64.476,17.288-64.731l26.62-2.329a143.977,143.977,0,0,0,6.38,23.585c7.792,22.774,19.572,55.2,23.271,65.926,4.407,12.781,3.378,29.512-.109,39-7.168,19.495-60.25,6.665-77.29,11.595C536.615,1783.066,556.354,1766.9,554.4,1744.335Z"/><path class="g" d="M627.717,1766.1c-5.3-3.708-15.987-12.1-16.464-19.761.252-4.554,1.731-7.224,4.248-9.245a150.564,150.564,0,0,0-26.076-17.68c-2.809-1.434,15.732,31.97,33.6,47.979a69.132,69.132,0,0,0,6.467,4.961,48.189,48.189,0,0,0-1.534-5.564Z"/><path class="q" d="M729.958,1698.924l-53.389,15.592a2.662,2.662,0,0,0-1.529,3.415l21.763,74.525a2.753,2.753,0,0,0,2.718,2.124l32.627-95.089A2.323,2.323,0,0,0,729.958,1698.924Z"/><path class="q" d="M699.521,1794.58a2.106,2.106,0,0,0,.413-.07l53.385-15.589a2.664,2.664,0,0,0,1.529-3.415l-21.763-74.529a3.162,3.162,0,0,0-.937-1.486Z"/><path class="r" d="M728.952,1703.2l-48.922,14.389a2.366,2.366,0,0,0-1.431,3.016l19.154,65.123a2.366,2.366,0,0,0,2.836,1.762l1.517-.446,28.655-83.516A2.115,2.115,0,0,0,728.952,1703.2Z"/><path class="r" d="M702.106,1787.048l47.4-13.941a2.369,2.369,0,0,0,1.433-3.018l-19.155-65.123a2.637,2.637,0,0,0-1.027-1.434Z"/><path class="s" d="M727.8,1782.726a1.544,1.544,0,1,1-1.918-1.046A1.541,1.541,0,0,1,727.8,1782.726Z"/><path class="t" d="M703.618,1692.963a2.1,2.1,0,0,0-.924-.326l-55.32-5.714a2.663,2.663,0,0,0-2.709,2.584l-7.98,77.226a3.124,3.124,0,0,0,.411,1.918Z"/><path class="t" d="M638.8,1769.817l55.325,5.718a2.661,2.661,0,0,0,2.7-2.585l7.982-77.227a2.892,2.892,0,0,0-1.2-2.76L637.1,1768.651A2.284,2.284,0,0,0,638.8,1769.817Z"/><path class="u" d="M639.824,1765.047l58.761-66.857-50.224-5.093a2.37,2.37,0,0,0-2.464,2.256l-6.849,67.532A2.579,2.579,0,0,0,639.824,1765.047Z"/><path class="u" d="M641.009,1765.588l50.734,5.148a2.372,2.372,0,0,0,2.466-2.253l6.848-67.536a2.372,2.372,0,0,0-1.96-2.705l-.512-.052-58.761,66.857A2.051,2.051,0,0,0,641.009,1765.588Z"/><path class="v" d="M672.783,1692.352a1.88,1.88,0,1,1,1.682,2.062A1.881,1.881,0,0,1,672.783,1692.352Z"/><path class="s" d="M696.19,1755.318a1.874,1.874,0,1,1,1.188-2.371A1.875,1.875,0,0,1,696.19,1755.318Z"/><path class="t" d="M741.11,1728.634l-57.281,13.684a3.94,3.94,0,0,0,.105,5.278l14.672,15.61a3.938,3.938,0,0,0,5.563.169l36.794-34.587C741.015,1728.739,741.061,1728.686,741.11,1728.634Z"/><path class="t" d="M741.133,1723.228l-14.671-15.611a3.939,3.939,0,0,0-5.566-.172l-36.79,34.586c-.1.092-.19.188-.277.287l57.281-13.684A3.927,3.927,0,0,0,741.133,1723.228Z"/><path class="v" d="M734.354,1721.755a.428.428,0,0,1-.6-.021l-6.223-6.631a.428.428,0,0,1,.019-.6h0a.427.427,0,0,1,.6.02l6.223,6.632a.427.427,0,0,1-.017.6Z"/><path class="u" d="M738.594,1729.072,720.512,1709.8l-33.953,31.862,51.8-12.375Z"/><path class="u" d="M686.559,1741.666l-.089.083,18.082,19.269,33.809-31.727Z"/><path class="v" d="M693.709,1755.409a1.875,1.875,0,1,1,1.187-2.371A1.875,1.875,0,0,1,693.709,1755.409Z"/><path class="w" d="M757.4,1708.962a.357.357,0,1,1,.3-.406A.356.356,0,0,1,757.4,1708.962Z"/><path class="x" d="M699.182,1679.469l10.835,73.9a4.745,4.745,0,0,0,5.368,3.995l47.46-6.958a2.71,2.71,0,0,0,2.289-3.076l-11.42-77.9a2.711,2.711,0,0,0-3.076-2.289l-47.462,6.958A4.744,4.744,0,0,0,699.182,1679.469Z"/><circle class="y" cx="4.798" cy="4.798" r="4.798" transform="translate(728.516 1707.456)"/><path class="s" d="M711.2,1740.191a1.419,1.419,0,1,1-1.584-1.231A1.418,1.418,0,0,1,711.2,1740.191Z"/><path class="s" d="M692.476,1705.469a.325.325,0,0,1-.1.446l-5.841,3.642a.324.324,0,0,1-.444-.1h0a.322.322,0,0,1,.1-.444l5.842-3.641a.322.322,0,0,1,.444.1Z"/><path class="z" d="M698.462,1701.366l1.514,44.173.265.425a2.983,2.983,0,0,0,4.106.947l13.749-8.588a2.979,2.979,0,0,0,.95-4.1L698.8,1701.806A2.946,2.946,0,0,0,698.462,1701.366Z"/><path class="z" d="M694.7,1700.856l-13.75,8.59a2.98,2.98,0,0,0-.95,4.1l19.979,31.988-1.514-44.173A2.979,2.979,0,0,0,694.7,1700.856Z"/><path class="u" d="M681.6,1714.016l18.312,29.374-1.368-39.936Z"/><path class="u" d="M699.9,1743.4l.379.607,16.97-10.579-18.69-29.981-.027.017Z"/><path class="aa" d="M625.951,1827.986H768.926v-91.728H626.2Z"/><path class="ab" d="M680.141,1749.7l11.8-.384,4.071-.427c1.266-.159,5.521-7.048,14.316-3.006,3.271,1.5-3.234,4.093-1.873,4.623,3.5,1.362,3.438.815,6.382.737,1.906-.05,6.569.723,7.424,3.732.1.09-1.4,6.254-8.809,7.021-11.721,1.212-14.583-2.939-17.421-2.621-.977.11-1.866-.02-2.909,0-4.931.008-10.979,2.7-17.19,4.472Z"/><path class="ac" d="M579.806,1694.74c6.5-3.5,18.681.365,21.352,5.73l0,0c5.358,11.067,11.8,22.281,17.772,33.5,4.315,6.283,11.958,17.4,6.61,23.366-4.593,5.128-12.077,16.664-19.712,9.01-9.457-9.481-29.083-41.1-33.5-52.263C570.34,1709.044,570.136,1699.946,579.806,1694.74Z"/><path class="ac" d="M608.556,1741.551c7.542-5.74,13.139-3.376,18.441-2.328,13.132,3.4,33.389,7.116,64.444,7.285q2.571,24.88-1.466,33.619c-28,3.777-48-1.515-64.78-7.156,0,0-20.9-6.866-23.876-16.64C599.987,1748.914,603.077,1745.719,608.556,1741.551Z"/><path class="ad" d="M625.951,1731.1H768.926v12.627L616.315,1754.2Z"/><path class="ae" d="M626.2,1718.379H768.423l5.528,17.879H620.926Z"/></g></svg>