<svg xmlns="http://www.w3.org/2000/svg" xmlns:xlink="http://www.w3.org/1999/xlink" width="981.538" height="353.751" viewBox="0 0 981.538 353.751">
  <defs>
    <linearGradient id="linear-gradient" x1="0.136" y1="0.066" x2="0.656" y2="0.67" gradientUnits="objectBoundingBox">
      <stop offset="0.095" stop-color="#fff"/>
      <stop offset="0.125" stop-color="#fff" stop-opacity="0.929"/>
      <stop offset="0.225" stop-color="#fff" stop-opacity="0.714"/>
      <stop offset="0.328" stop-color="#fff" stop-opacity="0.522"/>
      <stop offset="0.432" stop-color="#fff" stop-opacity="0.361"/>
      <stop offset="0.538" stop-color="#fff" stop-opacity="0.231"/>
      <stop offset="0.646" stop-color="#fff" stop-opacity="0.129"/>
      <stop offset="0.757" stop-color="#fff" stop-opacity="0.059"/>
      <stop offset="0.872" stop-color="#fff" stop-opacity="0.016"/>
      <stop offset="1" stop-color="#fff" stop-opacity="0"/>
    </linearGradient>
  </defs>
  <g id="illustration_underdev" transform="translate(-2902.188 -1642.433)">
    <g id="Group_524" data-name="Group 524">
      <g id="Group_419" data-name="Group 419">
        <g id="Group_417" data-name="Group 417">
          <g id="Group_412" data-name="Group 412">
            <path id="Path_188" data-name="Path 188" d="M2981.819,1699.562c.26.45,13.823-8.563,14.075-8.126.54.936-36.991,31.979-36.466,32.888,1.068,1.85,70.817-43.739,72.052-41.6,1.292,2.237-90.6,59.368-89.173,61.842,1.133,1.962,100.345-60.883,101.622-58.671,1.6,2.772-109,71.754-107.361,74.588,1.449,2.51,112.968-68.869,114.547-66.134,2.175,3.768-123.058,77.381-120.988,80.967,1.638,2.837,126.982-76.914,128.542-74.213,2.391,4.142-135.62,85.626-133.35,89.557,1.714,2.969,143.438-88.52,145.909-84.241,2.667,4.619-159.354,96.216-156.732,100.757,2.04,3.533,155.866-95.01,158.04-91.244,2.206,3.819-154.279,93.869-152.1,97.64,2.761,4.783,154.283-94.961,156.831-90.547,2.613,4.526-166.576,103.484-164.419,107.22,2.686,4.652,170.6-104.6,173.244-100.022,2.245,3.887-175.631,104.864-172.971,109.473s175.67-107.116,178.135-102.847c2.731,4.729-182.608,110.152-179.684,115.218,2.694,4.666,178.853-108.356,181.059-104.534,2.641,4.573-183.655,109.633-181.044,114.156,2.977,5.155,180.4-110.738,183.253-105.8,2.162,3.745-181.553,106.281-178.666,111.282,2.437,4.221,181.345-110.191,183.723-106.073,2.928,5.071-184.192,108.56-181.6,113.048,2.234,3.869,182.862-112.684,185.94-107.352,2.548,4.413-188.963,112.768-186.556,116.938,3.037,5.261,186.074-114.637,189.194-109.232,3.217,5.572-184.52,113.343-182.329,117.137,2.4,4.161,177.617-109.047,180.431-104.172,3.029,5.246-185.093,112.283-182.649,116.517,2.941,5.093,189.972-115.8,192.621-111.21,3.3,5.725-190.108,111.354-186.849,117,2.344,4.06,178.979-110.365,182.024-105.092,2.54,4.4-181.47,109.753-179.337,113.449,2.221,3.846,184.324-113.313,187.309-108.143,2.917,5.051-184.679,111.289-181.967,115.987,2.91,5.039,179.167-108.393,181.311-104.68,2.815,4.876-170.584,105.455-168.3,109.409,2.678,4.638,168.72-102.162,170.778-98.6,2.69,4.661-170.661,100.823-168.081,105.292,2.418,4.187,167.572-101.268,169.53-97.878,2.7,4.686-161.536,98.227-158.711,103.119,2.34,4.054,158.435-97.28,160.95-92.924,2,3.468-161.037,97.2-158.851,100.992,2.363,4.092,159.042-96.323,160.991-92.948,2.265,3.923-153.934,93.489-151.681,97.391,1.883,3.262,148.688-91.044,150.94-87.145,2.324,4.027-140.8,86.447-138.519,90.4,1.947,3.372,128.324-78.985,130.445-75.312,1.573,2.726-111.586,72.478-110.169,74.931,1.714,2.97,107.039-65.047,108.445-62.612,1.373,2.379-99.321,62.954-98.117,65.039,1.485,2.572,96.924-59.47,98.444-56.837,1.183,2.05-82.68,54.044-81.267,56.492,1.121,1.94,73.076-44.4,74.031-42.742.644,1.117-45.962,33.244-45.17,34.616.53.918,31.872-19.507,32.351-18.678" fill="none" stroke="#ff6053" stroke-linecap="round" stroke-linejoin="round" stroke-width="2"/>
          </g>
          <g id="Group_414" data-name="Group 414">
            <g id="Group_413" data-name="Group 413">
              <path id="Path_189" data-name="Path 189" d="M3068.71,1944.466c-.915.4-1.83.806-2.774,1.15,8.933-3.8,17.849-8.884,25.157-15.554-8.4,6.8-19.121,11.885-29.638,15.612-5.267,1.88-10.5,3.453-15.448,4.9s-9.635,2.72-13.83,4.135c-1.041-.972-6.9-1.208-12.49-1.711-5.6-.462-10.94-1.108-11.182-.877-2.212.022-4.422-.14-6.661-.266-2.219-.228-4.471-.416-6.7-.8l2.3.365,2.312.269c1.533.2,3.073.316,4.607.41-1.534-.094-3.074-.211-4.607-.41l-2.312-.269-2.3-.365a92.562,92.562,0,0,1-10.6-2.256,87.526,87.526,0,0,1-10.4-3.649,80.239,80.239,0,0,1-9.976-5.044c-1.575-1.011-3.2-1.963-4.709-3.1-.76-.557-1.551-1.077-2.288-1.666l-2.214-1.779c-11.682-9.714-20.5-23.359-25.855-38.5a130.386,130.386,0,0,1-4.994-17.5c-.791-3.6-1.408-7.493-1.95-11.517-.461-4.039-.886-8.209-1.021-12.409a157.823,157.823,0,0,1,.826-24.266,161.632,161.632,0,0,1,3.083-18.369c.642-2.6,1.228-5.2,1.967-7.805-.644,2.149-.93,3.234-1.2,4.321s-.6,2.165-1.1,4.354a170.422,170.422,0,0,1,7.228-30.721,34.178,34.178,0,0,0-3.08,5.551l.924-2.393.99-2.368a56.8,56.8,0,0,1,3.026-9.7c1.407-3.671,3.042-7.3,4-9.674-.055,1.192,1.758-2.386,3.5-5.459l-.931,1.09c3.187-5.909,6.815-12.193,10.68-18.111a159.907,159.907,0,0,1,11.821-16.026,15.594,15.594,0,0,1,2.641-2.56c2.4-2.961,4.959-5.78,7.577-8.54-.235.991,7.251-6.019,3.547-2.065.7-.8,1.451-1.551,2.218-2.282s1.527-1.476,2.321-2.175c1.612-1.365,3.216-2.751,4.907-3.981,1.648-1.3,3.374-2.442,5.041-3.646l2.538-1.7,1.25-.86,1.262-.81a68.175,68.175,0,0,1,9.729-4.357,55.574,55.574,0,0,1,10.309-2.51,43.6,43.6,0,0,1,10.544-.028,46.184,46.184,0,0,1,10.4,2.666l2.536,1.021,2.481,1.2c.839.374,1.635.849,2.443,1.3.8.468,1.635.869,2.406,1.4a85.471,85.471,0,0,1,9.129,6.564,127.469,127.469,0,0,1,15.992,16.22l-.284-.725c6.831,8.185,13.093,15.57,18.921,27.366,2.582,3.935,5.34,8.925,7.737,13.321,1.2,2.2,2.316,4.245,3.27,5.942a29.915,29.915,0,0,0,2.45,3.774c2.127,5.035,3.616,8.559,5.095,12.063s2.887,7.022,4.621,12.116c-.151-2.843,3.64,9.811,2.66,4.607a46.433,46.433,0,0,0-1.584-7.074,61.9,61.9,0,0,1-1.619-6.232l-.146.24a254.589,254.589,0,0,0-15.469-39.943,181.127,181.127,0,0,0-23.5-36.808,134.063,134.063,0,0,0-10.806-10.758,94.013,94.013,0,0,0-12.723-9.575,63.141,63.141,0,0,0-15.024-6.889,49.253,49.253,0,0,0-16.721-2.083,58.541,58.541,0,0,0-17.469,3.827,80.764,80.764,0,0,0-15.44,7.938,122.055,122.055,0,0,0-23.538,20.61c-1.465,1.7-2.849,3.038-4.155,4.343-1.33,1.283-2.647,2.477-3.958,3.87-2.723,3.352-5.438,7.064-8.211,10.949-2.7,3.932-5.464,8.043-8.016,12.357a193.039,193.039,0,0,0-13.464,26.746c.153-.33.3-.649.4-.859-3.955,9.458-7.147,16.525-9.788,26.26.188,0-.218,1.507-.329,2.261a12.833,12.833,0,0,0-.913,2.919c-.205.849-.448,1.857-.725,3-.23,1.152-.487,2.44-.766,3.836a173.991,173.991,0,0,0-2.571,20.49,188.823,188.823,0,0,0-.2,20.945c.079,1.471.152,2.84.218,4.079.093,1.237.177,2.345.248,3.3.122,1.9.222,3.182.211,3.627.127,1.034.259,2.107.394,3.2.478,5.271,1.1,10.589,2,15.863a154.721,154.721,0,0,0,3.535,15.567,99.31,99.31,0,0,0,12.36,27.446c1.3,1.585,2.656,3.272,4.087,4.8a55.228,55.228,0,0,0,4.074,4.135,11.807,11.807,0,0,0,2.465,2.755c.809.708,1.671,1.471,3.069,2.882a37.734,37.734,0,0,0,7.7,8.181c.831.653,1.36.9,1.417.788s-.354-.586-1.277-1.53a103.176,103.176,0,0,0,20.694,12.027c3.168,1.247,6.372,2.3,9.649,3.239a19.817,19.817,0,0,1,5.574,2.2c1.813.4,3.032.69,3.96.934.931.226,1.575.386,2.225.577a51.319,51.319,0,0,0,6.459,1.558c.875.475,5.758.937,10.663,1.057,4.914.074,9.831-.195,10.92-.132-.42.03-.84.08-1.261.092,4.461.045,8.187.234,11.908.226l2.8-.013c.94-.017,1.887-.081,2.857-.134a57.469,57.469,0,0,0,6.137-.669,113.061,113.061,0,0,0,35.912-11.652A92.308,92.308,0,0,0,3094.7,1941.6a84.376,84.376,0,0,0,12.641-13.122c-.356-.574-3.094,4.14-3.968,3.75a92.771,92.771,0,0,0,19.847-35.743c.393-1.169.857-2.465,1.281-3.6s.74-2.127.966-2.655a10.993,10.993,0,0,0,.632-3.27,8.749,8.749,0,0,1,.277-2.436l.63-.329a28.812,28.812,0,0,1,.961-5.637,27.691,27.691,0,0,0,.865-5.439,10.605,10.605,0,0,1,.027-3.393c.644-.042.2-4.776.742-4.527l-.043-.046c.062-.938.033-1.6.154-2.744-.04-.444-.162-1.818-.326-3.656-.225-1.829-.417-4.123-.767-6.393-.161-1.134-.322-2.269-.475-3.346l-.507-2.985c-.3-1.8-.569-3.135-.676-3.57l.023-.83c-.238-2.436-.772-3.428-.75-2-.069-1-.2-1.994-.292-2.991l.079.34-.308-2.973c-.011-.553.168-1.206.548-.4a30.249,30.249,0,0,1-.944-5.215,147.185,147.185,0,0,1,.3,15.525c-.382-1.99-.383-5.646-.729-7.807a105.541,105.541,0,0,0-.74-12.169c-.176-.9-.962-1.4-1.047-3.5.265-1.084-.434-2.309-.471-4.064a36.734,36.734,0,0,1,1.229,5.823c.468-.434-.518-4.9-.724-6.487a22.875,22.875,0,0,1-.669-2.832c-.3-1.339-.648-2.885-.994-4.06.746.921-.111-2-.212-3.473-.341-1.618-.8-2.59-.815-1.894-.668-.377,1.252,6.445.128,4.356.127-.651-.754-3.755-1.2-5.429-.3.058.061,1.207-.5.193-.434-1.878-1.331-3.746-1.311-4.9a10.347,10.347,0,0,1,.473,1.651c-.332-1.208,1.1,1.914,2.352,5.022,1.294,3.092,2.425,6.159,1.978,4.583-.021.223-.338-.518-.811-1.721-.49-1.2-1.134-2.858-1.763-4.49-1.3-3.252-2.579-6.381-2.365-5.576.254,1.512-.823-.9-.512.65l.819,1.591c.456,2.114.165,3.1-.239,2.426-.456-1.744.753.579,1.843,3.025,1.126,2.433,2.148,4.983,1.647,3.5l.14,1.264a26.969,26.969,0,0,1-1.513-6c-.293.064-.829-1.623-1.331-3.005l-.087-.515c-.546-1.421-1.031-3.48-1.161-2.422,1.187,4.273.054,3.061-1.11,1.843s-2.358-2.445-1.33,1.672c-.308-3.612,1.031.962,1.989,4.584a17.8,17.8,0,0,0,.389,4.759c.571,2.256.546,1.281.812,1.676.159,1.289.521,3.735.11,3.49.773,1.692.349,2.884.873,4.994.541,1.847.156-.162.6,1.138.253,1.417.523,3.124.746,4.763.241,1.637.453,3.2.558,4.345-.206.927-.421,3.664-1.2,1.8-.528-4.3,1.06,1.525.327-2.938-.451,2.034-.823-3.921-1.536-4.633a37.345,37.345,0,0,0,.785,6.737l.032-.5a41.486,41.486,0,0,1,.915,8.7c-.321-.516-.41.508-.643-1.047.1.976.15,1.956.228,2.933.118.365.238.74.223-.111a12.01,12.01,0,0,1,.25,3.836c-.132.171.45,4.047.866,7.859.214,1.9.365,3.791.5,5.172a14.771,14.771,0,0,1,.094,2.136c-.033,2.132-.439,2.632-.264,4.713a17.534,17.534,0,0,0,.054-3.041c-.027-.926-.059-2.005-.092-3.15-.05-1.143-.141-2.352-.215-3.539-.132-2.374-.418-4.659-.552-6.176-.18-1.515-.3-2.264-.226-1.566-.072.91.581,6.883.813,12.846.272,5.959.009,11.887-.323,12.517-.154,1.568-.3,3.466.02,3.132-.433,2.634-.453-.858-.93.991.038.048.164-.134.067.461l-.62,1.747c-.136,4.155-1.853,9.966-2.49,14.251a40.9,40.9,0,0,1,.2-5.544l.251-.437c.005-.4.385-2.636.07-2.632a65.021,65.021,0,0,0-1.567,7.422c-.2.471-.427,1.022-.6,1.383.039,0,.08-.033.119-.011-.412.814-.427.709-.435.369a.81.81,0,0,1-.007-.2,6.168,6.168,0,0,0-.952,2.167c-.159.527-.319,1.123-.482,1.766-.184.637-.381,1.317-.584,2.02s-.4,1.439-.624,2.165l-.743,2.145a21.968,21.968,0,0,1-1.674,3.732c-.476,1.314.086.183-.512,1.822-.627,1.035-1.205,1.991-1.76,2.909s-1.162,1.746-1.725,2.608-1.169,1.7-1.812,2.584-1.288,1.826-2.08,2.794c-.64,1.5-.607,1.7.841.342-.792,1-1.515,2.042-2.369,2.985.7-1.639-.594-.4-1.842.788a8.526,8.526,0,0,1-1.636,1.351c-.373.2-.468.037-.027-.81a34.941,34.941,0,0,0-3.75,3.855,1.179,1.179,0,0,1-.191.763,7.249,7.249,0,0,1-1.649,1.876,47.968,47.968,0,0,1-4.765,3.347c-.749.2.037-.592-.218-.71a11.135,11.135,0,0,1-2.073,1.644,10.542,10.542,0,0,1-1.483.756,18.744,18.744,0,0,0-3.658,1.88c-1.106.8-2.888,1.781-4.317,2.726-1.481.861-2.65,1.631-2.587,1.908C3068.744,1945.433,3068.554,1945.011,3068.71,1944.466Z" fill="#ff6053"/>
            </g>
          </g>
          <g id="Group_415" data-name="Group 415" opacity="0.1">
            <path id="Path_190" data-name="Path 190" d="M3021.387,1845.27c9.393,33.274,7.473,65.755-12.9,82.956-20.415,17.2-59.242,19.121-82.12,1.837-22.879-17.243-29.725-53.731-19.664-87.965s37.031-66.214,60.87-65.212C2991.411,1777.929,3012.035,1812,3021.387,1845.27Z" fill="#ff6053"/>
          </g>
          <g id="Group_416" data-name="Group 416" opacity="0.1">
            <path id="Path_191" data-name="Path 191" d="M3108.306,1779.993c-10.043,33.084-29.185,59.395-55.619,62.886-26.469,3.467-60.2-15.864-70.133-42.76-9.96-26.861,3.962-61.278,30.9-84.673s66.9-35.77,86.434-22.065C3119.4,1707.122,3118.385,1746.932,3108.306,1779.993Z" fill="#ff6053"/>
          </g>
        </g>
        <g id="Group_418" data-name="Group 418">
          <path id="Path_192" data-name="Path 192" d="M3134.207,1723.462c14.044,13.8,1.232,54.7-1.17,93.258s5.6,74.717-8.439,102.19c-14.044,27.534-50.2,46.444-78.166,38.19-27.965-8.193-47.677-43.488-74.04-70.96-26.425-27.534-59.441-47.245-64.862-72.438-5.482-25.193,16.693-55.868,43.057-69.6s57.038-10.656,92.826-15.768C3079.2,1723.154,3120.1,1709.726,3134.207,1723.462Z" fill="#e24185"/>
        </g>
      </g>
      <g id="Group_523" data-name="Group 523">
        <ellipse id="Ellipse_17" data-name="Ellipse 17" cx="153.407" cy="8.845" rx="153.407" ry="8.845" transform="translate(3047.762 1978.495)" fill="#f4f4f4" opacity="0.7"/>
        <g id="Group_522" data-name="Group 522">
          <g id="Group_446" data-name="Group 446">
            <g id="Group_421" data-name="Group 421">
              <g id="Group_420" data-name="Group 420">
                <path id="Path_193" data-name="Path 193" d="M3176.784,1719.484c4.011-4.468,14.4-4.862,17.915-1.492l0,0c7.146,6.995,15.16,13.8,22.821,20.746,5.03,3.621,13.938,10.02,11.488,16.061-2.1,5.188-4.655,16.076-12.6,12.32-9.846-4.652-33.566-23.444-40.018-30.772C3173.477,1733.035,3170.817,1726.129,3176.784,1719.484Z" fill="#0b9995"/>
              </g>
            </g>
            <g id="Group_424" data-name="Group 424">
              <g id="Group_422" data-name="Group 422">
                <path id="Path_194" data-name="Path 194" d="M3271.293,1762.224l9.533,1.11,3.326.146c1.037.025,5.288-5,11.875-.695,2.45,1.6-3.093,2.9-2.063,3.492,2.649,1.516,2.668,1.069,5.045,1.361,1.539.189,5.2,1.372,5.521,3.894.07.085-1.873,4.862-7.928,4.587-9.573-.434-11.376-4.118-13.7-4.2-.8-.029-1.5-.24-2.34-.353-3.966-.587-9.154.85-14.363,1.529Z" fill="#d19d74"/>
              </g>
              <g id="Group_423" data-name="Group 423">
                <path id="Path_195" data-name="Path 195" d="M3214.7,1747.057c6.756-3.709,10.973-1.134,15.111.347,10.153,4.313,26,9.739,50.954,13.61q-.925,20.319-5.223,26.862c-22.976-.33-38.419-6.991-51.239-13.547,0,0-15.985-8.036-17.2-16.255C3206.923,1751.948,3209.792,1749.751,3214.7,1747.057Z" fill="#0b9995"/>
              </g>
            </g>
            <g id="Group_439" data-name="Group 439">
              <g id="Group_427" data-name="Group 427">
                <g id="Group_425" data-name="Group 425">
                  <path id="Path_196" data-name="Path 196" d="M3196.119,1977.051l7.9.032q2.817-14.28,4.937-26.046l-11.771.455Q3196.735,1962.759,3196.119,1977.051Z" fill="#ebb37e"/>
                </g>
                <g id="Group_426" data-name="Group 426">
                  <path id="Path_197" data-name="Path 197" d="M3193.458,1914.537h0c.683,4.3-1.824,23.349,1.17,53.219l12.8-.223c13.423-35.8,14.243-61.41,8.239-71.991a9.144,9.144,0,0,0-1.54-1.9C3205.01,1885.2,3192.745,1899.025,3193.458,1914.537Z" fill="#edc003"/>
                </g>
              </g>
              <g id="Group_429" data-name="Group 429">
                <g id="Group_428" data-name="Group 428">
                  <path id="Path_198" data-name="Path 198" d="M3193.084,1976.709a15.568,15.568,0,0,0-1.132,4.884,36.391,36.391,0,0,0,.754,5.715l40.913-.714q1.5-5.3-1.94-5.661t-5.722-.659l-19.165-8.145a.725.725,0,0,0-.951.384l-.008.018-1.17,2.987a13.078,13.078,0,0,1-5.144,1.575,11.729,11.729,0,0,1-4.486-1.228,1.451,1.451,0,0,0-1.911.748C3193.108,1976.645,3193.1,1976.676,3193.084,1976.709Z" fill="#e3e3e2"/>
                </g>
              </g>
              <g id="Group_431" data-name="Group 431">
                <g id="Group_430" data-name="Group 430">
                  <path id="Path_199" data-name="Path 199" d="M3208.045,1806.762l-31.814-20.039c-25.455,32.619,13.464,106.487,14.342,108.338,2.534,5.341,6.548,9.577,9.963,11.452s14.938,7.188,17.736-2.8S3216.914,1856.356,3208.045,1806.762Z" fill="#edc003"/>
                </g>
              </g>
              <g id="Group_434" data-name="Group 434">
                <g id="Group_432" data-name="Group 432">
                  <path id="Path_200" data-name="Path 200" d="M3151.731,1985.987l8.39-2.324,6.731-26.386-9.852-.128Z" fill="#ebb37e"/>
                </g>
                <g id="Group_433" data-name="Group 433">
                  <path id="Path_201" data-name="Path 201" d="M3177.146,1873.745c-12.82-1.235-18.55,4.721-19.326,14.418-2.037,34.408-3.028,68.385-7.1,81.68l19.611-1.669c3.981-11.739,13.983-40.518,23.063-72.18C3196.323,1881.915,3187.906,1874.782,3177.146,1873.745Z" fill="#ffd100"/>
                </g>
              </g>
              <g id="Group_436" data-name="Group 436">
                <g id="Group_435" data-name="Group 435">
                  <path id="Path_202" data-name="Path 202" d="M3151.117,1978.044a15.593,15.593,0,0,0-1.341,4.832,36.462,36.462,0,0,0,.508,5.742l40.906,1.042q1.73-5.231-1.695-5.739t-5.689-.9l-18.8-8.961a.725.725,0,0,0-.967.343l-.009.019-1.3,2.934a13.053,13.053,0,0,1-5.207,1.352,11.7,11.7,0,0,1-4.429-1.42,1.451,1.451,0,0,0-1.941.666C3151.143,1977.981,3151.13,1978.013,3151.117,1978.044Z" fill="#e3e3e2"/>
                </g>
              </g>
              <g id="Group_438" data-name="Group 438">
                <g id="Group_437" data-name="Group 437">
                  <path id="Path_203" data-name="Path 203" d="M3158.283,1810.268c-4.246,17.576-2.537,49.2-.025,80.343.86,10.351,5.292,17.028,15.977,16.978,9.315-.044,18.392-.973,20.336-14.174,5.251-37.359,8.777-78.3,3.208-100.307Z" fill="#ffd100"/>
                </g>
              </g>
            </g>
            <g id="Group_443" data-name="Group 443">
              <g id="Group_440" data-name="Group 440">
                <path id="Path_204" data-name="Path 204" d="M3170.1,1722.761l20.91-.467-4.1-24.975c5.718,3.275,11.3,4.794,13.885,4.065,6.487-1.827,6.554-25.711,1.295-35.009s-31.306-12.819-32.2,5.855c-.31,6.481,2.537,12.2,6.657,16.818Z" fill="#e7ae7a"/>
              </g>
              <g id="Group_441" data-name="Group 441">
                <path id="Path_205" data-name="Path 205" d="M3208.034,1655.863c-5.118,3.422-31.416-7.98-37.606,11.258-4.093,10.972.13,20.257,6,23.6,1.512-1.876,2.828-3.689,4-5.424a5.23,5.23,0,0,1,5.371-8.731c2.344-3.955,4.3-6.975,7.1-8.625C3205.795,1668.767,3209.327,1662.95,3208.034,1655.863Z" fill="#ad503c"/>
              </g>
              <g id="Group_442" data-name="Group 442">
                <path id="Path_206" data-name="Path 206" d="M3186.914,1697.319l-5.16-6,.183,21.972,7.233-2.659Z" fill="#cc9a6c"/>
              </g>
            </g>
            <g id="Group_444" data-name="Group 444">
              <path id="Path_207" data-name="Path 207" d="M3157.932,1758.34c-1.743-20.094,11.684-52.432,14.058-52.64l21.648-1.894a116.942,116.942,0,0,0,5.188,19.179c6.336,18.521,15.916,44.887,18.924,53.612,3.584,10.394,2.747,24-.089,31.711-5.829,15.854-49,5.42-62.852,9.43C3143.471,1789.836,3159.523,1776.689,3157.932,1758.34Z" fill="#0bb2b2"/>
            </g>
            <g id="Group_445" data-name="Group 445">
              <path id="Path_208" data-name="Path 208" d="M3217.556,1776.036c-4.308-3.016-13-9.843-13.389-16.07.205-3.7,1.408-5.874,3.455-7.518a122.465,122.465,0,0,0-21.206-14.378c-2.284-1.165,12.793,26,27.322,39.018a56.344,56.344,0,0,0,5.26,4.034,39.33,39.33,0,0,0-1.248-4.525C3217.689,1776.421,3217.622,1776.226,3217.556,1776.036Z" fill="#0b9995"/>
            </g>
          </g>
          <g id="Group_515" data-name="Group 515">
            <g id="Group_461" data-name="Group 461">
              <g id="Group_456" data-name="Group 456">
                <g id="Group_455" data-name="Group 455">
                  <g id="Group_454" data-name="Group 454">
                    <g id="Group_447" data-name="Group 447">
                      <path id="Path_209" data-name="Path 209" d="M3300.7,1721.411l-43.415,12.68a2.163,2.163,0,0,0-1.244,2.777l17.7,60.6a2.237,2.237,0,0,0,2.21,1.727l26.532-77.327A1.891,1.891,0,0,0,3300.7,1721.411Z" fill="#161616"/>
                    </g>
                    <g id="Group_448" data-name="Group 448">
                      <path id="Path_210" data-name="Path 210" d="M3275.947,1799.2a1.74,1.74,0,0,0,.335-.056l43.413-12.678a2.166,2.166,0,0,0,1.244-2.777l-17.7-60.607a2.568,2.568,0,0,0-.762-1.209Z" fill="#161616"/>
                    </g>
                    <g id="Group_453" data-name="Group 453">
                      <g id="Group_452" data-name="Group 452">
                        <g id="Group_451" data-name="Group 451">
                          <g id="Group_449" data-name="Group 449">
                            <path id="Path_211" data-name="Path 211" d="M3299.88,1724.892l-39.783,11.7a1.923,1.923,0,0,0-1.164,2.452L3274.509,1792a1.924,1.924,0,0,0,2.306,1.433l1.234-.363,23.3-67.916A1.723,1.723,0,0,0,3299.88,1724.892Z" fill="#231934"/>
                          </g>
                          <g id="Group_450" data-name="Group 450">
                            <path id="Path_212" data-name="Path 212" d="M3278.049,1793.074l38.549-11.337a1.926,1.926,0,0,0,1.165-2.454l-15.576-52.958a2.151,2.151,0,0,0-.836-1.167Z" fill="#231934"/>
                          </g>
                        </g>
                      </g>
                    </g>
                  </g>
                </g>
              </g>
              <g id="Group_460" data-name="Group 460">
                <g id="Group_459" data-name="Group 459">
                  <g id="Group_458" data-name="Group 458">
                    <g id="Group_457" data-name="Group 457">
                      <path id="Path_213" data-name="Path 213" d="M3298.942,1789.559a1.256,1.256,0,1,1-1.56-.85A1.255,1.255,0,0,1,3298.942,1789.559Z" fill="#565656"/>
                    </g>
                  </g>
                </g>
              </g>
            </g>
            <g id="Group_476" data-name="Group 476">
              <g id="Group_466" data-name="Group 466">
                <g id="Group_465" data-name="Group 465">
                  <g id="Group_464" data-name="Group 464">
                    <g id="Group_462" data-name="Group 462">
                      <path id="Path_214" data-name="Path 214" d="M3279.279,1716.564a1.7,1.7,0,0,0-.752-.265l-44.986-4.647a2.166,2.166,0,0,0-2.2,2.1l-6.489,62.8a2.536,2.536,0,0,0,.334,1.56Z" fill="#f4efd9"/>
                    </g>
                    <g id="Group_463" data-name="Group 463">
                      <path id="Path_215" data-name="Path 215" d="M3226.572,1779.062l44.991,4.649a2.163,2.163,0,0,0,2.2-2.1l6.491-62.8a2.353,2.353,0,0,0-.973-2.244l-54.1,61.55A1.858,1.858,0,0,0,3226.572,1779.062Z" fill="#f4efd9"/>
                    </g>
                  </g>
                </g>
              </g>
              <g id="Group_471" data-name="Group 471">
                <g id="Group_470" data-name="Group 470">
                  <g id="Group_469" data-name="Group 469">
                    <g id="Group_467" data-name="Group 467">
                      <path id="Path_216" data-name="Path 216" d="M3227.4,1775.183l47.785-54.368-40.842-4.142a1.926,1.926,0,0,0-2,1.834l-5.57,54.918A2.1,2.1,0,0,0,3227.4,1775.183Z" fill="#353535"/>
                    </g>
                    <g id="Group_468" data-name="Group 468">
                      <path id="Path_217" data-name="Path 217" d="M3228.364,1775.622l41.258,4.187a1.928,1.928,0,0,0,2-1.832l5.569-54.921a1.928,1.928,0,0,0-1.594-2.2l-.416-.042-47.785,54.368A1.666,1.666,0,0,0,3228.364,1775.622Z" fill="#353535"/>
                    </g>
                  </g>
                </g>
              </g>
              <g id="Group_475" data-name="Group 475">
                <g id="Group_474" data-name="Group 474">
                  <g id="Group_473" data-name="Group 473">
                    <g id="Group_472" data-name="Group 472">
                      <path id="Path_218" data-name="Path 218" d="M3254.2,1716.067a1.529,1.529,0,1,1,1.367,1.676A1.528,1.528,0,0,1,3254.2,1716.067Z" fill="#d8d2c5"/>
                    </g>
                  </g>
                </g>
              </g>
            </g>
            <g id="Group_496" data-name="Group 496">
              <g id="Group_480" data-name="Group 480">
                <g id="Group_479" data-name="Group 479">
                  <g id="Group_478" data-name="Group 478">
                    <g id="Group_477" data-name="Group 477">
                      <path id="Path_219" data-name="Path 219" d="M3273.238,1767.271a1.524,1.524,0,1,1,.966-1.928A1.525,1.525,0,0,1,3273.238,1767.271Z" fill="#565656"/>
                    </g>
                  </g>
                </g>
              </g>
              <g id="Group_495" data-name="Group 495">
                <g id="Group_485" data-name="Group 485">
                  <g id="Group_484" data-name="Group 484">
                    <g id="Group_483" data-name="Group 483">
                      <g id="Group_481" data-name="Group 481">
                        <path id="Path_220" data-name="Path 220" d="M3309.767,1745.572l-46.581,11.128a3.2,3.2,0,0,0,.086,4.292l11.931,12.693a3.2,3.2,0,0,0,4.524.138l29.92-28.126C3309.69,1745.657,3309.727,1745.614,3309.767,1745.572Z" fill="#f4efd9"/>
                      </g>
                      <g id="Group_482" data-name="Group 482">
                        <path id="Path_221" data-name="Path 221" d="M3309.786,1741.175l-11.93-12.7a3.2,3.2,0,0,0-4.527-.139l-29.917,28.125c-.08.075-.155.153-.226.234l46.581-11.128A3.194,3.194,0,0,0,3309.786,1741.175Z" fill="#f4efd9"/>
                      </g>
                    </g>
                  </g>
                </g>
                <g id="Group_488" data-name="Group 488">
                  <g id="Group_487" data-name="Group 487">
                    <g id="Group_486" data-name="Group 486">
                      <path id="Path_222" data-name="Path 222" d="M3304.273,1739.977a.348.348,0,0,1-.491-.016l-5.06-5.393a.348.348,0,0,1,.015-.49h0a.347.347,0,0,1,.489.016l5.061,5.393a.346.346,0,0,1-.014.49Z" fill="#d8d2c5"/>
                    </g>
                  </g>
                </g>
                <g id="Group_489" data-name="Group 489">
                  <path id="Path_223" data-name="Path 223" d="M3307.721,1745.928l-14.7-15.669-27.611,25.911,42.126-10.063Z" fill="#353535"/>
                </g>
                <g id="Group_490" data-name="Group 490">
                  <path id="Path_224" data-name="Path 224" d="M3265.406,1756.169l-.072.068,14.7,15.669,27.493-25.8Z" fill="#353535"/>
                </g>
                <g id="Group_494" data-name="Group 494">
                  <g id="Group_493" data-name="Group 493">
                    <g id="Group_492" data-name="Group 492">
                      <g id="Group_491" data-name="Group 491">
                        <path id="Path_225" data-name="Path 225" d="M3271.22,1767.345a1.524,1.524,0,1,1,.966-1.928A1.525,1.525,0,0,1,3271.22,1767.345Z" fill="#d8d2c5"/>
                      </g>
                    </g>
                  </g>
                </g>
              </g>
            </g>
            <g id="Group_497" data-name="Group 497">
              <path id="Path_226" data-name="Path 226" d="M3323.017,1729.574a.291.291,0,1,1,.246-.33A.289.289,0,0,1,3323.017,1729.574Z" fill="#868789"/>
              <path id="Path_227" data-name="Path 227" d="M3275.672,1705.59l8.81,60.1a3.859,3.859,0,0,0,4.365,3.249l38.595-5.658a2.205,2.205,0,0,0,1.862-2.5l-9.287-63.346a2.206,2.206,0,0,0-2.5-1.862l-38.6,5.659A3.856,3.856,0,0,0,3275.672,1705.59Z" fill="#d6d6d6"/>
              <circle id="Ellipse_18" data-name="Ellipse 18" cx="3.901" cy="3.901" r="3.901" transform="translate(3299.526 1728.349)" fill="#fff"/>
            </g>
            <g id="Group_513" data-name="Group 513">
              <g id="Group_501" data-name="Group 501">
                <g id="Group_500" data-name="Group 500">
                  <g id="Group_499" data-name="Group 499">
                    <g id="Group_498" data-name="Group 498">
                      <path id="Path_228" data-name="Path 228" d="M3285.448,1754.97a1.153,1.153,0,1,1-1.289-1A1.154,1.154,0,0,1,3285.448,1754.97Z" fill="#565656"/>
                    </g>
                  </g>
                </g>
              </g>
              <g id="Group_504" data-name="Group 504">
                <g id="Group_503" data-name="Group 503">
                  <g id="Group_502" data-name="Group 502">
                    <path id="Path_229" data-name="Path 229" d="M3270.218,1726.734a.265.265,0,0,1-.084.363l-4.75,2.961a.264.264,0,0,1-.361-.085h0a.262.262,0,0,1,.083-.361l4.75-2.961a.262.262,0,0,1,.362.083Z" fill="#565656"/>
                  </g>
                </g>
              </g>
              <g id="Group_511" data-name="Group 511">
                <g id="Group_509" data-name="Group 509">
                  <g id="Group_508" data-name="Group 508">
                    <g id="Group_507" data-name="Group 507">
                      <g id="Group_505" data-name="Group 505">
                        <path id="Path_230" data-name="Path 230" d="M3275.086,1723.4l1.231,35.921.216.346a2.425,2.425,0,0,0,3.338.771l11.182-6.984a2.423,2.423,0,0,0,.771-3.337l-16.463-26.359A2.442,2.442,0,0,0,3275.086,1723.4Z" fill="#282828"/>
                      </g>
                      <g id="Group_506" data-name="Group 506">
                        <path id="Path_231" data-name="Path 231" d="M3272.024,1722.983l-11.182,6.985a2.423,2.423,0,0,0-.772,3.338l16.247,26.012-1.231-35.921A2.422,2.422,0,0,0,3272.024,1722.983Z" fill="#282828"/>
                      </g>
                    </g>
                  </g>
                </g>
                <g id="Group_510" data-name="Group 510">
                  <path id="Path_232" data-name="Path 232" d="M3261.377,1733.684l14.891,23.887-1.113-32.476Z" fill="#353535"/>
                </g>
              </g>
              <g id="Group_512" data-name="Group 512">
                <path id="Path_233" data-name="Path 233" d="M3276.258,1757.577l.308.494,13.8-8.6-15.2-24.381-.021.014Z" fill="#353535"/>
              </g>
            </g>
            <g id="Group_514" data-name="Group 514">
              <path id="Path_234" data-name="Path 234" d="M3216.119,1826.365h116.268v-74.594H3216.324Z" fill="#dd8253"/>
            </g>
          </g>
          <g id="Group_521" data-name="Group 521">
            <g id="Group_517" data-name="Group 517">
              <g id="Group_516" data-name="Group 516">
                <path id="Path_235" data-name="Path 235" d="M3260.187,1762.7l9.593-.312,3.311-.347c1.029-.129,4.49-5.732,11.642-2.445,2.659,1.223-2.63,3.329-1.524,3.76,2.844,1.107,2.8.662,5.19.6,1.551-.04,5.342.588,6.037,3.035.082.073-1.133,5.085-7.162,5.709-9.532.986-11.86-2.39-14.167-2.131-.795.089-1.518-.016-2.367,0-4.01.007-8.927,2.2-13.979,3.637Z" fill="#e7af7b"/>
              </g>
            </g>
            <g id="Group_519" data-name="Group 519">
              <g id="Group_518" data-name="Group 518">
                <path id="Path_236" data-name="Path 236" d="M3178.594,1718.009c5.287-2.847,15.192.3,17.363,4.659l0,0c4.357,9,9.594,18.12,14.452,27.245,3.509,5.11,9.725,14.146,5.375,19-3.735,4.17-9.821,13.552-16.03,7.327-7.69-7.709-23.65-33.421-27.241-42.5C3170.9,1729.641,3170.73,1722.242,3178.594,1718.009Z" fill="#07b5bd"/>
              </g>
            </g>
            <g id="Group_520" data-name="Group 520">
              <path id="Path_237" data-name="Path 237" d="M3201.974,1756.075c6.133-4.667,10.684-2.745,15-1.892,10.679,2.764,27.152,5.786,52.406,5.923q2.091,20.234-1.192,27.34c-22.772,3.072-39.03-1.232-52.679-5.819,0,0-17-5.583-19.416-13.532C3195.006,1762.063,3197.519,1759.465,3201.974,1756.075Z" fill="#07b5bd"/>
            </g>
          </g>
          <path id="Path_238" data-name="Path 238" d="M3216.119,1747.576h116.268v10.268l-124.1,8.516Z" opacity="0.1"/>
          <path id="Path_239" data-name="Path 239" d="M3216.324,1737.232h115.655l4.5,14.539H3212.033Z" fill="#ee9455"/>
        </g>
      </g>
    </g>
    <g id="Group_574" data-name="Group 574">
      <g id="Group_532" data-name="Group 532">
        <g id="Group_530" data-name="Group 530">
          <g id="Group_525" data-name="Group 525">
            <path id="Path_240" data-name="Path 240" d="M3617.531,1677.116c.334.578,20.477-12.377,20.717-11.961.879,1.523-51.547,36.773-50.716,38.213,1.217,2.106,85.314-51.718,86.38-49.872,1.527,2.645-101.879,65.959-100.519,68.314,1.87,3.24,119.728-72.475,121.179-69.963,2.223,3.85-131.578,82.6-129.862,85.572,1.83,3.171,143.164-87.571,145.292-83.885s-153.841,94.348-151.3,98.745c2.388,4.136,162.1-99.42,164.622-95.044,2.353,4.074-171.152,102.817-168.321,107.72,2.888,5,176.479-107.35,178.843-103.255,2.568,4.447-183.466,109.065-180.962,113.4,2.468,4.273,186.68-112.965,188.925-109.076,2.327,4.031-193.291,117.5-190.6,122.168,3.338,5.783,197.063-121.357,200.346-115.671,3.566,6.176-203.413,122.84-200.919,127.16,3.33,5.767,205.5-126.86,209.06-120.7,2.995,5.187-212.2,125.79-208.876,131.541,2.609,4.519,213.613-129.451,216.264-124.86,3.527,6.11-218.654,128.9-215.513,134.34,3.069,5.315,218.612-133.431,221.736-128.02,2.821,4.886-223.364,133.52-220.185,139.026,3.727,6.456,224.132-136.563,227.232-131.192,3.306,5.725-228.749,135.3-225.021,141.76,2.683,4.646,228.436-139.194,231.6-133.714s-232.821,135.435-229.52,141.152c3.242,5.615,230.99-140.47,234.068-135.14,3.982,6.9-233.7,140.042-230.594,145.415,3.454,5.984,233.712-141.883,236.721-136.671,3.983,6.9-236.626,139.22-232.97,145.553,2.916,5.051,234.856-143.312,238.2-137.524,3.572,6.186-237.727,139.4-233.945,145.956,2.812,4.871,235.853-143.147,238.874-137.914,3.6,6.238-238.215,138.936-234.7,145.021,2.928,5.071,234.977-144.6,238.848-137.9,3.143,5.443-236.7,139.771-232.791,146.541,2.82,4.884,234.4-143.161,237.794-137.291,3.2,5.549-235.524,137.942-231.615,144.712,4,6.924,233.194-140.969,235.936-136.219,3.236,5.6-233.364,136.2-229.581,142.755,3.7,6.41,230.493-139.842,233.423-134.767,3.717,6.439-231.562,133.357-227.865,139.762,3.73,6.459,227.3-139.427,230.851-133.282,3.351,5.8-227.378,132.688-223.846,138.8,3.493,6.05,223.419-137.444,227.079-131.1,2.952,5.111-223.5,129.77-219.884,136.04,3.1,5.378,219.751-133.909,222.8-128.632,3.353,5.807-218.687,127.982-215.931,132.755,3.16,5.475,214.924-132.134,218.409-126.1,3.054,5.289-210.725,126.654-207.92,131.512,2.9,5.026,208.359-126.513,211.051-121.85,3.387,5.866-202.658,121.433-199.705,126.547,2.883,4.993,199.955-121.038,202.378-116.842,3.3,5.719-192.241,115.465-188.889,121.272,3.165,5.481,188.647-115,191.283-110.437,3.156,5.466-182.816,108.9-180.318,113.226,2.573,4.457,179.084-109.374,181.674-104.889,2.11,3.656-169.949,103.147-167.392,107.576,2.333,4.04,166.335-100.654,168.336-97.189,1.859,3.221-159.334,93.972-156.653,98.616,2.673,4.629,154.506-94.53,156.812-90.536,2.106,3.648-141.279,87.537-139.011,91.466,2.127,3.685,136.049-83.551,138.215-79.8,1.6,2.775-118.286,75.979-116.468,79.128,1.563,2.707,111.77-68.394,113.443-65.5,1.306,2.263-96.422,60.576-94.842,63.313,1.5,2.588,88.6-54.732,90.147-52.046.813,1.408-52.556,40.017-51.66,41.569.439.76,32.43-19.918,32.947-19.022" fill="none" stroke="#ffd100" stroke-linecap="round" stroke-linejoin="round" stroke-width="2"/>
          </g>
          <g id="Group_527" data-name="Group 527">
            <g id="Group_526" data-name="Group 526">
              <path id="Path_241" data-name="Path 241" d="M3786.642,1930.8c-1.177.444-2.341.916-3.527,1.337a128.718,128.718,0,0,0,32.833-17.73c-11.074,7.912-24.783,13.986-38.209,18.379-13.438,4.453-26.558,7.422-37.025,10.25-1.257-.6-8.575-.331-15.638-.27-7.065.1-13.887-.059-14.162.144-5.563.261-11.214.273-16.92.018,1.961.117,3.923.145,5.873.216,1.954.012,3.9.049,5.837.019-1.938.03-3.883-.007-5.837-.019-1.95-.071-3.912-.1-5.873-.216a170.535,170.535,0,0,1-54.786-11.467c-17.956-7.065-35.054-17.94-48.552-32.632a114.348,114.348,0,0,1-13.574-17.857,133.2,133.2,0,0,1-12.622-26.851,152.323,152.323,0,0,1-4.237-14.787c-1.1-4.915-2.015-9.728-2.595-14.3a149.817,149.817,0,0,1-1.314-22.86c.056-3.295.223-6.566.47-9.877-.433,5.49-.427,5.492-.609,11.005a147.756,147.756,0,0,1,3.463-38.449c-.371,1.016-.634,1.6-1,2.549-.334.953-.746,2.271-1.437,4.752.507-2.029.92-4.079,1.5-6.086a48.707,48.707,0,0,1,1.011-5.375c.258-1.039.531-2.136.812-3.263l1.012-3.406c.653-2.308,1.537-4.552,2.23-6.643.786-2.056,1.5-3.914,2.053-5.365-.12.676.347-.091,1.073-1.509.353-.714.782-1.586,1.243-2.52.484-.922,1-1.906,1.5-2.858l-.976,1.414a147.549,147.549,0,0,1,29.721-39.969,26.616,26.616,0,0,1,3.469-2.884c3.4-3.23,6.982-6.265,10.658-9.186-.292.511,2.1-1.157,3.935-2.392,1.864-1.193,3.132-2,.465.023a116.654,116.654,0,0,1,13.077-8.817c4.514-2.656,9.119-5,13.572-7.335a137.99,137.99,0,0,1,25.773-8.66c2.228-.551,4.494-.914,6.754-1.347l3.416-.5c1.138-.182,2.283-.3,3.431-.406a95.072,95.072,0,0,1,13.833-.482,83.224,83.224,0,0,1,13.777,1.582c2.285.4,4.525,1.018,6.78,1.58,2.22.685,4.461,1.317,6.638,2.149a97.813,97.813,0,0,1,12.793,5.636,116.442,116.442,0,0,1,12.006,7.194l-.65-.666a159.593,159.593,0,0,1,15.424,11.543,126.735,126.735,0,0,1,15.108,15.266c4,4.118,8.522,9.411,12.361,14.16,3.864,4.731,7.032,8.92,8.721,10.555,3.729,5.52,6.3,9.408,8.828,13.292,2.495,3.9,4.984,7.779,8.194,13.481-1.132-3.216,6.438,10.963,3.781,5.1a83.724,83.724,0,0,0-3.815-7.915c-1-1.881-1.986-3.585-3.578-6.938l-.028.27a278.251,278.251,0,0,0-28.867-43.273,191.8,191.8,0,0,0-18.1-19.2c-3.292-2.966-6.654-5.881-10.223-8.571a126.516,126.516,0,0,0-11.074-7.639,108.917,108.917,0,0,0-34.761-13.433,102.449,102.449,0,0,0-37.941.3,141.544,141.544,0,0,0-38.261,13.447,163.7,163.7,0,0,0-31.094,20.949c-2.016,1.813-3.862,3.238-5.569,4.682l-2.58,2.086-2.555,2.212c-1.888,1.816-3.709,3.825-5.627,5.837-1.848,2.078-3.769,4.187-5.6,6.45a150.545,150.545,0,0,0-10.675,14.476,141.06,141.06,0,0,0-9.035,16.178,133.64,133.64,0,0,0-6.627,16.933c.145-.42.285-.828.377-1.095-2,5.957-3.468,11.254-4.736,16.561a122.9,122.9,0,0,0-2.864,16.757,17.3,17.3,0,0,1-.077,2.768,84.233,84.233,0,0,0-.7,12.209,164.878,164.878,0,0,0,1.9,25.033,169.508,169.508,0,0,0,5.8,24.785c.5,1.719,1.091,3.282,1.566,4.714s.952,2.695,1.36,3.781l.989,2.7c.269.7.456,1.187.534,1.445.5,1.165,1.016,2.373,1.543,3.606a137.5,137.5,0,0,0,19.347,33.518,118.293,118.293,0,0,0,26.587,24.517,127.143,127.143,0,0,0,12.729,6.647,27.435,27.435,0,0,0,3.9,2.023c1.181.472,2.458.972,4.567,2.023a71.977,71.977,0,0,0,11.9,5.8c1.164.432,1.822.588,1.831.488a7.988,7.988,0,0,0-2.035-1.1c4.64,1.639,9.32,3.176,13.926,4.461,2.291.687,4.583,1.232,6.809,1.823,2.246.507,4.428,1.065,6.569,1.467,1.987.373,3.97.719,5.966,1.01,1.99.329,4,.573,6.013.833a38.484,38.484,0,0,1,7.011,1.32c4.406.409,5.956.547,7.558.759s3.255.449,7.886.759c1.108.27,6.94.379,12.8.091,5.861-.261,11.737-.807,13.045-.853l-1.506.163c10.675-.591,17.879-.549,28.263-2.351a180.261,180.261,0,0,0,21.771-5.1,157.425,157.425,0,0,0,21.308-8.039,125.692,125.692,0,0,0,19.563-11.195,106.707,106.707,0,0,0,8.669-6.761c1.327-1.237,2.707-2.387,3.948-3.675l1.89-1.878,1.788-1.947c-.087-.265-1.085.915-2.195,2.089-1.134,1.148-2.339,2.335-2.666,2.226a96.243,96.243,0,0,0,8.362-9.1,75.936,75.936,0,0,0,6.952-10.41,69.938,69.938,0,0,0,5.039-11.524,74.344,74.344,0,0,0,3.026-12.153c.153-.737.314-1.514.474-2.288.135-.776.27-1.549.4-2.271.277-1.444.468-2.692.582-3.369a18.543,18.543,0,0,0,.2-4.038,17.3,17.3,0,0,1-.032-2.97l.418-.518c-.094-1.416-.115-2.639-.1-3.764-.021-1.121,0-2.143.027-3.158s.036-2.017,0-3.1a30.931,30.931,0,0,0-.279-3.553,22.2,22.2,0,0,1-.632-4.046c.44-.155-.828-5.716-.424-5.5l-.042-.049c-.182-1.115-.335-1.9-.5-3.278-.137-.518-.56-2.121-1.126-4.267-.615-2.128-1.362-4.8-2.221-7.421-1.669-5.268-3.618-10.4-4.024-11.4l-.234-.972c-.912-2.813-1.611-3.911-1.163-2.244-.35-1.163-.755-2.3-1.133-3.456l.165.387c-.389-1.141-.748-2.293-1.161-3.424-.189-.64-.251-1.42.284-.519-.841-1.877-1.7-4.011-2.377-5.945,1.794,5.411,3.755,12.228,5.036,18.055-.844-2.3-1.978-6.566-2.9-9.051-.734-3.089-2.736-9.286-4.478-14.038a20.145,20.145,0,0,1-1.961-3.946c-.162-1.267-1.11-2.619-1.737-4.629a69.353,69.353,0,0,1,2.911,6.588c.211-.539-2.046-5.588-2.746-7.386-.468-.783-2.291-5.128-3.659-7.754.908,1-.8-2.261-1.371-3.937-.839-1.811-1.548-2.884-1.311-2.1-.639-.4,3.229,7.251,1.62,4.943a49.76,49.76,0,0,0-2.844-6.1c-.218.081.479,1.363-.322.243-.983-2.119-2.381-4.178-2.77-5.483a20.3,20.3,0,0,1,.964,1.844c-.685-1.355,1.547,2.121,3.628,5.57s4.05,6.845,3.146,5.088c.113.514-2.019-3.284-4.194-6.9-2.155-3.626-4.3-7.1-3.841-6.2.741,1.7-.974-.984-.174.755l1.218,1.764c1.121,2.366,1.229,3.51.678,2.757-.969-1.962.785.632,2.517,3.342s3.419,5.544,2.508,3.9l.559,1.425a53.2,53.2,0,0,1-3.29-6.726c-.215.092-1.22-1.8-2.106-3.343l-.252-.578c-.94-1.581-2.059-3.888-1.784-2.687,4.922,9.537-5.276-5.2-.668,4.09-1.537-4.095,1.153,1.052,3.2,5.128a32.99,32.99,0,0,0,1.985,5.423c1.226,2.559.868,1.441,1.211,1.878.562,1.475,1.714,4.255,1.3,4.006,1.175,1.9,1.262,3.305,2.382,5.708,1.044,2.1.065-.2.851,1.269,1.343,3.244,3.088,7.842,4.015,10.477.149,1.1.843,4.339-.331,2.225-1.79-4.991,1.321,1.667-.714-3.469.323,2.421-1.89-4.509-2.7-5.265a81.215,81.215,0,0,0,2.829,7.8l-.135-.586c.484,1.218,1.2,3.051,1.878,4.929a49.026,49.026,0,0,1,1.554,5.21c-.4-.572-.149.648-.8-1.162.376,1.142.713,2.294,1.072,3.44.2.417.4.846.132-.158a22.78,22.78,0,0,1,1.329,4.516c-.045.218,1.543,4.743,2.855,9.235.7,2.236,1.262,4.476,1.722,6.1.4,1.64.653,2.68.592,2.543.524,2.553.263,3.235.909,5.7.053.06-.222-1.437-.654-3.66-.479-2.216-1.144-5.151-1.9-7.961-1.487-5.625-3.208-10.761-2.7-9.121.186,1.1,2.42,8.108,4.013,15.226.828,3.551,1.47,7.124,1.9,9.91a36.648,36.648,0,0,1,.529,5.2c.16,1.919.38,4.236.561,3.773.035,3.261-.449-.951-.553,1.373.036.051.1-.193.123.544l-.179,2.228c.1,1.256.137,2.663.161,4.146-.034,1.482-.073,3.042-.163,4.606-.21,3.127-.511,6.27-.719,8.906.007-.772-.016-1.6-.069-2.661s0-2.338-.013-4.03l.154-.579c-.015-.241.008-1.055.008-1.8s-.074-1.422-.176-1.387c-.1,1.595-.295,3.063-.365,4.563-.123,1.495-.236,3.012-.346,4.691-.154.6-.325,1.309-.46,1.777.03-.009.062-.056.091-.038-.3,1.061-.306.941-.326.533a1.385,1.385,0,0,1-.012-.236,17.064,17.064,0,0,0-.725,2.787c-.135.66-.273,1.4-.413,2.2-.175.79-.362,1.635-.554,2.509a44.166,44.166,0,0,1-3.316,9.963c-.609,1.59.062.2-.73,2.172a65.4,65.4,0,0,1-4.177,6.78c-.737,1.024-1.442,2.077-2.3,3.111l-1.273,1.627c-.447.553-.944,1.1-1.441,1.685-1.036,1.692-1.062,1.893.674.222-.512.589-1,1.2-1.532,1.772l-1.607,1.706c1.146-1.834-.4-.279-2.014,1.1s-3.191,2.694-1.8.8c-.52.432-1.32,1.082-2.2,1.868l-1.375,1.259c-.488.421-.98.858-1.459,1.3a1.77,1.77,0,0,1-.45.773,13.816,13.816,0,0,1-2.333,2.054c-1.869,1.312-2.634,1.738-3.278,2.163-.659.4-1.2.8-2.859,1.72-.879.289.231-.543-.008-.613a20.2,20.2,0,0,1-4.642,2.744,43.616,43.616,0,0,0-4.638,2.25c-2.975,1.706-9.115,4.62-9.135,5.005C3786.479,1931.62,3786.329,1931.253,3786.642,1930.8Z" fill="#ffd100"/>
            </g>
          </g>
          <g id="Group_528" data-name="Group 528" opacity="0.1">
            <path id="Path_242" data-name="Path 242" d="M3851.384,1726.626c20.8,39.992,31.8,81.6,16.559,109.875-15.3,28.216-56.851,43.1-99.294,43.579-42.5.478-85.784-13.331-110.055-46.748-24.211-33.476-29.411-86.441-7.771-126.972,21.7-40.471,70.181-68.507,109.7-63.306S3830.58,1686.573,3851.384,1726.626Z" fill="#ffd100"/>
          </g>
          <g id="Group_529" data-name="Group 529" opacity="0.1">
            <path id="Path_243" data-name="Path 243" d="M3738.68,1804.579c20.8,39.993,31.8,81.6,16.559,109.875-15.3,28.216-56.851,43.1-99.294,43.58-42.5.478-85.784-13.331-110.055-46.748-24.21-33.477-29.411-86.442-7.771-126.972,21.7-40.471,70.181-68.508,109.7-63.307S3717.876,1764.527,3738.68,1804.579Z" fill="#ffd100"/>
          </g>
        </g>
        <g id="Group_531" data-name="Group 531">
          <path id="Path_244" data-name="Path 244" d="M3842.094,1734.982c16.823,28.076,40.734,59.3,30.045,77.217-10.631,17.963-55.8,22.767-83.6,45.016-27.856,22.305-38.356,62.054-63.292,84.208-24.888,22.1-64.315,26.606-80.166,2.428-15.747-24.188-7.863-77.017-29.207-110.04s-71.964-46.185-87.326-69.568c-15.41-23.327,4.381-56.923,33.238-72.609s66.722-13.509,94.364-9.019,45.058,11.292,68.189,7.374c23.178-3.974,52.126-18.62,71.552-13.409S3825.215,1706.859,3842.094,1734.982Z" fill="#07b5bd"/>
        </g>
      </g>
      <g id="Group_573" data-name="Group 573">
        <ellipse id="Ellipse_19" data-name="Ellipse 19" cx="255.826" cy="8.752" rx="255.826" ry="8.752" transform="translate(3372.075 1976.527)" fill="#f4f4f4" opacity="0.7"/>
        <g id="Group_539" data-name="Group 539">
          <g id="Clock">
            <circle id="Clock_Frame" data-name="Clock Frame" cx="30.132" cy="30.132" r="30.132" transform="translate(3771.565 1685.446)" fill="#f2f2f2"/>
            <circle id="Time" cx="1.706" cy="1.706" r="1.706" transform="translate(3799.991 1689.994)"/>
            <circle id="Time-2" cx="1.706" cy="1.706" r="1.706" transform="translate(3776.113 1713.872)"/>
            <circle id="Time-3" cx="1.706" cy="1.706" r="1.706" transform="translate(3823.869 1713.872)"/>
            <circle id="Time-4" cx="1.706" cy="1.706" r="1.706" transform="translate(3799.991 1737.75)"/>
            <path id="Hand" d="M3801.7,1695.111l1.137,19.9h-2.275Z" fill="#afb9c5"/>
            <path id="Hand-2" d="M3811.759,1725.639l-10.452-8.844,1.608-1.608Z" fill="#afb9c5"/>
            <circle id="Time-5" cx="2.274" cy="2.274" r="2.274" transform="translate(3799.422 1713.303)" fill="#c5cfd6"/>
          </g>
          <g id="Lamp">
            <path id="Body" d="M3668.145,1979.322V1793.087a9.1,9.1,0,0,1,2.663-6.43l28.1-28.115,0,0a4.547,4.547,0,0,1,6.432,0L3715.9,1769.1" fill="none" stroke="#cbcbcb" stroke-miterlimit="10" stroke-width="8"/>
            <rect id="Lamp_Base" data-name="Lamp Base" width="33.543" height="3.98" rx="1.706" transform="translate(3651.658 1978.754)" fill="#afb9c5"/>
            <g id="Lamp_Top" data-name="Lamp Top">
              <path id="Lamp-2" d="M3736.085,1762.905l11.256,11.256h0l-26.532,26.532h0l-11.257-11.256a18.762,18.762,0,0,1,0-26.532h0A18.761,18.761,0,0,1,3736.085,1762.905Z" fill="#c5cfd6"/>
              <ellipse id="Lamp-3" cx="18.761" cy="3.695" rx="18.761" ry="3.695" transform="translate(3717.746 1797.775) rotate(-45)" fill="#f2f2f2"/>
            </g>
          </g>
          <g id="Big_Leaf_Plant" data-name="Big Leaf Plant">
            <g id="Big_Ass_Leaf" data-name="Big Ass Leaf">
              <path id="leaf" d="M3558.967,1847.523a9.625,9.625,0,0,1,4.882.512c3.22,1.364,4.136,5.173,4.093,8.264-.048,3.329-.754,6.964,1.776,9.645,1.163,1.234,2.61,2.177,3.752,3.433a16.2,16.2,0,0,1,2.887,4.525c1.3,3.028,1.941,6.589.751,9.766-1.049,2.8-3.686,5.32-3.116,8.5.593,3.321,3.938,5.854,6.029,8.328,2.367,2.8,4.548,6.37,4.9,10.038a13.184,13.184,0,0,1-3.534,9.726c-4.69,5.308-11.742,7.91-18.851,7.894-3.019-.007-6.437-.143-9.04-1.765a4.981,4.981,0,0,1-1.708-1.846,6.03,6.03,0,0,0-1.652-1.653,9.8,9.8,0,0,1-3.147-4.2c-2.58-6.386-.518-14.286,3.093-19.955.856-1.343,1.556-2.636,1.141-4.238a16.381,16.381,0,0,0-2.446-4.619,37.185,37.185,0,0,1-2.724-4.311,9.778,9.778,0,0,1-.843-5.052,17.188,17.188,0,0,1,3.7-9.019c1.945-2.562,4.232-5.013,4.237-8.369.006-3.558-2.373-6.723-1.359-10.34a6.887,6.887,0,0,1,2.62-3.932A10.679,10.679,0,0,1,3558.967,1847.523Z" fill="#dde3e9"/>
              <path id="middle_thing" data-name="middle thing" d="M3557.9,1853.21a.819.819,0,0,1,.952-.662c.031.006.062.013.092.022.587.165.576.713.56,1.2a16.153,16.153,0,0,0,.531,4.421,78.347,78.347,0,0,0,3.238,8.737,15.881,15.881,0,0,1,.969,8.991c-.607,2.9-1.561,5.729-2.184,8.637-.548,2.562-1.131,5.263-.3,7.818.8,2.459,2.578,4.462,3.857,6.684a31.526,31.526,0,0,1,3.977,14.958,28.035,28.035,0,0,1-.559,7.293c-.326,1.378-.764,3.241-1.944,4.19a1.349,1.349,0,0,1-1.933-.057c-.43-.608-.053-1.552.083-2.2a33.394,33.394,0,0,0,.569-8.536,30.8,30.8,0,0,0-1.334-8.164,27.667,27.667,0,0,0-3.476-6.8c-1.472-2.184-3-4.372-3.609-6.96a16.428,16.428,0,0,1,.555-7.881c.71-2.729,1.639-5.376,2.6-8.029a14.083,14.083,0,0,0,.751-7.735C3560.28,1863.8,3557.547,1858.777,3557.9,1853.21Z" fill="#c5cfd6"/>
            </g>
            <g id="Big_Ass_Leaf-2" data-name="Big Ass Leaf-2">
              <path id="leaf-2" d="M3601.967,1854.009a12.21,12.21,0,0,1,5.453,3.148c3.055,3.292,2.118,8.268.431,11.9-1.815,3.911-4.566,7.845-3.013,12.331.713,2.063,1.911,3.932,2.587,6.011a20.939,20.939,0,0,1,.995,6.854c-.074,4.258-1.207,8.8-4.282,11.939-2.708,2.763-7.135,4.378-8.148,8.433-1.056,4.233,1.526,8.972,2.672,12.982,1.3,4.539,1.964,9.9.446,14.422-1.455,4.335-5.128,7.743-9.286,9.665-8.308,3.838-17.954,3.248-26.284-.471-3.537-1.578-7.474-3.518-9.672-6.791a6.41,6.41,0,0,1-1.028-3.07,7.718,7.718,0,0,0-1.067-2.817,12.647,12.647,0,0,1-1.467-6.608c.35-8.894,6.944-17.165,14.177-21.992,1.714-1.144,3.219-2.309,3.578-4.419a21.214,21.214,0,0,0-.426-6.731,48.1,48.1,0,0,1-.916-6.515,12.751,12.751,0,0,1,1.682-6.414,22.465,22.465,0,0,1,9.108-8.74c3.639-2.016,7.614-3.726,9.394-7.693,1.887-4.207.77-9.184,3.87-12.934a8.972,8.972,0,0,1,5.153-3.288A13.654,13.654,0,0,1,3601.967,1854.009Z" fill="#dde3e9"/>
              <path id="middle_thing-2" data-name="middle thing-2" d="M3597.85,1860.962a1.048,1.048,0,0,1,1.556-.211c.6.5.3,1.146.026,1.717a21.143,21.143,0,0,0-1.694,5.515c-.71,3.983-.551,8.016-.79,12.042a20.812,20.812,0,0,1-3.575,11.157c-2.231,3.119-4.827,5.969-7.076,9.083-1.983,2.747-4.079,5.64-4.442,9.1-.349,3.334.678,6.636,1.008,9.938a41.314,41.314,0,0,1-3.183,19.8,36.59,36.59,0,0,1-4.473,8.344c-1.1,1.46-2.589,3.435-4.467,3.943a1.716,1.716,0,0,1-2.23-1.084c-.184-.946.751-1.866,1.251-2.563a43.619,43.619,0,0,0,5.135-9.81,40.4,40.4,0,0,0,2.716-10.367,36.121,36.121,0,0,0-.509-9.868c-.576-3.358-1.218-6.751-.573-10.135.654-3.436,2.641-6.34,4.775-9.039,2.258-2.858,4.732-5.507,7.245-8.145a18.4,18.4,0,0,0,4.931-8.769C3595.087,1874.742,3594.519,1867.367,3597.85,1860.962Z" fill="#c5cfd6"/>
            </g>
            <g id="Big_Ass_Leaf-3" data-name="Big Ass Leaf-3">
              <path id="leaf-3" d="M3539.665,1879.262a10.817,10.817,0,0,1,8.327,4.3c2.376,2.951,2.856,6.554,3.821,10.071a8.992,8.992,0,0,0,2.753,4.678c1.316,1.08,2.988,1.3,4.563,1.826a10.644,10.644,0,0,1,6.7,6.7c1.226,3.785-.072,7.6.151,11.439.2,3.525,3.679,5.722,6.474,7.411,2.756,1.666,5.239,3.225,6.069,6.469a18.506,18.506,0,0,1-.044,10.682c-2.03,5.66-7.97,8.152-13.711,8.539-5.209.351-11.759-.2-15.671-3.98a11.129,11.129,0,0,1-3.084-8.576,26.1,26.1,0,0,1,.955-5.79,26.127,26.127,0,0,0,.972-4.062c.364-3.686-3.044-4.394-5.944-5.406a14.149,14.149,0,0,1-8.059-7.1,13.521,13.521,0,0,1-1.37-10.16,11.86,11.86,0,0,1,2.7-4.75c.554-.6,1.335-1.1,1.835-1.736a2.343,2.343,0,0,0,.2-2.047c-.744-3.192-3.06-5.837-3.891-9.027-.746-2.878-.3-6.463,2.33-8.317A6.881,6.881,0,0,1,3539.665,1879.262Z" fill="#c5cfd6"/>
              <path id="middle_thing-3" data-name="middle thing-3" d="M3544.231,1887.586c3.552,3.786,4.517,8.917,4.8,13.892.159,2.79-.006,5.732.813,8.438a14.179,14.179,0,0,0,4.04,5.76c3.411,3.369,7.216,6.793,8.214,11.668.586,2.861.191,5.816,1,8.645a23.756,23.756,0,0,0,3.606,7.271c1.268,1.749,2.921,3.087,4.307,4.719.423.5,1.029,1.23.853,1.933-.2.822-1.251,1.083-2,.954-1.733-.3-3.193-1.957-4.326-3.16a27.185,27.185,0,0,1-4.211-5.776,24.266,24.266,0,0,1-2.729-7.505c-.455-2.744-.228-5.6-1.264-8.238-1.744-4.434-5.97-7.05-9.03-10.5-3.809-4.305-3.241-9.661-2.851-14.955.214-2.91.427-6.2-1.043-8.852-.562-1.016-1.813-1.961-2.054-3.114C3542.139,1887.709,3543.345,1886.642,3544.231,1887.586Z" fill="#afb9c5"/>
            </g>
            <path id="Base" d="M3548.019,1949.759c0,21.637,3.531,32.975,22.172,32.975s22.173-11.338,22.173-32.975Z" fill="#0d1e51"/>
          </g>
          <rect id="Rectangle_38" data-name="Rectangle 38" width="198.166" height="16.054" rx="1.954" transform="translate(3619.584 1851.851)" fill="#fff"/>
          <rect id="Rectangle_39" data-name="Rectangle 39" width="127.509" height="16.054" rx="1.954" transform="translate(3635.638 1855.225) rotate(90)" fill="#fff"/>
          <g id="Group_538" data-name="Group 538">
            <g id="Group_533" data-name="Group 533">
              <rect id="Rectangle_40" data-name="Rectangle 40" width="5.851" height="65.86" transform="translate(3807.368 1908.363)" fill="#89c5cc"/>
            </g>
            <g id="Group_535" data-name="Group 535">
              <g id="Group_534" data-name="Group 534">
                <path id="Path_245" data-name="Path 245" d="M3837.951,1914.215h-68.739a5.852,5.852,0,0,1,0-11.7h68.739a3.981,3.981,0,0,0,3.894-3.091l18.923-81.342a5.851,5.851,0,1,1,11.4,2.652l-18.924,81.343A15.632,15.632,0,0,1,3837.951,1914.215Z" fill="#0d1e51"/>
              </g>
            </g>
            <g id="Group_537" data-name="Group 537">
              <g id="Group_536" data-name="Group 536">
                <path id="Path_246" data-name="Path 246" d="M3838.944,1982.5h-5.85a5.357,5.357,0,0,0-5.351-5.35h-34.378a5.357,5.357,0,0,0-5.351,5.35h-5.851a11.214,11.214,0,0,1,11.2-11.2h34.378A11.214,11.214,0,0,1,3838.944,1982.5Z" fill="#0d1e51"/>
              </g>
            </g>
          </g>
          <rect id="Rectangle_41" data-name="Rectangle 41" width="127.509" height="16.054" rx="1.954" transform="translate(3817.751 1855.225) rotate(90)" fill="#fff"/>
          <path id="Path_247" data-name="Path 247" d="M3746.892,1773.855c-1.444-1.443-8.553,3.327-15.88,10.654s-12.1,14.436-10.653,15.879l26.982,83.579,80.376-80.377Z" fill="url(#linear-gradient)"/>
        </g>
        <g id="Group_572" data-name="Group 572">
          <g id="Group_554" data-name="Group 554">
            <g id="Group_542" data-name="Group 542">
              <g id="Group_540" data-name="Group 540">
                <path id="Path_248" data-name="Path 248" d="M3465.937,1947.5l-11.648-.45q2.1,11.648,4.885,25.774l7.821-.032Q3466.386,1958.641,3465.937,1947.5Z" fill="#e2a47a"/>
              </g>
              <g id="Group_541" data-name="Group 541">
                <path id="Path_249" data-name="Path 249" d="M3449.178,1890.253a9.076,9.076,0,0,0-1.524,1.882c-5.94,10.47-5.129,35.808,8.153,71.237l12.664.221c2.963-29.557.482-48.4,1.158-52.662h0C3470.334,1895.581,3458.2,1881.905,3449.178,1890.253Z" fill="#db5669"/>
              </g>
            </g>
            <g id="Group_544" data-name="Group 544">
              <g id="Group_543" data-name="Group 543">
                <path id="Path_250" data-name="Path 250" d="M3469.961,1972.357a1.436,1.436,0,0,0-1.892-.74,11.6,11.6,0,0,1-4.438,1.214,12.909,12.909,0,0,1-5.09-1.558l-1.159-2.956-.008-.018a.717.717,0,0,0-.941-.38l-18.963,8.06q-2.254.3-5.662.653t-1.92,5.6l40.485.707a36.149,36.149,0,0,0,.746-5.655,15.426,15.426,0,0,0-1.121-4.834A1,1,0,0,0,3469.961,1972.357Z" fill="#e3e3e2"/>
              </g>
            </g>
            <g id="Group_546" data-name="Group 546">
              <g id="Group_545" data-name="Group 545">
                <path id="Path_251" data-name="Path 251" d="M3445.074,1900.224c2.769,9.879,14.171,4.622,17.551,2.766s7.351-6.046,9.858-11.332c.869-1.831,39.38-74.926,14.192-107.2l-31.481,19.829C3446.418,1853.359,3442.3,1890.344,3445.074,1900.224Z" fill="#db5669"/>
              </g>
            </g>
            <g id="Group_549" data-name="Group 549">
              <g id="Group_547" data-name="Group 547">
                <path id="Path_252" data-name="Path 252" d="M3505.705,1953.1l-9.749.127,6.66,26.109,8.3,2.3Z" fill="#f9b485"/>
              </g>
              <g id="Group_548" data-name="Group 548">
                <path id="Path_253" data-name="Path 253" d="M3469.7,1892.581c8.985,31.332,18.881,59.808,22.821,71.425l19.405,1.651c-4.033-13.156-5.013-46.777-7.029-80.825-.768-9.595-6.438-15.489-19.124-14.266C3475.122,1871.591,3466.793,1878.65,3469.7,1892.581Z" fill="#eb5766"/>
              </g>
            </g>
            <g id="Group_551" data-name="Group 551">
              <g id="Group_550" data-name="Group 550">
                <path id="Path_254" data-name="Path 254" d="M3511.485,1973.679a1.437,1.437,0,0,0-1.922-.658,11.572,11.572,0,0,1-4.382,1.4,12.9,12.9,0,0,1-5.153-1.338l-1.283-2.9-.009-.02a.717.717,0,0,0-.957-.338l-18.6,8.867q-2.241.391-5.629.894t-1.678,5.679q38.226-.973,40.478-1.031a36.042,36.042,0,0,0,.5-5.682,15.423,15.423,0,0,0-1.327-4.781C3511.513,1973.741,3511.5,1973.71,3511.485,1973.679Z" fill="#e3e3e2"/>
              </g>
            </g>
            <g id="Group_553" data-name="Group 553">
              <g id="Group_552" data-name="Group 552">
                <path id="Path_255" data-name="Path 255" d="M3465.352,1790.772c-5.51,21.782-2.021,62.29,3.175,99.258,1.923,13.063,10.906,13.982,20.123,14.025,10.573.05,14.958-6.558,15.81-16.8,2.485-30.822,4.176-62.11-.025-79.5Z" fill="#eb5766"/>
              </g>
            </g>
          </g>
          <g id="Group_560" data-name="Group 560">
            <g id="Group_556" data-name="Group 556">
              <g id="Group_555" data-name="Group 555">
                <path id="Path_256" data-name="Path 256" d="M3410.111,1790.4c-4.4-1.256-8.684-3.162-12.177-3.168-.739-.011-1.369.081-2.061,0-2.01-.226-4.038,2.715-12.341,1.856-5.251-.543-6.31-4.909-6.239-4.973.606-2.131,3.908-2.679,5.259-2.643,2.085.055,2.044.442,4.521-.523.963-.375-3.644-2.209-1.327-3.274,6.23-2.864,9.244,2.017,10.141,2.129l2.884.3,8.356.272Z" fill="#e2a47a"/>
              </g>
            </g>
            <g id="Group_558" data-name="Group 558">
              <g id="Group_557" data-name="Group 557">
                <path id="Path_257" data-name="Path 257" d="M3483.5,1755.151c-3.129,7.908-17.031,30.305-23.73,37.021-5.408,5.422-10.71-2.75-13.963-6.383-3.789-4.229,1.626-12.1,4.682-16.551,4.232-7.949,8.794-15.893,12.589-23.733l0,0c1.892-3.8,10.52-6.538,15.125-4.059C3485.051,1745.137,3484.906,1751.582,3483.5,1755.151Z" fill="#c94741"/>
              </g>
            </g>
            <g id="Group_559" data-name="Group 559">
              <path id="Path_258" data-name="Path 258" d="M3462.962,1785.078c-2.107,6.924-16.913,11.787-16.913,11.787-11.889,4-26.052,7.745-45.888,5.069q-2.859-6.189-1.039-23.814c22-.12,36.348-2.753,45.65-5.16,3.756-.743,7.721-2.417,13.064,1.648C3461.716,1777.561,3463.905,1779.824,3462.962,1785.078Z" fill="#c94741"/>
            </g>
          </g>
          <g id="Group_563" data-name="Group 563">
            <g id="Group_561" data-name="Group 561">
              <path id="Path_259" data-name="Path 259" d="M3484.883,1752.509l-16.909,2.124.319-20.62c-4.217,3.323-8.533,5.214-10.706,4.936-5.447-.7-8.357-19.939-5.23-28.062s23.7-14.076,26.651.87c1.024,5.186-.586,10.132-3.354,14.35Z" fill="#f9b485"/>
            </g>
            <g id="Group_562" data-name="Group 562">
              <path id="Path_260" data-name="Path 260" d="M3468.132,1744.431l6.029,1.553-2.039-17.9-3.829,5.925Z" fill="#e2a47a"/>
            </g>
          </g>
          <g id="Group_565" data-name="Group 565">
            <g id="Group_564" data-name="Group 564">
              <path id="Path_261" data-name="Path 261" d="M3446.511,1815.579l65.136,5.594s-6.883-48.141-15.4-65.755c-4.765-9.851-6.9-13.207-12-18.15l-1.208-.042-.009.011-18.595,3.58C3463.323,1772.544,3452.509,1792.434,3446.511,1815.579Z" fill="#ff6053"/>
            </g>
          </g>
          <g id="Group_571" data-name="Group 571">
            <g id="Group_567" data-name="Group 567">
              <g id="Group_566" data-name="Group 566">
                <path id="Path_262" data-name="Path 262" d="M3415.6,1795.9c-4.4-1.255-8.684-3.162-12.177-3.168-.739-.011-1.369.081-2.061,0-2.01-.226-4.038,2.715-12.341,1.857-5.252-.544-6.31-4.91-6.239-4.974.6-2.131,3.908-2.679,5.259-2.643,2.085.055,2.043.442,4.52-.522.964-.376-3.643-2.21-1.327-3.275,6.23-2.864,9.245,2.017,10.141,2.129l2.884.3,8.357.272Z" fill="#f9b485"/>
              </g>
            </g>
            <g id="Group_569" data-name="Group 569">
              <g id="Group_568" data-name="Group 568">
                <path id="Path_263" data-name="Path 263" d="M3488.98,1760.649c-3.128,7.909-17.03,30.3-23.729,37.021-5.409,5.422-10.71-2.75-13.964-6.383-3.788-4.229,1.626-12.1,4.682-16.551,4.233-7.949,8.794-15.893,12.59-23.733l0,0c1.892-3.8,10.519-6.538,15.125-4.059C3490.536,1750.635,3490.392,1757.08,3488.98,1760.649Z" fill="#ff6053"/>
              </g>
            </g>
            <g id="Group_570" data-name="Group 570">
              <path id="Path_264" data-name="Path 264" d="M3468.447,1790.576c-2.107,6.924-16.913,11.788-16.913,11.788-11.889,4-26.051,7.744-45.888,5.068q-2.858-6.189-1.038-23.814c22-.12,36.347-2.753,45.65-5.16,3.756-.743,7.721-2.417,13.063,1.648C3467.2,1783.059,3469.391,1785.322,3468.447,1790.576Z" fill="#ff6053"/>
            </g>
          </g>
          <path id="hair" d="M3486.706,1706.818c1.822-.031,4.088.62,5.167,2.358,1.4,2.257-.178,5.036-2.024,6.261,3.717,2.851-2.323,7.533-4.921,7.889.611,1.846-1.539,2.646-2.708,3.233a2.551,2.551,0,0,1,.32,3.33,3.15,3.15,0,0,1-3.877.574c-.3-.175-.368-.428-.606-.642a1.483,1.483,0,0,0-.691-.22,2.567,2.567,0,0,1-1.374-1.37c-.639-1.157-.962-2.563-1.953-3.46,1.148-.6,2.539-1.162,3.243-2.417,1.213-2.162-.484-4.931-2.646-5.327a5.421,5.421,0,0,0-5.167,2.538,9.186,9.186,0,0,0-2-2.943c-.518-.492-1.43-1.19-.327-1.571,2.44-.842,5.016-1.258,7.486-2-2.592.178-5.172.633-7.777.571a2.135,2.135,0,0,1-2.1-.929,10.124,10.124,0,0,1-1.124-3.492,7.675,7.675,0,0,1-2.615.932c-.357.016-.714-.058-1.071-.036a1.285,1.285,0,0,0-.929.508,8.981,8.981,0,0,1-3.994,2.462,9.913,9.913,0,0,1-2.7.536,1.728,1.728,0,0,1-.34-.089,3.91,3.91,0,0,0-.729.11,2.422,2.422,0,0,1-1.807-.391,1.956,1.956,0,0,1,.28-3.3,15.276,15.276,0,0,1-3.176-2.676,10.755,10.755,0,0,1-1.235-1.624,1.951,1.951,0,0,1-.389-1.2c.215-1.261,2.663-.672,3.378-.38a2.4,2.4,0,0,0-.009-.82,1.525,1.525,0,0,1-.031-.8,1.621,1.621,0,0,1,.853-.908,3.961,3.961,0,0,1,1.483-.438c.261-.026.882.1.993-.214a2.048,2.048,0,0,0-.157-.948,13.349,13.349,0,0,1-.279-1.377c-.1-.617-.187-1.235-.274-1.854a4.943,4.943,0,0,1-.106-1.382c.177-1.216,1.435-1.353,2.362-1.206a5.16,5.16,0,0,1,1.8.667c.4.236.783.506,1.18.752.264.162.477.391.74.188.622-.477.89-1.484,1.318-2.138a4.72,4.72,0,0,1,1.965-1.643,5.434,5.434,0,0,1,5.139.516,5.875,5.875,0,0,1,.978.766c.255.249.451.447.809.336a2.917,2.917,0,0,0,.86-.555c.317-.248.65-.471.987-.686a7.361,7.361,0,0,1,4.447-1.225,4.984,4.984,0,0,1,3.874,2.159,10.191,10.191,0,0,1,1.546,4.909c.754-.38,1.407-.954,2.19-1.274a6.544,6.544,0,0,1,2.493-.5,5.369,5.369,0,0,1,3.655,1.289c1.225,1.16,1.351,3,1.1,4.62a21.089,21.089,0,0,1-.545,2.394,5.35,5.35,0,0,1-.966,2.14" fill="#191847"/>
        </g>
      </g>
    </g>
  </g>
</svg>
