<svg xmlns="http://www.w3.org/2000/svg" width="587.83" height="412.796" viewBox="0 0 587.83 412.796"><defs><style>.a{fill:#f4f4f4;}.a,.e{opacity:0.7;}.b{fill:#ffd100;}.c{opacity:0.1;}.d{fill:#fc574f;}.f,.h{opacity:0.5;}.g,.h{fill:#ddd;}.h{isolation:isolate;}.i{fill:#b28b67;}.j{fill:#ad503c;}.k{fill:#efc100;}.l{fill:#e4e4e4;}.m{fill:#997659;}.n{fill:#0b9995;}.o{fill:#07b5bd;}.p{fill:#dde3e9;}.q{fill:#c5cfd6;}.r{fill:#afb9c5;}.s{fill:#0d1e51;}.t{fill:#fff;}.u{fill:#89c5cc;}.v{fill:none;stroke:#cbcbcb;stroke-miterlimit:10;stroke-width:8px;}.w{fill:#f2f2f2;}.x{fill:#e2a47a;}.y{fill:#e3e3e2;}.z{fill:#f9b485;}.aa{fill:#191847;}</style></defs><g transform="translate(-662.47 -3847.44)"><ellipse class="a" cx="276.788" cy="9.469" rx="276.788" ry="9.469" transform="translate(683.212 4241.297)"/><g transform="translate(0 -1047)"><path class="b" d="M971.366,5258.695a.8.8,0,0,1-.2-.021,1.024,1.024,0,0,1-.644-.479c-.609-1.056-1.012-1.754,22.431-16.726,13.674-8.732,32.479-20.384,50.665-31.652,30.59-18.952,64.762-40.124,73.733-46.987-10.318,4.9-45.483,26.3-76.953,45.446-55.182,33.573-82.158,49.713-86.157,49.715a1.007,1.007,0,0,1-.242-.026,1.092,1.092,0,0,1-.687-.508c-.666-1.154-1.241-2.149,25.888-19.14,15.837-9.919,37.449-22.966,58.349-35.583,34.639-20.911,73.529-44.388,80.759-50.548-9.245,3.464-51.4,29.324-88.931,52.345-57.058,35-85.028,51.852-89.5,51.854a1.191,1.191,0,0,1-.292-.032,1.156,1.156,0,0,1-.731-.536c-.67-1.161-1.3-2.257,28.024-20.35,17.15-10.581,40.551-24.5,63.182-37.953,37.086-22.052,78.667-46.777,87.179-53.7-10.128,4.437-51.825,29.81-89.017,52.441-60.328,36.711-97.2,58.929-100.832,58.011a1.138,1.138,0,0,1-.716-.526c-.716-1.24-1.456-2.523,31.3-22.509,19.127-11.67,44.9-26.792,69.827-41.416,38.4-22.532,81.564-47.854,88.9-54.087-10.037,3.444-62.215,35.349-104.668,61.307-60.69,37.109-90.335,54.942-94.658,54.944a1.058,1.058,0,0,1-.255-.027,1.123,1.123,0,0,1-.706-.52c-.709-1.23-1.514-2.623,31.943-23.3,19.58-12.1,46.121-27.855,71.788-43.092,41.847-24.844,88.984-52.826,95.193-58.871-8.689,2.215-59.926,33.83-105.392,61.883-62.256,38.415-100.331,61.659-104.743,60.565a1.246,1.246,0,0,1-.8-.585c-.76-1.317-1.622-2.809,34.962-24.866,21.376-12.887,50.063-29.489,77.8-45.543,41.817-24.2,88.837-51.411,96.329-57.881-9.992,3.4-62.785,35.644-109.7,64.3-69.83,42.65-103.127,62.664-106.808,61.7a1.153,1.153,0,0,1-.731-.536c-.73-1.264-1.557-2.7,34.995-25.192,21.409-13.176,50.324-30.306,78.288-46.873,44.561-26.4,94.729-56.119,101.726-62.592-9.465,2.782-63.768,36.113-111.977,65.7-65.9,40.448-106.772,65.272-112.6,65.275a1.352,1.352,0,0,1-.332-.036,1.221,1.221,0,0,1-.785-.572c-.773-1.339-1.649-2.856,35.432-25.47,21.761-13.272,51.334-30.587,79.934-47.331,47.583-27.86,101.192-59.247,107.871-65.924-8.984,2.712-61.508,35-108.129,63.657-71.79,44.131-116.376,71.231-123.146,71.233a1.7,1.7,0,0,1-.412-.045,1.279,1.279,0,0,1-.959-1.637c.413-1.532,4.936-5.084,13.023-10.431-10.717,5.91-17.071,8.9-18.555,8.5a1.164,1.164,0,0,1-.75-.549c-.781-1.352-1.666-2.885,39.1-27.7,23.871-14.532,55.878-33.3,86.83-51.44,46.973-27.538,99.826-58.522,107.669-65.4-10.353,3.408-68.081,38.66-119.361,69.972-72.657,44.367-117.1,71.2-121.461,70.119a1.192,1.192,0,0,1-.764-.558,1.173,1.173,0,0,1-.1-.911c1.1-4.087,42.554-28.084,110.1-66.9,55.291-31.772,123.623-71.039,129.564-78.394-8.392,2.293-63.79,36.255-112.9,66.364-74.731,45.815-124.64,76.083-131.675,76.086a1.611,1.611,0,0,1-.4-.042,1.31,1.31,0,0,1-.847-.613c-.827-1.433-1.857-3.217,37.258-27.006,23.025-14,54.544-32.325,85.025-50.043,53.365-31.02,113.541-66,119.719-73.221-9,2.99-65.231,37.187-115.126,67.53-78.556,47.773-127.193,77.067-133.53,77.071a1.338,1.338,0,0,1-.331-.036,1.207,1.207,0,0,1-.774-.565c-.749-1.3-1.6-2.769,35.546-25.2,21.949-13.257,51.063-30.17,81.886-48.076,54.763-31.814,122.395-71.1,128.754-78.6-9.065,2.723-68.549,38.913-121.3,71.006-76.8,46.724-124.327,75.368-130.4,75.37a1.287,1.287,0,0,1-.31-.033,1.183,1.183,0,0,1-.76-.556c-.749-1.3-1.523-2.637,36.9-25.931,22.681-13.75,53.973-32.067,84.235-49.78,57.19-33.475,121.734-71.255,127.826-78.152-9,1.73-73.6,41.333-130.828,76.419-72.307,44.328-117.106,71.519-123.189,71.521a1.329,1.329,0,0,1-.328-.035,1.224,1.224,0,0,1-.786-.572,1.145,1.145,0,0,1-.1-.89c.474-1.757,9.122-7.583,24.679-17.008-15.552,8.9-25.005,13.707-27.525,13.709a1.219,1.219,0,0,1-.317-.035,1.194,1.194,0,0,1-.769-.561,1.32,1.32,0,0,1-.113-1.032c.505-1.876,7.169-6.786,19.018-14.328-12.827,7.2-20.468,10.871-22.315,10.4a1.265,1.265,0,0,1-.818-.594,1.287,1.287,0,0,1-.111-1c.57-2.116,9.294-8.234,25.029-17.958-15.413,8.794-24.914,13.546-27.735,13.548a1.68,1.68,0,0,1-.406-.044,1.279,1.279,0,0,1-.957-1.638c.387-1.423,4.316-4.552,11.459-9.277-7.6,3.945-12.288,5.878-13.689,5.526a1.3,1.3,0,0,1-.836-.607c-.7-1.21-1.54-2.667,23.642-18.425-14.206,7.916-23.179,12.248-26,12.249a1.8,1.8,0,0,1-.444-.048,1.355,1.355,0,0,1-.876-.633c-.81-1.4-1.92-3.325,42.262-30.051,25.9-15.667,60.636-35.812,94.23-55.293,51.533-29.886,109.611-63.568,116.528-70.414-10.333,2.877-79.579,44.982-135.7,79.1-78.929,47.991-116.526,70.5-120.184,69.569a1.132,1.132,0,0,1-.708-.521c-.8-1.4-1.908-3.305,42.355-30.278,25.932-15.8,60.636-36.089,94.2-55.709,51.1-29.874,108.738-63.564,115.037-70.035-9.847,1.988-81.528,45.786-139.536,81.23-73.727,45.049-109.653,66.668-114.536,66.67a1.052,1.052,0,0,1-.267-.029,1.128,1.128,0,0,1-.718-.528,1.242,1.242,0,0,1-.109-.967c1.271-4.732,48.071-31.966,124.995-76.258,55.869-32.168,118.851-68.432,125.86-75.807-9.9,3.142-72.732,41.211-128.474,74.986-79.88,48.4-118.736,71.608-123.718,71.611a1.069,1.069,0,0,1-.258-.028,1.121,1.121,0,0,1-.7-.519c-.8-1.378-1.785-3.093,39.043-27.757,24.014-14.507,56.712-33.46,88.333-51.788,53.8-31.185,114.477-66.354,120.882-73.316-9.544,2.561-73.54,41.482-130.28,75.989-78.487,47.733-115.879,70.085-119.594,69.164a1.137,1.137,0,0,1-.715-.525c-.79-1.37-1.687-2.923,36.225-25.8,22.374-13.5,53.288-31.4,83.186-48.716,56.315-32.612,119.845-69.4,125.985-76.719-8.84,2.73-65.474,37.243-115.707,67.854-76.7,46.739-124.2,75.4-130.545,75.408a1.37,1.37,0,0,1-.338-.037,1.217,1.217,0,0,1-.782-.571c-.711-1.23-1.445-2.5,33.115-23.51,20.467-12.44,47.9-28.524,76.946-45.553,55.912-32.782,124.994-73.284,131.163-80.858-8.771,2.558-66.457,37.686-117.607,68.834-73.156,44.55-118.439,71.864-124.288,71.864a1.276,1.276,0,0,1-.3-.032,1.18,1.18,0,0,1-.755-.553c-.744-1.289-1.587-2.748,37.4-26.085,22.918-13.718,54.129-31.72,84.311-49.127,51.058-29.45,108.552-62.611,116.232-69.745-10.551,3.476-73.86,41.9-125.259,73.1-72.721,44.14-108.095,65.3-112.646,65.305a.979.979,0,0,1-.236-.025,1.1,1.1,0,0,1-.69-.51c-.779-1.35-1.749-3.029,37.592-27.057,23.078-14.1,54.294-32.385,84.482-50.072,48.493-28.411,103.1-60.407,110.267-67.37-9.273,3.136-60.9,34.768-106.754,62.864-73.122,44.8-118.5,72.309-125.159,72.312a1.611,1.611,0,0,1-.391-.042,1.283,1.283,0,0,1-.827-.6c-.725-1.256-1.547-2.681,36.722-26.165,22.438-13.77,52.751-31.711,82.066-49.062,46.625-27.6,99.07-58.64,107.062-65.659-10.18,3.556-64.116,36.461-112.052,65.7-66.457,40.543-107.6,65.4-112.989,65.407a1.206,1.206,0,0,1-.281-.03,1.178,1.178,0,0,1-.741-.543c-.723-1.253-1.472-2.55,32.178-22.868,19.829-11.973,46.07-27.222,73.853-43.366,47.775-27.762,106.607-61.95,114.03-69.375-9.534,3.51-62.156,35.388-108.907,63.708-70.882,42.94-105.388,63.537-109.922,63.539a1,1,0,0,1-.241-.026,1.1,1.1,0,0,1-.689-.51c-.742-1.285-1.583-2.741,34.189-24.615,20.958-12.816,49.346-29.5,76.8-45.625,44.724-26.276,95.112-55.88,101.519-62.144-8.913,2.334-63.01,35.66-106.886,62.69-61.87,38.114-99.735,61.221-103.94,60.119a1.221,1.221,0,0,1-.786-.572c-.67-1.161-1.2-2.077,26.657-19.076,16.468-10.051,38.758-23.2,62.356-37.124,48.782-28.781,109.046-64.335,114.728-71.18-7.766,1.917-56.1,31.7-98.963,58.108-59.466,36.641-96.4,59.143-102.038,59.145a1.389,1.389,0,0,1-.343-.037,1.232,1.232,0,0,1-.8-.579c-.7-1.213-1.362-2.359,31.635-22.925,19.275-12.014,45.235-27.64,70.339-42.751,37.354-22.486,79.165-47.654,88.847-55.079-10.947,5.088-51.833,29.888-88.368,52.048-64.879,39.352-95.811,57.759-99.026,56.969a1.111,1.111,0,0,1-.691-.511c-.677-1.174-1.263-2.187,27.76-19.872,16.993-10.354,40.3-24.057,62.835-37.309,38.381-22.568,81.424-47.879,90.078-54.887-9.488,4.184-46.793,27.012-80.086,47.385-56.474,34.559-91.526,55.777-96.69,55.778a1.244,1.244,0,0,1-.3-.033,1.2,1.2,0,0,1-.754-.552c-.694-1.2-1.411-2.444,28.07-20.767,17.155-10.662,40.2-24.4,62.478-37.691,32.675-19.486,69.307-41.332,76.945-47.516-9.3,3.8-47.362,27.111-81.3,47.894-52.8,32.333-78.012,47.466-80.979,46.718a1.111,1.111,0,0,1-.7-.516c-.668-1.158-1.3-2.251,25.038-18.916,15.291-9.676,35.85-22.167,55.732-34.246,28.593-17.372,60.567-36.8,68.525-43-9.662,4.377-44.547,25.634-73.189,43.087-45.908,27.974-66.273,40.163-68.6,39.575a1.034,1.034,0,0,1-.648-.481c-.594-1.029-.952-1.649,17.728-13.517,10.878-6.91,25.468-15.867,40.914-25.349,26.758-16.428,59.223-36.358,68.032-43.275-8.081,4.171-30.412,17.786-50.49,30.027-43.011,26.224-63.572,38.513-66.1,37.858a1.067,1.067,0,0,1-.673-.5c-.849-1.47.867-3.085,47.819-32.879,17.42-11.054,38.165-24.218,47.063-30.569-7.467,4.173-21.675,12.817-34.617,20.69-32.909,20.019-43.417,26.192-45.084,25.77a.99.99,0,0,1-.619-.463c-.667-1.154-.8-1.394,24.737-19.121,5.126-3.558,10.846-7.528,15.544-10.873-8.791,5.345-9.357,5.531-9.951,5.38a.95.95,0,0,1-.568-.428.88.88,0,0,1,.323-1.2.846.846,0,0,1,.451-.118c1.124-.43,6.751-3.865,10.9-6.394,8.884-5.421,8.956-5.4,9.516-5.26a.92.92,0,0,1,.557.421c.679,1.175.839,1.455-25.765,19.919-7.019,4.872-15.2,10.548-20.033,14.13,8.182-4.468,24.949-14.668,39.081-23.265,32.621-19.844,39.48-23.8,40.863-23.439a1.064,1.064,0,0,1,.6.451c.907,1.571-1.231,3.607-52.054,35.857-17.659,11.207-37.252,23.639-44.424,28.875,9.8-4.808,38.1-22.064,61.524-36.344,40.731-24.834,52.852-31.977,54.63-31.526a.989.989,0,0,1,.622.464c.642,1.114,1.2,2.076-22.16,17.011-13.478,8.617-31.433,19.64-48.8,30.3-21.97,13.488-46.369,28.465-54.9,34.566,10.148-5.183,38.329-22.354,63.67-37.8,50.1-30.53,74.022-44.826,76.823-44.111a1.088,1.088,0,0,1,.684.5c.614,1.065,1.1,1.907-21.532,16.164-13.231,8.336-30.84,19.034-49.482,30.36-32.241,19.587-71.734,43.582-78.965,49.984,8.633-3.526,45.337-26,78.043-46.029,55.007-33.683,81.273-49.46,84.48-48.642a1.144,1.144,0,0,1,.718.528c.657,1.139,1.176,2.038-23.927,17.565-14.721,9.106-34.332,20.8-55.094,33.183-37.055,22.1-82.635,49.28-89.113,55.564,8.784-2.861,56.066-31.8,94.494-55.311,55.779-34.134,80.541-49.006,83.421-48.277a1.089,1.089,0,0,1,.687.507c.694,1.2,1.294,2.241-28.371,20.329-17.352,10.578-41.025,24.5-63.919,37.961-37.684,22.158-79.949,47.01-88.423,53.844,10.456-4.413,55.549-31.765,95.741-56.143,61.928-37.563,89.386-53.947,92.221-53.2a1.061,1.061,0,0,1,.666.493c.66,1.143,1.181,2.045-27.864,20.089-17.079,10.611-39.716,24.238-63.683,38.665-41.884,25.212-93.437,56.244-100.513,62.862,8.859-2.634,57.07-32.34,99.887-58.721,60.127-37.049,96.955-59.444,101.1-58.407a1.228,1.228,0,0,1,.788.574c.772,1.338,1.733,3-36.322,26.437-22.132,13.628-51.3,30.838-79.512,47.482-39.428,23.262-80.1,47.256-87.266,53.266,9.642-3.248,58.087-33.092,101.161-59.628,64.9-39.98,104.641-64.179,109.223-63.012a1.274,1.274,0,0,1,.819.6c.7,1.209,1.419,2.459-31.265,22.394-19.243,11.736-44.673,26.676-71.6,42.494-45.587,26.784-101.664,59.73-109.415,67.142,9.793-3.753,61.506-35.08,107.476-62.928,73.178-44.329,108.027-65.1,111.469-64.235a1.112,1.112,0,0,1,.694.512c.781,1.353,1.666,2.886-35.576,25.442-21.825,13.219-51.356,30.379-79.914,46.974-45.754,26.587-97.254,56.514-104.5,63.279,9.675-3.284,63.164-35.916,110.678-64.9,68.693-41.908,110.735-67.274,114.809-66.225a1.186,1.186,0,0,1,.747.548c.7,1.217,1.366,2.367-33.1,23.458-20.325,12.438-47.2,28.346-75.657,45.189-52.25,30.926-111.177,65.8-117.561,72.536,9.262-2.1,72.292-40.718,123.334-71.993,71.44-43.773,105.481-64.27,109.279-63.325a1.174,1.174,0,0,1,.741.543c.754,1.307,1.533,2.658-33.874,24.215-20.894,12.722-48.56,28.931-77.85,46.091-50.794,29.76-113.393,66.436-120.692,74.1,9.4-3.469,62.885-35.932,110.388-64.765,76.629-46.511,123.463-74.659,127.84-73.555a1.186,1.186,0,0,1,.746.547c.744,1.289,1.513,2.622-35.977,25.039-22.086,13.206-52.438,30.712-81.79,47.642-53.139,30.649-113.016,65.184-120.3,72.335,9.807-3.022,69.321-39.265,122.139-71.429,78.476-47.788,115.9-70.181,119.8-69.188a1.169,1.169,0,0,1,.735.539c.8,1.387,1.9,3.287-41.111,29.6-25.159,15.391-58.72,35.068-91.176,54.1-47.786,28.016-101.606,59.572-108.63,66.237,10.287-3,75.521-42.753,128.428-74.994,77.309-47.112,114.125-69.227,117.947-68.234a1.152,1.152,0,0,1,.725.533c.827,1.432,1.856,3.214-39,27.925-24.009,14.52-56.618,33.4-88.154,51.666-52.227,30.244-111.078,64.323-118.044,71.553,9.567-3.279,66.556-37.937,117.146-68.705,79.372-48.271,127.921-77.519,132.545-76.318a1.192,1.192,0,0,1,.767.561c.786,1.361,1.677,2.9-37.155,26.325-22.905,13.815-54.453,32.1-84.962,49.785-56,32.458-119.122,69.047-126.064,76.583,9.642-3.308,68.943-39.239,121.574-71.129,78.623-47.639,126.674-76.449,130.864-75.4a1.156,1.156,0,0,1,.728.535,1.26,1.26,0,0,1,.109.982c-.537,2-8.8,7.809-23.741,17.059,15.479-8.7,24.887-13.265,27.012-12.722a1.314,1.314,0,0,1,.845.613c.738,1.279,1.5,2.6-35.055,24.753-21.652,13.121-50.584,30.034-81.214,47.939-57.525,33.628-128.553,75.148-135.345,83.065,9.143-3.031,66.761-38.065,117.882-69.148,82.671-50.268,133.218-80.676,138.07-79.453a1.217,1.217,0,0,1,.78.569c.758,1.313,1.54,2.67-35.572,25-21.972,13.223-51.282,30.221-82.313,48.216-58.413,33.876-130.755,75.829-135.554,82.766,2.752-.3,13.931-5.454,49.376-26.293,27.644-16.252,62.689-37.678,96.58-58.4,74.677-45.658,107.79-65.6,111.215-64.7a1.12,1.12,0,0,1,.7.518c.74,1.282,1.578,2.735-36.382,25.489-22.451,13.459-52.278,30.68-83.855,48.912-57.467,33.181-128.585,74.242-133.9,81.28,8.868-1.381,80.907-45.387,139.116-80.944,77.526-47.357,114.449-69.591,118.286-68.6a1.158,1.158,0,0,1,.728.534,1.314,1.314,0,0,1,.111,1.03c-.41,1.511-4.771,4.922-12.692,10.1,8.365-4.476,13.422-6.673,14.874-6.305a1.267,1.267,0,0,1,.818.594,1.241,1.241,0,0,1,.108.97c-.628,2.336-12.306,10.125-33.192,22.717,20.861-12.149,33.234-18.522,35.742-17.9a1.311,1.311,0,0,1,.845.612,1.172,1.172,0,0,1,.1.912c-1.138,4.226-45.461,29.866-117.683,71.35-57.891,33.252-129.451,74.356-135.585,81.808,8.96-2.229,71.9-40.6,127.68-74.611,76.656-46.736,123.527-75.029,127.987-73.9a1.187,1.187,0,0,1,.761.556,1.276,1.276,0,0,1,.109.994c-.368,1.367-4.384,4.539-11.6,9.332,7.468-3.894,12.027-5.783,13.431-5.419a1.3,1.3,0,0,1,.836.606c.782,1.354,1.668,2.89-39.724,28.034-24.33,14.78-57.328,34.094-89.239,52.774-52.76,30.883-112.2,65.672-119.683,72.837,10.218-3.141,72.734-41.175,128.215-74.929,80.991-49.273,119.57-72.4,123.537-71.375a1.164,1.164,0,0,1,.73.536c.829,1.436,1.86,3.223-40.029,28.617-24.586,14.9-57.785,34.191-89.892,52.842-51.505,29.921-109.567,63.65-116.142,70.477,9.958-2.751,77.124-43.6,131.546-76.693,77.1-46.887,113.783-68.865,117.42-67.951a1.128,1.128,0,0,1,.707.52c.812,1.409,1.825,3.162-36.772,26.626-22.737,13.821-53.958,31.97-84.15,49.52-54.874,31.9-116.868,67.934-121.342,74.437,8.26-1.1,75.7-42.444,130.173-75.84,68.583-42.045,110.825-67.744,115.052-66.692a1.2,1.2,0,0,1,.756.553,1.349,1.349,0,0,1,.114,1.053c-.567,2.107-8.473,7.8-22.415,16.55,14.043-7.975,22.323-12.08,24.112-11.627a1.2,1.2,0,0,1,.766.56c.7,1.212,1.361,2.358-33.1,23.243-20.369,12.344-47.495,28.246-76.215,45.083-52.575,30.821-117.427,68.839-124.606,76.283,9.837-2.989,72.764-41.22,123.793-72.223,73.794-44.833,108.933-65.829,112.375-64.981a1.075,1.075,0,0,1,.8,1.354c-.855,3.179-31.264,20.938-100.446,60.7-55.93,32.149-125.139,71.929-130.447,78.885,8.223-1.281,70.916-39.819,121.594-70.972,65.746-40.414,106.259-65.132,110.53-64.043a1.2,1.2,0,0,1,.772.563c.748,1.3,1.522,2.637-33.23,23.789-20.467,12.458-48.7,28.989-76.005,44.975-50.825,29.758-108.148,63.321-114.173,70.04,8.538-2.208,62.693-35.447,110.717-64.924,68.227-41.877,109.972-67.236,114.475-66.086a1.24,1.24,0,0,1,.794.578c.7,1.216,1.364,2.364-31.361,22.444-19.284,11.831-44.812,26.955-71.84,42.967-46.8,27.724-104.426,61.865-111.827,69.112,9.208-3.165,59.548-33.912,104.268-61.226,67.165-41.024,108.241-65.882,112.434-64.8a1.181,1.181,0,0,1,.758.554c.684,1.186,1.331,2.3-29.653,20.9-18.264,10.959-42.6,25.042-68.366,39.953-47.187,27.308-105.432,61.014-111.559,67.67,8.152-2.024,58.171-32.888,102.535-60.262,63.975-39.475,103.168-63.35,107.729-62.2a1.278,1.278,0,0,1,.824.6c.7,1.22,1.369,2.371-29.355,21.308-18.063,11.133-41.92,25.3-67.178,40.291-42.465,25.209-94.679,56.206-102.16,63.32,8.932-3.409,53.02-30.367,92.233-54.343,64.06-39.17,103.273-62.875,107.443-61.813a1.188,1.188,0,0,1,.767.56c.673,1.166,1.255,2.172-27.521,19.664-16.914,10.281-39.355,23.448-63.113,37.387-41.219,24.184-91.871,53.9-99.491,60.865,9.58-3.579,58.379-33.274,98.1-57.445,60.539-36.837,89.4-54.1,92.363-53.334a1.077,1.077,0,0,1,.68.5c.681,1.18,1.268,2.2-27.37,19.855-16.768,10.337-39.773,24.018-62.021,37.246-38.57,22.935-81.905,48.7-89.422,55.221,9.049-3.445,50.247-28.717,86.923-51.216,59.761-36.659,88.289-53.845,91.839-52.943a1.177,1.177,0,0,1,.742.544c.649,1.124,1.21,2.094-25.29,18.681-15.489,9.693-36.739,22.522-57.29,34.928-34.965,21.107-74.175,44.778-82.144,51.4,9.528-4.064,48.454-27.747,83.169-48.868,54.229-32.993,78.262-47.385,80.984-46.7a1.062,1.062,0,0,1,.665.493c.621,1.076,1.069,1.853-23.695,17.69-14.409,9.214-33.973,21.335-52.892,33.057-28.244,17.5-59.693,36.984-69.451,44.1,10.024-5.133,38.069-22.239,63.284-37.618,48.311-29.466,77.87-47.3,81.042-46.495a1.115,1.115,0,0,1,.7.518c.606,1.049,1.005,1.742-19.428,14.795-11.875,7.587-28.266,17.7-44.117,27.486-25.852,15.954-57.284,35.353-65.285,41.632,8.892-4.133,38.494-22.251,62.857-37.162,41.995-25.7,60.648-36.9,63.021-36.3a1.056,1.056,0,0,1,.663.49c.888,1.539-1.066,3.316-54.054,36.611-20.855,13.1-44,27.646-52.387,33.727,8.374-4.381,28.422-16.688,46.519-27.8,36.565-22.445,52.841-32.234,55.144-31.641a1.067,1.067,0,0,1,.67.5c.838,1.451-.613,2.934-41.051,29.678-12.864,8.508-26.972,17.838-34.21,23.056,6.368-3.637,17.046-10.179,26.833-16.174,28.064-17.19,37.068-22.465,38.672-22.058a1,1,0,0,1,.631.469.88.88,0,0,1-.322,1.2.87.87,0,0,1-.722.071c-2.678.585-21.869,12.34-37.34,21.817-26.648,16.323-32.292,19.544-33.55,19.242a1.065,1.065,0,0,1-.6-.452c-.819-1.419.479-2.74,39.642-28.64,14.346-9.489,31.567-20.878,37.953-25.773-8.438,4.187-31.614,18.413-50.826,30.207-37.575,23.067-49.59,30.172-51.566,29.677a1.037,1.037,0,0,1-.649-.482c-.915-1.586,1.266-3.579,56.227-38.115,20.05-12.6,42.3-26.578,50.354-32.387-9.535,4.837-35.113,20.493-58.13,34.579-43.29,26.495-63.969,38.9-66.555,38.246a1.08,1.08,0,0,1-.68-.5c-.608-1.051-1.087-1.883,20.968-16,12.776-8.179,30.1-18.87,46.852-29.209,25.293-15.609,53.55-33.048,61.041-38.821-10,4.41-47.027,26.992-77.4,45.517C993.8,5247.052,974.4,5258.695,971.366,5258.695Zm49.8-124.957c-14.6,8.468-30.818,17.807-48.394,27.908-47.636,27.374-101.275,58.2-108.5,64.92,9.874-3.1,67.647-38.38,118.936-69.7Q1003.713,5144.342,1021.162,5133.738Zm-42.65-13.783q-11.957,6.867-24.915,14.289c-51.012,29.223-108.461,62.133-116.082,69.054,9.971-3.025,68.78-39.079,120.986-71.084Q968.862,5125.862,978.512,5119.955Zm47.214-43.94c-18.7,10.964-41.589,24.159-68.025,39.363-57.856,33.274-123.17,70.837-128.878,77.75,8.594-1.735,70.3-39.641,124.963-73.223C981.855,5102.662,1006.021,5087.858,1025.726,5076.015Zm-33.5,12.114q-18.7,10.7-40.835,23.265c-57.077,32.438-121.538,69.072-126.7,75.722,8.416-1.28,72.939-40.92,130.068-76.016Q974.9,5098.719,992.221,5088.129Zm113.51,8.653c-11.585,4.953-63.059,36.227-108.93,64.1q-5.37,3.263-10.537,6.4,10.356-5.966,21.47-12.353C1051.456,5129.793,1096.53,5103.885,1105.731,5096.782Zm-18.332-44.85c-9.316,2.587-71.018,40.205-125.73,73.562-25.494,15.543-47.735,29.073-66.281,40.2,16.294-9.45,35.545-20.494,57.334-32.976C1009.921,5099.95,1080.561,5059.482,1087.4,5051.932Zm-112.329,8.739q-18.513,10.722-40.408,23.319c-54.549,31.408-116.007,66.795-123.453,74.247,9.325-3.246,61.622-35.2,112.292-66.161C942.223,5080.636,959.495,5070.1,975.07,5060.671Zm105.623-21.361c-8.871,1.932-70.45,39.763-125.021,73.289-20.877,12.826-39.6,24.308-55.95,34.231,16.6-9.659,35.734-20.689,57.1-32.978C1012.172,5082.021,1074.625,5046.1,1080.693,5039.31Zm3.4,6.372c-9.359,1.989-72.987,41.076-129.384,75.723q-20.6,12.656-38.229,23.432c15.448-8.955,32.641-18.849,51.3-29.569C1019.4,5085.618,1077.61,5052.183,1084.091,5045.682Zm-6.573-11.608c-8.854,2.761-63.278,36-115.991,68.206q-16.9,10.325-32.164,19.618,10.163-5.788,21.154-12.034C1007.148,5077.679,1071.018,5041.381,1077.518,5034.074Zm-4.411-6.456c-9.734,3.735-59.88,34.4-108.48,64.109-14.911,9.118-28.939,17.683-41.971,25.6,10.517-6.092,21.245-12.286,31.855-18.412C1006.47,5068.919,1064.948,5035.156,1073.107,5027.618Zm-199.555-64.444h0Zm0,0h0Zm0,0v0Zm0,0v0Zm0,0v0Zm0,0,0,0Zm0,0h0Zm0,0h0Zm0,0h0Z"/><path class="b" d="M1055.015,5239.587c-1.278.486-2.543,1-3.832,1.463,12.412-4.675,24.939-11.032,35.714-19.356-11.981,8.743-26.87,15.492-41.479,20.3-14.621,4.869-28.918,8.009-40.316,10.773-1.343-.489-9.277-.077-16.949.059-7.674.18-15.091.023-15.389.2q-9.069.335-18.377-.131c2.129.139,4.259.182,6.377.273,2.122.026,4.234.08,6.34.063-2.106.017-4.218-.037-6.34-.063-2.118-.091-4.248-.134-6.377-.273a189.257,189.257,0,0,1-59.5-12.607c-19.518-7.669-38.156-19.441-52.917-35.412a124.223,124.223,0,0,1-14.841-19.44,131.673,131.673,0,0,1-7.493-13.77,147.223,147.223,0,0,1-6.309-15.463,166.312,166.312,0,0,1-4.643-16.094c-1.206-5.35-2.214-10.589-2.855-15.561a164.831,164.831,0,0,1-1.5-24.892c.05-3.589.22-7.153.479-10.762-.441,5.983-.434,5.985-.6,11.991a161.694,161.694,0,0,1,4-41.832c-.382,1.112-.645,1.757-1.015,2.791-.34,1.043-.76,2.481-1.479,5.185l.774-3.319c.251-1.108.515-2.212.826-3.3.258-1.532.576-3.58,1.176-5.824.289-1.126.594-2.315.907-3.538.349-1.213.739-2.45,1.119-3.7q.288-.933.576-1.865c.214-.613.427-1.223.639-1.826.424-1.207.839-2.389,1.236-3.517l2.263-5.817c-.164.72.324-.121,1.1-1.668l1.337-2.747c.522-1,1.08-2.075,1.62-3.111l-1.019,1.559a159.514,159.514,0,0,1,14.7-23.624,164.149,164.149,0,0,1,17.6-19.79,33.483,33.483,0,0,1,3.733-3.169c1.834-1.768,3.778-3.413,5.689-5.1.953-.846,1.962-1.625,2.941-2.442.991-.8,1.955-1.636,2.979-2.4-.345.517,2.244-1.311,4.224-2.667,2.015-1.31,3.387-2.2.471-.023a134.673,134.673,0,0,1,14.251-9.513c4.909-2.876,9.919-5.417,14.78-7.894a149.2,149.2,0,0,1,28.008-9.388c2.422-.6,4.886-.988,7.344-1.455l3.714-.534c.62-.084,1.239-.184,1.861-.255l1.87-.181a103.035,103.035,0,0,1,15.047-.5,90.288,90.288,0,0,1,14.986,1.756c2.484.444,4.919,1.119,7.37,1.737,2.413.751,4.847,1.445,7.211,2.356a106.214,106.214,0,0,1,13.878,6.167,125.824,125.824,0,0,1,13,7.856l-.724-.694a169.97,169.97,0,0,1,16.629,12.62,146.144,146.144,0,0,1,16.327,16.563c4.278,4.5,9.139,10.258,13.247,15.429,4.135,5.152,7.508,9.719,9.253,11.541,4.02,5.975,6.774,10.2,9.477,14.411,2.669,4.235,5.326,8.446,8.774,14.621-.686-1.7,1.075,1.25,2.575,3.878,1.523,2.622,2.787,4.873,1.342,1.725-.966-2.147-1.735-3.772-2.4-5.115-.675-1.335-1.243-2.388-1.791-3.4-1.086-2.032-2.146-3.873-3.912-7.467l0,.276a302.754,302.754,0,0,0-31.292-46.6,207.441,207.441,0,0,0-19.544-20.643c-3.548-3.187-7.17-6.318-11.012-9.2-1.883-1.49-3.872-2.851-5.832-4.253-.984-.694-2.011-1.333-3.016-2s-2.014-1.334-3.063-1.941a115.8,115.8,0,0,0-37.279-14.451,110.259,110.259,0,0,0-40.712.322,152.729,152.729,0,0,0-41.179,14.4,177.291,177.291,0,0,0-33.548,22.479c-2.181,1.943-4.163,3.489-5.986,5.061l-2.755,2.275-2.726,2.409c-2.036,1.951-4,4.112-6.068,6.276-1.993,2.236-4.063,4.506-6.037,6.94a161.964,161.964,0,0,0-11.5,15.58,152.42,152.42,0,0,0-9.73,17.4,145.2,145.2,0,0,0-7.157,18.218c.155-.453.3-.892.4-1.181-2.161,6.413-3.722,12.122-5.068,17.84a136.978,136.978,0,0,0-3.052,18.049,22.45,22.45,0,0,1-.126,2.976,101.159,101.159,0,0,0-.741,13.151,179.161,179.161,0,0,0,1.957,26.974,182.194,182.194,0,0,0,6.161,26.733c.536,1.856,1.165,3.542,1.673,5.087s1.019,2.908,1.458,4.079c.866,2.347,1.447,3.921,1.648,4.467l1.65,3.892a146.642,146.642,0,0,0,20.972,36,129.5,129.5,0,0,0,28.669,26.29,141.071,141.071,0,0,0,13.613,7.307,36.069,36.069,0,0,0,4.2,2.182c1.266.524,2.631,1.083,4.909,2.21a86.853,86.853,0,0,0,12.88,6.1c1.253.468,1.957.649,1.961.559a10.56,10.56,0,0,0-2.216-1.127c5,1.782,10.04,3.442,15.007,4.828,2.47.741,4.942,1.327,7.343,1.964,2.421.546,4.774,1.149,7.083,1.584l3.21.6,3.22.522c2.145.364,4.307.638,6.482.929a52.867,52.867,0,0,1,7.573,1.348c4.751.46,6.425.6,8.154.816s3.514.448,8.509.77a104.4,104.4,0,0,0,13.8.131c6.323-.238,12.668-.776,14.078-.84l-1.626.164c11.521-.654,19.271-.78,30.461-2.729a196.944,196.944,0,0,0,23.451-5.518,170.308,170.308,0,0,0,22.938-8.654,135.048,135.048,0,0,0,21.031-12.027,114.317,114.317,0,0,0,9.3-7.257c1.422-1.327,2.9-2.561,4.231-3.942l2.024-2.014,1.913-2.088c-.059-.254-1.132,1.007-2.323,2.265-1.217,1.23-2.507,2.5-2.817,2.43a101.789,101.789,0,0,0,8.947-9.771,81.2,81.2,0,0,0,7.4-11.165,75.089,75.089,0,0,0,5.35-12.346,80.488,80.488,0,0,0,3.215-13.02c.157-.79.322-1.625.487-2.455.136-.833.271-1.662.4-2.437s.252-1.5.356-2.116l.218-1.5c.138-1.418.218-2.339.243-2.985s-.005-1.019-.025-1.344a22.616,22.616,0,0,1-.011-3.186l.367-.556c-.084-1.519-.1-2.832-.09-4.038-.028-1.2-.017-2.3,0-3.388s.011-2.164-.039-3.322a37.523,37.523,0,0,0-.3-3.813,29.43,29.43,0,0,1-.644-4.35c.386-.155-.884-6.144-.528-5.9l-.039-.053c-.2-1.2-.357-2.047-.548-3.521-.141-.559-.575-2.287-1.156-4.6-.636-2.295-1.406-5.174-2.3-8.009-1.73-5.689-3.764-11.247-4.184-12.324l-.266-1.043c-.981-3.034-1.673-4.239-1.174-2.447-.379-1.253-.818-2.484-1.227-3.726l.172.42c-.421-1.23-.81-2.473-1.256-3.693-.213-.687-.318-1.514.222-.53-.878-2.035-1.794-4.343-2.534-6.424,1.987,5.818,4.176,13.147,5.643,19.409-.88-2.488-2.15-7.082-3.136-9.767-.41-1.663-1.211-4.143-2.081-6.876-.918-2.712-1.935-5.665-2.892-8.222a27.263,27.263,0,0,1-2.061-4.283c-.239-1.34-1.2-2.829-1.918-4.978,1.213,2.3,2.108,4.688,3.126,7.118.153-.552-2.258-6.01-3.035-7.942-.482-.855-2.473-5.534-3.93-8.378.91,1.109-.911-2.419-1.563-4.21-.913-1.951-1.651-3.123-1.37-2.286-.614-.472,3.531,7.805,1.875,5.275a23.3,23.3,0,0,0-1.215-2.834c-.643-1.283-1.369-2.73-1.877-3.742-.194.066.548,1.455-.277.226-1.07-2.284-2.532-4.533-2.994-5.921.264.4.706,1.335,1.038,1.993-.742-1.462,1.6,2.328,3.785,6.083s4.246,7.447,3.281,5.546c.141.545-2.1-3.583-4.389-7.513-2.269-3.943-4.54-7.718-4.037-6.75.821,1.824-.978-1.1-.1.77l1.265,1.931c1.227,2.547,1.416,3.748.849,2.92-1.05-2.119.774.72,2.581,3.679s3.567,6.046,2.6,4.255l.623,1.53a72.463,72.463,0,0,1-3.545-7.266c-.192.079-1.263-1.972-2.2-3.645l-.279-.621c-.994-1.718-2.213-4.205-1.863-2.936,5.313,10.309-5.287-5.841-.282,4.2-1.752-4.382,1.155,1.185,3.36,5.6a44.09,44.09,0,0,0,2.248,5.816c1.318,2.772.9,1.574,1.252,2.057.628,1.586,1.892,4.584,1.494,4.294,1.213,2.079,1.4,3.558,2.593,6.166,1.1,2.277.045-.205.867,1.4,1.458,3.5,3.355,8.475,4.368,11.319.209,1.172,1.043,4.646-.154,2.332-1.947-5.4,1.311,1.848-.876-3.715.457,2.579-2.015-4.889-2.81-5.741.519,1.843,1.91,5.431,3.1,8.425l-.159-.629c.516,1.321,1.286,3.308,2.015,5.34.692,2.046,1.383,4.123,1.72,5.628-.392-.632-.093.679-.792-1.284.409,1.235.777,2.483,1.168,3.723.2.455.413.924.109-.161a29.315,29.315,0,0,1,1.449,4.887c-.028.23,1.648,5.143,3.023,10.018.734,2.426,1.319,4.856,1.8,6.622.421,1.779.681,2.906.622,2.756.565,2.763.346,3.491,1,6.163.049.066-.244-1.555-.7-3.964-.506-2.4-1.207-5.58-2-8.627-1.572-6.1-3.4-11.673-2.854-9.9.224,1.182,2.592,8.79,4.268,16.5.872,3.849,1.544,7.72,2,10.737a46.613,46.613,0,0,1,.579,5.631c.171,2.077.4,4.585.552,4.086.059,3.529-.4-1.034-.474,1.481.032.055.085-.209.112.589l-.138,2.412c.091,1.361.123,2.884.147,4.491-.04,1.606-.08,3.3-.176,4.99-.226,3.388-.552,6.794-.822,9.643.032-.833.038-1.725.013-2.871s.063-2.528.071-4.361l.144-.63c-.01-.262.022-1.144.033-1.951a3.641,3.641,0,0,0-.143-1.5c-.273,3.454-.506,6.4-.793,10.042-.157.656-.341,1.419-.464,1.933.027-.01.056-.062.082-.043-.3,1.156-.3,1.027-.306.586a1.749,1.749,0,0,1,0-.254,25.267,25.267,0,0,0-.746,3.037c-.137.719-.292,1.525-.458,2.39l-.62,2.724a51.4,51.4,0,0,1-3.634,10.822c-.68,1.722.047.211-.837,2.342a70.482,70.482,0,0,1-4.482,7.406c-.793,1.12-1.552,2.27-2.473,3.4l-1.376,1.777c-.482.6-1.02,1.2-1.557,1.841-1.172,1.8-1.214,2.006.626.153-.554.643-1.081,1.307-1.656,1.931l-1.74,1.859c.661-.964.562-1.029.093-.656s-1.29,1.2-2.176,1.947c-1.732,1.531-3.423,2.984-1.854.981-.555.482-1.419,1.2-2.379,2.057l-1.5,1.37-1.6,1.4a2.2,2.2,0,0,1-.531.793,17.423,17.423,0,0,1-2.558,2.206c-2.018,1.447-2.845,1.917-3.541,2.385-.713.444-1.3.886-3.088,1.9-.928.355.289-.533.052-.577a25.871,25.871,0,0,1-5.038,3.012c-1.206.58-2.414,1.059-5.014,2.509-3.246,1.844-9.926,5.007-9.981,5.348a24.481,24.481,0,0,1-4.089,1.533C1054.774,5239.994,1054.838,5239.817,1055.015,5239.587Z"/><g class="c"><path class="b" d="M1124.749,5017.919c22.508,43.269,34.409,88.285,17.916,118.878-16.557,30.528-61.509,46.633-107.43,47.15-45.986.518-92.813-14.423-119.073-50.578-26.194-36.22-31.821-93.524-8.408-137.376,23.478-43.787,75.932-74.121,118.685-68.494S1102.241,4974.584,1124.749,5017.919Z"/></g><g class="c"><path class="b" d="M1002.81,5102.26c22.508,43.269,34.409,88.285,17.916,118.878-16.557,30.528-61.509,46.633-107.43,47.15-45.986.518-92.813-14.423-119.072-50.578-26.2-36.22-31.822-93.524-8.409-137.376,23.479-43.787,75.932-74.121,118.685-68.494S980.3,5058.925,1002.81,5102.26Z"/></g><path class="d" d="M1114.7,5026.96c18.2,30.376,44.071,64.161,32.507,83.544-11.5,19.435-60.369,24.633-90.456,48.705-30.139,24.132-41.5,67.139-68.478,91.107-26.927,23.908-69.585,28.787-86.735,2.627-17.038-26.169-8.508-83.327-31.6-119.056s-77.861-49.969-94.482-75.269c-16.673-25.238,4.74-61.587,35.961-78.558s72.19-14.616,102.1-9.758,48.751,12.217,73.777,7.978c25.077-4.3,56.4-20.145,77.415-14.507S1096.437,4996.532,1114.7,5026.96Z"/></g><g class="e" transform="translate(0 -1047)"><g class="f"><path class="g" d="M715.249,4967.51c-1.215,1.216-.743,5.528-.768,7.123a74.163,74.163,0,0,0,.323,7.421c.139,1.657.927,17.473,3.106,16.258,1.23-.685.459-5.26.457-6.706-.005-3.217-.139-6.427-.353-9.637a84.355,84.355,0,0,1-.21-8.91c.028-.729.71-8.817-2.555-5.549"/><path class="g" d="M768.167,4965.563c-10.439.084-20.874.6-31.311.913-5.022.155-10.039.345-15.054.624-1.709.095-5.375-.452-6.8.458-3.159,2.022,1.939,2.5,3.3,2.446,20.65-.747,41.307-1.735,61.97-1.783,10.138-.022,20.272.266,30.41.2,3.876-.025,8.168-1.694,9.147,2.817,1.1,5.091-.165,10.758-.51,15.873a89.885,89.885,0,0,0,.005,10.171,53.5,53.5,0,0,0,.232,6.794c.372,2.065,1.854,3.3,3.218.99.814-1.383.409-4.8.464-6.4.073-2.157.005-4.314.005-6.471,0-5.266.743-10.512.644-15.777-.063-3.4-.243-9.549-4.526-10.365-4.712-.9-10.511,0-15.336-.05-11.959-.136-23.9-.535-35.857-.444"/><path class="g" d="M739.4,4998.5q-5.906,0-11.81.09c-3.376.054-8.683-.649-11.825.559-2.151.826-2.722,3.226,0,3.867,2.969.695,7.444-.443,10.551-.5,15.577-.275,31.3-.634,46.859.351,14.576.923,29.433,1.818,44.029.844,1.228-.082,7.493-.332,4.635-2.679-1.667-1.371-8.426-.469-10.593-.535-7.643-.232-15.3-.282-22.936-.572-7.543-.285-15.049-1.134-22.595-1.343-8.764-.244-17.548-.085-26.315-.085"/><path class="g" d="M736.181,4993.978h0c-5.335,0-11.159-2.562-12.142-8.285a5.293,5.293,0,0,1-.037-1.015,4.553,4.553,0,0,0-.057-1.093,2.093,2.093,0,0,0-.341-.637,1.682,1.682,0,0,1-.375-.814c-.01-1.558.893-2.408,1.938-3.392a15.347,15.347,0,0,0,1.152-1.165c2.086-2.414,3.4-3.6,6.157-4.675a7.264,7.264,0,0,1,2.656-.477,13.162,13.162,0,0,1,7.749,3,12.185,12.185,0,0,1,4.607,6.528,9.29,9.29,0,0,1-1.282,7.062,10.658,10.658,0,0,1-6.693,4.613A15.785,15.785,0,0,1,736.181,4993.978Zm-8.337-12.314h0a6.074,6.074,0,0,0,.587,5.81,9.632,9.632,0,0,0,7.825,3.625,9.086,9.086,0,0,0,5.205-1.524,5.827,5.827,0,0,0,2.354-3.045,6,6,0,0,0-.027-3.514,10.094,10.094,0,0,0-3.168-4.708,8.752,8.752,0,0,0-5.158-2.2,1.333,1.333,0,0,1-.735.362.639.639,0,0,1-.3-.093h-.007a.692.692,0,0,0-.33-.1.755.755,0,0,0-.225.038,9.038,9.038,0,0,0-2.626,1.559l-.19.144-.22.165a14.927,14.927,0,0,0-2.266,1.936s-.083.179-.183.4c-.2.428-.52,1.145-.541,1.152v-.009Z"/><path class="g" d="M729.918,4982.554c0,2.487,3.928,2.487,3.928,0,0-2.459-3.928-2.565-3.928,0"/><path class="g" d="M734.833,4982.051a1.562,1.562,0,0,0,3.121,0c0-1.954-3.121-2.038-3.121,0"/><path class="g" d="M735.8,4986.126c-1,.384-2.268-.412-3.09.112-1.453.927,0,1.772.782,2.146,3.509,1.686,4.133-2.958,2.308-2.258"/><path class="g" d="M754.718,4985.479a1.732,1.732,0,0,1-.464-.064c-.832-.227-1.2-.691-1.113-1.381.155-1.149,1.571-2.613,2.845-3.6a8.431,8.431,0,0,1,4.326-2.022,1.879,1.879,0,0,1,.262.018,7.242,7.242,0,0,1,2.857,1.326,7.014,7.014,0,0,0,2.967,1.342,4.589,4.589,0,0,0,.525.03,8.931,8.931,0,0,0,4.149-1.44,12.213,12.213,0,0,1,3.02-1.307,6.918,6.918,0,0,1,1.51-.17,11.6,11.6,0,0,1,5.211,1.645l.033.016a11.5,11.5,0,0,0,5.1,1.628,6.7,6.7,0,0,0,2.322-.425c.257-.093.537-.212.856-.361l.02-.008c.309-.148.618-.309.923-.458a9.158,9.158,0,0,1,3.42-1.208c.1-.007.2-.01.293-.01a8.447,8.447,0,0,1,4.433,1.786c.541.346,1.1.7,1.652.994a3.662,3.662,0,0,0,.823.264c.652.154,1.267.3,1.352,1.082a1.012,1.012,0,0,1-.182.821,1.121,1.121,0,0,1-.883.282,7.073,7.073,0,0,1-.767-.058c-.1-.012-.2-.023-.292-.031a6.8,6.8,0,0,1-3.012-1.36,6.773,6.773,0,0,0-2.9-1.329c-.108-.011-.216-.017-.325-.017a9.882,9.882,0,0,0-3.882,1.294,12.557,12.557,0,0,1-2.936,1.151,7.773,7.773,0,0,1-1.411.133,10.532,10.532,0,0,1-4.88-1.439l-.51-.266a9.29,9.29,0,0,0-4.316-1.467,6.375,6.375,0,0,0-2.417.52c-.679.275-1.326.589-1.952.893a11,11,0,0,1-4.887,1.5,6.865,6.865,0,0,1-1.145-.1,8.732,8.732,0,0,1-2.38-1.01,6.992,6.992,0,0,0-2.882-1.076,1.861,1.861,0,0,0-.209.011c-.91.1-1.685,1.014-2.433,1.9C756.617,4984.478,755.768,4985.479,754.718,4985.479Z"/><path class="g" d="M778.738,5014.2c-10.729.1-21.492.257-32.193,1.117-2.537.2-28.437,2.65-28.388,2.826.09.326,3.422.824,3.4.9q-.335-.835-1.537-.692c24.566,0,49.05-2.2,73.647-1.8,6.18.1,12.383.058,18.56.252,1.545.049,5.362,1.154,6.572.458,3.178-1.827-2.6-2.038-3.553-2.116-12.1-.968-24.368-1.062-36.507-.943"/><path class="g" d="M714.977,5019.415c-1.6,1.609-.126,7.394-.064,9.569.092,3.143.015,6.309.292,9.444a63.861,63.861,0,0,0,1.744,10.873c.517,1.914,2.334,4.956,3.054,1.478.513-2.484-.267-5.78-.541-8.311a98.167,98.167,0,0,1-.464-10.129c-.012-2.965-.069-5.942-.309-8.9-.13-1.535-.9-6.823-3.712-4.027"/><path class="g" d="M755.332,5048.878c-7.614.132-15.242.311-22.846.786-3.115.195-6.228.486-9.332.815-.633.067-7.644.351-4.511,2.936,1.414,1.168,7.23-.447,9.151-.619,3.231-.283,6.461-.463,9.7-.6,7.508-.319,15.039-.6,22.554-.469,13.725.238,27.361.344,41.09.038,1.951-.043,17.232.365,17.751-1.664.418-1.636-5.047-.886-6.043-.856-3.655.109-7.311.084-10.969.065-15.49-.077-31.07-.7-46.548-.433"/><path class="g" d="M816.3,5016.7c.242,6.779,1.4,13.55,1.766,20.35.168,3.108.366,6.213.519,9.323.049,1-.356,3.42.831,4,1.627.791,1.846-.8,2.151-1.882.879-3.116.285-7.162.2-10.363-.077-3.1-.082-6.2-.309-9.3-.232-3.161-.87-6.258-1.165-9.41-.126-1.331.309-3.548-1.1-4.374a1.938,1.938,0,0,0-2.894,1.655"/><path class="g" d="M737.992,5045.213h-.119a22.169,22.169,0,0,1-9.116-1.863,9.221,9.221,0,0,1-3.442-2.768,7.489,7.489,0,0,1-1.4-4.435,14.321,14.321,0,0,1,3.258-8.729,13.219,13.219,0,0,1,3.587-3.152,9.594,9.594,0,0,1,4.4-1.371c.177-.009.359-.013.54-.013a12.289,12.289,0,0,1,4.381.849,15.753,15.753,0,0,1,7.2,5.665,12.142,12.142,0,0,1,1.845,4.053,8.567,8.567,0,0,1-1.509,7.55,10.7,10.7,0,0,1-4.2,3.118,13.883,13.883,0,0,1-5.426,1.1h0Zm-3-19.241a8.308,8.308,0,0,0-6.035,3.034,10.732,10.732,0,0,0-2.5,6.42,5.611,5.611,0,0,0,1.52,4.28,9.1,9.1,0,0,0,4.453,2.305,22.323,22.323,0,0,0,5.247.573h.357a9.314,9.314,0,0,0,7.276-3.188,5.919,5.919,0,0,0,.877-5.293,9.2,9.2,0,0,0-1.776-3.308,15.862,15.862,0,0,0-2.731-2.634,9.347,9.347,0,0,0-4.562-1.737A20.024,20.024,0,0,1,735,5025.972Z"/><path class="g" d="M728.872,5032.52a1.581,1.581,0,0,0,3.158,0c0-1.977-3.158-2.061-3.158,0"/><path class="g" d="M735.5,5031.643a1.594,1.594,0,0,0,3.184,0c0-1.99-3.184-2.078-3.184,0"/><path class="g" d="M731.844,5036.2c-2.055,2.052,5.165,5.65,6.869,2.795,1.4-2.345-1.647-1.567-2.727-1.694-1.173-.138-3.184-2.057-4.142-1.1"/><path class="g" d="M755.02,5035.454h0a1.511,1.511,0,0,1-1.137-.405,2.057,2.057,0,0,1-.426-1.545c.091-2.445,6.865-4.76,9.005-5.161a6.022,6.022,0,0,1,1.112-.1,10.173,10.173,0,0,1,4.546,1.438l.02.01a10.235,10.235,0,0,0,4.613,1.45,6.36,6.36,0,0,0,1.382-.155,18.015,18.015,0,0,0,2.508-.827,13.057,13.057,0,0,1,3.463-.98c.193-.017.386-.026.565-.026a5.992,5.992,0,0,1,3.452,1.22,12.83,12.83,0,0,0,1.947,1.05,3.558,3.558,0,0,0,1.4.279,7.907,7.907,0,0,0,1.019-.085h.023a8.751,8.751,0,0,1,1.09-.087,3.081,3.081,0,0,1,.309.01c1.033.066,1.686.413,1.793.953.116.589-.453,1.27-1.487,1.777a4.921,4.921,0,0,1-2.184.559,6.652,6.652,0,0,1-3.408-1.259,8.285,8.285,0,0,0-3.363-1.366,5.15,5.15,0,0,0-.541-.029,11.83,11.83,0,0,0-4.389,1.212l-.07.03a12.284,12.284,0,0,1-4.6,1.238c-.085,0-.171,0-.255-.006a10.97,10.97,0,0,1-4.171-1.219,8.916,8.916,0,0,0-3.684-1.063,5.584,5.584,0,0,0-2.132.442c-.256.1-.67.329-1.193.618C758.757,5034.232,756.521,5035.454,755.02,5035.454Z"/><path class="g" d="M805.26,5036.922h0a4.647,4.647,0,0,1-3.183-1.468,6.74,6.74,0,0,1-1.841-3.278,4.351,4.351,0,0,1,.193-2.656,3.95,3.95,0,0,1,2.094-2.019,2.379,2.379,0,0,1,.989-.192,7.865,7.865,0,0,1,4.453,1.931,4.2,4.2,0,0,1,1.307,3.208,4.782,4.782,0,0,1-1.622,3.546A3.65,3.65,0,0,1,805.26,5036.922Zm-1.505-6.6a1.992,1.992,0,0,0-.186,2.117c.318.8.89,1.323,1.456,1.323a.987.987,0,0,0,.211-.023c.588-.131.914-.364.967-.7C806.374,5031.98,803.781,5030.336,803.755,5030.322Z"/><path class="g" d="M746.589,5065.814c-7.435,0-14.935-.154-22.36.284-1.25.077-6.01-.161-6.654,1.145-1.178,2.39,3.72,1.2,4.431,1.132,14.785-1.48,30.227-.629,45.06-.207,12.128.345,24.2.559,36.314,1.184q4.777.248,9.55.541c1.038.063,3.648.75,3.866-.907.2-1.533-3.054-1.187-3.867-1.23q-9.7-.513-19.4-1.063c-15.57-.879-31.346-.882-46.939-.879"/><path class="g" d="M717.337,5068.471c-1.389,1.38-.738,6.652-.777,8.394-.066,3.048-.211,6.093-.276,9.139-.068,3.184.026,6.383.214,9.562.078,1.335,1.175,7.787,2.9,4.094.773-1.65-.018-6.245-.007-8.115.021-3.4.205-6.791.374-10.189.146-2.92.155-5.844.279-8.766.04-.932.155-6.987-2.7-4.12"/><path class="g" d="M818.05,5095.69c-7.236.742-14.588.391-21.852.939-6.257.472-12.515.665-18.79.8-14.214.3-28.447.593-42.617,1.777-3.229.269-6.455.556-9.693.7-1.619.072-8.414-.667-8.92,1.042-.862,2.907,6.405,1.757,7.972,1.712,3.447-.1,6.876-.349,10.315-.611,14.446-1.1,28.952-1.43,43.431-1.887,7.875-.249,15.7-.825,23.553-1.349,3.917-.261,7.843-.269,11.759-.523,1.025-.066,4.651.064,5.388-.76.507-.566.635-1.948-.546-1.838"/><path class="g" d="M815.594,5068.966c.251,6.939.642,13.871.876,20.811.071,2.086-.56,5.826.6,7.666,1.868,2.959,3.327-.172,3.669-2.016,1.081-5.819-.078-12.248-.387-18.1-.115-2.234.579-7.205-.5-9.205-1.025-1.9-4.351-1.712-4.261.847"/><path class="g" d="M803.488,5088.565a5.821,5.821,0,0,1-1.888-.346,5.172,5.172,0,0,1-2.089-1.412,5.774,5.774,0,0,1-1.269-2.182,4.349,4.349,0,0,1,.436-3.391,6.324,6.324,0,0,0,.629-2.017,3.455,3.455,0,0,0-.062-.725,2.317,2.317,0,0,1,.108-1.612c.252-.328.853-.488,1.848-.488.366,0,.721.02,1.036.038.161.009.309.018.436.022a4.407,4.407,0,0,1,.888-.093,3.787,3.787,0,0,1,3.258,1.907,7.981,7.981,0,0,1,1.129,4.2,7.07,7.07,0,0,1-1.692,4.963A3.769,3.769,0,0,1,803.488,5088.565Zm-.039-9.717h0c-1.669.807-3.085,3.857-2.657,5.726a1.911,1.911,0,0,0,2.086,1.545,4.437,4.437,0,0,0,.618-.046,2.253,2.253,0,0,0,1.581-1.015,3.96,3.96,0,0,0,.6-1.962,5.482,5.482,0,0,0-.5-2.643A2.849,2.849,0,0,0,803.449,5078.848Z"/><path class="g" d="M733.786,5091.846h0a10.784,10.784,0,0,1-9.026-4.965,9.105,9.105,0,0,1-.216-9.148,1.05,1.05,0,0,1-.637.275c-.563,0-.837-.751-.95-1.2-.178-.7.932-1.932,1.668-2.748.169-.187.314-.349.414-.472,1.588-1.946,3.455-3.759,6.347-3.848.1-.005.2-.005.3-.005a10.531,10.531,0,0,1,6.65,2.536,14.362,14.362,0,0,1,4.292,5.989,11.4,11.4,0,0,1,.674,5.871,8.642,8.642,0,0,1-2.9,5.183A9.914,9.914,0,0,1,733.786,5091.846Zm-2.59-17.035a2.432,2.432,0,0,0-.707.077,5.714,5.714,0,0,0-2.723,2.147,9.769,9.769,0,0,0-1.545,3.161,7.346,7.346,0,0,0,.559,5.7,7.216,7.216,0,0,0,4.593,3.244,9.385,9.385,0,0,0,2.362.309,7.5,7.5,0,0,0,4.19-1.192,6.321,6.321,0,0,0,2.582-3.616,8.052,8.052,0,0,0-1.049-6.909,13.473,13.473,0,0,0-5.563-4.514c.017.139.033.279.049.418s.032.278.049.418c-.193.7-.92.793-1.607.793-.2,0-.418-.009-.606-.017h-.02C731.563,5074.819,731.376,5074.811,731.2,5074.811Zm.155-2.446a5.206,5.206,0,0,0-3.186,1.2,6.487,6.487,0,0,1,3.188-1.206Z"/><path class="g" d="M728.821,5079.034a1.034,1.034,0,1,0,1.006-1.006,1.034,1.034,0,0,0-1.006,1.006"/><path class="g" d="M732.35,5079.261a1.051,1.051,0,1,0,1.01-1.01,1.051,1.051,0,0,0-1.01,1.01"/><path class="g" d="M733.951,5084.017c-.983.08-4.582-.254-5.213.606-1.056,1.44.629,1.49,1.456,1.645.746.14,3.986.061,4.442-.6.4-.585.309-1.735-.685-1.65"/><path class="g" d="M745.549,5086.469h0c-.518,0-.919-.357-1.222-1.093-.636-1.537,1.726-3.543,2.5-4.2a5.005,5.005,0,0,1,3.361-1.4,6.651,6.651,0,0,1,2.016.355,16.206,16.206,0,0,1,1.517.584,6.2,6.2,0,0,0,2.553.681,5.2,5.2,0,0,0,1.224-.155,17.634,17.634,0,0,0,2.517-.883,12.344,12.344,0,0,1,3.693-1.066c.154-.011.309-.017.463-.017a12.093,12.093,0,0,1,4.125.983,18.211,18.211,0,0,0,2.739.844,9.381,9.381,0,0,0,1.828.184,11.972,11.972,0,0,0,4.28-.928,11.207,11.207,0,0,1,4.035-.927,9.116,9.116,0,0,1,2.785.476c.127.04.373.109.686.2,1.593.449,4.915,1.384,5.077,1.954a.979.979,0,0,1-1.092,1.424,10.182,10.182,0,0,1-2.839-.651h-.005l-.148-.051c-.386-.129-.751-.262-1.107-.39a11.138,11.138,0,0,0-3.846-.907,6.492,6.492,0,0,0-1.789.258c-.676.193-1.308.4-1.918.6a15.258,15.258,0,0,1-4.931,1.033,10.289,10.289,0,0,1-1.37-.094,15.72,15.72,0,0,1-2.645-.68,11.659,11.659,0,0,0-3.5-.74h-.042a11.022,11.022,0,0,0-4.21,1.178,16.148,16.148,0,0,1-2.883,1.026,4.741,4.741,0,0,1-.986.1,8.71,8.71,0,0,1-2.792-.6l-.073-.025a8.1,8.1,0,0,0-2.568-.578,3.712,3.712,0,0,0-.624.053,5.408,5.408,0,0,0-1.924,1.483C747.493,5085.422,746.425,5086.469,745.549,5086.469Z"/></g><g class="f"><path class="g" d="M904.242,4997.618h0a14.163,14.163,0,0,1-1.6-.086c-1.109-.13-1.739-.369-1.981-.753-.263-.418-.07-.981.175-1.694a10.264,10.264,0,0,0,.373-1.275,20.977,20.977,0,0,0-.244-6.5c-.169-1.217-.323-2.368-.362-3.4-.574-14.17-.326-28.372-.049-40.571.066-2.935.15-5.924.232-8.811q.027-.961.053-1.925.011-.357.023-.727a27.268,27.268,0,0,0-.046-3.824,2.909,2.909,0,0,0-.255-.871c-.2-.47-.346-.808.253-1.59.783-1.021,2.808-1.151,4.486-1.151.533,0,1.069.014,1.618.03h.112c.483.015.938.028,1.346.028.355,0,.639-.011.868-.032,3.266-.315,6.3-.541,9.265-.7,9.335-.488,18.811-1.12,27.976-1.734,19.921-1.328,40.524-2.7,60.88-2.7h1.808a48.711,48.711,0,0,1,10.771.85,17.345,17.345,0,0,0,2.24.411,2.718,2.718,0,0,0,.3.014c.139,0,.274-.008.406-.015h.007c.127-.007.259-.015.386-.015a2.027,2.027,0,0,1,.81.147,3.058,3.058,0,0,1,1.794,2.282,12.784,12.784,0,0,1-.327,5.079,25.061,25.061,0,0,0-.386,2.493c-.25,3.112-.368,6.5-.358,10.346v1.207a140.273,140.273,0,0,0,.773,17.5c.185,1.443.392,2.9.593,4.312.54,3.817,1.1,7.761,1.285,11.716.063,1.335.112,2.694.159,4.007v.011c.067,1.869.137,3.8.249,5.706.019.328.018.665.017,1.023a8.388,8.388,0,0,0,.161,2.079,1.56,1.56,0,0,0,.563.8.922.922,0,0,1,.337.426c.232.947.314,1.578.02,2-.27.39-.829.6-1.9.906a50.17,50.17,0,0,1-13.349,1.341c-.907,0-1.8-.007-2.659-.013h-.256c-.793,0-1.545-.011-2.3-.011h-.122c-15.316.009-29.118.046-42.957.424-4.2.115-8.487.181-12.63.245-9.851.155-20.037.309-29.995,1.132-2.34.193-4.712.425-7.014.648-.9.088-1.829.179-2.742.265-.994.1-2.039.248-3.144.411A40.046,40.046,0,0,1,904.242,4997.618Zm41.531-52.757c3.147,0,6.514,1.111,10.3,3.4a75.254,75.254,0,0,1,8.915,6.668l.436.362c1.01.838,2.024,1.695,3.005,2.524,2.223,1.879,4.521,3.821,6.876,5.627l.463.354.077.061c1.991,1.53,4.051,3.111,6.187,4.49a5.292,5.292,0,0,0,2.781,1.09c1.052,0,2.032-.618,3.544-1.622.524-.349,1.048-.7,1.556-1.045a57.854,57.854,0,0,1,6.43-3.949,19.757,19.757,0,0,1,7.262-2.138c.495-.041,1-.062,1.523-.062,3.25,0,8.619.843,15.74,4.858a128.886,128.886,0,0,1-1.846-33.361c.128-1.912.339-3.834.548-5.626.021-.173.078-.444.15-.758a4.871,4.871,0,0,0,.209-2.144c-.393-.773-1.819-.875-3.018-.875-.32,0-.633.007-.978.016h-.052c-.3.008-.581.015-.835.015-.112,0-.211,0-.3,0-1.468-.045-2.987-.068-4.635-.068-3.738,0-7.539.118-11.215.232-1.671.052-3.4.106-5.091.148-15.122.372-30.952,1.211-47.052,2.495-5.985.477-12.077.82-17.968,1.152-6.876.387-13.983.789-20.963,1.4-2.6.232-2.6.448-2.614,2.549,0,.247,0,.525-.011.831-.016.707-.034,1.425-.052,2.119v.006l-.011.422c-.092,3.64-.194,7.523-.326,11.443-.17,4.878-.432,9.83-.686,14.619-.147,2.77-.3,5.633-.428,8.45,3.923-2.4,7.718-5.139,11.389-7.788,3.536-2.549,7.194-5.191,10.969-7.529,5.439-3.37,10.8-6.517,16.652-7.989A12.608,12.608,0,0,1,945.773,4944.861Z"/><path class="g" d="M990.915,4934.047c0,2.154-.339,5.33.655,7.361,1.26,2.572,2.835,1.768,3.253-.649a22.017,22.017,0,0,0-.212-6.712c-.63-1.74-3.7-2.923-3.7,0"/><path class="g" d="M994.529,4934.875c-2.022.071-7.911-.414-9.279,1.212-2.347,2.79,1.738,3.283,3.492,3.127,2.03-.181,8.3.26,9.663-1.368,2.274-2.724-2.286-3.029-3.876-2.971"/><path class="g" d="M916.17,5023.026h0a12.859,12.859,0,0,1-6.974-2.232,11.545,11.545,0,0,1-4.574-5.485,9.226,9.226,0,0,1,.827-7.8,10.426,10.426,0,0,1,2.886-3.187,9.564,9.564,0,0,1,4.035-1.7,13.733,13.733,0,0,1,2.272-.189,12.561,12.561,0,0,1,6.292,1.607,9.111,9.111,0,0,1,4.136,4.927,10.292,10.292,0,0,1,.518,3.963,12.384,12.384,0,0,1-.927,4.008,11.146,11.146,0,0,1-2.2,3.418,8.549,8.549,0,0,1-3.321,2.184A8.866,8.866,0,0,1,916.17,5023.026Zm-.778-16.223a9.629,9.629,0,0,0-4.22,1.043,6.388,6.388,0,0,0-3.036,2.969,4,4,0,0,0-.005,3.273c.908,2.137,3.485,3.9,5.639,4.707a6.941,6.941,0,0,0,2.417.47,4.913,4.913,0,0,0,3.747-1.666,6.54,6.54,0,0,0,1.578-3.8,6.288,6.288,0,0,0-5.458-6.962c-.212-.021-.436-.031-.662-.031Z"/><path class="g" d="M966.448,5008.421c-2.213.184-4.126,1.734-6.353,2.009-2.086.256-3.808-.456-5.758-1.026a12.569,12.569,0,0,0-6.927-.383c-1.841.467-3.657,1.719-5.568,1.871-3.762.3-8.138-3.993-11.073.862-1.408,2.327.636,3.826,2.742,2.741,2.2-1.131,1.12-1.535,3.843-.868,2.273.557,4.109.86,6.385.077,2.062-.705,3.871-2,6.111-2.145,2.194-.142,4.1.857,6.2,1.289a13.6,13.6,0,0,0,7.306-.68c2.324-.773,3.252-1.19,5.6-.5,1.486.434,4.73,1.815,6.177.7,2.5-1.923-.85-2.2-2.163-2.477-2.123-.44-4.318-1.649-6.521-1.468"/><path class="g" d="M1017.227,5017.585h0a8.127,8.127,0,0,1-5.758-2.33,9.007,9.007,0,0,1-2.654-5.228,7.258,7.258,0,0,1,.962-4.883,7.825,7.825,0,0,1,4.7-3.286,1.645,1.645,0,0,1,.442-.053,12.912,12.912,0,0,1,5.022,1.877,8.1,8.1,0,0,1,3.888,7.517,7.787,7.787,0,0,1-.965,3.366,5.666,5.666,0,0,1-4.082,2.888A9.408,9.408,0,0,1,1017.227,5017.585Zm-2.3-10.913a2.219,2.219,0,0,0-1.754,2.6h0a4.677,4.677,0,0,0,1.449,2.516,4,4,0,0,0,2.621,1.187h.128c1.273-.062,1.979-.65,1.987-1.656a5.539,5.539,0,0,0-4.432-4.65Z"/><path class="g" d="M902.851,5096.835c-.722-1.742.281-2.544,1.749-2.909a19.406,19.406,0,0,1-.155-3.862c-.077-2.221-.107-4.443-.192-6.663-.2-5.291-.339-10.612-.747-15.89-.389-5.046-1.374-9.938-1.4-15.021-.019-3.438-.974-12.149,2.036-14.485,5.176-3.019,3.129,7.634,3.043,9.478a110.03,110.03,0,0,0,.651,16.374c.511,5.055-.078,10.088-.274,15.141-.1,2.687-.161,5.37-.361,8.047a47.4,47.4,0,0,1-.4,6.607c.665-.029,1.313-.022,1.854-.017.375,0,.7.008.945,0,4.192-.127,8.384-.238,12.575-.4,16.123-.606,32.254-.331,48.374-1.1,15.246-.725,30.549-.879,45.81-1.066a1.544,1.544,0,0,1,1.074,2.594c-.838,1.054-4.724.823-5.935.921-4.3.345-8.586.5-12.9.541-9.077.087-18.12.476-27.182.992-16.1.918-32.227.842-48.337,1.5-3.91.158-7.821.277-11.733.38-1.047.028-2.952.361-4.712.361C904.921,5098.364,903.355,5098.049,902.851,5096.835Zm116.464-14.156q-.508-8.807-1.3-17.613c-.858-9.471-1.594-18.719-1.587-28.228a2.144,2.144,0,0,1,3.911-1.176c1.148,1.468.408,5.914.437,7.671.093,5.789.64,11.545,1.159,17.305.516,5.716.881,11.433,1.279,17.157.185,2.645,2.217,13.2-.738,14.745a1.967,1.967,0,0,1-.9.254c-2.751,0-2.167-8.452-2.263-10.115Zm-115.057-45.435c-.966-.4-1.747-.947-1.216-2.118.437-.962,1.994-.877,3.17-.792.365.027.7.052.944.048,3.8-.077,7.6-.287,11.4-.52,8.622-.527,17.227-1.144,25.863-1.291,16.463-.282,32.9-1.188,49.372-1.341,4.877-.046,9.729.04,14.6.319,2.163.124,4.32.244,6.482.336.4.017.958-.014,1.573-.044a8.805,8.805,0,0,1,3.624.266c4.3,2.275-4.459,2.525-5.525,2.507-4.469-.077-8.929-.423-13.4-.532-16.434-.4-32.993.6-49.413,1.269-7.9.324-15.794.37-23.69.812-4.317.242-8.63.519-12.946.747-1.99.1-3.981.206-5.974.256-.85.022-2.3.271-3.49.271A3.806,3.806,0,0,1,904.258,5037.244Z"/><path class="g" d="M923.886,5083.816c-1.049-.024-1.757-.249-1.867-1.524-.14-1.622,2.482-2.293,3.541-2.823q5.446-2.723,10.948-5.33c7.276-3.471,14.621-6.8,21.993-10.069l.127-.056q-6.132-2.076-12.3-4.056c-2.348-.756-18.811-4.818-18.211-7,.675-2.444,15.255,3.322,17.5,4.034q8.281,2.638,16.5,5.46c13.144-5.909,26.428-12.2,40.137-16.5.863-.27,1.409.618,1.213,1.367-.262,1-3.338,1.809-4.191,2.19-3.376,1.508-6.77,2.979-10.147,4.487-7.355,3.287-14.725,6.543-22.08,9.832l-.432.194q7.757,2.757,15.432,5.736c2.74,1.058,5.464,2.151,8.2,3.224,1.368.54,7.061,1.887,7.389,3.253.463,1.932-5.606-.441-6.572-.749-2.727-.872-5.42-1.847-8.112-2.818-6.025-2.171-12.025-4.41-18.076-6.515l-1.7-.589q-9.633,4.326-19.217,8.754-5.138,2.381-10.229,4.855c-2.5,1.209-7,4.64-9.779,4.64Z"/><path class="g" d="M915.22,5121.337a9.755,9.755,0,0,1-6.18-1.966,6.57,6.57,0,0,1-2.208-3.23,7.406,7.406,0,0,1-.154-3.054,1.942,1.942,0,0,1-.3.023,1.341,1.341,0,0,1-1.2-.695c-.232-2.858,2.386-5.358,3.967-6.594a16.983,16.983,0,0,1,7.331-3.428,7.634,7.634,0,0,1,.933-.06,8.123,8.123,0,0,1,5.882,2.683,9.746,9.746,0,0,1,2.7,7.061,9.258,9.258,0,0,1-2.83,6.316,10.871,10.871,0,0,1-6.366,2.859A13.808,13.808,0,0,1,915.22,5121.337Zm2.253-15.991a1.475,1.475,0,0,0-1.6.886,2.554,2.554,0,0,1-1.212,1.185,2.077,2.077,0,0,1-.88.12,2.464,2.464,0,0,0-1.087.166,5.389,5.389,0,0,0-1.979,2.254l-.049.084c-1.262,2.117-1.535,4.271-.751,5.909a5.13,5.13,0,0,0,4.211,2.673,10.1,10.1,0,0,0,1.411.1,8.874,8.874,0,0,0,5.157-1.556,6.38,6.38,0,0,0,2.677-4.6,6.575,6.575,0,0,0-1.284-4.641,6.47,6.47,0,0,0-4.081-2.549A5.107,5.107,0,0,0,917.473,5105.346Z"/><path class="g" d="M936.343,5108.572c-1.841.976-4.752,2.475-5.831,4.327-1.141,1.957.04,4.1,2.442,3.172,1.909-.735,3.12-3.07,5.154-3.818,1.8-.661,2.519-.324,4.416.333a13.646,13.646,0,0,0,5.781,1.167c2.657-.209,4.957-1.749,7.557-2.1,2.19-.295,3.995.557,6.092.9,2.432.394,4.023-.527,6.3-1,1.545-.326,4.277,1,5.407.5,2.54-1.117-.146-2.482-1.552-2.936-2.368-.759-3.825-.089-6.077.541-2.445.684-3.5.17-5.839-.458-4.731-1.27-8.384,1.8-12.866,1.243-4.15-.517-6.633-4.166-10.983-1.867"/><path class="g" d="M1011.217,5117.267h0a10.371,10.371,0,0,1-3.553-.618,7.469,7.469,0,0,1-2.911-1.87,5.386,5.386,0,0,1-1.425-4.24,7.182,7.182,0,0,1,2.874-5.373,13.705,13.705,0,0,1,5.774-2.313,6.706,6.706,0,0,1,1.264-.126,4.883,4.883,0,0,1,3.966,1.916,7.567,7.567,0,0,1,1.475,4.376,8.819,8.819,0,0,1-1.533,5.383,6.768,6.768,0,0,1-5.158,2.835C1011.736,5117.257,1011.476,5117.267,1011.217,5117.267Zm1.962-10.979c-1.917,0-4.366.646-5.515,2.086a3.764,3.764,0,0,0-.944,2.851,2.973,2.973,0,0,0,1.364,2.009,5.325,5.325,0,0,0,3.013,1,4.347,4.347,0,0,0,2.485-.773,4.291,4.291,0,0,0,1.556-1.954,4.175,4.175,0,0,0,.167-2.55,5.422,5.422,0,0,0-1.64-2.649C1013.505,5106.293,1013.345,5106.288,1013.179,5106.288Z"/></g><path class="h" d="M1144.648,4913.05c-3.4.065-11.8,1.3-13.05,5.326-.948,3.054,1.868,2.383,3.377,1.273a14.262,14.262,0,0,1,6.362-2.859c9.635-1.744,18.894,4.506,28.437,5.294,3.616.3,7.978.494,11.43-.676,2.458-.834,2.781-2.652-.026-2.929-2.384-.232-5.022.506-7.464.485-10.112-.083-19.1-6.1-29.066-5.914"/><g class="f"><path class="g" d="M717.259,5134.136q-9.762.109-19.508.724c-6.18.392-12.878.094-18.954,1.292-1.725.34-4.056,1.912-1.763,3.641,1.613,1.216,7.512-.183,9.438-.3,7.091-.436,14.186-.957,21.287-1.209,6.721-.238,13.442-.321,20.17-.386a15.333,15.333,0,0,1,3.754-.041c1.468.429,1.121.545,1.231,2.41.2,3.379.144,6.77.077,10.153-.065,3.273-.186,6.545-.174,9.82.009,2.336-.738,6.978.433,9.007,1.688,2.92,3.438-.252,3.564-2.192.241-3.708.133-7.469.134-11.185,0-3.489.026-6.977-.1-10.463-.089-2.519.271-6.915-1.086-9.2-1.381-2.334-4.708-1.831-7.136-1.943-3.785-.174-7.58-.162-11.37-.123"/><path class="g" d="M675.852,5138.345c.007,6.554-.752,13.065-.964,19.611-.1,3.013-.295,6.315.464,9.27.769,2.984,3.21,3.631,3.491.3.569-6.744.429-13.737.873-20.536.154-2.4,1.175-6.8.224-9.047-.838-1.98-4.094-2.36-4.094.4"/><path class="g" d="M736.878,5167.235c-11.3,1.5-23.117.951-34.5,1.186-5.461.113-10.921.12-16.382.177-1.906.018-6.747-.705-8.395.366-2.627,1.706.223,3.022,1.96,3.06,10.778.237,21.677-.259,32.453-.613,4.841-.159,9.7-.236,14.528-.648a51.266,51.266,0,0,0,9.108-1.3c.618-.171,1.954-.135,2.092-.974.085-.52-.069-1.366-.864-1.257"/><path class="g" d="M689.882,5176.762c-3.142.019-12.607-1.441-13.907,1.622-1.735,4.085,5.03,3.132,6.85,3.085,4.132-.106,8.266-.117,12.4-.116,4.056,0,8.111-.025,12.166-.12,1.175-.029,3.91.459,4.585-.956a1.781,1.781,0,0,0-.7-2.421c-.047-.026-.095-.05-.143-.071-2.28-1.37-8.2-.576-10.87-.7-3.455-.163-6.922-.328-10.381-.328"/><path class="g" d="M728.095,5177.518c-1.795.1-5.426-.632-7.034.189-1.828.934-1.187,2.4.394,3.038a15.538,15.538,0,0,0,6.644-.3c1.109-.541,2.363-3.069,0-2.924"/><path class="g" d="M747.776,5138.988c-1.917.526-1.336,11.41-1.385,13.136-.135,4.728-.667,10.674.9,15.227,1,2.9,2.925,2.509,2.6-.547-.288-2.683-.782-5.331-1-8.035-.484-6.106-1.141-12.622-.684-18.735.194.356,2.013,3.651,2.441,3.4-.133.076-2.1-4.657-2.878-4.451"/><path class="g" d="M769.342,5134.98c-3.879.057-7.76.126-11.638.233-3.084.086-7.931-.42-10.759.877-3.368,1.545-1.77,4.987,1.39,5.059,2.8.065,5.783-.566,8.607-.663,7.627-.262,15.268-.317,22.9-.383,6.9-.059,14.095.677,20.935-.36,1.014,9.01-1.73,18.058-.8,27.171.144,1.415.077,3.413,1.881,3.735,2.273.407,2.367-1.845,2.452-3.457.247-4.6.113-9.211.45-13.82.309-4.272.927-8.638.408-12.917-.636-5.264-3.158-4.839-7.619-5.061-9.419-.462-18.78-.551-28.21-.414"/><path class="g" d="M756.339,5166.972c-1.977.049-5.26-.56-6.527,1.336-1.318,1.972.245,3.692,2.163,4.094,2.269.479,5.227-.178,7.581-.185,2.452-.007,4.9.021,7.357.031,10.512.04,21.07.2,31.575-.232,1.468-.06,5.631.432,6.644-.976.9-1.248.271-2.368-.917-3-1.946-1.043-5.948-.647-8.111-.73-2.67-.1-5.351-.138-8.026-.176-10.562-.163-21.178-.421-31.739-.159"/><path class="g" d="M765.232,5176.09c-3.934.067-8.134-.106-12.027.491-3.424.525-3.846,3.835-.16,4.221,3.389.357,7.494-.309,10.9-.527,1.209-.077,2.615.032,3.2-1.3a2.148,2.148,0,0,0-1.282-2.754,2.174,2.174,0,0,0-.626-.127"/><path class="g" d="M794.974,5176.438c-2.1.052-8.234-.85-9.271,1.545-1.734,4,6.568,2.478,8.161,2.419,2.008-.073,9.831,1.1,9.831-2.1,0-3.134-6.8-1.915-8.724-1.867"/><path class="g" d="M675.513,5196.277c.008,7.266-.448,14.6.215,21.843.274,3,.227,8.737,1.963,11.278,1.232,1.8,2.941,1.677,3.614-.488.45-1.448-.27-4.342-.35-5.89-.077-1.487-.168-2.972-.236-4.459-.177-3.829-.163-7.653-.11-11.485.045-3.288.836-7.636.088-10.8-.7-2.944-5.184-3.631-5.184,0"/><path class="g" d="M748.513,5189.889c-12.6.316-25.233.034-37.823.657-6.21.309-12.4.983-18.573,1.656-3.033.332-6.069.672-9.1,1.046-.915.113-8.513.408-5.655,3.3,1.247,1.261,5.219-.057,6.79-.243,3.042-.359,6.091-.672,9.137-.994,5.8-.613,11.6-1.194,17.425-1.517,13.711-.759,27.48-.531,41.2-1.038,3.713-.137,7.416-.232,11.129-.089.975.039,8.142.4,5.03-2.244-1.467-1.252-7.019-.6-8.857-.643-3.569-.078-7.14.022-10.707.112"/><path class="g" d="M678.539,5232.3c-.292-4.129,10.065-4.122,13.027-4.4,12.717-1.182,25.642-.934,38.4-.755,6.169.086,12.325.274,18.489-.1s12.523-.277,18.635-.94c-.788-3.052-.672-6.869-.893-9.988-.567-8.007-.415-16.042-.781-24.057-.161-3.531,4.649-4.066,6.076-1.207,1.441,2.887.5,8.616.6,11.819.215,7.412,1.59,15.709.138,23.039-.505,2.549-2.656,3.89-4.086,2.5l-.007.009c-.54.794-2.214.792-3.448.791-.34,0-.647,0-.887.015-3.381.232-6.7.618-10.051,1.12a161.345,161.345,0,0,1-20.048,1.783c-13.35.331-26.754.022-40.085.936a73.319,73.319,0,0,0-8.762,1.105,20.127,20.127,0,0,1-3.682.6C679.81,5234.572,678.665,5234.085,678.539,5232.3Z"/><path class="g" d="M775.892,5194.648c-1.7.231-3.123,1.689-2.363,3.537.958,2.327,3.807,1.417,5.693,1.27,5.987-.469,12.238.467,18.154-.239,1.616-.193,3.959-1.073,2.509-3.244-1.092-1.63-5.064-1.345-6.752-1.5a90.119,90.119,0,0,0-17.241.177"/><path class="g" d="M786,5204.8c-2.321.156-7.726.033-8.7,2.675-1.751,4.739,5.12,3.069,7.21,2.8,2.432-.313,8.164.525,9.458-1.833,2.318-4.216-5.929-3.785-7.965-3.642"/><path class="g" d="M780.025,5215.2a3.045,3.045,0,0,0,0,4.172c1.351,1.349,4.294,1.069,6.069,1.168,2.472.138,9.584,1.447,10.815-1.468,1.657-3.932-4.781-3.85-6.9-4.074-2.451-.257-7.957-1.826-9.989.2"/><path class="g" d="M693.255,5147.885c0,4.228,6.6,4.228,6.6,0,0-4.206-6.6-4.27-6.6,0"/><path class="g" d="M705.781,5147.932c0,4.833,7.521,4.823,7.521,0s-7.521-4.867-7.521,0"/><path class="g" d="M698.2,5154.359c-3.657,1.01-.288,4.107,1.409,4.816,2.7,1.126,6.378,1.955,9.081.268,1.074-.671,1.946-1.563,1.159-2.866-.838-1.39-1.986-.772-3.263-.642a10.009,10.009,0,0,1-4.487-.382c-1.166-.386-2.627-1.545-3.9-1.194"/><path class="g" d="M764.522,5148.152c0,2.858,4.44,2.858,4.44,0s-4.44-2.859-4.44,0"/><path class="g" d="M774.342,5148.583c0,3.179,4.933,3.179,4.933,0s-4.933-3.177-4.933,0"/><path class="g" d="M773.977,5155.478c-2.592.334-10.086,1.1-10.506,4.288-.646,4.928,7.566.939,9.44.552a27.2,27.2,0,0,1,6.9-.266c1.309.052,3.049.264,2.912-1.729-.225-3.275-6.482-3.138-8.747-2.845"/><path class="g" d="M708.825,5200.922c-1.879.5-4.335,3.748-3.044,5.735,2.119,3.259,3.053-1.745,3.94-2.226,1.614-.877,2.923,2.326,4.61.645,2.661-2.65-3.831-4.6-5.506-4.154"/><path class="g" d="M730.346,5198.512c-2.227.021-6.93,3.175-7.263,5.5a2.3,2.3,0,0,0,2.214,2.732c2.031.024,2.676-2.616,4.436-3.168,1.9-.6,1.617.773,3.257,1.487,1.2.521,2.7.3,3.118-1.172.784-2.784-3.472-5.425-5.762-5.382"/><path class="g" d="M713.3,5211.845c-3.562,2.086,2.3,6.567,4.332,7.123,3.068.844,9.243-.732,9.97-4.481a2.006,2.006,0,0,0-2.294-2.575c-1.355.221-2.225,1.921-3.476,2.53a3.885,3.885,0,0,1-4.641-.469c-1.173-1.011-1.8-3.347-3.891-2.128"/><path class="g" d="M715.878,5242.693c-3.183.679-6.419.223-9.617.861-3.262.651-5.211,1.883-8.24.642l-.428-.181c-2.345-1.008-4.8-1.309-7.258.3-1.453.953-5.863,4.249-5.331,6.258,1.152,4.357,6.114-2.479,7.38-3.145,2.413-1.271,4.067.352,6.551.81,2.976.549,5.37-1.024,8.173-1.65,3.279-.732,6.967-.987,10.3-1.38,1.318-.154,6.308.888,6.76-.752.773-2.817-7.041-2.033-8.292-1.768"/><path class="g" d="M746.847,5255.308h0c-2.373,0-4.274-.077-5.983-.242a9.137,9.137,0,0,1-3.411-.793,3.993,3.993,0,0,1-1.961-2.673,37.833,37.833,0,0,1-1.082-5.061c-.317-2.536-.035-4.037.84-4.46a2.054,2.054,0,0,1,.909-.171c.178,0,.362.012.51.021h.019c.161.01.309.02.454.02a1.728,1.728,0,0,0,.321-.024c.766-.141,1.545-.346,2.375-.562a28.365,28.365,0,0,1,3.295-.722c3.144-.423,6.56-.711,10.443-.879h.048c.627-.028,1.337-.058,2.1-.058a14.608,14.608,0,0,1,4.314.523,4.514,4.514,0,0,1,3.021,2.435,9.351,9.351,0,0,1,.108,5.034,17.377,17.377,0,0,1-1.622,4.843c-1.359,2.43-4.054,2.764-6.764,2.764-.507,0-1.026-.012-1.483-.022h-.029c-.484-.012-.94-.022-1.391-.022h-.3l-1.3.018h-.017C749.142,5255.295,747.986,5255.308,746.847,5255.308Zm-9.085-11.624h0c.06.387.1,1.112.147,1.956.119,2.129.28,5.044.917,5.762.607.685,2.756.707,4.041.719.32,0,.595.006.785.018,2.026.126,4.091.187,6.087.246.838.024,1.706.05,2.558.077.444.015,1.043.092,1.676.173a23.591,23.591,0,0,0,2.836.247,3.994,3.994,0,0,0,1.733-.291c.778-.386,1.666-2.019,2.263-4.159.661-2.37.734-4.458.186-5.32a3.071,3.071,0,0,0-1.854-1.184,11.2,11.2,0,0,0-2.924-.321,46.813,46.813,0,0,0-6.59.654c-.752.113-1.4.211-1.869.258a30.682,30.682,0,0,0-3.073.572,27.055,27.055,0,0,1-5.274.811A5.359,5.359,0,0,1,737.762,5243.684Z"/><path class="g" d="M786.476,5256.69h0a97.481,97.481,0,0,1-10.856-.554,8.274,8.274,0,0,1-4.55-1.526c-1.064-.9-1.65-2.293-1.844-4.377-.045-.484-.125-1.059-.218-1.725-.444-3.2-1.117-8.025,1.365-9.609,1.86-1.186,5.588-1.3,8.311-1.389.629-.02,1.229-.039,1.74-.068.291-.016.6-.023.906-.023a40.759,40.759,0,0,1,5.09.437c1.382.176,2.812.359,4.2.418,2.377.1,3.874.289,4.97,1s1.768,1.932,2.272,4.209a4.035,4.035,0,0,0,.3.824,3.015,3.015,0,0,1,.347,1.3,17.3,17.3,0,0,1-.534,3.407c-.117.535-.231,1.04-.3,1.473a7.17,7.17,0,0,1-2.463,4.739,8.55,8.55,0,0,1-5.111,1.411C788.86,5256.674,787.642,5256.69,786.476,5256.69Zm3.245-5.4c-1.391.253-2.859.526-4.618.857l-.868.164c.541.038,1.03.108,1.5.174a11.186,11.186,0,0,0,1.52.149,2.754,2.754,0,0,0,2.46-1.344Zm-10.794-.257h0l-.232.077-.935.309h-.006l-.633.209c.689.085,1.343.16,2,.231a1.6,1.6,0,0,1-.191-.833Zm-4.23-2.412a.367.367,0,0,0-.275.083.274.274,0,0,0-.063.211.508.508,0,0,0,.067.382.187.187,0,0,0,.143.058c.2,0,.55-.216,1.035-.644h-.066a2.878,2.878,0,0,1-.425-.046h-.007A2.808,2.808,0,0,0,774.7,5248.62Zm12.018-5.89a.247.247,0,0,0-.193.107c-.138.109-.2.175-.19.2,0,.01.016.015.037.015a2.313,2.313,0,0,0,.486-.148l.133-.048A.449.449,0,0,0,786.715,5242.73Zm6.49-1.129c.655.951.971,1.025,1.053,1.025a.1.1,0,0,0,.109-.1v-.011C794.389,5242.27,794.008,5241.736,793.205,5241.6Z"/></g><g class="f"><path class="g" d="M1017.035,5230.752h0a17.939,17.939,0,0,1-4.692-.638,19.209,19.209,0,0,1-4.375-1.79,18.2,18.2,0,0,1-3.729-2.762,15.3,15.3,0,0,1-2.758-3.554,12.209,12.209,0,0,1-1.605-6.22,13.626,13.626,0,0,1,2.187-6.953c-.874-.176-1.349-.5-1.414-.943-.179-1.223,2.684-3.038,3.4-3.421l.257-.138a24.694,24.694,0,0,1,7.746-3.09,23.163,23.163,0,0,1,3.444-.257,21.593,21.593,0,0,1,8.977,1.863,15.7,15.7,0,0,1,3.806,2.444,13.162,13.162,0,0,1,2.865,3.553,12.4,12.4,0,0,1,1.488,5,14.538,14.538,0,0,1-.532,5.14,16.889,16.889,0,0,1-2.2,4.753,16.615,16.615,0,0,1-3.512,3.839A14.9,14.9,0,0,1,1017.035,5230.752Zm-1.855-26.192a12.894,12.894,0,0,0-9.629,4.2,10.151,10.151,0,0,0-2.074,3.658,10.333,10.333,0,0,0-.361,4.5,12.39,12.39,0,0,0,4.65,7.9,14.55,14.55,0,0,0,4.09,2.338,13.091,13.091,0,0,0,4.574.85c.274,0,.549-.01.819-.029a13.269,13.269,0,0,0,11.983-11.253,9.1,9.1,0,0,0-2.064-7.431,12.87,12.87,0,0,0-5.22-3.5,19.533,19.533,0,0,0-6.476-1.236h-.292Z"/><path class="g" d="M1010.392,5213.715c0,2.737,4.248,2.737,4.248,0s-4.248-2.737-4.248,0"/><path class="g" d="M1018.27,5214.153c0,2.968,4.606,2.968,4.606,0s-4.606-2.967-4.606,0"/><path class="g" d="M1012.953,5220.027c-.62,2.248,6.451,3.4,6.683.8.113-1.244-6.252-2.37-6.683-.8"/><path class="g" d="M1033.675,5218.632c8.134-.976,16.521-.526,24.695-.292,2.045.06,4.094.117,6.136.151,1.3.022,4.109.646,5.245.037,4.648-2.493-4.47-3.7-5.761-3.813a281.858,281.858,0,0,0-28.831-.592c-2.412.095-2.933,4.683-1.484,4.509"/><path class="g" d="M1070.278,5259.067c.069-8.523.375-17.1,1.03-25.6.267-3.463.588-6.922.85-10.386.125-1.631.705-3.916-.254-5.348a2.922,2.922,0,0,0-4.462-.474c-1.564,2.024-1.109,5.421-1.3,7.87-.3,3.764-.661,7.526-.84,11.3a173.3,173.3,0,0,0,.159,22.024,66.821,66.821,0,0,0,1.677,10.154c.364,1.527,3.259,8.332,2.65,9.27-.943,1.455-7.915.9-9.424.946-3.882.1-7.763.172-11.645.246q-4.986.094-9.971.138c-1.32.012-9.074-.223-7.355,1.734-19.234,1.342-38.838-.9-57.955-1.664-.966-.04-2.55-.313-4-.392a12.688,12.688,0,0,1-.354-1.771c-.251-3.073-.317-6.156-.589-9.228-.5-5.62-1.468-11.184-2.041-16.794s-.515-11.227-.849-16.844c-.058-.963-.193-8.849-2.183-10.765a9.026,9.026,0,0,0,3.341.336c7.092-.575,14.131-1.807,21.161-2.865,2.009-.3,6.577-.088,8.245-1.094,1.446-.87,2.018-3.921-.494-3.675-7.012.751-13.984,1.917-20.94,3.064q-2.79.464-5.571.97c-1.237.225-4.51.208-5.471.955-1.168.906-1.292,1.523-.9,1.934-.55-.155-1.209.086-2,.878-1.5,1.949-.09,6.746.09,9.03.215,2.74.32,5.485.445,8.23a136.574,136.574,0,0,0,1.65,15.8c.958,5.879,1.772,11.782,2.732,17.659a40.942,40.942,0,0,0,.992,4.5c-2.587,1.323-.828,3.428,1.224,3.8l.045.007c.639,1.559,1.534,3,2.232.914a2.029,2.029,0,0,0,.085-.579c5.3.6,11.125.227,16.341.44,11.3.464,22.67,1.155,33.982.8a131.55,131.55,0,0,0,13.409-1.138c2.6-.35,5.213-.768,7.773-1.348.183-.041.464-.085.784-.138h.155q5.88-.09,11.754-.327c3.288-.137,6.59-.207,9.867-.517,2.036-.193,6.335-.155,7.587-2.2,1.136-1.862-.763-6.656-1.034-8.747a81.652,81.652,0,0,1-.625-11.107"/><path class="g" d="M1030.552,5234.459c-3.133.268-6.026,1.739-9.193,1.758-2.653.014-5.265-.778-7.934-.661-3.129.137-4.851,2.163-7.592,2.837-2.182.541-3.554-1.131-5.477-1.871-2.423-.933-4.214-.451-6.291.961-1.523,1.037-5.083,3.365-5.056,5.462.082,6.355,7.494-2.423,8.99-2.53,1.986-.141,4.2,2.122,6.317,2.251,2.793.171,4.585-1.63,7.156-2.286,2.6-.663,5.413.149,8.021.4,2.976.287,5.58-.375,8.458-1.085a17.1,17.1,0,0,1,8-.078c1.913.391,6.679,2.659,7.516-.258,1.14-3.968-10.726-5.088-12.916-4.9"/><path class="g" d="M1031.505,5246.579c-6.418.623-12.877,1.169-19.323,1.344-2.792.076-13.527-1.121-12.575,2.427.815,3.043,15.424,1.128,18.4.9,3.285-.255,6.567-.612,9.834-1.025,1.158-.147,3.956,0,4.773-.967.779-.927.4-2.825-1.109-2.674"/><path class="g" d="M989.245,5273.224a6.58,6.58,0,0,1-5.138-2.569,9.072,9.072,0,0,1-1.993-5.469,6.39,6.39,0,0,1,1.481-4.41,6.7,6.7,0,0,1,4.988-2.075h.069a1.1,1.1,0,0,1,.906.421.911.911,0,0,0,.6.351h.019a1.151,1.151,0,0,0,.49-.248l.069-.047a1.39,1.39,0,0,1,.675-.3h.029c2.093.134,3.432.528,4.521,2.226a6.035,6.035,0,0,1,.9,3.038,9.328,9.328,0,0,1-.51,3.366,8.289,8.289,0,0,1-4.551,5.241A7.479,7.479,0,0,1,989.245,5273.224Zm1.419-11.085a1.439,1.439,0,0,0-.764.232,2.569,2.569,0,0,1-1.313.352c-1.691.053-2.647.943-2.627,2.441a4.752,4.752,0,0,0,1.106,2.807,3.422,3.422,0,0,0,2.553,1.39,3.038,3.038,0,0,0,2.164-1.021,6.055,6.055,0,0,0,1.345-2.634,3.43,3.43,0,0,0-.309-2.835c-.386-.479-.551-.492-.843-.516a2.673,2.673,0,0,1-.541-.089A2.952,2.952,0,0,0,990.664,5262.139Z"/><path class="g" d="M1016.108,5271.754h-.131a5.663,5.663,0,0,1-4.217-1.982,6.889,6.889,0,0,1-1.571-5.286c.416-3.386,2.529-5.235,6.649-5.819a5.981,5.981,0,0,1,.8-.058,4.276,4.276,0,0,1,3.221,1.369,6.957,6.957,0,0,1,1.527,5.2,7.931,7.931,0,0,1-1.758,4.518A5.754,5.754,0,0,1,1016.108,5271.754Zm-.925-8.432h.008a2.157,2.157,0,0,0-.773,2.52,1.906,1.906,0,0,0,2.6,1.481,3.159,3.159,0,0,0,1.526-2.082,1.429,1.429,0,0,0-.246-1.321c.026.027.034.048.028.064s-.052.033-.126.033a9.806,9.806,0,0,1-1.731-.344c-.518-.133-.991-.265-1.193-.321Z"/><path class="g" d="M1053.079,5271.068h0a5.093,5.093,0,0,1-3.753-1.531,5.929,5.929,0,0,1-1.579-3.516,6.3,6.3,0,0,1,.974-4.128,6.167,6.167,0,0,1,4-2.6,2.04,2.04,0,0,1,.824-3.766c2.288,0,4.995,5.4,5.23,6.775a10.249,10.249,0,0,1-.349,5.276,5.424,5.424,0,0,1-1.381,2.095,5.157,5.157,0,0,1-2.429,1.223A7.282,7.282,0,0,1,1053.079,5271.068Zm1.681-7.585h0c-2.405.212-2.622,1.2-2.6,1.614a1.476,1.476,0,0,0,1.378,1.331.966.966,0,0,0,.722-.324c.3-.321.626-1.036.505-2.622Z"/></g><path class="h" d="M1070.31,5262.789c-2.316.412-7.789,2.969-7.742,5.715.077,4.287,4.726-.4,5.761-1.025,5.562-3.383,12.759,1,18.546,1.931,2.654.427,7.845,1.217,10.189-.561,4.172-3.163-5.472-2.371-6.7-2.5-6.672-.687-13.311-4.767-20.054-3.562"/><g class="f"><path class="g" d="M1129.671,5142.647c0,4.386-.224,8.864.585,13.2.244,1.314.438,3.826,1.822,4.506a2.111,2.111,0,0,0,3.084-1.509c.4-1.659-.481-4.14-.57-5.881-.123-2.378-.132-4.76-.132-7.141,0-1.719.564-4.486-1.468-5.37a2.443,2.443,0,0,0-3.322,2.2"/><path class="g" d="M1199.017,5135.709c-14.533,1.458-29.275,1.762-43.861,2.519-6.742.351-14.89-.1-21.244,2.513-1.177.488-5.4,3.185-1.975,4.285,1.069.342,2.156-.809,3.033-1.195a19.423,19.423,0,0,1,4.713-1.091c13.253-2.128,27.115-1.757,40.506-2.752,3.43-.255,6.863-.518,10.287-.855,2.446-.24,7.588-2,9.845-1.1,3.86,1.539,3.769,11.552,3.847,14.993.039,1.781-1.689,8.173,1.746,7.526,2.75-.519,1.755-7.159,1.54-8.976-.563-4.761-1.522-16.567-8.437-15.866"/><path class="g" d="M1204.377,5160.32c-12.624,1.14-25.538.021-38.213.469-6.644.232-13.282.61-19.927.829-2.873.095-5.75.1-8.626.12-1.378.009-7.635.843-3.762,3.57,1.715,1.207,7.178.231,9.145.211,2.954-.035,5.907-.155,8.859-.274,6.838-.267,13.673-.638,20.515-.823,6.544-.177,13.093-.215,19.638-.392a82.588,82.588,0,0,0,9.785-.664c.729-.107,3.09-.192,3.6-1,.478-.768.142-2.153-1.013-2.042"/><path class="g" d="M1145.518,5158.159h0a7.027,7.027,0,0,1-5.044-2.015,7.311,7.311,0,0,1-2.122-4.5,6.24,6.24,0,0,1,1.225-4.376,7.609,7.609,0,0,1,4.844-2.678,1.8,1.8,0,0,1,.315-.029,2.229,2.229,0,0,1,1.017.3,2.454,2.454,0,0,0,.819.285,2.253,2.253,0,0,0,.257.013,5.314,5.314,0,0,0,.762-.077,5.371,5.371,0,0,1,.766-.077,2.2,2.2,0,0,1,.618.084,4.606,4.606,0,0,1,2.163,1.493,7.52,7.52,0,0,1,1.313,2.3,7,7,0,0,1,.391,2.993,6.771,6.771,0,0,1-2.742,4.867,7,7,0,0,1-2.757,1.215A9.059,9.059,0,0,1,1145.518,5158.159Zm2.027-9.025h0c-1.65.01-4.575.36-5.112,1.609-.241.561.018,1.248.768,2.045a3.252,3.252,0,0,0,2.372,1.09,3.011,3.011,0,0,0,2.744-1.745,2.7,2.7,0,0,0-.773-3Z"/><path class="g" d="M1183.256,5148.4c-6.119.019-12.241.279-18.357.4-1.877.035-6.7-.8-6.708,2.154-.008,3.162,5.365,1.993,7.153,1.951,6.069-.145,12.153-.411,18.2-.989,1.527-.146,6.812.106,6.808-1.97-.006-2.2-5.859-1.546-7.092-1.546"/><path class="g" d="M1197.872,5169.03c-15.135.407-30.246.548-45.367,1.323-5.657.29-11.3.5-16.969.5-1.091,0-3.288-.422-4.315.264-2.786,1.864.386,3.464,2.2,3.564,12.422.69,25.025-1.027,37.44-1.414,7.267-.226,14.538-.293,21.8-.663,1.981-.1,3.963-.218,5.942-.372,1.138-.088,4.147.155,5.066-.512,4.017-2.906-4.45-2.731-5.8-2.7"/><path class="g" d="M1128.435,5176.433a69.538,69.538,0,0,0,.356,11.678c.2,1.532.294,3.278,2.094,3.669,1.635.353,2.464-.883,2.8-2.253.827-3.347.1-8.165.09-11.642-.005-1.72-.006-3.644-2.131-4.032a2.7,2.7,0,0,0-3.211,2.58"/><path class="g" d="M1213.911,5185.889q-36.746,1.937-73.476,3.455c-1.912.077-16.764-.077-11.572,5.1,1.6,1.6,5.736.516,7.81.415,3.117-.154,6.235-.27,9.352-.429,12.36-.628,24.747-.8,37.1-1.5q10.191-.583,20.334-1.787c3.215-.376,7.206-.338,10.218-1.6,1.548-.648,3.221-3.807.238-3.648"/><path class="g" d="M1199.826,5165.986c-1.863,1.855-.9,5.516-.765,7.809.193,3.155.428,6.313.822,9.452.257,2.039.121,5.212,1.208,6.973a3.012,3.012,0,0,0,5.23-.155c1.019-1.762.5-5.47.477-7.422-.036-2.7-.2-5.408-.365-8.1-.134-2.253.377-5.862-.863-7.79a3.7,3.7,0,0,0-5.744-.767"/><path class="g" d="M1145.842,5187.163h0a8.066,8.066,0,0,1-1.218-.09,6.858,6.858,0,0,1-4.926-3.432,4.933,4.933,0,0,1-.573-2.162,4.823,4.823,0,0,1,3.8-4.853,20.28,20.28,0,0,1,4.326-.653l.368-.025c.14-.011.283-.017.425-.017a5.882,5.882,0,0,1,4.211,1.859,5.026,5.026,0,0,1,1.4,3.792,5.385,5.385,0,0,1-2.729,4.155A9.807,9.807,0,0,1,1145.842,5187.163Zm-1.911-6.721a.456.456,0,0,0-.3.124c-.249.212-.585.7-.027,1.575a2.451,2.451,0,0,0,2.165,1.128,4.705,4.705,0,0,0,2.46-.772,2.46,2.46,0,0,0,1.252-1.545c.037-.382-.155-.886-1.295-1.115h-.069a11.239,11.239,0,0,0-3.261.85.394.394,0,0,1-.159.033.815.815,0,0,1-.386-.138A.814.814,0,0,0,1143.931,5180.442Z"/><path class="g" d="M1170.765,5177.921c-2.87.047-8.51-.8-11.01.6-2.474,1.383-1.371,3.848.886,4.438,1.492.386,3.93-.24,5.485-.3,2.042-.083,4.087-.1,6.131-.129,3.438-.046,6.876-.007,10.313-.007,3.511,0,7.083.1,10.588-.162,4.434-.327,4.314-3.648-.024-4.064-7.369-.7-14.977-.486-22.369-.37"/><path class="g" d="M1163.435,5215.118c0,1.578,1.4,0,1.391,0,.01,0-1.391-1.578-1.391,0"/><path class="g" d="M1131.765,5202.416c.09,4.586.15,9.177.345,13.76.062,1.45-.353,4.279,1.4,5.022,1.955.822,2.563-1.228,2.788-2.617.713-4.4.014-9.425-.055-13.877-.023-1.5.3-3.577-1.4-4.322a2.264,2.264,0,0,0-3.085,2.034"/><path class="g" d="M1209.394,5215.119h0a2.166,2.166,0,0,1-1.766-1.261c-.662-1.109-.376-3.056-.1-4.939a14.7,14.7,0,0,0,.255-2.991c-.016-.19-.028-.378-.041-.559-.091-1.326-.168-2.473-1.291-2.96a4.032,4.032,0,0,0-1.591-.248c-.656,0-1.353.071-2.029.139-.559.057-1.087.11-1.508.112-3.514.016-7.087.025-10.541.034h-.007c-10.506.028-21.37.058-32.05.272-6.321.127-11.161.29-15.692.529a43.177,43.177,0,0,0-7.175.825,15.173,15.173,0,0,1-2.953.342c-1.224,0-1.965-.245-2.2-.727-.214-.444.013-1.092.674-1.926,1.169-1.471,5.2-1.757,7.617-1.931.444-.032.827-.059,1.144-.089,2.6-.246,5.275-.358,7.858-.463h.011l1.165-.049c6.289-.273,12.689-.366,18.879-.461h.071l2.173-.034c3.765-.058,7.631-.087,11.819-.087,3.107,0,6.326.016,9.843.048,4.126.039,8.286.232,12.718.59a10.39,10.39,0,0,1,4.084.8c.99.55,1.656,1.57,2.194,3.394.773,2.614,1.595,5.973,1.082,8.781a4.18,4.18,0,0,1-.954,1.937A2.359,2.359,0,0,1,1209.394,5215.119Z"/><path class="g" d="M1198.153,5217.694c-15.272,1.776-30.978.728-46.333.791-3.734.015-7.471.044-11.2.226-1.97.1-6.644-.448-7.99,1.071-2.844,3.2,2.281,3.671,4.152,3.54,3.786-.269,7.575-.392,11.368-.421,13.359-.1,26.793.52,40.141-.139a116.5,116.5,0,0,0,16.548-2.3c1.216-.237,9.54-1.819,4.79-3.715-2.8-1.121-8.531.606-11.477.951"/><path class="g" d="M1151.494,5217.333h0a8.621,8.621,0,0,1-3.1-.566,6.362,6.362,0,0,1-2.514-1.715c-2.57-2.929-.844-5.908,1.183-8.432a2.112,2.112,0,0,1,1.768-.72,9.583,9.583,0,0,1,2.086.325c.368.086.717.167,1.009.205.214.029.417.054.612.078,1.6.194,2.566.309,3.759,1.722a6.215,6.215,0,0,1,1.515,4.908,4.394,4.394,0,0,1-2.159,3.118A8.177,8.177,0,0,1,1151.494,5217.333Zm.509-6.8a2.275,2.275,0,0,0-1.652.453.465.465,0,0,0-.123.376c.057.4.682.83,1.732.83a4.776,4.776,0,0,0,1.24-.176,3.533,3.533,0,0,0-.742-1.468C1152.3,5210.543,1152.15,5210.535,1152,5210.535Z"/><path class="g" d="M1168.23,5211.34c0,3.4,14.663,1.931,17.272,1.931,2.185,0,15.4,1.2,14.446-2.293-.776-2.871-13.79-1.445-16.562-1.448-2.4,0-15.156-1.649-15.156,1.81"/></g><g class="f"><path class="g" d="M1233.407,5139.361h0a15.984,15.984,0,0,1-4.5-.662,18.709,18.709,0,0,1-4.424-1.983,21.943,21.943,0,0,1-7.693-8.019,18.658,18.658,0,0,1-2.394-10.789,2.576,2.576,0,0,1-1.318.479,1.088,1.088,0,0,1-.977-.583,4.252,4.252,0,0,1,.11-3.514,26.644,26.644,0,0,1,2.888-3.978c.187-.227.379-.464.564-.689a15.048,15.048,0,0,1,12.483-6.007h.283a29.481,29.481,0,0,1,11.206,2.187,20.6,20.6,0,0,1,4.932,2.9,14.894,14.894,0,0,1,5.537,9.629,18.069,18.069,0,0,1-.069,5.723,19.218,19.218,0,0,1-5.057,10.146,17.527,17.527,0,0,1-5.481,3.873A15.034,15.034,0,0,1,1233.407,5139.361Zm-5.151-31.333a11.181,11.181,0,0,0-4.172.691,7.443,7.443,0,0,0-3.386,2.682,13.551,13.551,0,0,0-2.107,4.678,14.162,14.162,0,0,0-.275,5.128,15.5,15.5,0,0,0,1.637,4.97,20.457,20.457,0,0,0,3.276,4.6,17.776,17.776,0,0,0,4.418,3.447,12.049,12.049,0,0,0,5.066,1.515c.207.011.416.017.623.017a12.411,12.411,0,0,0,9.369-4.59,16.186,16.186,0,0,0,2.791-4.63,14.732,14.732,0,0,0,1.037-5.2,10.917,10.917,0,0,0-4.68-9.34,23.061,23.061,0,0,0-10.237-3.728A28.025,28.025,0,0,0,1228.256,5108.028Z"/><path class="g" d="M1244.074,5101.588a47.235,47.235,0,0,0-9.084,9.1c-2.521,3.254-4.187,7.317-7.216,10.153-1.529-1.665-3.322-6.164-6.371-4.379-2.531,1.481-.9,4.028.332,5.7,3.183,4.317,6.721,6.055,10.8,1.789,3.708-3.874,5.814-9.043,9.281-13.14,1.521-1.8,3.87-3.582,5.082-5.567,1.1-1.8-.26-5.544-2.825-3.659"/></g><g class="f"><path class="g" d="M1111.264,4982.1c-1.7-.773-1.66-1.622-.966-2.285a11.359,11.359,0,0,1-.441-3.168,74.717,74.717,0,0,1-.612-9.118c-.011-6.015,0-12.263,1.665-18.085a1.478,1.478,0,0,1-1.065-1.342c.007-3.047,9.253-2.972,14-2.9.991.016,1.785.031,2.258.019,3.365-.088,6.733-.1,10.1-.082.735,0,1.558-.046,2.408-.1a18.821,18.821,0,0,1,5.043.143c4.314,1,4.041,8.4,4.129,11.974a187.483,187.483,0,0,1-.455,19.56c-.18,2.209-1.787,5.01-3.62,1.964-1.023-1.7-.567-5.666-.569-7.543-.005-6.67,1.041-13.544.04-20.181-.327-2.175-.255-2.323-2.472-2.277-1.755.038-3.512.1-5.267.132-3.576.077-7.153.124-10.727.255-1.357.05-6.235.9-10.043.9,0,.031.006.061.006.092.052,2.572-1.209,5.694-1.38,8.4-.413,6.509.077,13.169-.53,19.645-.019.2-.029.406-.04.618.114-.017.226-.03.334-.036,2.835-.18,5.708-.106,8.548-.171,1.811-.042,3.646-.041,5.485-.038a103.7,103.7,0,0,0,12.16-.46c1.175-.154,1.587,1.356,1.059,2.138-.591.877-2.486.832-3.362.962a75.813,75.813,0,0,1-7.758.628c-2.721.121-5.443.211-8.165.287-1.58.044-4.451.5-6.83.5A7.6,7.6,0,0,1,1111.264,4982.1Z"/><path class="g" d="M1163.7,4981.323a1.136,1.136,0,0,1,.246-.714,4.8,4.8,0,0,1-1.1-1.942,33.911,33.911,0,0,1-1.073-9.254c-.145-6.58-.073-13.172-.113-19.755a1.692,1.692,0,0,1,.5-2.359c2.012-1.727,7.811-1.288,10.365-1.424,3.677-.194,7.356-.239,11.036-.256,3.9-.02,7.8.05,11.7.171,1.446.044,11.495.3,7,2.733a4.686,4.686,0,0,1-.863.353,14.191,14.191,0,0,1,.179,2.8c-.19,3.5-.272,7.014-.428,10.519-.173,3.913-.338,7.825-.473,11.742-.072,2.069.636,6.881-1,8.374-1.1,1-1.854.805-2.366.122-2.814.817-8.272.669-11.735.52-1.36-.058-2.411-.116-2.875-.115-1.554,0-6.73.527-11.289.527C1167.312,4983.366,1163.713,4982.94,1163.7,4981.323Zm2.478-22.44c-.008,6.662.238,13.287.386,19.912.005.217,0,.419-.014.6,3.184-.679,8.325-.552,11.657-.424,1.348.051,2.4.1,2.906.1,3.267-.013,6.535.032,9.8.164.37.014.936,0,1.6-.019a30.347,30.347,0,0,1,3.874.077c-.018-.177-.03-.34-.037-.48-.177-3.524.017-7.084.13-10.608.115-3.553.289-7.1.426-10.65.07-1.827-.391-5.64.11-8.266-2.374-.045-4.863-.332-6.463-.332-3.759,0-7.513-.044-11.27.031a108.942,108.942,0,0,0-12.189.665c-.221.03-.487.087-.78.155C1166.925,4952.38,1166.18,4956.507,1166.178,4958.883Z"/><path class="g" d="M1126.219,4981.894c-2.416,1.411-1.113,7.057-.276,9.01a16.169,16.169,0,0,0,7.181,7.39c6.089,3.368,14.866,2.472,19.471,8.314.048.06,1.64,1.636,2-.4.3-1.675-2.675-4.233-3.826-5.072-3.274-2.388-7.475-3.156-11.261-4.35-4.04-1.272-8.473-3.617-10.167-7.781-.6-1.474.541-9.259-3.124-7.107"/><path class="g" d="M1181.45,4984.608c-2.214.61-.75,3.657-.753,5.182a9.042,9.042,0,0,1-1.785,5.413c-2.974,3.852-8.8,4.429-13.165,5.533-3.17.8-10.755,2.524-11.053,6.811-.331,4.79,6.366-1.039,6.931-1.278,6.258-2.3,14.357-2.739,19.188-7.793a12.418,12.418,0,0,0,3.36-7.744c.106-1.618.124-6.9-2.723-6.124"/><path class="g" d="M1153.935,5042.306h0a20.2,20.2,0,0,1-6.39-1.089,20.837,20.837,0,0,1-5.862-3.084,15.987,15.987,0,0,1-4.291-4.8,12.687,12.687,0,0,1-1.689-6.25,12.9,12.9,0,0,1,1.415-5.991,15.944,15.944,0,0,1,3.738-4.692,27.359,27.359,0,0,1,10.941-5.551,15.338,15.338,0,0,1,3.915-.514,14.731,14.731,0,0,1,9.991,3.933,16.208,16.208,0,0,1,1.352,22.149,16.33,16.33,0,0,1-5.389,4.141,17.747,17.747,0,0,1-6.969,1.731C1154.448,5042.3,1154.193,5042.306,1153.935,5042.306Zm-12.638-20.812c-1.877,3.245-1.98,6.5-.3,9.413a13.312,13.312,0,0,0,5.707,5.072,18.049,18.049,0,0,0,7.917,1.9,12.948,12.948,0,0,0,5.465-1.114,10.8,10.8,0,0,0,5.485-5.7,12.8,12.8,0,0,0,.695-7.63,10.854,10.854,0,0,0-3.244-5.83,9.946,9.946,0,0,0-6.735-2.5,2.291,2.291,0,0,1,.521,1.6,1.124,1.124,0,0,1-.577.747,1.335,1.335,0,0,1-.666.21c-.552,0-.916-.511-1.268-1a2.284,2.284,0,0,0-1.048-.985,1.533,1.533,0,0,0-.408-.052,7.121,7.121,0,0,0-3.445,1.6,13.765,13.765,0,0,0-1.545,1.581c-1.43,1.593-3.389,3.775-4.962,3.775A1.84,1.84,0,0,1,1141.3,5021.494Z"/><path class="g" d="M1147.854,5024.115a1.608,1.608,0,0,0,3.211,0c0-2.011-3.211-2.1-3.211,0"/><path class="g" d="M1153.5,5023.733c0,2.49,3.935,2.49,3.935,0,0-2.463-3.935-2.568-3.935,0"/><path class="g" d="M1149.46,5029.537c-3.218,1.893,5.986,5.655,6.349,1.811.154-1.658-1.449-1.211-2.519-1.333-1.025-.118-2.858-1.045-3.83-.478"/><path class="g" d="M1148.063,5042.969c.141,4.834.077,9.666.991,14.434.175.905.3,4.19,1.011,4.863,1.76,1.655,1.789-1.517,1.861-2.733.241-4.353-.216-8.839-.317-13.205-.022-.939.227-2.884-.217-3.793-.7-1.442-3.4-1.87-3.329.434"/><path class="g" d="M1144.622,5039.047c-7.055,7.919-16.771,7.339-26.559,8.029-5.171.366-10.4,1.119-14.562,4.464a17.656,17.656,0,0,0-4.725,5.726c-.49.971-2.815,6.574.676,5.245,1.236-.471,2.458-4.177,3.259-5.273a15.557,15.557,0,0,1,5.822-4.93c4.516-2.163,9.91-2.123,14.808-2.4,5.119-.286,10.615-.554,15.32-2.781a23.171,23.171,0,0,0,6.072-4.036c.637-.6,2-1.622,2.1-2.544.117-1.051-.9-2.976-2.212-1.5"/><path class="g" d="M1109.005,5063.353c-6.628.222-13.247.49-19.866.908-1.359.086-5.878-.187-4.726,2.591.923,2.228,6.438.754,8.266.646,6.9-.409,13.821-.551,20.7-1.172,1.545-.139,8.534-.083,5.649-2.823-1.377-1.3-8.13-.215-10.026-.15"/><path class="g" d="M1080.2,5066.549c-2.089,2.744-1.128,9.411-.971,12.711.155,3.2-.468,9.038,3.708,9.536-1.324-.174,1.005.077,1.386.1.849.045,1.7.06,2.549.069,1.96.022,3.92,0,5.879-.044,4.439-.089,8.888-.218,13.321-.463,1.863-.1,11.974-.017,12.371-1.953.511-2.472-9.18-1.074-10.915-.995-4.225.194-8.457.232-12.685.29-2.1.027-4.194.047-6.29.007-.865-.017-4.293.338-4.819-.239-.449-.491-.1-5.011-.108-5.7-.031-2.254-.029-4.512.051-6.765.055-1.516.874-4.4.206-5.826a2.307,2.307,0,0,0-3.055-1.147,2.336,2.336,0,0,0-.628.42"/><path class="g" d="M1114.33,5066.678c.122,5.022.159,10.141,1.344,15.049.4,1.634.948,5,2.589,5.848,1.723.888,3.21-.379,3.322-2.086.142-2.146-1-4.962-1.243-7.164-.275-2.569-.436-5.14-.529-7.725-.071-1.938.52-4.849-1.331-6.1a2.669,2.669,0,0,0-4.152,2.179"/><path class="g" d="M1127.523,5065.453c-2.064,2.053-1.143,8.554-.885,11.192.188,1.931,2.3,11.438,5.472,6.481,1.4-2.192-.379-7.99-.366-10.547.008-1.628.584-3.687.309-5.253-.37-2.065-2.663-3.741-4.53-1.873"/><path class="g" d="M1132.086,5087.025c-1.579-.066-3.266-.582-2.866-2.627.355-1.81,2.177-1.824,3.662-1.976a128.075,128.075,0,0,1,13.45-.6c9.449.033,18.89-.017,28.339-.066a2.046,2.046,0,0,1,1.054.405c-.493-.6-.256-1.487-.347-2.353-.248-2.338-.409-4.635-.85-6.972-.355-1.87-.618-5.045-2.354-6.221-1.475-1-4.351-.964-6.616-.927-.641.01-1.236.02-1.73.008a157.5,157.5,0,0,0-18.229.83c-2.756.251-5.547.442-8.273.936-1.518.276-5.971,2.5-7.185,1.133-2.917-3.3,9.912-4.656,11.651-4.836,6.191-.638,12.39-1.118,18.616-1.178,4.2-.032,11.4-.391,14.486,3.059,1.854,2.071,2.508,5.485,3.232,8.067.556,1.985,2.065,5.562.993,7.614-.485.927-1.266,1.719-2.451,1.391a2.244,2.244,0,0,1-.664-.291,1.721,1.721,0,0,1,.36,1.876c-.708,1.644-3.316,1.29-4.732,1.408-4.727.394-9.476.657-14.22.695-2.257.02-4.515,0-6.772-.017-2.326-.019-4.653-.038-6.978-.015-3.472.034-7.074.677-10.543.677Q1132.6,5087.044,1132.086,5087.025Z"/><path class="g" d="M1210.9,5059.822h0c-1.143,0-2.317-1.945-3.1-3.231a11.2,11.2,0,0,0-.661-1.021,10.758,10.758,0,0,0-5.288-3.9,62.326,62.326,0,0,0-12.765-2.4c-1.463-.17-2.976-.347-4.425-.554-.748-.106-1.511-.2-2.318-.309-3.885-.491-8.288-1.048-11.608-2.927-1.455-.818-6.048-5.026-6.071-7.833a2.036,2.036,0,0,1,1.1-1.86,2.3,2.3,0,0,1,1.142-.361c1.109,0,1.727,1.209,2.272,2.275.173.341.338.662.509.927a9.069,9.069,0,0,0,5.566,4.023,83.532,83.532,0,0,0,10.774,2.123c.927.14,1.887.285,2.826.436.768.123,1.566.243,2.338.36,4.256.642,8.652,1.305,12.5,3a22.705,22.705,0,0,1,4.8,3.969c1.33,1.369,3.576,3.931,3.675,5.709a1.439,1.439,0,0,1-.742,1.423A1.052,1.052,0,0,1,1210.9,5059.822Z"/><path class="g" d="M1188.887,5086.3c-1.616-.155-3.352-.727-2.951-2.764-1.124-2.157-1.641-6.3-1.742-7.116a75.6,75.6,0,0,1-.405-10.553,2.313,2.313,0,0,1,3.709-1.783c1.931-.808,5.2-.927,6.952-1.107,2.885-.291,5.794-.4,8.688-.573,6.754-.4,13.5-1.132,20.269-1.281,2.025-.043,4.737-.226,6.357,1.269,1.844,1.7,2.211,5.924,2.764,8.2a55.553,55.553,0,0,1,1.567,7.519,14.385,14.385,0,0,1,.146,2.531,1.583,1.583,0,0,1,1.261,1.825c-.154,1.657-2.453,1.883-3.8,2.145-4.467.872-9.243.674-13.771.8-7.344.207-15.081,1.172-22.586,1.172C1193.17,5086.585,1191.011,5086.5,1188.887,5086.3Zm.943-4.713h.609q7.148-.125,14.291-.411c4.857-.186,9.714-.394,14.574-.449,1.694-.02,3.409.033,5.129.086,2.2.068,4.418.136,6.6.052-.836-2.19-.71-5.639-1.158-7.905s-.612-4.922-1.517-7.037c-1.019-2.379-1.905-1.829-4.558-1.649-2.728.185-5.454.446-8.179.67-5.992.493-11.989.805-17.984,1.222-3.11.217-6.086,1.1-9.128,1.453-.046,1.085-.2,2.18-.182,2.973.052,2.337.282,4.657.484,6.984.082.947.473,2.58.532,4.012h.483Z"/></g></g><g transform="translate(0 -1047)"><path class="i" d="M1083.969,5092.828l3.443-24.357c-5.486,3.306-10.875,4.9-13.405,4.251-6.343-1.634-6.925-24.842-2.017-33.991s30.143-13.137,31.413,4.99c.441,6.291-2.2,11.906-6.1,16.488l7,32.619Z"/><path class="j" d="M1064.575,5032.11a9.122,9.122,0,0,0,1.946,2.123,4.312,4.312,0,0,0-1.4,1.163,2.555,2.555,0,0,0-.342,1.641,6.954,6.954,0,0,0,.617,2.108,5.2,5.2,0,0,0,1.193,1.617,1.77,1.77,0,0,0-1.1.88,2.739,2.739,0,0,0-.23.717c-.07.3-.193.583-.253.888a2.3,2.3,0,0,0,.194,1.507,3.953,3.953,0,0,0,1.711,1.481,5.262,5.262,0,0,0,3.137-.237,9.566,9.566,0,0,0,1.247-2.752,17.215,17.215,0,0,1,1.855-3.3,10.04,10.04,0,0,1,2.792-2.771c.227-.143.607-.538.868-.386.168.1.277.392.387.546a3.917,3.917,0,0,0,.482.537,7.521,7.521,0,0,0,2.806,1.541,15.582,15.582,0,0,1,3.036,1.228,4.387,4.387,0,0,1,1.763,2.277c.353.928.525,1.914.795,2.868a17.5,17.5,0,0,0,1.459,3.578,4.768,4.768,0,0,0,1.063,1.415c.265.223.856.674,1.215.415.163-.119.139-.338.187-.516.077-.286,1.645-3.339,3.029-3.652,1.315-.3,4.625-.3,5.729.3,2.369,1.294,2.667,4.119,1.947,6.48a7.389,7.389,0,0,1-1.592,2.976,3.237,3.237,0,0,1-1.265.89,3.871,3.871,0,0,1-1.637.205,3.326,3.326,0,0,1,.1.843,9.1,9.1,0,0,0-.069.963,4.993,4.993,0,0,0,.377,1.792,3.759,3.759,0,0,1,.354.9c.025.24,0,.484.037.726a4.017,4.017,0,0,0,.408,1.327,3.047,3.047,0,0,0,4.842.636,7.2,7.2,0,0,0,4.574,3.78c1.621.425,3.9.473,5.013-1.02a6.822,6.822,0,0,0,1.451.995,6.48,6.48,0,0,0,6.477-.184,5.259,5.259,0,0,0,2.082-2.8,8.821,8.821,0,0,0,.1-3.8c-.021-.145-.1-.41-.05-.53s.213-.145.337-.2a3.918,3.918,0,0,0,.684-.416,3.682,3.682,0,0,0,1.042-1.24,5.946,5.946,0,0,0,.421-3.681,13.439,13.439,0,0,0-.463-1.9c-.1-.306-.2-.61-.319-.909a9.429,9.429,0,0,1-.381-.884c-.058-.213-.034-.095.079-.24a1.989,1.989,0,0,1,.169-.159,3.893,3.893,0,0,0,.272-.293,4.124,4.124,0,0,0,.437-.635,4.634,4.634,0,0,0,.5-1.417,8.747,8.747,0,0,0-.1-3.229,7.921,7.921,0,0,0-.595-1.869c-.085-.181-.217-.362-.288-.549-.065-.167-.033-.168.066-.327a5.439,5.439,0,0,0,.415-.818,8.153,8.153,0,0,0,.127-5.586,6.865,6.865,0,0,0-3.37-4.024,6.152,6.152,0,0,0-1.314-.473,6.847,6.847,0,0,0-.748-.132c-.073-.008-.265.011-.313-.033a1.423,1.423,0,0,1-.051-.337,5.744,5.744,0,0,0-1.289-2.733,5.844,5.844,0,0,0-2.488-1.666c-.188-.066-.258-.069-.362-.22a2.94,2.94,0,0,1-.182-.411c-.126-.269-.265-.532-.415-.788a8.58,8.58,0,0,0-1.109-1.489,7.556,7.556,0,0,0-3-2.129,3.331,3.331,0,0,0-1.9-.072,6.961,6.961,0,0,0-1.349.6c-.049-.131-.232-.239-.324-.342-.158-.177-.283-.381-.422-.572a4.279,4.279,0,0,0-1.181-1.074,8.392,8.392,0,0,0-3.185-1.252,6.413,6.413,0,0,0-3.25.3c-.192.071-.594.35-.782.348s-.6-.3-.774-.38a6.047,6.047,0,0,0-1.626-.459,4.189,4.189,0,0,0-2.692.6c-.211.128-.187.069-.338-.115q-.133-.162-.276-.317c-.154-.17-.323-.334-.491-.492a11.372,11.372,0,0,0-1.018-.843c-1.679-1.234-3.625-1.335-5.642-1.35a7.99,7.99,0,0,0-5,1.521c-.116.089-.4.443-.546.466s-.546-.295-.675-.36a10.643,10.643,0,0,0-1.32-.564,6.584,6.584,0,0,0-2.719-.371,7.533,7.533,0,0,0-4.527,2.139,6.209,6.209,0,0,0-1.489,2.225,6.064,6.064,0,0,0-.23.759,1.218,1.218,0,0,1-.067.326c-.064.095-.1.055-.238.05a4.058,4.058,0,0,0-1.13.112,4.379,4.379,0,0,0-3.066,3.109A6.631,6.631,0,0,0,1064.575,5032.11Z"/><path class="i" d="M1005.383,5300.211c-2.592,0-5.368-1.726-5.821-4.553-.853-5.34-17.214-89.832-17.239-107.759-.007-5.992,11.7-11.374,18.675-7.185,4.793-5.113,13.864-8.06,19.074.386,3.314,5.37,11.183,20.616,19.577,38.418,7.353,15.595,18.844,53.452,18.844,53.452l-9.755,4.459s-24.752-39.8-39.878-67c.7,6.122,1.423,13.019,2.088,20.267,1.576,17.171,0,54.266-.847,64.981A4.526,4.526,0,0,1,1005.383,5300.211Z"/><path class="k" d="M1036.182,5266.8c-1.85-5.061-33.433-60.064-39.642-77.054-2.736-7.483,19.753-23.012,27.774-10.109l33.482,79.316Z"/><path class="l" d="M1053.447,5272.221c-2.011,1.161-6.095,1.518-6.095,1.518l-2.967-2.286-.019-.014a.847.847,0,0,0-1.183.188L1028.9,5291.3s-2.1,1.669-5.33,4.1,1.462,6.832,1.462,6.832l41.373-23.887a54.4,54.4,0,0,0-2.683-6.171l-4.248-4.126c-.02-.019-.041-.039-.062-.057a1.694,1.694,0,0,0-2.391.155Z"/><path class="l" d="M1004.74,5291.955c-2.322,0-6.036-1.733-6.036-1.733l-1.428-3.463-.009-.022a.847.847,0,0,0-1.119-.428l-22.2,9.9s-2.653.4-6.666.887-2.15,6.648-2.15,6.648H1012.9a54.6,54.6,0,0,0,.762-6.687l-1.616-5.7c-.008-.027-.016-.054-.026-.081a1.7,1.7,0,0,0-2.148-1.061Z"/><path class="b" d="M990.818,5178.708c19.842-3.7,73.265-14.479,83.507-15.575h50.3c-.852,29.663-11.357,45.677-36.75,45.673-17.609,0-76.325-6.625-77.793-5.862s3.581,71.017,3.581,71.017l-22.993-.018c-.007-4.955-10.694-57.447-10.694-79.95C979.978,5187.794,982.324,5180.295,990.818,5178.708Z"/><path class="m" d="M1019.705,5136.913s-8.36-6.041-15.56-8.047c-9.175-2.559-12.887-4.513-17.371-10.226-2.4-3.057-4.439-9.2-2.152-11.2,1.544-1.353,10.5,5.309,14.171,6.065,1.822.374,1.91-1.582,1.772-3.538-.14-1.986-.512-3.972.463-3.518,3.781.065,6.5,10.408,6.5,10.408l12.915,7.1Zm35.926-14.9-21.359-19.56q-16.881-4.653-15.44-6.807c.808-1.209,2.111-1.17,3.311-1.132.942.031,1.821.061,2.351-.508,1.2-1.3-1.1-5.83-3.473-10.039s.165-3.842,1.615-3.236a72.7,72.7,0,0,1,14.452,13.525l29.4,16.1Z"/><path class="n" d="M1073.114,5125.946c-12.426.348-26.638-7.893-36.744-17.923l5.754-12.832a72.245,72.245,0,0,0,38.687,11.585C1087.911,5113.826,1082.906,5125.671,1073.114,5125.946Z"/><path class="o" d="M1084.3,5196.869c-9.554,0-17.383-1.8-20.212-7.816-3.782-8.037-4.908-16.84-4.413-26.089-15.585-.339-34.505-5.48-56.582-17.013-.719-8.434,8.852-28.243,8.852-28.243s37.928,13.5,55.008,9.619c5.355-18.13,11.876-36.482,13.172-53.134h23.5c2.578,0,20.094,33.579,20.111,55.4.014,19.918,4.717,29.739,2.476,63.538-5.592-1.1-8.727.408-19.07,1.752C1099.473,5195.876,1091.407,5196.872,1084.3,5196.869Z"/></g><g transform="translate(0 -1047)"><path class="p" d="M808.372,5148.723a10.4,10.4,0,0,1,5.281.553c3.485,1.477,4.475,5.6,4.429,8.942-.052,3.6-.816,7.534,1.922,10.435,1.258,1.335,2.824,2.355,4.059,3.714a17.543,17.543,0,0,1,3.124,4.9c1.409,3.276,2.1,7.129.812,10.566-1.134,3.026-3.988,5.757-3.371,9.2.642,3.593,4.26,6.334,6.523,9.01,2.56,3.026,4.921,6.893,5.3,10.861a14.264,14.264,0,0,1-3.824,10.522c-5.075,5.744-12.7,8.559-20.4,8.542-3.266-.007-6.964-.155-9.78-1.91a5.394,5.394,0,0,1-1.849-2,6.5,6.5,0,0,0-1.787-1.789,10.617,10.617,0,0,1-3.405-4.547c-2.791-6.909-.56-15.457,3.347-21.59.926-1.454,1.684-2.853,1.234-4.585a17.723,17.723,0,0,0-2.646-5,40.127,40.127,0,0,1-2.947-4.664,10.584,10.584,0,0,1-.912-5.466,18.6,18.6,0,0,1,4.006-9.758c2.1-2.772,4.579-5.424,4.584-9.055.006-3.849-2.567-7.274-1.47-11.187a7.455,7.455,0,0,1,2.835-4.254A11.531,11.531,0,0,1,808.372,5148.723Z"/><path class="q" d="M807.22,5154.876a.888.888,0,0,1,1.031-.716.808.808,0,0,1,.1.024c.635.177.623.771.606,1.3a17.463,17.463,0,0,0,.575,4.783c.812,3.28,2.311,6.3,3.5,9.452a17.177,17.177,0,0,1,1.049,9.729c-.657,3.141-1.689,6.2-2.363,9.344-.593,2.772-1.223,5.694-.321,8.459.869,2.661,2.789,4.828,4.173,7.232a34.1,34.1,0,0,1,4.3,16.184,30.248,30.248,0,0,1-.6,7.89c-.353,1.491-.826,3.506-2.1,4.534a1.461,1.461,0,0,1-2.092-.062c-.465-.659-.057-1.679.091-2.382a36.127,36.127,0,0,0,.615-9.236,33.39,33.39,0,0,0-1.443-8.833,29.9,29.9,0,0,0-3.762-7.352c-1.592-2.363-3.246-4.731-3.9-7.531-.668-2.843-.123-5.737.6-8.526.767-2.953,1.773-5.816,2.812-8.687a15.235,15.235,0,0,0,.813-8.369C809.792,5166.328,806.835,5160.9,807.22,5154.876Z"/><path class="p" d="M854.9,5155.74a13.22,13.22,0,0,1,5.9,3.406c3.3,3.562,2.291,8.945.467,12.877-1.964,4.232-4.94,8.489-3.26,13.342.771,2.232,2.068,4.254,2.8,6.5a22.7,22.7,0,0,1,1.076,7.416c-.08,4.607-1.306,9.524-4.633,12.917-2.929,2.989-7.72,4.737-8.815,9.124-1.143,4.58,1.651,9.707,2.891,14.046,1.4,4.911,2.125,10.71.482,15.6-1.574,4.69-5.548,8.377-10.047,10.457-8.989,4.152-19.426,3.513-28.438-.51-3.827-1.708-8.086-3.806-10.464-7.348a6.937,6.937,0,0,1-1.113-3.321,8.351,8.351,0,0,0-1.154-3.048,13.675,13.675,0,0,1-1.587-7.149c.378-9.623,7.513-18.571,15.338-23.795,1.855-1.237,3.483-2.5,3.871-4.78a22.894,22.894,0,0,0-.46-7.283,52.138,52.138,0,0,1-.991-7.048,13.8,13.8,0,0,1,1.82-6.941,24.3,24.3,0,0,1,9.854-9.455c3.937-2.182,8.238-4.032,10.164-8.324,2.041-4.552.833-9.936,4.187-13.994a9.706,9.706,0,0,1,5.575-3.557A14.778,14.778,0,0,1,854.9,5155.74Z"/><path class="q" d="M850.441,5163.263a1.131,1.131,0,0,1,1.567-.317,1.156,1.156,0,0,1,.116.088c.65.544.325,1.241.028,1.858a22.92,22.92,0,0,0-1.833,5.967c-.767,4.309-.595,8.673-.854,13.029a22.518,22.518,0,0,1-3.868,12.071c-2.413,3.374-5.223,6.458-7.656,9.827-2.145,2.972-4.413,6.1-4.8,9.85-.378,3.606.732,7.179,1.09,10.752a44.7,44.7,0,0,1-3.444,21.42,39.579,39.579,0,0,1-4.839,9.027c-1.193,1.58-2.8,3.717-4.834,4.266a1.855,1.855,0,0,1-2.412-1.172c-.2-1.024.812-2.019,1.353-2.773a47.224,47.224,0,0,0,5.556-10.614,43.76,43.76,0,0,0,2.939-11.217,39.084,39.084,0,0,0-.551-10.676c-.624-3.633-1.318-7.3-.621-10.965.708-3.718,2.859-6.86,5.167-9.78,2.443-3.092,5.12-5.959,7.839-8.813a19.9,19.9,0,0,0,5.334-9.488C847.451,5178.172,846.837,5170.193,850.441,5163.263Z"/><path class="q" d="M787.488,5183.062a11.7,11.7,0,0,1,9.009,4.649c2.571,3.193,3.091,7.091,4.134,10.9a9.735,9.735,0,0,0,2.979,5.061c1.424,1.168,3.233,1.4,4.937,1.975a11.523,11.523,0,0,1,7.245,7.251c1.326,4.1-.079,8.227.163,12.378.222,3.813,3.98,6.19,7,8.017,2.982,1.8,5.669,3.489,6.567,7,.952,3.723,1.272,7.879-.048,11.557-2.2,6.124-8.623,8.82-14.834,9.238-5.636.38-12.723-.216-16.955-4.305a12.044,12.044,0,0,1-3.337-9.279,28.3,28.3,0,0,1,1.033-6.265,28.211,28.211,0,0,0,1.052-4.394c.394-3.989-3.293-4.755-6.431-5.85a15.31,15.31,0,0,1-8.72-7.686,14.63,14.63,0,0,1-1.482-10.993,12.839,12.839,0,0,1,2.918-5.138c.6-.652,1.445-1.195,1.985-1.879a2.529,2.529,0,0,0,.221-2.214c-.8-3.454-3.311-6.316-4.21-9.767-.807-3.114-.328-6.992,2.522-9A7.437,7.437,0,0,1,787.488,5183.062Z"/><path class="r" d="M792.428,5192.068c3.843,4.1,4.887,9.648,5.194,15.03.171,3.019-.007,6.2.879,9.131.759,2.506,2.538,4.421,4.371,6.231,3.691,3.645,7.808,7.35,8.887,12.624.634,3.1.206,6.293,1.082,9.354a25.742,25.742,0,0,0,3.9,7.866c1.373,1.892,3.161,3.341,4.661,5.106.458.538,1.113,1.331.923,2.091-.221.89-1.353,1.172-2.16,1.032-1.875-.326-3.454-2.117-4.681-3.419a29.38,29.38,0,0,1-4.556-6.249,26.275,26.275,0,0,1-2.953-8.119c-.492-2.969-.246-6.064-1.367-8.914-1.886-4.8-6.459-7.627-9.77-11.361-4.121-4.657-3.506-10.453-3.085-16.181.232-3.148.463-6.7-1.128-9.577-.607-1.1-1.961-2.122-2.222-3.369C790.165,5192.2,791.47,5191.047,792.428,5192.068Z"/><path class="s" d="M796.526,5259.336c0,23.41,3.821,35.676,23.989,35.676s23.99-12.266,23.99-35.676Z"/><rect class="t" width="214.404" height="17.37" rx="1.954" transform="translate(873.956 5153.405)"/><rect class="t" width="137.957" height="17.37" rx="1.954" transform="translate(891.326 5157.056) rotate(90)"/><rect class="u" width="6.33" height="71.256" transform="translate(1079.127 5214.547)"/><path class="s" d="M1112.216,5220.879h-74.371a6.332,6.332,0,0,1,0-12.663h74.371a4.306,4.306,0,0,0,4.213-3.344l20.474-88.007a6.33,6.33,0,1,1,12.331,2.869l-20.474,88.008A16.912,16.912,0,0,1,1112.216,5220.879Z"/><path class="s" d="M1113.291,5294.757h-6.33a5.8,5.8,0,0,0-5.79-5.788h-37.2a5.8,5.8,0,0,0-5.789,5.788h-6.33a12.132,12.132,0,0,1,12.119-12.118h37.2A12.133,12.133,0,0,1,1113.291,5294.757Z"/><rect class="t" width="137.957" height="17.37" rx="1.954" transform="translate(1088.36 5157.056) rotate(90)"/><path class="v" d="M691.47,5289.124V4961.548a16,16,0,0,1,4.684-11.311l49.432-49.453,0,0a8,8,0,0,1,11.314,0l18.568,18.576"/><rect class="r" width="59" height="7" rx="3" transform="translate(662.47 5288.124)"/><path class="q" d="M810.971,4908.458l19.8,19.8h0l-46.669,46.67h0l-19.8-19.8a33,33,0,0,1,0-46.67h0A33,33,0,0,1,810.971,4908.458Z"/><ellipse class="w" cx="33" cy="6.5" rx="33" ry="6.5" transform="translate(778.715 4969.793) rotate(-45)"/></g><g transform="translate(0 -1047)"><path class="x" d="M828.808,5264.761l12.651-.489q-2.278,12.653-5.306,28l-8.494-.035Q828.32,5276.863,828.808,5264.761Z"/><path class="n" d="M847.011,5202.582a9.813,9.813,0,0,1,1.655,2.045c6.453,11.373,5.571,38.894-8.855,77.376l-13.756.24c-3.218-32.1-.523-52.575-1.258-57.2h0C824.032,5208.37,837.215,5193.515,847.011,5202.582Z"/><path class="y" d="M824.437,5291.762a1.561,1.561,0,0,1,2.055-.8,12.6,12.6,0,0,0,4.821,1.319,14.03,14.03,0,0,0,5.529-1.692l1.258-3.21.008-.02a.779.779,0,0,1,1.022-.413l20.6,8.755q2.449.323,6.151.708t2.085,6.085l-43.974.767a38.977,38.977,0,0,1-.81-6.142,16.7,16.7,0,0,1,1.217-5.25C824.409,5291.83,824.422,5291.8,824.437,5291.762Z"/><path class="n" d="M851.469,5213.413c-3.008,10.73-15.392,5.02-19.063,3s-7.985-6.568-10.708-12.309c-.944-1.989-42.774-81.384-15.415-116.442l34.194,21.538C850.009,5162.509,854.477,5202.681,851.469,5213.413Z"/><path class="z" d="M785.613,5270.842l10.589.137-7.234,28.36-9.018,2.5Z"/><path class="o" d="M824.725,5205.111c-9.759,34.032-20.508,64.963-24.788,77.581l-21.078,1.793c4.381-14.29,5.446-50.808,7.636-87.79.834-10.423,6.992-16.825,20.772-15.5C818.831,5182.313,827.878,5189.979,824.725,5205.111Z"/><path class="y" d="M779.335,5293.2a1.561,1.561,0,0,1,2.087-.715,12.55,12.55,0,0,0,4.759,1.526,14.032,14.032,0,0,0,5.6-1.453l1.394-3.153.01-.021a.779.779,0,0,1,1.039-.368l20.2,9.631q2.433.426,6.114.971t1.822,6.169l-43.966-1.12a39.068,39.068,0,0,1-.546-6.172,16.743,16.743,0,0,1,1.441-5.193C779.3,5293.266,779.319,5293.232,779.335,5293.2Z"/><path class="o" d="M829.443,5094.528c5.986,23.659,2.2,67.659-3.449,107.812-2.088,14.189-11.845,15.187-21.857,15.234-11.484.054-16.247-7.123-17.172-18.248-2.7-33.478-4.536-67.463.027-86.353Z"/><path class="x" d="M902.038,5063.134c3.834-3.163,7.268-6.924,10.743-8.448.73-.332,1.4-.515,2.052-.893,1.9-1.1,5.2.947,13.091-3.519,4.991-2.824,4.146-7.63,4.047-7.663-1.529-1.858-5.055-.967-6.383-.344-2.052.961-1.842,1.329-4.727,1.446-1.123.045,2.666-3.784-.1-3.837-7.447-.141-8.325,6.028-9.168,6.529l-2.739,1.555-8.2,3.905Z"/><path class="k" d="M813.668,5059.959c6.553,6.511,30.129,22.758,39.717,26.529,7.741,3.045,9.464-7.394,11.123-12.424,1.932-5.857-6.88-11.337-11.857-14.438-7.67-6.072-15.664-12-22.851-18.148l0,0c-3.535-2.96-13.314-1.934-16.819,2.537C807.765,5050.668,810.711,5057.02,813.668,5059.959Z"/><path class="k" d="M847.119,5080.818c5.108,5.975,21.96,4.378,21.96,4.378,13.571-1.193,29.3-3.62,47.878-14.909q.155-7.4-9.322-24.155c-21.948,9.447-37.375,13.066-47.681,14.715-4.061.893-8.736.951-12.286,7.321C845.09,5072.794,843.9,5076,847.119,5080.818Z"/><path class="z" d="M808.229,5052.967l18.367,2.307-.347-22.4c4.581,3.609,9.268,5.664,11.628,5.362,5.917-.757,9.078-21.658,5.681-30.48s-25.742-15.29-28.948.944c-1.112,5.634.637,11,3.643,15.587Z"/><path class="x" d="M826.424,5044.193l-6.549,1.687,2.215-19.438,4.159,6.435Z"/><path class="b" d="M849.908,5121.473l-70.749,6.076s7.476-52.29,16.73-71.422c5.176-10.7,7.5-14.345,13.036-19.714l1.312-.046.011.012,20.2,3.889C831.648,5074.729,843.393,5096.333,849.908,5121.473Z"/><path class="z" d="M883.487,5100.1c4.779-1.364,9.432-3.435,13.226-3.441.8-.012,1.487.088,2.239,0,2.183-.245,4.385,2.949,13.4,2.017,5.7-.591,6.854-5.333,6.777-5.4-.658-2.315-4.245-2.91-5.712-2.872-2.265.06-2.22.481-4.911-.567-1.046-.408,3.958-2.4,1.442-3.557-6.767-3.11-10.041,2.191-11.015,2.313l-3.133.328-9.076.3Z"/><path class="b" d="M803.779,5061.809c3.4,8.59,18.5,32.917,25.774,40.211,5.875,5.89,11.633-2.987,15.167-6.932,4.115-4.594-1.766-13.144-5.085-17.978-4.6-8.634-9.552-17.263-13.675-25.778l0,0c-2.055-4.128-11.426-7.1-16.428-4.409C802.088,5050.932,802.245,5057.932,803.779,5061.809Z"/><path class="b" d="M826.081,5094.315c2.289,7.521,18.371,12.8,18.371,12.8,12.914,4.34,28.3,8.412,49.843,5.5q3.105-6.723,1.127-25.867c-23.894-.129-39.48-2.989-49.584-5.6-4.079-.807-8.386-2.626-14.189,1.79C827.434,5086.15,825.056,5088.609,826.081,5094.315Z"/><path class="aa" d="M806.248,5003.338c-1.978-.033-4.439.674-5.612,2.561-1.522,2.452.194,5.471,2.2,6.8-4.038,3.1,2.523,8.182,5.345,8.57-.663,2,1.672,2.873,2.942,3.511a2.771,2.771,0,0,0-.348,3.617,3.423,3.423,0,0,0,4.211.624c.325-.191.4-.465.658-.7a1.625,1.625,0,0,1,.75-.239,2.784,2.784,0,0,0,1.493-1.488c.694-1.257,1.045-2.784,2.122-3.758-1.247-.651-2.758-1.262-3.523-2.626-1.318-2.348.526-5.355,2.874-5.785a5.884,5.884,0,0,1,5.612,2.756,9.971,9.971,0,0,1,2.176-3.2c.563-.535,1.553-1.293.355-1.707-2.65-.915-5.448-1.366-8.131-2.174,2.816.193,5.618.687,8.447.619a2.318,2.318,0,0,0,2.285-1.009,10.985,10.985,0,0,0,1.22-3.792,8.329,8.329,0,0,0,2.841,1.012c.388.017.775-.062,1.163-.039a1.392,1.392,0,0,1,1.009.552,9.768,9.768,0,0,0,4.339,2.674,10.759,10.759,0,0,0,2.927.582,1.979,1.979,0,0,0,.37-.1,4.263,4.263,0,0,1,.791.119,2.625,2.625,0,0,0,1.962-.425,2.124,2.124,0,0,0-.3-3.589,16.563,16.563,0,0,0,3.449-2.906,11.569,11.569,0,0,0,1.342-1.765,2.114,2.114,0,0,0,.422-1.308c-.233-1.37-2.892-.73-3.669-.412a2.6,2.6,0,0,1,.01-.892,1.646,1.646,0,0,0,.033-.864,1.762,1.762,0,0,0-.926-.987,4.319,4.319,0,0,0-1.611-.475c-.283-.028-.958.113-1.078-.233a2.213,2.213,0,0,1,.17-1.029,14.963,14.963,0,0,0,.3-1.5c.106-.671.2-1.343.3-2.015a5.406,5.406,0,0,0,.115-1.5c-.192-1.32-1.559-1.47-2.566-1.31a5.609,5.609,0,0,0-1.955.725c-.435.257-.85.549-1.281.816-.287.176-.518.425-.805.205-.674-.519-.966-1.612-1.431-2.322a5.135,5.135,0,0,0-2.134-1.785,5.9,5.9,0,0,0-5.582.561,6.5,6.5,0,0,0-1.063.831c-.277.271-.489.486-.878.365a3.142,3.142,0,0,1-.934-.6c-.344-.268-.706-.511-1.073-.744a7.985,7.985,0,0,0-4.83-1.331,5.41,5.41,0,0,0-4.207,2.345,11.071,11.071,0,0,0-1.68,5.332c-.818-.413-1.528-1.036-2.379-1.384a7.082,7.082,0,0,0-2.707-.538,5.83,5.83,0,0,0-3.97,1.4c-1.331,1.26-1.467,3.256-1.2,5.018a22.845,22.845,0,0,0,.593,2.6,5.8,5.8,0,0,0,1.049,2.324"/></g></g></svg>