<svg id="Layer_1" data-name="Layer 1" xmlns="http://www.w3.org/2000/svg" width="398" height="106.0077" viewBox="0 0 398 106.0077">
  <defs>
    <style>
      .cls-1 {
        fill: #ec0000;
      }
    </style>
  </defs>
  <path class="cls-1" d="M132.48808,92.947a30.99865,30.99865,0,0,0-7.82268,1.16515V114.9166h2.91281V96.10943a21.81843,21.81843,0,0,1,4.82678-.58274c5.118,0,6.57428,1.99727,6.57428,5.867V114.9166h2.91254v-14.064C141.89181,95.81807,139.52016,92.947,132.48808,92.947Zm47.26823,17.60085a8.40676,8.40676,0,0,1-5.90854,2.37159c-3.74478,0-5.49239-1.831-5.49239-6.15809V93.44646h-2.91263v13.89727c0,5.534,2.663,8.07233,7.48953,8.07233a9.20685,9.20685,0,0,0,6.90717-2.37192l.08315,1.87249h2.74612V93.44643h-2.91241Zm-24.13349-7.44837-1.95552-.66572c-2.57984-.87375-4.20245-1.5812-4.20245-3.91105,0-2.039,1.62266-3.079,4.82654-3.079a17.76323,17.76323,0,0,1,6.075,1.04,11.21725,11.21725,0,0,0,.416-2.455,18.16341,18.16341,0,0,0-6.57427-1.08177c-4.70175,0-7.53125,1.95552-7.53125,5.65873,0,3.32918,2.03888,5.20131,5.742,6.32483l1.914.58235c1.99727.62442,4.286,1.49818,4.286,3.99443,0,2.372-1.95577,3.37043-5.1597,3.37043a14.54454,14.54454,0,0,1-6.78227-1.62248,8.35923,8.35923,0,0,0-.41608,2.538,14.39788,14.39788,0,0,0,7.2815,1.62284c4.99315,0,7.90579-2.20518,7.90579-5.99168C161.44818,105.80424,158.91012,104.223,155.62282,103.09948Zm11.36605-33.45041h6.75863V49.00438c0-7.43485-3.62514-11.79715-14.93056-11.79715a57.57985,57.57985,0,0,0-12.28849,1.72011V69.64907h6.75863V43.47439a33.8856,33.8856,0,0,1,5.34562-.49154c6.75863,0,8.3562,2.33522,8.3562,7.18886Zm-34.40931-3.68633.36859,3.68633H139.154V38.92747a34.43674,34.43674,0,0,0-11.61272-1.72011c-11.367,0-17.14248,6.14415-17.14248,16.95848,0,10.32189,5.40694,16.22037,13.51735,16.22037A9.42808,9.42808,0,0,0,132.57956,65.96274Zm-15.2992-11.797c0-6.88156,3.2563-11.18293,10.26091-11.18293a27.90786,27.90786,0,0,1,4.85386.3686v19.293a10.583,10.583,0,0,1-6.57425,2.21217c-6.02134,0-8.54057-4.42385-8.54057-10.69083ZM90.18272,64.48767a28.70193,28.70193,0,0,1-11.24424-2.39595,20.65634,20.65634,0,0,0-1.16735,6.20566,29.5645,29.5645,0,0,0,12.59579,2.3347c10.44518,0,15.79059-4.85409,15.79059-11.92,0-5.95977-3.25631-9.46174-11.05942-12.78L91.78,44.51921c-4.301-1.84377-6.69731-3.68677-6.69731-6.882,0-3.25608,2.45782-5.34529,7.80322-5.34529a31.1667,31.1667,0,0,1,10.0768,1.78194,23.60426,23.60426,0,0,0,1.22862-6.14447,33.70655,33.70655,0,0,0-11.24388-1.78194c-9.95362,0-14.80773,4.48562-14.80773,11.48985,0,6.513,3.93231,9.76951,9.70791,12.289l3.13359,1.35155c5.77566,2.519,8.11041,4.17787,8.11041,7.74169C99.09172,62.64444,95.8968,64.48767,90.18272,64.48767ZM46.88808,38.0053a14.182,14.182,0,0,0-1.88632-6.47912L34.759,13.7854a14.17572,14.17572,0,0,1-1.62044-4.28925l-.42795.74143a14.19166,14.19166,0,0,0-.00024,14.1918l8.19424,14.193a14.19244,14.19244,0,0,1,0,14.19245l-.42806.74142A14.17516,14.17516,0,0,0,38.85624,49.267L31.35459,36.274l-4.7897-8.29622a14.18242,14.18242,0,0,1-1.62033-4.28914l-.42794.74137a14.1914,14.1914,0,0,0-.025,14.14751l-.00091.00045,8.21987,14.23693a14.19251,14.19251,0,0,1,0,14.19244l-.42819.74155a14.17524,14.17524,0,0,0-1.62022-4.28937L20.41961,45.71862a14.18393,14.18393,0,0,1-1.88656-7.71126C7.56809,40.872,0,46.95485,0,53.99767c0,9.79786,14.6451,17.7407,32.71063,17.7407s32.71061-7.94284,32.71061-17.7407C65.42124,46.95452,57.8536,40.87008,46.88808,38.0053ZM319.9273,70.38615A23.24535,23.24535,0,0,0,329.88116,68.42c.43024-2.0274.79872-4.36209,1.04426-6.144a26.34075,26.34075,0,0,1-10.81388,2.3347c-6.02142,0-9.2162-2.642-10.07634-8.11019h21.56612a36.005,36.005,0,0,0,.36894-5.22269c0-7.742-4.17832-14.07042-13.82488-14.07042-10.75212,0-14.99173,7.25016-14.99173,16.40517C303.15365,64.11906,308.62188,70.38615,319.9273,70.38615Zm-2.1504-27.52623c4.66986,0,7.3731,2.94928,7.3731,7.98758H309.91226C310.465,45.62479,312.98444,42.85991,317.7769,42.85992ZM91.54389,88.3285a16.54227,16.54227,0,0,1,5.70049.99841,10.7642,10.7642,0,0,0,.49921-2.78766,17.46668,17.46668,0,0,0-6.19971-.99886c-8.73793,0-13.77274,5.49272-13.77274,14.97951,0,9.02908,4.78515,14.97916,13.48144,14.97916a16.91725,16.91725,0,0,0,5.78378-.87386,16.7081,16.7081,0,0,0,.45745-3.07893,15.05746,15.05746,0,0,1-5.86672,1.16515c-6.57415,0-10.81834-4.53561-10.81834-12.31652C80.80869,92.48932,85.05287,88.3285,91.54389,88.3285Zm18.68319,4.6185c-6.44946,0-10.27754,4.32711-10.27754,11.3594,0,6.40775,3.37045,11.10963,10.02784,11.10963,6.57416,0,10.31915-4.32756,10.31915-11.44276C120.29646,97.64888,116.96764,92.947,110.22708,92.947Zm-.08337,19.84778c-4.74338,0-7.23986-3.12077-7.23986-8.69641,0-5.118,2.37159-8.53,7.23986-8.53,4.70188,0,7.19834,3.16229,7.19834,8.61293C117.34205,109.42435,114.97048,112.79478,110.14371,112.79478Zm86.83082-43.39171c.3687-1.78147.61448-3.87057.79884-5.71379a15.31938,15.31938,0,0,1-5.28423.92133c-3.25632,0-5.22246-1.5358-5.22246-5.52945V44.02722h10.07655a52.03106,52.03106,0,0,0,.61437-5.77552h-10.691V26.639a23.37405,23.37405,0,0,0-6.75875.98307V59.87949c0,7.49616,4.17809,10.5067,10.7526,10.5067A15.336,15.336,0,0,0,196.97453,69.40307Zm68.99766,45.51346h2.91219v-13.1069h11.98348c.12512-.79037.24966-2.03889.2914-2.78764H268.88432V88.91084h13.10689a22.03875,22.03875,0,0,0,.333-2.78764H265.972ZM297.62228,26.639a20.52306,20.52306,0,0,0-6.69732.92189v10.138a26.44242,26.44242,0,0,0-5.03834-.49154c-11.36672,0-17.14226,6.14414-17.14226,16.95847,0,10.32189,5.40694,16.22036,13.51712,16.22036a9.31392,9.31392,0,0,0,8.78654-4.66939l.36848,3.93233h6.20586ZM290.925,62.52148a10.83147,10.83147,0,0,1-6.7585,2.33511c-6.02154,0-8.54057-4.42393-8.54057-10.69083,0-7.00461,3.19476-11.18293,9.8921-11.18293a27.02039,27.02039,0,0,1,5.40694.61459ZM210.3393,92.947a17.04459,17.04459,0,0,0-7.2814,1.7475,10.039,10.039,0,0,0-6.53264-1.7475,31.67688,31.67688,0,0,0-8.19686,1.16515V114.9166h2.91241V96.10943a22.99282,22.99282,0,0,1,4.993-.58274c4.45222,0,6.11657,1.66458,6.11657,5.70074v13.68925h2.91277v-14.064a10.61358,10.61358,0,0,0-.70746-4.11907,14.07851,14.07851,0,0,1,5.534-1.2069c4.28594,0,6.11657,1.99727,6.11657,5.78365v13.60634H219.119v-14.064C219.11885,95.81807,216.62225,92.947,210.3393,92.947Zm92.37347,0a30.99674,30.99674,0,0,0-7.82255,1.16515V114.9166h2.91264V96.10943a21.81868,21.81868,0,0,1,4.82654-.58274c5.11794,0,6.57457,1.99727,6.57457,5.867V114.9166h2.91267v-14.064C312.11664,95.81807,309.7446,92.947,302.71277,92.947Zm13.68964,11.401c0,7.1152,3.66184,11.068,9.57016,11.068a8.42841,8.42841,0,0,0,5.65911-2.12227l.08292,1.62284h2.70472V94.11215A18.89579,18.89579,0,0,0,327.4704,92.947c-7.44772,0-11.06794,4.0779-11.06794,11.401Zm15.10416,6.53239a7.34449,7.34449,0,0,1-5.28423,2.1224c-4.53511,0-6.86555-3.28754-6.86555-8.65487,0-5.57563,2.53844-8.82142,8.11361-8.82142a15.32234,15.32234,0,0,1,4.03617.49943ZM347.901,92.947a30.99865,30.99865,0,0,0-7.82267,1.16516V114.9166h2.91276V96.10943a21.81868,21.81868,0,0,1,4.82654-.58274c5.11794,0,6.57449,1.99727,6.57449,5.867V114.9166h2.91264v-14.064c0-5.03452-2.3719-7.90559-9.40373-7.90559Zm50.09819,9.65309c0-5.36714-2.663-9.65309-8.90445-9.65309-6.8242,0-9.6119,4.90991-9.6119,11.10963,0,7.157,3.66185,11.35941,10.61031,11.35941a12.65827,12.65827,0,0,0,6.61577-1.5812,27.5203,27.5203,0,0,0,.45769-2.788,14.10342,14.10342,0,0,1-6.99009,1.78925c-4.74362,0-7.36489-2.663-7.73932-7.65593h15.39521a17.5073,17.5073,0,0,0,.16681-2.58006Zm-2.91276-.04122H382.43722c.33271-4.32757,2.37158-7.07357,6.5324-7.07357,4.11953,0,6.1168,2.78764,6.1168,6.90682ZM372.4094,95.52657a11.49041,11.49041,0,0,1,4.6185.95713,16.929,16.929,0,0,0,.33269-2.53788,12.11007,12.11007,0,0,0-4.95119-.99887c-7.40661,0-10.985,4.49386-10.985,11.31766,0,7.15695,4.03608,11.15137,10.1525,11.15137a9.2905,9.2905,0,0,0,5.3676-1.45656c.1664-.91537.2914-1.95552.37443-2.78764a10.0129,10.0129,0,0,1-5.49237,1.66425c-4.28582,0-7.44778-2.70428-7.44778-8.65486,0-5.45052,2.70465-8.65456,8.03061-8.65456Zm-27.842-52.17511a33.94464,33.94464,0,0,1,4.9767-.36861,43.5426,43.5426,0,0,1,5.09964.246,25.153,25.153,0,0,0,.61459-5.776,55.12542,55.12542,0,0,0-5.89856-.24555,41.14036,41.14036,0,0,0-11.55142,1.7201V69.64907h6.759ZM232.85073,92.947c-6.824,0-9.61191,4.90991-9.61191,11.10963,0,7.15695,3.66164,11.3594,10.61031,11.3594a12.6602,12.6602,0,0,0,6.616-1.5812,27.58913,27.58913,0,0,0,.45769-2.788,14.10536,14.10536,0,0,1-6.99032,1.78925c-4.74362,0-7.36488-2.663-7.73931-7.65593h15.39537A17.52216,17.52216,0,0,0,241.755,102.6C241.755,97.233,239.092,92.947,232.85073,92.947Zm5.9917,9.6119H226.19321c.3327-4.32756,2.3716-7.07357,6.53263-7.07357,4.11932,0,6.11659,2.78764,6.11659,6.90682Zm7.48952-8.44675V114.9166h2.91276V95.9843a20.76761,20.76761,0,0,1,4.07779-.45768,25.26377,25.26377,0,0,1,3.20393.16676,10.28757,10.28757,0,0,0,.29117-2.49659,29.02132,29.02132,0,0,0-3.57847-.16639A24.03271,24.03271,0,0,0,246.332,94.11215ZM228.74214,38.92747a34.43659,34.43659,0,0,0-11.61273-1.72011c-11.36716,0-17.14248,6.14415-17.14248,16.95848,0,10.32189,5.40671,16.22037,13.51735,16.22037a9.42812,9.42812,0,0,0,8.66347-4.42341l.36859,3.68633h6.20586Zm-6.75907,23.717a10.58258,10.58258,0,0,1-6.57428,2.21217c-6.02107,0-8.54056-4.42393-8.54056-10.69083,0-6.88156,3.25658-11.18293,10.26114-11.18293a27.90468,27.90468,0,0,1,4.85366.36861Zm26.422-25.43713a57.5803,57.5803,0,0,0-12.2885,1.7201V69.64907h6.75862V43.47439a33.88467,33.88467,0,0,1,5.34564-.49154c6.7585,0,8.35618,2.33522,8.35618,7.18886V69.64907h6.75861V49.00438c0-7.43485-3.62519-11.79707-14.93061-11.79707Zm39.37037,48.99892a1.90314,1.90314,0,0,0-1.956,1.84878q-.0015.05353,0,.10708a1.86933,1.86933,0,0,0,1.82214,1.91536q.0669.00167.13384-.00145a1.83506,1.83506,0,0,0,1.91378-1.7528q.00356-.08052,0-.16111a1.869,1.869,0,0,0-1.77946-1.9544Q287.84267,86.20454,287.77547,86.20623Zm-1.45655,28.71037h2.91264V93.44643h-2.91264Z" transform="translate(0 -9.49615)"/>
</svg>
