<svg xmlns="http://www.w3.org/2000/svg" width="171.262" height="101.851" viewBox="0 0 171.262 101.851"><defs><style>.a{fill:#e24185;}.b{fill:#ffd100;}.c{fill:#ff6053;}.d{fill:#031d44;}.e{fill:#07b5bd;}</style></defs><g transform="translate(-2528.562 -1208.559)"><path class="a" d="M2531.3,1309.483q-.787,0-.787-2.992a5.026,5.026,0,0,0-.393-1.853,8.951,8.951,0,0,1-.551-2.007,31.1,31.1,0,0,1,.04-9.089,26.143,26.143,0,0,0,.355-4.362l-.079-1.493v-.631a19.459,19.459,0,0,1,.079-2.007c.049-.5.09-.906.116-1.22a7.708,7.708,0,0,1,.119-.866,5.637,5.637,0,0,0,.078-1.063,4.592,4.592,0,0,0-.313-1.534,5.211,5.211,0,0,1-.317-1.809q0-8.814.238-13.775l.392-2.832-.078-2.126q0-2.833,4.8-2.992h2.478a12.417,12.417,0,0,1,1.888.119q.749.115.749.749a1.09,1.09,0,0,1-.433.951,1.008,1.008,0,0,0-.423.854v1.1l-.079,2.754v2.126l.079,2.676v.63q0,13.146.866,13.3l-.079,2.832q0,3.306.714,4.015v4.407c.206,0,.313.078.313.238l-.313,1.258.313,1.888-.078,1.339a1.057,1.057,0,0,0,.078.552v6.532a5.268,5.268,0,0,0-.432.952,6.883,6.883,0,0,1-.512,1.1,2.391,2.391,0,0,1-2.242,1.258,12.746,12.746,0,0,0-2.324.157q-.787.159-1.336.316A8.9,8.9,0,0,1,2531.3,1309.483Zm.552-5.824c.314,0,.475-.238.475-.714a.662.662,0,0,1,.393.552.828.828,0,0,1-.2.549.738.738,0,0,0-.195.476c.314-.1.669-.238,1.061-.4a2.72,2.72,0,0,1,.906-.238c0,.421-.368.747-1.1.985s-1.1.537-1.1.9a3.02,3.02,0,0,0,.63,1.809,5.613,5.613,0,0,1,3.265-.713,6.066,6.066,0,0,1,2.871.4v-4.014l-1.189.63c0-1.31.523-2.048,1.574-2.205v-2.2l-.4-.238a11.224,11.224,0,0,1-1.4,1.109,3.214,3.214,0,0,1-1.665.713,1.3,1.3,0,0,1,.747-.906.937.937,0,0,0,.6-.916h-.388l-3.384,1.5h-.552q0-1.809,2.6-2.911a4.454,4.454,0,0,0-.238,1.415l4.1-2.2a1.9,1.9,0,0,0-.4-1.26,1.332,1.332,0,0,0-.825.354,1.381,1.381,0,0,1-.59.354c-.107,0-.185-.064-.238-.2s-.1-.195-.157-.195a.909.909,0,0,0,.631-.316q0-.55-.314-.55l-.552.079c0-.787.5-1.189,1.5-1.189v-2.046h-.326a6.362,6.362,0,0,0-1.888,1.259q-2.911,2.439-2.914,2.834a2.251,2.251,0,0,0,1.458-.475,2.141,2.141,0,0,1,1.377-.476c0,.419-.4.813-1.189,1.189a10.737,10.737,0,0,1-2.518,1.023c0-1.154.168-1.848.511-2.086a8.252,8.252,0,0,1,.982-.59,4.521,4.521,0,0,0,1.1-.865l2.754-2.754a2.185,2.185,0,0,0-1.427.314q0-1.026,1.189-1.1.471-.079.825-.119c.235-.027.354-.145.354-.355v-3.065a4.979,4.979,0,0,1-1.22,1.025,4.3,4.3,0,0,0-1.208,1.1v-1.26a3.972,3.972,0,0,0-2.44.9,8.507,8.507,0,0,1-2.283,1.3l.316,1.574,1.889-1.26q0,1.106-1.337,1.26c.262,0,.392.053.392.157a.771.771,0,0,1-.392.714,13.2,13.2,0,0,0,3.225-1.189l.078.238q0,.786-2.242,2.045t-2.243,2.047a5.474,5.474,0,0,1-.078.747c-.053.343-.1.714-.157,1.1s-.107.787-.157,1.189a6.939,6.939,0,0,0-.079.9Q2531.773,1303.658,2531.854,1303.659Zm-.238-29.909a2.332,2.332,0,0,0,.713-.713c.207-.314.419-.63.628-.951a2.539,2.539,0,0,1,1.812-1.189,1.3,1.3,0,0,1,.55-1.064,1.387,1.387,0,0,0,.552-1.141,5.222,5.222,0,0,0-2.4.628,12.641,12.641,0,0,1-2.322.951l.476.392Zm1.258-.159.314.081a5.081,5.081,0,0,0,1.339-.552l-.238.866-2.835,1.339v1.574q.714,0,2.283-1.574a2.125,2.125,0,0,1-.392,1.493,5.392,5.392,0,0,0,2.281-.549,21.982,21.982,0,0,1,2.361-.951v-5.03l-.314-.631v-4.644a5.975,5.975,0,0,0-1.22.827,1.684,1.684,0,0,1-1.022.512c-.288,0-.462-.026-.512-.079l1.81-1.888-.316-.238a3.175,3.175,0,0,0-.982.476,1.393,1.393,0,0,1-.788.314,1.458,1.458,0,0,1-.67-.157q0-.629,1.26-.951,2.438-.628,2.44-.952v-4.395q-1.89,0-1.888.785c0,.264.064.435.2.514s.2.273.2.59q0,1.188-2.991,3.855c-.524.475-1,.918-1.415,1.339a.375.375,0,0,1,.275-.079c.131,0,.2.052.2.157a3.465,3.465,0,0,1-.475.951v2.519a2.39,2.39,0,0,0,1.731-.985c.578-.658.918-1.06,1.023-1.22v.155a3.585,3.585,0,0,0,.04.511c.041.288-.276.59-.906.906a3.722,3.722,0,0,0,1.5-.276,3.513,3.513,0,0,1,1.427-.275l.157,1.336a2.543,2.543,0,0,1-1.1,1.812l-1.809,1.494a3.47,3.47,0,0,0-.945,1.02Zm-.238,8.5-.475-.078c0-.476.475-1.232,1.427-2.283q2.358-2.754,3.46-3.156a5.452,5.452,0,0,0-2.281.713,12.53,12.53,0,0,1-3.308,1.5v5.194a2.229,2.229,0,0,1,.713-.433c.317-.131.631-.276.952-.433a2.83,2.83,0,0,0,1.427-1.966c-.157.1-.5.287-1.023.549a5.658,5.658,0,0,1-.887.4Zm2.362-20.928a8.37,8.37,0,0,1-1.142.392,3.606,3.606,0,0,0-1.063.476,2.252,2.252,0,0,0-1.1,2.124,1.62,1.62,0,0,0,.038.276,1.833,1.833,0,0,1,.041.354,6.4,6.4,0,0,0,.825-1.189c.342-.578.656-.866.951-.866s.431.079.431.238a6.365,6.365,0,0,0,.592-.828,2.22,2.22,0,0,0,.433-.984Zm-3.227-.787a4.317,4.317,0,0,1,1.189-.952,1.087,1.087,0,0,0-.669-.392c-.185,0-.275.014-.275.04s-.027.039-.079.039h-.157Zm0,27.625q.156-.629,1.664-1.81a34.236,34.236,0,0,0,3.306-2.518l-4.645,2.123Zm2.2-28.255a2.227,2.227,0,0,0-1.889,1.888,4.751,4.751,0,0,0,1.232-.833,1.589,1.589,0,0,0,.662-1.063Zm-1.023,24.557a23.538,23.538,0,0,1,3.779-1.189,1.025,1.025,0,0,1,.951.551l-5.351,4.643a4.914,4.914,0,0,0,2.44-.788,8.232,8.232,0,0,1,3.62-1.495,54.489,54.489,0,0,0-.713-9.209l-2.126,2.2v.316l1.733-.238q0,1.577-2.047,2.992c-.526.366-1.023.714-1.5,1.063a1.708,1.708,0,0,0-.785,1.142Zm.157,18.179,1.574-1.189a.384.384,0,0,1,.2.078.377.377,0,0,0,.2.079c-.265.524-.54.826-.827.9a4.406,4.406,0,0,1-1.137.122Zm2.445-13.858c0,.683-.131,1.061-.392,1.142a.868.868,0,0,1-.631,0c-.157-.081-.238-.146-.238-.2Zm-.628-13.618-.078-.237c0-.053.1-.184.314-.393l.63-.63.078.238C2535.868,1274.407,2535.552,1274.747,2534.924,1275.008Zm2.435,27.626a2.037,2.037,0,0,1-1.189.868q-.787.237-1.258.392c0-.476.3-.749.9-.828A4.767,4.767,0,0,0,2537.359,1302.634Zm-.951-28.648c-.209-.576-.5-.866-.866-.866l-.392.157a.068.068,0,0,1-.078-.058.035.035,0,0,1,0-.02v-.157c0-.21.313-.476.951-.788a3.678,3.678,0,0,1,1.5-.475A2.213,2.213,0,0,1,2536.408,1273.986Zm21.4,34.484q-8.562-11.263-12.421-19.844-.393,0-1.653-2.048-2.362-3.936-2.362-5.272l.316-1.025a16.056,16.056,0,0,0,3.423-3.541,42.533,42.533,0,0,0,2.4-3.934l.392-.713a2.185,2.185,0,0,0-.323-.547,2.441,2.441,0,0,1,.392-.787,6.184,6.184,0,0,1,.866-1.1,25,25,0,0,0,3.936-4.682q2.674-3.732,3.857-5.232t1.665-1.5c.314,0,.5-.064.549-.2a1.139,1.139,0,0,0,.079-.432c.1-.419.316-.628.63-.628l4.012.323,3.779-.475q2.043,0,2.28,1.427l-1.189.551.314-.551c-.209.107-.618.29-1.22.551a12.729,12.729,0,0,0-1.3.628h.63q-1.26,1.263-7.477,4.095a.937.937,0,0,1,.433-.787,1.188,1.188,0,0,0,.511-.787c0,.209.209.314.63.314l4.407-2.2c.159-.158.238-.263.238-.314a.859.859,0,0,0-.238-.63c-.264.476-.476.714-.668.714a1.107,1.107,0,0,1-.552-.157,2.267,2.267,0,0,0-.668-.238l1.258-.628-5.028-.338c-.314,0-.656.274-1.022.826a2.713,2.713,0,0,0-.55,1.189c0,.237.05.383.157.432s.157.108.157.16-.133.145-.394.273a9.252,9.252,0,0,0-.866.512c-.84.58-1.258,1.155-1.258,1.733l.392.55c0,.264-.052.421-.157.475a2.944,2.944,0,0,1-.392.157,2.371,2.371,0,0,0-1.339,1.189h.951v.317a3.57,3.57,0,0,0-2.164.984c-.447.5-.813.933-1.1,1.3a8.332,8.332,0,0,1-1.063,1.1v.63q.237-.868.787-.866a3.593,3.593,0,0,0,1.612-.63,3.692,3.692,0,0,1,1.615-.63,1.742,1.742,0,0,1-.551.476l-.788.475c-.787.526-1.189.918-1.189,1.189h.63l-1.495.952v-.552a2.392,2.392,0,0,1-2.205,1.189l.078.238a2.2,2.2,0,0,1-.787,1.427,2.192,2.192,0,0,0-.787,1.415l.63.078a9.594,9.594,0,0,1,1.665-.354c.84-.131,1.389-.221,1.653-.274a21.736,21.736,0,0,1,6.3-4.723h-1.26v-.551h1.5l.392-.628.552.628a4.345,4.345,0,0,1-1.536,1.22,4.39,4.39,0,0,0-1.534,1.22l-.55.314-.078.316c0,.052.1.157.314.314q-.951.476-.951.865l3.384-.865a6.712,6.712,0,0,1,1.141-.866q.744-.476.747-1.023c0-.366-.1-.551-.314-.551l5.586-5.665,2.205-4.331a1.82,1.82,0,0,1,.63-.63,2.437,2.437,0,0,1,.952.316,9.972,9.972,0,0,0-1.023,1.967,14.128,14.128,0,0,1-1.189,2.6,8.172,8.172,0,0,1-1.061,1.189,13.311,13.311,0,0,0-1.063,1.1q-.395.476-1.5,1.772t-2.126,2.635q-2.6,3.229-2.6,4.014a23.462,23.462,0,0,1-2.44,4.369q-1.809,2.7-2.281,3.344a50,50,0,0,1,6.531,10.226,20.4,20.4,0,0,0,2.4,3.855q2.4,3.464,2.556,3.622.869,0,3.228,2.676a1.641,1.641,0,0,1,.475.787q.393,0,1.023.747a1.909,1.909,0,0,1-.2,2.991,2.73,2.73,0,0,1-2.008.826Zm-5.1-26.929q1.02,0,2.123-3.07.55,0,1.1-1.023a6.735,6.735,0,0,0,.951-2.6,9.156,9.156,0,0,0-2.754,1.653,37.988,37.988,0,0,0-4.338,3.384,4.386,4.386,0,0,1-1.966,2.127c-.369.1-.747.195-1.142.273a6.57,6.57,0,0,0-1.3.433,1.812,1.812,0,0,1,1.063-1.572c.713-.419,1.26-.775,1.664-1.063a1.86,1.86,0,0,0,.747-1.063,2.849,2.849,0,0,1-1.848.865,11.7,11.7,0,0,0-1.731.317,2.2,2.2,0,0,0-.749.354c-.157.131-.314.274-.476.431a1.732,1.732,0,0,1-1.26.551c0,.421.13.683.392.788a3.817,3.817,0,0,1,1.025.787l.787.551h.787c0,.1-.211.329-.63.669s-.63.63-.63.865.169.355.511.355a3.187,3.187,0,0,0,1.063-.2,9.852,9.852,0,0,0,1.189-.511,7.991,7.991,0,0,0,2.193-1.731c-.209-.053-.314-.157-.314-.314,0-.369.393-.735,1.189-1.1a5.135,5.135,0,0,1,1.537-.549.5.5,0,0,1,.475.195A.384.384,0,0,0,2552.711,1281.541Zm-5.125-5.981-1.023,2.283q.313,0,1.337-1.025a1.9,1.9,0,0,1-.985,1.189,3.788,3.788,0,0,0-1.023.714,1.537,1.537,0,0,0-.276,1.022q1.26-.471,2.127-.713a18.631,18.631,0,0,0,5.745-2.992,12.555,12.555,0,0,1,3.7-2.281,8.675,8.675,0,0,0-3.462,1.259,29.555,29.555,0,0,1-4.88,2.361.892.892,0,0,1-.628-.157c.207-.418.418-.63.628-.63l.316.238q0-.628.392-.628l.314.078a4.972,4.972,0,0,0,1.063-.394q.906-.393,1.377-.55a.714.714,0,0,0-.628-.4,3.178,3.178,0,0,0-.906.157c-.342.107-.713.212-1.141.317l-1.023.392a2.446,2.446,0,0,1-.63.157C2547.883,1275.953,2547.752,1275.824,2547.586,1275.56Zm2.211,8.578q-.627,0-.628,1.1a10.678,10.678,0,0,0-3.148,1.572,2.984,2.984,0,0,1,1.022,1.26c.369.683.657,1.189.866,1.5q.63-.63,1.5-1.427a20.3,20.3,0,0,0,1.653-1.691q.784-.906,2.126-2.164a5.072,5.072,0,0,0-1.812.274,4.259,4.259,0,0,1-1.575.275Zm4.959,3.853a5.062,5.062,0,0,1-2.833,1.023v.88h-1.809v-1.023a8.142,8.142,0,0,0,4.958-2.048l-1.26-1.888-4.643,4.328.314.476c0,.366-.157.564-.475.59s-.476.145-.476.354a7.778,7.778,0,0,0,.951,2.283h.314a15.523,15.523,0,0,1,2.678-2.283,12.2,12.2,0,0,0,2.6-2.361Zm-5.9-3.066a1.446,1.446,0,0,1,1.189-1.022,4.156,4.156,0,0,0,2.519-.787,1.585,1.585,0,0,0-.63-1.023,7.452,7.452,0,0,1-1.772,1.142,3.73,3.73,0,0,0-1.534,1.377Zm2.205,8.029a1.155,1.155,0,0,0-.63,1.142,2.213,2.213,0,0,0,.589,1.505,4.913,4.913,0,0,1,.906,1.456l6.926,9.917c.1.209.238.314.395.314a3.956,3.956,0,0,0,2.989-1.5l.316.238q.393-.077,1.456-.393a18.514,18.514,0,0,1,1.928-.475,8.855,8.855,0,0,1-2.756,1.809l.316.314,1.5.079h.314a7.593,7.593,0,0,0,3.779-.714,2.309,2.309,0,0,0-.433-1.22c-.29-.444-.461-.668-.513-.668l-.866.314.238-.866q0-.549-1.5-1.653a20.56,20.56,0,0,1-1.888-1.493,4.61,4.61,0,0,1-1.025.863q-.714.476-1.5,1.025c-1.258,1.049-1.889,1.72-1.889,2.005s.1.435.317.435a2.545,2.545,0,0,0,1.415-.551,4.646,4.646,0,0,1,2.047-.952v.393a2.828,2.828,0,0,0-1.731.787,3.567,3.567,0,0,1-2.362.787l-.316-1.023q0-.784.592-.9a.681.681,0,0,0,.59-.749,3.32,3.32,0,0,0-1.26.354,3.588,3.588,0,0,1-1.456.354c-.447,0-.668-.261-.668-.787q0-.314,1.1-1.574l1.731-2.046q.633-.786.952-1.26a13.157,13.157,0,0,1-5.508,1.26h-.714q.868,0,1.889-1.495,1.9-2.6,1.9-3.149a5.212,5.212,0,0,0-2.283.4,2.519,2.519,0,0,0-.866.549l-.394-.392c0-.157.444-.4,1.339-.714a14.32,14.32,0,0,0,3.067-1.1q-.078-.157-.237-.592a8.737,8.737,0,0,0-.393-.9q-.553-1.024-1.022-1.023c-.055,0-.081.012-.081.039s-.026.04-.079.04h-.078l-1.81,1.81q-.549,0-1.142.9a5.924,5.924,0,0,1-1.06,1.3,1.309,1.309,0,0,1,.713.2c.209.134.317.238.317.314s-.146.172-.433.276a2.4,2.4,0,0,1-.828.16q-.714,0-.713-.75a1.316,1.316,0,0,1,.749-1.189,3.775,3.775,0,0,0,1.06-.827,16.617,16.617,0,0,1,2.283-2.2,12.845,12.845,0,0,1-2.715.983,6.641,6.641,0,0,0-2.557,1.22Zm1.5-1.189q-.714.235-.714.55a27.987,27.987,0,0,1,3.463-1.613q1.572-.593,1.665-.592a2.166,2.166,0,0,0-.4-.866,10.717,10.717,0,0,1-.55-.951Zm1.888-21.4c0-.63.523-.951,1.574-.951.21,0,.314.079.314.238-.1.209-.406.38-.9.511a5.113,5.113,0,0,1-.985.207Zm1.888-2.518c.262-.1.4-.421.4-.951h.314q0,.956-.709.956Zm4.336,29.832a.91.91,0,0,0,.63-.314,2.6,2.6,0,0,0-.787-1.612q-.788-.9-1.1-.906c0,.157-.291.551-.866,1.189l-1.339,1.572c-.366.421-.656.761-.866,1.025a4.992,4.992,0,0,0,2.126-.476,13.7,13.7,0,0,1,2.2-.792Zm-1.81-33.92-2.2.392c0-.261.3-.456.9-.59a7.219,7.219,0,0,1,1.3-.2Zm3.974,35.613q-.512-.827-.9-.827c-.264,0-.668.316-1.22.951s-.984,1.139-1.3,1.534-.578.747-.788,1.063a5.911,5.911,0,0,1-.392.549h.628a4.939,4.939,0,0,0,.787-.314c.476-.209,1-.418,1.574-.63q2.283-.951,2.283-1.258c-.114-.162-.335-.516-.677-1.068Zm-4.374-32.467q.864-1.334,1.81-1.336h.162a.169.169,0,0,1,.119.04.154.154,0,0,0,.116.038Q2560.267,1266.432,2558.456,1266.9Zm4.407-3.146a3.758,3.758,0,0,0-1.1.63,3.8,3.8,0,0,1-1.1.628c0-.159-.1-.238-.314-.238a2.145,2.145,0,0,0-.669.119,2.606,2.606,0,0,1-.827.116,4.158,4.158,0,0,1,1.969-.951,14.929,14.929,0,0,1,1.5-.314Zm-1.722-3.07c-.368,0-.551-.105-.551-.314,0-.317.04-.5.118-.552a.649.649,0,0,1,.355-.079c.157,0,.38.015.668.041l.866.078a9.57,9.57,0,0,1,1.141.195v.317Z"/><path class="b" d="M2581.515,1308.42a15.074,15.074,0,0,1-3.146.354q-1.5,0-1.5-3.7l-.078-1.1a2.85,2.85,0,0,1,.314-1.426V1293.5l.394-1.889-.394-2.435.394-9.836v-.316a1.388,1.388,0,0,0-.394-1.023l-.55-11.335a8.137,8.137,0,0,1,.278-2.366,8.74,8.74,0,0,0,.276-2.516l-.238-1.339a1.5,1.5,0,0,1,.55-1.189,2.4,2.4,0,0,0,.713-.866l.868.081,4.878-.4.4.314q.862-1.256,12.592-1.258h3.071q4.169,0,8.261.393.867.4.869,5.667a6.6,6.6,0,0,0,.347,2.916,1.447,1.447,0,0,1,.354.668,2.133,2.133,0,0,1-.2.668,1.374,1.374,0,0,1-.433.63,103.227,103.227,0,0,1-12.435-.951,7.779,7.779,0,0,1-4.488,1.023l-2.045-.079a2.888,2.888,0,0,0-1.5.238V1278h15.506a.864.864,0,0,1,.433.2c.183.131.273.25.273.354a2.2,2.2,0,0,1-.392.747,1.879,1.879,0,0,0-.393.951,2.982,2.982,0,0,0,.512,1.22,3.4,3.4,0,0,1,.511,1.732v.865q0,3.306-.951,3.858a35.838,35.838,0,0,1-5.63.392q-3.186,0-5.945-.195t-5.51-.2l.63,1.258q-.63,6.3-.63,7.044a2.032,2.032,0,0,0,.157.985,3.221,3.221,0,0,1,.316.951c0,.735.128,1.189.392,1.377a10.339,10.339,0,0,0,3.425.276c2.021,0,4.756-.117,8.224-.355s6.927-.354,10.388-.354c.316,0,.475.186.475.552a.867.867,0,0,1-.078.392v5.037l.314.866q0,2.835-6.69,2.835l-8.892-.317-5.194.317a9.588,9.588,0,0,1-2.44-.355,11.113,11.113,0,0,0-2.835-.354A15.087,15.087,0,0,0,2581.515,1308.42Zm.631-47.184q-.393.157-.866.314c-.63.314-1.232.6-1.81.866-.526,0-.854.093-.984.276a2.657,2.657,0,0,0-.2,1.3v.63a.714.714,0,0,0,.079.314q3.543-2.121,3.777-3.7Zm-1.266,16.134c0-.209.159-.314.476-.314s.476.1.476.314a18.941,18.941,0,0,1-2.519,1.822v1.339a1.191,1.191,0,0,0,.628-.552c.209-.314.4-.476.552-.476a13.644,13.644,0,0,0,1.888-1.339l2.835-2.045c-.421.1-.866.238-1.339.392a4.348,4.348,0,0,1-.866.238q.157-.863,1.339-1.022c1.467-.262,2.283-.631,2.44-1.1a17.251,17.251,0,0,0,.393-4.486,1.649,1.649,0,0,0-.631-.081,3.324,3.324,0,0,0-1.258.355,3.231,3.231,0,0,1-1.189.354.347.347,0,0,1-.394-.292.381.381,0,0,1,0-.1,4.4,4.4,0,0,1,1.5-.985,4.467,4.467,0,0,1,1.732-.511v-1.427a2.271,2.271,0,0,1-1.534.63,2.76,2.76,0,0,1-1.38-.314,6.558,6.558,0,0,1,.985-.63c.4-.209.749-.4,1.063-.552.839-.475,1.258-.813,1.258-1.022l-.238-.314.552-.552q1.65-1.65,2.518-1.653a7.759,7.759,0,0,0-1.189,1.574c0-.052.131-.118.4-.2s.523-.143.787-.2a3.663,3.663,0,0,0,1.1-.476q0,.157-.668.549c-.445.262-1.189.788-2.242,1.577a3.852,3.852,0,0,0,1.809.314l1.9-1.886v-.314l-.314-.314a.849.849,0,0,1,.392-.787,6.649,6.649,0,0,1,.866-.433c.316-.131.6-.238.866-.354s.394-.224.394-.354.157-.329.476-.59.671-.538,1.063-.828.773-.549,1.142-.787.589-.378.668-.433a.652.652,0,0,0,.2-.2,1.277,1.277,0,0,1,.157-.195H2594.9c-.159,0-.368.157-.63.475l-1.1.952a22.163,22.163,0,0,1-2.519,2.361c-.052,0-.145-.128-.276-.392a1.531,1.531,0,0,1-.195-.552l-.865,1.261q0-1.1.314-1.339a2.1,2.1,0,0,1,1.189-.238v.552a2.155,2.155,0,0,0,.77-.681,1.9,1.9,0,0,0,.317-.511h-1.1a5.242,5.242,0,0,1,1.889-1.574,1.022,1.022,0,0,0-.866-.314h-.4c-.261.052-.682.1-1.258.157s-1.208.1-1.888.157a29.287,29.287,0,0,1-3.622.316,7.353,7.353,0,0,1-2.086,2.557q-1.772,1.6-2.518,2.321c-.5.475-.747.815-.747,1.025a2.8,2.8,0,0,1,1.258-.317,2.549,2.549,0,0,1-1.258.828c-.628.238-.951.476-.951.747v3.7c0,.053.064.131.2.238a.594.594,0,0,0,.354.157c.262-.84.526-1.26.787-1.26.421,0,.63.028.63.08l-.394.55a1.4,1.4,0,0,0,.827-.2,1.286,1.286,0,0,1,.747-.195l-.621.628a3.721,3.721,0,0,1-1.1.825c-.526.291-.785.54-.785.747v2.835c.1-.1.326-.3.668-.59a1.158,1.158,0,0,0,.512-.827q-.869,0-.866-.714,0-.391,1.023-.866a18.21,18.21,0,0,1,2.2-.951l-.081.476c0,.157.107.261.317.314a4.44,4.44,0,0,1-1.377.713q-.906.315-.906,1.023a.919.919,0,0,0,.04.238,1.1,1.1,0,0,1,.038.237l.63-.63v.157a2.815,2.815,0,0,0,.041.355c.026.183-.133.342-.476.475a1.912,1.912,0,0,0-.828.59,2.631,2.631,0,0,0,1.5-.476,2.785,2.785,0,0,1,1.575-.475v.314a16.17,16.17,0,0,0-2.99,1.574,3.023,3.023,0,0,0-1.022,2.44c.05,0,.169-.09.352-.276a.912.912,0,0,0,.276-.668l3.541-2.362c.316,0,.475-.314.475-.951v-.4c.21,0,.314.133.314.4a3.33,3.33,0,0,0,.714-.552,2.943,2.943,0,0,0,.865-1.189l.952.714a4.533,4.533,0,0,1-1.337,1.139q-.869.513-1.731,1.063A5.453,5.453,0,0,0,2580.88,1277.37Zm-1.888-17.708a.9.9,0,0,1-.63-.314v1.337q0,1.188.951,1.189a6.83,6.83,0,0,0,2.243-1.061q1.767-1.061,1.85-1.142a3.616,3.616,0,0,1-2.519-.63Zm1.1,45.019.157.552c0,.262-.316.5-.951.713a.613.613,0,0,0-.63-.392,1.814,1.814,0,0,0,.63,1.653c.68-.209,1.206-.4,1.574-.552a6.766,6.766,0,0,1,1.572-.392.677.677,0,0,0,.4-.714,2.035,2.035,0,0,1,.354-1.1,3.364,3.364,0,0,1,1.189-1.025,5.708,5.708,0,0,0,1.458-1.189l-.475-.078a2.137,2.137,0,0,0-1.653.825,2.065,2.065,0,0,1-1.575.827,3.679,3.679,0,0,1,1.534-1.189c.761-.366,1.313-.639,1.653-.825a2.068,2.068,0,0,0,.828-.828l-.623-.608-4.486,3.067v1.261a9.9,9.9,0,0,0-1.1-.63l1.574-1.5,3.149-2.519-1.888.952-.317-.077v-.558a2.1,2.1,0,0,0,1.339-.552l.631-.63a1.815,1.815,0,0,1,.787-.393v-1.89a2.865,2.865,0,0,1-.906,1.189,3.335,3.335,0,0,1-1.3.713v-.34a.558.558,0,0,1,.4-.552l-.4-.078a4.292,4.292,0,0,0-1.81.549c-1.469.787-2.2,1.446-2.2,1.969a1.275,1.275,0,0,0,.314.952,2.141,2.141,0,0,1,1.1-1.339l1.261-.787a2.288,2.288,0,0,0,.784-.631,1.545,1.545,0,0,1-.784,1.261,8.113,8.113,0,0,0-1.734,1.5h.951v.314q-.951.712-1.653,1.3a2.209,2.209,0,0,0-.713,1.772Zm.157-23.651c-.316.342-.6.642-.866.906s-.392.459-.392.59a1.9,1.9,0,0,0,.117.552,1.9,1.9,0,0,1,.119.511q1.188-.951,1.888-1.5,1.886-1.5,1.888-1.888a1.124,1.124,0,0,1,.4-.787,5.4,5.4,0,0,1,.866-.714,3.179,3.179,0,0,1,1.574-.713.955.955,0,0,1-.119.314c-.078.157-.145.237-.2.237l.713-.316a.917.917,0,0,0,.511-.825q.039-.593.041-1.536a8.661,8.661,0,0,0-2.676,1.614,22.881,22.881,0,0,0-2.323,1.81,5.676,5.676,0,0,1-.59.714c-.319.347-.628.687-.942,1.027Zm-1.258,3.425c0,.475.169.713.511.713a1.569,1.569,0,0,0,.952-.314,7.512,7.512,0,0,0,.9-.787,3.423,3.423,0,0,1,1.97-1.023q0,1.259-2.678,2.911a11.5,11.5,0,0,0-1.023.714H2579v2.361a2.087,2.087,0,0,0,1.456-.747c.5-.508.877-.865,1.141-1.1s.476-.419.628-.549a9.179,9.179,0,0,1,1.063-.671q.828-.476,1.772-1.023,2.361-1.336,2.911-1.652a4.624,4.624,0,0,1,1.85-1.337,4.973,4.973,0,0,0,1.929-1.427,5.53,5.53,0,0,0-1.189.238,3.762,3.762,0,0,1,1.812-1.189h-2.433l-4.723,2.754h-.552l.552-.314a.374.374,0,0,0-.4-.316l-.476.078q0-.784,1.732-1.729a1.787,1.787,0,0,1,.713-.238v.395c.366,0,.55-.131.55-.395v.314a.856.856,0,0,1-.238.63.712.712,0,0,0,.668-.314,1.187,1.187,0,0,0,.2-.63,1.322,1.322,0,0,0-.432-.787c-.288-.312-.512-.476-.669-.476a1.563,1.563,0,0,0-.749.393c-.342.261-.713.578-1.139.951a25.05,25.05,0,0,0-1.969,1.888l.63.395c0,.314-.552.657-1.665,1.023q-2.972,1.027-2.975,1.263Zm2.84,7.791-.317,1.888q-2.518,1.26-2.516,1.5v.4a11.241,11.241,0,0,0,.314,2.753,5.546,5.546,0,0,0,1.967-.865q2.754-1.665,3.62-1.665l.316.079a5.134,5.134,0,0,0,.157-.788q.078-.549.238-1.339a24.853,24.853,0,0,0,.237-3.227c-.264-.575-.577-.865-.951-.865a22.828,22.828,0,0,0-4.407,1.812l-.237.078c0-.209.287-.525.865-.951a5.653,5.653,0,0,1,1.888-.951c.262,0,.395.107.395.316,0-.476.405-.787,1.22-.951s1.22-.369,1.22-.631v-2.2l.628-.314,13.7.392a5.417,5.417,0,0,0,2.833-.627l-.393-.4a.907.907,0,0,0,.982-.9,12.591,12.591,0,0,0,.119-1.693,7.577,7.577,0,0,0-3.776,1.022q-1.812,1.026-3.465,1.97h-.628c-.526,0-.842-.131-.951-.4a9.19,9.19,0,0,1,3.541-3.068,3.255,3.255,0,0,1,1.336-.316v-.631a4.292,4.292,0,0,0-1.967.59q-1.1.593-2.283,1.3-3.385,1.811-4.88,1.81c0-.578.053-.866.16-.866.366,0,.575-.209.628-.63a9.234,9.234,0,0,0,4.092-3.463q.315-.549.714-1.339h-1.337a5.528,5.528,0,0,0-1.063.906c-.5.5-.865.854-1.1,1.061s-.352.343-.352.4a7.7,7.7,0,0,0,2.518-.714q0,.315-2.088,1.339a13.75,13.75,0,0,1-2.321,1.023c0-.262.2-.523.59-.787a2.337,2.337,0,0,0,.671-.552h-.952l-2.44,1.812a.07.07,0,0,0,.058.079.067.067,0,0,0,.021,0h.314a2.584,2.584,0,0,0,1.189-.395,8.212,8.212,0,0,1-3.387,1.929,35.207,35.207,0,0,0-3.9,1.693q-1.141.628-1.142,1.415c.421-.262.918-.6,1.5-1.023a2.861,2.861,0,0,1,1.653-.63l.238.476c0,.628-.866,1.391-2.6,2.28a4.953,4.953,0,0,1-.787.4c0-.366.13-.552.394-.552s.445-.237.55-.713a2,2,0,0,0-.952.314q-.627,0-.627-.314a9.159,9.159,0,0,0-.985.9,9.021,9.021,0,0,0-.9.984,3.651,3.651,0,0,0,1.889-.63q-.319.866-.828,1.023a2.471,2.471,0,0,0-1.061.787h.952a3.653,3.653,0,0,0-.628,2.518A4.891,4.891,0,0,0,2581.832,1292.246Zm.314,1.731.63-.787h2.124a3.336,3.336,0,0,1-1.732,1.967,13.342,13.342,0,0,0-2.281,1.495,2.606,2.606,0,0,1-1.26,1.5.318.318,0,0,1-.078-.238v-.394a1.782,1.782,0,0,1,1.022-1.494,10.346,10.346,0,0,0,2.44-2.047Zm-.952-25.264-.078-.394c0-.524.183-.788.552-.788l.156-.865a.423.423,0,0,0-.316-.476,2.378,2.378,0,0,0,1.063-.713c.34-.367.616-.657.828-.866v.549a3.893,3.893,0,0,0,2.283-.785l1.65-1.26a4.757,4.757,0,0,1,1.339-.713,10.155,10.155,0,0,1-2.283,1.969,41.872,41.872,0,0,0-5.187,4.342Zm0-4.409a7.763,7.763,0,0,0,1.665-1.022,4.451,4.451,0,0,1,1.81-.866v.4c-.1.052-.314.183-.63.392a12.185,12.185,0,0,1-1.061.63l-1.1.59a1.948,1.948,0,0,1-.668.276Zm3.858,26.446a1.55,1.55,0,0,1-1.063,1.377,4.208,4.208,0,0,1-1.537.511,1.8,1.8,0,0,1,1.025-1.337,3.367,3.367,0,0,1,1.582-.551Zm-1.5-10.626q1.731,0,1.731-1.337a.169.169,0,0,0-.04-.119.154.154,0,0,1-.038-.116c-.317.157-.669.34-1.063.549a1.075,1.075,0,0,0-.583,1.023Zm.951,24.714.157.476a1.208,1.208,0,0,1-.314.354c-.157.131-.264.224-.316.274a36.39,36.39,0,0,0,9.446,1.025h.787l2.281-.081h.789c.314-.1.445-.433.393-.982a1.676,1.676,0,0,1,.238-1.22l2.44-2.44-.393-.079a3.631,3.631,0,0,0-1.969.668q-1.024.671-2.045,1.377-2.838,2.127-3.9,2.126t-1.063-.394a1.278,1.278,0,0,1,.512-.866,21.127,21.127,0,0,1,2.951-2.209v-.395a4.721,4.721,0,0,0-2.362,1.025q-2.832,1.964-3.462,2.437h-.866a2.513,2.513,0,0,1,1.063-1.966,20.845,20.845,0,0,1,1.929-1.427v-.314a10.291,10.291,0,0,1-2.756,1.336,9.321,9.321,0,0,0-2.833,1.5v-1.087q1.189,0,4.093-2.047a1.58,1.58,0,0,0-1.023-.393,2.457,2.457,0,0,0-1.22.393,10.622,10.622,0,0,0-1.3.906,11.458,11.458,0,0,0-1.189,1.1,9.561,9.561,0,0,1-.951.9Zm1.023-42.422-.314-.238a2.249,2.249,0,0,1,1.258-.951,9.069,9.069,0,0,1-2.44,3.384v-.63Zm1.81-1.665a3.234,3.234,0,0,0,.04.354.406.406,0,0,1-.276.433v-.3a.713.713,0,0,1,.238-.63Zm1.731-1.5q0,.868-1.1,1.339,0-1.324,1.1-1.327Zm5.589,41.714a13.892,13.892,0,0,1-2.478,1.189c-.761.264-1.142.713-1.142,1.339q1.258,0,3.068-1.812a2.856,2.856,0,0,0,.552-.7Zm-2.911-35.4a6.116,6.116,0,0,0,3.7-2.124l.4.238a7.677,7.677,0,0,1,2.359-1.615,6.561,6.561,0,0,1,1.665-.59,1.131,1.131,0,0,1,.392.041.371.371,0,0,0,.157.038l-1.5,1.495a13.618,13.618,0,0,0-2.44,2.205l.621.621,3.779.314a2.535,2.535,0,0,0,1.455-.828,5.208,5.208,0,0,1,1.534-1.063c.1.107.157.186.157.238,0,.261.052.392.159.392a5.447,5.447,0,0,0,1.77-1.141,2.569,2.569,0,0,1,1.377-.826v-.551l-1.258.63a5.141,5.141,0,0,0,.951-2.676,3.442,3.442,0,0,0-.238-1.574q-.238-.4-1.969-.395a17.776,17.776,0,0,0-8.343,1.891q-.078.078-.865,1.139a5.862,5.862,0,0,1-1.732,1.615q0-.238-.628-.238c-.107,0-.211.117-.316.354s-.183.407-.238.512h.552Zm6.216-2.754c-.368.209-.825.5-1.377.865s-1.115.735-1.691,1.1a7.291,7.291,0,0,1-3.148,1.427,10.061,10.061,0,0,0,3.03-.276,4.362,4.362,0,0,0,1.1-.63q.431-.351,1.22-.984l-.631-.314a4.114,4.114,0,0,0,.985-.355,1.225,1.225,0,0,0,.511-.834Zm2.833,17.708,1.812-.314v.549q0,.63-1.85,1.5a22.43,22.43,0,0,0-2.676,1.427,1.538,1.538,0,0,0-.827,1.258,1.916,1.916,0,0,0,1.339-.433q.476-.432.982-.951a2,2,0,0,1,1.22-.59,5.565,5.565,0,0,0,1.339-.314q1.493-.394,1.5-2.678c0-.523-.131-.787-.4-.787h-4.329c-.261,0-.406.171-.432.511s-.2.514-.512.514q-1.65,1.1-2.911,2.045a32.572,32.572,0,0,1-3,1.965,3.949,3.949,0,0,0,2.007-.628c.714-.421,1.232-.735,1.574-.951a1.723,1.723,0,0,1,.826-.317Zm-2.519,20.148a14.128,14.128,0,0,1-2.518,1.928,10.862,10.862,0,0,0-2.514,2.086,6.191,6.191,0,0,0,2.989-1.3l2.519-1.772a3.3,3.3,0,0,1,1.427-.63v-.314Zm-.314,6.216a4.371,4.371,0,0,0,2.362.552h.787q5.037,0,6.847-1.189a1.742,1.742,0,0,0,.866-1.377,7.669,7.669,0,0,0-.079-1.22.5.5,0,0,0-.53-.477h-.022l-5.912,3.4h-.392c-.578,0-.866-.156-.866-.475a3.117,3.117,0,0,0,1.888-1.189,5.722,5.722,0,0,0,1.189-2.124Q2603.236,1302.793,2597.965,1306.883Zm7.951-5.9.787.316a2.854,2.854,0,0,1-.828,1.455,12.883,12.883,0,0,1-1.691,1.694,4.363,4.363,0,0,0,2.281-1.025q2.676-2.123,2.678-3.384l-4.956.63a2.762,2.762,0,0,0-.512.4q-.356.313-.749.627a3.478,3.478,0,0,1-1.5.866l-1.652,1.653a8.605,8.605,0,0,0-1.1,1.189,9.774,9.774,0,0,0,2.362-1.5Q2604.9,1300.984,2605.916,1300.981ZM2603,1259.976q0,.317-1.3.668c-.866.236-1.325.357-1.377.357q0-.788,1.023-1.1a5.97,5.97,0,0,1,1.653-.314Zm-1.1,3.465q0-.714,1.19-.714a1.7,1.7,0,0,1,.275.038,1.712,1.712,0,0,0,.276.041,3.89,3.89,0,0,0-.951.392,1.534,1.534,0,0,1-.785.243Zm5.038,3.068q.475,0,.475-1.653v-.63a6.135,6.135,0,0,0-1.967.475q-2.125.868-2.44,1.5l.631.314Z"/><path class="c" d="M2670.351,1310.41l-2.205-.713a8.511,8.511,0,0,0-2.4.354,8.608,8.608,0,0,1-2.4.354l-1.809-.63c-.053,0-.132-.1-.238-.314a1.37,1.37,0,0,1-.157-.63l-.238-5.353v-.238l.238-1.5-.317-5.746q0-.785.317-3.933l-.317-1.969q0-3.069.317-6.728t.314-4.043l-.314-6.295q0-2.127.628-2.362c-.21-.052-.314-.314-.314-.787l.314-1.258c0-.209-.067-.343-.2-.4s-.2-.209-.2-.475l.079-.238a3.728,3.728,0,0,0,1.022-2.754l-.078-1.261-.63-.314a4.586,4.586,0,0,1-.355-.511,1.471,1.471,0,0,1-.273-.59c0-.1.128-.276.392-.511l.828-.749c.288-.262.561-.511.825-.747s.4-.433.4-.59a2.423,2.423,0,0,1,.352.512c.131.237.276.354.433.354a24.444,24.444,0,0,0,3.779-.354q2.2-.357,3.857-.512l.713-.394,4.564.475h.238l1.574-.04a25.491,25.491,0,0,1,4.519.475,24.692,24.692,0,0,1,5.077,1.339,13.732,13.732,0,0,1,3.03,1.572,8.155,8.155,0,0,0,2.4,1.22l3.384,3.384.316,1.427c.207.952.419,2,.628,3.149q.787,3.933,1.339,5.746l-.4,1.258q-2.832,9.445-6.138,12.2a9.428,9.428,0,0,1-4.043,2.045,41.729,41.729,0,0,1-5.627.866,6.7,6.7,0,0,1-1.693.2q-1.219.039-2.754.119t-3.189.079h-3q-.631,0-.631,3.384l.157.157c0,.052.041.078.119.078s.119.027.119.079l-.159.787a65.954,65.954,0,0,0-.866,7.32.279.279,0,0,1,.316.235.252.252,0,0,1,0,.079,8.917,8.917,0,0,1-.078.951,11.19,11.19,0,0,1-.238,1.261C2671.321,1309.911,2670.874,1310.41,2670.351,1310.41Zm.392-30.46-.314-.078a2.992,2.992,0,0,0-1.81.865,5.611,5.611,0,0,1-2.837,1.5v.631a4.612,4.612,0,0,0,2.44-.671,3.951,3.951,0,0,1,2.007-.668c.6,0,.9.078.9.237q0,1.5-2.281,2.757-.951.549-1.85.982a2.733,2.733,0,0,0-1.22.982.853.853,0,0,0,.552.314,4.194,4.194,0,0,0,1.141-.392,17.629,17.629,0,0,0,1.848-.952q2.362-1.492,2.362-2.675v-7.391q-1.023,0-4.721,2.635a23.03,23.03,0,0,0-3.7,2.872h.865a.509.509,0,0,1-.276.476c-.183.1-.354.209-.511.314a1.776,1.776,0,0,0-.866,1.427,6.918,6.918,0,0,0,.952-.433q.865-.432,1.928-.951l1.967-.951a5,5,0,0,0,1.1-.633,1.106,1.106,0,0,0,.276-.511c.05-.21.1-.395.157-.552a1.248,1.248,0,0,1,1.189-.549q.875,0,1.1.549a1.207,1.207,0,0,1-.4.87Zm-3.058,7.713a1.209,1.209,0,0,1-.868.4c-2.1.627-3.358,1.234-3.777,1.809a4.234,4.234,0,0,0-.314,2.046v2.283a5.664,5.664,0,0,0,1.888-1.258q2.518-2.127,2.99-2.126a3.984,3.984,0,0,1,2.2-2.2c.419-.209.814-.421,1.189-.63a1.428,1.428,0,0,0,.714-.866l-1.189.314-.63-.078v-.547l.787-.314a2.426,2.426,0,0,0,1.022-.63c0-.21-.158-.314-.475-.314a1.208,1.208,0,0,0-.906.511,1.337,1.337,0,0,1-1.063.511v.476l-.714-.238a1.805,1.805,0,0,0-1.189.63Zm-4.959,11.653q.784,0,3.344-1.888t2.873-2.2h-.314l-4.024,1.8a4.427,4.427,0,0,1-1.261.951v-.63l-.627.314Zm.314,4.8.078.951a1.388,1.388,0,0,1-.392,1.025,4.526,4.526,0,0,0,2.438-1.1l2.361-1.888c.578-.419,1.075-.761,1.5-1.023l-.078-.316a15.011,15.011,0,0,0-4.329,1.3c-1.06.539-1.584.894-1.584,1.051Zm.951-38.408.238.951a1.753,1.753,0,0,1-.314,1.063,1.744,1.744,0,0,0-.314,1.063,3.73,3.73,0,0,0,1.848-.511q.906-.515.985-.749c.052,0,.078.107.078.314q0,.632-.951,1.025l-1.427.589a2.335,2.335,0,0,0-.549.276h1.572v.63h-1.81c-.262,0-.393.421-.393,1.258v1.653c.419,0,.631-.366.631-1.1a7.218,7.218,0,0,1,1.22-.63q.746-.313,1.534-.63a4.425,4.425,0,0,0,2.283-1.575h-.631q0-.236.714-.549a3.465,3.465,0,0,1,1.427-.63,5.165,5.165,0,0,1-.669-.316.505.505,0,0,1-.275-.476,1.107,1.107,0,0,1,.078-.476l-2.2.952v-.326q0-.315,2.124-1.427a25.792,25.792,0,0,1,2.834-1.337l-.335-.3.63-1.261a1.3,1.3,0,0,1-.63.079c-.366,0-.552-.131-.552-.393a2.879,2.879,0,0,1-1.691,1.665q-1.3.564-2,.861a2.113,2.113,0,0,0-1.023.866l-.238-.238a5.121,5.121,0,0,1-1.574,1.189v-.316l1.574-1.494a15.279,15.279,0,0,0,3.306-2.007,26.807,26.807,0,0,0,3.227-2.4l-2.518-.078q-1.969,0-2.2.713l.63.316a5.009,5.009,0,0,1-1.26.952q-.951,0-1.023.475a1.05,1.05,0,0,1-1.108.835,18.976,18.976,0,0,1,.549-2.6q-1.573,0-1.574.713l.079,1.023a1.066,1.066,0,0,1-.314.787h.392l.238.866c0,.159-.107.29-.316.4s-.314.2-.314.309Zm7.461,8.25q0-1.807-.476-1.81a3.132,3.132,0,0,0-1.427.59q-.951.586-1.929,1.258t-1.809,1.26a2.9,2.9,0,0,1-1.063.59.741.741,0,0,1-.788-.63,1.786,1.786,0,0,1,1.109-.783,4.125,4.125,0,0,0,1.969-1.339l.314.314.316-.865h-1.261v-.393a2.9,2.9,0,0,0,1.665-.4c.381-.264.654-.456.866-.589a1.8,1.8,0,0,1,.951-.2c.419,0,.63.107.63.317a1.124,1.124,0,0,0,.628-.952,1.575,1.575,0,0,0-.392-1.025l-4.328,2.2a2.992,2.992,0,0,0-1.81.865,4.545,4.545,0,0,0-1.261,1.427,5.509,5.509,0,0,0-.392,2.362,14.307,14.307,0,0,0,.392,3.463,29.907,29.907,0,0,0,3.268-2.283,10.288,10.288,0,0,1,3.5-1.81v-.39H2669.1Q2669.09,1273.959,2671.452,1273.96Zm-8.108,14.716a4.859,4.859,0,0,1,.512-.714.912.912,0,0,0,.276-.551.209.209,0,0,0-.177-.238.213.213,0,0,0-.061,0,6.635,6.635,0,0,1,2.559-2.243q1.613-.827,2.2-1.141a.917.917,0,0,0,.59-.787v-.476a7.563,7.563,0,0,0-2.635.59,18.048,18.048,0,0,1-2.638.827l-.63-.316c-.052.316-.09.7-.119,1.144s-.038.877-.038,1.3a8.538,8.538,0,0,1-.157,1.653Zm4.8,10.155a7.773,7.773,0,0,0-3.07.951l-2.046.951v1.653a10.722,10.722,0,0,0,2.754-1.731,25.521,25.521,0,0,0,2.362-1.815Zm-5.116,9.679a2.857,2.857,0,0,1,1.456.2,2.235,2.235,0,0,1,.316.4c.079.131.326.25.747.355l.238-.714a13.746,13.746,0,0,1,2.716-.552,1.36,1.36,0,0,1,.984.314,3.724,3.724,0,0,0,.714-2.437,9.381,9.381,0,0,0-2.914.549l-2.525.875a6.037,6.037,0,0,1-1.732.238Zm.552-16.448a2.219,2.219,0,0,1,1.494-.63q0,.951-1.023.952-.157,0-.471-.312Zm10.94-4.409a1.363,1.363,0,0,0-1.189-.549,17.6,17.6,0,0,1-2.557,1.662,4.3,4.3,0,0,0-1.536,1.1l-.314-.314-.951,1.889h-.29a12.913,12.913,0,0,1-1.9,1.691,10.016,10.016,0,0,0-1.81,1.693l.238.078q1.5,0,6.533-3.619a7.466,7.466,0,0,0,1.574-1.427,4.142,4.142,0,0,1,2.283-1.339q2.989-.714,2.99-1.023,0-.476-1.023-.475a3.873,3.873,0,0,0-2.045.642Zm-9.917,18.969a3.253,3.253,0,0,1,2.045-1.258,8.757,8.757,0,0,0,3.463-.868,3.1,3.1,0,0,0,.119-.669c.026-.287.064-.589.119-.9a8.588,8.588,0,0,0,.156-.952l-.787.476q-.787.552-1.771,1.261t-2.046,1.455q-1.062.749-1.693,1.22Zm1.189-34.472c0,.735-.264,1.1-.787,1.1-.01-.718.252-1.092.775-1.092Zm4.723,26.443a8.385,8.385,0,0,0-2.951,1.615,22.563,22.563,0,0,0-2.4,1.772h1.26l4.093-1.891c.209-.157.314-.654.314-1.5Zm-3.158-28.874a3.093,3.093,0,0,1-1.665.393.7.7,0,0,1,.787-.787C2667.007,1269.325,2667.306,1269.458,2667.359,1269.719Zm3.776,26.051c-.261-.262-.43-.38-.511-.354s-.38.185-.9.475l-1.653.9q-2.125,1.426-2.126,1.731a.071.071,0,0,0,.058.079h.18l4.564-2.2c.052,0,.131-.079.238-.238a.756.756,0,0,0,.154-.4Zm-4.328-33.214a1.009,1.009,0,0,0,.354-.628,2.32,2.32,0,0,1,.276-.713c-.735.261-1.153.5-1.258.713Zm1.115,16.686.157.237a.786.786,0,0,1-.475.669,1.673,1.673,0,0,1-.787.276v-.476Zm2.833,14.718a8.283,8.283,0,0,1,4.407-.951,4.488,4.488,0,0,1,.608-2.164,5.041,5.041,0,0,1,.866-1.3,4.1,4.1,0,0,0-2.754,1.1,18.554,18.554,0,0,1-3.779,2.676Zm.63-27.076a5.389,5.389,0,0,1,2.832.631,3.068,3.068,0,0,1,.907-1.848c.6-.706,1.075-1.246,1.426-1.615a3.549,3.549,0,0,0,.747-1.189l-1.967,1.023q-3.8,1.821-3.957,3Zm2.2,9.368-.314,7.32v1.258a1.956,1.956,0,0,0,.079.714.67.67,0,0,0-.476.713,32.043,32.043,0,0,0,6.131-.644l3.306-.63a8.718,8.718,0,0,1,1.534-.512q.828-.2,1.536-.433a2.6,2.6,0,0,0,1.665-2.6q0-4.487-.828-5.824a6.7,6.7,0,0,0-1.85-2.045l.395-1.189q0-1.26-3.306-2.676a12.927,12.927,0,0,0-3.9-1.26c-.657,0-1.235.028-1.732.078l-1.458.16q-1.652.156-1.65.392v4.026c.564.381.851,1.416.851,3.149Zm4.488-14.718c.523,0,.787.13.787.394a1.131,1.131,0,0,1-.511.983,2.088,2.088,0,0,0-.749.906l.618-.321a1.481,1.481,0,0,1-.866,1.189,1.015,1.015,0,0,0-.713.951,16.024,16.024,0,0,1,3.108-1.615,28.135,28.135,0,0,0,4.043-2.083,5.211,5.211,0,0,0-2.283-.985,13.709,13.709,0,0,0-3.306-.433q-3.385,0-3.7,1.427a1.812,1.812,0,0,1-.713.864,1.207,1.207,0,0,0-.552,1.025v.135a.218.218,0,0,0,.079.157l.237-.63,4.015-1.888Zm-2.6,6.059a5.069,5.069,0,0,0,3.265-.787,11.757,11.757,0,0,0,1.427-1.415,6.023,6.023,0,0,1,1.534-1.26l-6.217,3.07Zm15.189,17.632q-2.6,0-6.532,2.833a2.287,2.287,0,0,0-.788.475c-.421.319-.9.671-1.455,1.063s-1.115.8-1.693,1.22q-1.336.951-1.337.63a.536.536,0,0,1-.078-.354q0-.273,1.022-1.063a27.479,27.479,0,0,1,2.362-1.612q1.338-.828,2.556-1.575a5.752,5.752,0,0,0,1.615-1.3,7.96,7.96,0,0,0-2.361.392,14.146,14.146,0,0,1-2.6.552l-.952.63v-.475l-.551.713q-1.733,2.125-2.519,3.187t-.951,1.22c.1.211.209.316.314.316a2.728,2.728,0,0,0,.827-.4c.445-.261.669-.444.669-.551a.329.329,0,0,1,.078.237v.238a.723.723,0,0,1-.476.787,1.519,1.519,0,0,0-.787.631,1.973,1.973,0,0,1,.982.354,1.263,1.263,0,0,0,.788.276,11.36,11.36,0,0,0,1.928-.355c1-.237,1.81-.406,2.44-.513a10.468,10.468,0,0,1,1.665-.157,14.82,14.82,0,0,0,1.5-.079,3.545,3.545,0,0,0,2.519-1.1.866.866,0,0,1-.079-.4.437.437,0,0,1,.392-.475q.79-.314.866-.714l3.149-1.574.314-.63q-1.189.4-2.635,1.022a6.73,6.73,0,0,1-2.638.631,2.581,2.581,0,0,0,.433-1.1c.026-.314.354-.476.985-.476,0,.264.116.4.354.4a3.985,3.985,0,0,0,1.142-.276q.784-.274,1.652-.668a10.406,10.406,0,0,0,2.833-1.339.476.476,0,0,1-.314-.433,3.691,3.691,0,0,1,.314-1.063,12.749,12.749,0,0,0-3.265,1.379q-2.712,1.38-4.757,2.321l-.649.63h.866l.078.238a9.074,9.074,0,0,1-2.637,1.85,6.016,6.016,0,0,1-2.321.669l-.631-.552a1.089,1.089,0,0,1,.669-.985,2.9,2.9,0,0,1,.827-.352l.314.314a2.3,2.3,0,0,1,.119-.551c.079-.262.143-.393.2-.393l.314.157v.476a8.047,8.047,0,0,1,1.3-1.772,2.559,2.559,0,0,1,1.85-.984l-.63.865a5.312,5.312,0,0,0,1.612-1.217,4.9,4.9,0,0,1,1.782-1.223Zm-4.563-21.4c.575,0,.865.393.865,1.189,0,.107-.3.4-.906.866s-1.089.866-1.455,1.189a10.646,10.646,0,0,1-1.023.785v.316a8,8,0,0,0,1.258-.713q.714-.476,1.427-.866a6.556,6.556,0,0,1,2.557-1.189c.444,0,.67.079.67.238a2.548,2.548,0,0,1,1.494-1.189,10.453,10.453,0,0,0-5.9-2.205,27.927,27.927,0,0,1-2.461,2.205,31.879,31.879,0,0,0-2.833,2.437q1.022-.476,2.126-1.022l2.046-1.023q1.1-.549,2.126-1.022Zm-4.172,2.833q-.316,0-.63.59a2.2,2.2,0,0,0-.316.827q2.283,0,4.723-3.07h-.314Zm5.863.078a28.014,28.014,0,0,0-2.754,1.189c-.6.314-.906.657-.906,1.023s.316.735.951,1.1q.788-1.427,3.936-3.068a7.854,7.854,0,0,0,1.339-.951,8.538,8.538,0,0,0-2.578.7Zm7.436,2.678.16.314q-.633.393-1.9,1.258t-2.518,1.574l.316.238a2.9,2.9,0,0,1-1.22.952,2.888,2.888,0,0,0-1.22.951l.238.314c.1-.262.563-.561,1.377-.9a10.611,10.611,0,0,1,2.085-.671v.631a8.813,8.813,0,0,1-.984.368q-.671.238-1.38.55-1.728.789-1.731,1.1,0,1.1.749,1.1c.5,0,.747-.066.747-.2s.209-.366.63-.714a10.859,10.859,0,0,1,1.665-1.063,15.4,15.4,0,0,0,1.967-1.258q2.439-1.574,2.44-3.305a4.893,4.893,0,0,0-.866-2.835q-1.577-2.517-2.989-2.516a8.733,8.733,0,0,0-2.678,1.572,26.8,26.8,0,0,0-4.407,3.465,18.228,18.228,0,0,1,2.518-1.1,5.823,5.823,0,0,0,2.44-1.731,4.476,4.476,0,0,1,2.243-.63c.761,0,1.168.107,1.22.316a17.745,17.745,0,0,1-2.754,2.045q-4.566,3.073-4.566,3.384a6.561,6.561,0,0,0,2.324-.746c1.074-.5,1.69-.8,1.847-.907v.552a17.851,17.851,0,0,1-2.518,1.189q-1.26.475-1.258,1.261c0,.316.238.475.713.475a19.009,19.009,0,0,1,2.478-1.89q1.141-.714,2.481-1.575a1.283,1.283,0,0,0,.549-.982.659.659,0,0,1,.714-.67v.475Zm-8.892,1.888c.209.21.355.314.433.314a3.243,3.243,0,0,0,.825-.475c.476-.317.971-.657,1.5-1.025a21.761,21.761,0,0,0,2.205-1.653h-.317a5.245,5.245,0,0,0-2.832,1.3,9.681,9.681,0,0,0-1.822,1.537Zm8.027,8.973,1.9-.394a1.728,1.728,0,0,1,.276.04,1.81,1.81,0,0,0,.352.038q-.157,1.024-4.091,2.519-4.016,1.664-4.014,1.966l4.407-.713v.314a2.191,2.191,0,0,0,1.427-.512,2.144,2.144,0,0,1,1.377-.511q.747,0,1.85-5.194a15.156,15.156,0,0,0-.951-5.037,24.549,24.549,0,0,1-3.225,2.2q-4.35,2.683-4.825,3.465a1.778,1.778,0,0,0,.9-.314,1.8,1.8,0,0,1,.906-.313.854.854,0,0,1,.631.237q.237-.712,2.123-1.26a17.2,17.2,0,0,1,2.126-.549,3.254,3.254,0,0,1,.714.116,3.268,3.268,0,0,0,.628.119,8.48,8.48,0,0,1-3.225,2.519,16.472,16.472,0,0,0-5.2,3.384,11.793,11.793,0,0,0,1.731-.747,26.487,26.487,0,0,1,3.622-1.377l.314-.316c-.01.209.069.314.226.314Zm-5.278.623a5.613,5.613,0,0,1,2.519-1.809q3.146-1.336,3.149-1.653l-5.668,1.888Zm4.407,8.029a8.66,8.66,0,0,0-4.012,2.833,10.021,10.021,0,0,1,1.139-.2,1.426,1.426,0,0,0,.749-.273,11.745,11.745,0,0,0,2.117-2.362Zm.316-16.133c.367,0,.55-.16.55-.476s.342-.476,1.025-.476v.714q0,.4-.951.713a4.935,4.935,0,0,1-1.427.316q0-.951.475-1.025a.313.313,0,0,0,.321.234Z"/><path class="d" d="M2541.935,1209.51a28.12,28.12,0,0,1,4.535.371,18.653,18.653,0,0,1,5.106,1.751l-1.85,5.964a24.184,24.184,0,0,0-3.924-1.369,15.011,15.011,0,0,0-3.686-.533,6.014,6.014,0,0,0-3.425.825,2.718,2.718,0,0,0-1.206,2.378,2.539,2.539,0,0,0,.614,1.665,6.166,6.166,0,0,0,1.679,1.348,24.19,24.19,0,0,0,2.937,1.394q1.864.756,2.378.992a16.208,16.208,0,0,1,5.822,3.829,7.454,7.454,0,0,1,1.8,5.056,9.252,9.252,0,0,1-.875,4.016,8.719,8.719,0,0,1-2.528,3.144,12.018,12.018,0,0,1-4.017,2.008,18.032,18.032,0,0,1-5.2.713,26.648,26.648,0,0,1-5.907-.713,27.173,27.173,0,0,1-5.625-1.9l1.939-6.183a21.709,21.709,0,0,0,4.82,1.8,19.977,19.977,0,0,0,4.821.664,5.588,5.588,0,0,0,3.329-.9,2.776,2.776,0,0,0,1.261-2.359,2.92,2.92,0,0,0-.8-1.889q-.807-.945-4.913-2.482a26.28,26.28,0,0,1-5.87-2.811,9.085,9.085,0,0,1-2.671-2.954,8.308,8.308,0,0,1-.922-4.043,8.666,8.666,0,0,1,3.239-7.23Q2536.029,1209.506,2541.935,1209.51Z"/><path class="d" d="M2571.517,1236.346l.616,5.946a27.661,27.661,0,0,1-6.333.713q-4.111,0-5.883-2.174t-1.772-7.229v-8.36h-3.594v-5.812h3.736l1.7-7.515,6.184-.048v7.563h5.469v5.812h-5.469v7.513a5.068,5.068,0,0,0,.613,2.854,2.447,2.447,0,0,0,2.126.875Q2569.96,1236.489,2571.517,1236.346Z"/><path class="d" d="M2598.55,1219.43v23.156h-6.475l-.519-2.554h-.19a17.059,17.059,0,0,1-3.237,2.1,9.581,9.581,0,0,1-4.371.92q-8.087,0-8.086-9.263V1219.43h8.038v13.939q0,3.357,2.93,3.358a6.137,6.137,0,0,0,3.877-1.373V1219.42Z"/><path class="d" d="M2612.444,1243.152a8.668,8.668,0,0,1-7.161-3.212q-2.576-3.213-2.576-8.885,0-5.709,2.6-8.909a8.767,8.767,0,0,1,7.232-3.189,9.273,9.273,0,0,1,5.765,2.031h.19v-12.429h8.033v34.027h-5.246l-1.189-2.929h-.14A10.5,10.5,0,0,1,2612.444,1243.152Zm2.5-6.054a6.679,6.679,0,0,0,3.639-1.19v-9.769a6.6,6.6,0,0,0-3.639-1.135,3.553,3.553,0,0,0-3.142,1.561,10,10,0,0,0,0,8.98A3.554,3.554,0,0,0,2614.948,1237.1Z"/><path class="d" d="M2650.345,1235.685l1.936,4.963a15.6,15.6,0,0,1-4.181,1.748,20.26,20.26,0,0,1-5.318.661,14.568,14.568,0,0,1-5.3-.9,10.26,10.26,0,0,1-3.828-2.5,10.506,10.506,0,0,1-2.26-3.749,13.789,13.789,0,0,1-.756-4.608,15.145,15.145,0,0,1,.756-4.821,10.828,10.828,0,0,1,2.283-3.955,10.358,10.358,0,0,1,3.97-2.616,15.383,15.383,0,0,1,5.6-.951,9.9,9.9,0,0,1,6.4,2.031,6.329,6.329,0,0,1,2.528,5.151,5.967,5.967,0,0,1-.756,2.835,6.951,6.951,0,0,1-2.549,2.554,16.528,16.528,0,0,1-4.49,1.864,26.106,26.106,0,0,1-6.143.828,3.709,3.709,0,0,0,1.793,2.269,6.84,6.84,0,0,0,3.546.851A14.565,14.565,0,0,0,2650.345,1235.685Zm-7.893-11.294a4.042,4.042,0,0,0-4.019,2.575,6.035,6.035,0,0,0-.476,2.616,14.472,14.472,0,0,0,5.27-.851q1.912-.8,1.915-2.269a1.818,1.818,0,0,0-.728-1.493A3.128,3.128,0,0,0,2642.452,1224.391Z"/><path class="d" d="M2670.76,1218.957q8.085,0,8.085,9.26v14.369h-8.038v-13.943q0-3.352-2.93-3.356a6.391,6.391,0,0,0-2.078.357,5.747,5.747,0,0,0-1.8.968v15.974h-8.033V1219.43h6.483l.475,2.5h.188a13.343,13.343,0,0,1,3.758-2.292A10.939,10.939,0,0,1,2670.76,1218.957Z"/><path class="d" d="M2699.21,1236.346l.614,5.946a27.653,27.653,0,0,1-6.331.713q-4.113,0-5.884-2.174t-1.774-7.229v-8.36h-3.591v-5.812h3.734l1.7-7.515,6.183-.048v7.563h5.47v5.812h-5.47v7.513a5.067,5.067,0,0,0,.614,2.854,2.447,2.447,0,0,0,2.126.875C2697.3,1236.489,2698.171,1236.441,2699.21,1236.346Z"/><path class="e" d="M2615.964,1274.7l-.914,4.443a2.519,2.519,0,0,0,.512,2.114l1.034,1.215-.994,2.921a2.626,2.626,0,0,0,.276,2.176l12.6,19.831a3.611,3.611,0,0,0,2.253,1.525,3.172,3.172,0,0,0,1.457-.036l15.72-3.458a2.416,2.416,0,0,0,1.841-1.629l1.439-4.281a2.455,2.455,0,0,0-.276-2.176l-1.382-2.237h0a2.643,2.643,0,0,0,1.665-1.886l.913-4.443a2.515,2.515,0,0,0-.511-2.114l-.588-.678,1.741-.592a2.72,2.72,0,0,0,1.617-1.9l.916-4.442a2.515,2.515,0,0,0-.514-2.114l-15.358-18.614a2.461,2.461,0,0,0-2.792-.8l-15.817,5.558a2.551,2.551,0,0,0-1.606,1.845l-.915,4.44a2.513,2.513,0,0,0,.513,2.115l.573.732-1.738.59A2.7,2.7,0,0,0,2615.964,1274.7Zm20.859,14.112a1.4,1.4,0,0,1-1.582-.437l-14.9-18.129a.5.5,0,0,1-.083-.409l.649-3.156,14.412,17.525a2.919,2.919,0,0,0,1.441.856,2.828,2.828,0,0,0,1.363-.109l14.914-5.244-.695,3.372c-.042.214-.13.364-.3.385Zm-19.3-2.692.575-1.721,5.8,7.051,6.873,10.787a2.564,2.564,0,0,0,1.612,1.113,2.345,2.345,0,0,0,1.061,0l15.43-3.405-1.059,3.241a.572.572,0,0,1-.4.307l-15.665,3.465a1.525,1.525,0,0,1-1.541-.652l-12.6-19.831a.607.607,0,0,1-.085-.355Zm-.49-6.571.652-3.158,14.464,17.546a2.424,2.424,0,0,0,1.441.854,2.816,2.816,0,0,0,1.36-.109l14.916-5.232-.694,3.37c-.045.214-.131.364-.3.385l-15.221,5.346a1.4,1.4,0,0,1-1.583-.437l-14.9-18.129a.488.488,0,0,1-.083-.407Z"/></g></svg>