<svg id="Layer_1" data-name="Layer 1" xmlns="http://www.w3.org/2000/svg" width="212.40753" height="56.57251" viewBox="0 0 212.40753 56.57251">
  <defs>
    <style>
      .cls-1 {
        fill: #ec0000;
      }
    </style>
  </defs>
  <path class="cls-1" d="M70.70734,44.53674a16.54356,16.54356,0,0,0-4.17487.62183V56.26166H68.087V46.22449a11.64447,11.64447,0,0,1,2.576-.311c2.73139,0,3.50861,1.06592,3.50861,3.13117v7.217H75.726v-7.5058C75.726,46.069,74.46027,44.53674,70.70734,44.53674Zm25.2265,9.39337a4.48658,4.48658,0,0,1-3.15332,1.26569c-1.99854,0-2.93122-.97717-2.93122-3.2865v-7.106H88.29486v7.41681c0,2.95343,1.4212,4.30811,3.99707,4.30811a4.91361,4.91361,0,0,0,3.68628-1.26587l.04437.99933h1.46558V44.80328H95.93384ZM83.05408,49.955l-1.04364-.35529c-1.37683-.46631-2.2428-.84387-2.2428-2.08728,0-1.08819.866-1.64325,2.57587-1.64325a9.48017,9.48017,0,0,1,3.24218.55506,5.98643,5.98643,0,0,0,.222-1.31019,9.6935,9.6935,0,0,0-3.50861-.57733c-2.50927,0-4.01934,1.04364-4.01934,3.02,0,1.77674,1.08813,2.77588,3.06445,3.37549l1.02148.31079c1.06592.33325,2.28736.79956,2.28736,2.13178,0,1.26593-1.04377,1.79876-2.75367,1.79876a7.76218,7.76218,0,0,1-3.61962-.8659,4.4613,4.4613,0,0,0-.22205,1.35449,7.684,7.684,0,0,0,3.88605.86609c2.66479,0,4.21923-1.17688,4.21923-3.19769C86.163,51.3985,84.80847,50.55463,83.05408,49.955ZM89.12,32.10291h3.607V21.08508c0-3.96789-1.93469-6.296-7.96826-6.296a30.72964,30.72964,0,0,0-6.55823.918V32.10291h3.607V18.13379a18.08435,18.08435,0,0,1,2.8529-.26233c3.607,0,4.4596,1.24628,4.4596,3.83661ZM70.75616,30.13556l.19672,1.96735h3.312V15.70715a18.37836,18.37836,0,0,0-6.19757-.918c-6.06641,0-9.14874,3.27906-9.14874,9.05054,0,5.50867,2.88562,8.65662,7.21405,8.65662A5.03165,5.03165,0,0,0,70.75616,30.13556Zm-8.165-6.2959c0-3.67261,1.73785-5.9682,5.47613-5.9682a14.89411,14.89411,0,0,1,2.59045.19672V28.36462a5.648,5.648,0,0,1-3.5086,1.18061C63.93561,29.54523,62.59113,27.18427,62.59113,23.83966ZM48.12946,29.34833a15.31792,15.31792,0,0,1-6.00092-1.27869,11.02425,11.02425,0,0,0-.623,3.31189,15.77826,15.77826,0,0,0,6.72223,1.246c5.57447,0,8.42725-2.59057,8.42725-6.36157,0-3.18066-1.73785-5.04962-5.90228-6.82056l-1.77082-.754c-2.29541-.984-3.57428-1.96759-3.57428-3.67286,0-1.73773,1.31171-2.85272,4.16449-2.85272a16.63334,16.63334,0,0,1,5.37787.951,12.59716,12.59716,0,0,0,.6557-3.27923,17.98869,17.98869,0,0,0-6.00073-.951c-5.31213,0-7.90271,2.39392-7.90271,6.132,0,3.4759,2.09863,5.21387,5.181,6.55848l1.67236.72131c3.0824,1.34436,4.32843,2.22968,4.32843,4.13165C52.88409,28.36462,51.179,29.34833,48.12946,29.34833ZM25.02362,15.215a7.56874,7.56874,0,0,0-1.00671-3.45783L18.55048,2.28912A7.56548,7.56548,0,0,1,17.68567,0l-.22839.39569a7.57393,7.57393,0,0,0-.00013,7.574l4.37317,7.57464a7.57432,7.57432,0,0,1,0,7.57434l-.22845.39569a7.5652,7.5652,0,0,0-.86475-2.28912L16.73358,14.291,14.17737,9.8634a7.569,7.569,0,0,1-.86475-2.28906L13.08423,7.97a7.57379,7.57379,0,0,0-.01331,7.55036l-.00049.00024,4.38685,7.59808a7.57437,7.57437,0,0,1,0,7.57434l-.22852.39576a7.56509,7.56509,0,0,0-.86469-2.28919l-5.46636-9.46808a7.56982,7.56982,0,0,1-1.00684-4.11541C4.039,16.74493,0,19.99127,0,23.74994c0,5.229,7.81592,9.468,17.45728,9.468s17.45727-4.239,17.45727-9.468C34.91455,19.99109,30.87579,16.7439,25.02362,15.215ZM170.74146,32.49628a12.40578,12.40578,0,0,0,5.31225-1.04932c.22962-1.082.42627-2.328.55731-3.279a14.05772,14.05772,0,0,1-5.77124,1.246c-3.21356,0-4.91858-1.41-5.37762-4.32831h11.50958a19.21541,19.21541,0,0,0,.1969-2.78729c0-4.13184-2.22992-7.50922-7.37817-7.50922-5.73828,0-8.00092,3.86933-8.00092,8.75525C161.78955,29.15161,164.70789,32.49628,170.74146,32.49628Zm-1.14765-14.69043c2.49225,0,3.93494,1.574,3.93494,4.26288h-8.1322C165.69153,19.28143,167.03613,17.80585,169.59381,17.80585ZM48.8559,42.0719a8.82852,8.82852,0,0,1,3.04229.53284,5.74476,5.74476,0,0,0,.26642-1.48774,9.32181,9.32181,0,0,0-3.30871-.53308c-4.66333,0-7.35035,2.9314-7.35035,7.99439,0,4.81872,2.55378,7.9942,7.19489,7.9942a9.02837,9.02837,0,0,0,3.08673-.46637,8.91682,8.91682,0,0,0,.24414-1.64319,8.036,8.036,0,0,1-3.131.62183c-3.50855,0-5.77362-2.4206-5.77362-6.57318C43.12665,44.29248,45.39172,42.0719,48.8559,42.0719Zm9.971,2.46484c-3.442,0-5.485,2.30933-5.485,6.06238,0,3.41974,1.79877,5.92908,5.35174,5.92908,3.50855,0,5.50721-2.30957,5.50721-6.10687C64.20081,47.04608,62.42426,44.53674,58.8269,44.53674Zm-.04449,10.59253c-2.53149,0-3.86383-1.66552-3.86383-4.64117,0-2.73139,1.26569-4.55237,3.86383-4.55237,2.50934,0,3.84167,1.68768,3.84167,4.59662C62.62408,53.33051,61.3584,55.12927,58.78241,55.12927ZM105.123,31.97162c.19677-.95075.32794-2.06568.42633-3.04938a8.17582,8.17582,0,0,1-2.82013.4917c-1.73786,0-2.78717-.81964-2.78717-2.951V18.42883h5.37774a27.76806,27.76806,0,0,0,.32788-3.08233H99.942V9.14893a12.47454,12.47454,0,0,0-3.60706.52465V26.889c0,4.00061,2.2298,5.6073,5.73853,5.6073A8.18463,8.18463,0,0,0,105.123,31.97162Zm36.82324,24.29h1.5542v-6.995h6.39544c.06678-.42181.13324-1.08813.15552-1.48773h-6.551V42.38269h6.995a11.76339,11.76339,0,0,0,.17774-1.48773h-8.727ZM158.83752,9.14893a10.95287,10.95287,0,0,0-3.57428.492v5.41052a14.11207,14.11207,0,0,0-2.6889-.26233c-6.06628,0-9.14862,3.27906-9.14862,9.05054,0,5.50867,2.88562,8.65662,7.21393,8.65662a4.97072,4.97072,0,0,0,4.68927-2.492l.19665,2.09864h3.312ZM155.26324,28.299a5.78065,5.78065,0,0,1-3.60693,1.24622c-3.21362,0-4.558-2.361-4.558-5.70557,0-3.73828,1.705-5.9682,5.27929-5.9682a14.42055,14.42055,0,0,1,2.88562.328ZM112.25562,44.53674a9.09649,9.09649,0,0,0-3.886.93262,5.35773,5.35773,0,0,0-3.48639-.93262,16.9055,16.9055,0,0,0-4.37457.62183V56.26166h1.55432V46.22449a12.27106,12.27106,0,0,1,2.66473-.311c2.3761,0,3.26434.88837,3.26434,3.04242v7.30579h1.55451v-7.5058a5.6643,5.6643,0,0,0-.37756-2.1983,7.5136,7.5136,0,0,1,2.95343-.64411c2.28735,0,3.26434,1.06592,3.26434,3.08667v7.26154h1.55444v-7.5058C116.94116,46.069,115.60876,44.53674,112.25562,44.53674Zm49.29864,0a16.54267,16.54267,0,0,0-4.1748.62183V56.26166h1.55444V46.22449a11.64436,11.64436,0,0,1,2.57587-.311c2.73138,0,3.50878,1.06592,3.50878,3.13117v7.217H166.573v-7.5058C166.573,46.069,165.30707,44.53674,161.55426,44.53674Zm7.306,6.0846c0,3.7973,1.95429,5.90686,5.10748,5.90686a4.49815,4.49815,0,0,0,3.02021-1.13263l.04425.86609h1.44348V45.15857a10.08445,10.08445,0,0,0-3.70856-.62183C170.79236,44.53674,168.86029,46.71307,168.86029,50.62134Zm8.06091,3.48626a3.91965,3.91965,0,0,1-2.82013,1.1327c-2.42034,0-3.66406-1.75452-3.66406-4.619,0-2.97565,1.35474-4.70789,4.33014-4.70789a8.17731,8.17731,0,0,1,2.15405.26654Zm8.74952-9.57086a16.54356,16.54356,0,0,0-4.17487.62183V56.26166h1.5545V46.22449a11.64443,11.64443,0,0,1,2.57587-.311c2.73138,0,3.50873,1.06592,3.50873,3.13117v7.217h1.55444v-7.5058C190.68939,46.069,189.42352,44.53674,185.67072,44.53674Zm26.73681,5.15174c0-2.86438-1.4212-5.15174-4.7522-5.15174-3.642,0-5.12976,2.62036-5.12976,5.92908,0,3.81958,1.95429,6.06238,5.6626,6.06238a6.75554,6.75554,0,0,0,3.53076-.84387,14.68434,14.68434,0,0,0,.24427-1.48792,7.5268,7.5268,0,0,1-3.73053.9549c-2.53162,0-3.93055-1.42121-4.13038-4.08588h8.21625A9.34205,9.34205,0,0,0,212.40753,49.68848Zm-1.5545-.022h-6.75074c.17756-2.30957,1.26569-3.77508,3.48627-3.77508,2.19855,0,3.26447,1.48773,3.26447,3.68609Zm-12.10248-3.75305a6.13234,6.13234,0,0,1,2.46484.51081,9.03629,9.03629,0,0,0,.17755-1.35444,6.46305,6.46305,0,0,0-2.64239-.53308c-3.95282,0-5.86255,2.39832-5.86255,6.0401,0,3.81958,2.154,5.95136,5.41827,5.95136a4.95829,4.95829,0,0,0,2.86463-.77735c.0888-.48852.15552-1.04364.19983-1.48773a5.34373,5.34373,0,0,1-2.93122.88819c-2.28729,0-3.97479-1.44324-3.97479-4.619C194.46472,47.62341,195.90814,45.91345,198.75055,45.91345ZM183.8916,18.06818a18.11608,18.11608,0,0,1,2.656-.19672,23.23941,23.23941,0,0,1,2.72162.13129,13.42434,13.42434,0,0,0,.328-3.08258,29.42,29.42,0,0,0-3.148-.13105,21.95609,21.95609,0,0,0-6.16486.918V32.10291h3.60718ZM124.26971,44.53674c-3.6419,0-5.12976,2.62036-5.12976,5.92908,0,3.81958,1.95417,6.06238,5.6626,6.06238a6.75657,6.75657,0,0,0,3.53089-.84387,14.72075,14.72075,0,0,0,.24426-1.48792,7.52786,7.52786,0,0,1-3.73065.9549c-2.53162,0-3.93055-1.42121-4.13038-4.08588H128.933a9.35042,9.35042,0,0,0,.08881-1.377C129.02179,46.8241,127.60059,44.53674,124.26971,44.53674Zm3.1977,5.12976h-6.75074c.17756-2.30957,1.26569-3.77508,3.48639-3.77508,2.19843,0,3.26435,1.48773,3.26435,3.68609Zm3.99707-4.50793V56.26166h1.5545V46.15771a11.08369,11.08369,0,0,1,2.17627-.24426,13.48435,13.48435,0,0,1,1.7099.089,5.49017,5.49017,0,0,0,.1554-1.3324,15.48729,15.48729,0,0,0-1.90979-.0888A12.82569,12.82569,0,0,0,131.46448,45.15857ZM122.077,15.70715a18.37838,18.37838,0,0,0-6.19758-.918c-6.06652,0-9.14874,3.27906-9.14874,9.05054,0,5.50867,2.8855,8.65662,7.21405,8.65662a5.03168,5.03168,0,0,0,4.6236-2.36072l.19671,1.96735h3.312Zm-3.60724,12.65747a5.64781,5.64781,0,0,1-3.50861,1.18061c-3.21338,0-4.558-2.361-4.558-5.70557,0-3.67261,1.738-5.9682,5.47625-5.9682a14.89277,14.89277,0,0,1,2.59034.19672Zm14.10113-13.5755a30.72973,30.72973,0,0,0-6.55823.918V32.10291h3.607V18.13379a18.08308,18.08308,0,0,1,2.8529-.26233c3.60694,0,4.4596,1.24628,4.4596,3.83661V32.10291h3.607V21.08508C140.53912,17.11719,138.60443,14.78912,132.57086,14.78912ZM153.5824,40.93927a1.01568,1.01568,0,0,0-1.04389,1.04382.99764.99764,0,0,0,1.04389,1.02143.97935.97935,0,0,0,1.02136-1.02143A.99745.99745,0,0,0,153.5824,40.93927Zm-.77735,15.32239h1.55445V44.80328h-1.55445Z"/>
</svg>
