<svg xmlns="http://www.w3.org/2000/svg" width="424.747" height="61.134" viewBox="0 0 424.747 61.134"><defs><style>.a{fill:#161615;}</style></defs><g transform="translate(-22.878 -28.378)"><path class="a" d="M428.3,88h2.592V70.816L447.625,88.9V65.12h-2.592V82.5L428.3,64.224ZM415.209,70.24l3.648,8.416h-7.3Zm0-6.016L404.841,88h2.944l2.976-7.008h8.928L422.665,88h2.944ZM399.4,88h2.72V65.12H399.4Zm-18.784,0h2.688V75.68L393.61,88h3.52L386.346,75.424l9.824-10.3h-3.264l-9.6,10.176V65.12h-2.688Zm-24,0h2.592V70.816L375.946,88.9V65.12h-2.592V82.5L356.618,64.224Zm-16.512,0H352.17V85.472h-9.344V76.7h9.344V74.176h-9.344v-6.56h9.344v-2.5H340.106Zm-17.824,0h4.768c3.264,0,5.5-.1,7.168-1.729a6.771,6.771,0,0,0,1.888-4.767c0-3.072-1.7-5.216-4.384-5.632a4.548,4.548,0,0,0,3.392-4.736,5.913,5.913,0,0,0-2.3-4.865c-1.44-1.055-3.264-1.151-5.76-1.151h-4.768Zm2.656-10.72h2.912a6.563,6.563,0,0,1,3.488.608,3.86,3.86,0,0,1,1.888,3.616,4.094,4.094,0,0,1-1.5,3.36c-.992.7-2.5.768-4.672.768h-2.112Zm0-9.792h2.112c3.616,0,5.28.672,5.28,3.968,0,2.784-1.6,3.68-5.28,3.68h-2.112ZM307.531,88h11.36V85.408h-8.64V65.12h-2.72Zm-22.5-22.88V79.36c0,6.176,2.912,9.248,8.864,9.248s8.864-3.072,8.864-9.248V65.12h-2.752V79.36c0,4.575-1.856,6.72-6.112,6.72s-6.112-2.145-6.112-6.72V65.12ZM271.979,76.192v2.432h6.528a7.907,7.907,0,0,1-8.256,7.52c-5.216,0-8.96-3.873-8.96-9.344,0-5.792,3.648-9.728,8.96-9.728a8.057,8.057,0,0,1,7.36,4.159l2.272-1.823c-2.144-3.232-5.376-4.8-9.728-4.8a11.36,11.36,0,0,0-8.128,2.976,12.1,12.1,0,0,0-3.68,9.216,11.444,11.444,0,0,0,5.888,10.464,12.062,12.062,0,0,0,5.76,1.344c6.976,0,11.424-4.352,11.424-11.648v-.768ZM236.6,88h12.064V85.472h-9.344V76.7h9.344V74.176h-9.344v-6.56h9.344v-2.5H236.6Zm-13.183,0h2.752V67.712H232.6V65.12H216.948v2.592h6.464ZM210.964,75.3,207.7,73.855c-2.08-.9-3.072-2.047-3.072-3.679a3.27,3.27,0,0,1,3.488-3.328c1.632,0,2.88.9,3.872,2.624l2.24-1.44a6.143,6.143,0,0,0-5.92-3.456c-3.808,0-6.432,2.432-6.432,5.632,0,2.784,1.472,4.768,4.512,6.048l2.784,1.183c2.368,1.025,3.552,2.529,3.552,4.577,0,2.5-1.824,4.255-4.576,4.255-2.3,0-3.872-1.439-4.544-4.223l-2.464,1.216a6.722,6.722,0,0,0,7.008,5.312c4.416,0,7.328-2.816,7.328-7.008,0-2.88-1.5-4.992-4.512-6.272M179.188,65.12V79.36c0,6.176,2.912,9.248,8.864,9.248s8.864-3.072,8.864-9.248V65.12h-2.752V79.36c0,4.575-1.856,6.72-6.112,6.72s-6.112-2.145-6.112-6.72V65.12ZM163.253,86.048a9.17,9.17,0,0,1-6.624-2.784,9.291,9.291,0,0,1-2.752-6.656,9.437,9.437,0,0,1,2.752-6.72,9.348,9.348,0,0,1,13.248,0,9.382,9.382,0,0,1,2.752,6.72,9.451,9.451,0,0,1-9.376,9.44m12.224-9.44a11.649,11.649,0,0,0-3.552-8.512,12.485,12.485,0,0,0-17.312,0,11.862,11.862,0,0,0,0,16.992,12.4,12.4,0,0,0,17.312,0,11.654,11.654,0,0,0,3.552-8.48M138.773,88h11.36V85.408h-8.64V65.12h-2.72ZM125.365,70.24l3.648,8.416h-7.3Zm0-6.016L115,88h2.944l2.976-7.008h8.928L132.821,88h2.944Zm-12.352,6.368V67.04a12.879,12.879,0,0,0-7.52-2.464,11.813,11.813,0,0,0-8.512,3.359A12.162,12.162,0,0,0,98.549,86.5a11.8,11.8,0,0,0,6.752,2.112,13.126,13.126,0,0,0,7.712-2.5V82.5a9.55,9.55,0,0,1-7.488,3.616,9.307,9.307,0,0,1-7.712-4.064,9.139,9.139,0,0,1-1.568-5.408,9.318,9.318,0,0,1,2.624-6.752A9.215,9.215,0,0,1,105.4,67.1a9.813,9.813,0,0,1,7.616,3.489"/><path class="a" d="M126.837,47.36c0,4.576-1.856,6.72-6.112,6.72s-6.112-2.144-6.112-6.72V33.12h-2.752V47.36c0,6.176,2.912,9.248,8.864,9.248s8.864-3.072,8.864-9.248V33.12h-2.752Z"/><path class="a" d="M151.092,50.5,134.356,32.224V56h2.592V38.816L153.684,56.9V33.12h-2.592Z"/><path class="a" d="M263.155,36.1a12.485,12.485,0,0,0-17.312,0,11.862,11.862,0,0,0,0,16.992,12.4,12.4,0,0,0,17.312,0,11.937,11.937,0,0,0,0-16.992Zm-2.048,15.168a9.376,9.376,0,0,1-16-6.656,9.437,9.437,0,0,1,2.752-6.72,9.348,9.348,0,0,1,13.248,0,9.382,9.382,0,0,1,2.752,6.72A9.236,9.236,0,0,1,261.107,51.264Z"/><path class="a" d="M203.124,35.936a11.582,11.582,0,0,0-3.584,8.736,11.6,11.6,0,0,0,5.152,9.824,11.785,11.785,0,0,0,5.106,1.993v2.02c.258-.026.785-.026.992-.026,1.138,0,1.681.336,1.681,1.086,0,.7-.517,1.035-1.526,1.035a15.212,15.212,0,0,1-3.1-.491V61.38a12.411,12.411,0,0,0,3.259.569c2.07,0,3.156-.853,3.156-2.38,0-1.474-.957-2.276-2.82-2.276h-.362v-.7c.124,0,.246.014.37.014a13.126,13.126,0,0,0,7.712-2.5V50.5a9.55,9.55,0,0,1-7.488,3.616,9.307,9.307,0,0,1-7.712-4.064,9.139,9.139,0,0,1-1.568-5.408,9.318,9.318,0,0,1,2.624-6.752A9.214,9.214,0,0,1,211.54,35.1a9.812,9.812,0,0,1,7.616,3.488V35.04a12.879,12.879,0,0,0-7.52-2.464A11.81,11.81,0,0,0,203.124,35.936Z"/><path class="a" d="M94.453,56h2.72V44.7h9.344V42.176H97.173v-6.56h9.344v-2.5H94.453Z"/><path class="a" d="M178.1,56h2.944l2.976-7.008h8.928L195.924,56h2.944l-10.4-23.776Zm6.72-9.344,3.648-8.416,3.648,8.416Z"/><path class="a" d="M220.979,56h2.944l2.976-7.008h8.928L238.8,56h2.944l-10.4-23.776Zm6.72-9.344,3.648-8.416,3.648,8.416Z"/><path class="a" d="M173.428,35.264c-2.784-2.144-6.08-2.144-10.368-2.144h-4.384V56h5.376c3.712,0,6.72-.1,9.376-2.144,2.624-2.016,4-5.184,4-9.28S176.052,37.28,173.428,35.264ZM171.7,51.808c-1.92,1.6-4.64,1.632-8.544,1.632h-1.728V35.648h1.728c3.936,0,6.656.064,8.544,1.664,1.888,1.568,2.88,4,2.88,7.232S173.556,50.272,171.7,51.808Z"/><path class="a" d="M234.995,28.378h-1.078a1.184,1.184,0,0,1-1.153.9,2.656,2.656,0,0,1-.652-.126l-1.2-.351a2.33,2.33,0,0,0-.728-.1c-1.2,0-2.055.877-2.356,2.507H228.9a1.155,1.155,0,0,1,1.1-.827,2.132,2.132,0,0,1,.6.1l1.178.326a3.142,3.142,0,0,0,.8.125c1.229,0,2.081-.877,2.407-2.557"/><path class="a" d="M52.371,89.512c-16.538,0-29.493-12.471-29.493-28.391,0-17.092,12.4-29.5,29.493-29.5,10.644,0,18.8,4.258,24.25,12.656l-2.435,1.57C69.24,38.222,62.1,34.514,52.371,34.514c-15.411,0-26.592,11.19-26.592,26.607,0,14.3,11.679,25.5,26.592,25.5,12.631,0,22.56-7.813,24.215-18.8H68.16V64.936H79.773l-.119,1.556C78.62,79.83,67.145,89.512,52.371,89.512"/><path class="a" d="M26.364,62.027h0"/><path class="a" d="M52.706,48.479c0-.136-.453-.26-.4-.049a1.131,1.131,0,0,0,.4.049"/><path class="a" d="M27.772,62.747a.077.077,0,0,1-.049-.016.924.924,0,0,1-.56.28c-.258,0-.4-.257-.625-.231.122.572,1.178.645,1.234-.033"/><path class="a" d="M26.858,56.169l.009,0c.311-.322.631-.635.93-.98a7.029,7.029,0,0,0,.786-1.012c.356-.618-.47-.3-.253-.312a.283.283,0,0,1,.068.259,1.422,1.422,0,0,1-.4.639c-.4.432-.8.808-1.174,1.189-.052.07-.1.312.034.222"/><path class="a" d="M26.832,57.033l.02-.022c.392-.514.761-.976,1.139-1.412.319-.366.9-1.042,1.162-1.433.08-.121.224-.29.149-.458-.208.135-.257.386-.371.571a8.668,8.668,0,0,1-.71.842c-.475.505-1.009.977-1.472,1.5-.106.152-.2.716.083.412"/><path class="a" d="M75.813,58.65a4.44,4.44,0,0,0-.33-.494,3.582,3.582,0,0,0-1.036-.757,4.013,4.013,0,0,0-.724-.083,3.409,3.409,0,0,1-.708-.115,6.157,6.157,0,0,0-1.185-.461c-.848-.077-1.121.8-1.942.84a7.233,7.233,0,0,0-.264-.905c-.121-.264-.364-.5-.394-.774a1.1,1.1,0,0,1,.1-.461,2.573,2.573,0,0,0,.033-.411,6.232,6.232,0,0,0-.215-2.354,8.365,8.365,0,0,0-.507-1.111h0a.737.737,0,0,1-.1-.256c.017-.148.393-.289.56-.378.468-.25.773-.4,1.2-.675.187-.12.368-.368.575-.362.139,0,.224.122.347.2h0l.007-.019a1.058,1.058,0,0,0,.222.134c.144.059.522.133.56-.05.06-.284-.656-.245-.625-.576.031-.351.653-.109.856-.148.316-.809-.37-1.126-.841-1.432a7.469,7.469,0,0,0-.756-.477,16.482,16.482,0,0,0-1.695-.773,1.011,1.011,0,0,0-.938-.642c-.179-.169-.126-.545-.329-.659-.158-.087-.4.01-.593.066a3.693,3.693,0,0,0-1.02.428c-.14.091-.343.3-.284.4s.253-.047.365-.117a2.388,2.388,0,0,1,.38-.2c.221-.089.653-.269.777-.115.179.214-.3.317-.481.4-.153.066-.257.05-.313.148-.111.2.021.471-.181.543a.432.432,0,0,1-.28-.032c-.323-.129-.573-.487-.938-.577.043.249-.1.4-.247.593-.092.116-.217.259-.312.28-.261.055-.38-.119-.512-.247-.168-.166-.4-.331-.46-.543-.085-.313.219-.532.182-.741-.035-.188-.377-.2-.626-.23a7.272,7.272,0,0,0-.757-.1,2.632,2.632,0,0,0-1.119.23c-.15.07-.423.157-.379.28s.345-.044.51-.115a3.25,3.25,0,0,1,1.651-.036c.006.082-.2.264-.4.283-.087.008-.195-.033-.3-.033-.339,0-.751.1-.759.253s.233.338.479.306c.091-.011.174-.1.28-.1.082,0,.18.092.279.1s.219-.077.313-.065a1.636,1.636,0,0,1,.312.164c.123.066.223.124.313.181.146.092.477.336.429.543-.085.364-.865-.021-1.038-.016s-.493.225-.608-.017c-.031-.149.067-.246.017-.362-.113-.058-.137.072-.265.05-.219-.25-.332-.1-.608-.165a1.627,1.627,0,0,1-.593-.444c-.128-.156-.156-.372-.313-.379a1.1,1.1,0,0,0-.312.148,2.557,2.557,0,0,0-1.1,1.284c-.1.206-.221.518-.444.51s-.461-.352-.545-.576a2.275,2.275,0,0,0-.1-.362c-.094-.151-.314-.2-.427-.345a1.244,1.244,0,0,1-.181-.412c.041-.2.26-.345.229-.543-.022-.145-.341-.247-.526-.329a3.106,3.106,0,0,0-.641-.231,3.172,3.172,0,0,0-1.021.066c-.278.047-.737.132-.654.324s.3-.022.44-.077a2.764,2.764,0,0,1,1.169-.181c.2.037.952.362.823.609-.113.214-.443-.132-.544-.2-.256-.009-.486-.052-.756-.05-.246,0-.617.03-.66.2-.034.143.144.358.3.4s.341-.04.461.049c.07.073.013.314.1.329s.191-.252.379-.28a.9.9,0,0,1,.592.181c.075.079.1.293.148.363.118.19.346.213.346.4,0,.165-.2.306-.4.329-.23.027-.524-.153-.59-.1s.077.157.129.219a1.643,1.643,0,0,1,.411.806,1.606,1.606,0,0,1-.411,1.235,1.316,1.316,0,0,1-.906.148,1.8,1.8,0,0,1-.543-.543c-.046-.071-.094-.208-.175-.2s-.005.279-.005.279a3.934,3.934,0,0,0,.312.625c.119.168.314.268.428.412a5.353,5.353,0,0,1,.525.918.321.321,0,0,1-.015.152c-.032.1-.4.129-.61.148-1,.09-1.956.169-2.945.23-.527.032-.917.073-1.2-.164a1.235,1.235,0,0,1-.154-.163l0,0a.811.811,0,0,1-.205-.466c.03-.209.509-.286.741-.378.393-.158.843-.509,1.382-.379.206.05.715.407.822.033-.185-.122-.585-.122-.591-.379,0-.154.164-.284.329-.312.262-.045.587.147.79.016.064-.2-.029-.368,0-.576.02-.147.107-.271.1-.411-.025-.422-.446-.6-.772-.741-.214-.091-.52-.171-.544-.378a.643.643,0,0,1,.33-.56c.107-.033.3.023.443,0,.245-.038.48-.318.692-.3s.336.4.552.259-.138-.168-.206-.259a.554.554,0,0,0-.017-.2c-.44-.2-.484-.8-.938-.987a5.48,5.48,0,0,0-1.3,1.086c-.115.156-.3.538-.511.56-.269.028-.689-.324-.822-.445-.224-.2-.467-.582-.691-.707-.174-.1-.948-.193-.955-.428a.168.168,0,0,1,.007-.043c.76-.209,1.434-.394,1.865-.514,1.64-.457,8.447-2.409,9.069-2.588l2.2-.633s.294-.261.042-.311c-.189.051-1.267.364-1.267.364S53.6,44.43,52.476,44.76c-.391.115-1.218.344-2.145.6.017-.1-.074-.134-.287-.211h0c-.157-.035-.319-.1-.472-.133a1.13,1.13,0,0,0-.125-.022l-.046-.005a3.6,3.6,0,0,0-1.616.3c-.135.063-.385.227-.362.329s.2-.04.28-.082a3.2,3.2,0,0,1,.954-.346c.334-.054,1.295-.124,1.235.263-.033.2-.486.15-.742.165a2.169,2.169,0,0,0-1.116.259c-.053.115.337.379.525.383.1,0,.182-.088.278-.083s.187.147.3.149.175-.109.3-.083.14.2.23.264c.211-.165.338-.388.674-.362a1.685,1.685,0,0,1,.5.181c.277.129.644.409.548.594s-.395.1-.648.179c-.227.071-.436.248-.642.214-.19-.031-.266-.245-.443-.263.017.116-.033.215,0,.3.58.249,1.214.442,1.233,1.251-.283.343-.594.976-1.217.823-.366-.09-.523-.471-.609-.823-.029-.118-.108-.407-.181-.379a1.592,1.592,0,0,0-.016.774,1.411,1.411,0,0,0,.69.79,3.17,3.17,0,0,1,.412.1.791.791,0,0,1,.28.757c-.172.258-.534.292-.872.411-.727.256-1.563.475-2.305.658a1.634,1.634,0,0,1-.147-.839c-.018-.3-.027-.617-.034-.922a5.392,5.392,0,0,1,.2-1.761c.057-.135.208-.326.313-.51a2.813,2.813,0,0,1,.329-.494c.087-.088.338-.28.493-.263.235.026.453.419.506.379s.006-.27-.011-.4c.029-.119.24-.195.181-.3-.229-.04-.25.157-.461.165a1.107,1.107,0,0,1-.56-.214,1.581,1.581,0,0,1-.411-.362c-.248-.309-.615-.925-.7-.854-.052.045.016.169.066.3.008.022.016.044.022.066a.382.382,0,0,1,.02.13.362.362,0,0,1-.079.246c-.076.09-.162.185-.249.309-.118.032-.195.054-.225.063-.24.073-1.095.253-1.331.3a1.268,1.268,0,0,0-.182-.123.348.348,0,0,0-.246-.047c-.085.012-.611.082-.793.085a1.907,1.907,0,0,0-.676.059,11.523,11.523,0,0,1-2.3.543,11.438,11.438,0,0,0-1.995.4,1.243,1.243,0,0,1-.389.015A5.486,5.486,0,0,0,37.2,47.67c-.675.063-.8-.178-1.114-.2a2.242,2.242,0,0,1-.372-.062.2.2,0,0,0-.072-.121c-.084-.093.031-.188.052-.282-.084-.282-.335-.544-.147-.868-.041-.126-.177-.22-.219-.356-.01-.094.053-.157.1-.23a.861.861,0,0,0-.23-.6,2.589,2.589,0,0,0-1.822-.188,2.719,2.719,0,0,0-1.129.4,2.408,2.408,0,0,0-.8,1.926,1.16,1.16,0,0,0,.007.169.192.192,0,0,0,.128.113c.161.052.381,0,.535.04a.108.108,0,0,1,.082.071c.021.059.061.03.074.057a.315.315,0,0,1-.136.3l-.066.031a.313.313,0,0,1-.042,0,1.65,1.65,0,0,0-.3.041c-.157.035-.459.136-.733.209a2.581,2.581,0,0,0-1.171.531,6.447,6.447,0,0,0-.771,1.209c-.16.254-.8.683-.96,1.163a6.488,6.488,0,0,1-.525,1.1,1.4,1.4,0,0,0-.185.5.487.487,0,0,0,.039.345c.082.141.113.245.314.285s.636.094.983.135,1.449.084,1.693.139a.747.747,0,0,1,.549.317,1.529,1.529,0,0,0,.415.444.8.8,0,0,1,.19.562c0,.073-.012.145-.018.215a.517.517,0,0,0-.154.317,1.632,1.632,0,0,0-.042.4c0,.045.007.1.01.172-.313.942-.915,1.465-1.456,1.41-.2-.042-.38-.092-.5-.118-.161-.035-.291-.059-.4-.074-.317-.085-.194-.524-.03-.657a4.156,4.156,0,0,0,.96-1.485,2.572,2.572,0,0,1,.575-1,.437.437,0,0,0,.084-.107c.057-.088.052-.225-.13-.056a2.357,2.357,0,0,0-.6.793,8.833,8.833,0,0,1-2.544,2.685l-.142.1c-.013.01-.025.018-.035.027a1.6,1.6,0,0,0-.765,1.309,1.929,1.929,0,0,0,.033.512,3.966,3.966,0,0,0-.027,1.307c.075.128.136-.662.417-.6a1.64,1.64,0,0,0,.546.331c.265.095.325.277.28.433h0c-.011.038-.021.077-.031.115-.092.4.044,1.331-.23,1.515s-.731-.117-.873-.231l-.006-.007c-.156-.088-.126.123-.011.232a1.506,1.506,0,0,0,.61.335.56.56,0,0,0,.576-.363,7.377,7.377,0,0,0,.1-1.267,2.346,2.346,0,0,1,.215-.559,5.383,5.383,0,0,1,.262-.494,2.038,2.038,0,0,1,1.055-.724,2.468,2.468,0,0,1,.887-.082,1.961,1.961,0,0,1,1.268.79,1.6,1.6,0,0,0,1.316.691c.14-.078.1-.247.117-.362a2.934,2.934,0,0,1,.107-.3c.129-.2.3-.472.488-.746.08-.1.172-.2.277-.321a7.789,7.789,0,0,1,.822-.823,6.145,6.145,0,0,1,1.992-1.284,10.643,10.643,0,0,1,2.93-.345c.746-.019,1.569-.042,2.337-.1a4.967,4.967,0,0,0,1.267-.181c.131-.047.3-.184.461-.181.126,0,.148.115.262.115s.218-.216.33-.362c.294-.384.651-.741.955-1.07a2.536,2.536,0,0,1,2.008-.938c.172.013.467.162.5.044s-.186-.193-.286-.291a.928.928,0,0,1-.346-.543,1.256,1.256,0,0,1,.1-.741c.09-.116.387-.143.642-.2.512-.11.835-.19,1.366-.313a6.693,6.693,0,0,0,1-.3.933.933,0,0,1,.56-.148c.209.046.436.522.56.724a5.34,5.34,0,0,1,.74,1.81A3.519,3.519,0,0,1,52,55.16a.751.751,0,0,1-.412.461c-.474.1-.663-.319-1.069-.247-.04.173.137.266.247.346a1.963,1.963,0,0,0,.378.23c.526.222,1.165.234,1.251.889a1.211,1.211,0,0,1-.131.659c-.1.152-.359.232-.544.345-.138.085-.327.353-.576.3-.167-.038-.159-.33-.281-.42s-.412.354-.558.6a3.758,3.758,0,0,0-.215.4c-.056.131-.176.345-.065.428s.346-.328.542-.444a2.888,2.888,0,0,1,.512-.181,4.768,4.768,0,0,0,1.3-.774c.518-.382.977-.956,1.793-.971a6.386,6.386,0,0,1,1.762.379,17.269,17.269,0,0,0,1.711.411,1.7,1.7,0,0,1,.461.708c.121.259.289.441.148.79.043.224.465.39.428.675s-.428.137-.691.082c-.2-.043-.407-.06-.445-.247.054-.106.3-.017.412-.066A.338.338,0,0,0,58,59.176c-.06-.195-.323-.2-.543-.3a1.747,1.747,0,0,1-.493-.313,4.306,4.306,0,0,1-.23-.461c-.2-.308-.612-.295-.987-.477-.237-.115-.434-.333-.84-.2-.118.039-.2.148-.312.214a2.267,2.267,0,0,1-.79.329,5.272,5.272,0,0,0-1.021.148c-.274.093-.6.279-.675.494-.04.125,0,.29-.049.428a1.6,1.6,0,0,1-.478.609,2.665,2.665,0,0,1-1.76.757,2.107,2.107,0,0,1-1.152-.28c-.262-.171-.415-.488-.79-.4a.741.741,0,0,0,.131.675c.067.115.3.273.279.427-.013.111-.417.323-.509.379a7.286,7.286,0,0,1-1.86.757,9.179,9.179,0,0,1-3.061.329,5.115,5.115,0,0,1-3.884-2.238c-.1-.134-.243-.457-.379-.494a2.189,2.189,0,0,0-.79.115c-.2.071-.416.252-.361.379s.32-.017.526-.017c.228,0,.76.242.773.445.011.161-.177.147-.158.252s.413.187.618.324a1.948,1.948,0,0,1,.577,2.518c-.086.137-.311.236-.29.34s.3.021.405.071c.143.066.293.483.312.642a2.689,2.689,0,0,1-.163,1.086c-.087.258-.319.747-.231.988.067.182.413.228.675.247s.508.017.757.016a11.375,11.375,0,0,1,2.27-.016c.3.124.374.512.561.806a4.432,4.432,0,0,0,.378.428c.137.159.253.334.363.445s.465.311.344.526c-.089.163-.544.061-.632-.033s-.291-.881-.683-1.135c-.122-.079-.267-.112-.379-.181-.077-.047-.19-.217-.3-.231-.179-.025-.269.151-.395.214-.3.007-.606-.024-.905-.033a4.184,4.184,0,0,1-.906-.049c-.1-.029-.175-.159-.263-.181a1.581,1.581,0,0,0-.757.033c-.1.049-.113.279-.247.313-.259.064-.672-.4-.691-.642-.011-.148.091-.307.1-.461a3.275,3.275,0,0,0-.214-.922c-.026-.092-.055-.186-.083-.28l0-.033c-.028-.1-.057-.192-.08-.283l-.005-.01a2.563,2.563,0,0,1-.058-.3c-.051-.461.266-.933-.248-1-.237-.033-.481.017-.773,0a2.969,2.969,0,0,0-.79-.016c-.143.044-.182.2-.279.23a1.476,1.476,0,0,1-.708-.033c-.07-.014-.138-.031-.2-.049l-.021-.009a1.932,1.932,0,0,1-.308-.123l-.028-.016c-.028-.018-.056-.037-.083-.057l-.014-.011c-.024-.02-.049-.04-.073-.062-.552-.5-.664-1.509-1.064-2.191-.132-.224-.388-.527-.609-.56a4.619,4.619,0,0,0-.906.149,2.426,2.426,0,0,1-1.037-.231c-.338-.177-.638-.53-.97-.74a1.681,1.681,0,0,0-.609-.264,1.8,1.8,0,0,0-1.1.28,1.948,1.948,0,0,0-.61.527c-.311.479-.124,1.18-.18,1.892-.033.419-.282.923-.708.971a1.325,1.325,0,0,1-.721-.172c-.136-.07-.131.219,0,.273a.157.157,0,0,1,.035.019,1.155,1.155,0,0,0,.6.111c.193-.02.561-.3.527-.165a.8.8,0,0,1-.675.461,1.176,1.176,0,0,1-.487-.12c-.036-.016-.053,0-.05.032,0,.014.016.114.031.221l.009.059h0l0,.04h0l.005.036,0,.01,0,.025,0,.013,0,.018,0,.014,0,.012v.019l0,.011,0,.015,0,.006,0,0,0,0,0,0,.009,0A2.077,2.077,0,0,0,28,64.41h.034c.134.2.22.418.345.625.116.191.325.373.313.626-.441.1-.446-.256-.84-.182a.634.634,0,0,0-.4.363.592.592,0,0,0,.265.691c.442.158.553-.252,1.037-.148a1.617,1.617,0,0,0,.148.477c-.343.75-.7,1.5-1.064,2.267a.085.085,0,0,0,0,.069c.013.032.062.169.067.183s.026-.008.033-.026l0,0c.124-.243.254-.5.354-.712.086-.181.273-.761.493-.544a2.157,2.157,0,0,1-.247.692c-.137.306-.3.631-.459.955a.16.16,0,0,0,0,.1c.018.042.063.163.078.2s.029.008.042-.014c.333-.73.584-1.442.9-2.188a2.06,2.06,0,0,1,.214-.444c.185-.14.26.217.329.362.451.933.863,1.68,1.383,2.567.125.214.269.322.23.626a1.9,1.9,0,0,1-.659.921,1.859,1.859,0,0,1-1.419.334c-.027,0-.01.041,0,.068s.06.117.064.126a.075.075,0,0,0,.051.026,2.417,2.417,0,0,0,.514-.011,2.452,2.452,0,0,0,1.893-1.695,10.126,10.126,0,0,0,.576-2.452,13.99,13.99,0,0,0-.165-4.641c-.075-.354-.346-1.086.082-1.136.3-.035.359.3.445.593a13.021,13.021,0,0,1,.4,4.821c-.151,1.735-.526,3.677-1.547,4.56a4.36,4.36,0,0,1-.741.526,2.576,2.576,0,0,1-.711.23c-.216.025-.212-.115.051-.158a.73.73,0,0,0,.107-.026,2.278,2.278,0,0,0,.848-.391,3.374,3.374,0,0,0,.666-.8c.108-.213.18-.314.1-.348s-.278.329-.417.484a2.615,2.615,0,0,1-1.6.873,1.874,1.874,0,0,1-.187.026.1.1,0,0,0-.027.009h0l-.007,0h0l0,0h0a.054.054,0,0,0-.01.018h0v0h0l0,.012v0h0l0,.009v.013h0v0l.006.012.005.009c.008.015.023.04.043.075l0,.005h0a.324.324,0,0,0,.02.036l.089.154c.012.022.023.042.036.062l0,.006c.038.067.068.119.075.128a.1.1,0,0,0,.091.033,2.711,2.711,0,0,0,1.1-.335,4.529,4.529,0,0,0,1.876-2.731,4.908,4.908,0,0,0,2.5,3.094,2.81,2.81,0,0,0,1.481.132,3.668,3.668,0,0,0,2.518-1.975,7.983,7.983,0,0,0,.884-2.622q.081-.437.136-.884a10.742,10.742,0,0,1,1.811-.049c.195.011.591.058.609.263.006.081-.085.213-.132.313a9.249,9.249,0,0,1-.428.9c-.278.442-.8.552-.74,1.3.019.266.222.484.213.724-.016.4-.44.547-.493.889-.037.228.065.386.048.543-.024.237-.409.45-.279.723.065.139.481.1.756.1.649,0,1.123.017,1.728.017.265,0,.705.04.79-.083a.281.281,0,0,0,0-.248h1.1c.308,0,.9.094.921-.18.012-.172-.246-.362-.345-.477a1.85,1.85,0,0,0-.428-.411c-.16-.085-.353-.083-.444-.231-.045-.2-.2-.342-.214-.526s.134-.345.2-.545a2.113,2.113,0,0,0,.116-.723c.074-.209.447-.122.625-.23-.015-.371-.356-.758-.363-1.119a1.3,1.3,0,0,1,.2-.56c.085-.168.132-.33.231-.494.151-.254.458-.747.724-.724.222.02.276.316.4.478.153.079.373.1.4.263.012.1-.1.186-.132.313a.7.7,0,0,0,.046.638,6.668,6.668,0,0,0,2.143.278c.074-.041.028-.154.081-.192a6.384,6.384,0,0,0,1.071.049c.384-.019.956-.051,1-.164s-.129-.336-.229-.494a2.01,2.01,0,0,0-.313-.445c-.153-.128-.38-.167-.494-.312-.229-.293-.312-.741-.592-.988-.107-.092-.231-.1-.362-.2a7.44,7.44,0,0,1,1.613-.066c.223.066.378.248.575.313.116.038.264.01.363.066.145.082.05.314.066.46a.829.829,0,0,0,.4.576,2.635,2.635,0,0,0,.822.05c.419-.01.916,0,.992-.148s-.1-.435-.2-.593a2.143,2.143,0,0,0-.362-.477c-.3-.254-.523-.212-.707-.51-.056-.091-.077-.208-.148-.313a2.12,2.12,0,0,0-.461-.329,1.772,1.772,0,0,0-.264-.2,1.262,1.262,0,0,0-.511-.048c-.286.028-.592.076-.921.082-.309,0-.619.032-.938.033a8.641,8.641,0,0,1-1.859-.049c-.167-.04-.389-.157-.4-.231-.013-.126.339-.344.443-.444a8.78,8.78,0,0,0,.84-.938c.14-.174.243-.376.379-.51.1-.1.487-.428.642-.428.127,0,.257.165.394.28s.289.21.4.3a3.62,3.62,0,0,0,.84.542c.32.139.648.267.97.4a3.24,3.24,0,0,1,.923.461,2.979,2.979,0,0,1,.576.856,3.528,3.528,0,0,1,.345,1.086,1.731,1.731,0,0,0,.2.9,1.011,1.011,0,0,0,.806.3c.205-.013.4-.2.626-.262a5.165,5.165,0,0,1,1.086-.034,6.342,6.342,0,0,1,.955,0,2.418,2.418,0,0,1,.855.314c.234.113.7.227.756.428.046.152-.093.3-.114.411a.935.935,0,0,0,.066.559c.068.111.337.18.543.247a2.719,2.719,0,0,0,.971.181c.243-.007.609-.069.658-.164s-.125-.53-.23-.708c-.161-.271-.548-.388-.675-.675-.1-.224,0-.531-.082-.773-.185-.551-.736-.58-1.449-.609-.345-.014-.72,0-1.086-.016-.295-.012-.7-.039-1.069-.066a2.5,2.5,0,0,1-1-.166,2.049,2.049,0,0,1-.626-.888,1.583,1.583,0,0,1,.05-.658,4.018,4.018,0,0,0,.13-1.547c-.036-.186-.126-.331-.148-.527a1.9,1.9,0,0,1,.1-.691c.06-.177.167-.5.346-.494.116,0,.174.166.246.231.129.115.245.143.33.263a1.574,1.574,0,0,1,.163.394,1.66,1.66,0,0,0,.149.413c.143.188.538.2.46.459-.044.149-.294.14-.378.248a.786.786,0,0,0-.049.675c.073.135.307.239.461.346s.333.217.494.312a2.741,2.741,0,0,1,.955.659c-.008.552.1.941.773.872.4-.041.9-.112,1.415-.132s1.051-.041,1.449-.016c.173.011.306.116.443.131.249.029.5-.035.528.165.013.107-.135.236-.148.362a.816.816,0,0,0,.312.691,2.343,2.343,0,0,0,.527.1,5.317,5.317,0,0,0,1.1.017c.484-.075.15-.385-.017-.626-.12-.174-.173-.312-.28-.444-.139-.173-.418-.23-.526-.395a2.042,2.042,0,0,1-.116-.313,1.437,1.437,0,0,0-.394-.494A2.606,2.606,0,0,0,62.35,65.6a6.229,6.229,0,0,1-1.58.082,1.477,1.477,0,0,1-.9-.906c-.031-.305.23-.559.247-.838.024-.412-.266-1.035.132-1.268a1.643,1.643,0,0,1,.329-.1c.4-.128.8-.417,1.234-.33.23.255.082.619.231.938.044.1.229.209.345.3s.332.162.313.329c-.012.1-.179.138-.247.23a.936.936,0,0,0-.135.592,2.436,2.436,0,0,0,.859.544c.317.126.857.35,1.1.247.1-.054.071-.559,0-.823a2.25,2.25,0,0,0-.2-.428,1.425,1.425,0,0,1-.2-.428,3.842,3.842,0,0,0,.015-.56c-.052-.2-.3-.309-.427-.493a3.072,3.072,0,0,1-.181-.412c-.139-.277-.434-.46-.478-.724.726.062,2,.037,2.161.093s.295.463.375.747c.107.124.414.185.378.378-.024.13-.2.1-.3.181a.817.817,0,0,0-.05.527c.075.189.575.417.741.509s.644.465.822.4c.1-.038.146-.243.149-.428a4.929,4.929,0,0,0-.149-1.629,2.187,2.187,0,0,0-.509-.543,6.432,6.432,0,0,1-.494-.527c.735-.315,1.362-1.086,2.469-.757-.291.36.01.563.279.724a3.774,3.774,0,0,0,1.61.535c.2-.081.014-.811-.013-1.177.353-.125.624-.356,1.02-.313a1.466,1.466,0,0,1,.856.461c.1.115.124.291.247.412.168.164.5.2.56.444-.2.128-.21.5-.15.674a2.362,2.362,0,0,0,1.462.455c.116-.065.006-.91-.16-1.229-.077-.145-.235-.222-.313-.377-.132-.262-.165-.628-.347-.823a1.407,1.407,0,0,0-.739-.247,2.38,2.38,0,0,1-.708-.28,4.257,4.257,0,0,0-.691-.477c-.707-.247-.743-.067-.807-.2-.084-.111.211-.271.345-.378s.225-.271.363-.362a2.5,2.5,0,0,1,.527-.2,2.967,2.967,0,0,1,.543-.2c.535-.051.749.475,1.119.576.346.094.695-.175.848-.067s.065.73.3.9a1.6,1.6,0,0,0,.824.094c.227-.012.612-.016.649-.222s-.142-.422-.221-.568M47.06,46.438a.339.339,0,0,1,.33.23c.045.3-.3.452-.411.642a6.238,6.238,0,0,0-.313,1.514c-.066.25-.289.494-.314.741a3.9,3.9,0,0,0,.149.921c.058.332.15.651.181.889.043.342.007.511-.362.527a7.381,7.381,0,0,1-.23-.856,4.072,4.072,0,0,1-.149-1.284,9.849,9.849,0,0,1,.312-1.843,6.2,6.2,0,0,1,.281-.79c.1-.234.306-.675.526-.691m-.705.273c-.024.064-.05.128-.077.194h0a6.076,6.076,0,0,0-.532,1.819c-.035.4-.017.847-.017,1.284a13.774,13.774,0,0,0,.1,1.86c-.162.176-.436.186-.676.247a44.024,44.024,0,0,1-5.316,1.037,22.845,22.845,0,0,1-5.02-.247c-.215-.021-.463-.044-.79-.083-.093-.011-.249-.019-.4-.034a.419.419,0,0,1-.07-.059c-.04-.054-.029-.082.064-.184a9.934,9.934,0,0,0,1.013-1.432c.249-.493.519-1.217.535-1.264a.59.59,0,0,1,.245-.206,2.837,2.837,0,0,1,1.443-.261c.987.008,1.248-.2,1.749-.185a3.033,3.033,0,0,0,1.925-.3,8.943,8.943,0,0,1,2.446-1.149c.5.009.856.326,1.183.309a2.073,2.073,0,0,0,.66-.189c.094-.025.257,0,.342-.308.07-.256.14-.412.079-.545l1.112-.305m-1.779,6.294c.344-.06.716-.122,1.037-.182.061-.012.082,0,.072.1s-.278.141-.418.163a48.545,48.545,0,0,1-5.909.773c-.309.012-.688.024-1.053.033a3.371,3.371,0,0,1-1.073-.109,18.961,18.961,0,0,1,2.242-.088,14.082,14.082,0,0,0,2.106-.214c1.012-.152,2.017-.307,3-.477m-1.959.241c-.01-.052.212-.1.329-.126.586-.145,1.2-.277,1.844-.412a5.409,5.409,0,0,1,.831-.164.314.314,0,0,1,.007.164,30.288,30.288,0,0,1-3.011.538m-9.012.172a.581.581,0,0,0,.194-.1h.046c.292,0,.554.007.774.017.17.007.493-.051.487.087s-.966.131-1.458.094c-.034,0-.1,0-.167-.011.026-.058.1-.074.124-.086m.619-.3c-.117-.009-.233-.016-.342-.031a.336.336,0,0,0-.08-.148,7.328,7.328,0,0,1,1.773.225c0,.1-.167.075-.249.069-.354-.024-.69-.083-1.1-.115m-.891.759c.251.022.647.072.924.1.548.049,1.682.094,1.684.139s-.29.085-.434.091a5.379,5.379,0,0,1-.609,0c-.236-.016-.887-.09-.971-.1s-.3-.066-.445-.1l-.2-.046c.017-.026.031-.054.047-.083m2.448-6.126c.107,0,.419,0,.535,0a1.851,1.851,0,0,1,.478.131.466.466,0,0,0,.381.027,2.514,2.514,0,0,1,.926-.054,3.292,3.292,0,0,0,.728.066,11.084,11.084,0,0,0,1.484-.365c.368-.1.8-.161,1.149-.236a7.087,7.087,0,0,0,.737-.2,8.9,8.9,0,0,1,1.311-.356c.257-.009.717-.024.832-.012a1.773,1.773,0,0,1,.442.117c.049.034.14.126.008.206a.855.855,0,0,1-.371.117c-.1.009-.134.028-.151.043a4.177,4.177,0,0,1-.388.314.333.333,0,0,1-.259.017c-.087-.04-.376-.2-.4-.217a.114.114,0,0,0-.1-.006,8.813,8.813,0,0,0-.9.31c-.2.107-.541.347-.846.523a4.03,4.03,0,0,1-1.874.686,1.049,1.049,0,0,1-.758-.223.246.246,0,0,0-.278.013,4.536,4.536,0,0,1-1.805.247c-.58-.017-.32-.409-.522-.4s-.706.43-.808.479a.224.224,0,0,1-.3-.038.457.457,0,0,1-.087-.312c-.027-.075-.037-.127-.014-.156l0,0a.065.065,0,0,1,.033-.018.754.754,0,0,0,.294-.116,1.028,1.028,0,0,0,.187-.2.282.282,0,0,0,.027-.166c-.006-.057,0-.074.016-.086a.371.371,0,0,1,.291-.135m-.959-1.041c.146.063.146-.136.22-.209a.741.741,0,0,1,.291.178c.084.125.2.272.126.418-.051.073-.177.053-.188.126.043.146-.093.24-.156.345.084.032.2.063.209.157a.413.413,0,0,1-.053.366.882.882,0,0,1-.48.063,3.315,3.315,0,0,1-.476-.084.11.11,0,0,0-.133.09c-.015.066-.028.135-.041.2l.007,0c-.009.034-.021.068-.03.1a1,1,0,0,1-.1.274.151.151,0,0,1-.026.012.043.043,0,0,1-.033.01l-.016,0a.375.375,0,0,1-.1-.007.173.173,0,0,0-.092.028c-.044.051-.016.151-.079.206a.219.219,0,0,1-.051.01.438.438,0,0,1-.253-.052.875.875,0,0,1-.287-.168l-.017-.025a.752.752,0,0,1-.11-.173,6.921,6.921,0,0,0-.443-.634l-.042-.156a.536.536,0,0,1,.331-.43,1.362,1.362,0,0,1,1.119.209l.021-.01-.063-.388a1.332,1.332,0,0,1,.294-1.182.938.938,0,0,1,.409-.266.445.445,0,0,1,.429.078.363.363,0,0,1,.115.3.088.088,0,0,1-.021.063c-.094.115-.251.052-.378.1a1.4,1.4,0,0,0-.334.324,1.163,1.163,0,0,1,.429.115m-2.878.094a.44.44,0,0,1-.2-.293c-.125-.481.2-.837.534-1.161l.344-.252a3.214,3.214,0,0,1,1.665-.23c.262.063.576.042.744.273.01.177-.2.157-.325.2a3.658,3.658,0,0,0-1.36.984,1.469,1.469,0,0,1-1.4.481m-.074,1.332a.437.437,0,0,1,.289-.1.293.293,0,0,1,.188.06c.058.046.109.034.274.353.022.041.079.162.1.212s.066.155.089.193a.872.872,0,0,0,.351.294.832.832,0,0,0,.19.084.814.814,0,0,0,.331.03.832.832,0,0,0,.5-.235,1.41,1.41,0,0,0,.153-.179.624.624,0,0,0,.14-.3.111.111,0,0,1,.121-.084c.06,0,.044.037.058.053s.079.317.1.374a2.257,2.257,0,0,1,.063,1.149,4.761,4.761,0,0,1-.906,1.776c-.2.207-.472.332-.314,0a2.75,2.75,0,0,0,.124-.293,3.747,3.747,0,0,0,.111-.424c.036-.128-.074-.091-.117.032A2.761,2.761,0,0,1,33,52.221a1.023,1.023,0,0,1-.452.215c-.161.034-.245.037-.336.058a1.864,1.864,0,0,1-.385.069c-.048-.013-.06-.047-.021-.1.022-.029.178-.184.316-.372.1-.14.269-.37.352-.492a5.17,5.17,0,0,0,.5-1.129c.043-.163.011-.162-.058-.019a8.385,8.385,0,0,1-.675,1.138,8.571,8.571,0,0,1-.8.878.428.428,0,0,1-.41.052,6.04,6.04,0,0,1-.712-.334c-.064-.048-.09-.115-.039-.168a14.054,14.054,0,0,0,2.014-2.455.836.836,0,0,0,.069-.534.985.985,0,0,0-.262-.611c-.114-.1-.219-.129-.255-.168s0-.092.023-.112M31,53.229c-.384-.086-.684-.214-1.04-.261s-.992-.1-1.144-.118a.855.855,0,0,1-.427-.129c-.153-.094-.255-.171-.324-.205s-.3-.17-.244-.369a4.63,4.63,0,0,1,.248-.559,3.459,3.459,0,0,1,.264-.549c.178-.212.777-.617.858-.774a3.847,3.847,0,0,1,.215-.738,1.854,1.854,0,0,1,1.771-1.155c.3,0,1.013.095.827.833a1.146,1.146,0,0,1-.118.354,4.356,4.356,0,0,1-.523.7,1.173,1.173,0,0,1-.917.4c-.071.008-.12,0-.152.1a1.7,1.7,0,0,1-.553.762,2.077,2.077,0,0,1-.541.328,3.816,3.816,0,0,1,.5.2c.332.156.868.457,1.1.541a2.334,2.334,0,0,0,.718.2,3.31,3.31,0,0,0,.731-.15.612.612,0,0,1,.257-.049c.079,0,.265,0,.3.009a.3.3,0,0,1,.182.107.537.537,0,0,0,.238.2.966.966,0,0,1,.2.067c.029.017.109.059.12.066a.08.08,0,0,1-.007.142.251.251,0,0,1-.181.023,1.608,1.608,0,0,0-.268-.023.335.335,0,0,0-.238.053c-.084.058-.133.187-.486.112s-.5-.17-.621-.172a1.709,1.709,0,0,1-.75.058m-3.441,6.813a1.151,1.151,0,0,1-.964-1.217,1.755,1.755,0,0,1,.93-1.428,2.535,2.535,0,0,1,1.091-.132,5.992,5.992,0,0,1,1.237.231,3.233,3.233,0,0,0,.743.037,4.62,4.62,0,0,0,.635-.125c.071-.005.159.006.189.081s-.066.161-.135.214a1.168,1.168,0,0,1-.64.2,2.57,2.57,0,0,1-.8-.068c-.228-.047-1.013-.227-1.235-.253a1.565,1.565,0,0,0-.908.107,1.655,1.655,0,0,0-.743,1.162.875.875,0,0,0,.313.69.551.551,0,0,0,.348.158.34.34,0,0,1,.278.069c.121.09.021.2-.016.227s-.1.073-.326.043m1.285-.816c-.029.014-.058.03-.088.047a3.2,3.2,0,0,1-.575.226.8.8,0,0,1-.587-.139c-.145-.091-.133-.386-.095-.565.078-.378.67-1.118,1.1-1.047a10.117,10.117,0,0,1,1.1.258c.047.012.091.022.133.031v0c.156.051.954.278.461.681a2.511,2.511,0,0,1-.631.27,2.765,2.765,0,0,0-.812.236m15.421-4.362a2.926,2.926,0,0,1-1.629,1.119c-.59.1-1.273.125-1.959.181s-1.383.088-2.041.149a11.912,11.912,0,0,0-2.023.214,3.958,3.958,0,0,0-.879.37c-.043.029-.252.171-.52.366-.184.043-.265-.509-.158-.806a1.341,1.341,0,0,0,.143-.736,1.891,1.891,0,0,0-.208-.754c-.038-.094-.041-.193-.111-.219a.159.159,0,0,0-.212.115.349.349,0,0,0,.013.265,2.44,2.44,0,0,1,.113.669,1.39,1.39,0,0,1-.209.714.224.224,0,0,0-.047.17c0,.059.024.642.019.767s0,.314-.078.386h0c-.13.11-.255.22-.367.327l-.037.037c-.09.028-.187-.306-.187-.419s-.016-.468-.034-.628-.022-.239-.029-.326-.044-.229-.114-.124a1.392,1.392,0,0,0-.082.708c.011.4.011.686.022.8a.682.682,0,0,1-.083.52l-.019.022c-.031.035-.056.061-.069.075-.079.088-.149.173-.217.262-.09.076-.2.13-.22-.076-.029-.343-.041-.709-.074-1.057a6.379,6.379,0,0,1-.012-.8c0-.1-.068-.325-.138-.32s-.087.281-.082.438c.012.259.069,1.459.052,1.922s-.02.715-.186.846-.417.109-.417-.183a9.967,9.967,0,0,0,.046-1.314c-.046-.629-.035-1.3-.035-1.429s.01-.175-.023-.221-.111-.134-.142-.017a.847.847,0,0,0-.047.316c.007.143.09,1.163.1,1.347a7.541,7.541,0,0,1-.069,1.152c-.05.1-.08.149-.181.114s-.166-.077-.172-.269.011-.682,0-1.058-.026-2.067-.054-2.524a1.353,1.353,0,0,1,.011-.5.389.389,0,0,1,.113-.183.771.771,0,0,1,.342-.093c.1.005.242.049.27.173a1.449,1.449,0,0,1,.087.732c-.08.229-.263.337-.257.417s.12.092.211.023a1.091,1.091,0,0,0,.349-.617,1.051,1.051,0,0,0-.1-.569c-.132-.2-.259-.236-.259-.305,0-.154.064-.453.188-.5a.45.45,0,0,1,.327-.032.754.754,0,0,1,.5.722,2.842,2.842,0,0,1-.23.9.731.731,0,0,1-.188.292.128.128,0,0,0-.035.117.132.132,0,0,0,.04.066.1.1,0,0,0,.066-.012,1.214,1.214,0,0,0,.472-.668,2.574,2.574,0,0,0,.065-.772,2.288,2.288,0,0,0-.087-.5.62.62,0,0,0-.2-.222,9.556,9.556,0,0,0,1.537.211.509.509,0,0,1,.068,0l.122.006c.79-.01,1.782-.3,2.542-.362.867-.072,1.727-.113,2.584-.231,1.257-.173,2.507-.3,3.752-.526.5-.091,1.5-.377,1.458-.219a.976.976,0,0,1-.213.364c-.284.39-.55.829-.872,1.2m.935-.724c-.1-.086-.029-.231.035-.313a1.944,1.944,0,0,1,.429-.362c.044,0,.113-.015.111.071s-.478.69-.575.6M46.47,52.8c-.075-.028-.1-.191-.052-.241s.267-.1.3-.021-.172.29-.245.262m2.566-1.228A76.4,76.4,0,0,1,39.588,53.5a7.5,7.5,0,0,1-1.557.085c-.028-.066.227-.071.324-.085.877-.127,1.788-.231,2.633-.378.967-.169,1.941-.352,2.912-.543,1.922-.377,3.756-.9,5.531-1.366.046-.013.227-.082.23.1,0,.158-.475.226-.625.264m4.345-4.938c.263-.214.711-.627.81-.592s.129.347.029.444c-.057.056-.186.051-.263.082-.405.165-.689,1.009-.917.885s.186-.6.341-.819m-2.255.79c.041-.258.535-.281.872-.23a3.115,3.115,0,0,1,1.037.559,4.476,4.476,0,0,0,.509.28,3.468,3.468,0,0,1,.742.3,1.754,1.754,0,0,1,.378.461c.08.441-.41.4-.609.214-.117-.108-.1-.28-.246-.329-.207.035-.389-.089-.544,0,0,.136.183.189.214.346.02.1-.044.219-.049.362,0,.088.047.167.032.23-.031.139-.293.366-.464.276s.176-.286.169-.49a3.83,3.83,0,0,1-.889.05,1.592,1.592,0,0,1-.806-.642c-.126-.159-.267-.275-.264-.494.07-.191.358-.02.51-.066.068-.3-.226-.294-.378-.4a.461.461,0,0,1-.214-.428m-.231,3.16c-.029-.116.179-.33.247-.378.33-.232,1.481-.35,1.576-.163s-.659.554-1.116.624c-.175.026-.663.09-.707-.083m-11.635,18c.03.137-.147.727-.28.724s-.214-.315-.28-.444c-.115-.226-.212-.33-.281-.494.132-.006.2.079.347.1s.32-.047.42.006a.12.12,0,0,1,.036.063l.02,0c.006.015.012.031.018.05M28.651,63.967h0a.794.794,0,0,1,.076-.123c.054-.075.121-.155.179-.241a2.618,2.618,0,0,0,.262-.443,9.777,9.777,0,0,0,.28-1.144l0-.007c.015-.051.03-.1.047-.149a.918.918,0,0,1,.145-.246l.012-.014h0a.338.338,0,0,1,.19-.119.227.227,0,0,1,.211.068,1.23,1.23,0,0,1,.133.657c0,.072.011.136.017.2v0a2.235,2.235,0,0,1,.033.351,4.322,4.322,0,0,1-.395,1.135c-.1.263-.186.944-.445,1.07-.294.144-.424-.177-.544-.4-.087-.162-.24-.335-.23-.51a.265.265,0,0,1,.024-.081m1.869-2.141c-.2-.055-.268-.725.065-.642.242.06.051.535-.065.642m-.642,2.683a13.247,13.247,0,0,1,.659-1.779c.081-.176.127-.51.395-.476.177.223-.049.671-.148.971a10.708,10.708,0,0,1-.724,1.827c-.036.063-.137.334-.3.23-.1-.066.055-.563.114-.773m3.62-1.948a.279.279,0,0,1,.116-.093.574.574,0,0,1,.1.148s-.4.764-.492.757.162-.575.278-.812m1.542,1.666c.02.014.043.027.065.04l.044.027c.037.022.076.043.114.062v0c.079.042.158.081.244.118.029.063.053.125.079.186.063.152.122.3.184.456a1.652,1.652,0,0,1,.214.674,1.345,1.345,0,0,1-.608.066,9.418,9.418,0,0,1-1.778,0,3.819,3.819,0,0,1,.757-2.123c.1.069.189.14.284.211.129.1.26.194.4.281m.914.415a2.05,2.05,0,0,0,.277.1c.035.071.071.148.106.227.02.045.041.091.059.138h0a1.532,1.532,0,0,1,.13.573c-.262.064-.364-.243-.462-.428-.056-.107-.11-.217-.159-.327s-.1-.239-.137-.348c.063.021.124.044.184.068m1.509.844,0-.009.013-.038v-.008c.006-.014.012-.029.017-.043l0-.011.016-.044,0-.009c.007-.015.013-.03.02-.044v0c.007-.014.013-.027.019-.041l0-.008.021-.04.006-.008a.361.361,0,0,1,.023-.036l0,0c.007-.011.015-.021.023-.032l0,0,.025-.025.006-.005a.223.223,0,0,1,.027-.019l.005,0a.145.145,0,0,1,.031-.011h0a.147.147,0,0,1,.029,0h.005a.132.132,0,0,1,.033.008l.006,0a.39.39,0,0,1,.035.018l.005,0a.275.275,0,0,1,.039.032,1.471,1.471,0,0,1-.28.593.249.249,0,0,1-.2-.066l.034-.1c0-.012.007-.026.012-.039m.641-.377a.313.313,0,0,1,.022-.036.977.977,0,0,1,.1-.059.235.235,0,0,1,.043.009.067.067,0,0,1,.02.018,2.8,2.8,0,0,1,.262,1.411h0a.066.066,0,0,1-.031,0,.35.35,0,0,1-.132-.128,2.823,2.823,0,0,1-.153-.322,2.428,2.428,0,0,1-.151-.759,1.3,1.3,0,0,1,.016-.138m.7,3.027c-.117.128-.431-.1-.445-.253a.2.2,0,0,1,.246-.231c.126.031.316.356.2.484m-.587-1.6a1.065,1.065,0,0,1,.092.522c-.029.224-.205.429-.214.642-.061-.129-.178-.245-.181-.378a1.8,1.8,0,0,1,.114-.346,2.089,2.089,0,0,0,.117-.642c.021.069.047.135.072.2m-.419.012a1.787,1.787,0,0,1-.575-.016,1.2,1.2,0,0,1-.133-.609c.135-.121.44-.04.643-.033a.788.788,0,0,1,.065.658m-.388-1.513-.006.017a.76.76,0,0,1-.03.092l-.006.018c-.012.03-.026.059-.039.087l-.005.009a.562.562,0,0,1-.045.074.419.419,0,0,1-.517.163c-.159-.047-.209-.239-.264-.426l-.01-.033c-.007-.027-.016-.053-.025-.079l-.005-.016c-.009-.026-.019-.05-.03-.074l-.007-.013a.371.371,0,0,0-.038-.067c.343.059.711.091,1.054.148-.008.034-.017.067-.027.1m-.5,1.3c-.2.136-.383-.057-.61-.082a12.7,12.7,0,0,0-1.4.017c-.465.005-.926.01-1.349-.017V66.1c.6-.086,1.323,0,1.991-.032.4-.021.812-.12,1.119-.1a.266.266,0,0,1,.247.362m-3.374-2.7a3.493,3.493,0,0,1,.313-.724c.134.2.24.417.379.609-.118.192-.306.6-.461.823a.245.245,0,0,1-.412.049,1.455,1.455,0,0,1,.181-.757m.017,2.946a.043.043,0,0,1,.033-.049,23.462,23.462,0,0,1,2.7.114.92.92,0,0,1,.082.264c.032.1.114.194.114.264,0,.111-.172.338-.246.477-.5.951-.974,1.813-1.514,2.765-.067.118-.24.4-.3.411-.156.025-.275-.363-.328-.493-.1-.238-.152-.421-.215-.593a4.964,4.964,0,0,1-.361-1.267,7.778,7.778,0,0,1,.033-1.893m1.184,4.181c.457-.85.942-1.709,1.4-2.536.065-.116.153-.418.262-.46s.166.018.182.066c.023.073-.132.33-.2.461-.438.885-.9,1.685-1.4,2.551-.055.1-.15.392-.313.344-.2-.056.044-.386.066-.426m.412.164c.366-.844.9-1.548,1.3-2.353.169-.347.293-.9.575-1.07.2-.08.278.14.363.313.319.656.5,1.118.839,1.794.106.212.325.49.313.74a2.249,2.249,0,0,1-.445.955,1.926,1.926,0,0,1-1.333.971,2.423,2.423,0,0,1-1.432-.231.805.805,0,0,1-.4-.592,2.079,2.079,0,0,1,.214-.527m2.634-2.732c-.052-.135-.316-.678-.017-.642.114.014.254.414.313.527.194.372.36.716.543,1.1.127.267.34.53.214.838-.161.029-.214-.157-.28-.262a8.9,8.9,0,0,1-.773-1.564M33.3,62.1a.3.3,0,0,1-.445.083c-.078-.469.59-.477.445-.083M28.94,61.6a2.135,2.135,0,0,1,.659-.84,1.142,1.142,0,0,1,.609-.115c.841.082,1.367.779,2.2.838.205.016.377-.062.626-.032-.043.155-.266.2-.428.214a1.953,1.953,0,0,1-1.1-.214c-.476-.248-.663-.6-1.4-.493a1.528,1.528,0,0,0-.707.477,1.732,1.732,0,0,0-.2.4c-.039.1-.1.379-.23.362-.159-.022-.1-.439-.034-.592m-.773,1.5a6.264,6.264,0,0,0,.081-1.168c0-.042.026-.052.051-.066.208.049.232.64.2.954a1.525,1.525,0,0,1-.329.741c-.257-.069-.06-.265,0-.461m.28,1.7a4.056,4.056,0,0,1-.247-.46.82.82,0,0,1,.3-.165,3.706,3.706,0,0,0,.247.428c.084.136.246.311.247.428a.215.215,0,0,1-.247.2c-.112-.024-.233-.319-.3-.428M29.1,66.22c-.279.08-.54-.059-.806,0-.145.032-.2.171-.346.165-.415-.018-.392-.677,0-.708.147-.012.232.124.362.148.25.047.875-.151.889.2,0,.1-.037.112-.1.2m.708.494a.687.687,0,0,1-.412,0c-.228-.195-.013-.554-.066-.872-.027-.173-.279-.256-.247-.446.057-.324.539.073.659.182s.235.307.379.361a1.215,1.215,0,0,0,.394.018c.255.011.519.016.773.016a1.586,1.586,0,0,1,.725.066.255.255,0,0,1,.017.2,4.362,4.362,0,0,1-1.152.016,2.2,2.2,0,0,0-.642.017c-.166.06-.218.364-.428.444m1.645,3.6c-.17,0-.325-.435-.394-.559-.233-.421-.436-.815-.658-1.251-.093-.18-.316-.511-.264-.675.175-.094.391.368.494.543.237.4.468.864.723,1.267.091.142.508.686.1.675M32.2,67.5a12.656,12.656,0,0,1-.2,1.531c-.043.26-.074.59-.248.608s-.4-.39-.509-.576c-.3-.486-.539-.862-.807-1.366a1.487,1.487,0,0,1-.248-.822c.083-.359.631-.312,1.037-.33.3-.012.854-.068.972.148a2.925,2.925,0,0,1,0,.807m-.23-3.555c.05.3.136.521.18.839.036.25.115.738-.015.906a.726.726,0,0,1-.38.131,8.815,8.815,0,0,1-1.348-.066c-.318-.316-.106-.81.049-1.218.189-.5.362-.9.559-1.415.109-.288.193-.714.4-.675.183.036.292.463.362.675a5.158,5.158,0,0,1,.2.823m8.048,5.611a5.254,5.254,0,0,1-.856,2.108,5.944,5.944,0,0,1-1.563,1.4,2.667,2.667,0,0,1-.33.163c-.094.043-.313.156-.348.035s.288-.235.431-.331a8.715,8.715,0,0,0,.855-.657c.12-.1.354-.33.3-.412s-.265.127-.361.214a2.393,2.393,0,0,1-1.5.79,1.933,1.933,0,0,1-.938-.1c-.055-.017-.432-.17-.485-.061s.382.211.393.406-.418-.058-.55-.131a4.587,4.587,0,0,1-1.894-2.468c-.064-.157-.18-.47-.092-.533s.142.18.192.269c.259.466.574.974.872,1.432.115.176.368.525.444.461s-.322-.56-.493-.856-.517-.8-.444-.9.231.263.311.412a3.676,3.676,0,0,0,1.466,1.563,2.087,2.087,0,0,0,.97.3,2,2,0,0,0,1.317-.51,5.822,5.822,0,0,0,1.712-2.831c.086-.245.167-.714.4-.74.381-.044.258.63.2.986m1.958.923c.019-.149.244-.306.33-.412.311-.382.573-1.037.839-1.366a.459.459,0,0,1,.164-.131.22.22,0,0,1,.247.181c.037.184-.114.341-.164.51s-.039.29-.132.411c-.195.258-.636.435-.676.774-.019.176.1.305.066.461a.284.284,0,0,1-.262.23c-.191,0-.442-.415-.412-.658m.02,2.593c-.1-.155.276-.667.6-.64a.608.608,0,0,1,.39.331c.051.354-.889.462-.988.309m1.624-.535a.75.75,0,0,1-.723-.519c-.008-.157.286-.5.445-.5.264,0,.522.809.278,1.019m-.014-1.3c-.294-.077-.618-.412-.527-.724a2.832,2.832,0,0,1,.4-.478c.011-.015.022-.046.048-.049a4.239,4.239,0,0,1,.446.181c.037.514-.243.712-.362,1.07m1.8,1.394c.093.237-.214.326-.481.262-.179-.043-.351-.139-.341-.286a.1.1,0,0,1,0-.029l0-.009,0-.014c.061-.175.717-.162.811.076m-.8-1.081c-.106.136-.213.311-.444.2-.217-.525.063-1.015.131-1.5.225.033.467.05.692.083a1.856,1.856,0,0,1-.379,1.218m8.19-4.666c.024-.173.371-.287.62-.214a.4.4,0,0,1,.272.167c.214.34-.8.448-.9.151a.161.161,0,0,1,0-.1m8.91-1.045c.356-.017.692-.049,1.054-.05.088,0,.7-.093.673.147-.019.169-.78.259-.986.281s-.418-.006-.609,0a4.082,4.082,0,0,1-.857,0c-.084-.018-.205-.1-.2-.2.02-.2.684-.17.921-.18m11.063-5.517c.111-.177.79.167.654.452s-.763-.274-.654-.452m-5.04-5.28c.075.042.147.109.23.148.141.066.364.08.4.231.042.192-.2.446-.312.543-.072.064-.3.147-.263.263.051.162.457-.018.544-.033a.782.782,0,0,1,.526.148.673.673,0,0,1,.28.626,2.317,2.317,0,0,1-.263.823c-.076.116-.309.373-.445.4-.193.031-.465-.172-.642-.264-.433-.225-.736-.365-1.218-.576a1.566,1.566,0,0,0-.955-.2,4.227,4.227,0,0,0-.609.263,1.412,1.412,0,0,1-.642.231c-.243-.02-.444-.365-.542-.642s-.1-.647-.166-.905a3.506,3.506,0,0,1-.214-.626,2.105,2.105,0,0,1,.149-.543c.053-.217.052-.49.1-.741a4.081,4.081,0,0,0,.066-.8h0c.005-.112.019-.246.017-.373a1.356,1.356,0,0,1,.559-.132,8.7,8.7,0,0,0,1.712-.345c.339-.127.659-.263.971-.412a10.063,10.063,0,0,1,.938-.428c.205-.072.339.067.436.261.018.045.038.089.058.134a3.906,3.906,0,0,1,.377,2.239c-.035.235-.117.5-.279.576-.348.168-.934-.165-1-.066s.114.152.194.2m-3.687-2.5c.429-.085.914-.137,1.384-.214.629-.1,1.645-.512,1.711-.461s-.179.161-.28.214a5.775,5.775,0,0,1-1.959.592c-.42.053-1.187.169-1.217.05s.237-.156.361-.181m6.123-2.337a8.059,8.059,0,0,1-1.118.625c-.154.077-.426.284-.626.23a.17.17,0,0,1-.075-.044c-.025-.045-.049-.091-.074-.137a1.626,1.626,0,0,1-.23-.658c.025-.192.359-.338.577-.477a2.462,2.462,0,0,1,.69-.362,1.726,1.726,0,0,1,1.072.112.3.3,0,0,1,.18.233c.013.221-.27.386-.4.478M68.8,47.014a7.461,7.461,0,0,1,1.251.461,11.038,11.038,0,0,1,1.069.658c.208.129.479.238.412.543-.036.16-.2.238-.346.329a1.2,1.2,0,0,1-.165.115c-.36.122-.752-.146-1.021-.214-.167-.116-.243-.4-.41-.543-.063-.052-.261-.1-.247-.214s.156-.107.262-.1c.2.016.56.22.606.147s-.319-.27-.523-.361a7.98,7.98,0,0,1-.9-.428c-.042-.116-.119-.327.017-.4m-3.753.592a.562.562,0,0,1,.313-.263c.207.191.442.02.609-.1.311.041.568-.057.79.05.091.044.133.218.214.23s.162-.111.171-.147-.135-.281-.19-.28a.353.353,0,0,1-.229-.412c.1-.112.309-.037.444,0,.114-.036.107-.191.2-.247.226.093.416-.037.658-.05.318-.017.654.137.641.379a.272.272,0,0,1-.2.23c-.21.067-.532-.02-.6.118s.506.308.695.607a1.605,1.605,0,0,1,.2,1.02,1.379,1.379,0,0,1-.873.757,1,1,0,0,1-.263.1c-.4.017-.436-.38-.592-.642-.434.085-.143.422.033.691.284.441.571.885.83,1.349l-.006,0a.377.377,0,0,1,.063.234c-.035.208-.694.363-.9.428a14.816,14.816,0,0,1-3.275.724.363.363,0,0,1-.19-.214c-.017-.091-.035-.181-.056-.265h0a2.255,2.255,0,0,1,0-.261c.11-.247.342-.24.674-.33.207-.055.336-.186.543-.164a.393.393,0,0,1,.1.026c.032.025.065.049.1.073.068.046.16.1.257.153h0c.232.124.5.236.567.194.1-.06-.046-.259,0-.381.192-.153.43.077.609.033s.167-.305.2-.527c.06-.141.172-.187.2-.313.051-.257-.184-.569-.344-.757a13.437,13.437,0,0,0-1.119-1.086c-.164-.15-.5-.419-.494-.593,0-.126.157-.26.23-.362m-.809.506c.118-.2.524.174.742.367a9.558,9.558,0,0,1,1.038,1c.16.187.437.347.378.608-.172-.005-.483,0-.657-.016-.143.044-.109.264-.2.362-.243.029-.373-.229-.543-.378s-.386-.281-.526-.428a.523.523,0,0,1-.164-.33c.015-.16.252-.221.279-.378.06-.36-.466-.612-.348-.811m.147,2.491a.989.989,0,0,1,.1.048c.086.377-.244.453-.56.543-.2.058-.455.217-.625.115a.167.167,0,0,1-.038-.033c-.02-.042-.041-.085-.061-.131-.066-.153-.249-.47-.214-.593s.275-.13.443-.131a3.033,3.033,0,0,1,.952.182m-3.436-3.227c.245,0,.4-.278.658-.28a.817.817,0,0,1,.429.181c.131.1.171.272.312.329.12.05.268.026.4.066a1.553,1.553,0,0,1,.428.263c.154.126.36.254.379.461.031.359-.273.651-.446.856s-.258.4-.542.444a1.259,1.259,0,0,1-1.186-.674.8.8,0,0,1-.1-.346c.007-.186.19-.388.091-.453s-.2.091-.262.193a1.337,1.337,0,0,0,.018.767,2.955,2.955,0,0,0,.532.711c.212.2.479.355.657.56a2.3,2.3,0,0,1,.385.657.5.5,0,0,1-.005.363c-.113.222-.756.372-1.053.444-.8.195-1.629.378-2.469.51a9.968,9.968,0,0,1-1.284.165c-.074-.015-.08-.051-.075-.091.061-.187.117-.4.223-.419.228-.04.429.468.692.115-.02-.151-.147-.194-.084-.346.119-.282.491.045.627.05a.645.645,0,0,0,.476-.346c.029-.081.024-.185.05-.28a2.8,2.8,0,0,0,.148-.493,3.328,3.328,0,0,0-.2-1.07c-.106-.33-.413-.558-.345-1a2.141,2.141,0,0,1,.428-.741c.073-.1.166-.212.247-.329a2.09,2.09,0,0,1,.231-.345c.157-.129.617-.276.641.082m-3.787,4.841a.223.223,0,0,1,0-.068c.034-.2.332-.237.461-.231a.112.112,0,0,1,.1.068.2.2,0,0,1,.017.08.863.863,0,0,1-.326.469c-.046.018-.143-.123-.252-.318m1.1.458c.578-.109,1.159-.16,1.744-.279a21.592,21.592,0,0,1,2.238-.494c.041.081-.282.179-.444.23a14.38,14.38,0,0,1-3.8.774c-.078,0-.231,0-.246-.066s.34-.132.511-.165m1.02-5.085a3.193,3.193,0,0,1,1.037-1.251c.124-.08.313.115.313.23,0,.139-.277.376-.379.494a5.87,5.87,0,0,0-1.037,1.531c-.542-.134-.131-.654.066-1m-1.531,1.432c.189.008.4.235.466.151s-.211-.4-.284-.629a.369.369,0,0,1-.022-.359c.091-.175.5-.006.663.145a5.243,5.243,0,0,1,1.12,1.7,2.629,2.629,0,0,1,.1.378c.008.128-.014.33-.132.329s-.137-.274-.231-.279c-.26.138-.059.651-.329.74-.158.053-.27-.137-.3-.23-.053-.19.022-.472-.032-.626s-.237-.206-.4-.345c-.124-.109-.228-.241-.346-.362a2.389,2.389,0,0,1-.33-.362c-.043-.091-.053-.183.05-.247m-1.25,1.547a4.7,4.7,0,0,0,.921.181c.155.145.357.274.362.526a.459.459,0,0,1-.053.192.543.543,0,0,1-.062.088,2.586,2.586,0,0,1-.724.083.389.389,0,0,1-.174-.169l-.008-.013a5.112,5.112,0,0,1-.392-.791c0-.1.076-.121.13-.1m-4.149,1.563c1.1-.05,2.346-.1,3.374-.214.192-.02.412-.083.577-.082.067,0,.211-.026.213.115,0,.124-.27.139-.344.148-.949.121-2.161.111-3.144.2-.331.029-1.047.095-1.076-.044s.277-.115.4-.121m5.415,5.152a1.151,1.151,0,0,1-.509,0c-.9-.176-1.831-.572-2.716-.708a1.874,1.874,0,0,0-.676-.017c-.233.057-.4.237-.69.264-.262-.287-.091-.677-.181-1.021-.051-.2-.218-.357-.28-.543a5.15,5.15,0,0,1-.116-.559,10.883,10.883,0,0,0-.312-1.745l-.012-.03a.4.4,0,0,1,0-.167c.056-.221.577-.24.871-.264,1.059-.085,2.17-.191,3.127-.247a.687.687,0,0,1,.478.116.637.637,0,0,1,.158.216c.014.037.027.075.04.113a3.991,3.991,0,0,1,.247,1.349c0,.5-.03,1.072-.329,1.284a.92.92,0,0,1-.594.1c-.1-.007-.253-.073-.311.033-.01.138.162.134.245.164.106.038.224.092.331.132.221.084.493.133.69.23a1.267,1.267,0,0,1,.527.659.814.814,0,0,1,.016.642m.379-.774a1.873,1.873,0,0,0-.263-.461,1.689,1.689,0,0,1-.3-.428c-.064-.287.133-.56.148-.872.021-.453-.11-1.025-.115-1.448a.77.77,0,0,1,.005-.094l.011-.021c.087-.156.788-.167,1.185-.231s.793-.131,1.185-.214c.786-.165,1.541-.412,2.271-.543a1.25,1.25,0,0,1,.494.017.592.592,0,0,1,.282.247c.023.127.045.254.063.378a3.975,3.975,0,0,1,.017,1.448c-.046.206-.1.419-.131.659-.061.382-.07.77-.4.872a2.285,2.285,0,0,1-1.251-.2c.077.53.861.419,1.316.593a.86.86,0,0,1,.363.428.654.654,0,0,1,.064.609c-.317.044-.482-.242-.69-.362a2.43,2.43,0,0,0-.9-.362,7.238,7.238,0,0,0-.79.1,3.755,3.755,0,0,0-.411,0,2.388,2.388,0,0,0-.89.593c-.149.128-.58.64-.806.658a.525.525,0,0,1-.263-.1c-.1-.4-.064-.86-.2-1.267m.4,2.436c-.019-.237-.17-.444-.131-.659.023-.138.334-.335.444-.411.184-.129.358-.252.494-.362a2.99,2.99,0,0,1,1.019-.675,9.342,9.342,0,0,1,.939-.049,1.7,1.7,0,0,1,1.1.378c.163.1.32.213.477.313.353.225.739.348,1.037.543a1.514,1.514,0,0,1,.264.247,1.208,1.208,0,0,1,.081.494,1.673,1.673,0,0,0,.215.543c.121.2.548.533.3.724-.132.1-.672-.025-.824-.1s-.318-.295-.262-.428.346-.063.411-.181-.154-.45-.247-.51c-.149-.1-.461-.092-.593-.148-.237-.1-.382-.512-.625-.658-.1-.058-.278-.08-.378-.132-.253-.132-.406-.389-.691-.346-.2.031-.344.31-.494.379a1.527,1.527,0,0,1-.643.1c-.365-.016-.626-.049-.838.181a1.75,1.75,0,0,0-.132.23c-.1.152-.342.515-.494.576a.453.453,0,0,1-.428-.049m4.394.131c.157-.108.269.118.4.214a.967.967,0,0,0-.361.774,4.334,4.334,0,0,1-.428-.1,1.216,1.216,0,0,1,.394-.889m-.822.544c-.371.165-.7-.134-1.119-.165-.223-.016-.459.034-.691.016a1.718,1.718,0,0,1-.939-.329.992.992,0,0,1,.346-.428,1.52,1.52,0,0,1,.461-.3,2.43,2.43,0,0,1,.362,0,2.9,2.9,0,0,0,1.069-.3c.2-.111.323.159.445.28a3.3,3.3,0,0,0,.592.4c-.185.251-.228.688-.526.823m-4.329,1.185c.227.074.467.151.642.2.083.022.157-.032.213.082a.966.966,0,0,1-.822.346,1.254,1.254,0,0,1-.411-.28c-.182-.143-.373-.207-.412-.444.16-.183.512.007.79.1m-4.9-1.613A1.818,1.818,0,0,1,54.1,58.3c.153-.019.312.008.477-.017.2-.029.393-.166.576-.181a2.076,2.076,0,0,1,1.1.379c.07.066.121.2.2.3.149.189.473.306.477.51,0,.13-.109.168-.2.28s-.11.207-.23.231a1.474,1.474,0,0,1-.51-.083c-.34-.076-.61-.149-.972-.214a1.939,1.939,0,0,0-.527-.065c-.278.034-.462.309-.724.378a3.285,3.285,0,0,1-1.021.049c-.234-.262,0-.51.133-.674m-7.489,6.9a.638.638,0,0,1-.444.045c-.025-.046.115-.187.231-.194.1,0,.248.085.213.149m-2.206-2.078c.125-.333.329-.78.594-.889a2.2,2.2,0,0,1,1.277-.065c.291.1.153.787.072,1.234a3.756,3.756,0,0,1-1.168,1.859c-1.211.135-1.1-1.27-.775-2.139M41.4,66.434c-.048.213-.467.324-.707.231-.193-.075-.431-.306-.378-.544a1.355,1.355,0,0,1,.147-.329c.1-.169.122-.375.33-.4.145-.013.253.176.361.363s.306.424.247.675m3.151,1.348c-.176,0-.244-.329-.195-.426s.419-.168.479.012a.388.388,0,0,1-.284.414m1.075.358c-.113.213-.147.442-.307.462-.263.033-.507-.323-.4-.635a1.1,1.1,0,0,1,.769-.672.221.221,0,0,1,.269.192c.045.306-.216.446-.328.653m2-.751c-.464.081-.684-.386-.972-.494-.5,0-.943,0-1.381.016a4.8,4.8,0,0,1-1.367-.032,2.663,2.663,0,0,0-.708-.247c-.421-.029-1.086.11-1.348-.066-.321-.215-.212-.684-.181-1.087a3.122,3.122,0,0,0-.742-2.517c-.042-.042-.255-.216-.246-.346.027-.389.485-.081.641,0,.384.2,1.09.23,1.357.468s-.045,1.333-.072,1.968c-.006.126.022.323.033.526a1.66,1.66,0,0,0,.033.511c.085.205.562.275.888.3a13.784,13.784,0,0,0,2.206-.066c.19-.016.387-.01.559-.033a1.734,1.734,0,0,1,.888,0,1.614,1.614,0,0,1,.429.329c.1.091.3.265.3.444a.4.4,0,0,1-.313.33m1.8.816a.6.6,0,0,1-.078.021.1.1,0,0,1-.008.024.409.409,0,0,1-.316-.056.541.541,0,0,1-.274-.242.3.3,0,0,1,0-.282c.063-.2.233-.228.442-.235s.368.416.234.77m.4-1.261c.021.175-.534.263-.757.28-.308.024-.95.034-.857-.28.042-.141.64-.16.857-.164.091,0,.736-.009.757.164M47.981,65.71a7.578,7.578,0,0,0,1.071-.016c.706-.009,1.394-.06,2.107-.066A5,5,0,0,1,52.2,65.6c.21.044.512.313.444.526s-.33.131-.495.033c-.224-.134-.335-.332-.724-.3-.251.023-.53.131-.856.164-.595.062-1.264.066-1.858.132-.467.052-.926.179-1.218-.05-.184-.228-.211-.668-.543-.674-.168,0-.208.147-.3.231a.592.592,0,0,1-.344.181.7.7,0,0,1-.56-.478c-.015-.185.214-.517.313-.839.125-.406.049-.923.2-1.169a.558.558,0,0,1,.742-.2,1.944,1.944,0,0,1,.279,1.481c-.034.187-.155.31-.147.478.015.326.524.544.854.592m1.268-2.8a5.2,5.2,0,0,0-.412.361c-.2.2-.3.412-.476.561a.67.67,0,0,1-.428.164c-.216-.032-.373-.407-.461-.625-.055-.135-.068-.282-.116-.428a1.911,1.911,0,0,1-.131-.411c-.026-.509.324-.622.642-.84.2-.136.3-.292.527-.312.173-.016.25.128.362.246.18.191.386.38.609.576.121.106.262.224.262.313,0,.128-.244.288-.378.4m5.5,1.811c-.105-.245-.67-.363-.741-.675-.118-.522.43-.437.476-.823-.559-.069-1.2.19-1.842.148a2.981,2.981,0,0,1-1.219-.3c-.178-.1-.718-.445-.674-.774.019-.14.268-.293.428-.362a9.679,9.679,0,0,1,1.251-.378c.442-.117.878-.261,1.266-.346a1.426,1.426,0,0,1,1.038.214c.2.1.383.2.412.378a1.09,1.09,0,0,1-.182.642c-.094.17-.268.315-.263.511.1.1.191.052.3.1.33.145.5.872.493,1.417,0,.357-.034,1.2-.379,1.2-.368,0-.24-.672-.361-.954m1.226,2.211a4.789,4.789,0,0,0,1.193.109c.6.048,1.263.028,1.827.033a8.1,8.1,0,0,1,.822.1,3.788,3.788,0,0,1,.577,0,.523.523,0,0,1,.279.642c-.215.066-.361-.239-.444-.226a1.492,1.492,0,0,1-.74.193c-.251-.046-.495-.3-.79-.346a13.772,13.772,0,0,0-1.432-.049c-.25-.009-.492,0-.742-.017a4.846,4.846,0,0,0-.69-.066c-.159.017-.289.157-.444.132-.339-.053-.366-.969-.159-1.082s.548.468.743.578m1.209-4.912a1.846,1.846,0,0,0-.312-.295,2.148,2.148,0,0,0-.626-.477c-.289-.116-.6-.119-.872-.214-.361-.126-.6-.446-1.12-.428a4.649,4.649,0,0,0-1,.2,14.069,14.069,0,0,0-1.776.625,2.443,2.443,0,0,1-1.152.362c-.208-.01-.676-.126-.675-.314,0-.231.482-.16.74-.213.5-.1.807-.525,1.283-.74A8.651,8.651,0,0,1,53.2,60.2a9.706,9.706,0,0,1,1.595-.428,2.34,2.34,0,0,1,.906.214,1.613,1.613,0,0,1,.444.526,3.213,3.213,0,0,0,.429.543c.1.093.271.133.378.231s.164.193.263.28a6.914,6.914,0,0,1,.872.757,1.128,1.128,0,0,1,.264.773,1.024,1.024,0,0,1-.757-.082c-.309-.191-.239-.664-.412-.989m1.437,2.344c-.049.03-.952-.354-.9-.6s.945-.314,1.011.16a.7.7,0,0,1-.111.445m-.434-2.244c-.1-.1-.245-.176-.262-.329.047-.12.276-.093.444-.066a1.878,1.878,0,0,1,1.235.707,2.326,2.326,0,0,1,.082.676c.016.217.084.438.1.609.025.294-.007.741-.3.757-.393.02-.26-.374-.264-.659-.015-.875-.574-1.231-1.038-1.695m1.664,4.23c-.039.3-.6.121-.642-.066a.815.815,0,0,1,.049-.264c.034-.232-.074-.5-.033-.708.073-.378.65-.228.592.247-.017.144-.234.331-.242.429s.3.146.276.362m1.381-4.658c-.031.116-.636.228-.888.247a1.913,1.913,0,0,1-.84-.148c-.134-.045-.462-.116-.477-.23-.021-.167.4-.254.494-.28a2.366,2.366,0,0,1,.659-.132,2.141,2.141,0,0,1,.609.2c.116.051.486.19.443.345m1.728.379a7.808,7.808,0,0,1,.461.986.6.6,0,0,1-.708,0c-.135-.132-.117-.376-.213-.575a3.126,3.126,0,0,0-.478-.543,2.016,2.016,0,0,1-.411-1.185c-.154-.2-.342.029-.592.05a1.37,1.37,0,0,1-.643-.149c-.167-.077-.349-.279-.492-.279-.206,0-.208.186-.247.329-.128.1-.3.243-.461.2-.18-.052-.141-.263-.181-.477-.032-.164-.131-.3-.1-.428.129-.1.285-.059.444-.066.467-.019.975-.188,1.383-.181.282.005.477.19.724.231a8.652,8.652,0,0,1,1.119,1.6c.115.173.273.316.394.494m3.26-.313c.136.174.28.452.18.6s-.7-.082-.805-.466a1.469,1.469,0,0,0-.116-.413c-.1-.134-.464-.15-.725-.18-.826-.093-1.591-.121-2.353-.279a4.345,4.345,0,0,1-.444-.758c.087-.115.174-.147.395-.131a7.83,7.83,0,0,1,2.206.543,3.728,3.728,0,0,1,.921.461,4.148,4.148,0,0,1,.741.625M68.6,60.18a6.183,6.183,0,0,0-1.695.017c-.179.077-.3.311-.477.428-.243.158-.477.183-.708.312-.231-.092-.4-.246-.625-.345-.087-.228.024-.646-.066-.922-.059-.181-.258-.346-.263-.51-.016-.359.739-.584,1.085-.609.4-.029,1.336.235.659.428-.116.033-.25.024-.263.131-.019.151.252.192.46.181.364-.018.464-.205.823-.164a1.918,1.918,0,0,1,.758.28,2.1,2.1,0,0,1,.295.493.537.537,0,0,1,.017.28m-.1-.9c-.41-.436-1.171-.48-1.611-.922.014-.09.074-.124.042-.263s-.59-.2-.915-.1c-.148.048-.312.171-.494.247a5.237,5.237,0,0,0-.527.214c-.189.112-.3.3-.46.362-.035-.143-.031-.283-.066-.444-.022-.1-.117-.211-.1-.3.024-.12.3-.163.412-.214.3-.139.564-.45.955-.428a3.123,3.123,0,0,1,1.5.477c.568.293,1.091.488,1.646.839.2.124.626.407.641.593s-.229.4-.411.411c-.326.016-.448-.307-.61-.477m.432,1.014c.068-.259.964-.164.968.171.006.493-1.035.088-.968-.171m1.627-.981c.139-.019.341.027.377.1.064.123-.106.438-.18.526a.747.747,0,0,1-.676.214.627.627,0,0,1-.048-.576,1.225,1.225,0,0,1,.527-.263m1.6-2.034c-.036.232-.554.267-.832.372-.257.1-.3.34-.477.592-.209.3-.573.717-.829.618s-.22-.351-.158-.536c.076-.219.545-.442.725-.609.351-.325.524-.73,1.119-.79.287-.028.488.121.452.353m3.308,1.264c-.194.234-.779.088-.77-.181.008-.327.831-.253.77.181"/></g></svg>