<svg xmlns="http://www.w3.org/2000/svg" xmlns:xlink="http://www.w3.org/1999/xlink" width="1920" height="361.947" viewBox="0 0 1920 361.947">
  <defs>
    <clipPath id="clip-path">
      <rect id="Rectangle_48" data-name="Rectangle 48" width="1920" height="361.947" transform="translate(2417.958 1152.25)" fill="none"/>
    </clipPath>
  </defs>
  <g id="vector_wave_top" transform="translate(-2417.958 -1152.25)">
    <g id="Group_909" data-name="Group 909" clip-path="url(#clip-path)">
      <g id="Group_907" data-name="Group 907">
        <g id="Group_906" data-name="Group 906" opacity="0.1">
          <path id="Path_342" data-name="Path 342" d="M2686.822,1089.8c.086.148,5.2-3.191,5.277-3.047.322.556-12.032,18.461-11.731,18.982.522.9,27.687-17.071,28.157-16.257.451.781-32.281,26.238-31.74,27.175.776,1.344,50.7-31.054,51.468-29.715.759,1.315-59.428,41.912-58.529,43.47.915,1.584,72.158-44.115,73.221-42.274.894,1.548-67.831,47.416-66.908,49.014.956,1.656,76.858-47.09,78.034-45.053.989,1.714-77.127,54.38-75.984,56.359,1.5,2.6,93.89-57.927,95.5-55.138,1.515,2.624-98.73,62.65-97.12,65.44,1.34,2.319,112.514-68.832,114.191-65.928,1.346,2.333-111.269,71.357-109.288,74.789,1.474,2.552,122.631-74.541,124.251-71.736,2,3.46-116.47,73.218-114.685,76.31,1.835,3.179,134.221-82.841,136.537-78.83,2.254,3.9-134.116,82.775-132.116,86.24,1.822,3.155,144.707-88.509,146.856-84.787,2.033,3.521-137.228,85.822-135.112,89.488s150.1-92.27,152.528-88.063c2.058,3.565-152.268,90.863-149.652,95.394,2.509,4.346,159.769-98.7,162.566-93.858,2.069,3.584-153.543,94.764-151.3,98.641,2.5,4.331,175.117-107.641,177.948-102.738,2.528,4.38-168,103.86-165.616,107.995,2.818,4.88,179.678-109.875,182.336-105.272,2.284,3.956-180.963,106.062-177.87,111.419,2.487,4.307,188.58-114.974,191.22-110.4,3.151,5.457-184.558,108.357-181.7,113.316,3.156,5.465,190.443-116.582,193.314-111.61,2.5,4.329-192.052,112.631-189.1,117.746,3.408,5.9,207.555-127.188,210.74-121.67,2.414,4.18-208.206,121.554-205.279,126.624,2.725,4.719,215.692-131.077,218.527-126.167,3.387,5.867-215.565,125.607-212.1,131.607,2.634,4.562,222.7-134.9,225.44-130.158,3.143,5.444-217.265,127.811-213.481,134.365,3.976,6.886,226.448-137.472,229.363-132.423,2.834,4.91-223.256,131.394-220.58,136.03,4.156,7.2,232.755-141.534,235.852-136.17,2.806,4.862-229.837,136.954-226.9,142.041,3.929,6.806,241.013-148.644,245.124-141.523,3.894,6.745-234.658,140.577-231.462,146.113,3.93,6.806,251.436-153.814,255.181-147.328,3.674,6.363-253.51,149.272-250.1,155.186,3.962,6.862,259.724-159.038,263.659-152.223,3.69,6.391-258.057,152.019-254.522,158.141,4.679,8.1,270.739-165.586,274.755-158.63,4.3,7.442-267.555,154.108-263.657,160.859,3.935,6.817,278.057-169.96,282.138-162.892,3.81,6.6-278.645,161.825-275.2,167.8,3.437,5.953,283.568-173.092,287.627-166.061,4.784,8.287-276.971,160.45-272.814,167.648,4.537,7.859,288.046-174.432,291.566-168.335,3.586,6.211-280.821,161.387-276.852,168.262,5.058,8.761,288.039-174.7,291.679-168.4,4.977,8.621-287.987,169.676-284.051,176.493,3.841,6.652,297.727-180.02,301.246-173.925,3.7,6.417-284.181,166.9-280.014,174.114,5.306,9.191,297.471-181.063,301.506-174.075,4.755,8.237-294.667,169.78-290.746,176.57,4.433,7.68,304.753-187.75,309.863-178.9,4.329,7.5-305.042,177.84-300.83,185.136,4.4,7.616,316.889-193.672,321.529-185.635,5.1,8.84-310.163,180.079-305.738,187.745,3.823,6.62,318.342-194.125,322.815-186.378,5.091,8.818-312.593,179.489-307.915,187.593,5.379,9.317,324.259-196.392,328.235-189.506,4.78,8.28-319.082,182.456-313.794,191.616,5.2,9.011,327.811-201.631,333.167-192.354,4.505,7.8-321.316,186.649-317.413,193.408,4.07,7.05,325.26-198.193,329.765-190.39,3.9,6.746-312.069,181.794-307.956,188.916,4.255,7.371,326.286-199.132,330.941-191.069,5.419,9.386-325.186,183.964-319.662,193.53,4.428,7.671,331.074-200.276,335.028-193.428,4.239,7.343-322.09,183.436-317.2,191.91,5.689,9.854,326.182-199.2,330.9-191.042,5.53,9.579-322.1,184.462-317.913,191.706,4.245,7.351,328.024-200.982,333.045-192.284,3.772,6.533-324.727,187.46-320.142,195.4,5.382,9.322,333.408-201.577,337.341-194.764,4.27,7.4-328.783,188.344-324.64,195.519,5.807,10.059,331.007-200.87,335.235-193.547,4.9,8.482-323.539,185.855-318.29,194.945,4.758,8.242,331.608-201.586,335.995-193.987,3.762,6.515-320.791,181.659-315.665,190.537,4.814,8.338,327.687-202.268,333.35-192.46,5.152,8.923-327.367,188.164-322.4,196.774,5.618,9.73,336.847-207.8,342.616-197.81,4.574,7.922-331.888,189.936-327.3,197.877,5.226,9.051,339.052-205.213,343.149-198.117,5.249,9.092-325.318,187.157-320.487,195.524,5.054,8.754,333.481-202.242,337.684-194.962,5.357,9.279-322.085,186.751-317.747,194.265,4.857,8.412,329.178-201.623,334.189-192.944,4.036,6.992-323.659,186.935-319.657,193.868,4.877,8.447,331.8-202.005,336.322-194.175,5.642,9.772-326.176,187.062-320.858,196.274,4.445,7.7,331.009-202.913,336.121-194.059,5.254,9.1-321.72,184.983-316.64,193.783,5.475,9.482,339.358-205.336,343.431-198.28,4.389,7.6-326.967,190-322.738,197.323,5.179,8.969,334-204.931,339.236-195.858,4.205,7.282-325.91,188.713-320.716,197.709,4.6,7.971,334.03-204.162,338.927-195.68,5.525,9.57-324.549,184.225-319.208,193.476,5.17,8.955,329.673-200.555,334.1-192.891,4.526,7.841-320.078,187.727-316.244,194.369,4.492,7.78,331.243-204.4,336.938-194.531,4.773,8.267-319.641,187.237-315.589,194.254,4.127,7.148,331.091-201.369,335.514-193.709,5.646,9.78-328.967,188.429-324.14,196.79,4.5,7.8,335.313-206.172,340.76-196.738,4.542,7.868-332.545,190.186-327.98,198.092,5.441,9.425,339.083-209.251,344.921-199.14,4.374,7.576-328.317,187.261-323.1,196.3,4.569,7.912,333.169-201.723,337.225-194.7,5.292,9.164-327,191.3-322.763,198.644,5.347,9.26,345.739-213.175,351.612-203,5.449,9.437-331.846,189.585-326.289,199.209,5.257,9.106,332.165-204.4,337.63-194.931,4.685,8.115-330.738,190.435-325.268,199.909,5.24,9.077,344.916-210.235,349.722-201.912,4.654,8.062-334.011,195.039-329.883,202.188,4.687,8.119,343.141-209.171,347.929-200.877,3.991,6.912-338.554,195.216-333.982,203.135,4.173,7.227,350.914-212.035,355-204.959,5.036,8.723-336.2,193.445-331.058,202.349,5.7,9.868,342.38-207.447,346.612-200.116,5.432,9.407-338.748,195.913-334.6,203.093,5.178,8.968,346.328-210.723,350.992-202.645,4.294,7.438-334.4,196.217-330.429,203.091,4.2,7.275,348.01-214.465,353.873-204.309,5.7,9.879-343.8,199.162-339.8,206.089,5,8.659,352.219-213.466,356.6-205.881,4.929,8.536-345.031,199.773-340.273,208.013,5.546,9.606,356.008-218.565,361.648-208.8,5.412,9.374-350.881,205.3-346.664,212.6,4.671,8.091,361.142-218.636,365.529-211.038,5.374,9.308-354.471,205.177-350.225,212.532,5.544,9.6,364.634-222.314,369.741-213.47,4.322,7.487-362.433,206.743-357.508,215.273,6.33,10.963,365.815-224.5,371.574-214.528,4.385,7.595-363.942,211.123-359.713,218.446,6.455,11.182,373.472-228.7,379.136-218.894,4.725,8.184-364.386,210.48-359.038,219.743,5.259,9.109,371.324-227.293,376.914-217.611,4.965,8.6-373.2,211.192-366.8,222.284,4.5,7.8,382.03-235.293,388.408-224.247,6.29,10.9-384.245,219.93-379.731,227.747,5.819,10.079,387.856-237.461,393.716-227.312,5.818,10.077-382.935,220.694-377.295,230.462,5.787,10.023,396.036-239.329,400.659-231.321,4.536,7.856-389.235,224.2-384.018,233.241,5.151,8.921,393.082-240.318,398.872-230.289,5.143,8.907-390.608,222.3-384.857,232.256,5.061,8.766,400.7-242.4,405.488-234.109,6.738,11.671-394,224.692-388.632,233.993,7.025,12.166,394.6-242.256,400.852-231.432,6.54,11.327-400.892,227.981-395.843,236.726,4.918,8.518,404.678-248.021,410.9-237.236,5.341,9.251-398.594,226.73-392.629,237.063,5.691,9.856,408.208-248.293,413.67-238.832,5.894,10.208-407.09,231.748-401.886,240.762,5.1,8.826,409.669-252.8,416.718-240.592,5.278,9.142-411.5,234.112-406.233,243.237,5.333,9.238,409.428-250.3,415.452-239.862,5.5,9.526-411.023,230.974-404.678,241.964,6.26,10.843,412.843-252.085,418.789-241.788,6.233,10.8-400.161,232.648-395.508,240.706,6.778,11.74,416.537-252.167,421.595-243.407,5.372,9.3-410.572,232.675-404.4,243.367,5.78,10.012,404.8-244.71,409.565-236.463,5.968,10.338-398.83,225.926-392.212,237.389,5.307,9.192,385.739-237.194,392.012-226.328,6.126,10.61-376.4,216.493-371.889,224.309,4.989,8.642,356.769-219.2,362.493-209.285,4.724,8.183-346.774,199.138-342.222,207.023,4.525,7.838,326.481-201.34,332.044-191.7,3.9,6.754-310.185,178.083-305.608,186.011,3.911,6.775,286.119-176.89,291.185-168.115,4.019,6.961-274.577,158.654-270.671,165.42,3.748,6.492,250.83-152.744,254.263-146.8,3.607,6.248-228.174,132.7-224.5,139.063,2.817,4.88,201.874-124.362,205.256-118.5,1.972,3.414-166.266,99.16-163.487,103.974,1.7,2.943,129.853-78.836,131.527-75.937" fill="none" stroke="#ffd100" stroke-linecap="round" stroke-linejoin="round" stroke-width="2"/>
        </g>
      </g>
      <g id="Group_908" data-name="Group 908">
        <path id="Path_343" data-name="Path 343" d="M2714.347,1199.264l1.267,1.12c1.5,1.291,3.057,2.52,4.586,3.755,5.665,3.8,16.45,12.419,31.549,22.471.049-.076-.232-.369.147-.214s1.4.778,4.138,2.422c12.064,7.779,15.3,9.386,17.58,10.614,2.3,1.2,3.763,1.87,13.027,6.515-2.863-1.422-6-3.18-8.817-4.681-2.8-1.536-5.187-2.975-6.521-3.822q17.319,9.812,35.553,17.861c-4.851-2.578-8.768-4.778-2.6-2.29-1.688-1.15.538-.565,3.772.47s7.543,2.381,9.94,3.019c-3.238-1.435-6.15-2.7-8.527-3.8l-5.409-2.606a36.06,36.06,0,0,1,4.9,1.85l9.927,4.094c-.555-.3-1.161-.652-2.278-1.2,1.117.547,1.723.9,2.278,1.2l7.916,3.129,8.1,3.034c-2.93-1.188-5.857-2.377-4.346-1.959-3.708-1.34-7.352-2.844-11.016-4.3-1.83-.73-3.631-1.533-5.448-2.3s-3.634-1.528-5.421-2.359c-.669-.378.051-.114,1.369.428l-5.638-2.363,4.2,2.1c1.431.8-1.5-.43-4.4-1.648-5.74-2.609-7.113-3.485-9.877-4.9-3.8-1.828-7.631-3.591-11.376-5.533-1.1-.44.158.339,2.39,1.61s5.494,2.926,8.29,4.4c5.655,2.828,9.56,4.765.193.535l-5.59-2.995c-2.134-1.019-4.387-2.242-6.707-3.452l-3.487-1.842-3.421-1.89c-4.528-2.438-8.61-4.869-11.439-6.321-1.936-1.387-4.333-2.959-6.869-4.544l-7.559-4.833c-4.786-3.16-8.732-5.812-9.112-6.657-7.36-5.344-15.071-11.375-22.856-17.854q-2.895-2.419-5.836-4.874l-5.985-4.825c-4.038-3.231-8.124-6.525-12.067-10.029a101.078,101.078,0,0,1-11.132-11.341,42.278,42.278,0,0,1-7.939-13.893,53.217,53.217,0,0,1-1.867-15.2,90.218,90.218,0,0,1,1.226-14.223c.149-3.2.05-4.849.176-7.714a47.567,47.567,0,0,1,.7-5.535,54.789,54.789,0,0,1,2.67-9.325c.343-.764.771-1.619,1.218-2.443.417-.831.9-1.621,1.292-2.267.761-1.3,1.365-1.982.913-1.2.53-.871,1.042-1.748,1.673-2.589a27.2,27.2,0,0,1,1.971-2.494,20.241,20.241,0,0,1,5.312-4.287,20.285,20.285,0,0,0-4.939,3.679c-.7.711-1.341,1.453-1.952,2.189-.551.756-1.166,1.482-1.625,2.224a63.408,63.408,0,0,0-4.028,7.117c.431-1.078.871-1.977,1.227-2.733s.676-1.36.924-1.836c.493-.954.719-1.4.731-1.458a18.308,18.308,0,0,0-1.961,3.147,62.855,62.855,0,0,0-2.9,6.185c-.738,1.862-1.234,3.142-1.182,2.726a60.7,60.7,0,0,1,5.025-11.879,33.766,33.766,0,0,1,4.028-5.668,21.268,21.268,0,0,1,6.052-4.863c-.578.3-1.155.6-1.727.919-.541.333-1.036.7-1.553,1.058a28.943,28.943,0,0,0-6.406,7.3,53.183,53.183,0,0,0-4.07,7.885,83.512,83.512,0,0,0-2.811,8.065c-.775,2.708-1.427,5.433-1.978,8.171a105.705,105.705,0,0,0-1.923,16.627,68.1,68.1,0,0,0,1.373,17.262,36.638,36.638,0,0,0,1.392,4.534,16.933,16.933,0,0,0,.917,2.172l1,2.109c.754,1.309,1.5,2.642,2.314,3.889.852,1.192,1.653,2.47,2.562,3.584a99.676,99.676,0,0,0,11.534,12.307c4.043,3.719,8.2,7.166,12.313,10.522l6.079,4.98,5.994,5.068Z" fill="#fffae5"/>
        <path id="Path_344" data-name="Path 344" d="M3280.566,1104.458l-.455-.682,291.073.464c103.1.294,211.426.687,322.392,1.481,55.482.408,111.626.91,168.094,1.757,28.232.441,56.55.937,84.882,1.753,14.164.411,28.34.875,42.469,1.6a22.39,22.39,0,0,1,4.377.635,7.765,7.765,0,0,1,3.018,1.492,5.207,5.207,0,0,1,1.556,2.587,10.636,10.636,0,0,1,.13,3.693,33.413,33.413,0,0,1-2.685,9.015,87.35,87.35,0,0,1-4.641,9.029,187.311,187.311,0,0,1-11.646,17.273c-4.195,5.6-8.612,11.072-13.161,16.441-9.111,10.725-18.715,21.084-28.661,31.043q-3.732,3.731-7.544,7.355l-7.751,7.15-1.94,1.785-1.987,1.733-3.97,3.466c-1.328,1.15-2.637,2.323-3.98,3.454l-4.06,3.358c-10.818,8.957-21.975,17.5-33.535,25.428q-17.31,11.937-35.5,22.409c-12.122,6.959-24.546,13.338-37.15,19.255l-4.736,2.2-2.367,1.1-2.392,1.039-9.57,4.143-9.657,3.905c-3.211,1.314-6.485,2.465-9.721,3.7-13,4.8-26.152,9.129-39.432,12.856l9.616-5.445a496.418,496.418,0,0,1-88.33,19.323,476.06,476.06,0,0,1-92.88,2.473c-30.992-2.172-61.627-7.079-91.367-12.324l-43.955-7.853q-10.811-1.9-21.424-3.641l-10.556-1.672-10.457-1.457,10.7,1.776,10.659,1.972q10.645,2.031,21.263,4.159l-17.377-2.716c-6.616-1.027-13.986-2.225-21.955-3.271l-25.371-3.559c-8.91-1.111-18.207-2.134-27.667-3.274-37.883-4.246-78.735-7.26-109.926-9.175l6.194-.266,24.377,1.424c5.756.349,9.333.674,11.338.786,4.007.263,1.7,0-2.19-.435l-6.435-.743c-2.15-.234-4.107-.451-5.276-.651-2.34-.377-1.531-.713,7.159-.539l14.88.886-8.67-1.036-7.449-.443-7.456-.319a12.174,12.174,0,0,1,2.62-.431c.828-.042,2.042-.052,3.929-.005,1.884.078,4.439.233,7.951.484-3.3-.265-6.6-.6-9.912-.809l-9.921-.663c-10.648-1.11-18.638-2.1-24.551-2.838-5.913-.71-9.745-1.318-12.073-1.861-4.658-1.086-3.3-1.914-.577-2.792-5.614-.141-5.521.421-9.987.654-2.233.126-5.6.129-11.4-.006-5.794-.1-14.009-.383-25.934-.956l6.254-.442-13.066-.155-13.058-.025c-8.7,0-17.411-.059-26.11-.01l-23.228-1.242c-18.6.136-30.609.464-49.658-.007l-5.792,1.28c-42.619-.689-90.772-.775-139.016-1.94l-18.088-.455c-6.024-.162-12.031-.433-18.025-.647l-17.911-.692c-5.939-.281-11.852-.551-17.711-.9-11.73-.635-23.268-1.492-34.545-2.466-11.27-1.014-22.27-2.209-32.9-3.638-18.821-1.069-64.4-8.8-109.566-24.013l9.46,3.992c3.154,1.349,6.382,2.5,9.578,3.766a384.226,384.226,0,0,0,48.469,12.817c2.441.529,4.942.974,7.479,1.436l7.722,1.4,7.963,1.271,4.055.643,4.113.573c11.013,1.621,22.551,2.868,34.348,4.039,23.611,2.222,48.327,3.67,72.411,4.632,12.04.509,23.909,1.057,35.415,1.377,11.5.375,22.625.793,33.169,1.05l-3.321.7-24.656-.175c-8.161-.121-16.854-.217-27.8-.9l-5.789,1.1c18.408,3.23,56.507,3.968,93.772,3.8l27.483-.248,25.275-.351c15.69-.2,28.638-.307,36.3-.058,32.5,1.01,21.865,1.615,6.991,1.963-14.875.377-34,.537-18.473.6-71.544,1.129,59.7,3.718,89.841,6.1,10.487.663,22.551,1.2,35.828,1.87l20.79,1.052c3.6.185,7.278.317,11,.543l11.357.657c30.761,1.578,64.992,4.026,99.945,7.433l13.133,1.353,6.586.675c2.2.221,4.4.439,6.585.738l26.287,3.316c2.184.292,4.378.51,6.547.861l6.508.995,12.954,1.977,12.845,1.956,12.673,2.181c33.574,5.981,65.411,12.535,93.072,17.118,11.565,1.725,23.41,3.38,35.528,4.75,12.122,1.349,24.508,2.451,37.121,3.1l9.5.422,9.568.194c1.6.022,3.2.079,4.806.072l4.82-.035c3.218-.048,6.447.013,9.681-.124,12.943-.273,26-1.18,39.129-2.442a526.684,526.684,0,0,0,155.443-40.41c12.4-5.374,24.61-11.122,36.46-17.443,3-1.52,5.92-3.161,8.85-4.785s5.878-3.206,8.741-4.93l8.627-5.071,8.473-5.268c11.195-7.14,22.123-14.542,32.557-22.4,2.652-1.907,5.173-3.974,7.756-5.946l3.844-2.987c1.276-1,2.512-2.045,3.766-3.064,2.494-2.057,5.006-4.078,7.463-6.149l7.268-6.294c2.442-2.061,4.739-4.27,7.1-6.4,2.338-2.146,4.691-4.256,6.972-6.465,4.569-4.377,8.98-8.8,13.288-13.256q12.916-13.371,24.5-27.188a265.884,265.884,0,0,0,21.272-28.751,98.469,98.469,0,0,0,8.407-16.281,42.556,42.556,0,0,0,2.626-9.944l.144-1.437c.038-.487.042-1.012.057-1.516a14.336,14.336,0,0,0-.032-1.579l-.052-.811-.031-.406-.066-.464a18.309,18.309,0,0,0-2.418-7.112,17.382,17.382,0,0,0-4.945-5.325,21.777,21.777,0,0,0-6.205-2.923,40.364,40.364,0,0,0-10.053-1.283c-5.549-.255-11.25-.449-17.078-.612-11.656-.317-23.828-.515-36.268-.62-24.88-.224-50.842-.165-75.873-.137-50.058.063-96.386-.02-122.756-2.271l-154.4-1.544,3.289-.752c-150.247-.737-316.047.856-456.27.79-61.247-.106-79.794,1.736-107.6-.566-60.825-1.082-127.1-1.253-192.992-1.508s-131.422-.607-190.7-2.287c.42.693-16.1.9,5.8,1.943,60.75.974,130.678,3.665,132.786,5.563l-22.733-.553,40.572,2.144,26.064-.226c6.652.543,9.632.939,10.087,1.236,44.672,1.215,83.511,3.217,129.817,4.7C3191.639,1103.137,3229.054,1103.284,3280.566,1104.458Z" fill="#fffae5"/>
      </g>
      <path id="Path_345" data-name="Path 345" d="M4592,1083.629c-102.288,104.76-257.44,140.762-403.852,139.725s-290.69-33.923-436.691-44.922c-328.14-24.72-654.325,61.495-966.213,166.435-208.569,70.176-424.841,150.31-642.7,119.251V1083.284Z" fill="#f4f4f4"/>
    </g>
  </g>
</svg>
