<svg xmlns="http://www.w3.org/2000/svg" xmlns:xlink="http://www.w3.org/1999/xlink" width="1920" height="361.947" viewBox="0 0 1920 361.947"><defs><style>.a,.c,.e{fill:none;}.b{clip-path:url(#a);}.c{stroke:#fffae5;}.c,.e{stroke-linecap:round;stroke-linejoin:round;}.d{opacity:0.1;}.e{stroke:#ffd100;stroke-width:2px;}.f{fill:#f4f4f4;}</style><clipPath id="a"><rect class="a" width="1920" height="361.947" transform="translate(2417.958 1152.25)"/></clipPath></defs><g transform="translate(-2417.958 -1152.25)"><g class="b"><path class="c" d="M2835.235,1261.209c62.246,22.4,129.074,28.489,195.151,31.643,184.41,8.8,370.659-3.761,552.662,27.217,58.062,9.882,115.566,24.182,174.333,28.094,136.472,9.084,275.87-41.235,375.074-135.393,29.982-28.456,98.237-103.917,56.954-106-207.857-10.486-1362.857,1.514-1491.682-20.976-18.941-3.307-28.093,43.282-22.233,63.668,4.672,16.254,26.66,30.994,39.119,41.626A389.574,389.574,0,0,0,2835.235,1261.209Z"/><g class="d"><path class="e" d="M2691.547,1087.068c.1.169,5.827-3.589,5.924-3.42.425.735-18.894,21.022-18.5,21.71.45.778,32.533-19.814,32.979-19.04.636,1.1-34.378,29.528-33.839,30.46.638,1.105,49.5-30.424,50.3-29.042.933,1.615-54.1,41.035-53.3,42.432.97,1.68,70.9-42.975,71.779-41.442,1.1,1.9-71.071,49.259-70.02,51.08,1.451,2.513,79.381-48.591,80.577-46.521,1.524,2.641-84.593,56.538-83.412,58.583,1.208,2.093,105.71-64.894,107.382-62,1.55,2.685-104.767,67.9-103.421,70.234,1.571,2.721,116.471-70.49,117.876-68.056,1.418,2.455-110.522,72.816-109.08,75.315,2.2,3.8,127.7-78.245,129.658-74.858,1.478,2.561-119.894,75.935-117.981,79.247,2.1,3.639,130.874-80.685,133.093-76.841,2.2,3.806-129.125,80.165-127.149,83.587,2.5,4.322,140.56-86.15,142.724-82.4,2,3.47-141.46,86.339-139.16,90.323,2.679,4.641,155.459-94.152,157.363-90.854,2.475,4.285-147.467,90.976-145.46,94.454,2.441,4.227,162.725-99.894,165.3-95.435,2.413,4.18-166.349,98.779-163.774,103.24,2.961,5.128,171.215-105.686,174.175-100.56,1.988,3.444-168.862,103.976-166.665,107.781,2.993,5.184,181.852-111.279,184.575-106.564,2.657,4.6-180.762,110.482-178.46,114.47,3.063,5.3,195.342-119.349,198.186-114.423,3.252,5.632-186.076,112.243-183.357,116.952,2.52,4.366,198.418-122.491,201.854-116.541,2.571,4.453-196.978,118.511-194.306,123.138,2.541,4.4,208.586-129.048,212.318-122.582,2.928,5.071-207.856,123.9-204.5,129.713,3.2,5.544,227.049-139.207,230.565-133.117,3.43,5.94-218.186,129.878-214.4,136.433,3.916,6.782,232.754-140.864,235.561-136,3.844,6.658-233.573,135.978-230.543,141.226,3.645,6.314,241.113-145.908,244.015-140.882,3.006,5.207-239.883,140.13-236.92,145.261,3.988,6.908,242.5-147.895,245.918-141.981,2.807,4.861-239.267,140.969-236.185,146.308,3.712,6.429,254.533-157.177,258.959-149.51,4.035,6.988-253.383,151.944-250.352,157.2,3.749,6.492,266.509-163.583,270.716-156.3,3.086,5.346-265.241,154.856-261.47,161.387,3.314,5.741,278.125-167.97,281.327-162.424,4.522,7.832-275.517,160.022-271.864,166.349,4.478,7.757,277.358-168.448,280.959-162.212,4.185,7.251-272.042,158.241-268.356,164.624,3.473,6.017,286.636-173.66,290.174-167.532,4.715,8.167-282.183,165.353-278.088,172.445,3.892,6.743,290.753-176.762,294.6-170.09,4.862,8.42-281.61,161.467-276.888,169.646,4.125,7.145,295.248-178.654,298.8-172.51,4.758,8.241-295.036,172.258-290.409,180.273,5.136,8.9,305.013-185.961,309.284-178.564,4.457,7.72-301.308,174.765-297.584,181.215,4.409,7.635,307.918-188.39,312.514-180.43,4.334,7.508-297.2,173.783-292.952,181.144,5.428,9.4,306.115-185.968,310.113-179.044,3.818,6.613-297.879,170.37-292.885,179.022,4.614,7.991,308.975-189.784,313.91-181.236,3.928,6.8-302.979,175.642-298.355,183.65,3.81,6.6,317.734-192.177,321.516-185.627,4.762,8.248-311.594,181.118-307.667,187.92,5.418,9.383,319.535-196.55,324.76-187.5,4.922,8.526-319.868,183.7-315.442,191.362,3.971,6.877,320.184-195.376,324.738-187.488,5.1,8.832-308.517,180.952-304.685,187.588,4.339,7.516,323.223-198.715,328.463-189.639,4.4,7.622-314.388,181.409-309.682,189.561,3.994,6.918,324.116-197.161,328.46-189.636,5.346,9.26-316.153,183.186-311.337,191.529,5.746,9.951,325.531-198.665,330.172-190.625,4.565,7.905-319.216,184.756-315.2,191.717,3.943,6.828,329.9-203.328,335.465-193.681,4.289,7.429-328.084,189.133-324.214,195.836,4.1,7.1,332.59-203.357,337.5-194.855,5.3,9.179-324.864,188.912-320.231,196.937,5.558,9.628,338.5-204.869,342.586-197.792,4.926,8.533-322.606,188.769-318.63,195.655,4.171,7.224,329.974-200.051,334.1-192.9,5.121,8.87-324.909,185.259-319.64,194.384,4.518,7.827,336.82-205.924,341.783-197.328,5.183,8.978-329.415,187.127-324.373,195.86,5.6,9.707,332.048-201.079,336.106-194.051,4.9,8.487-330.561,188.027-325.819,196.241,5.138,8.9,331.379-201.928,335.972-193.973,4.029,6.979-315.007,184.313-311.287,190.757,5.2,9.011,328.092-200.2,332.757-192.117,4.474,7.75-323.389,189.274-319.595,195.845,5.794,10.037,338.147-207.657,343.529-198.336,3.874,6.71-325.572,187.836-321.142,195.508,5.792,10.033,328.973-200.6,333.592-192.6,4.591,7.951-317.616,186.679-313.88,193.15,5.069,8.78,327.8-200.573,332.7-192.085,5.209,9.022-318.841,185.609-314.27,193.527,5.313,9.2,336.952-205.753,341.808-197.343,4.066,7.042-331.763,190.717-327.086,198.817,4.493,7.782,333.048-203.747,338.011-195.151,4.94,8.557-323,186.66-318.732,194.054,5.084,8.805,331.683-202.717,336.541-194.3,4.921,8.523-324.614,185.242-319.653,193.834,4.693,8.129,334.508-202.558,338.592-195.486,4.93,8.54-324.416,186.356-319.722,194.486,5.01,8.677,331.144-203.074,336.292-194.158,3.907,6.768-333.546,189.112-328.162,198.437,5.169,8.953,341.876-206.6,345.868-199.687,5.6,9.693-329.082,193.524-325.126,200.376,4.7,8.138,336.176-205.391,341.069-196.917,4.01,6.946-324.519,186.741-319.427,195.56,3.98,6.893,340.356-209.343,345.915-199.714,4.472,7.745-329.294,189.7-323.9,199.04,4.1,7.107,333.6-204.858,338.9-195.666,4.721,8.178-332.62,188.99-327.217,198.348,4.292,7.435,340.694-206.871,345.1-199.243,4.834,8.372-331.934,190.212-327.1,198.58,4.216,7.3,341.935-206.834,346.013-199.771,4.306,7.459-336.43,190.4-331.089,199.652,5.8,10.039,343.151-209.206,347.952-200.89,4.572,7.918-342.948,194.325-337.831,203.187,4.46,7.726,346.283-210.706,350.951-202.621,5.713,9.9-340.969,198.5-336.925,205.5,5.231,9.061,347.363-211.724,352.2-203.344,3.965,6.868-339.282,191.648-333.63,201.438,5.92,10.254,341.958-209.527,347.2-200.455,5.629,9.749-337.421,191.456-331.776,201.234,5.609,9.716,346.805-210.314,351.172-202.749,5.453,9.444-341.022,197.914-336.347,206.011,4.723,8.181,352.8-213.465,357.036-206.135,4.323,7.488-348.983,201.354-343.847,210.249,5.644,9.775,361.1-220.679,366.384-211.532,5.845,10.125-350.143,200.229-345.068,209.02,5.632,9.754,351.247-212.546,355.471-205.231,5.028,8.709-354.68,201.322-349.093,211,6.235,10.8,363.539-220.752,368.243-212.605,4.875,8.444-357.425,204.932-352.97,212.649,5.65,9.786,364.907-225.389,371.276-214.356,5.678,9.833-368.6,208.244-363.071,217.827,5.647,9.78,372.7-225.06,376.975-217.647,4.636,8.029-362.993,210.337-358.4,218.292,4.379,7.584,367.062-226.2,373.245-215.493,4.9,8.489-369.332,209.717-363.656,219.548,6.515,11.283,375.626-231.958,382.16-220.64,5.877,10.179-364.192,211.283-359.137,220.038,6.454,11.179,376.705-232.133,383.046-221.151,4.872,8.439-370.778,214.824-365.8,223.439,5.983,10.364,378.571-231.709,384.261-221.853,6.248,10.822-373.323,215.862-368.195,224.743,5.342,9.253,380.806-233.739,386.817-223.329,4.488,7.774-387.074,220.87-381.732,230.123,6.026,10.438,397.223-244.156,403.64-233.041,5.328,9.229-391.956,222.552-385.906,233.032,4.769,8.26,398.438-240.857,403.123-232.744,6.359,11.014-391.058,225.784-386.053,234.453,6.373,11.038,400.129-243.886,405.7-234.232,5.032,8.714-402.5,229.265-396.853,239.043,6.47,11.206,402.908-246.775,409.038-236.158,5.394,9.344-400.368,228.009-394.887,237.5,6.291,10.9,404-244.431,408.839-236.043,5.851,10.135-402.639,227.991-397.064,237.648,6.307,10.924,409.465-247.634,414.328-239.213,6.014,10.416-404.31,228.994-397.572,240.665,5.345,9.257,408.275-247.6,413.419-238.688,6.205,10.748-406.934,228.629-400.158,240.364,7.128,12.347,415.909-253.6,421.742-243.493,4.935,8.548-413.456,232.578-406.4,244.793,6.107,10.578,411.939-253.525,418.734-241.756,5.246,9.088-406.647,229.566-399.812,241.405,5.947,10.3,405.982-248.85,412.241-238.008,6.223,10.779-396.077,226.592-389.686,237.661,5.21,9.023,392.992-238.911,398.2-229.9,4.723,8.181-389.167,223.156-384.248,231.676,4.763,8.251,382.543-231.4,387.108-223.5,4.906,8.5-363.929,209.868-359.36,217.782,5.9,10.22,344.126-211.439,349.65-201.871,5.885,10.192-341.055,194.505-336.347,202.659,5.458,9.454,320.967-195.247,325.269-187.794,3.821,6.618-301.994,172.162-296.927,180.937,3.428,5.938,274.322-169.483,279.13-161.156,3.124,5.411-257.841,151.237-253.879,158.1,2.816,4.877,233.265-142.853,236.806-136.72,2.565,4.443-194.387,117.542-191.5,122.549,2.215,3.836,152.556-93.156,154.755-89.348,1.457,2.524-97.54,60.591-95.817,63.575.564.977,42.6-25.765,43.109-24.89"/></g><path class="f" d="M4592,1083.629c-102.288,104.76-257.44,140.762-403.852,139.725s-290.69-33.923-436.691-44.922c-328.14-24.72-654.325,61.495-966.213,166.435-208.569,70.176-424.841,150.31-642.7,119.251V1083.284Z"/></g></g></svg>