<svg xmlns="http://www.w3.org/2000/svg" xmlns:xlink="http://www.w3.org/1999/xlink" width="591.851" height="965.522" viewBox="0 0 591.851 965.522"><defs><style>.a,.d{fill:none;}.b{clip-path:url(#a);}.c{opacity:0.05;}.d{stroke:#ff6053;stroke-linecap:round;stroke-linejoin:round;stroke-width:7px;}.e{fill:#ff6053;}.f{opacity:0.1;}</style><clipPath id="a"><rect class="a" width="591.851" height="965.522" transform="translate(1328.149 2057.005)"/></clipPath></defs><g transform="translate(-1328 -2057)"><g class="b" transform="translate(-0.149 -0.005)"><g class="c"><path class="d" d="M2055.517,2831.231c-1.241-.728-21.755,39.847-22.961,39.139-2.595-1.522,48.449-127.223,45.93-128.7-5.11-3-110.875,202.541-116.787,199.073-6.128-3.595,138.119-264.026,131.341-268-5.439-3.191-158.143,283.615-164.274,280.019-7.657-4.493,167.346-321,159.518-325.6-6.978-4.094-179.685,323.711-187.289,319.251-10.494-6.157,194.967-356.8,184.979-362.655-7.919-4.645-203.511,364.17-211.048,359.749-11.6-6.807,215.8-396.163,204.794-402.623-8.321-4.881-227.8,415.8-239.8,408.762-12.89-7.562,257.538-453.692,244.864-461.127-9.952-5.839-249.846,450.191-260.455,443.967-10.816-6.345,252.259-447.374,241.581-453.638-13.545-7.946-249.019,453.115-261.52,445.782-12.838-7.532,270.32-488.857,259.721-495.076-13.264-7.781-275.808,500.01-288.845,492.362-11.079-6.5,291.492-507.706,278.358-515.411-13.2-7.743-286.259,515.983-298.493,508.8-13.529-7.936,303.144-532.414,288.651-540.917-13.457-7.894-294.8,527.773-305.826,521.306-13.2-7.744,308.85-537.569,295.8-545.227-14.971-8.783-297.486,539.935-311.821,531.526C1711,2875.588,2033.3,2350.053,2018.7,2341.493c-12.331-7.233-302.833,543.765-314.862,536.708-14.87-8.724,316.489-544.256,303.328-551.977-11.372-6.671-304.764,555.4-320.435,546.208-12.989-7.62,324.189-563.807,311.918-571.006-15.589-9.145-312.079,568.662-328.1,559.266-16.621-9.751,317.462-565.762,306.143-572.4-12.468-7.314-304.556,552.614-319.165,544.043-15.835-9.289,324.255-570.564,311.475-578.061-15.453-9.066-326.835,589.006-340.753,580.841-17.408-10.213,340.675-580.231,323.514-590.3-12.46-7.309-312.572,569.886-328.756,560.392-13.635-8,326.981-573.331,315.528-580.05-11.98-7.028-324.454,589.951-340.555,580.5-15.824-9.283,337.621-588.336,322.905-596.969-16-9.386-325.1,581.167-336.887,574.252-15.8-9.268,320.268-568.706,307.458-576.221-15.122-8.871-316.443,566.019-328.059,559.2-15.4-9.032,332.223-567.613,317.457-576.276-13.947-8.181-319.859,571.1-331.151,564.475-16-9.387,323.463-562.021,306.756-571.823-14.012-8.22-311.586,565.632-326.646,556.8-12.146-7.125,330.786-572.992,317.523-580.773-14.71-8.63-322.323,577.228-334.456,570.11-14.292-8.384,329.454-570.831,315.238-579.171-12.35-7.245-314.487,569.9-329.253,561.238-15.616-9.161,321.654-557.591,306.343-566.574-13.743-8.062-296.453,539.624-311.421,530.844-12.073-7.083,289.363-516.59,278.5-522.963-13.579-7.966-284.516,510.488-295.648,503.957-11.759-6.9,290.281-506.931,279.974-512.978-13.4-7.86-283.035,513.885-296.751,505.838-11.948-7.009,289.336-501.292,275.073-509.659-13.152-7.716-275.323,494.977-286.525,488.405-10.578-6.205,270.828-468.233,257.831-475.857-12.51-7.339-257.168,464.241-268.461,457.616-11.36-6.664,258.009-455.9,248.087-461.719-12.944-7.593-244.083,445.793-257.06,438.18-9.559-5.607,234.51-415.052,222.509-422.092-11.207-6.575-226.081,412.291-237.829,405.4-10.6-6.22,221.482-399.309,211.282-405.293-8.586-5.037-207.988,374.943-216.9,369.717-8.461-4.963,187.907-344.587,178.524-350.091-6.56-3.849-181.563,328.737-189.963,323.809-6.943-4.073,149.843-290.6,142.749-294.757-7.241-4.248-141.642,256.566-148.243,252.693-6.141-3.6,104.253-220.313,99.284-223.228-3.142-1.844-93.407,168.634-97.515,166.224"/><path class="e" d="M1453.53,2305.055c1.837-2.49,3.67-4.979,5.672-7.353-18.236,23.836-34.379,51.252-43.744,80.5,11.692-31.393,32.388-61.908,54.965-88.119,11.283-13.162,23.016-25.359,34.263-36.654,11.273-11.279,22.137-21.551,31.563-31.244,3.9.51,19.726-8.177,35.4-15.606,15.628-7.548,30.977-14.046,31.335-14.892,5.967-3.332,12.2-6.177,18.45-9.166,6.352-2.689,12.725-5.538,19.325-7.845l-6.77,2.467-6.653,2.736c-2.206.927-4.428,1.792-6.6,2.771l-6.476,3.008,6.476-3.008c2.174-.979,4.4-1.844,6.6-2.771l6.653-2.736,6.77-2.467a295.888,295.888,0,0,1,32.025-9.829,277.52,277.52,0,0,1,33.586-5.894,253.074,253.074,0,0,1,34.563-1.588c5.79.317,11.63.4,17.423,1.144,2.9.336,5.824.527,8.716.985l8.688,1.4c46.365,8.247,91.044,31.287,128.731,63.624a399.186,399.186,0,0,1,40.264,39.262c7.64,8.442,15.26,17.927,22.88,27.881,7.422,10.114,14.949,20.638,21.742,31.681a489.178,489.178,0,0,1,34.966,66.237,510.232,510.232,0,0,1,19.962,53.869c2.29,7.95,4.719,15.8,6.737,23.9l-1.964-7.978-1.5-5.416c-.968-3.32-1.748-6.7-3.8-13.315a532.536,532.536,0,0,1,26.546,93.516c-.056-2.736.06-4.37.062-6.933a100.468,100.468,0,0,0-.848-12.494l1.223,7.791,1.009,7.826c2.286,6.9,4.494,18.626,6.175,30.583,1.727,11.954,2.826,24.143,3.76,31.929-.66-1.647-.89.614-.907,4.637.054,4.022.132,9.813.205,15.244l.654-4.323c.511,20.624.33,42.921-1.051,64.6a501.3,501.3,0,0,1-7.325,60.775,57.125,57.125,0,0,1-2.984,10.9c-1.993,11.556-4.618,22.97-7.5,34.316-.524-2.917-9.957,27.255-5.83,11.092-.715,3.2-1.622,6.335-2.6,9.452s-1.9,6.262-2.989,9.34c-2.282,6.1-4.494,12.253-7.176,18.124-2.459,5.993-5.374,11.685-8.055,17.44l-4.3,8.4q-1.053,2.1-2.1,4.188l-2.222,4.064a209.816,209.816,0,0,1-19.549,26.58,171.593,171.593,0,0,1-24.025,22.55,135.329,135.329,0,0,1-28.554,16.228,142.874,142.874,0,0,1-32.233,8.668l-8.4,1.1-8.51.544c-2.833.262-5.7.193-8.559.2-2.863-.049-5.723.134-8.6-.116l-8.622-.482c-2.876-.18-5.745-.6-8.622-.88-5.764-.486-11.475-1.647-17.221-2.487a388.309,388.309,0,0,1-67.264-19.443l1.907,1.382c-30.56-11.714-58.062-22.519-91.544-44.912-12.7-6.774-27.489-16.035-40.388-24.279l-17.467-11.15a115.515,115.515,0,0,0-11.926-6.7c-3.307-2.549-6.366-4.906-9.237-7.12l-8.068-6.318c-5.144-3.919-9.676-7.581-14.263-11.157-9.131-7.2-18.095-14.5-30.32-25.484,2.5,3.522-3.568-1.684-8.916-6.273-5.387-4.588-9.841-8.538-4.6-2.459a168.136,168.136,0,0,0,15.063,16.185c3.914,3.667,7.473,7.094,13.826,13.943l-.054-.767a787.732,787.732,0,0,0,101.579,82.1c36.357,24.472,75.257,46.109,117.616,61.727a394.115,394.115,0,0,0,44.541,12.3,281.458,281.458,0,0,0,47.7,6.178,189.661,189.661,0,0,0,49.483-4.318,147.946,147.946,0,0,0,46.577-19.27,176.242,176.242,0,0,0,39.988-35.823,244.918,244.918,0,0,0,28.813-43.8c15.632-30.484,25.423-61.713,31.575-89.574,1.374-6.678,2.973-12.318,4.386-17.749,1.511-5.414,3.089-10.571,4.382-16.242,2.2-12.95,3.829-26.856,5.341-41.31,1.258-14.471,2.389-29.507,2.665-44.771a599,599,0,0,0-4.457-91.109c.1,1.1.188,2.172.249,2.874-3.7-31.021-6.24-54.473-13.826-84.216-.4.256-1.585-4.342-2.374-6.518.124-.72-.635-3.951-2.065-9.074-.732-2.557-1.6-5.595-2.585-9.035-1.114-3.4-2.358-7.2-3.707-11.317a538.412,538.412,0,0,0-23.7-58.233,572.334,572.334,0,0,0-30.654-55.948l-6.668-10.508c-2.1-3.144-3.977-5.958-5.59-8.376l-3.95-6.028c-1.053-1.547-1.766-2.651-2.089-3.246-1.879-2.559-3.828-5.211-5.817-7.919-9.242-13.212-18.973-26.292-29.35-38.83a467.15,467.15,0,0,0-32.987-35.59,354.561,354.561,0,0,0-36.1-30.323,273.367,273.367,0,0,0-37.86-23.226l-8.8-3.548c-2.955-1.221-6.051-2.189-9.015-3.264-5.914-2.194-11.793-3.793-16.808-5.111a41.656,41.656,0,0,0-10.62-3.584c-3.173-.713-6.568-1.515-12.374-3.116a126.9,126.9,0,0,0-32.642-9.466c-3.161-.486-4.915-.391-4.889-.08s1.826.86,5.682,1.888c-3.124-.48-6.268-.768-9.41-1.024l-9.393-.849-9.346-.433-4.638-.224-4.607,0-9.112-.012c-3.007.073-5.98.257-8.923.382-5.9.168-11.607.826-17.146,1.38-2.569.283-5.112.693-7.644,1.156l-7.6,1.321c-5.069.878-10.064,2.149-15.128,3.23a75.04,75.04,0,0,1-17.966,2.823c-5.4,1.632-9.055,2.685-11.871,3.437-2.8.8-4.735,1.371-6.731,1.865l-6.986,1.778c-2.952.794-6.751,2.087-12.355,3.972-2.968.211-16.6,6.193-29.81,13.1-13.162,7.039-25.86,14.975-28.812,16.49,1.074-.7,2.12-1.446,3.221-2.1-11.852,6.611-21.9,11.859-31.627,17.606l-7.31,4.338c-2.434,1.488-4.817,3.107-7.279,4.729-4.958,3.2-9.888,6.9-15.131,11.062-29.176,23.05-56.35,51.858-77.164,84.58a278.658,278.658,0,0,0-25.878,51.369,252.793,252.793,0,0,0-13.586,53.307c1.467.929,2.019-15.474,4.469-15.835a280.6,280.6,0,0,0,1.741,123.663c.758,3.658,1.54,7.748,2.187,11.36.667,3.6,1.365,6.669,1.61,8.382,1.651,6.434,2.462,8.229,3.2,9.569a31.966,31.966,0,0,1,2.834,6.861l-.882,1.707a109.255,109.255,0,0,1,5.959,16.269,100.013,100.013,0,0,0,6.005,15.567c.811.4,2.932,4.762,4.893,9.045-1.343.931,6.612,12.9,5.073,12.926l.161.071c1.244,2.562,2.3,4.284,3.739,7.448.749,1.125,3.062,4.6,6.159,9.259,3.251,4.542,7.089,10.375,11.313,15.916,2.073,2.79,4.147,5.582,6.118,8.233l5.683,7.226c3.4,4.375,6.06,7.545,6.968,8.555l1.231,2.2c4.285,6.094,6.993,8.063,4.735,4.346,1.693,2.544,3.531,4.976,5.29,7.47l-.7-.793,5.306,7.4c.886,1.432,1.515,3.338-.59,1.681a113.3,113.3,0,0,1,10.25,12.459c-8.127-11.866-17.676-26.971-24.825-40.19,3.915,4.762,9.569,14.35,13.711,19.578,3.8,7.064,13.2,20.49,20.724,30.8,1.811,2.142,4.362,2.518,7.873,7.847,1.125,3.106,4.62,5.473,7.5,9.946-4.5-4.113-8.048-8.9-11.98-13.62-.353,1.662,8.908,12.077,11.9,15.91a84.653,84.653,0,0,1,6,6.525c2.807,3.1,6.067,6.665,8.721,9.287-3.15-1.513,3.445,5.013,6.04,8.651,3.364,3.748,5.96,5.713,4.877,3.92,2.111.212-13.161-15.067-7.276-11,.755,1.81,7.728,8.75,11.417,12.529.6-.49-2.074-3.016.817-1.053,4.008,4.3,9.053,8.05,10.863,11.006a38.483,38.483,0,0,1-3.733-3.675c2.707,2.7-5.609-3.623-13.4-10.164-7.894-6.432-15.316-13.021-11.8-9.486-.309-.6,1.585.944,4.573,3.491l11.184,9.484c8.184,6.823,16.125,13.361,14.34,11.55-3.014-3.569,3.321,1.372.117-2.23l-4.425-3.135c-4.44-4.876-5.376-7.727-3.369-6.455,3.849,3.931-2.653-.62-9.032-5.653-6.461-4.945-12.829-10.328-9.337-7.1l-2.333-3.083c3.031,2.673,10.748,10.094,13.022,13.639.558-.493,4.478,3.217,7.849,6.17l1.026,1.214c3.528,3.007,7.948,7.712,6.539,4.87-9.581-9.557-5.061-7.746-.453-5.944s9.306,3.595.318-5.763c3.244,4.454,2.3,4.112-.492,1.651-2.807-2.442-7.415-7.038-11.407-11.14-.323-1.224-3.336-5.385-8.526-11.774-4.905-5.156-3.287-2.676-4.518-3.39-2.431-3.129-7.142-9.037-5.832-8.872-4.431-3.49-5.4-7.043-9.919-11.916-4.145-4.167-.093.6-3.159-2.256l-4.518-5.509-4.694-6c-3.127-3.976-6.072-7.808-8.094-10.67-1-2.66-4.837-10.064-.173-6.095,7.949,10.637-4.745-2.747,3.9,8.059-2.218-5.827,8.022,9.263,10.743,10.289-2.08-3.983-7.737-10.849-12.393-16.662l.71,1.336c-4.261-5-12.382-15.363-15.667-21.737,1.509.978.1-1.818,3.047,1.992-1.748-2.445-3.378-4.971-5.072-7.452-.825-.821-1.674-1.666-.315.558a44.157,44.157,0,0,1-6.505-9.822c.026-.608-7.251-10.152-13.975-19.766-3.375-4.8-6.554-9.636-8.941-13.144a54.621,54.621,0,0,1-3.419-5.577c-3.13-5.728-3.021-7.561-6.489-12.913a62.486,62.486,0,0,0,4.43,8.193l4.934,8.287c1.836,2.985,3.875,6.084,5.834,9.153,3.882,6.161,8.035,11.855,10.643,15.724,2.728,3.8,4.143,5.631,2.909,3.873-1.261-2.486-11.872-17.528-21.35-33.145-4.8-7.771-9.188-15.737-12.474-21.989-3.162-6.312-5.365-10.841-5.42-11.924-1.952-4.412-4.388-9.707-4.6-8.391-2.9-7.636,2.217,1.721.547-3.867-.151-.08-.157.575-.8-1.156l-1.185-5.516c-5.689-11.362-10.229-29.352-14.693-41.824.893,1.735,1.86,3.613,3.089,6,1.137,2.409,2.535,5.337,4.145,9.264l.078,1.522c.543,1.092,2.863,7.651,3.54,7.215-2.021-7.767-4.235-14.229-6.994-22.218-.217-1.553-.5-3.353-.619-4.572-.083.054-.125.2-.237.191-.236-2.775-.055-2.514.42-1.6a2.786,2.786,0,0,1,.283.526c.233-1.344-.155-3.9-.9-7.2-.374-1.653-.841-3.493-1.363-5.466-.452-1.985-.937-4.107-1.437-6.3s-1.073-4.46-1.54-6.751c-.4-2.3-.811-4.616-1.208-6.874a76.543,76.543,0,0,1-1.22-12.519c-.658-4.242-.426-.367-1.224-5.662.053-3.719.1-7.149.149-10.446.09-3.29.371-6.439.528-9.6.118-3.167.466-6.337.813-9.677.328-3.34.61-6.854,1.228-10.658-.358-4.979-.668-5.443-2.254.417.582-3.869.905-7.771,1.734-11.594.323,5.418,1.775.1,3.184-5,.358-1.277.692-2.547,1.046-3.631a19.992,19.992,0,0,1,1.064-2.53c.616-1.114,1.011-.852.979,2.07,1.337-3.154,2.62-9.87,4.129-16.11a3.83,3.83,0,0,1-.417-2.277,26.2,26.2,0,0,1,1.7-7.516,153.235,153.235,0,0,1,7.4-16.371c1.539-1.741.559,1.544,1.284,1.415a39.426,39.426,0,0,1,3.1-7.579,39.868,39.868,0,0,1,2.7-4.364,76.818,76.818,0,0,0,6.733-10.779c.885-1.914,2.168-4.206,3.533-6.607,1.333-2.421,2.729-4.958,4-7.276,2.713-4.551,4.756-8.354,4.3-8.911C1452.376,2302.81,1453.336,2303.509,1453.53,2305.055Z"/><g class="f"><path class="e" d="M1731.955,2499.306c-75.3-74.341-119.291-163.675-91.08-240.245,28.321-76.634,128.735-140.441,215.743-129.035,86.946,11.3,160.328,98.04,185.308,204.347s1.56,232.177-63.389,265.549C1913.525,2633.183,1807.143,2573.71,1731.955,2499.306Z"/></g><g class="f"><path class="e" d="M1599.347,2804.409c-23.289-103.218-12.131-202.17,52.933-251.419,65.192-49.242,184.163-48.789,251.267,7.758,67.112,56.42,82.095,169.048,45.771,272.033s-123.953,196.326-196.644,189.382C1679.991,3015.092,1622.509,2907.621,1599.347,2804.409Z"/></g></g></g></g></svg>